<?xml version="1.0" encoding="utf-8" standalone="no"?>
<!DOCTYPE svg PUBLIC "-//W3C//DTD SVG 1.1//EN"
  "http://www.w3.org/Graphics/SVG/1.1/DTD/svg11.dtd">
<!-- Created with matplotlib (https://matplotlib.org/) -->
<svg version="1.1" viewBox="0 0 722.16 502.56" xmlns="http://www.w3.org/2000/svg" xmlns:xlink="http://www.w3.org/1999/xlink">
 <defs>
  <style type="text/css">
*{stroke-linecap:butt;stroke-linejoin:round;}
  </style>
 </defs>
 <g id="figure_1">
  <g id="patch_1">
   <path d="M 0 502.56 
L 722.16 502.56 
L 722.16 0 
L 0 0 
z
" style="fill:#ffffff;"/>
  </g>
  <g id="axes_1">
   <g id="patch_2">
    <path d="M 90.27 447.2784 
L 649.944 447.2784 
L 649.944 60.3072 
L 90.27 60.3072 
z
" style="fill:#ffffff;"/>
   </g>
   <g id="matplotlib.axis_1">
    <g id="xtick_1">
     <g id="line2d_1">
      <defs>
       <path d="M 0 0 
L 0 3.5 
" id="m168e620cd6" style="stroke:#000000;stroke-width:0.8;"/>
      </defs>
      <g>
       <use style="stroke:#000000;stroke-width:0.8;" x="96.467758" xlink:href="#m168e620cd6" y="447.2784"/>
      </g>
     </g>
     <g id="text_1">
      <!-- 0 -->
      <defs>
       <path d="M 31.78125 66.40625 
Q 24.171875 66.40625 20.328125 58.90625 
Q 16.5 51.421875 16.5 36.375 
Q 16.5 21.390625 20.328125 13.890625 
Q 24.171875 6.390625 31.78125 6.390625 
Q 39.453125 6.390625 43.28125 13.890625 
Q 47.125 21.390625 47.125 36.375 
Q 47.125 51.421875 43.28125 58.90625 
Q 39.453125 66.40625 31.78125 66.40625 
z
M 31.78125 74.21875 
Q 44.046875 74.21875 50.515625 64.515625 
Q 56.984375 54.828125 56.984375 36.375 
Q 56.984375 17.96875 50.515625 8.265625 
Q 44.046875 -1.421875 31.78125 -1.421875 
Q 19.53125 -1.421875 13.0625 8.265625 
Q 6.59375 17.96875 6.59375 36.375 
Q 6.59375 54.828125 13.0625 64.515625 
Q 19.53125 74.21875 31.78125 74.21875 
z
" id="DejaVuSans-48"/>
      </defs>
      <g transform="translate(93.286508 461.876838)scale(0.1 -0.1)">
       <use xlink:href="#DejaVuSans-48"/>
      </g>
     </g>
    </g>
    <g id="xtick_2">
     <g id="line2d_2">
      <g>
       <use style="stroke:#000000;stroke-width:0.8;" x="179.947539" xlink:href="#m168e620cd6" y="447.2784"/>
      </g>
     </g>
     <g id="text_2">
      <!-- 10 -->
      <defs>
       <path d="M 12.40625 8.296875 
L 28.515625 8.296875 
L 28.515625 63.921875 
L 10.984375 60.40625 
L 10.984375 69.390625 
L 28.421875 72.90625 
L 38.28125 72.90625 
L 38.28125 8.296875 
L 54.390625 8.296875 
L 54.390625 0 
L 12.40625 0 
z
" id="DejaVuSans-49"/>
      </defs>
      <g transform="translate(173.585039 461.876838)scale(0.1 -0.1)">
       <use xlink:href="#DejaVuSans-49"/>
       <use x="63.623047" xlink:href="#DejaVuSans-48"/>
      </g>
     </g>
    </g>
    <g id="xtick_3">
     <g id="line2d_3">
      <g>
       <use style="stroke:#000000;stroke-width:0.8;" x="263.42732" xlink:href="#m168e620cd6" y="447.2784"/>
      </g>
     </g>
     <g id="text_3">
      <!-- 20 -->
      <defs>
       <path d="M 19.1875 8.296875 
L 53.609375 8.296875 
L 53.609375 0 
L 7.328125 0 
L 7.328125 8.296875 
Q 12.9375 14.109375 22.625 23.890625 
Q 32.328125 33.6875 34.8125 36.53125 
Q 39.546875 41.84375 41.421875 45.53125 
Q 43.3125 49.21875 43.3125 52.78125 
Q 43.3125 58.59375 39.234375 62.25 
Q 35.15625 65.921875 28.609375 65.921875 
Q 23.96875 65.921875 18.8125 64.3125 
Q 13.671875 62.703125 7.8125 59.421875 
L 7.8125 69.390625 
Q 13.765625 71.78125 18.9375 73 
Q 24.125 74.21875 28.421875 74.21875 
Q 39.75 74.21875 46.484375 68.546875 
Q 53.21875 62.890625 53.21875 53.421875 
Q 53.21875 48.921875 51.53125 44.890625 
Q 49.859375 40.875 45.40625 35.40625 
Q 44.1875 33.984375 37.640625 27.21875 
Q 31.109375 20.453125 19.1875 8.296875 
z
" id="DejaVuSans-50"/>
      </defs>
      <g transform="translate(257.06482 461.876838)scale(0.1 -0.1)">
       <use xlink:href="#DejaVuSans-50"/>
       <use x="63.623047" xlink:href="#DejaVuSans-48"/>
      </g>
     </g>
    </g>
    <g id="xtick_4">
     <g id="line2d_4">
      <g>
       <use style="stroke:#000000;stroke-width:0.8;" x="346.907101" xlink:href="#m168e620cd6" y="447.2784"/>
      </g>
     </g>
     <g id="text_4">
      <!-- 30 -->
      <defs>
       <path d="M 40.578125 39.3125 
Q 47.65625 37.796875 51.625 33 
Q 55.609375 28.21875 55.609375 21.1875 
Q 55.609375 10.40625 48.1875 4.484375 
Q 40.765625 -1.421875 27.09375 -1.421875 
Q 22.515625 -1.421875 17.65625 -0.515625 
Q 12.796875 0.390625 7.625 2.203125 
L 7.625 11.71875 
Q 11.71875 9.328125 16.59375 8.109375 
Q 21.484375 6.890625 26.8125 6.890625 
Q 36.078125 6.890625 40.9375 10.546875 
Q 45.796875 14.203125 45.796875 21.1875 
Q 45.796875 27.640625 41.28125 31.265625 
Q 36.765625 34.90625 28.71875 34.90625 
L 20.21875 34.90625 
L 20.21875 43.015625 
L 29.109375 43.015625 
Q 36.375 43.015625 40.234375 45.921875 
Q 44.09375 48.828125 44.09375 54.296875 
Q 44.09375 59.90625 40.109375 62.90625 
Q 36.140625 65.921875 28.71875 65.921875 
Q 24.65625 65.921875 20.015625 65.03125 
Q 15.375 64.15625 9.8125 62.3125 
L 9.8125 71.09375 
Q 15.4375 72.65625 20.34375 73.4375 
Q 25.25 74.21875 29.59375 74.21875 
Q 40.828125 74.21875 47.359375 69.109375 
Q 53.90625 64.015625 53.90625 55.328125 
Q 53.90625 49.265625 50.4375 45.09375 
Q 46.96875 40.921875 40.578125 39.3125 
z
" id="DejaVuSans-51"/>
      </defs>
      <g transform="translate(340.544601 461.876838)scale(0.1 -0.1)">
       <use xlink:href="#DejaVuSans-51"/>
       <use x="63.623047" xlink:href="#DejaVuSans-48"/>
      </g>
     </g>
    </g>
    <g id="xtick_5">
     <g id="line2d_5">
      <g>
       <use style="stroke:#000000;stroke-width:0.8;" x="430.386882" xlink:href="#m168e620cd6" y="447.2784"/>
      </g>
     </g>
     <g id="text_5">
      <!-- 40 -->
      <defs>
       <path d="M 37.796875 64.3125 
L 12.890625 25.390625 
L 37.796875 25.390625 
z
M 35.203125 72.90625 
L 47.609375 72.90625 
L 47.609375 25.390625 
L 58.015625 25.390625 
L 58.015625 17.1875 
L 47.609375 17.1875 
L 47.609375 0 
L 37.796875 0 
L 37.796875 17.1875 
L 4.890625 17.1875 
L 4.890625 26.703125 
z
" id="DejaVuSans-52"/>
      </defs>
      <g transform="translate(424.024382 461.876838)scale(0.1 -0.1)">
       <use xlink:href="#DejaVuSans-52"/>
       <use x="63.623047" xlink:href="#DejaVuSans-48"/>
      </g>
     </g>
    </g>
    <g id="xtick_6">
     <g id="line2d_6">
      <g>
       <use style="stroke:#000000;stroke-width:0.8;" x="513.866663" xlink:href="#m168e620cd6" y="447.2784"/>
      </g>
     </g>
     <g id="text_6">
      <!-- 50 -->
      <defs>
       <path d="M 10.796875 72.90625 
L 49.515625 72.90625 
L 49.515625 64.59375 
L 19.828125 64.59375 
L 19.828125 46.734375 
Q 21.96875 47.46875 24.109375 47.828125 
Q 26.265625 48.1875 28.421875 48.1875 
Q 40.625 48.1875 47.75 41.5 
Q 54.890625 34.8125 54.890625 23.390625 
Q 54.890625 11.625 47.5625 5.09375 
Q 40.234375 -1.421875 26.90625 -1.421875 
Q 22.3125 -1.421875 17.546875 -0.640625 
Q 12.796875 0.140625 7.71875 1.703125 
L 7.71875 11.625 
Q 12.109375 9.234375 16.796875 8.0625 
Q 21.484375 6.890625 26.703125 6.890625 
Q 35.15625 6.890625 40.078125 11.328125 
Q 45.015625 15.765625 45.015625 23.390625 
Q 45.015625 31 40.078125 35.4375 
Q 35.15625 39.890625 26.703125 39.890625 
Q 22.75 39.890625 18.8125 39.015625 
Q 14.890625 38.140625 10.796875 36.28125 
z
" id="DejaVuSans-53"/>
      </defs>
      <g transform="translate(507.504163 461.876838)scale(0.1 -0.1)">
       <use xlink:href="#DejaVuSans-53"/>
       <use x="63.623047" xlink:href="#DejaVuSans-48"/>
      </g>
     </g>
    </g>
    <g id="xtick_7">
     <g id="line2d_7">
      <g>
       <use style="stroke:#000000;stroke-width:0.8;" x="597.346444" xlink:href="#m168e620cd6" y="447.2784"/>
      </g>
     </g>
     <g id="text_7">
      <!-- 60 -->
      <defs>
       <path d="M 33.015625 40.375 
Q 26.375 40.375 22.484375 35.828125 
Q 18.609375 31.296875 18.609375 23.390625 
Q 18.609375 15.53125 22.484375 10.953125 
Q 26.375 6.390625 33.015625 6.390625 
Q 39.65625 6.390625 43.53125 10.953125 
Q 47.40625 15.53125 47.40625 23.390625 
Q 47.40625 31.296875 43.53125 35.828125 
Q 39.65625 40.375 33.015625 40.375 
z
M 52.59375 71.296875 
L 52.59375 62.3125 
Q 48.875 64.0625 45.09375 64.984375 
Q 41.3125 65.921875 37.59375 65.921875 
Q 27.828125 65.921875 22.671875 59.328125 
Q 17.53125 52.734375 16.796875 39.40625 
Q 19.671875 43.65625 24.015625 45.921875 
Q 28.375 48.1875 33.59375 48.1875 
Q 44.578125 48.1875 50.953125 41.515625 
Q 57.328125 34.859375 57.328125 23.390625 
Q 57.328125 12.15625 50.6875 5.359375 
Q 44.046875 -1.421875 33.015625 -1.421875 
Q 20.359375 -1.421875 13.671875 8.265625 
Q 6.984375 17.96875 6.984375 36.375 
Q 6.984375 53.65625 15.1875 63.9375 
Q 23.390625 74.21875 37.203125 74.21875 
Q 40.921875 74.21875 44.703125 73.484375 
Q 48.484375 72.75 52.59375 71.296875 
z
" id="DejaVuSans-54"/>
      </defs>
      <g transform="translate(590.983944 461.876838)scale(0.1 -0.1)">
       <use xlink:href="#DejaVuSans-54"/>
       <use x="63.623047" xlink:href="#DejaVuSans-48"/>
      </g>
     </g>
    </g>
    <g id="text_8">
     <!-- Number of rows in triangle -->
     <defs>
      <path d="M 9.8125 72.90625 
L 23.09375 72.90625 
L 55.421875 11.921875 
L 55.421875 72.90625 
L 64.984375 72.90625 
L 64.984375 0 
L 51.703125 0 
L 19.390625 60.984375 
L 19.390625 0 
L 9.8125 0 
z
" id="DejaVuSans-78"/>
      <path d="M 8.5 21.578125 
L 8.5 54.6875 
L 17.484375 54.6875 
L 17.484375 21.921875 
Q 17.484375 14.15625 20.5 10.265625 
Q 23.53125 6.390625 29.59375 6.390625 
Q 36.859375 6.390625 41.078125 11.03125 
Q 45.3125 15.671875 45.3125 23.6875 
L 45.3125 54.6875 
L 54.296875 54.6875 
L 54.296875 0 
L 45.3125 0 
L 45.3125 8.40625 
Q 42.046875 3.421875 37.71875 1 
Q 33.40625 -1.421875 27.6875 -1.421875 
Q 18.265625 -1.421875 13.375 4.4375 
Q 8.5 10.296875 8.5 21.578125 
z
M 31.109375 56 
z
" id="DejaVuSans-117"/>
      <path d="M 52 44.1875 
Q 55.375 50.25 60.0625 53.125 
Q 64.75 56 71.09375 56 
Q 79.640625 56 84.28125 50.015625 
Q 88.921875 44.046875 88.921875 33.015625 
L 88.921875 0 
L 79.890625 0 
L 79.890625 32.71875 
Q 79.890625 40.578125 77.09375 44.375 
Q 74.3125 48.1875 68.609375 48.1875 
Q 61.625 48.1875 57.5625 43.546875 
Q 53.515625 38.921875 53.515625 30.90625 
L 53.515625 0 
L 44.484375 0 
L 44.484375 32.71875 
Q 44.484375 40.625 41.703125 44.40625 
Q 38.921875 48.1875 33.109375 48.1875 
Q 26.21875 48.1875 22.15625 43.53125 
Q 18.109375 38.875 18.109375 30.90625 
L 18.109375 0 
L 9.078125 0 
L 9.078125 54.6875 
L 18.109375 54.6875 
L 18.109375 46.1875 
Q 21.1875 51.21875 25.484375 53.609375 
Q 29.78125 56 35.6875 56 
Q 41.65625 56 45.828125 52.96875 
Q 50 49.953125 52 44.1875 
z
" id="DejaVuSans-109"/>
      <path d="M 48.6875 27.296875 
Q 48.6875 37.203125 44.609375 42.84375 
Q 40.53125 48.484375 33.40625 48.484375 
Q 26.265625 48.484375 22.1875 42.84375 
Q 18.109375 37.203125 18.109375 27.296875 
Q 18.109375 17.390625 22.1875 11.75 
Q 26.265625 6.109375 33.40625 6.109375 
Q 40.53125 6.109375 44.609375 11.75 
Q 48.6875 17.390625 48.6875 27.296875 
z
M 18.109375 46.390625 
Q 20.953125 51.265625 25.265625 53.625 
Q 29.59375 56 35.59375 56 
Q 45.5625 56 51.78125 48.09375 
Q 58.015625 40.1875 58.015625 27.296875 
Q 58.015625 14.40625 51.78125 6.484375 
Q 45.5625 -1.421875 35.59375 -1.421875 
Q 29.59375 -1.421875 25.265625 0.953125 
Q 20.953125 3.328125 18.109375 8.203125 
L 18.109375 0 
L 9.078125 0 
L 9.078125 75.984375 
L 18.109375 75.984375 
z
" id="DejaVuSans-98"/>
      <path d="M 56.203125 29.59375 
L 56.203125 25.203125 
L 14.890625 25.203125 
Q 15.484375 15.921875 20.484375 11.0625 
Q 25.484375 6.203125 34.421875 6.203125 
Q 39.59375 6.203125 44.453125 7.46875 
Q 49.3125 8.734375 54.109375 11.28125 
L 54.109375 2.78125 
Q 49.265625 0.734375 44.1875 -0.34375 
Q 39.109375 -1.421875 33.890625 -1.421875 
Q 20.796875 -1.421875 13.15625 6.1875 
Q 5.515625 13.8125 5.515625 26.8125 
Q 5.515625 40.234375 12.765625 48.109375 
Q 20.015625 56 32.328125 56 
Q 43.359375 56 49.78125 48.890625 
Q 56.203125 41.796875 56.203125 29.59375 
z
M 47.21875 32.234375 
Q 47.125 39.59375 43.09375 43.984375 
Q 39.0625 48.390625 32.421875 48.390625 
Q 24.90625 48.390625 20.390625 44.140625 
Q 15.875 39.890625 15.1875 32.171875 
z
" id="DejaVuSans-101"/>
      <path d="M 41.109375 46.296875 
Q 39.59375 47.171875 37.8125 47.578125 
Q 36.03125 48 33.890625 48 
Q 26.265625 48 22.1875 43.046875 
Q 18.109375 38.09375 18.109375 28.8125 
L 18.109375 0 
L 9.078125 0 
L 9.078125 54.6875 
L 18.109375 54.6875 
L 18.109375 46.1875 
Q 20.953125 51.171875 25.484375 53.578125 
Q 30.03125 56 36.53125 56 
Q 37.453125 56 38.578125 55.875 
Q 39.703125 55.765625 41.0625 55.515625 
z
" id="DejaVuSans-114"/>
      <path id="DejaVuSans-32"/>
      <path d="M 30.609375 48.390625 
Q 23.390625 48.390625 19.1875 42.75 
Q 14.984375 37.109375 14.984375 27.296875 
Q 14.984375 17.484375 19.15625 11.84375 
Q 23.34375 6.203125 30.609375 6.203125 
Q 37.796875 6.203125 41.984375 11.859375 
Q 46.1875 17.53125 46.1875 27.296875 
Q 46.1875 37.015625 41.984375 42.703125 
Q 37.796875 48.390625 30.609375 48.390625 
z
M 30.609375 56 
Q 42.328125 56 49.015625 48.375 
Q 55.71875 40.765625 55.71875 27.296875 
Q 55.71875 13.875 49.015625 6.21875 
Q 42.328125 -1.421875 30.609375 -1.421875 
Q 18.84375 -1.421875 12.171875 6.21875 
Q 5.515625 13.875 5.515625 27.296875 
Q 5.515625 40.765625 12.171875 48.375 
Q 18.84375 56 30.609375 56 
z
" id="DejaVuSans-111"/>
      <path d="M 37.109375 75.984375 
L 37.109375 68.5 
L 28.515625 68.5 
Q 23.6875 68.5 21.796875 66.546875 
Q 19.921875 64.59375 19.921875 59.515625 
L 19.921875 54.6875 
L 34.71875 54.6875 
L 34.71875 47.703125 
L 19.921875 47.703125 
L 19.921875 0 
L 10.890625 0 
L 10.890625 47.703125 
L 2.296875 47.703125 
L 2.296875 54.6875 
L 10.890625 54.6875 
L 10.890625 58.5 
Q 10.890625 67.625 15.140625 71.796875 
Q 19.390625 75.984375 28.609375 75.984375 
z
" id="DejaVuSans-102"/>
      <path d="M 4.203125 54.6875 
L 13.1875 54.6875 
L 24.421875 12.015625 
L 35.59375 54.6875 
L 46.1875 54.6875 
L 57.421875 12.015625 
L 68.609375 54.6875 
L 77.59375 54.6875 
L 63.28125 0 
L 52.6875 0 
L 40.921875 44.828125 
L 29.109375 0 
L 18.5 0 
z
" id="DejaVuSans-119"/>
      <path d="M 44.28125 53.078125 
L 44.28125 44.578125 
Q 40.484375 46.53125 36.375 47.5 
Q 32.28125 48.484375 27.875 48.484375 
Q 21.1875 48.484375 17.84375 46.4375 
Q 14.5 44.390625 14.5 40.28125 
Q 14.5 37.15625 16.890625 35.375 
Q 19.28125 33.59375 26.515625 31.984375 
L 29.59375 31.296875 
Q 39.15625 29.25 43.1875 25.515625 
Q 47.21875 21.78125 47.21875 15.09375 
Q 47.21875 7.46875 41.1875 3.015625 
Q 35.15625 -1.421875 24.609375 -1.421875 
Q 20.21875 -1.421875 15.453125 -0.5625 
Q 10.6875 0.296875 5.421875 2 
L 5.421875 11.28125 
Q 10.40625 8.6875 15.234375 7.390625 
Q 20.0625 6.109375 24.8125 6.109375 
Q 31.15625 6.109375 34.5625 8.28125 
Q 37.984375 10.453125 37.984375 14.40625 
Q 37.984375 18.0625 35.515625 20.015625 
Q 33.0625 21.96875 24.703125 23.78125 
L 21.578125 24.515625 
Q 13.234375 26.265625 9.515625 29.90625 
Q 5.8125 33.546875 5.8125 39.890625 
Q 5.8125 47.609375 11.28125 51.796875 
Q 16.75 56 26.8125 56 
Q 31.78125 56 36.171875 55.265625 
Q 40.578125 54.546875 44.28125 53.078125 
z
" id="DejaVuSans-115"/>
      <path d="M 9.421875 54.6875 
L 18.40625 54.6875 
L 18.40625 0 
L 9.421875 0 
z
M 9.421875 75.984375 
L 18.40625 75.984375 
L 18.40625 64.59375 
L 9.421875 64.59375 
z
" id="DejaVuSans-105"/>
      <path d="M 54.890625 33.015625 
L 54.890625 0 
L 45.90625 0 
L 45.90625 32.71875 
Q 45.90625 40.484375 42.875 44.328125 
Q 39.84375 48.1875 33.796875 48.1875 
Q 26.515625 48.1875 22.3125 43.546875 
Q 18.109375 38.921875 18.109375 30.90625 
L 18.109375 0 
L 9.078125 0 
L 9.078125 54.6875 
L 18.109375 54.6875 
L 18.109375 46.1875 
Q 21.34375 51.125 25.703125 53.5625 
Q 30.078125 56 35.796875 56 
Q 45.21875 56 50.046875 50.171875 
Q 54.890625 44.34375 54.890625 33.015625 
z
" id="DejaVuSans-110"/>
      <path d="M 18.3125 70.21875 
L 18.3125 54.6875 
L 36.8125 54.6875 
L 36.8125 47.703125 
L 18.3125 47.703125 
L 18.3125 18.015625 
Q 18.3125 11.328125 20.140625 9.421875 
Q 21.96875 7.515625 27.59375 7.515625 
L 36.8125 7.515625 
L 36.8125 0 
L 27.59375 0 
Q 17.1875 0 13.234375 3.875 
Q 9.28125 7.765625 9.28125 18.015625 
L 9.28125 47.703125 
L 2.6875 47.703125 
L 2.6875 54.6875 
L 9.28125 54.6875 
L 9.28125 70.21875 
z
" id="DejaVuSans-116"/>
      <path d="M 34.28125 27.484375 
Q 23.390625 27.484375 19.1875 25 
Q 14.984375 22.515625 14.984375 16.5 
Q 14.984375 11.71875 18.140625 8.90625 
Q 21.296875 6.109375 26.703125 6.109375 
Q 34.1875 6.109375 38.703125 11.40625 
Q 43.21875 16.703125 43.21875 25.484375 
L 43.21875 27.484375 
z
M 52.203125 31.203125 
L 52.203125 0 
L 43.21875 0 
L 43.21875 8.296875 
Q 40.140625 3.328125 35.546875 0.953125 
Q 30.953125 -1.421875 24.3125 -1.421875 
Q 15.921875 -1.421875 10.953125 3.296875 
Q 6 8.015625 6 15.921875 
Q 6 25.140625 12.171875 29.828125 
Q 18.359375 34.515625 30.609375 34.515625 
L 43.21875 34.515625 
L 43.21875 35.40625 
Q 43.21875 41.609375 39.140625 45 
Q 35.0625 48.390625 27.6875 48.390625 
Q 23 48.390625 18.546875 47.265625 
Q 14.109375 46.140625 10.015625 43.890625 
L 10.015625 52.203125 
Q 14.9375 54.109375 19.578125 55.046875 
Q 24.21875 56 28.609375 56 
Q 40.484375 56 46.34375 49.84375 
Q 52.203125 43.703125 52.203125 31.203125 
z
" id="DejaVuSans-97"/>
      <path d="M 45.40625 27.984375 
Q 45.40625 37.75 41.375 43.109375 
Q 37.359375 48.484375 30.078125 48.484375 
Q 22.859375 48.484375 18.828125 43.109375 
Q 14.796875 37.75 14.796875 27.984375 
Q 14.796875 18.265625 18.828125 12.890625 
Q 22.859375 7.515625 30.078125 7.515625 
Q 37.359375 7.515625 41.375 12.890625 
Q 45.40625 18.265625 45.40625 27.984375 
z
M 54.390625 6.78125 
Q 54.390625 -7.171875 48.1875 -13.984375 
Q 42 -20.796875 29.203125 -20.796875 
Q 24.46875 -20.796875 20.265625 -20.09375 
Q 16.0625 -19.390625 12.109375 -17.921875 
L 12.109375 -9.1875 
Q 16.0625 -11.328125 19.921875 -12.34375 
Q 23.78125 -13.375 27.78125 -13.375 
Q 36.625 -13.375 41.015625 -8.765625 
Q 45.40625 -4.15625 45.40625 5.171875 
L 45.40625 9.625 
Q 42.625 4.78125 38.28125 2.390625 
Q 33.9375 0 27.875 0 
Q 17.828125 0 11.671875 7.65625 
Q 5.515625 15.328125 5.515625 27.984375 
Q 5.515625 40.671875 11.671875 48.328125 
Q 17.828125 56 27.875 56 
Q 33.9375 56 38.28125 53.609375 
Q 42.625 51.21875 45.40625 46.390625 
L 45.40625 54.6875 
L 54.390625 54.6875 
z
" id="DejaVuSans-103"/>
      <path d="M 9.421875 75.984375 
L 18.40625 75.984375 
L 18.40625 0 
L 9.421875 0 
z
" id="DejaVuSans-108"/>
     </defs>
     <g transform="translate(303.203094 475.554963)scale(0.1 -0.1)">
      <use xlink:href="#DejaVuSans-78"/>
      <use x="74.804688" xlink:href="#DejaVuSans-117"/>
      <use x="138.183594" xlink:href="#DejaVuSans-109"/>
      <use x="235.595703" xlink:href="#DejaVuSans-98"/>
      <use x="299.072266" xlink:href="#DejaVuSans-101"/>
      <use x="360.595703" xlink:href="#DejaVuSans-114"/>
      <use x="401.708984" xlink:href="#DejaVuSans-32"/>
      <use x="433.496094" xlink:href="#DejaVuSans-111"/>
      <use x="494.677734" xlink:href="#DejaVuSans-102"/>
      <use x="529.882812" xlink:href="#DejaVuSans-32"/>
      <use x="561.669922" xlink:href="#DejaVuSans-114"/>
      <use x="602.751953" xlink:href="#DejaVuSans-111"/>
      <use x="663.933594" xlink:href="#DejaVuSans-119"/>
      <use x="745.720703" xlink:href="#DejaVuSans-115"/>
      <use x="797.820312" xlink:href="#DejaVuSans-32"/>
      <use x="829.607422" xlink:href="#DejaVuSans-105"/>
      <use x="857.390625" xlink:href="#DejaVuSans-110"/>
      <use x="920.769531" xlink:href="#DejaVuSans-32"/>
      <use x="952.556641" xlink:href="#DejaVuSans-116"/>
      <use x="991.765625" xlink:href="#DejaVuSans-114"/>
      <use x="1032.878906" xlink:href="#DejaVuSans-105"/>
      <use x="1060.662109" xlink:href="#DejaVuSans-97"/>
      <use x="1121.941406" xlink:href="#DejaVuSans-110"/>
      <use x="1185.320312" xlink:href="#DejaVuSans-103"/>
      <use x="1248.796875" xlink:href="#DejaVuSans-108"/>
      <use x="1276.580078" xlink:href="#DejaVuSans-101"/>
     </g>
    </g>
   </g>
   <g id="matplotlib.axis_2">
    <g id="ytick_1">
     <g id="line2d_8">
      <defs>
       <path d="M 0 0 
L -3.5 0 
" id="m0c3e8d3e90" style="stroke:#000000;stroke-width:0.8;"/>
      </defs>
      <g>
       <use style="stroke:#000000;stroke-width:0.8;" x="90.27" xlink:href="#m0c3e8d3e90" y="430.162013"/>
      </g>
     </g>
     <g id="text_9">
      <!-- 0 -->
      <g transform="translate(76.9075 433.961232)scale(0.1 -0.1)">
       <use xlink:href="#DejaVuSans-48"/>
      </g>
     </g>
    </g>
    <g id="ytick_2">
     <g id="line2d_9">
      <g>
       <use style="stroke:#000000;stroke-width:0.8;" x="90.27" xlink:href="#m0c3e8d3e90" y="374.32301"/>
      </g>
     </g>
     <g id="text_10">
      <!-- 1000 -->
      <g transform="translate(57.82 378.122229)scale(0.1 -0.1)">
       <use xlink:href="#DejaVuSans-49"/>
       <use x="63.623047" xlink:href="#DejaVuSans-48"/>
       <use x="127.246094" xlink:href="#DejaVuSans-48"/>
       <use x="190.869141" xlink:href="#DejaVuSans-48"/>
      </g>
     </g>
    </g>
    <g id="ytick_3">
     <g id="line2d_10">
      <g>
       <use style="stroke:#000000;stroke-width:0.8;" x="90.27" xlink:href="#m0c3e8d3e90" y="318.484007"/>
      </g>
     </g>
     <g id="text_11">
      <!-- 2000 -->
      <g transform="translate(57.82 322.283226)scale(0.1 -0.1)">
       <use xlink:href="#DejaVuSans-50"/>
       <use x="63.623047" xlink:href="#DejaVuSans-48"/>
       <use x="127.246094" xlink:href="#DejaVuSans-48"/>
       <use x="190.869141" xlink:href="#DejaVuSans-48"/>
      </g>
     </g>
    </g>
    <g id="ytick_4">
     <g id="line2d_11">
      <g>
       <use style="stroke:#000000;stroke-width:0.8;" x="90.27" xlink:href="#m0c3e8d3e90" y="262.645004"/>
      </g>
     </g>
     <g id="text_12">
      <!-- 3000 -->
      <g transform="translate(57.82 266.444223)scale(0.1 -0.1)">
       <use xlink:href="#DejaVuSans-51"/>
       <use x="63.623047" xlink:href="#DejaVuSans-48"/>
       <use x="127.246094" xlink:href="#DejaVuSans-48"/>
       <use x="190.869141" xlink:href="#DejaVuSans-48"/>
      </g>
     </g>
    </g>
    <g id="ytick_5">
     <g id="line2d_12">
      <g>
       <use style="stroke:#000000;stroke-width:0.8;" x="90.27" xlink:href="#m0c3e8d3e90" y="206.806001"/>
      </g>
     </g>
     <g id="text_13">
      <!-- 4000 -->
      <g transform="translate(57.82 210.60522)scale(0.1 -0.1)">
       <use xlink:href="#DejaVuSans-52"/>
       <use x="63.623047" xlink:href="#DejaVuSans-48"/>
       <use x="127.246094" xlink:href="#DejaVuSans-48"/>
       <use x="190.869141" xlink:href="#DejaVuSans-48"/>
      </g>
     </g>
    </g>
    <g id="ytick_6">
     <g id="line2d_13">
      <g>
       <use style="stroke:#000000;stroke-width:0.8;" x="90.27" xlink:href="#m0c3e8d3e90" y="150.966998"/>
      </g>
     </g>
     <g id="text_14">
      <!-- 5000 -->
      <g transform="translate(57.82 154.766216)scale(0.1 -0.1)">
       <use xlink:href="#DejaVuSans-53"/>
       <use x="63.623047" xlink:href="#DejaVuSans-48"/>
       <use x="127.246094" xlink:href="#DejaVuSans-48"/>
       <use x="190.869141" xlink:href="#DejaVuSans-48"/>
      </g>
     </g>
    </g>
    <g id="ytick_7">
     <g id="line2d_14">
      <g>
       <use style="stroke:#000000;stroke-width:0.8;" x="90.27" xlink:href="#m0c3e8d3e90" y="95.127995"/>
      </g>
     </g>
     <g id="text_15">
      <!-- 6000 -->
      <g transform="translate(57.82 98.927213)scale(0.1 -0.1)">
       <use xlink:href="#DejaVuSans-54"/>
       <use x="63.623047" xlink:href="#DejaVuSans-48"/>
       <use x="127.246094" xlink:href="#DejaVuSans-48"/>
       <use x="190.869141" xlink:href="#DejaVuSans-48"/>
      </g>
     </g>
    </g>
    <g id="text_16">
     <!-- Memory usage (bytes) -->
     <defs>
      <path d="M 9.8125 72.90625 
L 24.515625 72.90625 
L 43.109375 23.296875 
L 61.8125 72.90625 
L 76.515625 72.90625 
L 76.515625 0 
L 66.890625 0 
L 66.890625 64.015625 
L 48.09375 14.015625 
L 38.1875 14.015625 
L 19.390625 64.015625 
L 19.390625 0 
L 9.8125 0 
z
" id="DejaVuSans-77"/>
      <path d="M 32.171875 -5.078125 
Q 28.375 -14.84375 24.75 -17.8125 
Q 21.140625 -20.796875 15.09375 -20.796875 
L 7.90625 -20.796875 
L 7.90625 -13.28125 
L 13.1875 -13.28125 
Q 16.890625 -13.28125 18.9375 -11.515625 
Q 21 -9.765625 23.484375 -3.21875 
L 25.09375 0.875 
L 2.984375 54.6875 
L 12.5 54.6875 
L 29.59375 11.921875 
L 46.6875 54.6875 
L 56.203125 54.6875 
z
" id="DejaVuSans-121"/>
      <path d="M 31 75.875 
Q 24.46875 64.65625 21.28125 53.65625 
Q 18.109375 42.671875 18.109375 31.390625 
Q 18.109375 20.125 21.3125 9.0625 
Q 24.515625 -2 31 -13.1875 
L 23.1875 -13.1875 
Q 15.875 -1.703125 12.234375 9.375 
Q 8.59375 20.453125 8.59375 31.390625 
Q 8.59375 42.28125 12.203125 53.3125 
Q 15.828125 64.359375 23.1875 75.875 
z
" id="DejaVuSans-40"/>
      <path d="M 8.015625 75.875 
L 15.828125 75.875 
Q 23.140625 64.359375 26.78125 53.3125 
Q 30.421875 42.28125 30.421875 31.390625 
Q 30.421875 20.453125 26.78125 9.375 
Q 23.140625 -1.703125 15.828125 -13.1875 
L 8.015625 -13.1875 
Q 14.5 -2 17.703125 9.0625 
Q 20.90625 20.125 20.90625 31.390625 
Q 20.90625 42.671875 17.703125 53.65625 
Q 14.5 64.65625 8.015625 75.875 
z
" id="DejaVuSans-41"/>
     </defs>
     <g transform="translate(51.740312 310.070925)rotate(-90)scale(0.1 -0.1)">
      <use xlink:href="#DejaVuSans-77"/>
      <use x="86.279297" xlink:href="#DejaVuSans-101"/>
      <use x="147.802734" xlink:href="#DejaVuSans-109"/>
      <use x="245.214844" xlink:href="#DejaVuSans-111"/>
      <use x="306.396484" xlink:href="#DejaVuSans-114"/>
      <use x="347.509766" xlink:href="#DejaVuSans-121"/>
      <use x="406.689453" xlink:href="#DejaVuSans-32"/>
      <use x="438.476562" xlink:href="#DejaVuSans-117"/>
      <use x="501.855469" xlink:href="#DejaVuSans-115"/>
      <use x="553.955078" xlink:href="#DejaVuSans-97"/>
      <use x="615.234375" xlink:href="#DejaVuSans-103"/>
      <use x="678.710938" xlink:href="#DejaVuSans-101"/>
      <use x="740.234375" xlink:href="#DejaVuSans-32"/>
      <use x="772.021484" xlink:href="#DejaVuSans-40"/>
      <use x="811.035156" xlink:href="#DejaVuSans-98"/>
      <use x="874.511719" xlink:href="#DejaVuSans-121"/>
      <use x="933.691406" xlink:href="#DejaVuSans-116"/>
      <use x="972.900391" xlink:href="#DejaVuSans-101"/>
      <use x="1034.423828" xlink:href="#DejaVuSans-115"/>
      <use x="1086.523438" xlink:href="#DejaVuSans-41"/>
     </g>
    </g>
   </g>
   <g id="line2d_15">
    <path clip-path="url(#p37107893db)" d="M 104.815736 428.375165 
L 113.163714 426.141605 
L 121.511692 423.461333 
L 129.85967 420.334348 
L 138.207648 416.760652 
L 146.555626 412.740244 
L 154.903604 408.273124 
L 163.251582 403.359292 
L 171.599561 397.998747 
L 179.947539 392.191491 
L 188.295517 385.937523 
L 221.687429 356.454529 
L 255.079342 319.824143 
L 288.471254 276.046365 
L 321.863166 225.121194 
L 355.255079 167.048631 
L 388.646991 101.828675 
L 422.038903 29.461327 
L 434.831022 -1 
" style="fill:none;stroke:#000000;stroke-linecap:square;"/>
    <defs>
     <path d="M 0 2.5 
C 0.663008 2.5 1.29895 2.236584 1.767767 1.767767 
C 2.236584 1.29895 2.5 0.663008 2.5 0 
C 2.5 -0.663008 2.236584 -1.29895 1.767767 -1.767767 
C 1.29895 -2.236584 0.663008 -2.5 0 -2.5 
C -0.663008 -2.5 -1.29895 -2.236584 -1.767767 -1.767767 
C -2.236584 -1.29895 -2.5 -0.663008 -2.5 0 
C -2.5 0.663008 -2.236584 1.29895 -1.767767 1.767767 
C -1.29895 2.236584 -0.663008 2.5 0 2.5 
z
" id="m5677a02bf3" style="stroke:#000000;"/>
    </defs>
    <g clip-path="url(#p37107893db)">
     <use style="stroke:#000000;" x="104.815736" xlink:href="#m5677a02bf3" y="428.375165"/>
     <use style="stroke:#000000;" x="113.163714" xlink:href="#m5677a02bf3" y="426.141605"/>
     <use style="stroke:#000000;" x="121.511692" xlink:href="#m5677a02bf3" y="423.461333"/>
     <use style="stroke:#000000;" x="129.85967" xlink:href="#m5677a02bf3" y="420.334348"/>
     <use style="stroke:#000000;" x="138.207648" xlink:href="#m5677a02bf3" y="416.760652"/>
     <use style="stroke:#000000;" x="146.555626" xlink:href="#m5677a02bf3" y="412.740244"/>
     <use style="stroke:#000000;" x="154.903604" xlink:href="#m5677a02bf3" y="408.273124"/>
     <use style="stroke:#000000;" x="163.251582" xlink:href="#m5677a02bf3" y="403.359292"/>
     <use style="stroke:#000000;" x="171.599561" xlink:href="#m5677a02bf3" y="397.998747"/>
     <use style="stroke:#000000;" x="179.947539" xlink:href="#m5677a02bf3" y="392.191491"/>
     <use style="stroke:#000000;" x="188.295517" xlink:href="#m5677a02bf3" y="385.937523"/>
     <use style="stroke:#000000;" x="221.687429" xlink:href="#m5677a02bf3" y="356.454529"/>
     <use style="stroke:#000000;" x="255.079342" xlink:href="#m5677a02bf3" y="319.824143"/>
     <use style="stroke:#000000;" x="288.471254" xlink:href="#m5677a02bf3" y="276.046365"/>
     <use style="stroke:#000000;" x="321.863166" xlink:href="#m5677a02bf3" y="225.121194"/>
     <use style="stroke:#000000;" x="355.255079" xlink:href="#m5677a02bf3" y="167.048631"/>
     <use style="stroke:#000000;" x="388.646991" xlink:href="#m5677a02bf3" y="101.828675"/>
     <use style="stroke:#000000;" x="422.038903" xlink:href="#m5677a02bf3" y="29.461327"/>
     <use style="stroke:#000000;" x="434.831022" xlink:href="#m5677a02bf3" y="-1"/>
    </g>
   </g>
   <g id="line2d_16">
    <path clip-path="url(#p37107893db)" d="M 104.815736 428.821877 
L 113.163714 427.928453 
L 121.511692 427.035029 
L 129.85967 426.141605 
L 138.207648 425.248181 
L 146.555626 424.354757 
L 154.903604 423.461333 
L 163.251582 422.567909 
L 171.599561 421.674485 
L 179.947539 420.781061 
L 188.295517 419.887636 
L 221.687429 416.31394 
L 255.079342 412.740244 
L 288.471254 409.166548 
L 321.863166 405.592852 
L 355.255079 402.019155 
L 388.646991 398.445459 
L 422.038903 394.871763 
L 455.430816 391.298067 
L 488.822728 387.724371 
L 522.214641 384.150674 
L 555.606553 380.576978 
L 588.998465 377.003282 
L 622.390378 373.429586 
L 630.738356 372.536162 
L 723.16 362.644938 
" style="fill:none;stroke:#0652ff;stroke-linecap:square;"/>
    <defs>
     <path d="M -2.5 0 
L 2.5 0 
M 0 2.5 
L 0 -2.5 
" id="m494fb1b780" style="stroke:#0652ff;"/>
    </defs>
    <g clip-path="url(#p37107893db)">
     <use style="fill:#0652ff;stroke:#0652ff;" x="104.815736" xlink:href="#m494fb1b780" y="428.821877"/>
     <use style="fill:#0652ff;stroke:#0652ff;" x="113.163714" xlink:href="#m494fb1b780" y="427.928453"/>
     <use style="fill:#0652ff;stroke:#0652ff;" x="121.511692" xlink:href="#m494fb1b780" y="427.035029"/>
     <use style="fill:#0652ff;stroke:#0652ff;" x="129.85967" xlink:href="#m494fb1b780" y="426.141605"/>
     <use style="fill:#0652ff;stroke:#0652ff;" x="138.207648" xlink:href="#m494fb1b780" y="425.248181"/>
     <use style="fill:#0652ff;stroke:#0652ff;" x="146.555626" xlink:href="#m494fb1b780" y="424.354757"/>
     <use style="fill:#0652ff;stroke:#0652ff;" x="154.903604" xlink:href="#m494fb1b780" y="423.461333"/>
     <use style="fill:#0652ff;stroke:#0652ff;" x="163.251582" xlink:href="#m494fb1b780" y="422.567909"/>
     <use style="fill:#0652ff;stroke:#0652ff;" x="171.599561" xlink:href="#m494fb1b780" y="421.674485"/>
     <use style="fill:#0652ff;stroke:#0652ff;" x="179.947539" xlink:href="#m494fb1b780" y="420.781061"/>
     <use style="fill:#0652ff;stroke:#0652ff;" x="188.295517" xlink:href="#m494fb1b780" y="419.887636"/>
     <use style="fill:#0652ff;stroke:#0652ff;" x="221.687429" xlink:href="#m494fb1b780" y="416.31394"/>
     <use style="fill:#0652ff;stroke:#0652ff;" x="255.079342" xlink:href="#m494fb1b780" y="412.740244"/>
     <use style="fill:#0652ff;stroke:#0652ff;" x="288.471254" xlink:href="#m494fb1b780" y="409.166548"/>
     <use style="fill:#0652ff;stroke:#0652ff;" x="321.863166" xlink:href="#m494fb1b780" y="405.592852"/>
     <use style="fill:#0652ff;stroke:#0652ff;" x="355.255079" xlink:href="#m494fb1b780" y="402.019155"/>
     <use style="fill:#0652ff;stroke:#0652ff;" x="388.646991" xlink:href="#m494fb1b780" y="398.445459"/>
     <use style="fill:#0652ff;stroke:#0652ff;" x="422.038903" xlink:href="#m494fb1b780" y="394.871763"/>
     <use style="fill:#0652ff;stroke:#0652ff;" x="455.430816" xlink:href="#m494fb1b780" y="391.298067"/>
     <use style="fill:#0652ff;stroke:#0652ff;" x="488.822728" xlink:href="#m494fb1b780" y="387.724371"/>
     <use style="fill:#0652ff;stroke:#0652ff;" x="522.214641" xlink:href="#m494fb1b780" y="384.150674"/>
     <use style="fill:#0652ff;stroke:#0652ff;" x="555.606553" xlink:href="#m494fb1b780" y="380.576978"/>
     <use style="fill:#0652ff;stroke:#0652ff;" x="588.998465" xlink:href="#m494fb1b780" y="377.003282"/>
     <use style="fill:#0652ff;stroke:#0652ff;" x="622.390378" xlink:href="#m494fb1b780" y="373.429586"/>
     <use style="fill:#0652ff;stroke:#0652ff;" x="630.738356" xlink:href="#m494fb1b780" y="372.536162"/>
     <use style="fill:#0652ff;stroke:#0652ff;" x="1165.008954" xlink:href="#m494fb1b780" y="315.357023"/>
     <use style="fill:#0652ff;stroke:#0652ff;" x="2233.550151" xlink:href="#m494fb1b780" y="200.998744"/>
     <use style="fill:#0652ff;stroke:#0652ff;" x="4120.986577" xlink:href="#m494fb1b780" y="-1"/>
    </g>
   </g>
   <g id="line2d_17">
    <path clip-path="url(#p37107893db)" d="M 104.815736 428.375165 
L 113.163714 427.481741 
L 121.511692 426.588317 
L 129.85967 425.694893 
L 138.207648 424.801469 
L 146.555626 423.908045 
L 154.903604 423.014621 
L 163.251582 422.121197 
L 171.599561 421.227773 
L 179.947539 420.334348 
L 188.295517 419.440924 
L 221.687429 415.867228 
L 255.079342 412.293532 
L 288.471254 408.719836 
L 321.863166 405.14614 
L 355.255079 401.572443 
L 388.646991 397.998747 
L 422.038903 394.425051 
L 455.430816 390.851355 
L 488.822728 387.277659 
L 522.214641 383.703962 
L 555.606553 380.130266 
L 588.998465 376.55657 
L 622.390378 372.982874 
L 630.738356 372.08945 
L 723.16 362.198226 
" style="fill:none;stroke:#0cff0c;stroke-linecap:square;"/>
    <defs>
     <path d="M -2.5 2.5 
L 2.5 -2.5 
M -2.5 -2.5 
L 2.5 2.5 
" id="mc474d20e1f" style="stroke:#0cff0c;"/>
    </defs>
    <g clip-path="url(#p37107893db)">
     <use style="fill:#0cff0c;stroke:#0cff0c;" x="104.815736" xlink:href="#mc474d20e1f" y="428.375165"/>
     <use style="fill:#0cff0c;stroke:#0cff0c;" x="113.163714" xlink:href="#mc474d20e1f" y="427.481741"/>
     <use style="fill:#0cff0c;stroke:#0cff0c;" x="121.511692" xlink:href="#mc474d20e1f" y="426.588317"/>
     <use style="fill:#0cff0c;stroke:#0cff0c;" x="129.85967" xlink:href="#mc474d20e1f" y="425.694893"/>
     <use style="fill:#0cff0c;stroke:#0cff0c;" x="138.207648" xlink:href="#mc474d20e1f" y="424.801469"/>
     <use style="fill:#0cff0c;stroke:#0cff0c;" x="146.555626" xlink:href="#mc474d20e1f" y="423.908045"/>
     <use style="fill:#0cff0c;stroke:#0cff0c;" x="154.903604" xlink:href="#mc474d20e1f" y="423.014621"/>
     <use style="fill:#0cff0c;stroke:#0cff0c;" x="163.251582" xlink:href="#mc474d20e1f" y="422.121197"/>
     <use style="fill:#0cff0c;stroke:#0cff0c;" x="171.599561" xlink:href="#mc474d20e1f" y="421.227773"/>
     <use style="fill:#0cff0c;stroke:#0cff0c;" x="179.947539" xlink:href="#mc474d20e1f" y="420.334348"/>
     <use style="fill:#0cff0c;stroke:#0cff0c;" x="188.295517" xlink:href="#mc474d20e1f" y="419.440924"/>
     <use style="fill:#0cff0c;stroke:#0cff0c;" x="221.687429" xlink:href="#mc474d20e1f" y="415.867228"/>
     <use style="fill:#0cff0c;stroke:#0cff0c;" x="255.079342" xlink:href="#mc474d20e1f" y="412.293532"/>
     <use style="fill:#0cff0c;stroke:#0cff0c;" x="288.471254" xlink:href="#mc474d20e1f" y="408.719836"/>
     <use style="fill:#0cff0c;stroke:#0cff0c;" x="321.863166" xlink:href="#mc474d20e1f" y="405.14614"/>
     <use style="fill:#0cff0c;stroke:#0cff0c;" x="355.255079" xlink:href="#mc474d20e1f" y="401.572443"/>
     <use style="fill:#0cff0c;stroke:#0cff0c;" x="388.646991" xlink:href="#mc474d20e1f" y="397.998747"/>
     <use style="fill:#0cff0c;stroke:#0cff0c;" x="422.038903" xlink:href="#mc474d20e1f" y="394.425051"/>
     <use style="fill:#0cff0c;stroke:#0cff0c;" x="455.430816" xlink:href="#mc474d20e1f" y="390.851355"/>
     <use style="fill:#0cff0c;stroke:#0cff0c;" x="488.822728" xlink:href="#mc474d20e1f" y="387.277659"/>
     <use style="fill:#0cff0c;stroke:#0cff0c;" x="522.214641" xlink:href="#mc474d20e1f" y="383.703962"/>
     <use style="fill:#0cff0c;stroke:#0cff0c;" x="555.606553" xlink:href="#mc474d20e1f" y="380.130266"/>
     <use style="fill:#0cff0c;stroke:#0cff0c;" x="588.998465" xlink:href="#mc474d20e1f" y="376.55657"/>
     <use style="fill:#0cff0c;stroke:#0cff0c;" x="622.390378" xlink:href="#mc474d20e1f" y="372.982874"/>
     <use style="fill:#0cff0c;stroke:#0cff0c;" x="630.738356" xlink:href="#mc474d20e1f" y="372.08945"/>
     <use style="fill:#0cff0c;stroke:#0cff0c;" x="1165.008954" xlink:href="#mc474d20e1f" y="314.910311"/>
     <use style="fill:#0cff0c;stroke:#0cff0c;" x="2233.550151" xlink:href="#mc474d20e1f" y="200.552032"/>
     <use style="fill:#0cff0c;stroke:#0cff0c;" x="4116.812588" xlink:href="#mc474d20e1f" y="-1"/>
    </g>
   </g>
   <g id="line2d_18">
    <path clip-path="url(#p37107893db)" d="M 104.815736 430.162013 
L 113.163714 430.162013 
L 121.511692 430.162013 
L 129.85967 430.162013 
L 138.207648 430.162013 
L 146.555626 430.162013 
L 154.903604 430.162013 
L 163.251582 430.162013 
L 171.599561 430.162013 
L 179.947539 430.162013 
L 188.295517 430.162013 
L 221.687429 430.162013 
L 255.079342 430.162013 
L 288.471254 430.162013 
L 321.863166 430.162013 
L 355.255079 430.162013 
L 388.646991 430.162013 
L 422.038903 430.162013 
L 455.430816 430.162013 
L 488.822728 430.162013 
L 522.214641 430.162013 
L 555.606553 430.162013 
L 588.998465 430.162013 
L 622.390378 430.162013 
L 630.738356 430.162013 
L 723.16 430.162013 
" style="fill:none;stroke:#e50000;stroke-linecap:square;"/>
    <defs>
     <path d="M -0 2.5 
L 2.5 -2.5 
L -2.5 -2.5 
z
" id="m6c9e4e9ef0" style="stroke:#e50000;stroke-linejoin:miter;"/>
    </defs>
    <g clip-path="url(#p37107893db)">
     <use style="fill:#e50000;stroke:#e50000;stroke-linejoin:miter;" x="104.815736" xlink:href="#m6c9e4e9ef0" y="430.162013"/>
     <use style="fill:#e50000;stroke:#e50000;stroke-linejoin:miter;" x="113.163714" xlink:href="#m6c9e4e9ef0" y="430.162013"/>
     <use style="fill:#e50000;stroke:#e50000;stroke-linejoin:miter;" x="121.511692" xlink:href="#m6c9e4e9ef0" y="430.162013"/>
     <use style="fill:#e50000;stroke:#e50000;stroke-linejoin:miter;" x="129.85967" xlink:href="#m6c9e4e9ef0" y="430.162013"/>
     <use style="fill:#e50000;stroke:#e50000;stroke-linejoin:miter;" x="138.207648" xlink:href="#m6c9e4e9ef0" y="430.162013"/>
     <use style="fill:#e50000;stroke:#e50000;stroke-linejoin:miter;" x="146.555626" xlink:href="#m6c9e4e9ef0" y="430.162013"/>
     <use style="fill:#e50000;stroke:#e50000;stroke-linejoin:miter;" x="154.903604" xlink:href="#m6c9e4e9ef0" y="430.162013"/>
     <use style="fill:#e50000;stroke:#e50000;stroke-linejoin:miter;" x="163.251582" xlink:href="#m6c9e4e9ef0" y="430.162013"/>
     <use style="fill:#e50000;stroke:#e50000;stroke-linejoin:miter;" x="171.599561" xlink:href="#m6c9e4e9ef0" y="430.162013"/>
     <use style="fill:#e50000;stroke:#e50000;stroke-linejoin:miter;" x="179.947539" xlink:href="#m6c9e4e9ef0" y="430.162013"/>
     <use style="fill:#e50000;stroke:#e50000;stroke-linejoin:miter;" x="188.295517" xlink:href="#m6c9e4e9ef0" y="430.162013"/>
     <use style="fill:#e50000;stroke:#e50000;stroke-linejoin:miter;" x="221.687429" xlink:href="#m6c9e4e9ef0" y="430.162013"/>
     <use style="fill:#e50000;stroke:#e50000;stroke-linejoin:miter;" x="255.079342" xlink:href="#m6c9e4e9ef0" y="430.162013"/>
     <use style="fill:#e50000;stroke:#e50000;stroke-linejoin:miter;" x="288.471254" xlink:href="#m6c9e4e9ef0" y="430.162013"/>
     <use style="fill:#e50000;stroke:#e50000;stroke-linejoin:miter;" x="321.863166" xlink:href="#m6c9e4e9ef0" y="430.162013"/>
     <use style="fill:#e50000;stroke:#e50000;stroke-linejoin:miter;" x="355.255079" xlink:href="#m6c9e4e9ef0" y="430.162013"/>
     <use style="fill:#e50000;stroke:#e50000;stroke-linejoin:miter;" x="388.646991" xlink:href="#m6c9e4e9ef0" y="430.162013"/>
     <use style="fill:#e50000;stroke:#e50000;stroke-linejoin:miter;" x="422.038903" xlink:href="#m6c9e4e9ef0" y="430.162013"/>
     <use style="fill:#e50000;stroke:#e50000;stroke-linejoin:miter;" x="455.430816" xlink:href="#m6c9e4e9ef0" y="430.162013"/>
     <use style="fill:#e50000;stroke:#e50000;stroke-linejoin:miter;" x="488.822728" xlink:href="#m6c9e4e9ef0" y="430.162013"/>
     <use style="fill:#e50000;stroke:#e50000;stroke-linejoin:miter;" x="522.214641" xlink:href="#m6c9e4e9ef0" y="430.162013"/>
     <use style="fill:#e50000;stroke:#e50000;stroke-linejoin:miter;" x="555.606553" xlink:href="#m6c9e4e9ef0" y="430.162013"/>
     <use style="fill:#e50000;stroke:#e50000;stroke-linejoin:miter;" x="588.998465" xlink:href="#m6c9e4e9ef0" y="430.162013"/>
     <use style="fill:#e50000;stroke:#e50000;stroke-linejoin:miter;" x="622.390378" xlink:href="#m6c9e4e9ef0" y="430.162013"/>
     <use style="fill:#e50000;stroke:#e50000;stroke-linejoin:miter;" x="630.738356" xlink:href="#m6c9e4e9ef0" y="430.162013"/>
     <use style="fill:#e50000;stroke:#e50000;stroke-linejoin:miter;" x="1165.008954" xlink:href="#m6c9e4e9ef0" y="430.162013"/>
     <use style="fill:#e50000;stroke:#e50000;stroke-linejoin:miter;" x="2233.550151" xlink:href="#m6c9e4e9ef0" y="430.162013"/>
     <use style="fill:#e50000;stroke:#e50000;stroke-linejoin:miter;" x="4370.632543" xlink:href="#m6c9e4e9ef0" y="430.162013"/>
     <use style="fill:#e50000;stroke:#e50000;stroke-linejoin:miter;" x="8644.797329" xlink:href="#m6c9e4e9ef0" y="430.162013"/>
     <use style="fill:#e50000;stroke:#e50000;stroke-linejoin:miter;" x="17193.126901" xlink:href="#m6c9e4e9ef0" y="430.162013"/>
     <use style="fill:#e50000;stroke:#e50000;stroke-linejoin:miter;" x="34289.786044" xlink:href="#m6c9e4e9ef0" y="430.162013"/>
     <use style="fill:#e50000;stroke:#e50000;stroke-linejoin:miter;" x="51996.52" xlink:href="#m6c9e4e9ef0" y="430.162013"/>
    </g>
   </g>
   <g id="line2d_19">
    <path clip-path="url(#p37107893db)" d="M 104.815736 429.268589 
L 113.163714 428.821877 
L 121.511692 428.375165 
L 129.85967 427.928453 
L 138.207648 427.481741 
L 146.555626 427.035029 
L 154.903604 426.588317 
L 163.251582 426.141605 
L 171.599561 425.694893 
L 179.947539 425.248181 
L 188.295517 424.801469 
L 221.687429 423.014621 
L 255.079342 421.227773 
L 288.471254 419.440924 
L 321.863166 417.654076 
L 355.255079 415.867228 
L 388.646991 414.08038 
L 422.038903 412.293532 
L 455.430816 410.506684 
L 488.822728 408.719836 
L 522.214641 406.932988 
L 555.606553 405.14614 
L 588.998465 403.359292 
L 622.390378 401.572443 
L 630.738356 401.125731 
L 723.16 396.18012 
" style="fill:none;stroke:#75bbfd;stroke-linecap:square;"/>
    <defs>
     <path d="M -2.5 2.5 
L 2.5 2.5 
L 2.5 -2.5 
L -2.5 -2.5 
z
" id="me7dae691d7" style="stroke:#75bbfd;stroke-linejoin:miter;"/>
    </defs>
    <g clip-path="url(#p37107893db)">
     <use style="fill:#75bbfd;stroke:#75bbfd;stroke-linejoin:miter;" x="104.815736" xlink:href="#me7dae691d7" y="429.268589"/>
     <use style="fill:#75bbfd;stroke:#75bbfd;stroke-linejoin:miter;" x="113.163714" xlink:href="#me7dae691d7" y="428.821877"/>
     <use style="fill:#75bbfd;stroke:#75bbfd;stroke-linejoin:miter;" x="121.511692" xlink:href="#me7dae691d7" y="428.375165"/>
     <use style="fill:#75bbfd;stroke:#75bbfd;stroke-linejoin:miter;" x="129.85967" xlink:href="#me7dae691d7" y="427.928453"/>
     <use style="fill:#75bbfd;stroke:#75bbfd;stroke-linejoin:miter;" x="138.207648" xlink:href="#me7dae691d7" y="427.481741"/>
     <use style="fill:#75bbfd;stroke:#75bbfd;stroke-linejoin:miter;" x="146.555626" xlink:href="#me7dae691d7" y="427.035029"/>
     <use style="fill:#75bbfd;stroke:#75bbfd;stroke-linejoin:miter;" x="154.903604" xlink:href="#me7dae691d7" y="426.588317"/>
     <use style="fill:#75bbfd;stroke:#75bbfd;stroke-linejoin:miter;" x="163.251582" xlink:href="#me7dae691d7" y="426.141605"/>
     <use style="fill:#75bbfd;stroke:#75bbfd;stroke-linejoin:miter;" x="171.599561" xlink:href="#me7dae691d7" y="425.694893"/>
     <use style="fill:#75bbfd;stroke:#75bbfd;stroke-linejoin:miter;" x="179.947539" xlink:href="#me7dae691d7" y="425.248181"/>
     <use style="fill:#75bbfd;stroke:#75bbfd;stroke-linejoin:miter;" x="188.295517" xlink:href="#me7dae691d7" y="424.801469"/>
     <use style="fill:#75bbfd;stroke:#75bbfd;stroke-linejoin:miter;" x="221.687429" xlink:href="#me7dae691d7" y="423.014621"/>
     <use style="fill:#75bbfd;stroke:#75bbfd;stroke-linejoin:miter;" x="255.079342" xlink:href="#me7dae691d7" y="421.227773"/>
     <use style="fill:#75bbfd;stroke:#75bbfd;stroke-linejoin:miter;" x="288.471254" xlink:href="#me7dae691d7" y="419.440924"/>
     <use style="fill:#75bbfd;stroke:#75bbfd;stroke-linejoin:miter;" x="321.863166" xlink:href="#me7dae691d7" y="417.654076"/>
     <use style="fill:#75bbfd;stroke:#75bbfd;stroke-linejoin:miter;" x="355.255079" xlink:href="#me7dae691d7" y="415.867228"/>
     <use style="fill:#75bbfd;stroke:#75bbfd;stroke-linejoin:miter;" x="388.646991" xlink:href="#me7dae691d7" y="414.08038"/>
     <use style="fill:#75bbfd;stroke:#75bbfd;stroke-linejoin:miter;" x="422.038903" xlink:href="#me7dae691d7" y="412.293532"/>
     <use style="fill:#75bbfd;stroke:#75bbfd;stroke-linejoin:miter;" x="455.430816" xlink:href="#me7dae691d7" y="410.506684"/>
     <use style="fill:#75bbfd;stroke:#75bbfd;stroke-linejoin:miter;" x="488.822728" xlink:href="#me7dae691d7" y="408.719836"/>
     <use style="fill:#75bbfd;stroke:#75bbfd;stroke-linejoin:miter;" x="522.214641" xlink:href="#me7dae691d7" y="406.932988"/>
     <use style="fill:#75bbfd;stroke:#75bbfd;stroke-linejoin:miter;" x="555.606553" xlink:href="#me7dae691d7" y="405.14614"/>
     <use style="fill:#75bbfd;stroke:#75bbfd;stroke-linejoin:miter;" x="588.998465" xlink:href="#me7dae691d7" y="403.359292"/>
     <use style="fill:#75bbfd;stroke:#75bbfd;stroke-linejoin:miter;" x="622.390378" xlink:href="#me7dae691d7" y="401.572443"/>
     <use style="fill:#75bbfd;stroke:#75bbfd;stroke-linejoin:miter;" x="630.738356" xlink:href="#me7dae691d7" y="401.125731"/>
     <use style="fill:#75bbfd;stroke:#75bbfd;stroke-linejoin:miter;" x="1165.008954" xlink:href="#me7dae691d7" y="372.536162"/>
     <use style="fill:#75bbfd;stroke:#75bbfd;stroke-linejoin:miter;" x="2233.550151" xlink:href="#me7dae691d7" y="315.357023"/>
     <use style="fill:#75bbfd;stroke:#75bbfd;stroke-linejoin:miter;" x="4370.632543" xlink:href="#me7dae691d7" y="200.998744"/>
     <use style="fill:#75bbfd;stroke:#75bbfd;stroke-linejoin:miter;" x="8145.505396" xlink:href="#me7dae691d7" y="-1"/>
    </g>
   </g>
   <g id="line2d_20">
    <path clip-path="url(#p37107893db)" d="M 630.738356 503.56 
L 630.738356 -1 
" style="fill:none;stroke:#ff0000;stroke-linecap:square;stroke-opacity:0.5;stroke-width:3;"/>
   </g>
   <g id="patch_3">
    <path d="M 90.27 447.2784 
L 90.27 60.3072 
" style="fill:none;stroke:#000000;stroke-linecap:square;stroke-linejoin:miter;stroke-width:0.8;"/>
   </g>
   <g id="patch_4">
    <path d="M 649.944 447.2784 
L 649.944 60.3072 
" style="fill:none;stroke:#000000;stroke-linecap:square;stroke-linejoin:miter;stroke-width:0.8;"/>
   </g>
   <g id="patch_5">
    <path d="M 90.27 447.2784 
L 649.944 447.2784 
" style="fill:none;stroke:#000000;stroke-linecap:square;stroke-linejoin:miter;stroke-width:0.8;"/>
   </g>
   <g id="patch_6">
    <path d="M 90.27 60.3072 
L 649.944 60.3072 
" style="fill:none;stroke:#000000;stroke-linecap:square;stroke-linejoin:miter;stroke-width:0.8;"/>
   </g>
   <g id="text_17">
    <!-- $\bf{Max}$ $\bf{memory}$ $\bf{usage}$ to $\bf{generate+iterate}$ over triangle elements -->
    <defs>
     <path d="M 9.1875 72.90625 
L 33.109375 72.90625 
L 49.703125 33.890625 
L 66.40625 72.90625 
L 90.28125 72.90625 
L 90.28125 0 
L 72.515625 0 
L 72.515625 53.328125 
L 55.71875 14.015625 
L 43.796875 14.015625 
L 27 53.328125 
L 27 0 
L 9.1875 0 
z
" id="DejaVuSans-Bold-77"/>
     <path d="M 32.90625 24.609375 
Q 27.4375 24.609375 24.671875 22.75 
Q 21.921875 20.90625 21.921875 17.28125 
Q 21.921875 13.96875 24.140625 12.078125 
Q 26.375 10.203125 30.328125 10.203125 
Q 35.25 10.203125 38.625 13.734375 
Q 42 17.28125 42 22.609375 
L 42 24.609375 
z
M 59.625 31.203125 
L 59.625 0 
L 42 0 
L 42 8.109375 
Q 38.484375 3.125 34.078125 0.84375 
Q 29.6875 -1.421875 23.390625 -1.421875 
Q 14.890625 -1.421875 9.59375 3.53125 
Q 4.296875 8.5 4.296875 16.40625 
Q 4.296875 26.03125 10.90625 30.515625 
Q 17.53125 35.015625 31.6875 35.015625 
L 42 35.015625 
L 42 36.375 
Q 42 40.53125 38.71875 42.453125 
Q 35.453125 44.390625 28.515625 44.390625 
Q 22.90625 44.390625 18.0625 43.265625 
Q 13.234375 42.140625 9.078125 39.890625 
L 9.078125 53.21875 
Q 14.703125 54.59375 20.359375 55.296875 
Q 26.03125 56 31.6875 56 
Q 46.484375 56 53.046875 50.171875 
Q 59.625 44.34375 59.625 31.203125 
z
" id="DejaVuSans-Bold-97"/>
     <path d="M 22.21875 27.984375 
L 2.484375 54.6875 
L 21 54.6875 
L 32.171875 38.484375 
L 43.5 54.6875 
L 62.015625 54.6875 
L 42.28125 28.078125 
L 62.984375 0 
L 44.484375 0 
L 32.171875 17.28125 
L 20.015625 0 
L 1.515625 0 
z
" id="DejaVuSans-Bold-120"/>
     <path d="M 59.078125 45.609375 
Q 62.40625 50.6875 66.96875 53.34375 
Q 71.53125 56 77 56 
Q 86.421875 56 91.359375 50.1875 
Q 96.296875 44.390625 96.296875 33.296875 
L 96.296875 0 
L 78.71875 0 
L 78.71875 28.515625 
Q 78.765625 29.15625 78.78125 29.828125 
Q 78.8125 30.515625 78.8125 31.78125 
Q 78.8125 37.59375 77.09375 40.203125 
Q 75.390625 42.828125 71.578125 42.828125 
Q 66.609375 42.828125 63.890625 38.71875 
Q 61.1875 34.625 61.078125 26.859375 
L 61.078125 0 
L 43.5 0 
L 43.5 28.515625 
Q 43.5 37.59375 41.9375 40.203125 
Q 40.375 42.828125 36.375 42.828125 
Q 31.34375 42.828125 28.609375 38.703125 
Q 25.875 34.578125 25.875 26.90625 
L 25.875 0 
L 8.296875 0 
L 8.296875 54.6875 
L 25.875 54.6875 
L 25.875 46.6875 
Q 29.109375 51.3125 33.28125 53.65625 
Q 37.453125 56 42.484375 56 
Q 48.140625 56 52.484375 53.265625 
Q 56.84375 50.53125 59.078125 45.609375 
z
" id="DejaVuSans-Bold-109"/>
     <path d="M 62.984375 27.484375 
L 62.984375 22.515625 
L 22.125 22.515625 
Q 22.75 16.359375 26.5625 13.28125 
Q 30.375 10.203125 37.203125 10.203125 
Q 42.71875 10.203125 48.5 11.84375 
Q 54.296875 13.484375 60.40625 16.796875 
L 60.40625 3.328125 
Q 54.203125 0.984375 48 -0.21875 
Q 41.796875 -1.421875 35.59375 -1.421875 
Q 20.75 -1.421875 12.515625 6.125 
Q 4.296875 13.671875 4.296875 27.296875 
Q 4.296875 40.671875 12.375 48.328125 
Q 20.453125 56 34.625 56 
Q 47.515625 56 55.25 48.234375 
Q 62.984375 40.484375 62.984375 27.484375 
z
M 45.015625 33.296875 
Q 45.015625 38.28125 42.109375 41.328125 
Q 39.203125 44.390625 34.515625 44.390625 
Q 29.4375 44.390625 26.265625 41.53125 
Q 23.09375 38.671875 22.3125 33.296875 
z
" id="DejaVuSans-Bold-101"/>
     <path d="M 34.421875 43.5 
Q 28.609375 43.5 25.5625 39.328125 
Q 22.515625 35.15625 22.515625 27.296875 
Q 22.515625 19.4375 25.5625 15.25 
Q 28.609375 11.078125 34.421875 11.078125 
Q 40.140625 11.078125 43.15625 15.25 
Q 46.1875 19.4375 46.1875 27.296875 
Q 46.1875 35.15625 43.15625 39.328125 
Q 40.140625 43.5 34.421875 43.5 
z
M 34.421875 56 
Q 48.53125 56 56.46875 48.375 
Q 64.40625 40.765625 64.40625 27.296875 
Q 64.40625 13.8125 56.46875 6.1875 
Q 48.53125 -1.421875 34.421875 -1.421875 
Q 20.265625 -1.421875 12.28125 6.1875 
Q 4.296875 13.8125 4.296875 27.296875 
Q 4.296875 40.765625 12.28125 48.375 
Q 20.265625 56 34.421875 56 
z
" id="DejaVuSans-Bold-111"/>
     <path d="M 49.03125 39.796875 
Q 46.734375 40.875 44.453125 41.375 
Q 42.1875 41.890625 39.890625 41.890625 
Q 33.15625 41.890625 29.515625 37.5625 
Q 25.875 33.25 25.875 25.203125 
L 25.875 0 
L 8.40625 0 
L 8.40625 54.6875 
L 25.875 54.6875 
L 25.875 45.703125 
Q 29.25 51.078125 33.609375 53.53125 
Q 37.984375 56 44.09375 56 
Q 44.96875 56 45.984375 55.921875 
Q 47.015625 55.859375 48.96875 55.609375 
z
" id="DejaVuSans-Bold-114"/>
     <path d="M 1.21875 54.6875 
L 18.703125 54.6875 
L 33.40625 17.578125 
L 45.90625 54.6875 
L 63.375 54.6875 
L 40.375 -5.171875 
Q 36.921875 -14.3125 32.296875 -17.9375 
Q 27.6875 -21.578125 20.125 -21.578125 
L 10.015625 -21.578125 
L 10.015625 -10.109375 
L 15.484375 -10.109375 
Q 19.921875 -10.109375 21.9375 -8.6875 
Q 23.96875 -7.28125 25.09375 -3.609375 
L 25.59375 -2.09375 
z
" id="DejaVuSans-Bold-121"/>
     <path d="M 7.8125 21.296875 
L 7.8125 54.6875 
L 25.390625 54.6875 
L 25.390625 49.21875 
Q 25.390625 44.78125 25.34375 38.0625 
Q 25.296875 31.34375 25.296875 29.109375 
Q 25.296875 22.515625 25.640625 19.609375 
Q 25.984375 16.703125 26.8125 15.375 
Q 27.875 13.671875 29.609375 12.734375 
Q 31.34375 11.8125 33.59375 11.8125 
Q 39.0625 11.8125 42.1875 16.015625 
Q 45.3125 20.21875 45.3125 27.6875 
L 45.3125 54.6875 
L 62.796875 54.6875 
L 62.796875 0 
L 45.3125 0 
L 45.3125 7.90625 
Q 41.359375 3.125 36.9375 0.84375 
Q 32.515625 -1.421875 27.203125 -1.421875 
Q 17.71875 -1.421875 12.765625 4.390625 
Q 7.8125 10.203125 7.8125 21.296875 
z
" id="DejaVuSans-Bold-117"/>
     <path d="M 51.125 52.984375 
L 51.125 39.703125 
Q 45.515625 42.046875 40.28125 43.21875 
Q 35.0625 44.390625 30.421875 44.390625 
Q 25.4375 44.390625 23.015625 43.140625 
Q 20.609375 41.890625 20.609375 39.3125 
Q 20.609375 37.203125 22.4375 36.078125 
Q 24.265625 34.96875 29 34.421875 
L 32.078125 33.984375 
Q 45.515625 32.28125 50.140625 28.375 
Q 54.78125 24.46875 54.78125 16.109375 
Q 54.78125 7.375 48.328125 2.96875 
Q 41.890625 -1.421875 29.109375 -1.421875 
Q 23.6875 -1.421875 17.890625 -0.5625 
Q 12.109375 0.296875 6 2 
L 6 15.28125 
Q 11.234375 12.75 16.71875 11.46875 
Q 22.21875 10.203125 27.875 10.203125 
Q 33.015625 10.203125 35.59375 11.609375 
Q 38.1875 13.03125 38.1875 15.828125 
Q 38.1875 18.171875 36.40625 19.3125 
Q 34.625 20.453125 29.296875 21.09375 
L 26.21875 21.484375 
Q 14.546875 22.953125 9.859375 26.90625 
Q 5.171875 30.859375 5.171875 38.921875 
Q 5.171875 47.609375 11.125 51.796875 
Q 17.09375 56 29.390625 56 
Q 34.234375 56 39.546875 55.265625 
Q 44.875 54.546875 51.125 52.984375 
z
" id="DejaVuSans-Bold-115"/>
     <path d="M 45.609375 9.28125 
Q 42 4.5 37.640625 2.25 
Q 33.296875 0 27.59375 0 
Q 17.578125 0 11.03125 7.875 
Q 4.5 15.765625 4.5 27.984375 
Q 4.5 40.234375 11.03125 48.0625 
Q 17.578125 55.90625 27.59375 55.90625 
Q 33.296875 55.90625 37.640625 53.65625 
Q 42 51.421875 45.609375 46.578125 
L 45.609375 54.6875 
L 63.1875 54.6875 
L 63.1875 5.515625 
Q 63.1875 -7.671875 54.859375 -14.625 
Q 46.53125 -21.578125 30.71875 -21.578125 
Q 25.59375 -21.578125 20.796875 -20.796875 
Q 16.015625 -20.015625 11.1875 -18.40625 
L 11.1875 -4.78125 
Q 15.765625 -7.421875 20.15625 -8.71875 
Q 24.5625 -10.015625 29 -10.015625 
Q 37.59375 -10.015625 41.59375 -6.25 
Q 45.609375 -2.484375 45.609375 5.515625 
z
M 34.078125 43.3125 
Q 28.65625 43.3125 25.625 39.296875 
Q 22.609375 35.296875 22.609375 27.984375 
Q 22.609375 20.453125 25.53125 16.578125 
Q 28.46875 12.703125 34.078125 12.703125 
Q 39.546875 12.703125 42.578125 16.703125 
Q 45.609375 20.703125 45.609375 27.984375 
Q 45.609375 35.296875 42.578125 39.296875 
Q 39.546875 43.3125 34.078125 43.3125 
z
" id="DejaVuSans-Bold-103"/>
     <path d="M 63.375 33.296875 
L 63.375 0 
L 45.796875 0 
L 45.796875 5.421875 
L 45.796875 25.484375 
Q 45.796875 32.5625 45.484375 35.25 
Q 45.171875 37.9375 44.390625 39.203125 
Q 43.359375 40.921875 41.59375 41.875 
Q 39.84375 42.828125 37.59375 42.828125 
Q 32.125 42.828125 29 38.59375 
Q 25.875 34.375 25.875 26.90625 
L 25.875 0 
L 8.40625 0 
L 8.40625 54.6875 
L 25.875 54.6875 
L 25.875 46.6875 
Q 29.828125 51.46875 34.265625 53.734375 
Q 38.71875 56 44.09375 56 
Q 53.5625 56 58.46875 50.1875 
Q 63.375 44.390625 63.375 33.296875 
z
" id="DejaVuSans-Bold-110"/>
     <path d="M 27.484375 70.21875 
L 27.484375 54.6875 
L 45.515625 54.6875 
L 45.515625 42.1875 
L 27.484375 42.1875 
L 27.484375 19 
Q 27.484375 15.1875 29 13.84375 
Q 30.515625 12.5 35.015625 12.5 
L 44 12.5 
L 44 0 
L 29 0 
Q 18.65625 0 14.328125 4.3125 
Q 10.015625 8.640625 10.015625 19 
L 10.015625 42.1875 
L 1.3125 42.1875 
L 1.3125 54.6875 
L 10.015625 54.6875 
L 10.015625 70.21875 
z
" id="DejaVuSans-Bold-116"/>
     <path d="M 47.703125 62.703125 
L 47.703125 37.109375 
L 73.1875 37.109375 
L 73.1875 25.59375 
L 47.703125 25.59375 
L 47.703125 0 
L 36.078125 0 
L 36.078125 25.59375 
L 10.59375 25.59375 
L 10.59375 37.109375 
L 36.078125 37.109375 
L 36.078125 62.703125 
z
" id="DejaVuSans-Bold-43"/>
     <path d="M 8.40625 54.6875 
L 25.875 54.6875 
L 25.875 0 
L 8.40625 0 
z
M 8.40625 75.984375 
L 25.875 75.984375 
L 25.875 61.71875 
L 8.40625 61.71875 
z
" id="DejaVuSans-Bold-105"/>
     <path d="M 2.984375 54.6875 
L 12.5 54.6875 
L 29.59375 8.796875 
L 46.6875 54.6875 
L 56.203125 54.6875 
L 35.6875 0 
L 23.484375 0 
z
" id="DejaVuSans-118"/>
    </defs>
    <g transform="translate(163.467 40.72545)scale(0.12 -0.12)">
     <use transform="translate(0 0.015625)" xlink:href="#DejaVuSans-Bold-77"/>
     <use transform="translate(99.511719 0.015625)" xlink:href="#DejaVuSans-Bold-97"/>
     <use transform="translate(166.992188 0.015625)" xlink:href="#DejaVuSans-Bold-120"/>
     <use transform="translate(231.494141 0.015625)" xlink:href="#DejaVuSans-32"/>
     <use transform="translate(263.28125 0.015625)" xlink:href="#DejaVuSans-Bold-109"/>
     <use transform="translate(367.480469 0.015625)" xlink:href="#DejaVuSans-Bold-101"/>
     <use transform="translate(435.302734 0.015625)" xlink:href="#DejaVuSans-Bold-109"/>
     <use transform="translate(539.501953 0.015625)" xlink:href="#DejaVuSans-Bold-111"/>
     <use transform="translate(608.203125 0.015625)" xlink:href="#DejaVuSans-Bold-114"/>
     <use transform="translate(657.519531 0.015625)" xlink:href="#DejaVuSans-Bold-121"/>
     <use transform="translate(722.705078 0.015625)" xlink:href="#DejaVuSans-32"/>
     <use transform="translate(754.492188 0.015625)" xlink:href="#DejaVuSans-Bold-117"/>
     <use transform="translate(825.683594 0.015625)" xlink:href="#DejaVuSans-Bold-115"/>
     <use transform="translate(885.205078 0.015625)" xlink:href="#DejaVuSans-Bold-97"/>
     <use transform="translate(952.685547 0.015625)" xlink:href="#DejaVuSans-Bold-103"/>
     <use transform="translate(1024.267578 0.015625)" xlink:href="#DejaVuSans-Bold-101"/>
     <use transform="translate(1092.089844 0.015625)" xlink:href="#DejaVuSans-32"/>
     <use transform="translate(1123.876953 0.015625)" xlink:href="#DejaVuSans-116"/>
     <use transform="translate(1163.085938 0.015625)" xlink:href="#DejaVuSans-111"/>
     <use transform="translate(1224.267578 0.015625)" xlink:href="#DejaVuSans-32"/>
     <use transform="translate(1256.054688 0.015625)" xlink:href="#DejaVuSans-Bold-103"/>
     <use transform="translate(1327.636719 0.015625)" xlink:href="#DejaVuSans-Bold-101"/>
     <use transform="translate(1395.458984 0.015625)" xlink:href="#DejaVuSans-Bold-110"/>
     <use transform="translate(1466.650391 0.015625)" xlink:href="#DejaVuSans-Bold-101"/>
     <use transform="translate(1534.472656 0.015625)" xlink:href="#DejaVuSans-Bold-114"/>
     <use transform="translate(1583.789062 0.015625)" xlink:href="#DejaVuSans-Bold-97"/>
     <use transform="translate(1651.269531 0.015625)" xlink:href="#DejaVuSans-Bold-116"/>
     <use transform="translate(1699.072266 0.015625)" xlink:href="#DejaVuSans-Bold-101"/>
     <use transform="translate(1787.734375 0.015625)" xlink:href="#DejaVuSans-Bold-43"/>
     <use transform="translate(1892.363281 0.015625)" xlink:href="#DejaVuSans-Bold-105"/>
     <use transform="translate(1926.640625 0.015625)" xlink:href="#DejaVuSans-Bold-116"/>
     <use transform="translate(1974.443359 0.015625)" xlink:href="#DejaVuSans-Bold-101"/>
     <use transform="translate(2042.265625 0.015625)" xlink:href="#DejaVuSans-Bold-114"/>
     <use transform="translate(2091.582031 0.015625)" xlink:href="#DejaVuSans-Bold-97"/>
     <use transform="translate(2159.0625 0.015625)" xlink:href="#DejaVuSans-Bold-116"/>
     <use transform="translate(2206.865234 0.015625)" xlink:href="#DejaVuSans-Bold-101"/>
     <use transform="translate(2274.6875 0.015625)" xlink:href="#DejaVuSans-32"/>
     <use transform="translate(2306.474609 0.015625)" xlink:href="#DejaVuSans-111"/>
     <use transform="translate(2367.65625 0.015625)" xlink:href="#DejaVuSans-118"/>
     <use transform="translate(2426.835938 0.015625)" xlink:href="#DejaVuSans-101"/>
     <use transform="translate(2488.359375 0.015625)" xlink:href="#DejaVuSans-114"/>
     <use transform="translate(2529.472656 0.015625)" xlink:href="#DejaVuSans-32"/>
     <use transform="translate(2561.259766 0.015625)" xlink:href="#DejaVuSans-116"/>
     <use transform="translate(2600.46875 0.015625)" xlink:href="#DejaVuSans-114"/>
     <use transform="translate(2641.582031 0.015625)" xlink:href="#DejaVuSans-105"/>
     <use transform="translate(2669.365234 0.015625)" xlink:href="#DejaVuSans-97"/>
     <use transform="translate(2730.644531 0.015625)" xlink:href="#DejaVuSans-110"/>
     <use transform="translate(2794.023438 0.015625)" xlink:href="#DejaVuSans-103"/>
     <use transform="translate(2857.5 0.015625)" xlink:href="#DejaVuSans-108"/>
     <use transform="translate(2885.283203 0.015625)" xlink:href="#DejaVuSans-101"/>
     <use transform="translate(2946.806641 0.015625)" xlink:href="#DejaVuSans-32"/>
     <use transform="translate(2978.59375 0.015625)" xlink:href="#DejaVuSans-101"/>
     <use transform="translate(3040.117188 0.015625)" xlink:href="#DejaVuSans-108"/>
     <use transform="translate(3067.900391 0.015625)" xlink:href="#DejaVuSans-101"/>
     <use transform="translate(3129.423828 0.015625)" xlink:href="#DejaVuSans-109"/>
     <use transform="translate(3226.835938 0.015625)" xlink:href="#DejaVuSans-101"/>
     <use transform="translate(3288.359375 0.015625)" xlink:href="#DejaVuSans-110"/>
     <use transform="translate(3351.738281 0.015625)" xlink:href="#DejaVuSans-116"/>
     <use transform="translate(3390.947266 0.015625)" xlink:href="#DejaVuSans-115"/>
    </g>
    <!-- Lower is better -->
    <defs>
     <path d="M 9.8125 72.90625 
L 19.671875 72.90625 
L 19.671875 8.296875 
L 55.171875 8.296875 
L 55.171875 0 
L 9.8125 0 
z
" id="DejaVuSans-76"/>
    </defs>
    <g transform="translate(325.05825 54.3072)scale(0.12 -0.12)">
     <use xlink:href="#DejaVuSans-76"/>
     <use x="55.697266" xlink:href="#DejaVuSans-111"/>
     <use x="116.878906" xlink:href="#DejaVuSans-119"/>
     <use x="198.666016" xlink:href="#DejaVuSans-101"/>
     <use x="260.189453" xlink:href="#DejaVuSans-114"/>
     <use x="301.302734" xlink:href="#DejaVuSans-32"/>
     <use x="333.089844" xlink:href="#DejaVuSans-105"/>
     <use x="360.873047" xlink:href="#DejaVuSans-115"/>
     <use x="412.972656" xlink:href="#DejaVuSans-32"/>
     <use x="444.759766" xlink:href="#DejaVuSans-98"/>
     <use x="508.236328" xlink:href="#DejaVuSans-101"/>
     <use x="569.759766" xlink:href="#DejaVuSans-116"/>
     <use x="608.96875" xlink:href="#DejaVuSans-116"/>
     <use x="648.177734" xlink:href="#DejaVuSans-101"/>
     <use x="709.701172" xlink:href="#DejaVuSans-114"/>
    </g>
   </g>
   <g id="legend_1">
    <g id="patch_7">
     <path d="M 97.27 141.97595 
L 217.912188 141.97595 
Q 219.912188 141.97595 219.912188 139.97595 
L 219.912188 67.3072 
Q 219.912188 65.3072 217.912188 65.3072 
L 97.27 65.3072 
Q 95.27 65.3072 95.27 67.3072 
L 95.27 139.97595 
Q 95.27 141.97595 97.27 141.97595 
z
" style="fill:#ffffff;opacity:0.8;stroke:#cccccc;stroke-linejoin:miter;"/>
    </g>
    <g id="line2d_21">
     <path d="M 99.27 73.405638 
L 119.27 73.405638 
" style="fill:none;stroke:#000000;stroke-linecap:square;"/>
    </g>
    <g id="line2d_22">
     <g>
      <use style="stroke:#000000;" x="109.27" xlink:href="#m5677a02bf3" y="73.405638"/>
     </g>
    </g>
    <g id="text_18">
     <!-- Baseline -->
     <defs>
      <path d="M 19.671875 34.8125 
L 19.671875 8.109375 
L 35.5 8.109375 
Q 43.453125 8.109375 47.28125 11.40625 
Q 51.125 14.703125 51.125 21.484375 
Q 51.125 28.328125 47.28125 31.5625 
Q 43.453125 34.8125 35.5 34.8125 
z
M 19.671875 64.796875 
L 19.671875 42.828125 
L 34.28125 42.828125 
Q 41.5 42.828125 45.03125 45.53125 
Q 48.578125 48.25 48.578125 53.8125 
Q 48.578125 59.328125 45.03125 62.0625 
Q 41.5 64.796875 34.28125 64.796875 
z
M 9.8125 72.90625 
L 35.015625 72.90625 
Q 46.296875 72.90625 52.390625 68.21875 
Q 58.5 63.53125 58.5 54.890625 
Q 58.5 48.1875 55.375 44.234375 
Q 52.25 40.28125 46.1875 39.3125 
Q 53.46875 37.75 57.5 32.78125 
Q 61.53125 27.828125 61.53125 20.40625 
Q 61.53125 10.640625 54.890625 5.3125 
Q 48.25 0 35.984375 0 
L 9.8125 0 
z
" id="DejaVuSans-66"/>
     </defs>
     <g transform="translate(127.27 76.905638)scale(0.1 -0.1)">
      <use xlink:href="#DejaVuSans-66"/>
      <use x="68.603516" xlink:href="#DejaVuSans-97"/>
      <use x="129.882812" xlink:href="#DejaVuSans-115"/>
      <use x="181.982422" xlink:href="#DejaVuSans-101"/>
      <use x="243.505859" xlink:href="#DejaVuSans-108"/>
      <use x="271.289062" xlink:href="#DejaVuSans-105"/>
      <use x="299.072266" xlink:href="#DejaVuSans-110"/>
      <use x="362.451172" xlink:href="#DejaVuSans-101"/>
     </g>
    </g>
    <g id="line2d_23">
     <path d="M 99.27 88.083763 
L 119.27 88.083763 
" style="fill:none;stroke:#0652ff;stroke-linecap:square;"/>
    </g>
    <g id="line2d_24">
     <g>
      <use style="fill:#0652ff;stroke:#0652ff;" x="109.27" xlink:href="#m494fb1b780" y="88.083763"/>
     </g>
    </g>
    <g id="text_19">
     <!-- ArchBanana -->
     <defs>
      <path d="M 34.1875 63.1875 
L 20.796875 26.90625 
L 47.609375 26.90625 
z
M 28.609375 72.90625 
L 39.796875 72.90625 
L 67.578125 0 
L 57.328125 0 
L 50.6875 18.703125 
L 17.828125 18.703125 
L 11.1875 0 
L 0.78125 0 
z
" id="DejaVuSans-65"/>
      <path d="M 48.78125 52.59375 
L 48.78125 44.1875 
Q 44.96875 46.296875 41.140625 47.34375 
Q 37.3125 48.390625 33.40625 48.390625 
Q 24.65625 48.390625 19.8125 42.84375 
Q 14.984375 37.3125 14.984375 27.296875 
Q 14.984375 17.28125 19.8125 11.734375 
Q 24.65625 6.203125 33.40625 6.203125 
Q 37.3125 6.203125 41.140625 7.25 
Q 44.96875 8.296875 48.78125 10.40625 
L 48.78125 2.09375 
Q 45.015625 0.34375 40.984375 -0.53125 
Q 36.96875 -1.421875 32.421875 -1.421875 
Q 20.0625 -1.421875 12.78125 6.34375 
Q 5.515625 14.109375 5.515625 27.296875 
Q 5.515625 40.671875 12.859375 48.328125 
Q 20.21875 56 33.015625 56 
Q 37.15625 56 41.109375 55.140625 
Q 45.0625 54.296875 48.78125 52.59375 
z
" id="DejaVuSans-99"/>
      <path d="M 54.890625 33.015625 
L 54.890625 0 
L 45.90625 0 
L 45.90625 32.71875 
Q 45.90625 40.484375 42.875 44.328125 
Q 39.84375 48.1875 33.796875 48.1875 
Q 26.515625 48.1875 22.3125 43.546875 
Q 18.109375 38.921875 18.109375 30.90625 
L 18.109375 0 
L 9.078125 0 
L 9.078125 75.984375 
L 18.109375 75.984375 
L 18.109375 46.1875 
Q 21.34375 51.125 25.703125 53.5625 
Q 30.078125 56 35.796875 56 
Q 45.21875 56 50.046875 50.171875 
Q 54.890625 44.34375 54.890625 33.015625 
z
" id="DejaVuSans-104"/>
     </defs>
     <g transform="translate(127.27 91.583763)scale(0.1 -0.1)">
      <use xlink:href="#DejaVuSans-65"/>
      <use x="68.408203" xlink:href="#DejaVuSans-114"/>
      <use x="109.490234" xlink:href="#DejaVuSans-99"/>
      <use x="164.470703" xlink:href="#DejaVuSans-104"/>
      <use x="227.849609" xlink:href="#DejaVuSans-66"/>
      <use x="296.453125" xlink:href="#DejaVuSans-97"/>
      <use x="357.732422" xlink:href="#DejaVuSans-110"/>
      <use x="421.111328" xlink:href="#DejaVuSans-97"/>
      <use x="482.390625" xlink:href="#DejaVuSans-110"/>
      <use x="545.769531" xlink:href="#DejaVuSans-97"/>
     </g>
    </g>
    <g id="line2d_25">
     <path d="M 99.27 102.761888 
L 119.27 102.761888 
" style="fill:none;stroke:#0cff0c;stroke-linecap:square;"/>
    </g>
    <g id="line2d_26">
     <g>
      <use style="fill:#0cff0c;stroke:#0cff0c;" x="109.27" xlink:href="#mc474d20e1f" y="102.761888"/>
     </g>
    </g>
    <g id="text_20">
     <!-- ArchBanana2_arh -->
     <defs>
      <path d="M 50.984375 -16.609375 
L 50.984375 -23.578125 
L -0.984375 -23.578125 
L -0.984375 -16.609375 
z
" id="DejaVuSans-95"/>
     </defs>
     <g transform="translate(127.27 106.261888)scale(0.1 -0.1)">
      <use xlink:href="#DejaVuSans-65"/>
      <use x="68.408203" xlink:href="#DejaVuSans-114"/>
      <use x="109.490234" xlink:href="#DejaVuSans-99"/>
      <use x="164.470703" xlink:href="#DejaVuSans-104"/>
      <use x="227.849609" xlink:href="#DejaVuSans-66"/>
      <use x="296.453125" xlink:href="#DejaVuSans-97"/>
      <use x="357.732422" xlink:href="#DejaVuSans-110"/>
      <use x="421.111328" xlink:href="#DejaVuSans-97"/>
      <use x="482.390625" xlink:href="#DejaVuSans-110"/>
      <use x="545.769531" xlink:href="#DejaVuSans-97"/>
      <use x="607.048828" xlink:href="#DejaVuSans-50"/>
      <use x="670.671875" xlink:href="#DejaVuSans-95"/>
      <use x="720.671875" xlink:href="#DejaVuSans-97"/>
      <use x="781.951172" xlink:href="#DejaVuSans-114"/>
      <use x="823.048828" xlink:href="#DejaVuSans-104"/>
     </g>
    </g>
    <g id="line2d_27">
     <path d="M 99.27 117.718138 
L 119.27 117.718138 
" style="fill:none;stroke:#e50000;stroke-linecap:square;"/>
    </g>
    <g id="line2d_28">
     <g>
      <use style="fill:#e50000;stroke:#e50000;stroke-linejoin:miter;" x="109.27" xlink:href="#m6c9e4e9ef0" y="117.718138"/>
     </g>
    </g>
    <g id="text_21">
     <!-- EvilDoughnut -->
     <defs>
      <path d="M 9.8125 72.90625 
L 55.90625 72.90625 
L 55.90625 64.59375 
L 19.671875 64.59375 
L 19.671875 43.015625 
L 54.390625 43.015625 
L 54.390625 34.71875 
L 19.671875 34.71875 
L 19.671875 8.296875 
L 56.78125 8.296875 
L 56.78125 0 
L 9.8125 0 
z
" id="DejaVuSans-69"/>
      <path d="M 19.671875 64.796875 
L 19.671875 8.109375 
L 31.59375 8.109375 
Q 46.6875 8.109375 53.6875 14.9375 
Q 60.6875 21.78125 60.6875 36.53125 
Q 60.6875 51.171875 53.6875 57.984375 
Q 46.6875 64.796875 31.59375 64.796875 
z
M 9.8125 72.90625 
L 30.078125 72.90625 
Q 51.265625 72.90625 61.171875 64.09375 
Q 71.09375 55.28125 71.09375 36.53125 
Q 71.09375 17.671875 61.125 8.828125 
Q 51.171875 0 30.078125 0 
L 9.8125 0 
z
" id="DejaVuSans-68"/>
     </defs>
     <g transform="translate(127.27 121.218138)scale(0.1 -0.1)">
      <use xlink:href="#DejaVuSans-69"/>
      <use x="63.183594" xlink:href="#DejaVuSans-118"/>
      <use x="122.363281" xlink:href="#DejaVuSans-105"/>
      <use x="150.146484" xlink:href="#DejaVuSans-108"/>
      <use x="177.929688" xlink:href="#DejaVuSans-68"/>
      <use x="254.931641" xlink:href="#DejaVuSans-111"/>
      <use x="316.113281" xlink:href="#DejaVuSans-117"/>
      <use x="379.492188" xlink:href="#DejaVuSans-103"/>
      <use x="442.96875" xlink:href="#DejaVuSans-104"/>
      <use x="506.347656" xlink:href="#DejaVuSans-110"/>
      <use x="569.726562" xlink:href="#DejaVuSans-117"/>
      <use x="633.105469" xlink:href="#DejaVuSans-116"/>
     </g>
    </g>
    <g id="line2d_29">
     <path d="M 99.27 132.396263 
L 119.27 132.396263 
" style="fill:none;stroke:#75bbfd;stroke-linecap:square;"/>
    </g>
    <g id="line2d_30">
     <g>
      <use style="fill:#75bbfd;stroke:#75bbfd;stroke-linejoin:miter;" x="109.27" xlink:href="#me7dae691d7" y="132.396263"/>
     </g>
    </g>
    <g id="text_22">
     <!-- Proteus -->
     <defs>
      <path d="M 19.671875 64.796875 
L 19.671875 37.40625 
L 32.078125 37.40625 
Q 38.96875 37.40625 42.71875 40.96875 
Q 46.484375 44.53125 46.484375 51.125 
Q 46.484375 57.671875 42.71875 61.234375 
Q 38.96875 64.796875 32.078125 64.796875 
z
M 9.8125 72.90625 
L 32.078125 72.90625 
Q 44.34375 72.90625 50.609375 67.359375 
Q 56.890625 61.8125 56.890625 51.125 
Q 56.890625 40.328125 50.609375 34.8125 
Q 44.34375 29.296875 32.078125 29.296875 
L 19.671875 29.296875 
L 19.671875 0 
L 9.8125 0 
z
" id="DejaVuSans-80"/>
     </defs>
     <g transform="translate(127.27 135.896263)scale(0.1 -0.1)">
      <use xlink:href="#DejaVuSans-80"/>
      <use x="60.287109" xlink:href="#DejaVuSans-114"/>
      <use x="101.369141" xlink:href="#DejaVuSans-111"/>
      <use x="162.550781" xlink:href="#DejaVuSans-116"/>
      <use x="201.759766" xlink:href="#DejaVuSans-101"/>
      <use x="263.283203" xlink:href="#DejaVuSans-117"/>
      <use x="326.662109" xlink:href="#DejaVuSans-115"/>
     </g>
    </g>
   </g>
  </g>
 </g>
 <defs>
  <clipPath id="p37107893db">
   <rect height="386.9712" width="559.674" x="90.27" y="60.3072"/>
  </clipPath>
 </defs>
</svg>
