<?xml version="1.0" encoding="utf-8" standalone="no"?>
<!DOCTYPE svg PUBLIC "-//W3C//DTD SVG 1.1//EN"
  "http://www.w3.org/Graphics/SVG/1.1/DTD/svg11.dtd">
<!-- Created with matplotlib (https://matplotlib.org/) -->
<svg version="1.1" viewBox="0 0 921.6 517.68" xmlns="http://www.w3.org/2000/svg" xmlns:xlink="http://www.w3.org/1999/xlink">
 <defs>
  <style type="text/css">
*{stroke-linecap:butt;stroke-linejoin:round;}
  </style>
 </defs>
 <g id="figure_1">
  <g id="patch_1">
   <path d="M 0 517.68 
L 921.6 517.68 
L 921.6 0 
L 0 0 
z
" style="fill:#ffffff;"/>
  </g>
  <g id="axes_1">
   <g id="patch_2">
    <path d="M 115.2 460.7352 
L 829.44 460.7352 
L 829.44 62.1216 
L 115.2 62.1216 
z
" style="fill:#ffffff;"/>
   </g>
   <g id="matplotlib.axis_1">
    <g id="xtick_1">
     <g id="line2d_1">
      <defs>
       <path d="M 0 0 
L 0 3.5 
" id="m0a5bd008b5" style="stroke:#000000;stroke-width:0.8;"/>
      </defs>
      <g>
       <use style="stroke:#000000;stroke-width:0.8;" x="147.665455" xlink:href="#m0a5bd008b5" y="460.7352"/>
      </g>
     </g>
     <g id="text_1">
      <!-- $\mathdefault{10^{0}}$ -->
      <defs>
       <path d="M 12.40625 8.296875 
L 28.515625 8.296875 
L 28.515625 63.921875 
L 10.984375 60.40625 
L 10.984375 69.390625 
L 28.421875 72.90625 
L 38.28125 72.90625 
L 38.28125 8.296875 
L 54.390625 8.296875 
L 54.390625 0 
L 12.40625 0 
z
" id="DejaVuSans-49"/>
       <path d="M 31.78125 66.40625 
Q 24.171875 66.40625 20.328125 58.90625 
Q 16.5 51.421875 16.5 36.375 
Q 16.5 21.390625 20.328125 13.890625 
Q 24.171875 6.390625 31.78125 6.390625 
Q 39.453125 6.390625 43.28125 13.890625 
Q 47.125 21.390625 47.125 36.375 
Q 47.125 51.421875 43.28125 58.90625 
Q 39.453125 66.40625 31.78125 66.40625 
z
M 31.78125 74.21875 
Q 44.046875 74.21875 50.515625 64.515625 
Q 56.984375 54.828125 56.984375 36.375 
Q 56.984375 17.96875 50.515625 8.265625 
Q 44.046875 -1.421875 31.78125 -1.421875 
Q 19.53125 -1.421875 13.0625 8.265625 
Q 6.59375 17.96875 6.59375 36.375 
Q 6.59375 54.828125 13.0625 64.515625 
Q 19.53125 74.21875 31.78125 74.21875 
z
" id="DejaVuSans-48"/>
      </defs>
      <g transform="translate(138.865455 475.333638)scale(0.1 -0.1)">
       <use transform="translate(0 0.765625)" xlink:href="#DejaVuSans-49"/>
       <use transform="translate(63.623047 0.765625)" xlink:href="#DejaVuSans-48"/>
       <use transform="translate(128.203125 39.046875)scale(0.7)" xlink:href="#DejaVuSans-48"/>
      </g>
     </g>
    </g>
    <g id="xtick_2">
     <g id="line2d_2">
      <g>
       <use style="stroke:#000000;stroke-width:0.8;" x="282.475337" xlink:href="#m0a5bd008b5" y="460.7352"/>
      </g>
     </g>
     <g id="text_2">
      <!-- $\mathdefault{10^{1}}$ -->
      <g transform="translate(273.675337 475.333638)scale(0.1 -0.1)">
       <use transform="translate(0 0.684375)" xlink:href="#DejaVuSans-49"/>
       <use transform="translate(63.623047 0.684375)" xlink:href="#DejaVuSans-48"/>
       <use transform="translate(128.203125 38.965625)scale(0.7)" xlink:href="#DejaVuSans-49"/>
      </g>
     </g>
    </g>
    <g id="xtick_3">
     <g id="line2d_3">
      <g>
       <use style="stroke:#000000;stroke-width:0.8;" x="417.285218" xlink:href="#m0a5bd008b5" y="460.7352"/>
      </g>
     </g>
     <g id="text_3">
      <!-- $\mathdefault{10^{2}}$ -->
      <defs>
       <path d="M 19.1875 8.296875 
L 53.609375 8.296875 
L 53.609375 0 
L 7.328125 0 
L 7.328125 8.296875 
Q 12.9375 14.109375 22.625 23.890625 
Q 32.328125 33.6875 34.8125 36.53125 
Q 39.546875 41.84375 41.421875 45.53125 
Q 43.3125 49.21875 43.3125 52.78125 
Q 43.3125 58.59375 39.234375 62.25 
Q 35.15625 65.921875 28.609375 65.921875 
Q 23.96875 65.921875 18.8125 64.3125 
Q 13.671875 62.703125 7.8125 59.421875 
L 7.8125 69.390625 
Q 13.765625 71.78125 18.9375 73 
Q 24.125 74.21875 28.421875 74.21875 
Q 39.75 74.21875 46.484375 68.546875 
Q 53.21875 62.890625 53.21875 53.421875 
Q 53.21875 48.921875 51.53125 44.890625 
Q 49.859375 40.875 45.40625 35.40625 
Q 44.1875 33.984375 37.640625 27.21875 
Q 31.109375 20.453125 19.1875 8.296875 
z
" id="DejaVuSans-50"/>
      </defs>
      <g transform="translate(408.485218 475.333638)scale(0.1 -0.1)">
       <use transform="translate(0 0.765625)" xlink:href="#DejaVuSans-49"/>
       <use transform="translate(63.623047 0.765625)" xlink:href="#DejaVuSans-48"/>
       <use transform="translate(128.203125 39.046875)scale(0.7)" xlink:href="#DejaVuSans-50"/>
      </g>
     </g>
    </g>
    <g id="xtick_4">
     <g id="line2d_4">
      <g>
       <use style="stroke:#000000;stroke-width:0.8;" x="552.0951" xlink:href="#m0a5bd008b5" y="460.7352"/>
      </g>
     </g>
     <g id="text_4">
      <!-- $\mathdefault{10^{3}}$ -->
      <defs>
       <path d="M 40.578125 39.3125 
Q 47.65625 37.796875 51.625 33 
Q 55.609375 28.21875 55.609375 21.1875 
Q 55.609375 10.40625 48.1875 4.484375 
Q 40.765625 -1.421875 27.09375 -1.421875 
Q 22.515625 -1.421875 17.65625 -0.515625 
Q 12.796875 0.390625 7.625 2.203125 
L 7.625 11.71875 
Q 11.71875 9.328125 16.59375 8.109375 
Q 21.484375 6.890625 26.8125 6.890625 
Q 36.078125 6.890625 40.9375 10.546875 
Q 45.796875 14.203125 45.796875 21.1875 
Q 45.796875 27.640625 41.28125 31.265625 
Q 36.765625 34.90625 28.71875 34.90625 
L 20.21875 34.90625 
L 20.21875 43.015625 
L 29.109375 43.015625 
Q 36.375 43.015625 40.234375 45.921875 
Q 44.09375 48.828125 44.09375 54.296875 
Q 44.09375 59.90625 40.109375 62.90625 
Q 36.140625 65.921875 28.71875 65.921875 
Q 24.65625 65.921875 20.015625 65.03125 
Q 15.375 64.15625 9.8125 62.3125 
L 9.8125 71.09375 
Q 15.4375 72.65625 20.34375 73.4375 
Q 25.25 74.21875 29.59375 74.21875 
Q 40.828125 74.21875 47.359375 69.109375 
Q 53.90625 64.015625 53.90625 55.328125 
Q 53.90625 49.265625 50.4375 45.09375 
Q 46.96875 40.921875 40.578125 39.3125 
z
" id="DejaVuSans-51"/>
      </defs>
      <g transform="translate(543.2951 475.333638)scale(0.1 -0.1)">
       <use transform="translate(0 0.765625)" xlink:href="#DejaVuSans-49"/>
       <use transform="translate(63.623047 0.765625)" xlink:href="#DejaVuSans-48"/>
       <use transform="translate(128.203125 39.046875)scale(0.7)" xlink:href="#DejaVuSans-51"/>
      </g>
     </g>
    </g>
    <g id="xtick_5">
     <g id="line2d_5">
      <g>
       <use style="stroke:#000000;stroke-width:0.8;" x="686.904982" xlink:href="#m0a5bd008b5" y="460.7352"/>
      </g>
     </g>
     <g id="text_5">
      <!-- $\mathdefault{10^{4}}$ -->
      <defs>
       <path d="M 37.796875 64.3125 
L 12.890625 25.390625 
L 37.796875 25.390625 
z
M 35.203125 72.90625 
L 47.609375 72.90625 
L 47.609375 25.390625 
L 58.015625 25.390625 
L 58.015625 17.1875 
L 47.609375 17.1875 
L 47.609375 0 
L 37.796875 0 
L 37.796875 17.1875 
L 4.890625 17.1875 
L 4.890625 26.703125 
z
" id="DejaVuSans-52"/>
      </defs>
      <g transform="translate(678.104982 475.333638)scale(0.1 -0.1)">
       <use transform="translate(0 0.684375)" xlink:href="#DejaVuSans-49"/>
       <use transform="translate(63.623047 0.684375)" xlink:href="#DejaVuSans-48"/>
       <use transform="translate(128.203125 38.965625)scale(0.7)" xlink:href="#DejaVuSans-52"/>
      </g>
     </g>
    </g>
    <g id="xtick_6">
     <g id="line2d_6">
      <g>
       <use style="stroke:#000000;stroke-width:0.8;" x="821.714864" xlink:href="#m0a5bd008b5" y="460.7352"/>
      </g>
     </g>
     <g id="text_6">
      <!-- $\mathdefault{10^{5}}$ -->
      <defs>
       <path d="M 10.796875 72.90625 
L 49.515625 72.90625 
L 49.515625 64.59375 
L 19.828125 64.59375 
L 19.828125 46.734375 
Q 21.96875 47.46875 24.109375 47.828125 
Q 26.265625 48.1875 28.421875 48.1875 
Q 40.625 48.1875 47.75 41.5 
Q 54.890625 34.8125 54.890625 23.390625 
Q 54.890625 11.625 47.5625 5.09375 
Q 40.234375 -1.421875 26.90625 -1.421875 
Q 22.3125 -1.421875 17.546875 -0.640625 
Q 12.796875 0.140625 7.71875 1.703125 
L 7.71875 11.625 
Q 12.109375 9.234375 16.796875 8.0625 
Q 21.484375 6.890625 26.703125 6.890625 
Q 35.15625 6.890625 40.078125 11.328125 
Q 45.015625 15.765625 45.015625 23.390625 
Q 45.015625 31 40.078125 35.4375 
Q 35.15625 39.890625 26.703125 39.890625 
Q 22.75 39.890625 18.8125 39.015625 
Q 14.890625 38.140625 10.796875 36.28125 
z
" id="DejaVuSans-53"/>
      </defs>
      <g transform="translate(812.914864 475.333638)scale(0.1 -0.1)">
       <use transform="translate(0 0.684375)" xlink:href="#DejaVuSans-49"/>
       <use transform="translate(63.623047 0.684375)" xlink:href="#DejaVuSans-48"/>
       <use transform="translate(128.203125 38.965625)scale(0.7)" xlink:href="#DejaVuSans-53"/>
      </g>
     </g>
    </g>
    <g id="xtick_7">
     <g id="line2d_7">
      <defs>
       <path d="M 0 0 
L 0 2 
" id="macd2f9cb34" style="stroke:#000000;stroke-width:0.6;"/>
      </defs>
      <g>
       <use style="stroke:#000000;stroke-width:0.6;" x="117.758051" xlink:href="#macd2f9cb34" y="460.7352"/>
      </g>
     </g>
    </g>
    <g id="xtick_8">
     <g id="line2d_8">
      <g>
       <use style="stroke:#000000;stroke-width:0.6;" x="126.78314" xlink:href="#macd2f9cb34" y="460.7352"/>
      </g>
     </g>
    </g>
    <g id="xtick_9">
     <g id="line2d_9">
      <g>
       <use style="stroke:#000000;stroke-width:0.6;" x="134.601027" xlink:href="#macd2f9cb34" y="460.7352"/>
      </g>
     </g>
    </g>
    <g id="xtick_10">
     <g id="line2d_10">
      <g>
       <use style="stroke:#000000;stroke-width:0.6;" x="141.496893" xlink:href="#macd2f9cb34" y="460.7352"/>
      </g>
     </g>
    </g>
    <g id="xtick_11">
     <g id="line2d_11">
      <g>
       <use style="stroke:#000000;stroke-width:0.6;" x="188.247273" xlink:href="#macd2f9cb34" y="460.7352"/>
      </g>
     </g>
    </g>
    <g id="xtick_12">
     <g id="line2d_12">
      <g>
       <use style="stroke:#000000;stroke-width:0.6;" x="211.986115" xlink:href="#macd2f9cb34" y="460.7352"/>
      </g>
     </g>
    </g>
    <g id="xtick_13">
     <g id="line2d_13">
      <g>
       <use style="stroke:#000000;stroke-width:0.6;" x="228.829091" xlink:href="#macd2f9cb34" y="460.7352"/>
      </g>
     </g>
    </g>
    <g id="xtick_14">
     <g id="line2d_14">
      <g>
       <use style="stroke:#000000;stroke-width:0.6;" x="241.893518" xlink:href="#macd2f9cb34" y="460.7352"/>
      </g>
     </g>
    </g>
    <g id="xtick_15">
     <g id="line2d_15">
      <g>
       <use style="stroke:#000000;stroke-width:0.6;" x="252.567933" xlink:href="#macd2f9cb34" y="460.7352"/>
      </g>
     </g>
    </g>
    <g id="xtick_16">
     <g id="line2d_16">
      <g>
       <use style="stroke:#000000;stroke-width:0.6;" x="261.593022" xlink:href="#macd2f9cb34" y="460.7352"/>
      </g>
     </g>
    </g>
    <g id="xtick_17">
     <g id="line2d_17">
      <g>
       <use style="stroke:#000000;stroke-width:0.6;" x="269.410909" xlink:href="#macd2f9cb34" y="460.7352"/>
      </g>
     </g>
    </g>
    <g id="xtick_18">
     <g id="line2d_18">
      <g>
       <use style="stroke:#000000;stroke-width:0.6;" x="276.306775" xlink:href="#macd2f9cb34" y="460.7352"/>
      </g>
     </g>
    </g>
    <g id="xtick_19">
     <g id="line2d_19">
      <g>
       <use style="stroke:#000000;stroke-width:0.6;" x="323.057155" xlink:href="#macd2f9cb34" y="460.7352"/>
      </g>
     </g>
    </g>
    <g id="xtick_20">
     <g id="line2d_20">
      <g>
       <use style="stroke:#000000;stroke-width:0.6;" x="346.795997" xlink:href="#macd2f9cb34" y="460.7352"/>
      </g>
     </g>
    </g>
    <g id="xtick_21">
     <g id="line2d_21">
      <g>
       <use style="stroke:#000000;stroke-width:0.6;" x="363.638973" xlink:href="#macd2f9cb34" y="460.7352"/>
      </g>
     </g>
    </g>
    <g id="xtick_22">
     <g id="line2d_22">
      <g>
       <use style="stroke:#000000;stroke-width:0.6;" x="376.7034" xlink:href="#macd2f9cb34" y="460.7352"/>
      </g>
     </g>
    </g>
    <g id="xtick_23">
     <g id="line2d_23">
      <g>
       <use style="stroke:#000000;stroke-width:0.6;" x="387.377815" xlink:href="#macd2f9cb34" y="460.7352"/>
      </g>
     </g>
    </g>
    <g id="xtick_24">
     <g id="line2d_24">
      <g>
       <use style="stroke:#000000;stroke-width:0.6;" x="396.402904" xlink:href="#macd2f9cb34" y="460.7352"/>
      </g>
     </g>
    </g>
    <g id="xtick_25">
     <g id="line2d_25">
      <g>
       <use style="stroke:#000000;stroke-width:0.6;" x="404.220791" xlink:href="#macd2f9cb34" y="460.7352"/>
      </g>
     </g>
    </g>
    <g id="xtick_26">
     <g id="line2d_26">
      <g>
       <use style="stroke:#000000;stroke-width:0.6;" x="411.116657" xlink:href="#macd2f9cb34" y="460.7352"/>
      </g>
     </g>
    </g>
    <g id="xtick_27">
     <g id="line2d_27">
      <g>
       <use style="stroke:#000000;stroke-width:0.6;" x="457.867037" xlink:href="#macd2f9cb34" y="460.7352"/>
      </g>
     </g>
    </g>
    <g id="xtick_28">
     <g id="line2d_28">
      <g>
       <use style="stroke:#000000;stroke-width:0.6;" x="481.605878" xlink:href="#macd2f9cb34" y="460.7352"/>
      </g>
     </g>
    </g>
    <g id="xtick_29">
     <g id="line2d_29">
      <g>
       <use style="stroke:#000000;stroke-width:0.6;" x="498.448855" xlink:href="#macd2f9cb34" y="460.7352"/>
      </g>
     </g>
    </g>
    <g id="xtick_30">
     <g id="line2d_30">
      <g>
       <use style="stroke:#000000;stroke-width:0.6;" x="511.513282" xlink:href="#macd2f9cb34" y="460.7352"/>
      </g>
     </g>
    </g>
    <g id="xtick_31">
     <g id="line2d_31">
      <g>
       <use style="stroke:#000000;stroke-width:0.6;" x="522.187697" xlink:href="#macd2f9cb34" y="460.7352"/>
      </g>
     </g>
    </g>
    <g id="xtick_32">
     <g id="line2d_32">
      <g>
       <use style="stroke:#000000;stroke-width:0.6;" x="531.212785" xlink:href="#macd2f9cb34" y="460.7352"/>
      </g>
     </g>
    </g>
    <g id="xtick_33">
     <g id="line2d_33">
      <g>
       <use style="stroke:#000000;stroke-width:0.6;" x="539.030673" xlink:href="#macd2f9cb34" y="460.7352"/>
      </g>
     </g>
    </g>
    <g id="xtick_34">
     <g id="line2d_34">
      <g>
       <use style="stroke:#000000;stroke-width:0.6;" x="545.926539" xlink:href="#macd2f9cb34" y="460.7352"/>
      </g>
     </g>
    </g>
    <g id="xtick_35">
     <g id="line2d_35">
      <g>
       <use style="stroke:#000000;stroke-width:0.6;" x="592.676919" xlink:href="#macd2f9cb34" y="460.7352"/>
      </g>
     </g>
    </g>
    <g id="xtick_36">
     <g id="line2d_36">
      <g>
       <use style="stroke:#000000;stroke-width:0.6;" x="616.41576" xlink:href="#macd2f9cb34" y="460.7352"/>
      </g>
     </g>
    </g>
    <g id="xtick_37">
     <g id="line2d_37">
      <g>
       <use style="stroke:#000000;stroke-width:0.6;" x="633.258737" xlink:href="#macd2f9cb34" y="460.7352"/>
      </g>
     </g>
    </g>
    <g id="xtick_38">
     <g id="line2d_38">
      <g>
       <use style="stroke:#000000;stroke-width:0.6;" x="646.323164" xlink:href="#macd2f9cb34" y="460.7352"/>
      </g>
     </g>
    </g>
    <g id="xtick_39">
     <g id="line2d_39">
      <g>
       <use style="stroke:#000000;stroke-width:0.6;" x="656.997579" xlink:href="#macd2f9cb34" y="460.7352"/>
      </g>
     </g>
    </g>
    <g id="xtick_40">
     <g id="line2d_40">
      <g>
       <use style="stroke:#000000;stroke-width:0.6;" x="666.022667" xlink:href="#macd2f9cb34" y="460.7352"/>
      </g>
     </g>
    </g>
    <g id="xtick_41">
     <g id="line2d_41">
      <g>
       <use style="stroke:#000000;stroke-width:0.6;" x="673.840555" xlink:href="#macd2f9cb34" y="460.7352"/>
      </g>
     </g>
    </g>
    <g id="xtick_42">
     <g id="line2d_42">
      <g>
       <use style="stroke:#000000;stroke-width:0.6;" x="680.73642" xlink:href="#macd2f9cb34" y="460.7352"/>
      </g>
     </g>
    </g>
    <g id="xtick_43">
     <g id="line2d_43">
      <g>
       <use style="stroke:#000000;stroke-width:0.6;" x="727.486801" xlink:href="#macd2f9cb34" y="460.7352"/>
      </g>
     </g>
    </g>
    <g id="xtick_44">
     <g id="line2d_44">
      <g>
       <use style="stroke:#000000;stroke-width:0.6;" x="751.225642" xlink:href="#macd2f9cb34" y="460.7352"/>
      </g>
     </g>
    </g>
    <g id="xtick_45">
     <g id="line2d_45">
      <g>
       <use style="stroke:#000000;stroke-width:0.6;" x="768.068619" xlink:href="#macd2f9cb34" y="460.7352"/>
      </g>
     </g>
    </g>
    <g id="xtick_46">
     <g id="line2d_46">
      <g>
       <use style="stroke:#000000;stroke-width:0.6;" x="781.133046" xlink:href="#macd2f9cb34" y="460.7352"/>
      </g>
     </g>
    </g>
    <g id="xtick_47">
     <g id="line2d_47">
      <g>
       <use style="stroke:#000000;stroke-width:0.6;" x="791.807461" xlink:href="#macd2f9cb34" y="460.7352"/>
      </g>
     </g>
    </g>
    <g id="xtick_48">
     <g id="line2d_48">
      <g>
       <use style="stroke:#000000;stroke-width:0.6;" x="800.832549" xlink:href="#macd2f9cb34" y="460.7352"/>
      </g>
     </g>
    </g>
    <g id="xtick_49">
     <g id="line2d_49">
      <g>
       <use style="stroke:#000000;stroke-width:0.6;" x="808.650437" xlink:href="#macd2f9cb34" y="460.7352"/>
      </g>
     </g>
    </g>
    <g id="xtick_50">
     <g id="line2d_50">
      <g>
       <use style="stroke:#000000;stroke-width:0.6;" x="815.546302" xlink:href="#macd2f9cb34" y="460.7352"/>
      </g>
     </g>
    </g>
    <g id="text_7">
     <!-- Number of rows in triangle -->
     <defs>
      <path d="M 9.8125 72.90625 
L 23.09375 72.90625 
L 55.421875 11.921875 
L 55.421875 72.90625 
L 64.984375 72.90625 
L 64.984375 0 
L 51.703125 0 
L 19.390625 60.984375 
L 19.390625 0 
L 9.8125 0 
z
" id="DejaVuSans-78"/>
      <path d="M 8.5 21.578125 
L 8.5 54.6875 
L 17.484375 54.6875 
L 17.484375 21.921875 
Q 17.484375 14.15625 20.5 10.265625 
Q 23.53125 6.390625 29.59375 6.390625 
Q 36.859375 6.390625 41.078125 11.03125 
Q 45.3125 15.671875 45.3125 23.6875 
L 45.3125 54.6875 
L 54.296875 54.6875 
L 54.296875 0 
L 45.3125 0 
L 45.3125 8.40625 
Q 42.046875 3.421875 37.71875 1 
Q 33.40625 -1.421875 27.6875 -1.421875 
Q 18.265625 -1.421875 13.375 4.4375 
Q 8.5 10.296875 8.5 21.578125 
z
M 31.109375 56 
z
" id="DejaVuSans-117"/>
      <path d="M 52 44.1875 
Q 55.375 50.25 60.0625 53.125 
Q 64.75 56 71.09375 56 
Q 79.640625 56 84.28125 50.015625 
Q 88.921875 44.046875 88.921875 33.015625 
L 88.921875 0 
L 79.890625 0 
L 79.890625 32.71875 
Q 79.890625 40.578125 77.09375 44.375 
Q 74.3125 48.1875 68.609375 48.1875 
Q 61.625 48.1875 57.5625 43.546875 
Q 53.515625 38.921875 53.515625 30.90625 
L 53.515625 0 
L 44.484375 0 
L 44.484375 32.71875 
Q 44.484375 40.625 41.703125 44.40625 
Q 38.921875 48.1875 33.109375 48.1875 
Q 26.21875 48.1875 22.15625 43.53125 
Q 18.109375 38.875 18.109375 30.90625 
L 18.109375 0 
L 9.078125 0 
L 9.078125 54.6875 
L 18.109375 54.6875 
L 18.109375 46.1875 
Q 21.1875 51.21875 25.484375 53.609375 
Q 29.78125 56 35.6875 56 
Q 41.65625 56 45.828125 52.96875 
Q 50 49.953125 52 44.1875 
z
" id="DejaVuSans-109"/>
      <path d="M 48.6875 27.296875 
Q 48.6875 37.203125 44.609375 42.84375 
Q 40.53125 48.484375 33.40625 48.484375 
Q 26.265625 48.484375 22.1875 42.84375 
Q 18.109375 37.203125 18.109375 27.296875 
Q 18.109375 17.390625 22.1875 11.75 
Q 26.265625 6.109375 33.40625 6.109375 
Q 40.53125 6.109375 44.609375 11.75 
Q 48.6875 17.390625 48.6875 27.296875 
z
M 18.109375 46.390625 
Q 20.953125 51.265625 25.265625 53.625 
Q 29.59375 56 35.59375 56 
Q 45.5625 56 51.78125 48.09375 
Q 58.015625 40.1875 58.015625 27.296875 
Q 58.015625 14.40625 51.78125 6.484375 
Q 45.5625 -1.421875 35.59375 -1.421875 
Q 29.59375 -1.421875 25.265625 0.953125 
Q 20.953125 3.328125 18.109375 8.203125 
L 18.109375 0 
L 9.078125 0 
L 9.078125 75.984375 
L 18.109375 75.984375 
z
" id="DejaVuSans-98"/>
      <path d="M 56.203125 29.59375 
L 56.203125 25.203125 
L 14.890625 25.203125 
Q 15.484375 15.921875 20.484375 11.0625 
Q 25.484375 6.203125 34.421875 6.203125 
Q 39.59375 6.203125 44.453125 7.46875 
Q 49.3125 8.734375 54.109375 11.28125 
L 54.109375 2.78125 
Q 49.265625 0.734375 44.1875 -0.34375 
Q 39.109375 -1.421875 33.890625 -1.421875 
Q 20.796875 -1.421875 13.15625 6.1875 
Q 5.515625 13.8125 5.515625 26.8125 
Q 5.515625 40.234375 12.765625 48.109375 
Q 20.015625 56 32.328125 56 
Q 43.359375 56 49.78125 48.890625 
Q 56.203125 41.796875 56.203125 29.59375 
z
M 47.21875 32.234375 
Q 47.125 39.59375 43.09375 43.984375 
Q 39.0625 48.390625 32.421875 48.390625 
Q 24.90625 48.390625 20.390625 44.140625 
Q 15.875 39.890625 15.1875 32.171875 
z
" id="DejaVuSans-101"/>
      <path d="M 41.109375 46.296875 
Q 39.59375 47.171875 37.8125 47.578125 
Q 36.03125 48 33.890625 48 
Q 26.265625 48 22.1875 43.046875 
Q 18.109375 38.09375 18.109375 28.8125 
L 18.109375 0 
L 9.078125 0 
L 9.078125 54.6875 
L 18.109375 54.6875 
L 18.109375 46.1875 
Q 20.953125 51.171875 25.484375 53.578125 
Q 30.03125 56 36.53125 56 
Q 37.453125 56 38.578125 55.875 
Q 39.703125 55.765625 41.0625 55.515625 
z
" id="DejaVuSans-114"/>
      <path id="DejaVuSans-32"/>
      <path d="M 30.609375 48.390625 
Q 23.390625 48.390625 19.1875 42.75 
Q 14.984375 37.109375 14.984375 27.296875 
Q 14.984375 17.484375 19.15625 11.84375 
Q 23.34375 6.203125 30.609375 6.203125 
Q 37.796875 6.203125 41.984375 11.859375 
Q 46.1875 17.53125 46.1875 27.296875 
Q 46.1875 37.015625 41.984375 42.703125 
Q 37.796875 48.390625 30.609375 48.390625 
z
M 30.609375 56 
Q 42.328125 56 49.015625 48.375 
Q 55.71875 40.765625 55.71875 27.296875 
Q 55.71875 13.875 49.015625 6.21875 
Q 42.328125 -1.421875 30.609375 -1.421875 
Q 18.84375 -1.421875 12.171875 6.21875 
Q 5.515625 13.875 5.515625 27.296875 
Q 5.515625 40.765625 12.171875 48.375 
Q 18.84375 56 30.609375 56 
z
" id="DejaVuSans-111"/>
      <path d="M 37.109375 75.984375 
L 37.109375 68.5 
L 28.515625 68.5 
Q 23.6875 68.5 21.796875 66.546875 
Q 19.921875 64.59375 19.921875 59.515625 
L 19.921875 54.6875 
L 34.71875 54.6875 
L 34.71875 47.703125 
L 19.921875 47.703125 
L 19.921875 0 
L 10.890625 0 
L 10.890625 47.703125 
L 2.296875 47.703125 
L 2.296875 54.6875 
L 10.890625 54.6875 
L 10.890625 58.5 
Q 10.890625 67.625 15.140625 71.796875 
Q 19.390625 75.984375 28.609375 75.984375 
z
" id="DejaVuSans-102"/>
      <path d="M 4.203125 54.6875 
L 13.1875 54.6875 
L 24.421875 12.015625 
L 35.59375 54.6875 
L 46.1875 54.6875 
L 57.421875 12.015625 
L 68.609375 54.6875 
L 77.59375 54.6875 
L 63.28125 0 
L 52.6875 0 
L 40.921875 44.828125 
L 29.109375 0 
L 18.5 0 
z
" id="DejaVuSans-119"/>
      <path d="M 44.28125 53.078125 
L 44.28125 44.578125 
Q 40.484375 46.53125 36.375 47.5 
Q 32.28125 48.484375 27.875 48.484375 
Q 21.1875 48.484375 17.84375 46.4375 
Q 14.5 44.390625 14.5 40.28125 
Q 14.5 37.15625 16.890625 35.375 
Q 19.28125 33.59375 26.515625 31.984375 
L 29.59375 31.296875 
Q 39.15625 29.25 43.1875 25.515625 
Q 47.21875 21.78125 47.21875 15.09375 
Q 47.21875 7.46875 41.1875 3.015625 
Q 35.15625 -1.421875 24.609375 -1.421875 
Q 20.21875 -1.421875 15.453125 -0.5625 
Q 10.6875 0.296875 5.421875 2 
L 5.421875 11.28125 
Q 10.40625 8.6875 15.234375 7.390625 
Q 20.0625 6.109375 24.8125 6.109375 
Q 31.15625 6.109375 34.5625 8.28125 
Q 37.984375 10.453125 37.984375 14.40625 
Q 37.984375 18.0625 35.515625 20.015625 
Q 33.0625 21.96875 24.703125 23.78125 
L 21.578125 24.515625 
Q 13.234375 26.265625 9.515625 29.90625 
Q 5.8125 33.546875 5.8125 39.890625 
Q 5.8125 47.609375 11.28125 51.796875 
Q 16.75 56 26.8125 56 
Q 31.78125 56 36.171875 55.265625 
Q 40.578125 54.546875 44.28125 53.078125 
z
" id="DejaVuSans-115"/>
      <path d="M 9.421875 54.6875 
L 18.40625 54.6875 
L 18.40625 0 
L 9.421875 0 
z
M 9.421875 75.984375 
L 18.40625 75.984375 
L 18.40625 64.59375 
L 9.421875 64.59375 
z
" id="DejaVuSans-105"/>
      <path d="M 54.890625 33.015625 
L 54.890625 0 
L 45.90625 0 
L 45.90625 32.71875 
Q 45.90625 40.484375 42.875 44.328125 
Q 39.84375 48.1875 33.796875 48.1875 
Q 26.515625 48.1875 22.3125 43.546875 
Q 18.109375 38.921875 18.109375 30.90625 
L 18.109375 0 
L 9.078125 0 
L 9.078125 54.6875 
L 18.109375 54.6875 
L 18.109375 46.1875 
Q 21.34375 51.125 25.703125 53.5625 
Q 30.078125 56 35.796875 56 
Q 45.21875 56 50.046875 50.171875 
Q 54.890625 44.34375 54.890625 33.015625 
z
" id="DejaVuSans-110"/>
      <path d="M 18.3125 70.21875 
L 18.3125 54.6875 
L 36.8125 54.6875 
L 36.8125 47.703125 
L 18.3125 47.703125 
L 18.3125 18.015625 
Q 18.3125 11.328125 20.140625 9.421875 
Q 21.96875 7.515625 27.59375 7.515625 
L 36.8125 7.515625 
L 36.8125 0 
L 27.59375 0 
Q 17.1875 0 13.234375 3.875 
Q 9.28125 7.765625 9.28125 18.015625 
L 9.28125 47.703125 
L 2.6875 47.703125 
L 2.6875 54.6875 
L 9.28125 54.6875 
L 9.28125 70.21875 
z
" id="DejaVuSans-116"/>
      <path d="M 34.28125 27.484375 
Q 23.390625 27.484375 19.1875 25 
Q 14.984375 22.515625 14.984375 16.5 
Q 14.984375 11.71875 18.140625 8.90625 
Q 21.296875 6.109375 26.703125 6.109375 
Q 34.1875 6.109375 38.703125 11.40625 
Q 43.21875 16.703125 43.21875 25.484375 
L 43.21875 27.484375 
z
M 52.203125 31.203125 
L 52.203125 0 
L 43.21875 0 
L 43.21875 8.296875 
Q 40.140625 3.328125 35.546875 0.953125 
Q 30.953125 -1.421875 24.3125 -1.421875 
Q 15.921875 -1.421875 10.953125 3.296875 
Q 6 8.015625 6 15.921875 
Q 6 25.140625 12.171875 29.828125 
Q 18.359375 34.515625 30.609375 34.515625 
L 43.21875 34.515625 
L 43.21875 35.40625 
Q 43.21875 41.609375 39.140625 45 
Q 35.0625 48.390625 27.6875 48.390625 
Q 23 48.390625 18.546875 47.265625 
Q 14.109375 46.140625 10.015625 43.890625 
L 10.015625 52.203125 
Q 14.9375 54.109375 19.578125 55.046875 
Q 24.21875 56 28.609375 56 
Q 40.484375 56 46.34375 49.84375 
Q 52.203125 43.703125 52.203125 31.203125 
z
" id="DejaVuSans-97"/>
      <path d="M 45.40625 27.984375 
Q 45.40625 37.75 41.375 43.109375 
Q 37.359375 48.484375 30.078125 48.484375 
Q 22.859375 48.484375 18.828125 43.109375 
Q 14.796875 37.75 14.796875 27.984375 
Q 14.796875 18.265625 18.828125 12.890625 
Q 22.859375 7.515625 30.078125 7.515625 
Q 37.359375 7.515625 41.375 12.890625 
Q 45.40625 18.265625 45.40625 27.984375 
z
M 54.390625 6.78125 
Q 54.390625 -7.171875 48.1875 -13.984375 
Q 42 -20.796875 29.203125 -20.796875 
Q 24.46875 -20.796875 20.265625 -20.09375 
Q 16.0625 -19.390625 12.109375 -17.921875 
L 12.109375 -9.1875 
Q 16.0625 -11.328125 19.921875 -12.34375 
Q 23.78125 -13.375 27.78125 -13.375 
Q 36.625 -13.375 41.015625 -8.765625 
Q 45.40625 -4.15625 45.40625 5.171875 
L 45.40625 9.625 
Q 42.625 4.78125 38.28125 2.390625 
Q 33.9375 0 27.875 0 
Q 17.828125 0 11.671875 7.65625 
Q 5.515625 15.328125 5.515625 27.984375 
Q 5.515625 40.671875 11.671875 48.328125 
Q 17.828125 56 27.875 56 
Q 33.9375 56 38.28125 53.609375 
Q 42.625 51.21875 45.40625 46.390625 
L 45.40625 54.6875 
L 54.390625 54.6875 
z
" id="DejaVuSans-103"/>
      <path d="M 9.421875 75.984375 
L 18.40625 75.984375 
L 18.40625 0 
L 9.421875 0 
z
" id="DejaVuSans-108"/>
     </defs>
     <g transform="translate(405.416094 489.011763)scale(0.1 -0.1)">
      <use xlink:href="#DejaVuSans-78"/>
      <use x="74.804688" xlink:href="#DejaVuSans-117"/>
      <use x="138.183594" xlink:href="#DejaVuSans-109"/>
      <use x="235.595703" xlink:href="#DejaVuSans-98"/>
      <use x="299.072266" xlink:href="#DejaVuSans-101"/>
      <use x="360.595703" xlink:href="#DejaVuSans-114"/>
      <use x="401.708984" xlink:href="#DejaVuSans-32"/>
      <use x="433.496094" xlink:href="#DejaVuSans-111"/>
      <use x="494.677734" xlink:href="#DejaVuSans-102"/>
      <use x="529.882812" xlink:href="#DejaVuSans-32"/>
      <use x="561.669922" xlink:href="#DejaVuSans-114"/>
      <use x="602.751953" xlink:href="#DejaVuSans-111"/>
      <use x="663.933594" xlink:href="#DejaVuSans-119"/>
      <use x="745.720703" xlink:href="#DejaVuSans-115"/>
      <use x="797.820312" xlink:href="#DejaVuSans-32"/>
      <use x="829.607422" xlink:href="#DejaVuSans-105"/>
      <use x="857.390625" xlink:href="#DejaVuSans-110"/>
      <use x="920.769531" xlink:href="#DejaVuSans-32"/>
      <use x="952.556641" xlink:href="#DejaVuSans-116"/>
      <use x="991.765625" xlink:href="#DejaVuSans-114"/>
      <use x="1032.878906" xlink:href="#DejaVuSans-105"/>
      <use x="1060.662109" xlink:href="#DejaVuSans-97"/>
      <use x="1121.941406" xlink:href="#DejaVuSans-110"/>
      <use x="1185.320312" xlink:href="#DejaVuSans-103"/>
      <use x="1248.796875" xlink:href="#DejaVuSans-108"/>
      <use x="1276.580078" xlink:href="#DejaVuSans-101"/>
     </g>
    </g>
   </g>
   <g id="matplotlib.axis_2">
    <g id="ytick_1">
     <g id="line2d_51">
      <defs>
       <path d="M 0 0 
L -3.5 0 
" id="m4bbdb57c0f" style="stroke:#000000;stroke-width:0.8;"/>
      </defs>
      <g>
       <use style="stroke:#000000;stroke-width:0.8;" x="115.2" xlink:href="#m4bbdb57c0f" y="404.331064"/>
      </g>
     </g>
     <g id="text_8">
      <!-- $\mathdefault{10^{3}}$ -->
      <g transform="translate(90.6 408.130283)scale(0.1 -0.1)">
       <use transform="translate(0 0.765625)" xlink:href="#DejaVuSans-49"/>
       <use transform="translate(63.623047 0.765625)" xlink:href="#DejaVuSans-48"/>
       <use transform="translate(128.203125 39.046875)scale(0.7)" xlink:href="#DejaVuSans-51"/>
      </g>
     </g>
    </g>
    <g id="ytick_2">
     <g id="line2d_52">
      <g>
       <use style="stroke:#000000;stroke-width:0.8;" x="115.2" xlink:href="#m4bbdb57c0f" y="312.87242"/>
      </g>
     </g>
     <g id="text_9">
      <!-- $\mathdefault{10^{5}}$ -->
      <g transform="translate(90.6 316.671638)scale(0.1 -0.1)">
       <use transform="translate(0 0.684375)" xlink:href="#DejaVuSans-49"/>
       <use transform="translate(63.623047 0.684375)" xlink:href="#DejaVuSans-48"/>
       <use transform="translate(128.203125 38.965625)scale(0.7)" xlink:href="#DejaVuSans-53"/>
      </g>
     </g>
    </g>
    <g id="ytick_3">
     <g id="line2d_53">
      <g>
       <use style="stroke:#000000;stroke-width:0.8;" x="115.2" xlink:href="#m4bbdb57c0f" y="221.413775"/>
      </g>
     </g>
     <g id="text_10">
      <!-- $\mathdefault{10^{7}}$ -->
      <defs>
       <path d="M 8.203125 72.90625 
L 55.078125 72.90625 
L 55.078125 68.703125 
L 28.609375 0 
L 18.3125 0 
L 43.21875 64.59375 
L 8.203125 64.59375 
z
" id="DejaVuSans-55"/>
      </defs>
      <g transform="translate(90.6 225.212994)scale(0.1 -0.1)">
       <use transform="translate(0 0.684375)" xlink:href="#DejaVuSans-49"/>
       <use transform="translate(63.623047 0.684375)" xlink:href="#DejaVuSans-48"/>
       <use transform="translate(128.203125 38.965625)scale(0.7)" xlink:href="#DejaVuSans-55"/>
      </g>
     </g>
    </g>
    <g id="ytick_4">
     <g id="line2d_54">
      <g>
       <use style="stroke:#000000;stroke-width:0.8;" x="115.2" xlink:href="#m4bbdb57c0f" y="129.955131"/>
      </g>
     </g>
     <g id="text_11">
      <!-- $\mathdefault{10^{9}}$ -->
      <defs>
       <path d="M 10.984375 1.515625 
L 10.984375 10.5 
Q 14.703125 8.734375 18.5 7.8125 
Q 22.3125 6.890625 25.984375 6.890625 
Q 35.75 6.890625 40.890625 13.453125 
Q 46.046875 20.015625 46.78125 33.40625 
Q 43.953125 29.203125 39.59375 26.953125 
Q 35.25 24.703125 29.984375 24.703125 
Q 19.046875 24.703125 12.671875 31.3125 
Q 6.296875 37.9375 6.296875 49.421875 
Q 6.296875 60.640625 12.9375 67.421875 
Q 19.578125 74.21875 30.609375 74.21875 
Q 43.265625 74.21875 49.921875 64.515625 
Q 56.59375 54.828125 56.59375 36.375 
Q 56.59375 19.140625 48.40625 8.859375 
Q 40.234375 -1.421875 26.421875 -1.421875 
Q 22.703125 -1.421875 18.890625 -0.6875 
Q 15.09375 0.046875 10.984375 1.515625 
z
M 30.609375 32.421875 
Q 37.25 32.421875 41.125 36.953125 
Q 45.015625 41.5 45.015625 49.421875 
Q 45.015625 57.28125 41.125 61.84375 
Q 37.25 66.40625 30.609375 66.40625 
Q 23.96875 66.40625 20.09375 61.84375 
Q 16.21875 57.28125 16.21875 49.421875 
Q 16.21875 41.5 20.09375 36.953125 
Q 23.96875 32.421875 30.609375 32.421875 
z
" id="DejaVuSans-57"/>
      </defs>
      <g transform="translate(90.6 133.75435)scale(0.1 -0.1)">
       <use transform="translate(0 0.765625)" xlink:href="#DejaVuSans-49"/>
       <use transform="translate(63.623047 0.765625)" xlink:href="#DejaVuSans-48"/>
       <use transform="translate(128.203125 39.046875)scale(0.7)" xlink:href="#DejaVuSans-57"/>
      </g>
     </g>
    </g>
    <g id="text_12">
     <!-- CPU time (nanoseconds) -->
     <defs>
      <path d="M 64.40625 67.28125 
L 64.40625 56.890625 
Q 59.421875 61.53125 53.78125 63.8125 
Q 48.140625 66.109375 41.796875 66.109375 
Q 29.296875 66.109375 22.65625 58.46875 
Q 16.015625 50.828125 16.015625 36.375 
Q 16.015625 21.96875 22.65625 14.328125 
Q 29.296875 6.6875 41.796875 6.6875 
Q 48.140625 6.6875 53.78125 8.984375 
Q 59.421875 11.28125 64.40625 15.921875 
L 64.40625 5.609375 
Q 59.234375 2.09375 53.4375 0.328125 
Q 47.65625 -1.421875 41.21875 -1.421875 
Q 24.65625 -1.421875 15.125 8.703125 
Q 5.609375 18.84375 5.609375 36.375 
Q 5.609375 53.953125 15.125 64.078125 
Q 24.65625 74.21875 41.21875 74.21875 
Q 47.75 74.21875 53.53125 72.484375 
Q 59.328125 70.75 64.40625 67.28125 
z
" id="DejaVuSans-67"/>
      <path d="M 19.671875 64.796875 
L 19.671875 37.40625 
L 32.078125 37.40625 
Q 38.96875 37.40625 42.71875 40.96875 
Q 46.484375 44.53125 46.484375 51.125 
Q 46.484375 57.671875 42.71875 61.234375 
Q 38.96875 64.796875 32.078125 64.796875 
z
M 9.8125 72.90625 
L 32.078125 72.90625 
Q 44.34375 72.90625 50.609375 67.359375 
Q 56.890625 61.8125 56.890625 51.125 
Q 56.890625 40.328125 50.609375 34.8125 
Q 44.34375 29.296875 32.078125 29.296875 
L 19.671875 29.296875 
L 19.671875 0 
L 9.8125 0 
z
" id="DejaVuSans-80"/>
      <path d="M 8.6875 72.90625 
L 18.609375 72.90625 
L 18.609375 28.609375 
Q 18.609375 16.890625 22.84375 11.734375 
Q 27.09375 6.59375 36.625 6.59375 
Q 46.09375 6.59375 50.34375 11.734375 
Q 54.59375 16.890625 54.59375 28.609375 
L 54.59375 72.90625 
L 64.5 72.90625 
L 64.5 27.390625 
Q 64.5 13.140625 57.4375 5.859375 
Q 50.390625 -1.421875 36.625 -1.421875 
Q 22.796875 -1.421875 15.734375 5.859375 
Q 8.6875 13.140625 8.6875 27.390625 
z
" id="DejaVuSans-85"/>
      <path d="M 31 75.875 
Q 24.46875 64.65625 21.28125 53.65625 
Q 18.109375 42.671875 18.109375 31.390625 
Q 18.109375 20.125 21.3125 9.0625 
Q 24.515625 -2 31 -13.1875 
L 23.1875 -13.1875 
Q 15.875 -1.703125 12.234375 9.375 
Q 8.59375 20.453125 8.59375 31.390625 
Q 8.59375 42.28125 12.203125 53.3125 
Q 15.828125 64.359375 23.1875 75.875 
z
" id="DejaVuSans-40"/>
      <path d="M 48.78125 52.59375 
L 48.78125 44.1875 
Q 44.96875 46.296875 41.140625 47.34375 
Q 37.3125 48.390625 33.40625 48.390625 
Q 24.65625 48.390625 19.8125 42.84375 
Q 14.984375 37.3125 14.984375 27.296875 
Q 14.984375 17.28125 19.8125 11.734375 
Q 24.65625 6.203125 33.40625 6.203125 
Q 37.3125 6.203125 41.140625 7.25 
Q 44.96875 8.296875 48.78125 10.40625 
L 48.78125 2.09375 
Q 45.015625 0.34375 40.984375 -0.53125 
Q 36.96875 -1.421875 32.421875 -1.421875 
Q 20.0625 -1.421875 12.78125 6.34375 
Q 5.515625 14.109375 5.515625 27.296875 
Q 5.515625 40.671875 12.859375 48.328125 
Q 20.21875 56 33.015625 56 
Q 37.15625 56 41.109375 55.140625 
Q 45.0625 54.296875 48.78125 52.59375 
z
" id="DejaVuSans-99"/>
      <path d="M 45.40625 46.390625 
L 45.40625 75.984375 
L 54.390625 75.984375 
L 54.390625 0 
L 45.40625 0 
L 45.40625 8.203125 
Q 42.578125 3.328125 38.25 0.953125 
Q 33.9375 -1.421875 27.875 -1.421875 
Q 17.96875 -1.421875 11.734375 6.484375 
Q 5.515625 14.40625 5.515625 27.296875 
Q 5.515625 40.1875 11.734375 48.09375 
Q 17.96875 56 27.875 56 
Q 33.9375 56 38.25 53.625 
Q 42.578125 51.265625 45.40625 46.390625 
z
M 14.796875 27.296875 
Q 14.796875 17.390625 18.875 11.75 
Q 22.953125 6.109375 30.078125 6.109375 
Q 37.203125 6.109375 41.296875 11.75 
Q 45.40625 17.390625 45.40625 27.296875 
Q 45.40625 37.203125 41.296875 42.84375 
Q 37.203125 48.484375 30.078125 48.484375 
Q 22.953125 48.484375 18.875 42.84375 
Q 14.796875 37.203125 14.796875 27.296875 
z
" id="DejaVuSans-100"/>
      <path d="M 8.015625 75.875 
L 15.828125 75.875 
Q 23.140625 64.359375 26.78125 53.3125 
Q 30.421875 42.28125 30.421875 31.390625 
Q 30.421875 20.453125 26.78125 9.375 
Q 23.140625 -1.703125 15.828125 -13.1875 
L 8.015625 -13.1875 
Q 14.5 -2 17.703125 9.0625 
Q 20.90625 20.125 20.90625 31.390625 
Q 20.90625 42.671875 17.703125 53.65625 
Q 14.5 64.65625 8.015625 75.875 
z
" id="DejaVuSans-41"/>
     </defs>
     <g transform="translate(84.520312 322.868244)rotate(-90)scale(0.1 -0.1)">
      <use xlink:href="#DejaVuSans-67"/>
      <use x="69.824219" xlink:href="#DejaVuSans-80"/>
      <use x="130.126953" xlink:href="#DejaVuSans-85"/>
      <use x="203.320312" xlink:href="#DejaVuSans-32"/>
      <use x="235.107422" xlink:href="#DejaVuSans-116"/>
      <use x="274.316406" xlink:href="#DejaVuSans-105"/>
      <use x="302.099609" xlink:href="#DejaVuSans-109"/>
      <use x="399.511719" xlink:href="#DejaVuSans-101"/>
      <use x="461.035156" xlink:href="#DejaVuSans-32"/>
      <use x="492.822266" xlink:href="#DejaVuSans-40"/>
      <use x="531.835938" xlink:href="#DejaVuSans-110"/>
      <use x="595.214844" xlink:href="#DejaVuSans-97"/>
      <use x="656.494141" xlink:href="#DejaVuSans-110"/>
      <use x="719.873047" xlink:href="#DejaVuSans-111"/>
      <use x="781.054688" xlink:href="#DejaVuSans-115"/>
      <use x="833.154297" xlink:href="#DejaVuSans-101"/>
      <use x="894.677734" xlink:href="#DejaVuSans-99"/>
      <use x="949.658203" xlink:href="#DejaVuSans-111"/>
      <use x="1010.839844" xlink:href="#DejaVuSans-110"/>
      <use x="1074.21875" xlink:href="#DejaVuSans-100"/>
      <use x="1137.695312" xlink:href="#DejaVuSans-115"/>
      <use x="1189.794922" xlink:href="#DejaVuSans-41"/>
     </g>
    </g>
   </g>
   <g id="line2d_55">
    <path clip-path="url(#p5c9640cbac)" d="M 147.665455 441.88848 
L 188.247273 433.114801 
L 211.986115 424.125847 
L 228.829091 419.318387 
L 241.893518 415.087075 
L 252.567933 411.905146 
L 261.593022 408.943369 
L 269.410909 406.263807 
L 276.306775 403.221024 
L 282.475337 401.643304 
L 288.05548 400.790008 
L 306.214178 394.38344 
L 320.054077 390.795212 
L 331.239823 387.140157 
L 340.627435 383.212475 
L 348.715748 380.952419 
L 355.821085 378.843999 
L 362.156686 376.279086 
L 367.873144 374.524536 
L 373.080769 372.958962 
L 377.862788 371.839985 
L 382.283543 370.547457 
L 386.393805 369.043702 
L 390.234342 367.778336 
L 391.156364 367.523141 
L 431.738182 352.714461 
L 472.32 335.131684 
L 512.901818 315.295694 
L 553.483636 294.459628 
L 594.065455 235.658768 
L 634.647273 206.138423 
L 646.323164 201.766976 
L 675.229091 175.606924 
L 715.810909 144.456428 
L 756.392727 117.123432 
L 796.974545 83.222059 
" style="fill:none;stroke:#000000;stroke-linecap:square;"/>
    <defs>
     <path d="M 0 2.5 
C 0.663008 2.5 1.29895 2.236584 1.767767 1.767767 
C 2.236584 1.29895 2.5 0.663008 2.5 0 
C 2.5 -0.663008 2.236584 -1.29895 1.767767 -1.767767 
C 1.29895 -2.236584 0.663008 -2.5 0 -2.5 
C -0.663008 -2.5 -1.29895 -2.236584 -1.767767 -1.767767 
C -2.236584 -1.29895 -2.5 -0.663008 -2.5 0 
C -2.5 0.663008 -2.236584 1.29895 -1.767767 1.767767 
C -1.29895 2.236584 -0.663008 2.5 0 2.5 
z
" id="m92f26531ce" style="stroke:#000000;"/>
    </defs>
    <g clip-path="url(#p5c9640cbac)">
     <use style="stroke:#000000;" x="147.665455" xlink:href="#m92f26531ce" y="441.88848"/>
     <use style="stroke:#000000;" x="188.247273" xlink:href="#m92f26531ce" y="433.114801"/>
     <use style="stroke:#000000;" x="211.986115" xlink:href="#m92f26531ce" y="424.125847"/>
     <use style="stroke:#000000;" x="228.829091" xlink:href="#m92f26531ce" y="419.318387"/>
     <use style="stroke:#000000;" x="241.893518" xlink:href="#m92f26531ce" y="415.087075"/>
     <use style="stroke:#000000;" x="252.567933" xlink:href="#m92f26531ce" y="411.905146"/>
     <use style="stroke:#000000;" x="261.593022" xlink:href="#m92f26531ce" y="408.943369"/>
     <use style="stroke:#000000;" x="269.410909" xlink:href="#m92f26531ce" y="406.263807"/>
     <use style="stroke:#000000;" x="276.306775" xlink:href="#m92f26531ce" y="403.221024"/>
     <use style="stroke:#000000;" x="282.475337" xlink:href="#m92f26531ce" y="401.643304"/>
     <use style="stroke:#000000;" x="288.05548" xlink:href="#m92f26531ce" y="400.790008"/>
     <use style="stroke:#000000;" x="306.214178" xlink:href="#m92f26531ce" y="394.38344"/>
     <use style="stroke:#000000;" x="320.054077" xlink:href="#m92f26531ce" y="390.795212"/>
     <use style="stroke:#000000;" x="331.239823" xlink:href="#m92f26531ce" y="387.140157"/>
     <use style="stroke:#000000;" x="340.627435" xlink:href="#m92f26531ce" y="383.212475"/>
     <use style="stroke:#000000;" x="348.715748" xlink:href="#m92f26531ce" y="380.952419"/>
     <use style="stroke:#000000;" x="355.821085" xlink:href="#m92f26531ce" y="378.843999"/>
     <use style="stroke:#000000;" x="362.156686" xlink:href="#m92f26531ce" y="376.279086"/>
     <use style="stroke:#000000;" x="367.873144" xlink:href="#m92f26531ce" y="374.524536"/>
     <use style="stroke:#000000;" x="373.080769" xlink:href="#m92f26531ce" y="372.958962"/>
     <use style="stroke:#000000;" x="377.862788" xlink:href="#m92f26531ce" y="371.839985"/>
     <use style="stroke:#000000;" x="382.283543" xlink:href="#m92f26531ce" y="370.547457"/>
     <use style="stroke:#000000;" x="386.393805" xlink:href="#m92f26531ce" y="369.043702"/>
     <use style="stroke:#000000;" x="390.234342" xlink:href="#m92f26531ce" y="367.778336"/>
     <use style="stroke:#000000;" x="391.156364" xlink:href="#m92f26531ce" y="367.523141"/>
     <use style="stroke:#000000;" x="431.738182" xlink:href="#m92f26531ce" y="352.714461"/>
     <use style="stroke:#000000;" x="472.32" xlink:href="#m92f26531ce" y="335.131684"/>
     <use style="stroke:#000000;" x="512.901818" xlink:href="#m92f26531ce" y="315.295694"/>
     <use style="stroke:#000000;" x="553.483636" xlink:href="#m92f26531ce" y="294.459628"/>
     <use style="stroke:#000000;" x="594.065455" xlink:href="#m92f26531ce" y="235.658768"/>
     <use style="stroke:#000000;" x="634.647273" xlink:href="#m92f26531ce" y="206.138423"/>
     <use style="stroke:#000000;" x="646.323164" xlink:href="#m92f26531ce" y="201.766976"/>
     <use style="stroke:#000000;" x="675.229091" xlink:href="#m92f26531ce" y="175.606924"/>
     <use style="stroke:#000000;" x="715.810909" xlink:href="#m92f26531ce" y="144.456428"/>
     <use style="stroke:#000000;" x="756.392727" xlink:href="#m92f26531ce" y="117.123432"/>
     <use style="stroke:#000000;" x="796.974545" xlink:href="#m92f26531ce" y="83.222059"/>
    </g>
   </g>
   <g id="line2d_56">
    <path clip-path="url(#p5c9640cbac)" d="M 147.665455 355.812246 
L 188.247273 346.051073 
L 211.986115 336.878661 
L 228.829091 331.904679 
L 241.893518 327.852476 
L 252.567933 324.375078 
L 261.593022 321.501433 
L 269.410909 318.972636 
L 276.306775 316.915338 
L 282.475337 314.870349 
L 288.05548 312.700169 
L 306.214178 306.597116 
L 320.054077 301.824138 
L 331.239823 297.716797 
L 340.627435 294.687587 
L 348.715748 292.17659 
L 355.821085 290.044471 
L 362.156686 288.21992 
L 367.873144 285.613606 
L 373.080769 283.102591 
L 377.862788 280.793264 
L 382.283543 281.137507 
L 386.393805 280.382295 
L 390.234342 279.081877 
L 391.156364 278.718963 
L 431.738182 265.678248 
L 472.32 250.716744 
L 512.901818 237.050545 
L 553.483636 221.725646 
L 594.065455 207.746714 
L 634.647273 190.906273 
L 646.323164 183.765059 
L 675.229091 169.990602 
L 715.810909 151.781479 
L 756.392727 132.689648 
L 796.974545 108.596084 
" style="fill:none;stroke:#0652ff;stroke-linecap:square;"/>
    <defs>
     <path d="M -2.5 0 
L 2.5 0 
M 0 2.5 
L 0 -2.5 
" id="me8bf655f15" style="stroke:#0652ff;"/>
    </defs>
    <g clip-path="url(#p5c9640cbac)">
     <use style="fill:#0652ff;stroke:#0652ff;" x="147.665455" xlink:href="#me8bf655f15" y="355.812246"/>
     <use style="fill:#0652ff;stroke:#0652ff;" x="188.247273" xlink:href="#me8bf655f15" y="346.051073"/>
     <use style="fill:#0652ff;stroke:#0652ff;" x="211.986115" xlink:href="#me8bf655f15" y="336.878661"/>
     <use style="fill:#0652ff;stroke:#0652ff;" x="228.829091" xlink:href="#me8bf655f15" y="331.904679"/>
     <use style="fill:#0652ff;stroke:#0652ff;" x="241.893518" xlink:href="#me8bf655f15" y="327.852476"/>
     <use style="fill:#0652ff;stroke:#0652ff;" x="252.567933" xlink:href="#me8bf655f15" y="324.375078"/>
     <use style="fill:#0652ff;stroke:#0652ff;" x="261.593022" xlink:href="#me8bf655f15" y="321.501433"/>
     <use style="fill:#0652ff;stroke:#0652ff;" x="269.410909" xlink:href="#me8bf655f15" y="318.972636"/>
     <use style="fill:#0652ff;stroke:#0652ff;" x="276.306775" xlink:href="#me8bf655f15" y="316.915338"/>
     <use style="fill:#0652ff;stroke:#0652ff;" x="282.475337" xlink:href="#me8bf655f15" y="314.870349"/>
     <use style="fill:#0652ff;stroke:#0652ff;" x="288.05548" xlink:href="#me8bf655f15" y="312.700169"/>
     <use style="fill:#0652ff;stroke:#0652ff;" x="306.214178" xlink:href="#me8bf655f15" y="306.597116"/>
     <use style="fill:#0652ff;stroke:#0652ff;" x="320.054077" xlink:href="#me8bf655f15" y="301.824138"/>
     <use style="fill:#0652ff;stroke:#0652ff;" x="331.239823" xlink:href="#me8bf655f15" y="297.716797"/>
     <use style="fill:#0652ff;stroke:#0652ff;" x="340.627435" xlink:href="#me8bf655f15" y="294.687587"/>
     <use style="fill:#0652ff;stroke:#0652ff;" x="348.715748" xlink:href="#me8bf655f15" y="292.17659"/>
     <use style="fill:#0652ff;stroke:#0652ff;" x="355.821085" xlink:href="#me8bf655f15" y="290.044471"/>
     <use style="fill:#0652ff;stroke:#0652ff;" x="362.156686" xlink:href="#me8bf655f15" y="288.21992"/>
     <use style="fill:#0652ff;stroke:#0652ff;" x="367.873144" xlink:href="#me8bf655f15" y="285.613606"/>
     <use style="fill:#0652ff;stroke:#0652ff;" x="373.080769" xlink:href="#me8bf655f15" y="283.102591"/>
     <use style="fill:#0652ff;stroke:#0652ff;" x="377.862788" xlink:href="#me8bf655f15" y="280.793264"/>
     <use style="fill:#0652ff;stroke:#0652ff;" x="382.283543" xlink:href="#me8bf655f15" y="281.137507"/>
     <use style="fill:#0652ff;stroke:#0652ff;" x="386.393805" xlink:href="#me8bf655f15" y="280.382295"/>
     <use style="fill:#0652ff;stroke:#0652ff;" x="390.234342" xlink:href="#me8bf655f15" y="279.081877"/>
     <use style="fill:#0652ff;stroke:#0652ff;" x="391.156364" xlink:href="#me8bf655f15" y="278.718963"/>
     <use style="fill:#0652ff;stroke:#0652ff;" x="431.738182" xlink:href="#me8bf655f15" y="265.678248"/>
     <use style="fill:#0652ff;stroke:#0652ff;" x="472.32" xlink:href="#me8bf655f15" y="250.716744"/>
     <use style="fill:#0652ff;stroke:#0652ff;" x="512.901818" xlink:href="#me8bf655f15" y="237.050545"/>
     <use style="fill:#0652ff;stroke:#0652ff;" x="553.483636" xlink:href="#me8bf655f15" y="221.725646"/>
     <use style="fill:#0652ff;stroke:#0652ff;" x="594.065455" xlink:href="#me8bf655f15" y="207.746714"/>
     <use style="fill:#0652ff;stroke:#0652ff;" x="634.647273" xlink:href="#me8bf655f15" y="190.906273"/>
     <use style="fill:#0652ff;stroke:#0652ff;" x="646.323164" xlink:href="#me8bf655f15" y="183.765059"/>
     <use style="fill:#0652ff;stroke:#0652ff;" x="675.229091" xlink:href="#me8bf655f15" y="169.990602"/>
     <use style="fill:#0652ff;stroke:#0652ff;" x="715.810909" xlink:href="#me8bf655f15" y="151.781479"/>
     <use style="fill:#0652ff;stroke:#0652ff;" x="756.392727" xlink:href="#me8bf655f15" y="132.689648"/>
     <use style="fill:#0652ff;stroke:#0652ff;" x="796.974545" xlink:href="#me8bf655f15" y="108.596084"/>
    </g>
   </g>
   <g id="line2d_57">
    <path clip-path="url(#p5c9640cbac)" d="M 147.665455 433.337972 
L 188.247273 408.716012 
L 211.986115 399.075983 
L 228.829091 393.082911 
L 241.893518 387.182465 
L 252.567933 381.862521 
L 261.593022 377.917766 
L 269.410909 375.173121 
L 276.306775 372.600928 
L 282.475337 376.439106 
L 288.05548 371.034224 
L 306.214178 370.397624 
L 320.054077 367.40821 
L 331.239823 364.182671 
L 340.627435 362.591535 
L 348.715748 359.103184 
L 355.821085 357.112511 
L 362.156686 357.900598 
L 367.873144 354.856262 
L 373.080769 355.116774 
L 377.862788 354.537664 
L 382.283543 353.640476 
L 386.393805 352.482712 
L 390.234342 351.443543 
L 391.156364 351.137105 
L 431.738182 338.62248 
L 472.32 322.198086 
L 512.901818 304.634171 
L 553.483636 280.537729 
L 594.065455 256.602721 
L 634.647273 216.553796 
L 646.323164 209.49878 
L 675.229091 183.103083 
L 715.810909 154.52014 
L 756.392727 125.832129 
L 796.974545 94.738014 
" style="fill:none;stroke:#0cff0c;stroke-linecap:square;"/>
    <defs>
     <path d="M -2.5 2.5 
L 2.5 -2.5 
M -2.5 -2.5 
L 2.5 2.5 
" id="m2510173ca9" style="stroke:#0cff0c;"/>
    </defs>
    <g clip-path="url(#p5c9640cbac)">
     <use style="fill:#0cff0c;stroke:#0cff0c;" x="147.665455" xlink:href="#m2510173ca9" y="433.337972"/>
     <use style="fill:#0cff0c;stroke:#0cff0c;" x="188.247273" xlink:href="#m2510173ca9" y="408.716012"/>
     <use style="fill:#0cff0c;stroke:#0cff0c;" x="211.986115" xlink:href="#m2510173ca9" y="399.075983"/>
     <use style="fill:#0cff0c;stroke:#0cff0c;" x="228.829091" xlink:href="#m2510173ca9" y="393.082911"/>
     <use style="fill:#0cff0c;stroke:#0cff0c;" x="241.893518" xlink:href="#m2510173ca9" y="387.182465"/>
     <use style="fill:#0cff0c;stroke:#0cff0c;" x="252.567933" xlink:href="#m2510173ca9" y="381.862521"/>
     <use style="fill:#0cff0c;stroke:#0cff0c;" x="261.593022" xlink:href="#m2510173ca9" y="377.917766"/>
     <use style="fill:#0cff0c;stroke:#0cff0c;" x="269.410909" xlink:href="#m2510173ca9" y="375.173121"/>
     <use style="fill:#0cff0c;stroke:#0cff0c;" x="276.306775" xlink:href="#m2510173ca9" y="372.600928"/>
     <use style="fill:#0cff0c;stroke:#0cff0c;" x="282.475337" xlink:href="#m2510173ca9" y="376.439106"/>
     <use style="fill:#0cff0c;stroke:#0cff0c;" x="288.05548" xlink:href="#m2510173ca9" y="371.034224"/>
     <use style="fill:#0cff0c;stroke:#0cff0c;" x="306.214178" xlink:href="#m2510173ca9" y="370.397624"/>
     <use style="fill:#0cff0c;stroke:#0cff0c;" x="320.054077" xlink:href="#m2510173ca9" y="367.40821"/>
     <use style="fill:#0cff0c;stroke:#0cff0c;" x="331.239823" xlink:href="#m2510173ca9" y="364.182671"/>
     <use style="fill:#0cff0c;stroke:#0cff0c;" x="340.627435" xlink:href="#m2510173ca9" y="362.591535"/>
     <use style="fill:#0cff0c;stroke:#0cff0c;" x="348.715748" xlink:href="#m2510173ca9" y="359.103184"/>
     <use style="fill:#0cff0c;stroke:#0cff0c;" x="355.821085" xlink:href="#m2510173ca9" y="357.112511"/>
     <use style="fill:#0cff0c;stroke:#0cff0c;" x="362.156686" xlink:href="#m2510173ca9" y="357.900598"/>
     <use style="fill:#0cff0c;stroke:#0cff0c;" x="367.873144" xlink:href="#m2510173ca9" y="354.856262"/>
     <use style="fill:#0cff0c;stroke:#0cff0c;" x="373.080769" xlink:href="#m2510173ca9" y="355.116774"/>
     <use style="fill:#0cff0c;stroke:#0cff0c;" x="377.862788" xlink:href="#m2510173ca9" y="354.537664"/>
     <use style="fill:#0cff0c;stroke:#0cff0c;" x="382.283543" xlink:href="#m2510173ca9" y="353.640476"/>
     <use style="fill:#0cff0c;stroke:#0cff0c;" x="386.393805" xlink:href="#m2510173ca9" y="352.482712"/>
     <use style="fill:#0cff0c;stroke:#0cff0c;" x="390.234342" xlink:href="#m2510173ca9" y="351.443543"/>
     <use style="fill:#0cff0c;stroke:#0cff0c;" x="391.156364" xlink:href="#m2510173ca9" y="351.137105"/>
     <use style="fill:#0cff0c;stroke:#0cff0c;" x="431.738182" xlink:href="#m2510173ca9" y="338.62248"/>
     <use style="fill:#0cff0c;stroke:#0cff0c;" x="472.32" xlink:href="#m2510173ca9" y="322.198086"/>
     <use style="fill:#0cff0c;stroke:#0cff0c;" x="512.901818" xlink:href="#m2510173ca9" y="304.634171"/>
     <use style="fill:#0cff0c;stroke:#0cff0c;" x="553.483636" xlink:href="#m2510173ca9" y="280.537729"/>
     <use style="fill:#0cff0c;stroke:#0cff0c;" x="594.065455" xlink:href="#m2510173ca9" y="256.602721"/>
     <use style="fill:#0cff0c;stroke:#0cff0c;" x="634.647273" xlink:href="#m2510173ca9" y="216.553796"/>
     <use style="fill:#0cff0c;stroke:#0cff0c;" x="646.323164" xlink:href="#m2510173ca9" y="209.49878"/>
     <use style="fill:#0cff0c;stroke:#0cff0c;" x="675.229091" xlink:href="#m2510173ca9" y="183.103083"/>
     <use style="fill:#0cff0c;stroke:#0cff0c;" x="715.810909" xlink:href="#m2510173ca9" y="154.52014"/>
     <use style="fill:#0cff0c;stroke:#0cff0c;" x="756.392727" xlink:href="#m2510173ca9" y="125.832129"/>
     <use style="fill:#0cff0c;stroke:#0cff0c;" x="796.974545" xlink:href="#m2510173ca9" y="94.738014"/>
    </g>
   </g>
   <g id="line2d_58">
    <path clip-path="url(#p5c9640cbac)" d="M 147.665455 442.6164 
L 188.247273 417.879415 
L 211.986115 409.753696 
L 228.829091 402.141492 
L 241.893518 395.943024 
L 252.567933 392.295603 
L 261.593022 388.148707 
L 269.410909 385.970973 
L 276.306775 383.219284 
L 282.475337 383.315608 
L 288.05548 380.314403 
L 306.214178 372.25471 
L 320.054077 368.504451 
L 331.239823 366.073897 
L 340.627435 364.358531 
L 348.715748 363.655424 
L 355.821085 361.799111 
L 362.156686 361.703463 
L 367.873144 362.178699 
L 373.080769 362.788436 
L 377.862788 362.172764 
L 382.283543 361.839583 
L 386.393805 361.076674 
L 390.234342 361.072098 
L 391.156364 361.101213 
L 431.738182 348.596091 
L 472.32 331.198599 
L 512.901818 307.60211 
L 553.483636 282.821312 
L 594.065455 255.950644 
L 634.647273 227.277488 
L 646.323164 219.248055 
L 675.229091 193.036552 
L 715.810909 158.776176 
L 756.392727 128.509627 
L 796.974545 80.2404 
" style="fill:none;stroke:#e50000;stroke-linecap:square;"/>
    <defs>
     <path d="M -0 2.5 
L 2.5 -2.5 
L -2.5 -2.5 
z
" id="mdb62ec811d" style="stroke:#e50000;stroke-linejoin:miter;"/>
    </defs>
    <g clip-path="url(#p5c9640cbac)">
     <use style="fill:#e50000;stroke:#e50000;stroke-linejoin:miter;" x="147.665455" xlink:href="#mdb62ec811d" y="442.6164"/>
     <use style="fill:#e50000;stroke:#e50000;stroke-linejoin:miter;" x="188.247273" xlink:href="#mdb62ec811d" y="417.879415"/>
     <use style="fill:#e50000;stroke:#e50000;stroke-linejoin:miter;" x="211.986115" xlink:href="#mdb62ec811d" y="409.753696"/>
     <use style="fill:#e50000;stroke:#e50000;stroke-linejoin:miter;" x="228.829091" xlink:href="#mdb62ec811d" y="402.141492"/>
     <use style="fill:#e50000;stroke:#e50000;stroke-linejoin:miter;" x="241.893518" xlink:href="#mdb62ec811d" y="395.943024"/>
     <use style="fill:#e50000;stroke:#e50000;stroke-linejoin:miter;" x="252.567933" xlink:href="#mdb62ec811d" y="392.295603"/>
     <use style="fill:#e50000;stroke:#e50000;stroke-linejoin:miter;" x="261.593022" xlink:href="#mdb62ec811d" y="388.148707"/>
     <use style="fill:#e50000;stroke:#e50000;stroke-linejoin:miter;" x="269.410909" xlink:href="#mdb62ec811d" y="385.970973"/>
     <use style="fill:#e50000;stroke:#e50000;stroke-linejoin:miter;" x="276.306775" xlink:href="#mdb62ec811d" y="383.219284"/>
     <use style="fill:#e50000;stroke:#e50000;stroke-linejoin:miter;" x="282.475337" xlink:href="#mdb62ec811d" y="383.315608"/>
     <use style="fill:#e50000;stroke:#e50000;stroke-linejoin:miter;" x="288.05548" xlink:href="#mdb62ec811d" y="380.314403"/>
     <use style="fill:#e50000;stroke:#e50000;stroke-linejoin:miter;" x="306.214178" xlink:href="#mdb62ec811d" y="372.25471"/>
     <use style="fill:#e50000;stroke:#e50000;stroke-linejoin:miter;" x="320.054077" xlink:href="#mdb62ec811d" y="368.504451"/>
     <use style="fill:#e50000;stroke:#e50000;stroke-linejoin:miter;" x="331.239823" xlink:href="#mdb62ec811d" y="366.073897"/>
     <use style="fill:#e50000;stroke:#e50000;stroke-linejoin:miter;" x="340.627435" xlink:href="#mdb62ec811d" y="364.358531"/>
     <use style="fill:#e50000;stroke:#e50000;stroke-linejoin:miter;" x="348.715748" xlink:href="#mdb62ec811d" y="363.655424"/>
     <use style="fill:#e50000;stroke:#e50000;stroke-linejoin:miter;" x="355.821085" xlink:href="#mdb62ec811d" y="361.799111"/>
     <use style="fill:#e50000;stroke:#e50000;stroke-linejoin:miter;" x="362.156686" xlink:href="#mdb62ec811d" y="361.703463"/>
     <use style="fill:#e50000;stroke:#e50000;stroke-linejoin:miter;" x="367.873144" xlink:href="#mdb62ec811d" y="362.178699"/>
     <use style="fill:#e50000;stroke:#e50000;stroke-linejoin:miter;" x="373.080769" xlink:href="#mdb62ec811d" y="362.788436"/>
     <use style="fill:#e50000;stroke:#e50000;stroke-linejoin:miter;" x="377.862788" xlink:href="#mdb62ec811d" y="362.172764"/>
     <use style="fill:#e50000;stroke:#e50000;stroke-linejoin:miter;" x="382.283543" xlink:href="#mdb62ec811d" y="361.839583"/>
     <use style="fill:#e50000;stroke:#e50000;stroke-linejoin:miter;" x="386.393805" xlink:href="#mdb62ec811d" y="361.076674"/>
     <use style="fill:#e50000;stroke:#e50000;stroke-linejoin:miter;" x="390.234342" xlink:href="#mdb62ec811d" y="361.072098"/>
     <use style="fill:#e50000;stroke:#e50000;stroke-linejoin:miter;" x="391.156364" xlink:href="#mdb62ec811d" y="361.101213"/>
     <use style="fill:#e50000;stroke:#e50000;stroke-linejoin:miter;" x="431.738182" xlink:href="#mdb62ec811d" y="348.596091"/>
     <use style="fill:#e50000;stroke:#e50000;stroke-linejoin:miter;" x="472.32" xlink:href="#mdb62ec811d" y="331.198599"/>
     <use style="fill:#e50000;stroke:#e50000;stroke-linejoin:miter;" x="512.901818" xlink:href="#mdb62ec811d" y="307.60211"/>
     <use style="fill:#e50000;stroke:#e50000;stroke-linejoin:miter;" x="553.483636" xlink:href="#mdb62ec811d" y="282.821312"/>
     <use style="fill:#e50000;stroke:#e50000;stroke-linejoin:miter;" x="594.065455" xlink:href="#mdb62ec811d" y="255.950644"/>
     <use style="fill:#e50000;stroke:#e50000;stroke-linejoin:miter;" x="634.647273" xlink:href="#mdb62ec811d" y="227.277488"/>
     <use style="fill:#e50000;stroke:#e50000;stroke-linejoin:miter;" x="646.323164" xlink:href="#mdb62ec811d" y="219.248055"/>
     <use style="fill:#e50000;stroke:#e50000;stroke-linejoin:miter;" x="675.229091" xlink:href="#mdb62ec811d" y="193.036552"/>
     <use style="fill:#e50000;stroke:#e50000;stroke-linejoin:miter;" x="715.810909" xlink:href="#mdb62ec811d" y="158.776176"/>
     <use style="fill:#e50000;stroke:#e50000;stroke-linejoin:miter;" x="756.392727" xlink:href="#mdb62ec811d" y="128.509627"/>
     <use style="fill:#e50000;stroke:#e50000;stroke-linejoin:miter;" x="796.974545" xlink:href="#mdb62ec811d" y="80.2404"/>
    </g>
   </g>
   <g id="line2d_59">
    <path clip-path="url(#p5c9640cbac)" d="M 147.665455 433.683239 
L 188.247273 414.227273 
L 211.986115 407.420686 
L 228.829091 402.820175 
L 241.893518 398.884907 
L 252.567933 395.332565 
L 261.593022 392.375647 
L 269.410909 390.342842 
L 276.306775 391.577479 
L 282.475337 387.808999 
L 288.05548 384.436635 
L 306.214178 379.425715 
L 320.054077 376.692039 
L 331.239823 373.937017 
L 340.627435 372.173952 
L 348.715748 372.114583 
L 355.821085 370.843976 
L 362.156686 370.437269 
L 367.873144 369.217336 
L 373.080769 367.632343 
L 377.862788 366.766277 
L 382.283543 365.711023 
L 386.393805 365.080055 
L 390.234342 364.624966 
L 391.156364 364.397455 
L 431.738182 351.299231 
L 472.32 334.098723 
L 512.901818 311.061164 
L 553.483636 285.116873 
L 594.065455 250.162552 
L 634.647273 221.9534 
L 646.323164 217.514536 
L 675.229091 184.518395 
L 715.810909 159.575679 
L 756.392727 120.929981 
L 796.974545 93.755052 
" style="fill:none;stroke:#75bbfd;stroke-linecap:square;"/>
    <defs>
     <path d="M -2.5 2.5 
L 2.5 2.5 
L 2.5 -2.5 
L -2.5 -2.5 
z
" id="m4f25cfd563" style="stroke:#75bbfd;stroke-linejoin:miter;"/>
    </defs>
    <g clip-path="url(#p5c9640cbac)">
     <use style="fill:#75bbfd;stroke:#75bbfd;stroke-linejoin:miter;" x="147.665455" xlink:href="#m4f25cfd563" y="433.683239"/>
     <use style="fill:#75bbfd;stroke:#75bbfd;stroke-linejoin:miter;" x="188.247273" xlink:href="#m4f25cfd563" y="414.227273"/>
     <use style="fill:#75bbfd;stroke:#75bbfd;stroke-linejoin:miter;" x="211.986115" xlink:href="#m4f25cfd563" y="407.420686"/>
     <use style="fill:#75bbfd;stroke:#75bbfd;stroke-linejoin:miter;" x="228.829091" xlink:href="#m4f25cfd563" y="402.820175"/>
     <use style="fill:#75bbfd;stroke:#75bbfd;stroke-linejoin:miter;" x="241.893518" xlink:href="#m4f25cfd563" y="398.884907"/>
     <use style="fill:#75bbfd;stroke:#75bbfd;stroke-linejoin:miter;" x="252.567933" xlink:href="#m4f25cfd563" y="395.332565"/>
     <use style="fill:#75bbfd;stroke:#75bbfd;stroke-linejoin:miter;" x="261.593022" xlink:href="#m4f25cfd563" y="392.375647"/>
     <use style="fill:#75bbfd;stroke:#75bbfd;stroke-linejoin:miter;" x="269.410909" xlink:href="#m4f25cfd563" y="390.342842"/>
     <use style="fill:#75bbfd;stroke:#75bbfd;stroke-linejoin:miter;" x="276.306775" xlink:href="#m4f25cfd563" y="391.577479"/>
     <use style="fill:#75bbfd;stroke:#75bbfd;stroke-linejoin:miter;" x="282.475337" xlink:href="#m4f25cfd563" y="387.808999"/>
     <use style="fill:#75bbfd;stroke:#75bbfd;stroke-linejoin:miter;" x="288.05548" xlink:href="#m4f25cfd563" y="384.436635"/>
     <use style="fill:#75bbfd;stroke:#75bbfd;stroke-linejoin:miter;" x="306.214178" xlink:href="#m4f25cfd563" y="379.425715"/>
     <use style="fill:#75bbfd;stroke:#75bbfd;stroke-linejoin:miter;" x="320.054077" xlink:href="#m4f25cfd563" y="376.692039"/>
     <use style="fill:#75bbfd;stroke:#75bbfd;stroke-linejoin:miter;" x="331.239823" xlink:href="#m4f25cfd563" y="373.937017"/>
     <use style="fill:#75bbfd;stroke:#75bbfd;stroke-linejoin:miter;" x="340.627435" xlink:href="#m4f25cfd563" y="372.173952"/>
     <use style="fill:#75bbfd;stroke:#75bbfd;stroke-linejoin:miter;" x="348.715748" xlink:href="#m4f25cfd563" y="372.114583"/>
     <use style="fill:#75bbfd;stroke:#75bbfd;stroke-linejoin:miter;" x="355.821085" xlink:href="#m4f25cfd563" y="370.843976"/>
     <use style="fill:#75bbfd;stroke:#75bbfd;stroke-linejoin:miter;" x="362.156686" xlink:href="#m4f25cfd563" y="370.437269"/>
     <use style="fill:#75bbfd;stroke:#75bbfd;stroke-linejoin:miter;" x="367.873144" xlink:href="#m4f25cfd563" y="369.217336"/>
     <use style="fill:#75bbfd;stroke:#75bbfd;stroke-linejoin:miter;" x="373.080769" xlink:href="#m4f25cfd563" y="367.632343"/>
     <use style="fill:#75bbfd;stroke:#75bbfd;stroke-linejoin:miter;" x="377.862788" xlink:href="#m4f25cfd563" y="366.766277"/>
     <use style="fill:#75bbfd;stroke:#75bbfd;stroke-linejoin:miter;" x="382.283543" xlink:href="#m4f25cfd563" y="365.711023"/>
     <use style="fill:#75bbfd;stroke:#75bbfd;stroke-linejoin:miter;" x="386.393805" xlink:href="#m4f25cfd563" y="365.080055"/>
     <use style="fill:#75bbfd;stroke:#75bbfd;stroke-linejoin:miter;" x="390.234342" xlink:href="#m4f25cfd563" y="364.624966"/>
     <use style="fill:#75bbfd;stroke:#75bbfd;stroke-linejoin:miter;" x="391.156364" xlink:href="#m4f25cfd563" y="364.397455"/>
     <use style="fill:#75bbfd;stroke:#75bbfd;stroke-linejoin:miter;" x="431.738182" xlink:href="#m4f25cfd563" y="351.299231"/>
     <use style="fill:#75bbfd;stroke:#75bbfd;stroke-linejoin:miter;" x="472.32" xlink:href="#m4f25cfd563" y="334.098723"/>
     <use style="fill:#75bbfd;stroke:#75bbfd;stroke-linejoin:miter;" x="512.901818" xlink:href="#m4f25cfd563" y="311.061164"/>
     <use style="fill:#75bbfd;stroke:#75bbfd;stroke-linejoin:miter;" x="553.483636" xlink:href="#m4f25cfd563" y="285.116873"/>
     <use style="fill:#75bbfd;stroke:#75bbfd;stroke-linejoin:miter;" x="594.065455" xlink:href="#m4f25cfd563" y="250.162552"/>
     <use style="fill:#75bbfd;stroke:#75bbfd;stroke-linejoin:miter;" x="634.647273" xlink:href="#m4f25cfd563" y="221.9534"/>
     <use style="fill:#75bbfd;stroke:#75bbfd;stroke-linejoin:miter;" x="646.323164" xlink:href="#m4f25cfd563" y="217.514536"/>
     <use style="fill:#75bbfd;stroke:#75bbfd;stroke-linejoin:miter;" x="675.229091" xlink:href="#m4f25cfd563" y="184.518395"/>
     <use style="fill:#75bbfd;stroke:#75bbfd;stroke-linejoin:miter;" x="715.810909" xlink:href="#m4f25cfd563" y="159.575679"/>
     <use style="fill:#75bbfd;stroke:#75bbfd;stroke-linejoin:miter;" x="756.392727" xlink:href="#m4f25cfd563" y="120.929981"/>
     <use style="fill:#75bbfd;stroke:#75bbfd;stroke-linejoin:miter;" x="796.974545" xlink:href="#m4f25cfd563" y="93.755052"/>
    </g>
   </g>
   <g id="line2d_60">
    <path clip-path="url(#p5c9640cbac)" d="M 147.665455 440.461779 
L 188.247273 438.375846 
L 211.986115 439.790122 
L 228.829091 438.89178 
L 241.893518 437.958569 
L 252.567933 440.537137 
L 261.593022 440.453289 
L 269.410909 438.440216 
L 276.306775 438.660968 
L 282.475337 438.882885 
L 288.05548 438.35015 
L 306.214178 435.499992 
L 320.054077 431.739008 
L 331.239823 428.847838 
L 340.627435 426.533509 
L 348.715748 424.560606 
L 355.821085 423.88093 
L 362.156686 420.914158 
L 367.873144 419.569825 
L 373.080769 417.85062 
L 377.862788 416.655973 
L 382.283543 415.35972 
L 386.393805 414.078787 
L 390.234342 412.566549 
L 391.156364 412.226596 
L 431.738182 389.826409 
L 472.32 367.45461 
L 512.901818 337.594132 
L 553.483636 311.5549 
L 594.065455 252.430216 
L 634.647273 221.822413 
L 646.323164 218.124917 
L 675.229091 175.116707 
L 715.810909 149.190768 
L 756.392727 122.108925 
L 796.974545 84.711414 
" style="fill:none;stroke:#7e1e9c;stroke-linecap:square;"/>
    <defs>
     <path d="M 0 0 
L 0 2.5 
M 0 0 
L 2 -1.25 
M 0 0 
L -2 -1.25 
" id="m6c3d6e40f9" style="stroke:#7e1e9c;"/>
    </defs>
    <g clip-path="url(#p5c9640cbac)">
     <use style="fill:#7e1e9c;stroke:#7e1e9c;" x="147.665455" xlink:href="#m6c3d6e40f9" y="440.461779"/>
     <use style="fill:#7e1e9c;stroke:#7e1e9c;" x="188.247273" xlink:href="#m6c3d6e40f9" y="438.375846"/>
     <use style="fill:#7e1e9c;stroke:#7e1e9c;" x="211.986115" xlink:href="#m6c3d6e40f9" y="439.790122"/>
     <use style="fill:#7e1e9c;stroke:#7e1e9c;" x="228.829091" xlink:href="#m6c3d6e40f9" y="438.89178"/>
     <use style="fill:#7e1e9c;stroke:#7e1e9c;" x="241.893518" xlink:href="#m6c3d6e40f9" y="437.958569"/>
     <use style="fill:#7e1e9c;stroke:#7e1e9c;" x="252.567933" xlink:href="#m6c3d6e40f9" y="440.537137"/>
     <use style="fill:#7e1e9c;stroke:#7e1e9c;" x="261.593022" xlink:href="#m6c3d6e40f9" y="440.453289"/>
     <use style="fill:#7e1e9c;stroke:#7e1e9c;" x="269.410909" xlink:href="#m6c3d6e40f9" y="438.440216"/>
     <use style="fill:#7e1e9c;stroke:#7e1e9c;" x="276.306775" xlink:href="#m6c3d6e40f9" y="438.660968"/>
     <use style="fill:#7e1e9c;stroke:#7e1e9c;" x="282.475337" xlink:href="#m6c3d6e40f9" y="438.882885"/>
     <use style="fill:#7e1e9c;stroke:#7e1e9c;" x="288.05548" xlink:href="#m6c3d6e40f9" y="438.35015"/>
     <use style="fill:#7e1e9c;stroke:#7e1e9c;" x="306.214178" xlink:href="#m6c3d6e40f9" y="435.499992"/>
     <use style="fill:#7e1e9c;stroke:#7e1e9c;" x="320.054077" xlink:href="#m6c3d6e40f9" y="431.739008"/>
     <use style="fill:#7e1e9c;stroke:#7e1e9c;" x="331.239823" xlink:href="#m6c3d6e40f9" y="428.847838"/>
     <use style="fill:#7e1e9c;stroke:#7e1e9c;" x="340.627435" xlink:href="#m6c3d6e40f9" y="426.533509"/>
     <use style="fill:#7e1e9c;stroke:#7e1e9c;" x="348.715748" xlink:href="#m6c3d6e40f9" y="424.560606"/>
     <use style="fill:#7e1e9c;stroke:#7e1e9c;" x="355.821085" xlink:href="#m6c3d6e40f9" y="423.88093"/>
     <use style="fill:#7e1e9c;stroke:#7e1e9c;" x="362.156686" xlink:href="#m6c3d6e40f9" y="420.914158"/>
     <use style="fill:#7e1e9c;stroke:#7e1e9c;" x="367.873144" xlink:href="#m6c3d6e40f9" y="419.569825"/>
     <use style="fill:#7e1e9c;stroke:#7e1e9c;" x="373.080769" xlink:href="#m6c3d6e40f9" y="417.85062"/>
     <use style="fill:#7e1e9c;stroke:#7e1e9c;" x="377.862788" xlink:href="#m6c3d6e40f9" y="416.655973"/>
     <use style="fill:#7e1e9c;stroke:#7e1e9c;" x="382.283543" xlink:href="#m6c3d6e40f9" y="415.35972"/>
     <use style="fill:#7e1e9c;stroke:#7e1e9c;" x="386.393805" xlink:href="#m6c3d6e40f9" y="414.078787"/>
     <use style="fill:#7e1e9c;stroke:#7e1e9c;" x="390.234342" xlink:href="#m6c3d6e40f9" y="412.566549"/>
     <use style="fill:#7e1e9c;stroke:#7e1e9c;" x="391.156364" xlink:href="#m6c3d6e40f9" y="412.226596"/>
     <use style="fill:#7e1e9c;stroke:#7e1e9c;" x="431.738182" xlink:href="#m6c3d6e40f9" y="389.826409"/>
     <use style="fill:#7e1e9c;stroke:#7e1e9c;" x="472.32" xlink:href="#m6c3d6e40f9" y="367.45461"/>
     <use style="fill:#7e1e9c;stroke:#7e1e9c;" x="512.901818" xlink:href="#m6c3d6e40f9" y="337.594132"/>
     <use style="fill:#7e1e9c;stroke:#7e1e9c;" x="553.483636" xlink:href="#m6c3d6e40f9" y="311.5549"/>
     <use style="fill:#7e1e9c;stroke:#7e1e9c;" x="594.065455" xlink:href="#m6c3d6e40f9" y="252.430216"/>
     <use style="fill:#7e1e9c;stroke:#7e1e9c;" x="634.647273" xlink:href="#m6c3d6e40f9" y="221.822413"/>
     <use style="fill:#7e1e9c;stroke:#7e1e9c;" x="646.323164" xlink:href="#m6c3d6e40f9" y="218.124917"/>
     <use style="fill:#7e1e9c;stroke:#7e1e9c;" x="675.229091" xlink:href="#m6c3d6e40f9" y="175.116707"/>
     <use style="fill:#7e1e9c;stroke:#7e1e9c;" x="715.810909" xlink:href="#m6c3d6e40f9" y="149.190768"/>
     <use style="fill:#7e1e9c;stroke:#7e1e9c;" x="756.392727" xlink:href="#m6c3d6e40f9" y="122.108925"/>
     <use style="fill:#7e1e9c;stroke:#7e1e9c;" x="796.974545" xlink:href="#m6c3d6e40f9" y="84.711414"/>
    </g>
   </g>
   <g id="line2d_61">
    <path clip-path="url(#p5c9640cbac)" d="M 391.156364 460.7352 
L 391.156364 62.1216 
" style="fill:none;stroke:#ff0000;stroke-linecap:square;stroke-opacity:0.5;stroke-width:3;"/>
   </g>
   <g id="patch_3">
    <path d="M 115.2 460.7352 
L 115.2 62.1216 
" style="fill:none;stroke:#000000;stroke-linecap:square;stroke-linejoin:miter;stroke-width:0.8;"/>
   </g>
   <g id="patch_4">
    <path d="M 829.44 460.7352 
L 829.44 62.1216 
" style="fill:none;stroke:#000000;stroke-linecap:square;stroke-linejoin:miter;stroke-width:0.8;"/>
   </g>
   <g id="patch_5">
    <path d="M 115.2 460.7352 
L 829.44 460.7352 
" style="fill:none;stroke:#000000;stroke-linecap:square;stroke-linejoin:miter;stroke-width:0.8;"/>
   </g>
   <g id="patch_6">
    <path d="M 115.2 62.1216 
L 829.44 62.1216 
" style="fill:none;stroke:#000000;stroke-linecap:square;stroke-linejoin:miter;stroke-width:0.8;"/>
   </g>
   <g id="text_13">
    <!-- Time to $\bf{generate}$ pascal's triangle data structure -->
    <defs>
     <path d="M -0.296875 72.90625 
L 61.375 72.90625 
L 61.375 64.59375 
L 35.5 64.59375 
L 35.5 0 
L 25.59375 0 
L 25.59375 64.59375 
L -0.296875 64.59375 
z
" id="DejaVuSans-84"/>
     <path d="M 45.609375 9.28125 
Q 42 4.5 37.640625 2.25 
Q 33.296875 0 27.59375 0 
Q 17.578125 0 11.03125 7.875 
Q 4.5 15.765625 4.5 27.984375 
Q 4.5 40.234375 11.03125 48.0625 
Q 17.578125 55.90625 27.59375 55.90625 
Q 33.296875 55.90625 37.640625 53.65625 
Q 42 51.421875 45.609375 46.578125 
L 45.609375 54.6875 
L 63.1875 54.6875 
L 63.1875 5.515625 
Q 63.1875 -7.671875 54.859375 -14.625 
Q 46.53125 -21.578125 30.71875 -21.578125 
Q 25.59375 -21.578125 20.796875 -20.796875 
Q 16.015625 -20.015625 11.1875 -18.40625 
L 11.1875 -4.78125 
Q 15.765625 -7.421875 20.15625 -8.71875 
Q 24.5625 -10.015625 29 -10.015625 
Q 37.59375 -10.015625 41.59375 -6.25 
Q 45.609375 -2.484375 45.609375 5.515625 
z
M 34.078125 43.3125 
Q 28.65625 43.3125 25.625 39.296875 
Q 22.609375 35.296875 22.609375 27.984375 
Q 22.609375 20.453125 25.53125 16.578125 
Q 28.46875 12.703125 34.078125 12.703125 
Q 39.546875 12.703125 42.578125 16.703125 
Q 45.609375 20.703125 45.609375 27.984375 
Q 45.609375 35.296875 42.578125 39.296875 
Q 39.546875 43.3125 34.078125 43.3125 
z
" id="DejaVuSans-Bold-103"/>
     <path d="M 62.984375 27.484375 
L 62.984375 22.515625 
L 22.125 22.515625 
Q 22.75 16.359375 26.5625 13.28125 
Q 30.375 10.203125 37.203125 10.203125 
Q 42.71875 10.203125 48.5 11.84375 
Q 54.296875 13.484375 60.40625 16.796875 
L 60.40625 3.328125 
Q 54.203125 0.984375 48 -0.21875 
Q 41.796875 -1.421875 35.59375 -1.421875 
Q 20.75 -1.421875 12.515625 6.125 
Q 4.296875 13.671875 4.296875 27.296875 
Q 4.296875 40.671875 12.375 48.328125 
Q 20.453125 56 34.625 56 
Q 47.515625 56 55.25 48.234375 
Q 62.984375 40.484375 62.984375 27.484375 
z
M 45.015625 33.296875 
Q 45.015625 38.28125 42.109375 41.328125 
Q 39.203125 44.390625 34.515625 44.390625 
Q 29.4375 44.390625 26.265625 41.53125 
Q 23.09375 38.671875 22.3125 33.296875 
z
" id="DejaVuSans-Bold-101"/>
     <path d="M 63.375 33.296875 
L 63.375 0 
L 45.796875 0 
L 45.796875 5.421875 
L 45.796875 25.484375 
Q 45.796875 32.5625 45.484375 35.25 
Q 45.171875 37.9375 44.390625 39.203125 
Q 43.359375 40.921875 41.59375 41.875 
Q 39.84375 42.828125 37.59375 42.828125 
Q 32.125 42.828125 29 38.59375 
Q 25.875 34.375 25.875 26.90625 
L 25.875 0 
L 8.40625 0 
L 8.40625 54.6875 
L 25.875 54.6875 
L 25.875 46.6875 
Q 29.828125 51.46875 34.265625 53.734375 
Q 38.71875 56 44.09375 56 
Q 53.5625 56 58.46875 50.1875 
Q 63.375 44.390625 63.375 33.296875 
z
" id="DejaVuSans-Bold-110"/>
     <path d="M 49.03125 39.796875 
Q 46.734375 40.875 44.453125 41.375 
Q 42.1875 41.890625 39.890625 41.890625 
Q 33.15625 41.890625 29.515625 37.5625 
Q 25.875 33.25 25.875 25.203125 
L 25.875 0 
L 8.40625 0 
L 8.40625 54.6875 
L 25.875 54.6875 
L 25.875 45.703125 
Q 29.25 51.078125 33.609375 53.53125 
Q 37.984375 56 44.09375 56 
Q 44.96875 56 45.984375 55.921875 
Q 47.015625 55.859375 48.96875 55.609375 
z
" id="DejaVuSans-Bold-114"/>
     <path d="M 32.90625 24.609375 
Q 27.4375 24.609375 24.671875 22.75 
Q 21.921875 20.90625 21.921875 17.28125 
Q 21.921875 13.96875 24.140625 12.078125 
Q 26.375 10.203125 30.328125 10.203125 
Q 35.25 10.203125 38.625 13.734375 
Q 42 17.28125 42 22.609375 
L 42 24.609375 
z
M 59.625 31.203125 
L 59.625 0 
L 42 0 
L 42 8.109375 
Q 38.484375 3.125 34.078125 0.84375 
Q 29.6875 -1.421875 23.390625 -1.421875 
Q 14.890625 -1.421875 9.59375 3.53125 
Q 4.296875 8.5 4.296875 16.40625 
Q 4.296875 26.03125 10.90625 30.515625 
Q 17.53125 35.015625 31.6875 35.015625 
L 42 35.015625 
L 42 36.375 
Q 42 40.53125 38.71875 42.453125 
Q 35.453125 44.390625 28.515625 44.390625 
Q 22.90625 44.390625 18.0625 43.265625 
Q 13.234375 42.140625 9.078125 39.890625 
L 9.078125 53.21875 
Q 14.703125 54.59375 20.359375 55.296875 
Q 26.03125 56 31.6875 56 
Q 46.484375 56 53.046875 50.171875 
Q 59.625 44.34375 59.625 31.203125 
z
" id="DejaVuSans-Bold-97"/>
     <path d="M 27.484375 70.21875 
L 27.484375 54.6875 
L 45.515625 54.6875 
L 45.515625 42.1875 
L 27.484375 42.1875 
L 27.484375 19 
Q 27.484375 15.1875 29 13.84375 
Q 30.515625 12.5 35.015625 12.5 
L 44 12.5 
L 44 0 
L 29 0 
Q 18.65625 0 14.328125 4.3125 
Q 10.015625 8.640625 10.015625 19 
L 10.015625 42.1875 
L 1.3125 42.1875 
L 1.3125 54.6875 
L 10.015625 54.6875 
L 10.015625 70.21875 
z
" id="DejaVuSans-Bold-116"/>
     <path d="M 18.109375 8.203125 
L 18.109375 -20.796875 
L 9.078125 -20.796875 
L 9.078125 54.6875 
L 18.109375 54.6875 
L 18.109375 46.390625 
Q 20.953125 51.265625 25.265625 53.625 
Q 29.59375 56 35.59375 56 
Q 45.5625 56 51.78125 48.09375 
Q 58.015625 40.1875 58.015625 27.296875 
Q 58.015625 14.40625 51.78125 6.484375 
Q 45.5625 -1.421875 35.59375 -1.421875 
Q 29.59375 -1.421875 25.265625 0.953125 
Q 20.953125 3.328125 18.109375 8.203125 
z
M 48.6875 27.296875 
Q 48.6875 37.203125 44.609375 42.84375 
Q 40.53125 48.484375 33.40625 48.484375 
Q 26.265625 48.484375 22.1875 42.84375 
Q 18.109375 37.203125 18.109375 27.296875 
Q 18.109375 17.390625 22.1875 11.75 
Q 26.265625 6.109375 33.40625 6.109375 
Q 40.53125 6.109375 44.609375 11.75 
Q 48.6875 17.390625 48.6875 27.296875 
z
" id="DejaVuSans-112"/>
     <path d="M 17.921875 72.90625 
L 17.921875 45.796875 
L 9.625 45.796875 
L 9.625 72.90625 
z
" id="DejaVuSans-39"/>
    </defs>
    <g transform="translate(321.24 42.53985)scale(0.12 -0.12)">
     <use transform="translate(0 0.015625)" xlink:href="#DejaVuSans-84"/>
     <use transform="translate(61.083984 0.015625)" xlink:href="#DejaVuSans-105"/>
     <use transform="translate(88.867188 0.015625)" xlink:href="#DejaVuSans-109"/>
     <use transform="translate(186.279297 0.015625)" xlink:href="#DejaVuSans-101"/>
     <use transform="translate(247.802734 0.015625)" xlink:href="#DejaVuSans-32"/>
     <use transform="translate(279.589844 0.015625)" xlink:href="#DejaVuSans-116"/>
     <use transform="translate(318.798828 0.015625)" xlink:href="#DejaVuSans-111"/>
     <use transform="translate(379.980469 0.015625)" xlink:href="#DejaVuSans-32"/>
     <use transform="translate(411.767578 0.015625)" xlink:href="#DejaVuSans-Bold-103"/>
     <use transform="translate(483.349609 0.015625)" xlink:href="#DejaVuSans-Bold-101"/>
     <use transform="translate(551.171875 0.015625)" xlink:href="#DejaVuSans-Bold-110"/>
     <use transform="translate(622.363281 0.015625)" xlink:href="#DejaVuSans-Bold-101"/>
     <use transform="translate(690.185547 0.015625)" xlink:href="#DejaVuSans-Bold-114"/>
     <use transform="translate(739.501953 0.015625)" xlink:href="#DejaVuSans-Bold-97"/>
     <use transform="translate(806.982422 0.015625)" xlink:href="#DejaVuSans-Bold-116"/>
     <use transform="translate(854.785156 0.015625)" xlink:href="#DejaVuSans-Bold-101"/>
     <use transform="translate(922.607422 0.015625)" xlink:href="#DejaVuSans-32"/>
     <use transform="translate(954.394531 0.015625)" xlink:href="#DejaVuSans-112"/>
     <use transform="translate(1017.871094 0.015625)" xlink:href="#DejaVuSans-97"/>
     <use transform="translate(1079.150391 0.015625)" xlink:href="#DejaVuSans-115"/>
     <use transform="translate(1131.25 0.015625)" xlink:href="#DejaVuSans-99"/>
     <use transform="translate(1186.230469 0.015625)" xlink:href="#DejaVuSans-97"/>
     <use transform="translate(1247.509766 0.015625)" xlink:href="#DejaVuSans-108"/>
     <use transform="translate(1275.292969 0.015625)" xlink:href="#DejaVuSans-39"/>
     <use transform="translate(1302.783203 0.015625)" xlink:href="#DejaVuSans-115"/>
     <use transform="translate(1354.882812 0.015625)" xlink:href="#DejaVuSans-32"/>
     <use transform="translate(1386.669922 0.015625)" xlink:href="#DejaVuSans-116"/>
     <use transform="translate(1425.878906 0.015625)" xlink:href="#DejaVuSans-114"/>
     <use transform="translate(1466.992188 0.015625)" xlink:href="#DejaVuSans-105"/>
     <use transform="translate(1494.775391 0.015625)" xlink:href="#DejaVuSans-97"/>
     <use transform="translate(1556.054688 0.015625)" xlink:href="#DejaVuSans-110"/>
     <use transform="translate(1619.433594 0.015625)" xlink:href="#DejaVuSans-103"/>
     <use transform="translate(1682.910156 0.015625)" xlink:href="#DejaVuSans-108"/>
     <use transform="translate(1710.693359 0.015625)" xlink:href="#DejaVuSans-101"/>
     <use transform="translate(1772.216797 0.015625)" xlink:href="#DejaVuSans-32"/>
     <use transform="translate(1804.003906 0.015625)" xlink:href="#DejaVuSans-100"/>
     <use transform="translate(1867.480469 0.015625)" xlink:href="#DejaVuSans-97"/>
     <use transform="translate(1928.759766 0.015625)" xlink:href="#DejaVuSans-116"/>
     <use transform="translate(1967.96875 0.015625)" xlink:href="#DejaVuSans-97"/>
     <use transform="translate(2029.248047 0.015625)" xlink:href="#DejaVuSans-32"/>
     <use transform="translate(2061.035156 0.015625)" xlink:href="#DejaVuSans-115"/>
     <use transform="translate(2113.134766 0.015625)" xlink:href="#DejaVuSans-116"/>
     <use transform="translate(2152.34375 0.015625)" xlink:href="#DejaVuSans-114"/>
     <use transform="translate(2193.457031 0.015625)" xlink:href="#DejaVuSans-117"/>
     <use transform="translate(2256.835938 0.015625)" xlink:href="#DejaVuSans-99"/>
     <use transform="translate(2311.816406 0.015625)" xlink:href="#DejaVuSans-116"/>
     <use transform="translate(2351.025391 0.015625)" xlink:href="#DejaVuSans-117"/>
     <use transform="translate(2414.404297 0.015625)" xlink:href="#DejaVuSans-114"/>
     <use transform="translate(2455.517578 0.015625)" xlink:href="#DejaVuSans-101"/>
    </g>
    <!-- Lower is better -->
    <defs>
     <path d="M 9.8125 72.90625 
L 19.671875 72.90625 
L 19.671875 8.296875 
L 55.171875 8.296875 
L 55.171875 0 
L 9.8125 0 
z
" id="DejaVuSans-76"/>
    </defs>
    <g transform="translate(427.27125 56.1216)scale(0.12 -0.12)">
     <use xlink:href="#DejaVuSans-76"/>
     <use x="55.697266" xlink:href="#DejaVuSans-111"/>
     <use x="116.878906" xlink:href="#DejaVuSans-119"/>
     <use x="198.666016" xlink:href="#DejaVuSans-101"/>
     <use x="260.189453" xlink:href="#DejaVuSans-114"/>
     <use x="301.302734" xlink:href="#DejaVuSans-32"/>
     <use x="333.089844" xlink:href="#DejaVuSans-105"/>
     <use x="360.873047" xlink:href="#DejaVuSans-115"/>
     <use x="412.972656" xlink:href="#DejaVuSans-32"/>
     <use x="444.759766" xlink:href="#DejaVuSans-98"/>
     <use x="508.236328" xlink:href="#DejaVuSans-101"/>
     <use x="569.759766" xlink:href="#DejaVuSans-116"/>
     <use x="608.96875" xlink:href="#DejaVuSans-116"/>
     <use x="648.177734" xlink:href="#DejaVuSans-101"/>
     <use x="709.701172" xlink:href="#DejaVuSans-114"/>
    </g>
   </g>
   <g id="legend_1">
    <g id="patch_7">
     <path d="M 122.2 159.30285 
L 302.098437 159.30285 
Q 304.098437 159.30285 304.098437 157.30285 
L 304.098437 69.1216 
Q 304.098437 67.1216 302.098437 67.1216 
L 122.2 67.1216 
Q 120.2 67.1216 120.2 69.1216 
L 120.2 157.30285 
Q 120.2 159.30285 122.2 159.30285 
z
" style="fill:#ffffff;opacity:0.8;stroke:#cccccc;stroke-linejoin:miter;"/>
    </g>
    <g id="line2d_62">
     <path d="M 124.2 75.220037 
L 144.2 75.220037 
" style="fill:none;stroke:#000000;stroke-linecap:square;"/>
    </g>
    <g id="line2d_63">
     <g>
      <use style="stroke:#000000;" x="134.2" xlink:href="#m92f26531ce" y="75.220037"/>
     </g>
    </g>
    <g id="text_14">
     <!-- Baseline -->
     <defs>
      <path d="M 19.671875 34.8125 
L 19.671875 8.109375 
L 35.5 8.109375 
Q 43.453125 8.109375 47.28125 11.40625 
Q 51.125 14.703125 51.125 21.484375 
Q 51.125 28.328125 47.28125 31.5625 
Q 43.453125 34.8125 35.5 34.8125 
z
M 19.671875 64.796875 
L 19.671875 42.828125 
L 34.28125 42.828125 
Q 41.5 42.828125 45.03125 45.53125 
Q 48.578125 48.25 48.578125 53.8125 
Q 48.578125 59.328125 45.03125 62.0625 
Q 41.5 64.796875 34.28125 64.796875 
z
M 9.8125 72.90625 
L 35.015625 72.90625 
Q 46.296875 72.90625 52.390625 68.21875 
Q 58.5 63.53125 58.5 54.890625 
Q 58.5 48.1875 55.375 44.234375 
Q 52.25 40.28125 46.1875 39.3125 
Q 53.46875 37.75 57.5 32.78125 
Q 61.53125 27.828125 61.53125 20.40625 
Q 61.53125 10.640625 54.890625 5.3125 
Q 48.25 0 35.984375 0 
L 9.8125 0 
z
" id="DejaVuSans-66"/>
     </defs>
     <g transform="translate(152.2 78.720037)scale(0.1 -0.1)">
      <use xlink:href="#DejaVuSans-66"/>
      <use x="68.603516" xlink:href="#DejaVuSans-97"/>
      <use x="129.882812" xlink:href="#DejaVuSans-115"/>
      <use x="181.982422" xlink:href="#DejaVuSans-101"/>
      <use x="243.505859" xlink:href="#DejaVuSans-108"/>
      <use x="271.289062" xlink:href="#DejaVuSans-105"/>
      <use x="299.072266" xlink:href="#DejaVuSans-110"/>
      <use x="362.451172" xlink:href="#DejaVuSans-101"/>
     </g>
    </g>
    <g id="line2d_64">
     <path d="M 124.2 89.898163 
L 144.2 89.898163 
" style="fill:none;stroke:#0652ff;stroke-linecap:square;"/>
    </g>
    <g id="line2d_65">
     <g>
      <use style="fill:#0652ff;stroke:#0652ff;" x="134.2" xlink:href="#me8bf655f15" y="89.898163"/>
     </g>
    </g>
    <g id="text_15">
     <!-- Pixelf -->
     <defs>
      <path d="M 54.890625 54.6875 
L 35.109375 28.078125 
L 55.90625 0 
L 45.3125 0 
L 29.390625 21.484375 
L 13.484375 0 
L 2.875 0 
L 24.125 28.609375 
L 4.6875 54.6875 
L 15.28125 54.6875 
L 29.78125 35.203125 
L 44.28125 54.6875 
z
" id="DejaVuSans-120"/>
     </defs>
     <g transform="translate(152.2 93.398163)scale(0.1 -0.1)">
      <use xlink:href="#DejaVuSans-80"/>
      <use x="60.271484" xlink:href="#DejaVuSans-105"/>
      <use x="88.054688" xlink:href="#DejaVuSans-120"/>
      <use x="147.1875" xlink:href="#DejaVuSans-101"/>
      <use x="208.710938" xlink:href="#DejaVuSans-108"/>
      <use x="236.494141" xlink:href="#DejaVuSans-102"/>
     </g>
    </g>
    <g id="line2d_66">
     <path d="M 124.2 104.576287 
L 144.2 104.576287 
" style="fill:none;stroke:#0cff0c;stroke-linecap:square;"/>
    </g>
    <g id="line2d_67">
     <g>
      <use style="fill:#0cff0c;stroke:#0cff0c;" x="134.2" xlink:href="#m2510173ca9" y="104.576287"/>
     </g>
    </g>
    <g id="text_16">
     <!-- Pixelf_TBB_arh -->
     <defs>
      <path d="M 50.984375 -16.609375 
L 50.984375 -23.578125 
L -0.984375 -23.578125 
L -0.984375 -16.609375 
z
" id="DejaVuSans-95"/>
      <path d="M 54.890625 33.015625 
L 54.890625 0 
L 45.90625 0 
L 45.90625 32.71875 
Q 45.90625 40.484375 42.875 44.328125 
Q 39.84375 48.1875 33.796875 48.1875 
Q 26.515625 48.1875 22.3125 43.546875 
Q 18.109375 38.921875 18.109375 30.90625 
L 18.109375 0 
L 9.078125 0 
L 9.078125 75.984375 
L 18.109375 75.984375 
L 18.109375 46.1875 
Q 21.34375 51.125 25.703125 53.5625 
Q 30.078125 56 35.796875 56 
Q 45.21875 56 50.046875 50.171875 
Q 54.890625 44.34375 54.890625 33.015625 
z
" id="DejaVuSans-104"/>
     </defs>
     <g transform="translate(152.2 108.076287)scale(0.1 -0.1)">
      <use xlink:href="#DejaVuSans-80"/>
      <use x="60.271484" xlink:href="#DejaVuSans-105"/>
      <use x="88.054688" xlink:href="#DejaVuSans-120"/>
      <use x="147.1875" xlink:href="#DejaVuSans-101"/>
      <use x="208.710938" xlink:href="#DejaVuSans-108"/>
      <use x="236.494141" xlink:href="#DejaVuSans-102"/>
      <use x="271.699219" xlink:href="#DejaVuSans-95"/>
      <use x="321.699219" xlink:href="#DejaVuSans-84"/>
      <use x="382.783203" xlink:href="#DejaVuSans-66"/>
      <use x="451.386719" xlink:href="#DejaVuSans-66"/>
      <use x="519.990234" xlink:href="#DejaVuSans-95"/>
      <use x="569.990234" xlink:href="#DejaVuSans-97"/>
      <use x="631.269531" xlink:href="#DejaVuSans-114"/>
      <use x="672.367188" xlink:href="#DejaVuSans-104"/>
     </g>
    </g>
    <g id="line2d_68">
     <path d="M 124.2 119.532537 
L 144.2 119.532537 
" style="fill:none;stroke:#e50000;stroke-linecap:square;"/>
    </g>
    <g id="line2d_69">
     <g>
      <use style="fill:#e50000;stroke:#e50000;stroke-linejoin:miter;" x="134.2" xlink:href="#mdb62ec811d" y="119.532537"/>
     </g>
    </g>
    <g id="text_17">
     <!-- Pixelf_TBB_scalable_alloc_arh -->
     <g transform="translate(152.2 123.032537)scale(0.1 -0.1)">
      <use xlink:href="#DejaVuSans-80"/>
      <use x="60.271484" xlink:href="#DejaVuSans-105"/>
      <use x="88.054688" xlink:href="#DejaVuSans-120"/>
      <use x="147.1875" xlink:href="#DejaVuSans-101"/>
      <use x="208.710938" xlink:href="#DejaVuSans-108"/>
      <use x="236.494141" xlink:href="#DejaVuSans-102"/>
      <use x="271.699219" xlink:href="#DejaVuSans-95"/>
      <use x="321.699219" xlink:href="#DejaVuSans-84"/>
      <use x="382.783203" xlink:href="#DejaVuSans-66"/>
      <use x="451.386719" xlink:href="#DejaVuSans-66"/>
      <use x="519.990234" xlink:href="#DejaVuSans-95"/>
      <use x="569.990234" xlink:href="#DejaVuSans-115"/>
      <use x="622.089844" xlink:href="#DejaVuSans-99"/>
      <use x="677.070312" xlink:href="#DejaVuSans-97"/>
      <use x="738.349609" xlink:href="#DejaVuSans-108"/>
      <use x="766.132812" xlink:href="#DejaVuSans-97"/>
      <use x="827.412109" xlink:href="#DejaVuSans-98"/>
      <use x="890.888672" xlink:href="#DejaVuSans-108"/>
      <use x="918.671875" xlink:href="#DejaVuSans-101"/>
      <use x="980.195312" xlink:href="#DejaVuSans-95"/>
      <use x="1030.195312" xlink:href="#DejaVuSans-97"/>
      <use x="1091.474609" xlink:href="#DejaVuSans-108"/>
      <use x="1119.257812" xlink:href="#DejaVuSans-108"/>
      <use x="1147.041016" xlink:href="#DejaVuSans-111"/>
      <use x="1208.222656" xlink:href="#DejaVuSans-99"/>
      <use x="1263.203125" xlink:href="#DejaVuSans-95"/>
      <use x="1313.203125" xlink:href="#DejaVuSans-97"/>
      <use x="1374.482422" xlink:href="#DejaVuSans-114"/>
      <use x="1415.580078" xlink:href="#DejaVuSans-104"/>
     </g>
    </g>
    <g id="line2d_70">
     <path d="M 124.2 134.488788 
L 144.2 134.488788 
" style="fill:none;stroke:#75bbfd;stroke-linecap:square;"/>
    </g>
    <g id="line2d_71">
     <g>
      <use style="fill:#75bbfd;stroke:#75bbfd;stroke-linejoin:miter;" x="134.2" xlink:href="#m4f25cfd563" y="134.488788"/>
     </g>
    </g>
    <g id="text_18">
     <!-- Pixelf_TBB_spans_arh -->
     <g transform="translate(152.2 137.988788)scale(0.1 -0.1)">
      <use xlink:href="#DejaVuSans-80"/>
      <use x="60.271484" xlink:href="#DejaVuSans-105"/>
      <use x="88.054688" xlink:href="#DejaVuSans-120"/>
      <use x="147.1875" xlink:href="#DejaVuSans-101"/>
      <use x="208.710938" xlink:href="#DejaVuSans-108"/>
      <use x="236.494141" xlink:href="#DejaVuSans-102"/>
      <use x="271.699219" xlink:href="#DejaVuSans-95"/>
      <use x="321.699219" xlink:href="#DejaVuSans-84"/>
      <use x="382.783203" xlink:href="#DejaVuSans-66"/>
      <use x="451.386719" xlink:href="#DejaVuSans-66"/>
      <use x="519.990234" xlink:href="#DejaVuSans-95"/>
      <use x="569.990234" xlink:href="#DejaVuSans-115"/>
      <use x="622.089844" xlink:href="#DejaVuSans-112"/>
      <use x="685.566406" xlink:href="#DejaVuSans-97"/>
      <use x="746.845703" xlink:href="#DejaVuSans-110"/>
      <use x="810.224609" xlink:href="#DejaVuSans-115"/>
      <use x="862.324219" xlink:href="#DejaVuSans-95"/>
      <use x="912.324219" xlink:href="#DejaVuSans-97"/>
      <use x="973.603516" xlink:href="#DejaVuSans-114"/>
      <use x="1014.701172" xlink:href="#DejaVuSans-104"/>
     </g>
    </g>
    <g id="line2d_72">
     <path d="M 124.2 149.445038 
L 144.2 149.445038 
" style="fill:none;stroke:#7e1e9c;stroke-linecap:square;"/>
    </g>
    <g id="line2d_73">
     <g>
      <use style="fill:#7e1e9c;stroke:#7e1e9c;" x="134.2" xlink:href="#m6c3d6e40f9" y="149.445038"/>
     </g>
    </g>
    <g id="text_19">
     <!-- FlyingDesitter_arh -->
     <defs>
      <path d="M 9.8125 72.90625 
L 51.703125 72.90625 
L 51.703125 64.59375 
L 19.671875 64.59375 
L 19.671875 43.109375 
L 48.578125 43.109375 
L 48.578125 34.8125 
L 19.671875 34.8125 
L 19.671875 0 
L 9.8125 0 
z
" id="DejaVuSans-70"/>
      <path d="M 32.171875 -5.078125 
Q 28.375 -14.84375 24.75 -17.8125 
Q 21.140625 -20.796875 15.09375 -20.796875 
L 7.90625 -20.796875 
L 7.90625 -13.28125 
L 13.1875 -13.28125 
Q 16.890625 -13.28125 18.9375 -11.515625 
Q 21 -9.765625 23.484375 -3.21875 
L 25.09375 0.875 
L 2.984375 54.6875 
L 12.5 54.6875 
L 29.59375 11.921875 
L 46.6875 54.6875 
L 56.203125 54.6875 
z
" id="DejaVuSans-121"/>
      <path d="M 19.671875 64.796875 
L 19.671875 8.109375 
L 31.59375 8.109375 
Q 46.6875 8.109375 53.6875 14.9375 
Q 60.6875 21.78125 60.6875 36.53125 
Q 60.6875 51.171875 53.6875 57.984375 
Q 46.6875 64.796875 31.59375 64.796875 
z
M 9.8125 72.90625 
L 30.078125 72.90625 
Q 51.265625 72.90625 61.171875 64.09375 
Q 71.09375 55.28125 71.09375 36.53125 
Q 71.09375 17.671875 61.125 8.828125 
Q 51.171875 0 30.078125 0 
L 9.8125 0 
z
" id="DejaVuSans-68"/>
     </defs>
     <g transform="translate(152.2 152.945038)scale(0.1 -0.1)">
      <use xlink:href="#DejaVuSans-70"/>
      <use x="57.519531" xlink:href="#DejaVuSans-108"/>
      <use x="85.302734" xlink:href="#DejaVuSans-121"/>
      <use x="144.482422" xlink:href="#DejaVuSans-105"/>
      <use x="172.265625" xlink:href="#DejaVuSans-110"/>
      <use x="235.644531" xlink:href="#DejaVuSans-103"/>
      <use x="299.121094" xlink:href="#DejaVuSans-68"/>
      <use x="376.123047" xlink:href="#DejaVuSans-101"/>
      <use x="437.646484" xlink:href="#DejaVuSans-115"/>
      <use x="489.746094" xlink:href="#DejaVuSans-105"/>
      <use x="517.529297" xlink:href="#DejaVuSans-116"/>
      <use x="556.738281" xlink:href="#DejaVuSans-116"/>
      <use x="595.947266" xlink:href="#DejaVuSans-101"/>
      <use x="657.470703" xlink:href="#DejaVuSans-114"/>
      <use x="698.583984" xlink:href="#DejaVuSans-95"/>
      <use x="748.583984" xlink:href="#DejaVuSans-97"/>
      <use x="809.863281" xlink:href="#DejaVuSans-114"/>
      <use x="850.960938" xlink:href="#DejaVuSans-104"/>
     </g>
    </g>
   </g>
  </g>
 </g>
 <defs>
  <clipPath id="p5c9640cbac">
   <rect height="398.6136" width="714.24" x="115.2" y="62.1216"/>
  </clipPath>
 </defs>
</svg>
