<?xml version="1.0" encoding="utf-8" standalone="no"?>
<!DOCTYPE svg PUBLIC "-//W3C//DTD SVG 1.1//EN"
  "http://www.w3.org/Graphics/SVG/1.1/DTD/svg11.dtd">
<!-- Created with matplotlib (https://matplotlib.org/) -->
<svg version="1.1" viewBox="0 0 921.6 517.68" xmlns="http://www.w3.org/2000/svg" xmlns:xlink="http://www.w3.org/1999/xlink">
 <defs>
  <style type="text/css">
*{stroke-linecap:butt;stroke-linejoin:round;}
  </style>
 </defs>
 <g id="figure_1">
  <g id="patch_1">
   <path d="M 0 517.68 
L 921.6 517.68 
L 921.6 0 
L 0 0 
z
" style="fill:#ffffff;"/>
  </g>
  <g id="axes_1">
   <g id="patch_2">
    <path d="M 115.2 460.7352 
L 829.44 460.7352 
L 829.44 62.1216 
L 115.2 62.1216 
z
" style="fill:#ffffff;"/>
   </g>
   <g id="matplotlib.axis_1">
    <g id="xtick_1">
     <g id="line2d_1">
      <defs>
       <path d="M 0 0 
L 0 3.5 
" id="maa1ac3ade3" style="stroke:#000000;stroke-width:0.8;"/>
      </defs>
      <g>
       <use style="stroke:#000000;stroke-width:0.8;" x="126.72" xlink:href="#maa1ac3ade3" y="460.7352"/>
      </g>
     </g>
     <g id="text_1">
      <!-- 0 -->
      <defs>
       <path d="M 31.78125 66.40625 
Q 24.171875 66.40625 20.328125 58.90625 
Q 16.5 51.421875 16.5 36.375 
Q 16.5 21.390625 20.328125 13.890625 
Q 24.171875 6.390625 31.78125 6.390625 
Q 39.453125 6.390625 43.28125 13.890625 
Q 47.125 21.390625 47.125 36.375 
Q 47.125 51.421875 43.28125 58.90625 
Q 39.453125 66.40625 31.78125 66.40625 
z
M 31.78125 74.21875 
Q 44.046875 74.21875 50.515625 64.515625 
Q 56.984375 54.828125 56.984375 36.375 
Q 56.984375 17.96875 50.515625 8.265625 
Q 44.046875 -1.421875 31.78125 -1.421875 
Q 19.53125 -1.421875 13.0625 8.265625 
Q 6.59375 17.96875 6.59375 36.375 
Q 6.59375 54.828125 13.0625 64.515625 
Q 19.53125 74.21875 31.78125 74.21875 
z
" id="DejaVuSans-48"/>
      </defs>
      <g transform="translate(123.53875 475.333638)scale(0.1 -0.1)">
       <use xlink:href="#DejaVuSans-48"/>
      </g>
     </g>
    </g>
    <g id="xtick_2">
     <g id="line2d_2">
      <g>
       <use style="stroke:#000000;stroke-width:0.8;" x="231.447273" xlink:href="#maa1ac3ade3" y="460.7352"/>
      </g>
     </g>
     <g id="text_2">
      <!-- 5 -->
      <defs>
       <path d="M 10.796875 72.90625 
L 49.515625 72.90625 
L 49.515625 64.59375 
L 19.828125 64.59375 
L 19.828125 46.734375 
Q 21.96875 47.46875 24.109375 47.828125 
Q 26.265625 48.1875 28.421875 48.1875 
Q 40.625 48.1875 47.75 41.5 
Q 54.890625 34.8125 54.890625 23.390625 
Q 54.890625 11.625 47.5625 5.09375 
Q 40.234375 -1.421875 26.90625 -1.421875 
Q 22.3125 -1.421875 17.546875 -0.640625 
Q 12.796875 0.140625 7.71875 1.703125 
L 7.71875 11.625 
Q 12.109375 9.234375 16.796875 8.0625 
Q 21.484375 6.890625 26.703125 6.890625 
Q 35.15625 6.890625 40.078125 11.328125 
Q 45.015625 15.765625 45.015625 23.390625 
Q 45.015625 31 40.078125 35.4375 
Q 35.15625 39.890625 26.703125 39.890625 
Q 22.75 39.890625 18.8125 39.015625 
Q 14.890625 38.140625 10.796875 36.28125 
z
" id="DejaVuSans-53"/>
      </defs>
      <g transform="translate(228.266023 475.333638)scale(0.1 -0.1)">
       <use xlink:href="#DejaVuSans-53"/>
      </g>
     </g>
    </g>
    <g id="xtick_3">
     <g id="line2d_3">
      <g>
       <use style="stroke:#000000;stroke-width:0.8;" x="336.174545" xlink:href="#maa1ac3ade3" y="460.7352"/>
      </g>
     </g>
     <g id="text_3">
      <!-- 10 -->
      <defs>
       <path d="M 12.40625 8.296875 
L 28.515625 8.296875 
L 28.515625 63.921875 
L 10.984375 60.40625 
L 10.984375 69.390625 
L 28.421875 72.90625 
L 38.28125 72.90625 
L 38.28125 8.296875 
L 54.390625 8.296875 
L 54.390625 0 
L 12.40625 0 
z
" id="DejaVuSans-49"/>
      </defs>
      <g transform="translate(329.812045 475.333638)scale(0.1 -0.1)">
       <use xlink:href="#DejaVuSans-49"/>
       <use x="63.623047" xlink:href="#DejaVuSans-48"/>
      </g>
     </g>
    </g>
    <g id="xtick_4">
     <g id="line2d_4">
      <g>
       <use style="stroke:#000000;stroke-width:0.8;" x="440.901818" xlink:href="#maa1ac3ade3" y="460.7352"/>
      </g>
     </g>
     <g id="text_4">
      <!-- 15 -->
      <g transform="translate(434.539318 475.333638)scale(0.1 -0.1)">
       <use xlink:href="#DejaVuSans-49"/>
       <use x="63.623047" xlink:href="#DejaVuSans-53"/>
      </g>
     </g>
    </g>
    <g id="xtick_5">
     <g id="line2d_5">
      <g>
       <use style="stroke:#000000;stroke-width:0.8;" x="545.629091" xlink:href="#maa1ac3ade3" y="460.7352"/>
      </g>
     </g>
     <g id="text_5">
      <!-- 20 -->
      <defs>
       <path d="M 19.1875 8.296875 
L 53.609375 8.296875 
L 53.609375 0 
L 7.328125 0 
L 7.328125 8.296875 
Q 12.9375 14.109375 22.625 23.890625 
Q 32.328125 33.6875 34.8125 36.53125 
Q 39.546875 41.84375 41.421875 45.53125 
Q 43.3125 49.21875 43.3125 52.78125 
Q 43.3125 58.59375 39.234375 62.25 
Q 35.15625 65.921875 28.609375 65.921875 
Q 23.96875 65.921875 18.8125 64.3125 
Q 13.671875 62.703125 7.8125 59.421875 
L 7.8125 69.390625 
Q 13.765625 71.78125 18.9375 73 
Q 24.125 74.21875 28.421875 74.21875 
Q 39.75 74.21875 46.484375 68.546875 
Q 53.21875 62.890625 53.21875 53.421875 
Q 53.21875 48.921875 51.53125 44.890625 
Q 49.859375 40.875 45.40625 35.40625 
Q 44.1875 33.984375 37.640625 27.21875 
Q 31.109375 20.453125 19.1875 8.296875 
z
" id="DejaVuSans-50"/>
      </defs>
      <g transform="translate(539.266591 475.333638)scale(0.1 -0.1)">
       <use xlink:href="#DejaVuSans-50"/>
       <use x="63.623047" xlink:href="#DejaVuSans-48"/>
      </g>
     </g>
    </g>
    <g id="xtick_6">
     <g id="line2d_6">
      <g>
       <use style="stroke:#000000;stroke-width:0.8;" x="650.356364" xlink:href="#maa1ac3ade3" y="460.7352"/>
      </g>
     </g>
     <g id="text_6">
      <!-- 25 -->
      <g transform="translate(643.993864 475.333638)scale(0.1 -0.1)">
       <use xlink:href="#DejaVuSans-50"/>
       <use x="63.623047" xlink:href="#DejaVuSans-53"/>
      </g>
     </g>
    </g>
    <g id="xtick_7">
     <g id="line2d_7">
      <g>
       <use style="stroke:#000000;stroke-width:0.8;" x="755.083636" xlink:href="#maa1ac3ade3" y="460.7352"/>
      </g>
     </g>
     <g id="text_7">
      <!-- 30 -->
      <defs>
       <path d="M 40.578125 39.3125 
Q 47.65625 37.796875 51.625 33 
Q 55.609375 28.21875 55.609375 21.1875 
Q 55.609375 10.40625 48.1875 4.484375 
Q 40.765625 -1.421875 27.09375 -1.421875 
Q 22.515625 -1.421875 17.65625 -0.515625 
Q 12.796875 0.390625 7.625 2.203125 
L 7.625 11.71875 
Q 11.71875 9.328125 16.59375 8.109375 
Q 21.484375 6.890625 26.8125 6.890625 
Q 36.078125 6.890625 40.9375 10.546875 
Q 45.796875 14.203125 45.796875 21.1875 
Q 45.796875 27.640625 41.28125 31.265625 
Q 36.765625 34.90625 28.71875 34.90625 
L 20.21875 34.90625 
L 20.21875 43.015625 
L 29.109375 43.015625 
Q 36.375 43.015625 40.234375 45.921875 
Q 44.09375 48.828125 44.09375 54.296875 
Q 44.09375 59.90625 40.109375 62.90625 
Q 36.140625 65.921875 28.71875 65.921875 
Q 24.65625 65.921875 20.015625 65.03125 
Q 15.375 64.15625 9.8125 62.3125 
L 9.8125 71.09375 
Q 15.4375 72.65625 20.34375 73.4375 
Q 25.25 74.21875 29.59375 74.21875 
Q 40.828125 74.21875 47.359375 69.109375 
Q 53.90625 64.015625 53.90625 55.328125 
Q 53.90625 49.265625 50.4375 45.09375 
Q 46.96875 40.921875 40.578125 39.3125 
z
" id="DejaVuSans-51"/>
      </defs>
      <g transform="translate(748.721136 475.333638)scale(0.1 -0.1)">
       <use xlink:href="#DejaVuSans-51"/>
       <use x="63.623047" xlink:href="#DejaVuSans-48"/>
      </g>
     </g>
    </g>
    <g id="text_8">
     <!-- Number of threads -->
     <defs>
      <path d="M 9.8125 72.90625 
L 23.09375 72.90625 
L 55.421875 11.921875 
L 55.421875 72.90625 
L 64.984375 72.90625 
L 64.984375 0 
L 51.703125 0 
L 19.390625 60.984375 
L 19.390625 0 
L 9.8125 0 
z
" id="DejaVuSans-78"/>
      <path d="M 8.5 21.578125 
L 8.5 54.6875 
L 17.484375 54.6875 
L 17.484375 21.921875 
Q 17.484375 14.15625 20.5 10.265625 
Q 23.53125 6.390625 29.59375 6.390625 
Q 36.859375 6.390625 41.078125 11.03125 
Q 45.3125 15.671875 45.3125 23.6875 
L 45.3125 54.6875 
L 54.296875 54.6875 
L 54.296875 0 
L 45.3125 0 
L 45.3125 8.40625 
Q 42.046875 3.421875 37.71875 1 
Q 33.40625 -1.421875 27.6875 -1.421875 
Q 18.265625 -1.421875 13.375 4.4375 
Q 8.5 10.296875 8.5 21.578125 
z
M 31.109375 56 
z
" id="DejaVuSans-117"/>
      <path d="M 52 44.1875 
Q 55.375 50.25 60.0625 53.125 
Q 64.75 56 71.09375 56 
Q 79.640625 56 84.28125 50.015625 
Q 88.921875 44.046875 88.921875 33.015625 
L 88.921875 0 
L 79.890625 0 
L 79.890625 32.71875 
Q 79.890625 40.578125 77.09375 44.375 
Q 74.3125 48.1875 68.609375 48.1875 
Q 61.625 48.1875 57.5625 43.546875 
Q 53.515625 38.921875 53.515625 30.90625 
L 53.515625 0 
L 44.484375 0 
L 44.484375 32.71875 
Q 44.484375 40.625 41.703125 44.40625 
Q 38.921875 48.1875 33.109375 48.1875 
Q 26.21875 48.1875 22.15625 43.53125 
Q 18.109375 38.875 18.109375 30.90625 
L 18.109375 0 
L 9.078125 0 
L 9.078125 54.6875 
L 18.109375 54.6875 
L 18.109375 46.1875 
Q 21.1875 51.21875 25.484375 53.609375 
Q 29.78125 56 35.6875 56 
Q 41.65625 56 45.828125 52.96875 
Q 50 49.953125 52 44.1875 
z
" id="DejaVuSans-109"/>
      <path d="M 48.6875 27.296875 
Q 48.6875 37.203125 44.609375 42.84375 
Q 40.53125 48.484375 33.40625 48.484375 
Q 26.265625 48.484375 22.1875 42.84375 
Q 18.109375 37.203125 18.109375 27.296875 
Q 18.109375 17.390625 22.1875 11.75 
Q 26.265625 6.109375 33.40625 6.109375 
Q 40.53125 6.109375 44.609375 11.75 
Q 48.6875 17.390625 48.6875 27.296875 
z
M 18.109375 46.390625 
Q 20.953125 51.265625 25.265625 53.625 
Q 29.59375 56 35.59375 56 
Q 45.5625 56 51.78125 48.09375 
Q 58.015625 40.1875 58.015625 27.296875 
Q 58.015625 14.40625 51.78125 6.484375 
Q 45.5625 -1.421875 35.59375 -1.421875 
Q 29.59375 -1.421875 25.265625 0.953125 
Q 20.953125 3.328125 18.109375 8.203125 
L 18.109375 0 
L 9.078125 0 
L 9.078125 75.984375 
L 18.109375 75.984375 
z
" id="DejaVuSans-98"/>
      <path d="M 56.203125 29.59375 
L 56.203125 25.203125 
L 14.890625 25.203125 
Q 15.484375 15.921875 20.484375 11.0625 
Q 25.484375 6.203125 34.421875 6.203125 
Q 39.59375 6.203125 44.453125 7.46875 
Q 49.3125 8.734375 54.109375 11.28125 
L 54.109375 2.78125 
Q 49.265625 0.734375 44.1875 -0.34375 
Q 39.109375 -1.421875 33.890625 -1.421875 
Q 20.796875 -1.421875 13.15625 6.1875 
Q 5.515625 13.8125 5.515625 26.8125 
Q 5.515625 40.234375 12.765625 48.109375 
Q 20.015625 56 32.328125 56 
Q 43.359375 56 49.78125 48.890625 
Q 56.203125 41.796875 56.203125 29.59375 
z
M 47.21875 32.234375 
Q 47.125 39.59375 43.09375 43.984375 
Q 39.0625 48.390625 32.421875 48.390625 
Q 24.90625 48.390625 20.390625 44.140625 
Q 15.875 39.890625 15.1875 32.171875 
z
" id="DejaVuSans-101"/>
      <path d="M 41.109375 46.296875 
Q 39.59375 47.171875 37.8125 47.578125 
Q 36.03125 48 33.890625 48 
Q 26.265625 48 22.1875 43.046875 
Q 18.109375 38.09375 18.109375 28.8125 
L 18.109375 0 
L 9.078125 0 
L 9.078125 54.6875 
L 18.109375 54.6875 
L 18.109375 46.1875 
Q 20.953125 51.171875 25.484375 53.578125 
Q 30.03125 56 36.53125 56 
Q 37.453125 56 38.578125 55.875 
Q 39.703125 55.765625 41.0625 55.515625 
z
" id="DejaVuSans-114"/>
      <path id="DejaVuSans-32"/>
      <path d="M 30.609375 48.390625 
Q 23.390625 48.390625 19.1875 42.75 
Q 14.984375 37.109375 14.984375 27.296875 
Q 14.984375 17.484375 19.15625 11.84375 
Q 23.34375 6.203125 30.609375 6.203125 
Q 37.796875 6.203125 41.984375 11.859375 
Q 46.1875 17.53125 46.1875 27.296875 
Q 46.1875 37.015625 41.984375 42.703125 
Q 37.796875 48.390625 30.609375 48.390625 
z
M 30.609375 56 
Q 42.328125 56 49.015625 48.375 
Q 55.71875 40.765625 55.71875 27.296875 
Q 55.71875 13.875 49.015625 6.21875 
Q 42.328125 -1.421875 30.609375 -1.421875 
Q 18.84375 -1.421875 12.171875 6.21875 
Q 5.515625 13.875 5.515625 27.296875 
Q 5.515625 40.765625 12.171875 48.375 
Q 18.84375 56 30.609375 56 
z
" id="DejaVuSans-111"/>
      <path d="M 37.109375 75.984375 
L 37.109375 68.5 
L 28.515625 68.5 
Q 23.6875 68.5 21.796875 66.546875 
Q 19.921875 64.59375 19.921875 59.515625 
L 19.921875 54.6875 
L 34.71875 54.6875 
L 34.71875 47.703125 
L 19.921875 47.703125 
L 19.921875 0 
L 10.890625 0 
L 10.890625 47.703125 
L 2.296875 47.703125 
L 2.296875 54.6875 
L 10.890625 54.6875 
L 10.890625 58.5 
Q 10.890625 67.625 15.140625 71.796875 
Q 19.390625 75.984375 28.609375 75.984375 
z
" id="DejaVuSans-102"/>
      <path d="M 18.3125 70.21875 
L 18.3125 54.6875 
L 36.8125 54.6875 
L 36.8125 47.703125 
L 18.3125 47.703125 
L 18.3125 18.015625 
Q 18.3125 11.328125 20.140625 9.421875 
Q 21.96875 7.515625 27.59375 7.515625 
L 36.8125 7.515625 
L 36.8125 0 
L 27.59375 0 
Q 17.1875 0 13.234375 3.875 
Q 9.28125 7.765625 9.28125 18.015625 
L 9.28125 47.703125 
L 2.6875 47.703125 
L 2.6875 54.6875 
L 9.28125 54.6875 
L 9.28125 70.21875 
z
" id="DejaVuSans-116"/>
      <path d="M 54.890625 33.015625 
L 54.890625 0 
L 45.90625 0 
L 45.90625 32.71875 
Q 45.90625 40.484375 42.875 44.328125 
Q 39.84375 48.1875 33.796875 48.1875 
Q 26.515625 48.1875 22.3125 43.546875 
Q 18.109375 38.921875 18.109375 30.90625 
L 18.109375 0 
L 9.078125 0 
L 9.078125 75.984375 
L 18.109375 75.984375 
L 18.109375 46.1875 
Q 21.34375 51.125 25.703125 53.5625 
Q 30.078125 56 35.796875 56 
Q 45.21875 56 50.046875 50.171875 
Q 54.890625 44.34375 54.890625 33.015625 
z
" id="DejaVuSans-104"/>
      <path d="M 34.28125 27.484375 
Q 23.390625 27.484375 19.1875 25 
Q 14.984375 22.515625 14.984375 16.5 
Q 14.984375 11.71875 18.140625 8.90625 
Q 21.296875 6.109375 26.703125 6.109375 
Q 34.1875 6.109375 38.703125 11.40625 
Q 43.21875 16.703125 43.21875 25.484375 
L 43.21875 27.484375 
z
M 52.203125 31.203125 
L 52.203125 0 
L 43.21875 0 
L 43.21875 8.296875 
Q 40.140625 3.328125 35.546875 0.953125 
Q 30.953125 -1.421875 24.3125 -1.421875 
Q 15.921875 -1.421875 10.953125 3.296875 
Q 6 8.015625 6 15.921875 
Q 6 25.140625 12.171875 29.828125 
Q 18.359375 34.515625 30.609375 34.515625 
L 43.21875 34.515625 
L 43.21875 35.40625 
Q 43.21875 41.609375 39.140625 45 
Q 35.0625 48.390625 27.6875 48.390625 
Q 23 48.390625 18.546875 47.265625 
Q 14.109375 46.140625 10.015625 43.890625 
L 10.015625 52.203125 
Q 14.9375 54.109375 19.578125 55.046875 
Q 24.21875 56 28.609375 56 
Q 40.484375 56 46.34375 49.84375 
Q 52.203125 43.703125 52.203125 31.203125 
z
" id="DejaVuSans-97"/>
      <path d="M 45.40625 46.390625 
L 45.40625 75.984375 
L 54.390625 75.984375 
L 54.390625 0 
L 45.40625 0 
L 45.40625 8.203125 
Q 42.578125 3.328125 38.25 0.953125 
Q 33.9375 -1.421875 27.875 -1.421875 
Q 17.96875 -1.421875 11.734375 6.484375 
Q 5.515625 14.40625 5.515625 27.296875 
Q 5.515625 40.1875 11.734375 48.09375 
Q 17.96875 56 27.875 56 
Q 33.9375 56 38.25 53.625 
Q 42.578125 51.265625 45.40625 46.390625 
z
M 14.796875 27.296875 
Q 14.796875 17.390625 18.875 11.75 
Q 22.953125 6.109375 30.078125 6.109375 
Q 37.203125 6.109375 41.296875 11.75 
Q 45.40625 17.390625 45.40625 27.296875 
Q 45.40625 37.203125 41.296875 42.84375 
Q 37.203125 48.484375 30.078125 48.484375 
Q 22.953125 48.484375 18.875 42.84375 
Q 14.796875 37.203125 14.796875 27.296875 
z
" id="DejaVuSans-100"/>
      <path d="M 44.28125 53.078125 
L 44.28125 44.578125 
Q 40.484375 46.53125 36.375 47.5 
Q 32.28125 48.484375 27.875 48.484375 
Q 21.1875 48.484375 17.84375 46.4375 
Q 14.5 44.390625 14.5 40.28125 
Q 14.5 37.15625 16.890625 35.375 
Q 19.28125 33.59375 26.515625 31.984375 
L 29.59375 31.296875 
Q 39.15625 29.25 43.1875 25.515625 
Q 47.21875 21.78125 47.21875 15.09375 
Q 47.21875 7.46875 41.1875 3.015625 
Q 35.15625 -1.421875 24.609375 -1.421875 
Q 20.21875 -1.421875 15.453125 -0.5625 
Q 10.6875 0.296875 5.421875 2 
L 5.421875 11.28125 
Q 10.40625 8.6875 15.234375 7.390625 
Q 20.0625 6.109375 24.8125 6.109375 
Q 31.15625 6.109375 34.5625 8.28125 
Q 37.984375 10.453125 37.984375 14.40625 
Q 37.984375 18.0625 35.515625 20.015625 
Q 33.0625 21.96875 24.703125 23.78125 
L 21.578125 24.515625 
Q 13.234375 26.265625 9.515625 29.90625 
Q 5.8125 33.546875 5.8125 39.890625 
Q 5.8125 47.609375 11.28125 51.796875 
Q 16.75 56 26.8125 56 
Q 31.78125 56 36.171875 55.265625 
Q 40.578125 54.546875 44.28125 53.078125 
z
" id="DejaVuSans-115"/>
     </defs>
     <g transform="translate(425.134062 489.011763)scale(0.1 -0.1)">
      <use xlink:href="#DejaVuSans-78"/>
      <use x="74.804688" xlink:href="#DejaVuSans-117"/>
      <use x="138.183594" xlink:href="#DejaVuSans-109"/>
      <use x="235.595703" xlink:href="#DejaVuSans-98"/>
      <use x="299.072266" xlink:href="#DejaVuSans-101"/>
      <use x="360.595703" xlink:href="#DejaVuSans-114"/>
      <use x="401.708984" xlink:href="#DejaVuSans-32"/>
      <use x="433.496094" xlink:href="#DejaVuSans-111"/>
      <use x="494.677734" xlink:href="#DejaVuSans-102"/>
      <use x="529.882812" xlink:href="#DejaVuSans-32"/>
      <use x="561.669922" xlink:href="#DejaVuSans-116"/>
      <use x="600.878906" xlink:href="#DejaVuSans-104"/>
      <use x="664.257812" xlink:href="#DejaVuSans-114"/>
      <use x="705.339844" xlink:href="#DejaVuSans-101"/>
      <use x="766.863281" xlink:href="#DejaVuSans-97"/>
      <use x="828.142578" xlink:href="#DejaVuSans-100"/>
      <use x="891.619141" xlink:href="#DejaVuSans-115"/>
     </g>
    </g>
   </g>
   <g id="matplotlib.axis_2">
    <g id="ytick_1">
     <g id="line2d_8">
      <defs>
       <path d="M 0 0 
L -3.5 0 
" id="m29b4bf8123" style="stroke:#000000;stroke-width:0.8;"/>
      </defs>
      <g>
       <use style="stroke:#000000;stroke-width:0.8;" x="115.2" xlink:href="#m29b4bf8123" y="454.305948"/>
      </g>
     </g>
     <g id="text_9">
      <!-- 0 -->
      <g transform="translate(101.8375 458.105167)scale(0.1 -0.1)">
       <use xlink:href="#DejaVuSans-48"/>
      </g>
     </g>
    </g>
    <g id="ytick_2">
     <g id="line2d_9">
      <g>
       <use style="stroke:#000000;stroke-width:0.8;" x="115.2" xlink:href="#m29b4bf8123" y="395.858206"/>
      </g>
     </g>
     <g id="text_10">
      <!-- 5 -->
      <g transform="translate(101.8375 399.657425)scale(0.1 -0.1)">
       <use xlink:href="#DejaVuSans-53"/>
      </g>
     </g>
    </g>
    <g id="ytick_3">
     <g id="line2d_10">
      <g>
       <use style="stroke:#000000;stroke-width:0.8;" x="115.2" xlink:href="#m29b4bf8123" y="337.410465"/>
      </g>
     </g>
     <g id="text_11">
      <!-- 10 -->
      <g transform="translate(95.475 341.209683)scale(0.1 -0.1)">
       <use xlink:href="#DejaVuSans-49"/>
       <use x="63.623047" xlink:href="#DejaVuSans-48"/>
      </g>
     </g>
    </g>
    <g id="ytick_4">
     <g id="line2d_11">
      <g>
       <use style="stroke:#000000;stroke-width:0.8;" x="115.2" xlink:href="#m29b4bf8123" y="278.962723"/>
      </g>
     </g>
     <g id="text_12">
      <!-- 15 -->
      <g transform="translate(95.475 282.761941)scale(0.1 -0.1)">
       <use xlink:href="#DejaVuSans-49"/>
       <use x="63.623047" xlink:href="#DejaVuSans-53"/>
      </g>
     </g>
    </g>
    <g id="ytick_5">
     <g id="line2d_12">
      <g>
       <use style="stroke:#000000;stroke-width:0.8;" x="115.2" xlink:href="#m29b4bf8123" y="220.514981"/>
      </g>
     </g>
     <g id="text_13">
      <!-- 20 -->
      <g transform="translate(95.475 224.314199)scale(0.1 -0.1)">
       <use xlink:href="#DejaVuSans-50"/>
       <use x="63.623047" xlink:href="#DejaVuSans-48"/>
      </g>
     </g>
    </g>
    <g id="ytick_6">
     <g id="line2d_13">
      <g>
       <use style="stroke:#000000;stroke-width:0.8;" x="115.2" xlink:href="#m29b4bf8123" y="162.067239"/>
      </g>
     </g>
     <g id="text_14">
      <!-- 25 -->
      <g transform="translate(95.475 165.866457)scale(0.1 -0.1)">
       <use xlink:href="#DejaVuSans-50"/>
       <use x="63.623047" xlink:href="#DejaVuSans-53"/>
      </g>
     </g>
    </g>
    <g id="ytick_7">
     <g id="line2d_14">
      <g>
       <use style="stroke:#000000;stroke-width:0.8;" x="115.2" xlink:href="#m29b4bf8123" y="103.619497"/>
      </g>
     </g>
     <g id="text_15">
      <!-- 30 -->
      <g transform="translate(95.475 107.418716)scale(0.1 -0.1)">
       <use xlink:href="#DejaVuSans-51"/>
       <use x="63.623047" xlink:href="#DejaVuSans-48"/>
      </g>
     </g>
    </g>
    <g id="text_16">
     <!-- Speedup vs single thread -->
     <defs>
      <path d="M 53.515625 70.515625 
L 53.515625 60.890625 
Q 47.90625 63.578125 42.921875 64.890625 
Q 37.9375 66.21875 33.296875 66.21875 
Q 25.25 66.21875 20.875 63.09375 
Q 16.5 59.96875 16.5 54.203125 
Q 16.5 49.359375 19.40625 46.890625 
Q 22.3125 44.4375 30.421875 42.921875 
L 36.375 41.703125 
Q 47.40625 39.59375 52.65625 34.296875 
Q 57.90625 29 57.90625 20.125 
Q 57.90625 9.515625 50.796875 4.046875 
Q 43.703125 -1.421875 29.984375 -1.421875 
Q 24.8125 -1.421875 18.96875 -0.25 
Q 13.140625 0.921875 6.890625 3.21875 
L 6.890625 13.375 
Q 12.890625 10.015625 18.65625 8.296875 
Q 24.421875 6.59375 29.984375 6.59375 
Q 38.421875 6.59375 43.015625 9.90625 
Q 47.609375 13.234375 47.609375 19.390625 
Q 47.609375 24.75 44.3125 27.78125 
Q 41.015625 30.8125 33.5 32.328125 
L 27.484375 33.5 
Q 16.453125 35.6875 11.515625 40.375 
Q 6.59375 45.0625 6.59375 53.421875 
Q 6.59375 63.09375 13.40625 68.65625 
Q 20.21875 74.21875 32.171875 74.21875 
Q 37.3125 74.21875 42.625 73.28125 
Q 47.953125 72.359375 53.515625 70.515625 
z
" id="DejaVuSans-83"/>
      <path d="M 18.109375 8.203125 
L 18.109375 -20.796875 
L 9.078125 -20.796875 
L 9.078125 54.6875 
L 18.109375 54.6875 
L 18.109375 46.390625 
Q 20.953125 51.265625 25.265625 53.625 
Q 29.59375 56 35.59375 56 
Q 45.5625 56 51.78125 48.09375 
Q 58.015625 40.1875 58.015625 27.296875 
Q 58.015625 14.40625 51.78125 6.484375 
Q 45.5625 -1.421875 35.59375 -1.421875 
Q 29.59375 -1.421875 25.265625 0.953125 
Q 20.953125 3.328125 18.109375 8.203125 
z
M 48.6875 27.296875 
Q 48.6875 37.203125 44.609375 42.84375 
Q 40.53125 48.484375 33.40625 48.484375 
Q 26.265625 48.484375 22.1875 42.84375 
Q 18.109375 37.203125 18.109375 27.296875 
Q 18.109375 17.390625 22.1875 11.75 
Q 26.265625 6.109375 33.40625 6.109375 
Q 40.53125 6.109375 44.609375 11.75 
Q 48.6875 17.390625 48.6875 27.296875 
z
" id="DejaVuSans-112"/>
      <path d="M 2.984375 54.6875 
L 12.5 54.6875 
L 29.59375 8.796875 
L 46.6875 54.6875 
L 56.203125 54.6875 
L 35.6875 0 
L 23.484375 0 
z
" id="DejaVuSans-118"/>
      <path d="M 9.421875 54.6875 
L 18.40625 54.6875 
L 18.40625 0 
L 9.421875 0 
z
M 9.421875 75.984375 
L 18.40625 75.984375 
L 18.40625 64.59375 
L 9.421875 64.59375 
z
" id="DejaVuSans-105"/>
      <path d="M 54.890625 33.015625 
L 54.890625 0 
L 45.90625 0 
L 45.90625 32.71875 
Q 45.90625 40.484375 42.875 44.328125 
Q 39.84375 48.1875 33.796875 48.1875 
Q 26.515625 48.1875 22.3125 43.546875 
Q 18.109375 38.921875 18.109375 30.90625 
L 18.109375 0 
L 9.078125 0 
L 9.078125 54.6875 
L 18.109375 54.6875 
L 18.109375 46.1875 
Q 21.34375 51.125 25.703125 53.5625 
Q 30.078125 56 35.796875 56 
Q 45.21875 56 50.046875 50.171875 
Q 54.890625 44.34375 54.890625 33.015625 
z
" id="DejaVuSans-110"/>
      <path d="M 45.40625 27.984375 
Q 45.40625 37.75 41.375 43.109375 
Q 37.359375 48.484375 30.078125 48.484375 
Q 22.859375 48.484375 18.828125 43.109375 
Q 14.796875 37.75 14.796875 27.984375 
Q 14.796875 18.265625 18.828125 12.890625 
Q 22.859375 7.515625 30.078125 7.515625 
Q 37.359375 7.515625 41.375 12.890625 
Q 45.40625 18.265625 45.40625 27.984375 
z
M 54.390625 6.78125 
Q 54.390625 -7.171875 48.1875 -13.984375 
Q 42 -20.796875 29.203125 -20.796875 
Q 24.46875 -20.796875 20.265625 -20.09375 
Q 16.0625 -19.390625 12.109375 -17.921875 
L 12.109375 -9.1875 
Q 16.0625 -11.328125 19.921875 -12.34375 
Q 23.78125 -13.375 27.78125 -13.375 
Q 36.625 -13.375 41.015625 -8.765625 
Q 45.40625 -4.15625 45.40625 5.171875 
L 45.40625 9.625 
Q 42.625 4.78125 38.28125 2.390625 
Q 33.9375 0 27.875 0 
Q 17.828125 0 11.671875 7.65625 
Q 5.515625 15.328125 5.515625 27.984375 
Q 5.515625 40.671875 11.671875 48.328125 
Q 17.828125 56 27.875 56 
Q 33.9375 56 38.28125 53.609375 
Q 42.625 51.21875 45.40625 46.390625 
L 45.40625 54.6875 
L 54.390625 54.6875 
z
" id="DejaVuSans-103"/>
      <path d="M 9.421875 75.984375 
L 18.40625 75.984375 
L 18.40625 0 
L 9.421875 0 
z
" id="DejaVuSans-108"/>
     </defs>
     <g transform="translate(89.395312 325.0784)rotate(-90)scale(0.1 -0.1)">
      <use xlink:href="#DejaVuSans-83"/>
      <use x="63.476562" xlink:href="#DejaVuSans-112"/>
      <use x="126.953125" xlink:href="#DejaVuSans-101"/>
      <use x="188.476562" xlink:href="#DejaVuSans-101"/>
      <use x="250" xlink:href="#DejaVuSans-100"/>
      <use x="313.476562" xlink:href="#DejaVuSans-117"/>
      <use x="376.855469" xlink:href="#DejaVuSans-112"/>
      <use x="440.332031" xlink:href="#DejaVuSans-32"/>
      <use x="472.119141" xlink:href="#DejaVuSans-118"/>
      <use x="531.298828" xlink:href="#DejaVuSans-115"/>
      <use x="583.398438" xlink:href="#DejaVuSans-32"/>
      <use x="615.185547" xlink:href="#DejaVuSans-115"/>
      <use x="667.285156" xlink:href="#DejaVuSans-105"/>
      <use x="695.068359" xlink:href="#DejaVuSans-110"/>
      <use x="758.447266" xlink:href="#DejaVuSans-103"/>
      <use x="821.923828" xlink:href="#DejaVuSans-108"/>
      <use x="849.707031" xlink:href="#DejaVuSans-101"/>
      <use x="911.230469" xlink:href="#DejaVuSans-32"/>
      <use x="943.017578" xlink:href="#DejaVuSans-116"/>
      <use x="982.226562" xlink:href="#DejaVuSans-104"/>
      <use x="1045.605469" xlink:href="#DejaVuSans-114"/>
      <use x="1086.6875" xlink:href="#DejaVuSans-101"/>
      <use x="1148.210938" xlink:href="#DejaVuSans-97"/>
      <use x="1209.490234" xlink:href="#DejaVuSans-100"/>
     </g>
    </g>
   </g>
   <g id="line2d_15">
    <path clip-path="url(#pdf0adc6446)" d="M 147.665455 442.6164 
L 168.610909 430.926852 
L 189.556364 419.237303 
L 210.501818 407.547755 
L 231.447273 395.858206 
L 252.392727 384.168658 
L 273.338182 372.47911 
L 294.283636 360.789561 
L 315.229091 349.100013 
L 336.174545 337.410465 
L 357.12 325.720916 
L 378.065455 314.031368 
L 399.010909 302.341819 
L 419.956364 290.652271 
L 440.901818 278.962723 
L 461.847273 267.273174 
L 482.792727 255.583626 
L 503.738182 243.894077 
L 524.683636 232.204529 
L 545.629091 220.514981 
L 566.574545 208.825432 
L 587.52 197.135884 
L 608.465455 185.446335 
L 629.410909 173.756787 
L 650.356364 162.067239 
L 671.301818 150.37769 
L 692.247273 138.688142 
L 713.192727 126.998594 
L 734.138182 115.309045 
L 755.083636 103.619497 
L 776.029091 91.929948 
L 796.974545 80.2404 
" style="fill:none;stroke:#000000;stroke-linecap:square;"/>
    <defs>
     <path d="M 0 2.5 
C 0.663008 2.5 1.29895 2.236584 1.767767 1.767767 
C 2.236584 1.29895 2.5 0.663008 2.5 0 
C 2.5 -0.663008 2.236584 -1.29895 1.767767 -1.767767 
C 1.29895 -2.236584 0.663008 -2.5 0 -2.5 
C -0.663008 -2.5 -1.29895 -2.236584 -1.767767 -1.767767 
C -2.236584 -1.29895 -2.5 -0.663008 -2.5 0 
C -2.5 0.663008 -2.236584 1.29895 -1.767767 1.767767 
C -1.29895 2.236584 -0.663008 2.5 0 2.5 
z
" id="m7e1ea40eb8" style="stroke:#000000;"/>
    </defs>
    <g clip-path="url(#pdf0adc6446)">
     <use style="stroke:#000000;" x="147.665455" xlink:href="#m7e1ea40eb8" y="442.6164"/>
     <use style="stroke:#000000;" x="168.610909" xlink:href="#m7e1ea40eb8" y="430.926852"/>
     <use style="stroke:#000000;" x="189.556364" xlink:href="#m7e1ea40eb8" y="419.237303"/>
     <use style="stroke:#000000;" x="210.501818" xlink:href="#m7e1ea40eb8" y="407.547755"/>
     <use style="stroke:#000000;" x="231.447273" xlink:href="#m7e1ea40eb8" y="395.858206"/>
     <use style="stroke:#000000;" x="252.392727" xlink:href="#m7e1ea40eb8" y="384.168658"/>
     <use style="stroke:#000000;" x="273.338182" xlink:href="#m7e1ea40eb8" y="372.47911"/>
     <use style="stroke:#000000;" x="294.283636" xlink:href="#m7e1ea40eb8" y="360.789561"/>
     <use style="stroke:#000000;" x="315.229091" xlink:href="#m7e1ea40eb8" y="349.100013"/>
     <use style="stroke:#000000;" x="336.174545" xlink:href="#m7e1ea40eb8" y="337.410465"/>
     <use style="stroke:#000000;" x="357.12" xlink:href="#m7e1ea40eb8" y="325.720916"/>
     <use style="stroke:#000000;" x="378.065455" xlink:href="#m7e1ea40eb8" y="314.031368"/>
     <use style="stroke:#000000;" x="399.010909" xlink:href="#m7e1ea40eb8" y="302.341819"/>
     <use style="stroke:#000000;" x="419.956364" xlink:href="#m7e1ea40eb8" y="290.652271"/>
     <use style="stroke:#000000;" x="440.901818" xlink:href="#m7e1ea40eb8" y="278.962723"/>
     <use style="stroke:#000000;" x="461.847273" xlink:href="#m7e1ea40eb8" y="267.273174"/>
     <use style="stroke:#000000;" x="482.792727" xlink:href="#m7e1ea40eb8" y="255.583626"/>
     <use style="stroke:#000000;" x="503.738182" xlink:href="#m7e1ea40eb8" y="243.894077"/>
     <use style="stroke:#000000;" x="524.683636" xlink:href="#m7e1ea40eb8" y="232.204529"/>
     <use style="stroke:#000000;" x="545.629091" xlink:href="#m7e1ea40eb8" y="220.514981"/>
     <use style="stroke:#000000;" x="566.574545" xlink:href="#m7e1ea40eb8" y="208.825432"/>
     <use style="stroke:#000000;" x="587.52" xlink:href="#m7e1ea40eb8" y="197.135884"/>
     <use style="stroke:#000000;" x="608.465455" xlink:href="#m7e1ea40eb8" y="185.446335"/>
     <use style="stroke:#000000;" x="629.410909" xlink:href="#m7e1ea40eb8" y="173.756787"/>
     <use style="stroke:#000000;" x="650.356364" xlink:href="#m7e1ea40eb8" y="162.067239"/>
     <use style="stroke:#000000;" x="671.301818" xlink:href="#m7e1ea40eb8" y="150.37769"/>
     <use style="stroke:#000000;" x="692.247273" xlink:href="#m7e1ea40eb8" y="138.688142"/>
     <use style="stroke:#000000;" x="713.192727" xlink:href="#m7e1ea40eb8" y="126.998594"/>
     <use style="stroke:#000000;" x="734.138182" xlink:href="#m7e1ea40eb8" y="115.309045"/>
     <use style="stroke:#000000;" x="755.083636" xlink:href="#m7e1ea40eb8" y="103.619497"/>
     <use style="stroke:#000000;" x="776.029091" xlink:href="#m7e1ea40eb8" y="91.929948"/>
     <use style="stroke:#000000;" x="796.974545" xlink:href="#m7e1ea40eb8" y="80.2404"/>
    </g>
   </g>
   <g id="line2d_16">
    <path clip-path="url(#pdf0adc6446)" d="M 147.665455 442.6164 
L 168.610909 434.813665 
L 189.556364 428.616564 
L 210.501818 422.725774 
L 231.447273 420.980074 
L 252.392727 415.302761 
L 273.338182 410.952321 
L 294.283636 407.701028 
L 315.229091 404.987994 
L 336.174545 401.589617 
L 357.12 397.870944 
L 378.065455 394.488946 
L 399.010909 392.674102 
L 419.956364 390.339835 
L 440.901818 387.981021 
L 461.847273 386.257885 
L 482.792727 383.464975 
L 503.738182 381.564312 
L 524.683636 380.544712 
L 545.629091 378.348517 
L 566.574545 377.962308 
L 587.52 375.724559 
L 608.465455 374.121457 
L 629.410909 372.66169 
L 650.356364 371.75613 
L 671.301818 371.432408 
L 692.247273 369.153065 
L 713.192727 368.756759 
L 734.138182 368.356115 
L 755.083636 367.038377 
L 776.029091 364.999158 
L 796.974545 364.527891 
" style="fill:none;stroke:#0652ff;stroke-linecap:square;"/>
    <defs>
     <path d="M -2.5 0 
L 2.5 0 
M 0 2.5 
L 0 -2.5 
" id="m6597b202ee" style="stroke:#0652ff;"/>
    </defs>
    <g clip-path="url(#pdf0adc6446)">
     <use style="fill:#0652ff;stroke:#0652ff;" x="147.665455" xlink:href="#m6597b202ee" y="442.6164"/>
     <use style="fill:#0652ff;stroke:#0652ff;" x="168.610909" xlink:href="#m6597b202ee" y="434.813665"/>
     <use style="fill:#0652ff;stroke:#0652ff;" x="189.556364" xlink:href="#m6597b202ee" y="428.616564"/>
     <use style="fill:#0652ff;stroke:#0652ff;" x="210.501818" xlink:href="#m6597b202ee" y="422.725774"/>
     <use style="fill:#0652ff;stroke:#0652ff;" x="231.447273" xlink:href="#m6597b202ee" y="420.980074"/>
     <use style="fill:#0652ff;stroke:#0652ff;" x="252.392727" xlink:href="#m6597b202ee" y="415.302761"/>
     <use style="fill:#0652ff;stroke:#0652ff;" x="273.338182" xlink:href="#m6597b202ee" y="410.952321"/>
     <use style="fill:#0652ff;stroke:#0652ff;" x="294.283636" xlink:href="#m6597b202ee" y="407.701028"/>
     <use style="fill:#0652ff;stroke:#0652ff;" x="315.229091" xlink:href="#m6597b202ee" y="404.987994"/>
     <use style="fill:#0652ff;stroke:#0652ff;" x="336.174545" xlink:href="#m6597b202ee" y="401.589617"/>
     <use style="fill:#0652ff;stroke:#0652ff;" x="357.12" xlink:href="#m6597b202ee" y="397.870944"/>
     <use style="fill:#0652ff;stroke:#0652ff;" x="378.065455" xlink:href="#m6597b202ee" y="394.488946"/>
     <use style="fill:#0652ff;stroke:#0652ff;" x="399.010909" xlink:href="#m6597b202ee" y="392.674102"/>
     <use style="fill:#0652ff;stroke:#0652ff;" x="419.956364" xlink:href="#m6597b202ee" y="390.339835"/>
     <use style="fill:#0652ff;stroke:#0652ff;" x="440.901818" xlink:href="#m6597b202ee" y="387.981021"/>
     <use style="fill:#0652ff;stroke:#0652ff;" x="461.847273" xlink:href="#m6597b202ee" y="386.257885"/>
     <use style="fill:#0652ff;stroke:#0652ff;" x="482.792727" xlink:href="#m6597b202ee" y="383.464975"/>
     <use style="fill:#0652ff;stroke:#0652ff;" x="503.738182" xlink:href="#m6597b202ee" y="381.564312"/>
     <use style="fill:#0652ff;stroke:#0652ff;" x="524.683636" xlink:href="#m6597b202ee" y="380.544712"/>
     <use style="fill:#0652ff;stroke:#0652ff;" x="545.629091" xlink:href="#m6597b202ee" y="378.348517"/>
     <use style="fill:#0652ff;stroke:#0652ff;" x="566.574545" xlink:href="#m6597b202ee" y="377.962308"/>
     <use style="fill:#0652ff;stroke:#0652ff;" x="587.52" xlink:href="#m6597b202ee" y="375.724559"/>
     <use style="fill:#0652ff;stroke:#0652ff;" x="608.465455" xlink:href="#m6597b202ee" y="374.121457"/>
     <use style="fill:#0652ff;stroke:#0652ff;" x="629.410909" xlink:href="#m6597b202ee" y="372.66169"/>
     <use style="fill:#0652ff;stroke:#0652ff;" x="650.356364" xlink:href="#m6597b202ee" y="371.75613"/>
     <use style="fill:#0652ff;stroke:#0652ff;" x="671.301818" xlink:href="#m6597b202ee" y="371.432408"/>
     <use style="fill:#0652ff;stroke:#0652ff;" x="692.247273" xlink:href="#m6597b202ee" y="369.153065"/>
     <use style="fill:#0652ff;stroke:#0652ff;" x="713.192727" xlink:href="#m6597b202ee" y="368.756759"/>
     <use style="fill:#0652ff;stroke:#0652ff;" x="734.138182" xlink:href="#m6597b202ee" y="368.356115"/>
     <use style="fill:#0652ff;stroke:#0652ff;" x="755.083636" xlink:href="#m6597b202ee" y="367.038377"/>
     <use style="fill:#0652ff;stroke:#0652ff;" x="776.029091" xlink:href="#m6597b202ee" y="364.999158"/>
     <use style="fill:#0652ff;stroke:#0652ff;" x="796.974545" xlink:href="#m6597b202ee" y="364.527891"/>
    </g>
   </g>
   <g id="line2d_17">
    <path clip-path="url(#pdf0adc6446)" d="M 147.665455 442.6164 
L 168.610909 432.905493 
L 189.556364 424.173285 
L 210.501818 414.766272 
L 231.447273 408.751168 
L 252.392727 400.328605 
L 273.338182 393.402338 
L 294.283636 385.615491 
L 315.229091 381.228743 
L 336.174545 373.306361 
L 357.12 367.664166 
L 378.065455 367.012245 
L 399.010909 363.796835 
L 419.956364 359.888577 
L 440.901818 355.683399 
L 461.847273 352.260849 
L 482.792727 348.36281 
L 503.738182 343.91947 
L 524.683636 339.073535 
L 545.629091 335.590205 
L 566.574545 339.011076 
L 587.52 331.869909 
L 608.465455 331.229111 
L 629.410909 330.104774 
L 650.356364 326.274075 
L 671.301818 325.19499 
L 692.247273 333.249096 
L 713.192727 322.602296 
L 734.138182 334.87896 
L 755.083636 323.035941 
L 776.029091 324.533618 
L 796.974545 321.093796 
" style="fill:none;stroke:#0cff0c;stroke-linecap:square;"/>
    <defs>
     <path d="M -2.5 2.5 
L 2.5 -2.5 
M -2.5 -2.5 
L 2.5 2.5 
" id="ma09cbfd44f" style="stroke:#0cff0c;"/>
    </defs>
    <g clip-path="url(#pdf0adc6446)">
     <use style="fill:#0cff0c;stroke:#0cff0c;" x="147.665455" xlink:href="#ma09cbfd44f" y="442.6164"/>
     <use style="fill:#0cff0c;stroke:#0cff0c;" x="168.610909" xlink:href="#ma09cbfd44f" y="432.905493"/>
     <use style="fill:#0cff0c;stroke:#0cff0c;" x="189.556364" xlink:href="#ma09cbfd44f" y="424.173285"/>
     <use style="fill:#0cff0c;stroke:#0cff0c;" x="210.501818" xlink:href="#ma09cbfd44f" y="414.766272"/>
     <use style="fill:#0cff0c;stroke:#0cff0c;" x="231.447273" xlink:href="#ma09cbfd44f" y="408.751168"/>
     <use style="fill:#0cff0c;stroke:#0cff0c;" x="252.392727" xlink:href="#ma09cbfd44f" y="400.328605"/>
     <use style="fill:#0cff0c;stroke:#0cff0c;" x="273.338182" xlink:href="#ma09cbfd44f" y="393.402338"/>
     <use style="fill:#0cff0c;stroke:#0cff0c;" x="294.283636" xlink:href="#ma09cbfd44f" y="385.615491"/>
     <use style="fill:#0cff0c;stroke:#0cff0c;" x="315.229091" xlink:href="#ma09cbfd44f" y="381.228743"/>
     <use style="fill:#0cff0c;stroke:#0cff0c;" x="336.174545" xlink:href="#ma09cbfd44f" y="373.306361"/>
     <use style="fill:#0cff0c;stroke:#0cff0c;" x="357.12" xlink:href="#ma09cbfd44f" y="367.664166"/>
     <use style="fill:#0cff0c;stroke:#0cff0c;" x="378.065455" xlink:href="#ma09cbfd44f" y="367.012245"/>
     <use style="fill:#0cff0c;stroke:#0cff0c;" x="399.010909" xlink:href="#ma09cbfd44f" y="363.796835"/>
     <use style="fill:#0cff0c;stroke:#0cff0c;" x="419.956364" xlink:href="#ma09cbfd44f" y="359.888577"/>
     <use style="fill:#0cff0c;stroke:#0cff0c;" x="440.901818" xlink:href="#ma09cbfd44f" y="355.683399"/>
     <use style="fill:#0cff0c;stroke:#0cff0c;" x="461.847273" xlink:href="#ma09cbfd44f" y="352.260849"/>
     <use style="fill:#0cff0c;stroke:#0cff0c;" x="482.792727" xlink:href="#ma09cbfd44f" y="348.36281"/>
     <use style="fill:#0cff0c;stroke:#0cff0c;" x="503.738182" xlink:href="#ma09cbfd44f" y="343.91947"/>
     <use style="fill:#0cff0c;stroke:#0cff0c;" x="524.683636" xlink:href="#ma09cbfd44f" y="339.073535"/>
     <use style="fill:#0cff0c;stroke:#0cff0c;" x="545.629091" xlink:href="#ma09cbfd44f" y="335.590205"/>
     <use style="fill:#0cff0c;stroke:#0cff0c;" x="566.574545" xlink:href="#ma09cbfd44f" y="339.011076"/>
     <use style="fill:#0cff0c;stroke:#0cff0c;" x="587.52" xlink:href="#ma09cbfd44f" y="331.869909"/>
     <use style="fill:#0cff0c;stroke:#0cff0c;" x="608.465455" xlink:href="#ma09cbfd44f" y="331.229111"/>
     <use style="fill:#0cff0c;stroke:#0cff0c;" x="629.410909" xlink:href="#ma09cbfd44f" y="330.104774"/>
     <use style="fill:#0cff0c;stroke:#0cff0c;" x="650.356364" xlink:href="#ma09cbfd44f" y="326.274075"/>
     <use style="fill:#0cff0c;stroke:#0cff0c;" x="671.301818" xlink:href="#ma09cbfd44f" y="325.19499"/>
     <use style="fill:#0cff0c;stroke:#0cff0c;" x="692.247273" xlink:href="#ma09cbfd44f" y="333.249096"/>
     <use style="fill:#0cff0c;stroke:#0cff0c;" x="713.192727" xlink:href="#ma09cbfd44f" y="322.602296"/>
     <use style="fill:#0cff0c;stroke:#0cff0c;" x="734.138182" xlink:href="#ma09cbfd44f" y="334.87896"/>
     <use style="fill:#0cff0c;stroke:#0cff0c;" x="755.083636" xlink:href="#ma09cbfd44f" y="323.035941"/>
     <use style="fill:#0cff0c;stroke:#0cff0c;" x="776.029091" xlink:href="#ma09cbfd44f" y="324.533618"/>
     <use style="fill:#0cff0c;stroke:#0cff0c;" x="796.974545" xlink:href="#ma09cbfd44f" y="321.093796"/>
    </g>
   </g>
   <g id="line2d_18">
    <path clip-path="url(#pdf0adc6446)" d="M 147.665455 442.6164 
L 168.610909 430.677317 
L 189.556364 419.58146 
L 210.501818 408.782712 
L 231.447273 398.04509 
L 252.392727 387.081869 
L 273.338182 376.732129 
L 294.283636 368.870004 
L 315.229091 358.307842 
L 336.174545 350.418205 
L 357.12 341.759111 
L 378.065455 333.671536 
L 399.010909 325.973815 
L 419.956364 318.859025 
L 440.901818 310.427192 
L 461.847273 303.164571 
L 482.792727 295.514617 
L 503.738182 287.943817 
L 524.683636 283.898665 
L 545.629091 275.110919 
L 566.574545 268.758861 
L 587.52 262.682038 
L 608.465455 255.723209 
L 629.410909 251.870987 
L 650.356364 244.627725 
L 671.301818 239.373614 
L 692.247273 234.504863 
L 713.192727 229.197819 
L 734.138182 225.683439 
L 755.083636 219.876164 
L 776.029091 215.83716 
L 796.974545 215.327287 
" style="fill:none;stroke:#e50000;stroke-linecap:square;"/>
    <defs>
     <path d="M -0 2.5 
L 2.5 -2.5 
L -2.5 -2.5 
z
" id="m187e774df2" style="stroke:#e50000;stroke-linejoin:miter;"/>
    </defs>
    <g clip-path="url(#pdf0adc6446)">
     <use style="fill:#e50000;stroke:#e50000;stroke-linejoin:miter;" x="147.665455" xlink:href="#m187e774df2" y="442.6164"/>
     <use style="fill:#e50000;stroke:#e50000;stroke-linejoin:miter;" x="168.610909" xlink:href="#m187e774df2" y="430.677317"/>
     <use style="fill:#e50000;stroke:#e50000;stroke-linejoin:miter;" x="189.556364" xlink:href="#m187e774df2" y="419.58146"/>
     <use style="fill:#e50000;stroke:#e50000;stroke-linejoin:miter;" x="210.501818" xlink:href="#m187e774df2" y="408.782712"/>
     <use style="fill:#e50000;stroke:#e50000;stroke-linejoin:miter;" x="231.447273" xlink:href="#m187e774df2" y="398.04509"/>
     <use style="fill:#e50000;stroke:#e50000;stroke-linejoin:miter;" x="252.392727" xlink:href="#m187e774df2" y="387.081869"/>
     <use style="fill:#e50000;stroke:#e50000;stroke-linejoin:miter;" x="273.338182" xlink:href="#m187e774df2" y="376.732129"/>
     <use style="fill:#e50000;stroke:#e50000;stroke-linejoin:miter;" x="294.283636" xlink:href="#m187e774df2" y="368.870004"/>
     <use style="fill:#e50000;stroke:#e50000;stroke-linejoin:miter;" x="315.229091" xlink:href="#m187e774df2" y="358.307842"/>
     <use style="fill:#e50000;stroke:#e50000;stroke-linejoin:miter;" x="336.174545" xlink:href="#m187e774df2" y="350.418205"/>
     <use style="fill:#e50000;stroke:#e50000;stroke-linejoin:miter;" x="357.12" xlink:href="#m187e774df2" y="341.759111"/>
     <use style="fill:#e50000;stroke:#e50000;stroke-linejoin:miter;" x="378.065455" xlink:href="#m187e774df2" y="333.671536"/>
     <use style="fill:#e50000;stroke:#e50000;stroke-linejoin:miter;" x="399.010909" xlink:href="#m187e774df2" y="325.973815"/>
     <use style="fill:#e50000;stroke:#e50000;stroke-linejoin:miter;" x="419.956364" xlink:href="#m187e774df2" y="318.859025"/>
     <use style="fill:#e50000;stroke:#e50000;stroke-linejoin:miter;" x="440.901818" xlink:href="#m187e774df2" y="310.427192"/>
     <use style="fill:#e50000;stroke:#e50000;stroke-linejoin:miter;" x="461.847273" xlink:href="#m187e774df2" y="303.164571"/>
     <use style="fill:#e50000;stroke:#e50000;stroke-linejoin:miter;" x="482.792727" xlink:href="#m187e774df2" y="295.514617"/>
     <use style="fill:#e50000;stroke:#e50000;stroke-linejoin:miter;" x="503.738182" xlink:href="#m187e774df2" y="287.943817"/>
     <use style="fill:#e50000;stroke:#e50000;stroke-linejoin:miter;" x="524.683636" xlink:href="#m187e774df2" y="283.898665"/>
     <use style="fill:#e50000;stroke:#e50000;stroke-linejoin:miter;" x="545.629091" xlink:href="#m187e774df2" y="275.110919"/>
     <use style="fill:#e50000;stroke:#e50000;stroke-linejoin:miter;" x="566.574545" xlink:href="#m187e774df2" y="268.758861"/>
     <use style="fill:#e50000;stroke:#e50000;stroke-linejoin:miter;" x="587.52" xlink:href="#m187e774df2" y="262.682038"/>
     <use style="fill:#e50000;stroke:#e50000;stroke-linejoin:miter;" x="608.465455" xlink:href="#m187e774df2" y="255.723209"/>
     <use style="fill:#e50000;stroke:#e50000;stroke-linejoin:miter;" x="629.410909" xlink:href="#m187e774df2" y="251.870987"/>
     <use style="fill:#e50000;stroke:#e50000;stroke-linejoin:miter;" x="650.356364" xlink:href="#m187e774df2" y="244.627725"/>
     <use style="fill:#e50000;stroke:#e50000;stroke-linejoin:miter;" x="671.301818" xlink:href="#m187e774df2" y="239.373614"/>
     <use style="fill:#e50000;stroke:#e50000;stroke-linejoin:miter;" x="692.247273" xlink:href="#m187e774df2" y="234.504863"/>
     <use style="fill:#e50000;stroke:#e50000;stroke-linejoin:miter;" x="713.192727" xlink:href="#m187e774df2" y="229.197819"/>
     <use style="fill:#e50000;stroke:#e50000;stroke-linejoin:miter;" x="734.138182" xlink:href="#m187e774df2" y="225.683439"/>
     <use style="fill:#e50000;stroke:#e50000;stroke-linejoin:miter;" x="755.083636" xlink:href="#m187e774df2" y="219.876164"/>
     <use style="fill:#e50000;stroke:#e50000;stroke-linejoin:miter;" x="776.029091" xlink:href="#m187e774df2" y="215.83716"/>
     <use style="fill:#e50000;stroke:#e50000;stroke-linejoin:miter;" x="796.974545" xlink:href="#m187e774df2" y="215.327287"/>
    </g>
   </g>
   <g id="patch_3">
    <path d="M 115.2 460.7352 
L 115.2 62.1216 
" style="fill:none;stroke:#000000;stroke-linecap:square;stroke-linejoin:miter;stroke-width:0.8;"/>
   </g>
   <g id="patch_4">
    <path d="M 829.44 460.7352 
L 829.44 62.1216 
" style="fill:none;stroke:#000000;stroke-linecap:square;stroke-linejoin:miter;stroke-width:0.8;"/>
   </g>
   <g id="patch_5">
    <path d="M 115.2 460.7352 
L 829.44 460.7352 
" style="fill:none;stroke:#000000;stroke-linecap:square;stroke-linejoin:miter;stroke-width:0.8;"/>
   </g>
   <g id="patch_6">
    <path d="M 115.2 62.1216 
L 829.44 62.1216 
" style="fill:none;stroke:#000000;stroke-linecap:square;stroke-linejoin:miter;stroke-width:0.8;"/>
   </g>
   <g id="text_17">
    <!-- Speedup generating a triangle with 2048 rows -->
    <defs>
     <path d="M 4.203125 54.6875 
L 13.1875 54.6875 
L 24.421875 12.015625 
L 35.59375 54.6875 
L 46.1875 54.6875 
L 57.421875 12.015625 
L 68.609375 54.6875 
L 77.59375 54.6875 
L 63.28125 0 
L 52.6875 0 
L 40.921875 44.828125 
L 29.109375 0 
L 18.5 0 
z
" id="DejaVuSans-119"/>
     <path d="M 37.796875 64.3125 
L 12.890625 25.390625 
L 37.796875 25.390625 
z
M 35.203125 72.90625 
L 47.609375 72.90625 
L 47.609375 25.390625 
L 58.015625 25.390625 
L 58.015625 17.1875 
L 47.609375 17.1875 
L 47.609375 0 
L 37.796875 0 
L 37.796875 17.1875 
L 4.890625 17.1875 
L 4.890625 26.703125 
z
" id="DejaVuSans-52"/>
     <path d="M 31.78125 34.625 
Q 24.75 34.625 20.71875 30.859375 
Q 16.703125 27.09375 16.703125 20.515625 
Q 16.703125 13.921875 20.71875 10.15625 
Q 24.75 6.390625 31.78125 6.390625 
Q 38.8125 6.390625 42.859375 10.171875 
Q 46.921875 13.96875 46.921875 20.515625 
Q 46.921875 27.09375 42.890625 30.859375 
Q 38.875 34.625 31.78125 34.625 
z
M 21.921875 38.8125 
Q 15.578125 40.375 12.03125 44.71875 
Q 8.5 49.078125 8.5 55.328125 
Q 8.5 64.0625 14.71875 69.140625 
Q 20.953125 74.21875 31.78125 74.21875 
Q 42.671875 74.21875 48.875 69.140625 
Q 55.078125 64.0625 55.078125 55.328125 
Q 55.078125 49.078125 51.53125 44.71875 
Q 48 40.375 41.703125 38.8125 
Q 48.828125 37.15625 52.796875 32.3125 
Q 56.78125 27.484375 56.78125 20.515625 
Q 56.78125 9.90625 50.3125 4.234375 
Q 43.84375 -1.421875 31.78125 -1.421875 
Q 19.734375 -1.421875 13.25 4.234375 
Q 6.78125 9.90625 6.78125 20.515625 
Q 6.78125 27.484375 10.78125 32.3125 
Q 14.796875 37.15625 21.921875 38.8125 
z
M 18.3125 54.390625 
Q 18.3125 48.734375 21.84375 45.5625 
Q 25.390625 42.390625 31.78125 42.390625 
Q 38.140625 42.390625 41.71875 45.5625 
Q 45.3125 48.734375 45.3125 54.390625 
Q 45.3125 60.0625 41.71875 63.234375 
Q 38.140625 66.40625 31.78125 66.40625 
Q 25.390625 66.40625 21.84375 63.234375 
Q 18.3125 60.0625 18.3125 54.390625 
z
" id="DejaVuSans-56"/>
    </defs>
    <g transform="translate(332.710312 56.1216)scale(0.12 -0.12)">
     <use xlink:href="#DejaVuSans-83"/>
     <use x="63.476562" xlink:href="#DejaVuSans-112"/>
     <use x="126.953125" xlink:href="#DejaVuSans-101"/>
     <use x="188.476562" xlink:href="#DejaVuSans-101"/>
     <use x="250" xlink:href="#DejaVuSans-100"/>
     <use x="313.476562" xlink:href="#DejaVuSans-117"/>
     <use x="376.855469" xlink:href="#DejaVuSans-112"/>
     <use x="440.332031" xlink:href="#DejaVuSans-32"/>
     <use x="472.119141" xlink:href="#DejaVuSans-103"/>
     <use x="535.595703" xlink:href="#DejaVuSans-101"/>
     <use x="597.119141" xlink:href="#DejaVuSans-110"/>
     <use x="660.498047" xlink:href="#DejaVuSans-101"/>
     <use x="722.021484" xlink:href="#DejaVuSans-114"/>
     <use x="763.134766" xlink:href="#DejaVuSans-97"/>
     <use x="824.414062" xlink:href="#DejaVuSans-116"/>
     <use x="863.623047" xlink:href="#DejaVuSans-105"/>
     <use x="891.40625" xlink:href="#DejaVuSans-110"/>
     <use x="954.785156" xlink:href="#DejaVuSans-103"/>
     <use x="1018.261719" xlink:href="#DejaVuSans-32"/>
     <use x="1050.048828" xlink:href="#DejaVuSans-97"/>
     <use x="1111.328125" xlink:href="#DejaVuSans-32"/>
     <use x="1143.115234" xlink:href="#DejaVuSans-116"/>
     <use x="1182.324219" xlink:href="#DejaVuSans-114"/>
     <use x="1223.4375" xlink:href="#DejaVuSans-105"/>
     <use x="1251.220703" xlink:href="#DejaVuSans-97"/>
     <use x="1312.5" xlink:href="#DejaVuSans-110"/>
     <use x="1375.878906" xlink:href="#DejaVuSans-103"/>
     <use x="1439.355469" xlink:href="#DejaVuSans-108"/>
     <use x="1467.138672" xlink:href="#DejaVuSans-101"/>
     <use x="1528.662109" xlink:href="#DejaVuSans-32"/>
     <use x="1560.449219" xlink:href="#DejaVuSans-119"/>
     <use x="1642.236328" xlink:href="#DejaVuSans-105"/>
     <use x="1670.019531" xlink:href="#DejaVuSans-116"/>
     <use x="1709.228516" xlink:href="#DejaVuSans-104"/>
     <use x="1772.607422" xlink:href="#DejaVuSans-32"/>
     <use x="1804.394531" xlink:href="#DejaVuSans-50"/>
     <use x="1868.017578" xlink:href="#DejaVuSans-48"/>
     <use x="1931.640625" xlink:href="#DejaVuSans-52"/>
     <use x="1995.263672" xlink:href="#DejaVuSans-56"/>
     <use x="2058.886719" xlink:href="#DejaVuSans-32"/>
     <use x="2090.673828" xlink:href="#DejaVuSans-114"/>
     <use x="2131.755859" xlink:href="#DejaVuSans-111"/>
     <use x="2192.9375" xlink:href="#DejaVuSans-119"/>
     <use x="2274.724609" xlink:href="#DejaVuSans-115"/>
    </g>
   </g>
   <g id="legend_1">
    <g id="patch_7">
     <path d="M 122.2 129.668475 
L 302.098437 129.668475 
Q 304.098437 129.668475 304.098437 127.668475 
L 304.098437 69.1216 
Q 304.098437 67.1216 302.098437 67.1216 
L 122.2 67.1216 
Q 120.2 67.1216 120.2 69.1216 
L 120.2 127.668475 
Q 120.2 129.668475 122.2 129.668475 
z
" style="fill:#ffffff;opacity:0.8;stroke:#cccccc;stroke-linejoin:miter;"/>
    </g>
    <g id="line2d_19">
     <path d="M 124.2 75.220037 
L 144.2 75.220037 
" style="fill:none;stroke:#000000;stroke-linecap:square;"/>
    </g>
    <g id="line2d_20">
     <g>
      <use style="stroke:#000000;" x="134.2" xlink:href="#m7e1ea40eb8" y="75.220037"/>
     </g>
    </g>
    <g id="text_18">
     <!-- Ideal -->
     <defs>
      <path d="M 9.8125 72.90625 
L 19.671875 72.90625 
L 19.671875 0 
L 9.8125 0 
z
" id="DejaVuSans-73"/>
     </defs>
     <g transform="translate(152.2 78.720037)scale(0.1 -0.1)">
      <use xlink:href="#DejaVuSans-73"/>
      <use x="29.492188" xlink:href="#DejaVuSans-100"/>
      <use x="92.96875" xlink:href="#DejaVuSans-101"/>
      <use x="154.492188" xlink:href="#DejaVuSans-97"/>
      <use x="215.771484" xlink:href="#DejaVuSans-108"/>
     </g>
    </g>
    <g id="line2d_21">
     <path d="M 124.2 89.898163 
L 144.2 89.898163 
" style="fill:none;stroke:#0652ff;stroke-linecap:square;"/>
    </g>
    <g id="line2d_22">
     <g>
      <use style="fill:#0652ff;stroke:#0652ff;" x="134.2" xlink:href="#m6597b202ee" y="89.898163"/>
     </g>
    </g>
    <g id="text_19">
     <!-- Pixelf_TBB_arh -->
     <defs>
      <path d="M 19.671875 64.796875 
L 19.671875 37.40625 
L 32.078125 37.40625 
Q 38.96875 37.40625 42.71875 40.96875 
Q 46.484375 44.53125 46.484375 51.125 
Q 46.484375 57.671875 42.71875 61.234375 
Q 38.96875 64.796875 32.078125 64.796875 
z
M 9.8125 72.90625 
L 32.078125 72.90625 
Q 44.34375 72.90625 50.609375 67.359375 
Q 56.890625 61.8125 56.890625 51.125 
Q 56.890625 40.328125 50.609375 34.8125 
Q 44.34375 29.296875 32.078125 29.296875 
L 19.671875 29.296875 
L 19.671875 0 
L 9.8125 0 
z
" id="DejaVuSans-80"/>
      <path d="M 54.890625 54.6875 
L 35.109375 28.078125 
L 55.90625 0 
L 45.3125 0 
L 29.390625 21.484375 
L 13.484375 0 
L 2.875 0 
L 24.125 28.609375 
L 4.6875 54.6875 
L 15.28125 54.6875 
L 29.78125 35.203125 
L 44.28125 54.6875 
z
" id="DejaVuSans-120"/>
      <path d="M 50.984375 -16.609375 
L 50.984375 -23.578125 
L -0.984375 -23.578125 
L -0.984375 -16.609375 
z
" id="DejaVuSans-95"/>
      <path d="M -0.296875 72.90625 
L 61.375 72.90625 
L 61.375 64.59375 
L 35.5 64.59375 
L 35.5 0 
L 25.59375 0 
L 25.59375 64.59375 
L -0.296875 64.59375 
z
" id="DejaVuSans-84"/>
      <path d="M 19.671875 34.8125 
L 19.671875 8.109375 
L 35.5 8.109375 
Q 43.453125 8.109375 47.28125 11.40625 
Q 51.125 14.703125 51.125 21.484375 
Q 51.125 28.328125 47.28125 31.5625 
Q 43.453125 34.8125 35.5 34.8125 
z
M 19.671875 64.796875 
L 19.671875 42.828125 
L 34.28125 42.828125 
Q 41.5 42.828125 45.03125 45.53125 
Q 48.578125 48.25 48.578125 53.8125 
Q 48.578125 59.328125 45.03125 62.0625 
Q 41.5 64.796875 34.28125 64.796875 
z
M 9.8125 72.90625 
L 35.015625 72.90625 
Q 46.296875 72.90625 52.390625 68.21875 
Q 58.5 63.53125 58.5 54.890625 
Q 58.5 48.1875 55.375 44.234375 
Q 52.25 40.28125 46.1875 39.3125 
Q 53.46875 37.75 57.5 32.78125 
Q 61.53125 27.828125 61.53125 20.40625 
Q 61.53125 10.640625 54.890625 5.3125 
Q 48.25 0 35.984375 0 
L 9.8125 0 
z
" id="DejaVuSans-66"/>
     </defs>
     <g transform="translate(152.2 93.398163)scale(0.1 -0.1)">
      <use xlink:href="#DejaVuSans-80"/>
      <use x="60.271484" xlink:href="#DejaVuSans-105"/>
      <use x="88.054688" xlink:href="#DejaVuSans-120"/>
      <use x="147.1875" xlink:href="#DejaVuSans-101"/>
      <use x="208.710938" xlink:href="#DejaVuSans-108"/>
      <use x="236.494141" xlink:href="#DejaVuSans-102"/>
      <use x="271.699219" xlink:href="#DejaVuSans-95"/>
      <use x="321.699219" xlink:href="#DejaVuSans-84"/>
      <use x="382.783203" xlink:href="#DejaVuSans-66"/>
      <use x="451.386719" xlink:href="#DejaVuSans-66"/>
      <use x="519.990234" xlink:href="#DejaVuSans-95"/>
      <use x="569.990234" xlink:href="#DejaVuSans-97"/>
      <use x="631.269531" xlink:href="#DejaVuSans-114"/>
      <use x="672.367188" xlink:href="#DejaVuSans-104"/>
     </g>
    </g>
    <g id="line2d_23">
     <path d="M 124.2 104.854412 
L 144.2 104.854412 
" style="fill:none;stroke:#0cff0c;stroke-linecap:square;"/>
    </g>
    <g id="line2d_24">
     <g>
      <use style="fill:#0cff0c;stroke:#0cff0c;" x="134.2" xlink:href="#ma09cbfd44f" y="104.854412"/>
     </g>
    </g>
    <g id="text_20">
     <!-- Pixelf_TBB_scalable_alloc_arh -->
     <defs>
      <path d="M 48.78125 52.59375 
L 48.78125 44.1875 
Q 44.96875 46.296875 41.140625 47.34375 
Q 37.3125 48.390625 33.40625 48.390625 
Q 24.65625 48.390625 19.8125 42.84375 
Q 14.984375 37.3125 14.984375 27.296875 
Q 14.984375 17.28125 19.8125 11.734375 
Q 24.65625 6.203125 33.40625 6.203125 
Q 37.3125 6.203125 41.140625 7.25 
Q 44.96875 8.296875 48.78125 10.40625 
L 48.78125 2.09375 
Q 45.015625 0.34375 40.984375 -0.53125 
Q 36.96875 -1.421875 32.421875 -1.421875 
Q 20.0625 -1.421875 12.78125 6.34375 
Q 5.515625 14.109375 5.515625 27.296875 
Q 5.515625 40.671875 12.859375 48.328125 
Q 20.21875 56 33.015625 56 
Q 37.15625 56 41.109375 55.140625 
Q 45.0625 54.296875 48.78125 52.59375 
z
" id="DejaVuSans-99"/>
     </defs>
     <g transform="translate(152.2 108.354412)scale(0.1 -0.1)">
      <use xlink:href="#DejaVuSans-80"/>
      <use x="60.271484" xlink:href="#DejaVuSans-105"/>
      <use x="88.054688" xlink:href="#DejaVuSans-120"/>
      <use x="147.1875" xlink:href="#DejaVuSans-101"/>
      <use x="208.710938" xlink:href="#DejaVuSans-108"/>
      <use x="236.494141" xlink:href="#DejaVuSans-102"/>
      <use x="271.699219" xlink:href="#DejaVuSans-95"/>
      <use x="321.699219" xlink:href="#DejaVuSans-84"/>
      <use x="382.783203" xlink:href="#DejaVuSans-66"/>
      <use x="451.386719" xlink:href="#DejaVuSans-66"/>
      <use x="519.990234" xlink:href="#DejaVuSans-95"/>
      <use x="569.990234" xlink:href="#DejaVuSans-115"/>
      <use x="622.089844" xlink:href="#DejaVuSans-99"/>
      <use x="677.070312" xlink:href="#DejaVuSans-97"/>
      <use x="738.349609" xlink:href="#DejaVuSans-108"/>
      <use x="766.132812" xlink:href="#DejaVuSans-97"/>
      <use x="827.412109" xlink:href="#DejaVuSans-98"/>
      <use x="890.888672" xlink:href="#DejaVuSans-108"/>
      <use x="918.671875" xlink:href="#DejaVuSans-101"/>
      <use x="980.195312" xlink:href="#DejaVuSans-95"/>
      <use x="1030.195312" xlink:href="#DejaVuSans-97"/>
      <use x="1091.474609" xlink:href="#DejaVuSans-108"/>
      <use x="1119.257812" xlink:href="#DejaVuSans-108"/>
      <use x="1147.041016" xlink:href="#DejaVuSans-111"/>
      <use x="1208.222656" xlink:href="#DejaVuSans-99"/>
      <use x="1263.203125" xlink:href="#DejaVuSans-95"/>
      <use x="1313.203125" xlink:href="#DejaVuSans-97"/>
      <use x="1374.482422" xlink:href="#DejaVuSans-114"/>
      <use x="1415.580078" xlink:href="#DejaVuSans-104"/>
     </g>
    </g>
    <g id="line2d_25">
     <path d="M 124.2 119.810662 
L 144.2 119.810662 
" style="fill:none;stroke:#e50000;stroke-linecap:square;"/>
    </g>
    <g id="line2d_26">
     <g>
      <use style="fill:#e50000;stroke:#e50000;stroke-linejoin:miter;" x="134.2" xlink:href="#m187e774df2" y="119.810662"/>
     </g>
    </g>
    <g id="text_21">
     <!-- Pixelf_TBB_spans_arh -->
     <g transform="translate(152.2 123.310662)scale(0.1 -0.1)">
      <use xlink:href="#DejaVuSans-80"/>
      <use x="60.271484" xlink:href="#DejaVuSans-105"/>
      <use x="88.054688" xlink:href="#DejaVuSans-120"/>
      <use x="147.1875" xlink:href="#DejaVuSans-101"/>
      <use x="208.710938" xlink:href="#DejaVuSans-108"/>
      <use x="236.494141" xlink:href="#DejaVuSans-102"/>
      <use x="271.699219" xlink:href="#DejaVuSans-95"/>
      <use x="321.699219" xlink:href="#DejaVuSans-84"/>
      <use x="382.783203" xlink:href="#DejaVuSans-66"/>
      <use x="451.386719" xlink:href="#DejaVuSans-66"/>
      <use x="519.990234" xlink:href="#DejaVuSans-95"/>
      <use x="569.990234" xlink:href="#DejaVuSans-115"/>
      <use x="622.089844" xlink:href="#DejaVuSans-112"/>
      <use x="685.566406" xlink:href="#DejaVuSans-97"/>
      <use x="746.845703" xlink:href="#DejaVuSans-110"/>
      <use x="810.224609" xlink:href="#DejaVuSans-115"/>
      <use x="862.324219" xlink:href="#DejaVuSans-95"/>
      <use x="912.324219" xlink:href="#DejaVuSans-97"/>
      <use x="973.603516" xlink:href="#DejaVuSans-114"/>
      <use x="1014.701172" xlink:href="#DejaVuSans-104"/>
     </g>
    </g>
   </g>
  </g>
 </g>
 <defs>
  <clipPath id="pdf0adc6446">
   <rect height="398.6136" width="714.24" x="115.2" y="62.1216"/>
  </clipPath>
 </defs>
</svg>
