<?xml version="1.0" encoding="utf-8" standalone="no"?>
<!DOCTYPE svg PUBLIC "-//W3C//DTD SVG 1.1//EN"
  "http://www.w3.org/Graphics/SVG/1.1/DTD/svg11.dtd">
<!-- Created with matplotlib (https://matplotlib.org/) -->
<svg version="1.1" viewBox="0 0 921.6 517.68" xmlns="http://www.w3.org/2000/svg" xmlns:xlink="http://www.w3.org/1999/xlink">
 <defs>
  <style type="text/css">
*{stroke-linecap:butt;stroke-linejoin:round;}
  </style>
 </defs>
 <g id="figure_1">
  <g id="patch_1">
   <path d="M 0 517.68 
L 921.6 517.68 
L 921.6 0 
L 0 0 
z
" style="fill:#ffffff;"/>
  </g>
  <g id="axes_1">
   <g id="patch_2">
    <path d="M 115.2 460.7352 
L 829.44 460.7352 
L 829.44 62.1216 
L 115.2 62.1216 
z
" style="fill:#ffffff;"/>
   </g>
   <g id="matplotlib.axis_1">
    <g id="xtick_1">
     <g id="line2d_1">
      <defs>
       <path d="M 0 0 
L 0 3.5 
" id="m79e76a0f8c" style="stroke:#000000;stroke-width:0.8;"/>
      </defs>
      <g>
       <use style="stroke:#000000;stroke-width:0.8;" x="217.244699" xlink:href="#m79e76a0f8c" y="460.7352"/>
      </g>
     </g>
     <g id="text_1">
      <!-- $\mathdefault{10^{1}}$ -->
      <defs>
       <path d="M 12.40625 8.296875 
L 28.515625 8.296875 
L 28.515625 63.921875 
L 10.984375 60.40625 
L 10.984375 69.390625 
L 28.421875 72.90625 
L 38.28125 72.90625 
L 38.28125 8.296875 
L 54.390625 8.296875 
L 54.390625 0 
L 12.40625 0 
z
" id="DejaVuSans-49"/>
       <path d="M 31.78125 66.40625 
Q 24.171875 66.40625 20.328125 58.90625 
Q 16.5 51.421875 16.5 36.375 
Q 16.5 21.390625 20.328125 13.890625 
Q 24.171875 6.390625 31.78125 6.390625 
Q 39.453125 6.390625 43.28125 13.890625 
Q 47.125 21.390625 47.125 36.375 
Q 47.125 51.421875 43.28125 58.90625 
Q 39.453125 66.40625 31.78125 66.40625 
z
M 31.78125 74.21875 
Q 44.046875 74.21875 50.515625 64.515625 
Q 56.984375 54.828125 56.984375 36.375 
Q 56.984375 17.96875 50.515625 8.265625 
Q 44.046875 -1.421875 31.78125 -1.421875 
Q 19.53125 -1.421875 13.0625 8.265625 
Q 6.59375 17.96875 6.59375 36.375 
Q 6.59375 54.828125 13.0625 64.515625 
Q 19.53125 74.21875 31.78125 74.21875 
z
" id="DejaVuSans-48"/>
      </defs>
      <g transform="translate(208.444699 475.333638)scale(0.1 -0.1)">
       <use transform="translate(0 0.684375)" xlink:href="#DejaVuSans-49"/>
       <use transform="translate(63.623047 0.684375)" xlink:href="#DejaVuSans-48"/>
       <use transform="translate(128.203125 38.965625)scale(0.7)" xlink:href="#DejaVuSans-49"/>
      </g>
     </g>
    </g>
    <g id="xtick_2">
     <g id="line2d_2">
      <g>
       <use style="stroke:#000000;stroke-width:0.8;" x="356.403188" xlink:href="#m79e76a0f8c" y="460.7352"/>
      </g>
     </g>
     <g id="text_2">
      <!-- $\mathdefault{10^{3}}$ -->
      <defs>
       <path d="M 40.578125 39.3125 
Q 47.65625 37.796875 51.625 33 
Q 55.609375 28.21875 55.609375 21.1875 
Q 55.609375 10.40625 48.1875 4.484375 
Q 40.765625 -1.421875 27.09375 -1.421875 
Q 22.515625 -1.421875 17.65625 -0.515625 
Q 12.796875 0.390625 7.625 2.203125 
L 7.625 11.71875 
Q 11.71875 9.328125 16.59375 8.109375 
Q 21.484375 6.890625 26.8125 6.890625 
Q 36.078125 6.890625 40.9375 10.546875 
Q 45.796875 14.203125 45.796875 21.1875 
Q 45.796875 27.640625 41.28125 31.265625 
Q 36.765625 34.90625 28.71875 34.90625 
L 20.21875 34.90625 
L 20.21875 43.015625 
L 29.109375 43.015625 
Q 36.375 43.015625 40.234375 45.921875 
Q 44.09375 48.828125 44.09375 54.296875 
Q 44.09375 59.90625 40.109375 62.90625 
Q 36.140625 65.921875 28.71875 65.921875 
Q 24.65625 65.921875 20.015625 65.03125 
Q 15.375 64.15625 9.8125 62.3125 
L 9.8125 71.09375 
Q 15.4375 72.65625 20.34375 73.4375 
Q 25.25 74.21875 29.59375 74.21875 
Q 40.828125 74.21875 47.359375 69.109375 
Q 53.90625 64.015625 53.90625 55.328125 
Q 53.90625 49.265625 50.4375 45.09375 
Q 46.96875 40.921875 40.578125 39.3125 
z
" id="DejaVuSans-51"/>
      </defs>
      <g transform="translate(347.603188 475.333638)scale(0.1 -0.1)">
       <use transform="translate(0 0.765625)" xlink:href="#DejaVuSans-49"/>
       <use transform="translate(63.623047 0.765625)" xlink:href="#DejaVuSans-48"/>
       <use transform="translate(128.203125 39.046875)scale(0.7)" xlink:href="#DejaVuSans-51"/>
      </g>
     </g>
    </g>
    <g id="xtick_3">
     <g id="line2d_3">
      <g>
       <use style="stroke:#000000;stroke-width:0.8;" x="495.561677" xlink:href="#m79e76a0f8c" y="460.7352"/>
      </g>
     </g>
     <g id="text_3">
      <!-- $\mathdefault{10^{5}}$ -->
      <defs>
       <path d="M 10.796875 72.90625 
L 49.515625 72.90625 
L 49.515625 64.59375 
L 19.828125 64.59375 
L 19.828125 46.734375 
Q 21.96875 47.46875 24.109375 47.828125 
Q 26.265625 48.1875 28.421875 48.1875 
Q 40.625 48.1875 47.75 41.5 
Q 54.890625 34.8125 54.890625 23.390625 
Q 54.890625 11.625 47.5625 5.09375 
Q 40.234375 -1.421875 26.90625 -1.421875 
Q 22.3125 -1.421875 17.546875 -0.640625 
Q 12.796875 0.140625 7.71875 1.703125 
L 7.71875 11.625 
Q 12.109375 9.234375 16.796875 8.0625 
Q 21.484375 6.890625 26.703125 6.890625 
Q 35.15625 6.890625 40.078125 11.328125 
Q 45.015625 15.765625 45.015625 23.390625 
Q 45.015625 31 40.078125 35.4375 
Q 35.15625 39.890625 26.703125 39.890625 
Q 22.75 39.890625 18.8125 39.015625 
Q 14.890625 38.140625 10.796875 36.28125 
z
" id="DejaVuSans-53"/>
      </defs>
      <g transform="translate(486.761677 475.333638)scale(0.1 -0.1)">
       <use transform="translate(0 0.684375)" xlink:href="#DejaVuSans-49"/>
       <use transform="translate(63.623047 0.684375)" xlink:href="#DejaVuSans-48"/>
       <use transform="translate(128.203125 38.965625)scale(0.7)" xlink:href="#DejaVuSans-53"/>
      </g>
     </g>
    </g>
    <g id="xtick_4">
     <g id="line2d_4">
      <g>
       <use style="stroke:#000000;stroke-width:0.8;" x="634.720166" xlink:href="#m79e76a0f8c" y="460.7352"/>
      </g>
     </g>
     <g id="text_4">
      <!-- $\mathdefault{10^{7}}$ -->
      <defs>
       <path d="M 8.203125 72.90625 
L 55.078125 72.90625 
L 55.078125 68.703125 
L 28.609375 0 
L 18.3125 0 
L 43.21875 64.59375 
L 8.203125 64.59375 
z
" id="DejaVuSans-55"/>
      </defs>
      <g transform="translate(625.920166 475.333638)scale(0.1 -0.1)">
       <use transform="translate(0 0.684375)" xlink:href="#DejaVuSans-49"/>
       <use transform="translate(63.623047 0.684375)" xlink:href="#DejaVuSans-48"/>
       <use transform="translate(128.203125 38.965625)scale(0.7)" xlink:href="#DejaVuSans-55"/>
      </g>
     </g>
    </g>
    <g id="xtick_5">
     <g id="line2d_5">
      <g>
       <use style="stroke:#000000;stroke-width:0.8;" x="773.878655" xlink:href="#m79e76a0f8c" y="460.7352"/>
      </g>
     </g>
     <g id="text_5">
      <!-- $\mathdefault{10^{9}}$ -->
      <defs>
       <path d="M 10.984375 1.515625 
L 10.984375 10.5 
Q 14.703125 8.734375 18.5 7.8125 
Q 22.3125 6.890625 25.984375 6.890625 
Q 35.75 6.890625 40.890625 13.453125 
Q 46.046875 20.015625 46.78125 33.40625 
Q 43.953125 29.203125 39.59375 26.953125 
Q 35.25 24.703125 29.984375 24.703125 
Q 19.046875 24.703125 12.671875 31.3125 
Q 6.296875 37.9375 6.296875 49.421875 
Q 6.296875 60.640625 12.9375 67.421875 
Q 19.578125 74.21875 30.609375 74.21875 
Q 43.265625 74.21875 49.921875 64.515625 
Q 56.59375 54.828125 56.59375 36.375 
Q 56.59375 19.140625 48.40625 8.859375 
Q 40.234375 -1.421875 26.421875 -1.421875 
Q 22.703125 -1.421875 18.890625 -0.6875 
Q 15.09375 0.046875 10.984375 1.515625 
z
M 30.609375 32.421875 
Q 37.25 32.421875 41.125 36.953125 
Q 45.015625 41.5 45.015625 49.421875 
Q 45.015625 57.28125 41.125 61.84375 
Q 37.25 66.40625 30.609375 66.40625 
Q 23.96875 66.40625 20.09375 61.84375 
Q 16.21875 57.28125 16.21875 49.421875 
Q 16.21875 41.5 20.09375 36.953125 
Q 23.96875 32.421875 30.609375 32.421875 
z
" id="DejaVuSans-57"/>
      </defs>
      <g transform="translate(765.078655 475.333638)scale(0.1 -0.1)">
       <use transform="translate(0 0.765625)" xlink:href="#DejaVuSans-49"/>
       <use transform="translate(63.623047 0.765625)" xlink:href="#DejaVuSans-48"/>
       <use transform="translate(128.203125 39.046875)scale(0.7)" xlink:href="#DejaVuSans-57"/>
      </g>
     </g>
    </g>
    <g id="text_6">
     <!-- Number of elements in triangle (rows*(rows+1)/2) -->
     <defs>
      <path d="M 9.8125 72.90625 
L 23.09375 72.90625 
L 55.421875 11.921875 
L 55.421875 72.90625 
L 64.984375 72.90625 
L 64.984375 0 
L 51.703125 0 
L 19.390625 60.984375 
L 19.390625 0 
L 9.8125 0 
z
" id="DejaVuSans-78"/>
      <path d="M 8.5 21.578125 
L 8.5 54.6875 
L 17.484375 54.6875 
L 17.484375 21.921875 
Q 17.484375 14.15625 20.5 10.265625 
Q 23.53125 6.390625 29.59375 6.390625 
Q 36.859375 6.390625 41.078125 11.03125 
Q 45.3125 15.671875 45.3125 23.6875 
L 45.3125 54.6875 
L 54.296875 54.6875 
L 54.296875 0 
L 45.3125 0 
L 45.3125 8.40625 
Q 42.046875 3.421875 37.71875 1 
Q 33.40625 -1.421875 27.6875 -1.421875 
Q 18.265625 -1.421875 13.375 4.4375 
Q 8.5 10.296875 8.5 21.578125 
z
M 31.109375 56 
z
" id="DejaVuSans-117"/>
      <path d="M 52 44.1875 
Q 55.375 50.25 60.0625 53.125 
Q 64.75 56 71.09375 56 
Q 79.640625 56 84.28125 50.015625 
Q 88.921875 44.046875 88.921875 33.015625 
L 88.921875 0 
L 79.890625 0 
L 79.890625 32.71875 
Q 79.890625 40.578125 77.09375 44.375 
Q 74.3125 48.1875 68.609375 48.1875 
Q 61.625 48.1875 57.5625 43.546875 
Q 53.515625 38.921875 53.515625 30.90625 
L 53.515625 0 
L 44.484375 0 
L 44.484375 32.71875 
Q 44.484375 40.625 41.703125 44.40625 
Q 38.921875 48.1875 33.109375 48.1875 
Q 26.21875 48.1875 22.15625 43.53125 
Q 18.109375 38.875 18.109375 30.90625 
L 18.109375 0 
L 9.078125 0 
L 9.078125 54.6875 
L 18.109375 54.6875 
L 18.109375 46.1875 
Q 21.1875 51.21875 25.484375 53.609375 
Q 29.78125 56 35.6875 56 
Q 41.65625 56 45.828125 52.96875 
Q 50 49.953125 52 44.1875 
z
" id="DejaVuSans-109"/>
      <path d="M 48.6875 27.296875 
Q 48.6875 37.203125 44.609375 42.84375 
Q 40.53125 48.484375 33.40625 48.484375 
Q 26.265625 48.484375 22.1875 42.84375 
Q 18.109375 37.203125 18.109375 27.296875 
Q 18.109375 17.390625 22.1875 11.75 
Q 26.265625 6.109375 33.40625 6.109375 
Q 40.53125 6.109375 44.609375 11.75 
Q 48.6875 17.390625 48.6875 27.296875 
z
M 18.109375 46.390625 
Q 20.953125 51.265625 25.265625 53.625 
Q 29.59375 56 35.59375 56 
Q 45.5625 56 51.78125 48.09375 
Q 58.015625 40.1875 58.015625 27.296875 
Q 58.015625 14.40625 51.78125 6.484375 
Q 45.5625 -1.421875 35.59375 -1.421875 
Q 29.59375 -1.421875 25.265625 0.953125 
Q 20.953125 3.328125 18.109375 8.203125 
L 18.109375 0 
L 9.078125 0 
L 9.078125 75.984375 
L 18.109375 75.984375 
z
" id="DejaVuSans-98"/>
      <path d="M 56.203125 29.59375 
L 56.203125 25.203125 
L 14.890625 25.203125 
Q 15.484375 15.921875 20.484375 11.0625 
Q 25.484375 6.203125 34.421875 6.203125 
Q 39.59375 6.203125 44.453125 7.46875 
Q 49.3125 8.734375 54.109375 11.28125 
L 54.109375 2.78125 
Q 49.265625 0.734375 44.1875 -0.34375 
Q 39.109375 -1.421875 33.890625 -1.421875 
Q 20.796875 -1.421875 13.15625 6.1875 
Q 5.515625 13.8125 5.515625 26.8125 
Q 5.515625 40.234375 12.765625 48.109375 
Q 20.015625 56 32.328125 56 
Q 43.359375 56 49.78125 48.890625 
Q 56.203125 41.796875 56.203125 29.59375 
z
M 47.21875 32.234375 
Q 47.125 39.59375 43.09375 43.984375 
Q 39.0625 48.390625 32.421875 48.390625 
Q 24.90625 48.390625 20.390625 44.140625 
Q 15.875 39.890625 15.1875 32.171875 
z
" id="DejaVuSans-101"/>
      <path d="M 41.109375 46.296875 
Q 39.59375 47.171875 37.8125 47.578125 
Q 36.03125 48 33.890625 48 
Q 26.265625 48 22.1875 43.046875 
Q 18.109375 38.09375 18.109375 28.8125 
L 18.109375 0 
L 9.078125 0 
L 9.078125 54.6875 
L 18.109375 54.6875 
L 18.109375 46.1875 
Q 20.953125 51.171875 25.484375 53.578125 
Q 30.03125 56 36.53125 56 
Q 37.453125 56 38.578125 55.875 
Q 39.703125 55.765625 41.0625 55.515625 
z
" id="DejaVuSans-114"/>
      <path id="DejaVuSans-32"/>
      <path d="M 30.609375 48.390625 
Q 23.390625 48.390625 19.1875 42.75 
Q 14.984375 37.109375 14.984375 27.296875 
Q 14.984375 17.484375 19.15625 11.84375 
Q 23.34375 6.203125 30.609375 6.203125 
Q 37.796875 6.203125 41.984375 11.859375 
Q 46.1875 17.53125 46.1875 27.296875 
Q 46.1875 37.015625 41.984375 42.703125 
Q 37.796875 48.390625 30.609375 48.390625 
z
M 30.609375 56 
Q 42.328125 56 49.015625 48.375 
Q 55.71875 40.765625 55.71875 27.296875 
Q 55.71875 13.875 49.015625 6.21875 
Q 42.328125 -1.421875 30.609375 -1.421875 
Q 18.84375 -1.421875 12.171875 6.21875 
Q 5.515625 13.875 5.515625 27.296875 
Q 5.515625 40.765625 12.171875 48.375 
Q 18.84375 56 30.609375 56 
z
" id="DejaVuSans-111"/>
      <path d="M 37.109375 75.984375 
L 37.109375 68.5 
L 28.515625 68.5 
Q 23.6875 68.5 21.796875 66.546875 
Q 19.921875 64.59375 19.921875 59.515625 
L 19.921875 54.6875 
L 34.71875 54.6875 
L 34.71875 47.703125 
L 19.921875 47.703125 
L 19.921875 0 
L 10.890625 0 
L 10.890625 47.703125 
L 2.296875 47.703125 
L 2.296875 54.6875 
L 10.890625 54.6875 
L 10.890625 58.5 
Q 10.890625 67.625 15.140625 71.796875 
Q 19.390625 75.984375 28.609375 75.984375 
z
" id="DejaVuSans-102"/>
      <path d="M 9.421875 75.984375 
L 18.40625 75.984375 
L 18.40625 0 
L 9.421875 0 
z
" id="DejaVuSans-108"/>
      <path d="M 54.890625 33.015625 
L 54.890625 0 
L 45.90625 0 
L 45.90625 32.71875 
Q 45.90625 40.484375 42.875 44.328125 
Q 39.84375 48.1875 33.796875 48.1875 
Q 26.515625 48.1875 22.3125 43.546875 
Q 18.109375 38.921875 18.109375 30.90625 
L 18.109375 0 
L 9.078125 0 
L 9.078125 54.6875 
L 18.109375 54.6875 
L 18.109375 46.1875 
Q 21.34375 51.125 25.703125 53.5625 
Q 30.078125 56 35.796875 56 
Q 45.21875 56 50.046875 50.171875 
Q 54.890625 44.34375 54.890625 33.015625 
z
" id="DejaVuSans-110"/>
      <path d="M 18.3125 70.21875 
L 18.3125 54.6875 
L 36.8125 54.6875 
L 36.8125 47.703125 
L 18.3125 47.703125 
L 18.3125 18.015625 
Q 18.3125 11.328125 20.140625 9.421875 
Q 21.96875 7.515625 27.59375 7.515625 
L 36.8125 7.515625 
L 36.8125 0 
L 27.59375 0 
Q 17.1875 0 13.234375 3.875 
Q 9.28125 7.765625 9.28125 18.015625 
L 9.28125 47.703125 
L 2.6875 47.703125 
L 2.6875 54.6875 
L 9.28125 54.6875 
L 9.28125 70.21875 
z
" id="DejaVuSans-116"/>
      <path d="M 44.28125 53.078125 
L 44.28125 44.578125 
Q 40.484375 46.53125 36.375 47.5 
Q 32.28125 48.484375 27.875 48.484375 
Q 21.1875 48.484375 17.84375 46.4375 
Q 14.5 44.390625 14.5 40.28125 
Q 14.5 37.15625 16.890625 35.375 
Q 19.28125 33.59375 26.515625 31.984375 
L 29.59375 31.296875 
Q 39.15625 29.25 43.1875 25.515625 
Q 47.21875 21.78125 47.21875 15.09375 
Q 47.21875 7.46875 41.1875 3.015625 
Q 35.15625 -1.421875 24.609375 -1.421875 
Q 20.21875 -1.421875 15.453125 -0.5625 
Q 10.6875 0.296875 5.421875 2 
L 5.421875 11.28125 
Q 10.40625 8.6875 15.234375 7.390625 
Q 20.0625 6.109375 24.8125 6.109375 
Q 31.15625 6.109375 34.5625 8.28125 
Q 37.984375 10.453125 37.984375 14.40625 
Q 37.984375 18.0625 35.515625 20.015625 
Q 33.0625 21.96875 24.703125 23.78125 
L 21.578125 24.515625 
Q 13.234375 26.265625 9.515625 29.90625 
Q 5.8125 33.546875 5.8125 39.890625 
Q 5.8125 47.609375 11.28125 51.796875 
Q 16.75 56 26.8125 56 
Q 31.78125 56 36.171875 55.265625 
Q 40.578125 54.546875 44.28125 53.078125 
z
" id="DejaVuSans-115"/>
      <path d="M 9.421875 54.6875 
L 18.40625 54.6875 
L 18.40625 0 
L 9.421875 0 
z
M 9.421875 75.984375 
L 18.40625 75.984375 
L 18.40625 64.59375 
L 9.421875 64.59375 
z
" id="DejaVuSans-105"/>
      <path d="M 34.28125 27.484375 
Q 23.390625 27.484375 19.1875 25 
Q 14.984375 22.515625 14.984375 16.5 
Q 14.984375 11.71875 18.140625 8.90625 
Q 21.296875 6.109375 26.703125 6.109375 
Q 34.1875 6.109375 38.703125 11.40625 
Q 43.21875 16.703125 43.21875 25.484375 
L 43.21875 27.484375 
z
M 52.203125 31.203125 
L 52.203125 0 
L 43.21875 0 
L 43.21875 8.296875 
Q 40.140625 3.328125 35.546875 0.953125 
Q 30.953125 -1.421875 24.3125 -1.421875 
Q 15.921875 -1.421875 10.953125 3.296875 
Q 6 8.015625 6 15.921875 
Q 6 25.140625 12.171875 29.828125 
Q 18.359375 34.515625 30.609375 34.515625 
L 43.21875 34.515625 
L 43.21875 35.40625 
Q 43.21875 41.609375 39.140625 45 
Q 35.0625 48.390625 27.6875 48.390625 
Q 23 48.390625 18.546875 47.265625 
Q 14.109375 46.140625 10.015625 43.890625 
L 10.015625 52.203125 
Q 14.9375 54.109375 19.578125 55.046875 
Q 24.21875 56 28.609375 56 
Q 40.484375 56 46.34375 49.84375 
Q 52.203125 43.703125 52.203125 31.203125 
z
" id="DejaVuSans-97"/>
      <path d="M 45.40625 27.984375 
Q 45.40625 37.75 41.375 43.109375 
Q 37.359375 48.484375 30.078125 48.484375 
Q 22.859375 48.484375 18.828125 43.109375 
Q 14.796875 37.75 14.796875 27.984375 
Q 14.796875 18.265625 18.828125 12.890625 
Q 22.859375 7.515625 30.078125 7.515625 
Q 37.359375 7.515625 41.375 12.890625 
Q 45.40625 18.265625 45.40625 27.984375 
z
M 54.390625 6.78125 
Q 54.390625 -7.171875 48.1875 -13.984375 
Q 42 -20.796875 29.203125 -20.796875 
Q 24.46875 -20.796875 20.265625 -20.09375 
Q 16.0625 -19.390625 12.109375 -17.921875 
L 12.109375 -9.1875 
Q 16.0625 -11.328125 19.921875 -12.34375 
Q 23.78125 -13.375 27.78125 -13.375 
Q 36.625 -13.375 41.015625 -8.765625 
Q 45.40625 -4.15625 45.40625 5.171875 
L 45.40625 9.625 
Q 42.625 4.78125 38.28125 2.390625 
Q 33.9375 0 27.875 0 
Q 17.828125 0 11.671875 7.65625 
Q 5.515625 15.328125 5.515625 27.984375 
Q 5.515625 40.671875 11.671875 48.328125 
Q 17.828125 56 27.875 56 
Q 33.9375 56 38.28125 53.609375 
Q 42.625 51.21875 45.40625 46.390625 
L 45.40625 54.6875 
L 54.390625 54.6875 
z
" id="DejaVuSans-103"/>
      <path d="M 31 75.875 
Q 24.46875 64.65625 21.28125 53.65625 
Q 18.109375 42.671875 18.109375 31.390625 
Q 18.109375 20.125 21.3125 9.0625 
Q 24.515625 -2 31 -13.1875 
L 23.1875 -13.1875 
Q 15.875 -1.703125 12.234375 9.375 
Q 8.59375 20.453125 8.59375 31.390625 
Q 8.59375 42.28125 12.203125 53.3125 
Q 15.828125 64.359375 23.1875 75.875 
z
" id="DejaVuSans-40"/>
      <path d="M 4.203125 54.6875 
L 13.1875 54.6875 
L 24.421875 12.015625 
L 35.59375 54.6875 
L 46.1875 54.6875 
L 57.421875 12.015625 
L 68.609375 54.6875 
L 77.59375 54.6875 
L 63.28125 0 
L 52.6875 0 
L 40.921875 44.828125 
L 29.109375 0 
L 18.5 0 
z
" id="DejaVuSans-119"/>
      <path d="M 47.015625 60.890625 
L 29.5 51.421875 
L 47.015625 41.890625 
L 44.1875 37.109375 
L 27.78125 47.015625 
L 27.78125 28.609375 
L 22.21875 28.609375 
L 22.21875 47.015625 
L 5.8125 37.109375 
L 2.984375 41.890625 
L 20.515625 51.421875 
L 2.984375 60.890625 
L 5.8125 65.71875 
L 22.21875 55.8125 
L 22.21875 74.21875 
L 27.78125 74.21875 
L 27.78125 55.8125 
L 44.1875 65.71875 
z
" id="DejaVuSans-42"/>
      <path d="M 46 62.703125 
L 46 35.5 
L 73.1875 35.5 
L 73.1875 27.203125 
L 46 27.203125 
L 46 0 
L 37.796875 0 
L 37.796875 27.203125 
L 10.59375 27.203125 
L 10.59375 35.5 
L 37.796875 35.5 
L 37.796875 62.703125 
z
" id="DejaVuSans-43"/>
      <path d="M 8.015625 75.875 
L 15.828125 75.875 
Q 23.140625 64.359375 26.78125 53.3125 
Q 30.421875 42.28125 30.421875 31.390625 
Q 30.421875 20.453125 26.78125 9.375 
Q 23.140625 -1.703125 15.828125 -13.1875 
L 8.015625 -13.1875 
Q 14.5 -2 17.703125 9.0625 
Q 20.90625 20.125 20.90625 31.390625 
Q 20.90625 42.671875 17.703125 53.65625 
Q 14.5 64.65625 8.015625 75.875 
z
" id="DejaVuSans-41"/>
      <path d="M 25.390625 72.90625 
L 33.6875 72.90625 
L 8.296875 -9.28125 
L 0 -9.28125 
z
" id="DejaVuSans-47"/>
      <path d="M 19.1875 8.296875 
L 53.609375 8.296875 
L 53.609375 0 
L 7.328125 0 
L 7.328125 8.296875 
Q 12.9375 14.109375 22.625 23.890625 
Q 32.328125 33.6875 34.8125 36.53125 
Q 39.546875 41.84375 41.421875 45.53125 
Q 43.3125 49.21875 43.3125 52.78125 
Q 43.3125 58.59375 39.234375 62.25 
Q 35.15625 65.921875 28.609375 65.921875 
Q 23.96875 65.921875 18.8125 64.3125 
Q 13.671875 62.703125 7.8125 59.421875 
L 7.8125 69.390625 
Q 13.765625 71.78125 18.9375 73 
Q 24.125 74.21875 28.421875 74.21875 
Q 39.75 74.21875 46.484375 68.546875 
Q 53.21875 62.890625 53.21875 53.421875 
Q 53.21875 48.921875 51.53125 44.890625 
Q 49.859375 40.875 45.40625 35.40625 
Q 44.1875 33.984375 37.640625 27.21875 
Q 31.109375 20.453125 19.1875 8.296875 
z
" id="DejaVuSans-50"/>
     </defs>
     <g transform="translate(346.2575 489.011763)scale(0.1 -0.1)">
      <use xlink:href="#DejaVuSans-78"/>
      <use x="74.804688" xlink:href="#DejaVuSans-117"/>
      <use x="138.183594" xlink:href="#DejaVuSans-109"/>
      <use x="235.595703" xlink:href="#DejaVuSans-98"/>
      <use x="299.072266" xlink:href="#DejaVuSans-101"/>
      <use x="360.595703" xlink:href="#DejaVuSans-114"/>
      <use x="401.708984" xlink:href="#DejaVuSans-32"/>
      <use x="433.496094" xlink:href="#DejaVuSans-111"/>
      <use x="494.677734" xlink:href="#DejaVuSans-102"/>
      <use x="529.882812" xlink:href="#DejaVuSans-32"/>
      <use x="561.669922" xlink:href="#DejaVuSans-101"/>
      <use x="623.193359" xlink:href="#DejaVuSans-108"/>
      <use x="650.976562" xlink:href="#DejaVuSans-101"/>
      <use x="712.5" xlink:href="#DejaVuSans-109"/>
      <use x="809.912109" xlink:href="#DejaVuSans-101"/>
      <use x="871.435547" xlink:href="#DejaVuSans-110"/>
      <use x="934.814453" xlink:href="#DejaVuSans-116"/>
      <use x="974.023438" xlink:href="#DejaVuSans-115"/>
      <use x="1026.123047" xlink:href="#DejaVuSans-32"/>
      <use x="1057.910156" xlink:href="#DejaVuSans-105"/>
      <use x="1085.693359" xlink:href="#DejaVuSans-110"/>
      <use x="1149.072266" xlink:href="#DejaVuSans-32"/>
      <use x="1180.859375" xlink:href="#DejaVuSans-116"/>
      <use x="1220.068359" xlink:href="#DejaVuSans-114"/>
      <use x="1261.181641" xlink:href="#DejaVuSans-105"/>
      <use x="1288.964844" xlink:href="#DejaVuSans-97"/>
      <use x="1350.244141" xlink:href="#DejaVuSans-110"/>
      <use x="1413.623047" xlink:href="#DejaVuSans-103"/>
      <use x="1477.099609" xlink:href="#DejaVuSans-108"/>
      <use x="1504.882812" xlink:href="#DejaVuSans-101"/>
      <use x="1566.40625" xlink:href="#DejaVuSans-32"/>
      <use x="1598.193359" xlink:href="#DejaVuSans-40"/>
      <use x="1637.207031" xlink:href="#DejaVuSans-114"/>
      <use x="1678.289062" xlink:href="#DejaVuSans-111"/>
      <use x="1739.470703" xlink:href="#DejaVuSans-119"/>
      <use x="1821.257812" xlink:href="#DejaVuSans-115"/>
      <use x="1873.357422" xlink:href="#DejaVuSans-42"/>
      <use x="1923.357422" xlink:href="#DejaVuSans-40"/>
      <use x="1962.371094" xlink:href="#DejaVuSans-114"/>
      <use x="2003.453125" xlink:href="#DejaVuSans-111"/>
      <use x="2064.634766" xlink:href="#DejaVuSans-119"/>
      <use x="2146.421875" xlink:href="#DejaVuSans-115"/>
      <use x="2198.521484" xlink:href="#DejaVuSans-43"/>
      <use x="2282.310547" xlink:href="#DejaVuSans-49"/>
      <use x="2345.933594" xlink:href="#DejaVuSans-41"/>
      <use x="2384.947266" xlink:href="#DejaVuSans-47"/>
      <use x="2418.638672" xlink:href="#DejaVuSans-50"/>
      <use x="2482.261719" xlink:href="#DejaVuSans-41"/>
     </g>
    </g>
   </g>
   <g id="matplotlib.axis_2">
    <g id="ytick_1">
     <g id="line2d_6">
      <defs>
       <path d="M 0 0 
L -3.5 0 
" id="m9428c47562" style="stroke:#000000;stroke-width:0.8;"/>
      </defs>
      <g>
       <use style="stroke:#000000;stroke-width:0.8;" x="115.2" xlink:href="#m9428c47562" y="437.983917"/>
      </g>
     </g>
     <g id="text_7">
      <!-- $\mathdefault{10^{5}}$ -->
      <g transform="translate(90.6 441.783135)scale(0.1 -0.1)">
       <use transform="translate(0 0.684375)" xlink:href="#DejaVuSans-49"/>
       <use transform="translate(63.623047 0.684375)" xlink:href="#DejaVuSans-48"/>
       <use transform="translate(128.203125 38.965625)scale(0.7)" xlink:href="#DejaVuSans-53"/>
      </g>
     </g>
    </g>
    <g id="ytick_2">
     <g id="line2d_7">
      <g>
       <use style="stroke:#000000;stroke-width:0.8;" x="115.2" xlink:href="#m9428c47562" y="362.041745"/>
      </g>
     </g>
     <g id="text_8">
      <!-- $\mathdefault{10^{6}}$ -->
      <defs>
       <path d="M 33.015625 40.375 
Q 26.375 40.375 22.484375 35.828125 
Q 18.609375 31.296875 18.609375 23.390625 
Q 18.609375 15.53125 22.484375 10.953125 
Q 26.375 6.390625 33.015625 6.390625 
Q 39.65625 6.390625 43.53125 10.953125 
Q 47.40625 15.53125 47.40625 23.390625 
Q 47.40625 31.296875 43.53125 35.828125 
Q 39.65625 40.375 33.015625 40.375 
z
M 52.59375 71.296875 
L 52.59375 62.3125 
Q 48.875 64.0625 45.09375 64.984375 
Q 41.3125 65.921875 37.59375 65.921875 
Q 27.828125 65.921875 22.671875 59.328125 
Q 17.53125 52.734375 16.796875 39.40625 
Q 19.671875 43.65625 24.015625 45.921875 
Q 28.375 48.1875 33.59375 48.1875 
Q 44.578125 48.1875 50.953125 41.515625 
Q 57.328125 34.859375 57.328125 23.390625 
Q 57.328125 12.15625 50.6875 5.359375 
Q 44.046875 -1.421875 33.015625 -1.421875 
Q 20.359375 -1.421875 13.671875 8.265625 
Q 6.984375 17.96875 6.984375 36.375 
Q 6.984375 53.65625 15.1875 63.9375 
Q 23.390625 74.21875 37.203125 74.21875 
Q 40.921875 74.21875 44.703125 73.484375 
Q 48.484375 72.75 52.59375 71.296875 
z
" id="DejaVuSans-54"/>
      </defs>
      <g transform="translate(90.6 365.840963)scale(0.1 -0.1)">
       <use transform="translate(0 0.765625)" xlink:href="#DejaVuSans-49"/>
       <use transform="translate(63.623047 0.765625)" xlink:href="#DejaVuSans-48"/>
       <use transform="translate(128.203125 39.046875)scale(0.7)" xlink:href="#DejaVuSans-54"/>
      </g>
     </g>
    </g>
    <g id="ytick_3">
     <g id="line2d_8">
      <g>
       <use style="stroke:#000000;stroke-width:0.8;" x="115.2" xlink:href="#m9428c47562" y="286.099573"/>
      </g>
     </g>
     <g id="text_9">
      <!-- $\mathdefault{10^{7}}$ -->
      <g transform="translate(90.6 289.898792)scale(0.1 -0.1)">
       <use transform="translate(0 0.684375)" xlink:href="#DejaVuSans-49"/>
       <use transform="translate(63.623047 0.684375)" xlink:href="#DejaVuSans-48"/>
       <use transform="translate(128.203125 38.965625)scale(0.7)" xlink:href="#DejaVuSans-55"/>
      </g>
     </g>
    </g>
    <g id="ytick_4">
     <g id="line2d_9">
      <g>
       <use style="stroke:#000000;stroke-width:0.8;" x="115.2" xlink:href="#m9428c47562" y="210.157401"/>
      </g>
     </g>
     <g id="text_10">
      <!-- $\mathdefault{10^{8}}$ -->
      <defs>
       <path d="M 31.78125 34.625 
Q 24.75 34.625 20.71875 30.859375 
Q 16.703125 27.09375 16.703125 20.515625 
Q 16.703125 13.921875 20.71875 10.15625 
Q 24.75 6.390625 31.78125 6.390625 
Q 38.8125 6.390625 42.859375 10.171875 
Q 46.921875 13.96875 46.921875 20.515625 
Q 46.921875 27.09375 42.890625 30.859375 
Q 38.875 34.625 31.78125 34.625 
z
M 21.921875 38.8125 
Q 15.578125 40.375 12.03125 44.71875 
Q 8.5 49.078125 8.5 55.328125 
Q 8.5 64.0625 14.71875 69.140625 
Q 20.953125 74.21875 31.78125 74.21875 
Q 42.671875 74.21875 48.875 69.140625 
Q 55.078125 64.0625 55.078125 55.328125 
Q 55.078125 49.078125 51.53125 44.71875 
Q 48 40.375 41.703125 38.8125 
Q 48.828125 37.15625 52.796875 32.3125 
Q 56.78125 27.484375 56.78125 20.515625 
Q 56.78125 9.90625 50.3125 4.234375 
Q 43.84375 -1.421875 31.78125 -1.421875 
Q 19.734375 -1.421875 13.25 4.234375 
Q 6.78125 9.90625 6.78125 20.515625 
Q 6.78125 27.484375 10.78125 32.3125 
Q 14.796875 37.15625 21.921875 38.8125 
z
M 18.3125 54.390625 
Q 18.3125 48.734375 21.84375 45.5625 
Q 25.390625 42.390625 31.78125 42.390625 
Q 38.140625 42.390625 41.71875 45.5625 
Q 45.3125 48.734375 45.3125 54.390625 
Q 45.3125 60.0625 41.71875 63.234375 
Q 38.140625 66.40625 31.78125 66.40625 
Q 25.390625 66.40625 21.84375 63.234375 
Q 18.3125 60.0625 18.3125 54.390625 
z
" id="DejaVuSans-56"/>
      </defs>
      <g transform="translate(90.6 213.95662)scale(0.1 -0.1)">
       <use transform="translate(0 0.765625)" xlink:href="#DejaVuSans-49"/>
       <use transform="translate(63.623047 0.765625)" xlink:href="#DejaVuSans-48"/>
       <use transform="translate(128.203125 39.046875)scale(0.7)" xlink:href="#DejaVuSans-56"/>
      </g>
     </g>
    </g>
    <g id="ytick_5">
     <g id="line2d_10">
      <g>
       <use style="stroke:#000000;stroke-width:0.8;" x="115.2" xlink:href="#m9428c47562" y="134.215229"/>
      </g>
     </g>
     <g id="text_11">
      <!-- $\mathdefault{10^{9}}$ -->
      <g transform="translate(90.6 138.014448)scale(0.1 -0.1)">
       <use transform="translate(0 0.765625)" xlink:href="#DejaVuSans-49"/>
       <use transform="translate(63.623047 0.765625)" xlink:href="#DejaVuSans-48"/>
       <use transform="translate(128.203125 39.046875)scale(0.7)" xlink:href="#DejaVuSans-57"/>
      </g>
     </g>
    </g>
    <g id="ytick_6">
     <g id="line2d_11">
      <defs>
       <path d="M 0 0 
L -2 0 
" id="m7cece817ea" style="stroke:#000000;stroke-width:0.6;"/>
      </defs>
      <g>
       <use style="stroke:#000000;stroke-width:0.6;" x="115.2" xlink:href="#m7cece817ea" y="454.831592"/>
      </g>
     </g>
    </g>
    <g id="ytick_7">
     <g id="line2d_12">
      <g>
       <use style="stroke:#000000;stroke-width:0.6;" x="115.2" xlink:href="#m7cece817ea" y="449.747508"/>
      </g>
     </g>
    </g>
    <g id="ytick_8">
     <g id="line2d_13">
      <g>
       <use style="stroke:#000000;stroke-width:0.6;" x="115.2" xlink:href="#m7cece817ea" y="445.343473"/>
      </g>
     </g>
    </g>
    <g id="ytick_9">
     <g id="line2d_14">
      <g>
       <use style="stroke:#000000;stroke-width:0.6;" x="115.2" xlink:href="#m7cece817ea" y="441.45884"/>
      </g>
     </g>
    </g>
    <g id="ytick_10">
     <g id="line2d_15">
      <g>
       <use style="stroke:#000000;stroke-width:0.6;" x="115.2" xlink:href="#m7cece817ea" y="415.123045"/>
      </g>
     </g>
    </g>
    <g id="ytick_11">
     <g id="line2d_16">
      <g>
       <use style="stroke:#000000;stroke-width:0.6;" x="115.2" xlink:href="#m7cece817ea" y="401.750292"/>
      </g>
     </g>
    </g>
    <g id="ytick_12">
     <g id="line2d_17">
      <g>
       <use style="stroke:#000000;stroke-width:0.6;" x="115.2" xlink:href="#m7cece817ea" y="392.262173"/>
      </g>
     </g>
    </g>
    <g id="ytick_13">
     <g id="line2d_18">
      <g>
       <use style="stroke:#000000;stroke-width:0.6;" x="115.2" xlink:href="#m7cece817ea" y="384.902616"/>
      </g>
     </g>
    </g>
    <g id="ytick_14">
     <g id="line2d_19">
      <g>
       <use style="stroke:#000000;stroke-width:0.6;" x="115.2" xlink:href="#m7cece817ea" y="378.889421"/>
      </g>
     </g>
    </g>
    <g id="ytick_15">
     <g id="line2d_20">
      <g>
       <use style="stroke:#000000;stroke-width:0.6;" x="115.2" xlink:href="#m7cece817ea" y="373.805336"/>
      </g>
     </g>
    </g>
    <g id="ytick_16">
     <g id="line2d_21">
      <g>
       <use style="stroke:#000000;stroke-width:0.6;" x="115.2" xlink:href="#m7cece817ea" y="369.401302"/>
      </g>
     </g>
    </g>
    <g id="ytick_17">
     <g id="line2d_22">
      <g>
       <use style="stroke:#000000;stroke-width:0.6;" x="115.2" xlink:href="#m7cece817ea" y="365.516668"/>
      </g>
     </g>
    </g>
    <g id="ytick_18">
     <g id="line2d_23">
      <g>
       <use style="stroke:#000000;stroke-width:0.6;" x="115.2" xlink:href="#m7cece817ea" y="339.180873"/>
      </g>
     </g>
    </g>
    <g id="ytick_19">
     <g id="line2d_24">
      <g>
       <use style="stroke:#000000;stroke-width:0.6;" x="115.2" xlink:href="#m7cece817ea" y="325.80812"/>
      </g>
     </g>
    </g>
    <g id="ytick_20">
     <g id="line2d_25">
      <g>
       <use style="stroke:#000000;stroke-width:0.6;" x="115.2" xlink:href="#m7cece817ea" y="316.320001"/>
      </g>
     </g>
    </g>
    <g id="ytick_21">
     <g id="line2d_26">
      <g>
       <use style="stroke:#000000;stroke-width:0.6;" x="115.2" xlink:href="#m7cece817ea" y="308.960444"/>
      </g>
     </g>
    </g>
    <g id="ytick_22">
     <g id="line2d_27">
      <g>
       <use style="stroke:#000000;stroke-width:0.6;" x="115.2" xlink:href="#m7cece817ea" y="302.947249"/>
      </g>
     </g>
    </g>
    <g id="ytick_23">
     <g id="line2d_28">
      <g>
       <use style="stroke:#000000;stroke-width:0.6;" x="115.2" xlink:href="#m7cece817ea" y="297.863164"/>
      </g>
     </g>
    </g>
    <g id="ytick_24">
     <g id="line2d_29">
      <g>
       <use style="stroke:#000000;stroke-width:0.6;" x="115.2" xlink:href="#m7cece817ea" y="293.45913"/>
      </g>
     </g>
    </g>
    <g id="ytick_25">
     <g id="line2d_30">
      <g>
       <use style="stroke:#000000;stroke-width:0.6;" x="115.2" xlink:href="#m7cece817ea" y="289.574496"/>
      </g>
     </g>
    </g>
    <g id="ytick_26">
     <g id="line2d_31">
      <g>
       <use style="stroke:#000000;stroke-width:0.6;" x="115.2" xlink:href="#m7cece817ea" y="263.238701"/>
      </g>
     </g>
    </g>
    <g id="ytick_27">
     <g id="line2d_32">
      <g>
       <use style="stroke:#000000;stroke-width:0.6;" x="115.2" xlink:href="#m7cece817ea" y="249.865948"/>
      </g>
     </g>
    </g>
    <g id="ytick_28">
     <g id="line2d_33">
      <g>
       <use style="stroke:#000000;stroke-width:0.6;" x="115.2" xlink:href="#m7cece817ea" y="240.377829"/>
      </g>
     </g>
    </g>
    <g id="ytick_29">
     <g id="line2d_34">
      <g>
       <use style="stroke:#000000;stroke-width:0.6;" x="115.2" xlink:href="#m7cece817ea" y="233.018273"/>
      </g>
     </g>
    </g>
    <g id="ytick_30">
     <g id="line2d_35">
      <g>
       <use style="stroke:#000000;stroke-width:0.6;" x="115.2" xlink:href="#m7cece817ea" y="227.005077"/>
      </g>
     </g>
    </g>
    <g id="ytick_31">
     <g id="line2d_36">
      <g>
       <use style="stroke:#000000;stroke-width:0.6;" x="115.2" xlink:href="#m7cece817ea" y="221.920992"/>
      </g>
     </g>
    </g>
    <g id="ytick_32">
     <g id="line2d_37">
      <g>
       <use style="stroke:#000000;stroke-width:0.6;" x="115.2" xlink:href="#m7cece817ea" y="217.516958"/>
      </g>
     </g>
    </g>
    <g id="ytick_33">
     <g id="line2d_38">
      <g>
       <use style="stroke:#000000;stroke-width:0.6;" x="115.2" xlink:href="#m7cece817ea" y="213.632324"/>
      </g>
     </g>
    </g>
    <g id="ytick_34">
     <g id="line2d_39">
      <g>
       <use style="stroke:#000000;stroke-width:0.6;" x="115.2" xlink:href="#m7cece817ea" y="187.296529"/>
      </g>
     </g>
    </g>
    <g id="ytick_35">
     <g id="line2d_40">
      <g>
       <use style="stroke:#000000;stroke-width:0.6;" x="115.2" xlink:href="#m7cece817ea" y="173.923777"/>
      </g>
     </g>
    </g>
    <g id="ytick_36">
     <g id="line2d_41">
      <g>
       <use style="stroke:#000000;stroke-width:0.6;" x="115.2" xlink:href="#m7cece817ea" y="164.435658"/>
      </g>
     </g>
    </g>
    <g id="ytick_37">
     <g id="line2d_42">
      <g>
       <use style="stroke:#000000;stroke-width:0.6;" x="115.2" xlink:href="#m7cece817ea" y="157.076101"/>
      </g>
     </g>
    </g>
    <g id="ytick_38">
     <g id="line2d_43">
      <g>
       <use style="stroke:#000000;stroke-width:0.6;" x="115.2" xlink:href="#m7cece817ea" y="151.062905"/>
      </g>
     </g>
    </g>
    <g id="ytick_39">
     <g id="line2d_44">
      <g>
       <use style="stroke:#000000;stroke-width:0.6;" x="115.2" xlink:href="#m7cece817ea" y="145.97882"/>
      </g>
     </g>
    </g>
    <g id="ytick_40">
     <g id="line2d_45">
      <g>
       <use style="stroke:#000000;stroke-width:0.6;" x="115.2" xlink:href="#m7cece817ea" y="141.574786"/>
      </g>
     </g>
    </g>
    <g id="ytick_41">
     <g id="line2d_46">
      <g>
       <use style="stroke:#000000;stroke-width:0.6;" x="115.2" xlink:href="#m7cece817ea" y="137.690152"/>
      </g>
     </g>
    </g>
    <g id="ytick_42">
     <g id="line2d_47">
      <g>
       <use style="stroke:#000000;stroke-width:0.6;" x="115.2" xlink:href="#m7cece817ea" y="111.354357"/>
      </g>
     </g>
    </g>
    <g id="ytick_43">
     <g id="line2d_48">
      <g>
       <use style="stroke:#000000;stroke-width:0.6;" x="115.2" xlink:href="#m7cece817ea" y="97.981605"/>
      </g>
     </g>
    </g>
    <g id="ytick_44">
     <g id="line2d_49">
      <g>
       <use style="stroke:#000000;stroke-width:0.6;" x="115.2" xlink:href="#m7cece817ea" y="88.493486"/>
      </g>
     </g>
    </g>
    <g id="ytick_45">
     <g id="line2d_50">
      <g>
       <use style="stroke:#000000;stroke-width:0.6;" x="115.2" xlink:href="#m7cece817ea" y="81.133929"/>
      </g>
     </g>
    </g>
    <g id="ytick_46">
     <g id="line2d_51">
      <g>
       <use style="stroke:#000000;stroke-width:0.6;" x="115.2" xlink:href="#m7cece817ea" y="75.120733"/>
      </g>
     </g>
    </g>
    <g id="ytick_47">
     <g id="line2d_52">
      <g>
       <use style="stroke:#000000;stroke-width:0.6;" x="115.2" xlink:href="#m7cece817ea" y="70.036649"/>
      </g>
     </g>
    </g>
    <g id="ytick_48">
     <g id="line2d_53">
      <g>
       <use style="stroke:#000000;stroke-width:0.6;" x="115.2" xlink:href="#m7cece817ea" y="65.632614"/>
      </g>
     </g>
    </g>
    <g id="text_12">
     <!-- Elements per second -->
     <defs>
      <path d="M 9.8125 72.90625 
L 55.90625 72.90625 
L 55.90625 64.59375 
L 19.671875 64.59375 
L 19.671875 43.015625 
L 54.390625 43.015625 
L 54.390625 34.71875 
L 19.671875 34.71875 
L 19.671875 8.296875 
L 56.78125 8.296875 
L 56.78125 0 
L 9.8125 0 
z
" id="DejaVuSans-69"/>
      <path d="M 18.109375 8.203125 
L 18.109375 -20.796875 
L 9.078125 -20.796875 
L 9.078125 54.6875 
L 18.109375 54.6875 
L 18.109375 46.390625 
Q 20.953125 51.265625 25.265625 53.625 
Q 29.59375 56 35.59375 56 
Q 45.5625 56 51.78125 48.09375 
Q 58.015625 40.1875 58.015625 27.296875 
Q 58.015625 14.40625 51.78125 6.484375 
Q 45.5625 -1.421875 35.59375 -1.421875 
Q 29.59375 -1.421875 25.265625 0.953125 
Q 20.953125 3.328125 18.109375 8.203125 
z
M 48.6875 27.296875 
Q 48.6875 37.203125 44.609375 42.84375 
Q 40.53125 48.484375 33.40625 48.484375 
Q 26.265625 48.484375 22.1875 42.84375 
Q 18.109375 37.203125 18.109375 27.296875 
Q 18.109375 17.390625 22.1875 11.75 
Q 26.265625 6.109375 33.40625 6.109375 
Q 40.53125 6.109375 44.609375 11.75 
Q 48.6875 17.390625 48.6875 27.296875 
z
" id="DejaVuSans-112"/>
      <path d="M 48.78125 52.59375 
L 48.78125 44.1875 
Q 44.96875 46.296875 41.140625 47.34375 
Q 37.3125 48.390625 33.40625 48.390625 
Q 24.65625 48.390625 19.8125 42.84375 
Q 14.984375 37.3125 14.984375 27.296875 
Q 14.984375 17.28125 19.8125 11.734375 
Q 24.65625 6.203125 33.40625 6.203125 
Q 37.3125 6.203125 41.140625 7.25 
Q 44.96875 8.296875 48.78125 10.40625 
L 48.78125 2.09375 
Q 45.015625 0.34375 40.984375 -0.53125 
Q 36.96875 -1.421875 32.421875 -1.421875 
Q 20.0625 -1.421875 12.78125 6.34375 
Q 5.515625 14.109375 5.515625 27.296875 
Q 5.515625 40.671875 12.859375 48.328125 
Q 20.21875 56 33.015625 56 
Q 37.15625 56 41.109375 55.140625 
Q 45.0625 54.296875 48.78125 52.59375 
z
" id="DejaVuSans-99"/>
      <path d="M 45.40625 46.390625 
L 45.40625 75.984375 
L 54.390625 75.984375 
L 54.390625 0 
L 45.40625 0 
L 45.40625 8.203125 
Q 42.578125 3.328125 38.25 0.953125 
Q 33.9375 -1.421875 27.875 -1.421875 
Q 17.96875 -1.421875 11.734375 6.484375 
Q 5.515625 14.40625 5.515625 27.296875 
Q 5.515625 40.1875 11.734375 48.09375 
Q 17.96875 56 27.875 56 
Q 33.9375 56 38.25 53.625 
Q 42.578125 51.265625 45.40625 46.390625 
z
M 14.796875 27.296875 
Q 14.796875 17.390625 18.875 11.75 
Q 22.953125 6.109375 30.078125 6.109375 
Q 37.203125 6.109375 41.296875 11.75 
Q 45.40625 17.390625 45.40625 27.296875 
Q 45.40625 37.203125 41.296875 42.84375 
Q 37.203125 48.484375 30.078125 48.484375 
Q 22.953125 48.484375 18.875 42.84375 
Q 14.796875 37.203125 14.796875 27.296875 
z
" id="DejaVuSans-100"/>
     </defs>
     <g transform="translate(84.520312 314.051056)rotate(-90)scale(0.1 -0.1)">
      <use xlink:href="#DejaVuSans-69"/>
      <use x="63.183594" xlink:href="#DejaVuSans-108"/>
      <use x="90.966797" xlink:href="#DejaVuSans-101"/>
      <use x="152.490234" xlink:href="#DejaVuSans-109"/>
      <use x="249.902344" xlink:href="#DejaVuSans-101"/>
      <use x="311.425781" xlink:href="#DejaVuSans-110"/>
      <use x="374.804688" xlink:href="#DejaVuSans-116"/>
      <use x="414.013672" xlink:href="#DejaVuSans-115"/>
      <use x="466.113281" xlink:href="#DejaVuSans-32"/>
      <use x="497.900391" xlink:href="#DejaVuSans-112"/>
      <use x="561.376953" xlink:href="#DejaVuSans-101"/>
      <use x="622.900391" xlink:href="#DejaVuSans-114"/>
      <use x="664.013672" xlink:href="#DejaVuSans-32"/>
      <use x="695.800781" xlink:href="#DejaVuSans-115"/>
      <use x="747.900391" xlink:href="#DejaVuSans-101"/>
      <use x="809.423828" xlink:href="#DejaVuSans-99"/>
      <use x="864.404297" xlink:href="#DejaVuSans-111"/>
      <use x="925.585938" xlink:href="#DejaVuSans-110"/>
      <use x="988.964844" xlink:href="#DejaVuSans-100"/>
     </g>
    </g>
   </g>
   <g id="line2d_54">
    <path clip-path="url(#pc5abee1192)" d="M 147.665455 299.670566 
L 180.863191 278.007291 
L 201.808631 270.074274 
L 217.244699 261.210293 
L 229.496996 254.864433 
L 239.664474 249.051346 
L 248.357617 244.481816 
L 255.951807 240.643067 
L 262.694732 238.336627 
L 268.758576 234.338355 
L 274.267947 229.742218 
L 292.333315 220.664113 
L 306.219409 211.467084 
L 317.502064 205.222553 
L 327.005387 201.372822 
L 335.215033 196.165665 
L 342.441455 191.779827 
L 348.895212 188.995404 
L 354.725712 185.545475 
L 360.042816 182.342059 
L 364.929674 178.866578 
L 369.450738 176.078554 
L 373.656981 173.984926 
L 377.589409 171.794262 
L 378.533795 171.187313 
L 420.19133 150.312861 
L 461.964858 133.918721 
L 503.796891 121.202611 
L 545.658304 110.115251 
L 587.534439 162.059528 
L 629.417944 165.369939 
L 641.469135 159.476296 
L 671.305135 170.355539 
L 713.19417 176.367086 
L 755.084127 176.03795 
L 796.974545 186.616339 
" style="fill:none;stroke:#000000;stroke-linecap:square;"/>
    <defs>
     <path d="M 0 2.5 
C 0.663008 2.5 1.29895 2.236584 1.767767 1.767767 
C 2.236584 1.29895 2.5 0.663008 2.5 0 
C 2.5 -0.663008 2.236584 -1.29895 1.767767 -1.767767 
C 1.29895 -2.236584 0.663008 -2.5 0 -2.5 
C -0.663008 -2.5 -1.29895 -2.236584 -1.767767 -1.767767 
C -2.236584 -1.29895 -2.5 -0.663008 -2.5 0 
C -2.5 0.663008 -2.236584 1.29895 -1.767767 1.767767 
C -1.29895 2.236584 -0.663008 2.5 0 2.5 
z
" id="mc716b50199" style="stroke:#000000;"/>
    </defs>
    <g clip-path="url(#pc5abee1192)">
     <use style="stroke:#000000;" x="147.665455" xlink:href="#mc716b50199" y="299.670566"/>
     <use style="stroke:#000000;" x="180.863191" xlink:href="#mc716b50199" y="278.007291"/>
     <use style="stroke:#000000;" x="201.808631" xlink:href="#mc716b50199" y="270.074274"/>
     <use style="stroke:#000000;" x="217.244699" xlink:href="#mc716b50199" y="261.210293"/>
     <use style="stroke:#000000;" x="229.496996" xlink:href="#mc716b50199" y="254.864433"/>
     <use style="stroke:#000000;" x="239.664474" xlink:href="#mc716b50199" y="249.051346"/>
     <use style="stroke:#000000;" x="248.357617" xlink:href="#mc716b50199" y="244.481816"/>
     <use style="stroke:#000000;" x="255.951807" xlink:href="#mc716b50199" y="240.643067"/>
     <use style="stroke:#000000;" x="262.694732" xlink:href="#mc716b50199" y="238.336627"/>
     <use style="stroke:#000000;" x="268.758576" xlink:href="#mc716b50199" y="234.338355"/>
     <use style="stroke:#000000;" x="274.267947" xlink:href="#mc716b50199" y="229.742218"/>
     <use style="stroke:#000000;" x="292.333315" xlink:href="#mc716b50199" y="220.664113"/>
     <use style="stroke:#000000;" x="306.219409" xlink:href="#mc716b50199" y="211.467084"/>
     <use style="stroke:#000000;" x="317.502064" xlink:href="#mc716b50199" y="205.222553"/>
     <use style="stroke:#000000;" x="327.005387" xlink:href="#mc716b50199" y="201.372822"/>
     <use style="stroke:#000000;" x="335.215033" xlink:href="#mc716b50199" y="196.165665"/>
     <use style="stroke:#000000;" x="342.441455" xlink:href="#mc716b50199" y="191.779827"/>
     <use style="stroke:#000000;" x="348.895212" xlink:href="#mc716b50199" y="188.995404"/>
     <use style="stroke:#000000;" x="354.725712" xlink:href="#mc716b50199" y="185.545475"/>
     <use style="stroke:#000000;" x="360.042816" xlink:href="#mc716b50199" y="182.342059"/>
     <use style="stroke:#000000;" x="364.929674" xlink:href="#mc716b50199" y="178.866578"/>
     <use style="stroke:#000000;" x="369.450738" xlink:href="#mc716b50199" y="176.078554"/>
     <use style="stroke:#000000;" x="373.656981" xlink:href="#mc716b50199" y="173.984926"/>
     <use style="stroke:#000000;" x="377.589409" xlink:href="#mc716b50199" y="171.794262"/>
     <use style="stroke:#000000;" x="378.533795" xlink:href="#mc716b50199" y="171.187313"/>
     <use style="stroke:#000000;" x="420.19133" xlink:href="#mc716b50199" y="150.312861"/>
     <use style="stroke:#000000;" x="461.964858" xlink:href="#mc716b50199" y="133.918721"/>
     <use style="stroke:#000000;" x="503.796891" xlink:href="#mc716b50199" y="121.202611"/>
     <use style="stroke:#000000;" x="545.658304" xlink:href="#mc716b50199" y="110.115251"/>
     <use style="stroke:#000000;" x="587.534439" xlink:href="#mc716b50199" y="162.059528"/>
     <use style="stroke:#000000;" x="629.417944" xlink:href="#mc716b50199" y="165.369939"/>
     <use style="stroke:#000000;" x="641.469135" xlink:href="#mc716b50199" y="159.476296"/>
     <use style="stroke:#000000;" x="671.305135" xlink:href="#mc716b50199" y="170.355539"/>
     <use style="stroke:#000000;" x="713.19417" xlink:href="#mc716b50199" y="176.367086"/>
     <use style="stroke:#000000;" x="755.084127" xlink:href="#mc716b50199" y="176.03795"/>
     <use style="stroke:#000000;" x="796.974545" xlink:href="#mc716b50199" y="186.616339"/>
    </g>
   </g>
   <g id="line2d_55">
    <path clip-path="url(#pc5abee1192)" d="M 147.665455 442.6164 
L 180.863191 422.593047 
L 201.808631 414.964696 
L 217.244699 406.377257 
L 229.496996 399.733952 
L 239.664474 394.411547 
L 248.357617 389.695659 
L 255.951807 385.606535 
L 262.694732 381.66351 
L 268.758576 378.441227 
L 274.267947 376.032025 
L 292.333315 366.449875 
L 306.219409 359.220348 
L 317.502064 353.726924 
L 327.005387 348.38511 
L 335.215033 343.594688 
L 342.441455 339.248206 
L 348.895212 335.234273 
L 354.725712 333.198858 
L 360.042816 331.565526 
L 364.929674 330.066845 
L 369.450738 324.560655 
L 373.656981 321.22393 
L 377.589409 319.091475 
L 378.533795 318.663414 
L 420.19133 294.852922 
L 461.964858 274.105665 
L 503.796891 251.143453 
L 545.658304 230.903757 
L 587.534439 208.412762 
L 629.417944 190.665799 
L 641.469135 189.371877 
L 671.305135 179.682502 
L 713.19417 164.202458 
L 755.084127 150.187309 
L 796.974545 144.477981 
" style="fill:none;stroke:#0652ff;stroke-linecap:square;"/>
    <defs>
     <path d="M -2.5 0 
L 2.5 0 
M 0 2.5 
L 0 -2.5 
" id="m376c174e77" style="stroke:#0652ff;"/>
    </defs>
    <g clip-path="url(#pc5abee1192)">
     <use style="fill:#0652ff;stroke:#0652ff;" x="147.665455" xlink:href="#m376c174e77" y="442.6164"/>
     <use style="fill:#0652ff;stroke:#0652ff;" x="180.863191" xlink:href="#m376c174e77" y="422.593047"/>
     <use style="fill:#0652ff;stroke:#0652ff;" x="201.808631" xlink:href="#m376c174e77" y="414.964696"/>
     <use style="fill:#0652ff;stroke:#0652ff;" x="217.244699" xlink:href="#m376c174e77" y="406.377257"/>
     <use style="fill:#0652ff;stroke:#0652ff;" x="229.496996" xlink:href="#m376c174e77" y="399.733952"/>
     <use style="fill:#0652ff;stroke:#0652ff;" x="239.664474" xlink:href="#m376c174e77" y="394.411547"/>
     <use style="fill:#0652ff;stroke:#0652ff;" x="248.357617" xlink:href="#m376c174e77" y="389.695659"/>
     <use style="fill:#0652ff;stroke:#0652ff;" x="255.951807" xlink:href="#m376c174e77" y="385.606535"/>
     <use style="fill:#0652ff;stroke:#0652ff;" x="262.694732" xlink:href="#m376c174e77" y="381.66351"/>
     <use style="fill:#0652ff;stroke:#0652ff;" x="268.758576" xlink:href="#m376c174e77" y="378.441227"/>
     <use style="fill:#0652ff;stroke:#0652ff;" x="274.267947" xlink:href="#m376c174e77" y="376.032025"/>
     <use style="fill:#0652ff;stroke:#0652ff;" x="292.333315" xlink:href="#m376c174e77" y="366.449875"/>
     <use style="fill:#0652ff;stroke:#0652ff;" x="306.219409" xlink:href="#m376c174e77" y="359.220348"/>
     <use style="fill:#0652ff;stroke:#0652ff;" x="317.502064" xlink:href="#m376c174e77" y="353.726924"/>
     <use style="fill:#0652ff;stroke:#0652ff;" x="327.005387" xlink:href="#m376c174e77" y="348.38511"/>
     <use style="fill:#0652ff;stroke:#0652ff;" x="335.215033" xlink:href="#m376c174e77" y="343.594688"/>
     <use style="fill:#0652ff;stroke:#0652ff;" x="342.441455" xlink:href="#m376c174e77" y="339.248206"/>
     <use style="fill:#0652ff;stroke:#0652ff;" x="348.895212" xlink:href="#m376c174e77" y="335.234273"/>
     <use style="fill:#0652ff;stroke:#0652ff;" x="354.725712" xlink:href="#m376c174e77" y="333.198858"/>
     <use style="fill:#0652ff;stroke:#0652ff;" x="360.042816" xlink:href="#m376c174e77" y="331.565526"/>
     <use style="fill:#0652ff;stroke:#0652ff;" x="364.929674" xlink:href="#m376c174e77" y="330.066845"/>
     <use style="fill:#0652ff;stroke:#0652ff;" x="369.450738" xlink:href="#m376c174e77" y="324.560655"/>
     <use style="fill:#0652ff;stroke:#0652ff;" x="373.656981" xlink:href="#m376c174e77" y="321.22393"/>
     <use style="fill:#0652ff;stroke:#0652ff;" x="377.589409" xlink:href="#m376c174e77" y="319.091475"/>
     <use style="fill:#0652ff;stroke:#0652ff;" x="378.533795" xlink:href="#m376c174e77" y="318.663414"/>
     <use style="fill:#0652ff;stroke:#0652ff;" x="420.19133" xlink:href="#m376c174e77" y="294.852922"/>
     <use style="fill:#0652ff;stroke:#0652ff;" x="461.964858" xlink:href="#m376c174e77" y="274.105665"/>
     <use style="fill:#0652ff;stroke:#0652ff;" x="503.796891" xlink:href="#m376c174e77" y="251.143453"/>
     <use style="fill:#0652ff;stroke:#0652ff;" x="545.658304" xlink:href="#m376c174e77" y="230.903757"/>
     <use style="fill:#0652ff;stroke:#0652ff;" x="587.534439" xlink:href="#m376c174e77" y="208.412762"/>
     <use style="fill:#0652ff;stroke:#0652ff;" x="629.417944" xlink:href="#m376c174e77" y="190.665799"/>
     <use style="fill:#0652ff;stroke:#0652ff;" x="641.469135" xlink:href="#m376c174e77" y="189.371877"/>
     <use style="fill:#0652ff;stroke:#0652ff;" x="671.305135" xlink:href="#m376c174e77" y="179.682502"/>
     <use style="fill:#0652ff;stroke:#0652ff;" x="713.19417" xlink:href="#m376c174e77" y="164.202458"/>
     <use style="fill:#0652ff;stroke:#0652ff;" x="755.084127" xlink:href="#m376c174e77" y="150.187309"/>
     <use style="fill:#0652ff;stroke:#0652ff;" x="796.974545" xlink:href="#m376c174e77" y="144.477981"/>
    </g>
   </g>
   <g id="line2d_56">
    <path clip-path="url(#pc5abee1192)" d="M 147.665455 313.870298 
L 180.863191 318.526087 
L 201.808631 311.674303 
L 217.244699 304.779253 
L 229.496996 301.205305 
L 239.664474 298.942796 
L 248.357617 296.005688 
L 255.951807 292.27502 
L 262.694732 289.187077 
L 268.758576 276.194683 
L 274.267947 279.157314 
L 292.333315 260.497087 
L 306.219409 250.305617 
L 317.502064 243.347793 
L 327.005387 235.617787 
L 335.215033 232.450445 
L 342.441455 227.869064 
L 348.895212 219.516352 
L 354.725712 218.208356 
L 360.042816 211.972381 
L 364.929674 207.600349 
L 369.450738 204.155789 
L 373.656981 201.487577 
L 377.589409 198.92127 
L 378.533795 198.39942 
L 420.19133 173.715256 
L 461.964858 155.397402 
L 503.796891 138.908084 
L 545.658304 133.235193 
L 587.534439 127.27814 
L 629.417944 148.073245 
L 641.469135 146.636175 
L 671.305135 157.906751 
L 713.19417 159.654393 
L 755.084127 161.575515 
L 796.974545 167.491921 
" style="fill:none;stroke:#0cff0c;stroke-linecap:square;"/>
    <defs>
     <path d="M -2.5 2.5 
L 2.5 -2.5 
M -2.5 -2.5 
L 2.5 2.5 
" id="m38bebf5b91" style="stroke:#0cff0c;"/>
    </defs>
    <g clip-path="url(#pc5abee1192)">
     <use style="fill:#0cff0c;stroke:#0cff0c;" x="147.665455" xlink:href="#m38bebf5b91" y="313.870298"/>
     <use style="fill:#0cff0c;stroke:#0cff0c;" x="180.863191" xlink:href="#m38bebf5b91" y="318.526087"/>
     <use style="fill:#0cff0c;stroke:#0cff0c;" x="201.808631" xlink:href="#m38bebf5b91" y="311.674303"/>
     <use style="fill:#0cff0c;stroke:#0cff0c;" x="217.244699" xlink:href="#m38bebf5b91" y="304.779253"/>
     <use style="fill:#0cff0c;stroke:#0cff0c;" x="229.496996" xlink:href="#m38bebf5b91" y="301.205305"/>
     <use style="fill:#0cff0c;stroke:#0cff0c;" x="239.664474" xlink:href="#m38bebf5b91" y="298.942796"/>
     <use style="fill:#0cff0c;stroke:#0cff0c;" x="248.357617" xlink:href="#m38bebf5b91" y="296.005688"/>
     <use style="fill:#0cff0c;stroke:#0cff0c;" x="255.951807" xlink:href="#m38bebf5b91" y="292.27502"/>
     <use style="fill:#0cff0c;stroke:#0cff0c;" x="262.694732" xlink:href="#m38bebf5b91" y="289.187077"/>
     <use style="fill:#0cff0c;stroke:#0cff0c;" x="268.758576" xlink:href="#m38bebf5b91" y="276.194683"/>
     <use style="fill:#0cff0c;stroke:#0cff0c;" x="274.267947" xlink:href="#m38bebf5b91" y="279.157314"/>
     <use style="fill:#0cff0c;stroke:#0cff0c;" x="292.333315" xlink:href="#m38bebf5b91" y="260.497087"/>
     <use style="fill:#0cff0c;stroke:#0cff0c;" x="306.219409" xlink:href="#m38bebf5b91" y="250.305617"/>
     <use style="fill:#0cff0c;stroke:#0cff0c;" x="317.502064" xlink:href="#m38bebf5b91" y="243.347793"/>
     <use style="fill:#0cff0c;stroke:#0cff0c;" x="327.005387" xlink:href="#m38bebf5b91" y="235.617787"/>
     <use style="fill:#0cff0c;stroke:#0cff0c;" x="335.215033" xlink:href="#m38bebf5b91" y="232.450445"/>
     <use style="fill:#0cff0c;stroke:#0cff0c;" x="342.441455" xlink:href="#m38bebf5b91" y="227.869064"/>
     <use style="fill:#0cff0c;stroke:#0cff0c;" x="348.895212" xlink:href="#m38bebf5b91" y="219.516352"/>
     <use style="fill:#0cff0c;stroke:#0cff0c;" x="354.725712" xlink:href="#m38bebf5b91" y="218.208356"/>
     <use style="fill:#0cff0c;stroke:#0cff0c;" x="360.042816" xlink:href="#m38bebf5b91" y="211.972381"/>
     <use style="fill:#0cff0c;stroke:#0cff0c;" x="364.929674" xlink:href="#m38bebf5b91" y="207.600349"/>
     <use style="fill:#0cff0c;stroke:#0cff0c;" x="369.450738" xlink:href="#m38bebf5b91" y="204.155789"/>
     <use style="fill:#0cff0c;stroke:#0cff0c;" x="373.656981" xlink:href="#m38bebf5b91" y="201.487577"/>
     <use style="fill:#0cff0c;stroke:#0cff0c;" x="377.589409" xlink:href="#m38bebf5b91" y="198.92127"/>
     <use style="fill:#0cff0c;stroke:#0cff0c;" x="378.533795" xlink:href="#m38bebf5b91" y="198.39942"/>
     <use style="fill:#0cff0c;stroke:#0cff0c;" x="420.19133" xlink:href="#m38bebf5b91" y="173.715256"/>
     <use style="fill:#0cff0c;stroke:#0cff0c;" x="461.964858" xlink:href="#m38bebf5b91" y="155.397402"/>
     <use style="fill:#0cff0c;stroke:#0cff0c;" x="503.796891" xlink:href="#m38bebf5b91" y="138.908084"/>
     <use style="fill:#0cff0c;stroke:#0cff0c;" x="545.658304" xlink:href="#m38bebf5b91" y="133.235193"/>
     <use style="fill:#0cff0c;stroke:#0cff0c;" x="587.534439" xlink:href="#m38bebf5b91" y="127.27814"/>
     <use style="fill:#0cff0c;stroke:#0cff0c;" x="629.417944" xlink:href="#m38bebf5b91" y="148.073245"/>
     <use style="fill:#0cff0c;stroke:#0cff0c;" x="641.469135" xlink:href="#m38bebf5b91" y="146.636175"/>
     <use style="fill:#0cff0c;stroke:#0cff0c;" x="671.305135" xlink:href="#m38bebf5b91" y="157.906751"/>
     <use style="fill:#0cff0c;stroke:#0cff0c;" x="713.19417" xlink:href="#m38bebf5b91" y="159.654393"/>
     <use style="fill:#0cff0c;stroke:#0cff0c;" x="755.084127" xlink:href="#m38bebf5b91" y="161.575515"/>
     <use style="fill:#0cff0c;stroke:#0cff0c;" x="796.974545" xlink:href="#m38bebf5b91" y="167.491921"/>
    </g>
   </g>
   <g id="line2d_57">
    <path clip-path="url(#pc5abee1192)" d="M 147.665455 298.461717 
L 180.863191 303.308526 
L 201.808631 293.941944 
L 217.244699 289.73577 
L 229.496996 286.656744 
L 239.664474 281.616694 
L 248.357617 279.015279 
L 255.951807 274.34315 
L 262.694732 271.553291 
L 268.758576 264.774954 
L 274.267947 263.745825 
L 292.333315 257.413046 
L 306.219409 248.485101 
L 317.502064 240.207055 
L 327.005387 232.683357 
L 335.215033 224.890591 
L 342.441455 220.086079 
L 348.895212 213.200977 
L 354.725712 206.048067 
L 360.042816 199.232137 
L 364.929674 194.920823 
L 369.450738 190.539623 
L 373.656981 187.215681 
L 377.589409 182.931236 
L 378.533795 181.852137 
L 420.19133 157.152192 
L 461.964858 140.450352 
L 503.796891 133.97926 
L 545.658304 129.442872 
L 587.534439 128.361037 
L 629.417944 130.264531 
L 641.469135 130.445665 
L 671.305135 141.41035 
L 713.19417 152.586443 
L 755.084127 157.129024 
L 796.974545 191.567947 
" style="fill:none;stroke:#e50000;stroke-linecap:square;"/>
    <defs>
     <path d="M -0 2.5 
L 2.5 -2.5 
L -2.5 -2.5 
z
" id="m3658493fa0" style="stroke:#e50000;stroke-linejoin:miter;"/>
    </defs>
    <g clip-path="url(#pc5abee1192)">
     <use style="fill:#e50000;stroke:#e50000;stroke-linejoin:miter;" x="147.665455" xlink:href="#m3658493fa0" y="298.461717"/>
     <use style="fill:#e50000;stroke:#e50000;stroke-linejoin:miter;" x="180.863191" xlink:href="#m3658493fa0" y="303.308526"/>
     <use style="fill:#e50000;stroke:#e50000;stroke-linejoin:miter;" x="201.808631" xlink:href="#m3658493fa0" y="293.941944"/>
     <use style="fill:#e50000;stroke:#e50000;stroke-linejoin:miter;" x="217.244699" xlink:href="#m3658493fa0" y="289.73577"/>
     <use style="fill:#e50000;stroke:#e50000;stroke-linejoin:miter;" x="229.496996" xlink:href="#m3658493fa0" y="286.656744"/>
     <use style="fill:#e50000;stroke:#e50000;stroke-linejoin:miter;" x="239.664474" xlink:href="#m3658493fa0" y="281.616694"/>
     <use style="fill:#e50000;stroke:#e50000;stroke-linejoin:miter;" x="248.357617" xlink:href="#m3658493fa0" y="279.015279"/>
     <use style="fill:#e50000;stroke:#e50000;stroke-linejoin:miter;" x="255.951807" xlink:href="#m3658493fa0" y="274.34315"/>
     <use style="fill:#e50000;stroke:#e50000;stroke-linejoin:miter;" x="262.694732" xlink:href="#m3658493fa0" y="271.553291"/>
     <use style="fill:#e50000;stroke:#e50000;stroke-linejoin:miter;" x="268.758576" xlink:href="#m3658493fa0" y="264.774954"/>
     <use style="fill:#e50000;stroke:#e50000;stroke-linejoin:miter;" x="274.267947" xlink:href="#m3658493fa0" y="263.745825"/>
     <use style="fill:#e50000;stroke:#e50000;stroke-linejoin:miter;" x="292.333315" xlink:href="#m3658493fa0" y="257.413046"/>
     <use style="fill:#e50000;stroke:#e50000;stroke-linejoin:miter;" x="306.219409" xlink:href="#m3658493fa0" y="248.485101"/>
     <use style="fill:#e50000;stroke:#e50000;stroke-linejoin:miter;" x="317.502064" xlink:href="#m3658493fa0" y="240.207055"/>
     <use style="fill:#e50000;stroke:#e50000;stroke-linejoin:miter;" x="327.005387" xlink:href="#m3658493fa0" y="232.683357"/>
     <use style="fill:#e50000;stroke:#e50000;stroke-linejoin:miter;" x="335.215033" xlink:href="#m3658493fa0" y="224.890591"/>
     <use style="fill:#e50000;stroke:#e50000;stroke-linejoin:miter;" x="342.441455" xlink:href="#m3658493fa0" y="220.086079"/>
     <use style="fill:#e50000;stroke:#e50000;stroke-linejoin:miter;" x="348.895212" xlink:href="#m3658493fa0" y="213.200977"/>
     <use style="fill:#e50000;stroke:#e50000;stroke-linejoin:miter;" x="354.725712" xlink:href="#m3658493fa0" y="206.048067"/>
     <use style="fill:#e50000;stroke:#e50000;stroke-linejoin:miter;" x="360.042816" xlink:href="#m3658493fa0" y="199.232137"/>
     <use style="fill:#e50000;stroke:#e50000;stroke-linejoin:miter;" x="364.929674" xlink:href="#m3658493fa0" y="194.920823"/>
     <use style="fill:#e50000;stroke:#e50000;stroke-linejoin:miter;" x="369.450738" xlink:href="#m3658493fa0" y="190.539623"/>
     <use style="fill:#e50000;stroke:#e50000;stroke-linejoin:miter;" x="373.656981" xlink:href="#m3658493fa0" y="187.215681"/>
     <use style="fill:#e50000;stroke:#e50000;stroke-linejoin:miter;" x="377.589409" xlink:href="#m3658493fa0" y="182.931236"/>
     <use style="fill:#e50000;stroke:#e50000;stroke-linejoin:miter;" x="378.533795" xlink:href="#m3658493fa0" y="181.852137"/>
     <use style="fill:#e50000;stroke:#e50000;stroke-linejoin:miter;" x="420.19133" xlink:href="#m3658493fa0" y="157.152192"/>
     <use style="fill:#e50000;stroke:#e50000;stroke-linejoin:miter;" x="461.964858" xlink:href="#m3658493fa0" y="140.450352"/>
     <use style="fill:#e50000;stroke:#e50000;stroke-linejoin:miter;" x="503.796891" xlink:href="#m3658493fa0" y="133.97926"/>
     <use style="fill:#e50000;stroke:#e50000;stroke-linejoin:miter;" x="545.658304" xlink:href="#m3658493fa0" y="129.442872"/>
     <use style="fill:#e50000;stroke:#e50000;stroke-linejoin:miter;" x="587.534439" xlink:href="#m3658493fa0" y="128.361037"/>
     <use style="fill:#e50000;stroke:#e50000;stroke-linejoin:miter;" x="629.417944" xlink:href="#m3658493fa0" y="130.264531"/>
     <use style="fill:#e50000;stroke:#e50000;stroke-linejoin:miter;" x="641.469135" xlink:href="#m3658493fa0" y="130.445665"/>
     <use style="fill:#e50000;stroke:#e50000;stroke-linejoin:miter;" x="671.305135" xlink:href="#m3658493fa0" y="141.41035"/>
     <use style="fill:#e50000;stroke:#e50000;stroke-linejoin:miter;" x="713.19417" xlink:href="#m3658493fa0" y="152.586443"/>
     <use style="fill:#e50000;stroke:#e50000;stroke-linejoin:miter;" x="755.084127" xlink:href="#m3658493fa0" y="157.129024"/>
     <use style="fill:#e50000;stroke:#e50000;stroke-linejoin:miter;" x="796.974545" xlink:href="#m3658493fa0" y="191.567947"/>
    </g>
   </g>
   <g id="line2d_58">
    <path clip-path="url(#pc5abee1192)" d="M 147.665455 313.296917 
L 180.863191 309.373597 
L 201.808631 297.816348 
L 217.244699 288.608689 
L 229.496996 281.771191 
L 239.664474 276.573246 
L 248.357617 271.995647 
L 255.951807 267.082835 
L 262.694732 257.672932 
L 268.758576 257.312829 
L 274.267947 256.90008 
L 292.333315 245.504238 
L 306.219409 234.888066 
L 317.502064 227.148861 
L 327.005387 219.704375 
L 335.215033 210.84256 
L 342.441455 205.065374 
L 348.895212 198.696845 
L 354.725712 194.359083 
L 360.042816 191.187916 
L 364.929674 187.292427 
L 369.450738 184.110366 
L 373.656981 180.56731 
L 377.589409 177.031028 
L 378.533795 176.378105 
L 420.19133 152.663117 
L 461.964858 135.634147 
L 503.796891 128.234848 
L 545.658304 125.630659 
L 587.534439 137.973256 
L 629.417944 139.106184 
L 641.469135 133.3245 
L 671.305135 155.556359 
L 713.19417 151.258717 
L 755.084127 169.716456 
L 796.974545 169.124315 
" style="fill:none;stroke:#75bbfd;stroke-linecap:square;"/>
    <defs>
     <path d="M -2.5 2.5 
L 2.5 2.5 
L 2.5 -2.5 
L -2.5 -2.5 
z
" id="m79cf2cf50a" style="stroke:#75bbfd;stroke-linejoin:miter;"/>
    </defs>
    <g clip-path="url(#pc5abee1192)">
     <use style="fill:#75bbfd;stroke:#75bbfd;stroke-linejoin:miter;" x="147.665455" xlink:href="#m79cf2cf50a" y="313.296917"/>
     <use style="fill:#75bbfd;stroke:#75bbfd;stroke-linejoin:miter;" x="180.863191" xlink:href="#m79cf2cf50a" y="309.373597"/>
     <use style="fill:#75bbfd;stroke:#75bbfd;stroke-linejoin:miter;" x="201.808631" xlink:href="#m79cf2cf50a" y="297.816348"/>
     <use style="fill:#75bbfd;stroke:#75bbfd;stroke-linejoin:miter;" x="217.244699" xlink:href="#m79cf2cf50a" y="288.608689"/>
     <use style="fill:#75bbfd;stroke:#75bbfd;stroke-linejoin:miter;" x="229.496996" xlink:href="#m79cf2cf50a" y="281.771191"/>
     <use style="fill:#75bbfd;stroke:#75bbfd;stroke-linejoin:miter;" x="239.664474" xlink:href="#m79cf2cf50a" y="276.573246"/>
     <use style="fill:#75bbfd;stroke:#75bbfd;stroke-linejoin:miter;" x="248.357617" xlink:href="#m79cf2cf50a" y="271.995647"/>
     <use style="fill:#75bbfd;stroke:#75bbfd;stroke-linejoin:miter;" x="255.951807" xlink:href="#m79cf2cf50a" y="267.082835"/>
     <use style="fill:#75bbfd;stroke:#75bbfd;stroke-linejoin:miter;" x="262.694732" xlink:href="#m79cf2cf50a" y="257.672932"/>
     <use style="fill:#75bbfd;stroke:#75bbfd;stroke-linejoin:miter;" x="268.758576" xlink:href="#m79cf2cf50a" y="257.312829"/>
     <use style="fill:#75bbfd;stroke:#75bbfd;stroke-linejoin:miter;" x="274.267947" xlink:href="#m79cf2cf50a" y="256.90008"/>
     <use style="fill:#75bbfd;stroke:#75bbfd;stroke-linejoin:miter;" x="292.333315" xlink:href="#m79cf2cf50a" y="245.504238"/>
     <use style="fill:#75bbfd;stroke:#75bbfd;stroke-linejoin:miter;" x="306.219409" xlink:href="#m79cf2cf50a" y="234.888066"/>
     <use style="fill:#75bbfd;stroke:#75bbfd;stroke-linejoin:miter;" x="317.502064" xlink:href="#m79cf2cf50a" y="227.148861"/>
     <use style="fill:#75bbfd;stroke:#75bbfd;stroke-linejoin:miter;" x="327.005387" xlink:href="#m79cf2cf50a" y="219.704375"/>
     <use style="fill:#75bbfd;stroke:#75bbfd;stroke-linejoin:miter;" x="335.215033" xlink:href="#m79cf2cf50a" y="210.84256"/>
     <use style="fill:#75bbfd;stroke:#75bbfd;stroke-linejoin:miter;" x="342.441455" xlink:href="#m79cf2cf50a" y="205.065374"/>
     <use style="fill:#75bbfd;stroke:#75bbfd;stroke-linejoin:miter;" x="348.895212" xlink:href="#m79cf2cf50a" y="198.696845"/>
     <use style="fill:#75bbfd;stroke:#75bbfd;stroke-linejoin:miter;" x="354.725712" xlink:href="#m79cf2cf50a" y="194.359083"/>
     <use style="fill:#75bbfd;stroke:#75bbfd;stroke-linejoin:miter;" x="360.042816" xlink:href="#m79cf2cf50a" y="191.187916"/>
     <use style="fill:#75bbfd;stroke:#75bbfd;stroke-linejoin:miter;" x="364.929674" xlink:href="#m79cf2cf50a" y="187.292427"/>
     <use style="fill:#75bbfd;stroke:#75bbfd;stroke-linejoin:miter;" x="369.450738" xlink:href="#m79cf2cf50a" y="184.110366"/>
     <use style="fill:#75bbfd;stroke:#75bbfd;stroke-linejoin:miter;" x="373.656981" xlink:href="#m79cf2cf50a" y="180.56731"/>
     <use style="fill:#75bbfd;stroke:#75bbfd;stroke-linejoin:miter;" x="377.589409" xlink:href="#m79cf2cf50a" y="177.031028"/>
     <use style="fill:#75bbfd;stroke:#75bbfd;stroke-linejoin:miter;" x="378.533795" xlink:href="#m79cf2cf50a" y="176.378105"/>
     <use style="fill:#75bbfd;stroke:#75bbfd;stroke-linejoin:miter;" x="420.19133" xlink:href="#m79cf2cf50a" y="152.663117"/>
     <use style="fill:#75bbfd;stroke:#75bbfd;stroke-linejoin:miter;" x="461.964858" xlink:href="#m79cf2cf50a" y="135.634147"/>
     <use style="fill:#75bbfd;stroke:#75bbfd;stroke-linejoin:miter;" x="503.796891" xlink:href="#m79cf2cf50a" y="128.234848"/>
     <use style="fill:#75bbfd;stroke:#75bbfd;stroke-linejoin:miter;" x="545.658304" xlink:href="#m79cf2cf50a" y="125.630659"/>
     <use style="fill:#75bbfd;stroke:#75bbfd;stroke-linejoin:miter;" x="587.534439" xlink:href="#m79cf2cf50a" y="137.973256"/>
     <use style="fill:#75bbfd;stroke:#75bbfd;stroke-linejoin:miter;" x="629.417944" xlink:href="#m79cf2cf50a" y="139.106184"/>
     <use style="fill:#75bbfd;stroke:#75bbfd;stroke-linejoin:miter;" x="641.469135" xlink:href="#m79cf2cf50a" y="133.3245"/>
     <use style="fill:#75bbfd;stroke:#75bbfd;stroke-linejoin:miter;" x="671.305135" xlink:href="#m79cf2cf50a" y="155.556359"/>
     <use style="fill:#75bbfd;stroke:#75bbfd;stroke-linejoin:miter;" x="713.19417" xlink:href="#m79cf2cf50a" y="151.258717"/>
     <use style="fill:#75bbfd;stroke:#75bbfd;stroke-linejoin:miter;" x="755.084127" xlink:href="#m79cf2cf50a" y="169.716456"/>
     <use style="fill:#75bbfd;stroke:#75bbfd;stroke-linejoin:miter;" x="796.974545" xlink:href="#m79cf2cf50a" y="169.124315"/>
    </g>
   </g>
   <g id="line2d_59">
    <path clip-path="url(#pc5abee1192)" d="M 147.665455 302.039871 
L 180.863191 269.270332 
L 201.808631 244.060788 
L 217.244699 228.704979 
L 229.496996 216.882001 
L 239.664474 201.50252 
L 248.357617 192.153647 
L 255.951807 187.208066 
L 262.694732 179.481909 
L 268.758576 172.495 
L 274.267947 167.366512 
L 292.333315 152.382317 
L 306.219409 143.472182 
L 317.502064 135.959076 
L 327.005387 129.430067 
L 335.215033 123.746038 
L 342.441455 116.987501 
L 348.895212 114.870441 
L 354.725712 110.739269 
L 360.042816 107.790987 
L 364.929674 104.441169 
L 369.450738 101.659333 
L 373.656981 99.195666 
L 377.589409 97.414979 
L 378.533795 96.948786 
L 420.19133 88.681465 
L 461.964858 80.2404 
L 503.796891 84.171846 
L 545.658304 81.725324 
L 587.534439 134.207372 
L 629.417944 139.323713 
L 641.469135 132.310847 
L 671.305135 171.169637 
L 713.19417 168.504822 
L 755.084127 167.758598 
L 796.974545 184.142984 
" style="fill:none;stroke:#7e1e9c;stroke-linecap:square;"/>
    <defs>
     <path d="M 0 0 
L 0 2.5 
M 0 0 
L 2 -1.25 
M 0 0 
L -2 -1.25 
" id="m8e190f0df4" style="stroke:#7e1e9c;"/>
    </defs>
    <g clip-path="url(#pc5abee1192)">
     <use style="fill:#7e1e9c;stroke:#7e1e9c;" x="147.665455" xlink:href="#m8e190f0df4" y="302.039871"/>
     <use style="fill:#7e1e9c;stroke:#7e1e9c;" x="180.863191" xlink:href="#m8e190f0df4" y="269.270332"/>
     <use style="fill:#7e1e9c;stroke:#7e1e9c;" x="201.808631" xlink:href="#m8e190f0df4" y="244.060788"/>
     <use style="fill:#7e1e9c;stroke:#7e1e9c;" x="217.244699" xlink:href="#m8e190f0df4" y="228.704979"/>
     <use style="fill:#7e1e9c;stroke:#7e1e9c;" x="229.496996" xlink:href="#m8e190f0df4" y="216.882001"/>
     <use style="fill:#7e1e9c;stroke:#7e1e9c;" x="239.664474" xlink:href="#m8e190f0df4" y="201.50252"/>
     <use style="fill:#7e1e9c;stroke:#7e1e9c;" x="248.357617" xlink:href="#m8e190f0df4" y="192.153647"/>
     <use style="fill:#7e1e9c;stroke:#7e1e9c;" x="255.951807" xlink:href="#m8e190f0df4" y="187.208066"/>
     <use style="fill:#7e1e9c;stroke:#7e1e9c;" x="262.694732" xlink:href="#m8e190f0df4" y="179.481909"/>
     <use style="fill:#7e1e9c;stroke:#7e1e9c;" x="268.758576" xlink:href="#m8e190f0df4" y="172.495"/>
     <use style="fill:#7e1e9c;stroke:#7e1e9c;" x="274.267947" xlink:href="#m8e190f0df4" y="167.366512"/>
     <use style="fill:#7e1e9c;stroke:#7e1e9c;" x="292.333315" xlink:href="#m8e190f0df4" y="152.382317"/>
     <use style="fill:#7e1e9c;stroke:#7e1e9c;" x="306.219409" xlink:href="#m8e190f0df4" y="143.472182"/>
     <use style="fill:#7e1e9c;stroke:#7e1e9c;" x="317.502064" xlink:href="#m8e190f0df4" y="135.959076"/>
     <use style="fill:#7e1e9c;stroke:#7e1e9c;" x="327.005387" xlink:href="#m8e190f0df4" y="129.430067"/>
     <use style="fill:#7e1e9c;stroke:#7e1e9c;" x="335.215033" xlink:href="#m8e190f0df4" y="123.746038"/>
     <use style="fill:#7e1e9c;stroke:#7e1e9c;" x="342.441455" xlink:href="#m8e190f0df4" y="116.987501"/>
     <use style="fill:#7e1e9c;stroke:#7e1e9c;" x="348.895212" xlink:href="#m8e190f0df4" y="114.870441"/>
     <use style="fill:#7e1e9c;stroke:#7e1e9c;" x="354.725712" xlink:href="#m8e190f0df4" y="110.739269"/>
     <use style="fill:#7e1e9c;stroke:#7e1e9c;" x="360.042816" xlink:href="#m8e190f0df4" y="107.790987"/>
     <use style="fill:#7e1e9c;stroke:#7e1e9c;" x="364.929674" xlink:href="#m8e190f0df4" y="104.441169"/>
     <use style="fill:#7e1e9c;stroke:#7e1e9c;" x="369.450738" xlink:href="#m8e190f0df4" y="101.659333"/>
     <use style="fill:#7e1e9c;stroke:#7e1e9c;" x="373.656981" xlink:href="#m8e190f0df4" y="99.195666"/>
     <use style="fill:#7e1e9c;stroke:#7e1e9c;" x="377.589409" xlink:href="#m8e190f0df4" y="97.414979"/>
     <use style="fill:#7e1e9c;stroke:#7e1e9c;" x="378.533795" xlink:href="#m8e190f0df4" y="96.948786"/>
     <use style="fill:#7e1e9c;stroke:#7e1e9c;" x="420.19133" xlink:href="#m8e190f0df4" y="88.681465"/>
     <use style="fill:#7e1e9c;stroke:#7e1e9c;" x="461.964858" xlink:href="#m8e190f0df4" y="80.2404"/>
     <use style="fill:#7e1e9c;stroke:#7e1e9c;" x="503.796891" xlink:href="#m8e190f0df4" y="84.171846"/>
     <use style="fill:#7e1e9c;stroke:#7e1e9c;" x="545.658304" xlink:href="#m8e190f0df4" y="81.725324"/>
     <use style="fill:#7e1e9c;stroke:#7e1e9c;" x="587.534439" xlink:href="#m8e190f0df4" y="134.207372"/>
     <use style="fill:#7e1e9c;stroke:#7e1e9c;" x="629.417944" xlink:href="#m8e190f0df4" y="139.323713"/>
     <use style="fill:#7e1e9c;stroke:#7e1e9c;" x="641.469135" xlink:href="#m8e190f0df4" y="132.310847"/>
     <use style="fill:#7e1e9c;stroke:#7e1e9c;" x="671.305135" xlink:href="#m8e190f0df4" y="171.169637"/>
     <use style="fill:#7e1e9c;stroke:#7e1e9c;" x="713.19417" xlink:href="#m8e190f0df4" y="168.504822"/>
     <use style="fill:#7e1e9c;stroke:#7e1e9c;" x="755.084127" xlink:href="#m8e190f0df4" y="167.758598"/>
     <use style="fill:#7e1e9c;stroke:#7e1e9c;" x="796.974545" xlink:href="#m8e190f0df4" y="184.142984"/>
    </g>
   </g>
   <g id="line2d_60">
    <path clip-path="url(#pc5abee1192)" d="M 378.533795 460.7352 
L 378.533795 62.1216 
" style="fill:none;stroke:#ff0000;stroke-linecap:square;stroke-opacity:0.5;stroke-width:3;"/>
   </g>
   <g id="patch_3">
    <path d="M 115.2 460.7352 
L 115.2 62.1216 
" style="fill:none;stroke:#000000;stroke-linecap:square;stroke-linejoin:miter;stroke-width:0.8;"/>
   </g>
   <g id="patch_4">
    <path d="M 829.44 460.7352 
L 829.44 62.1216 
" style="fill:none;stroke:#000000;stroke-linecap:square;stroke-linejoin:miter;stroke-width:0.8;"/>
   </g>
   <g id="patch_5">
    <path d="M 115.2 460.7352 
L 829.44 460.7352 
" style="fill:none;stroke:#000000;stroke-linecap:square;stroke-linejoin:miter;stroke-width:0.8;"/>
   </g>
   <g id="patch_6">
    <path d="M 115.2 62.1216 
L 829.44 62.1216 
" style="fill:none;stroke:#000000;stroke-linecap:square;stroke-linejoin:miter;stroke-width:0.8;"/>
   </g>
   <g id="text_13">
    <!-- Throughput for $\bf{generate}$ phase -->
    <defs>
     <path d="M -0.296875 72.90625 
L 61.375 72.90625 
L 61.375 64.59375 
L 35.5 64.59375 
L 35.5 0 
L 25.59375 0 
L 25.59375 64.59375 
L -0.296875 64.59375 
z
" id="DejaVuSans-84"/>
     <path d="M 54.890625 33.015625 
L 54.890625 0 
L 45.90625 0 
L 45.90625 32.71875 
Q 45.90625 40.484375 42.875 44.328125 
Q 39.84375 48.1875 33.796875 48.1875 
Q 26.515625 48.1875 22.3125 43.546875 
Q 18.109375 38.921875 18.109375 30.90625 
L 18.109375 0 
L 9.078125 0 
L 9.078125 75.984375 
L 18.109375 75.984375 
L 18.109375 46.1875 
Q 21.34375 51.125 25.703125 53.5625 
Q 30.078125 56 35.796875 56 
Q 45.21875 56 50.046875 50.171875 
Q 54.890625 44.34375 54.890625 33.015625 
z
" id="DejaVuSans-104"/>
     <path d="M 45.609375 9.28125 
Q 42 4.5 37.640625 2.25 
Q 33.296875 0 27.59375 0 
Q 17.578125 0 11.03125 7.875 
Q 4.5 15.765625 4.5 27.984375 
Q 4.5 40.234375 11.03125 48.0625 
Q 17.578125 55.90625 27.59375 55.90625 
Q 33.296875 55.90625 37.640625 53.65625 
Q 42 51.421875 45.609375 46.578125 
L 45.609375 54.6875 
L 63.1875 54.6875 
L 63.1875 5.515625 
Q 63.1875 -7.671875 54.859375 -14.625 
Q 46.53125 -21.578125 30.71875 -21.578125 
Q 25.59375 -21.578125 20.796875 -20.796875 
Q 16.015625 -20.015625 11.1875 -18.40625 
L 11.1875 -4.78125 
Q 15.765625 -7.421875 20.15625 -8.71875 
Q 24.5625 -10.015625 29 -10.015625 
Q 37.59375 -10.015625 41.59375 -6.25 
Q 45.609375 -2.484375 45.609375 5.515625 
z
M 34.078125 43.3125 
Q 28.65625 43.3125 25.625 39.296875 
Q 22.609375 35.296875 22.609375 27.984375 
Q 22.609375 20.453125 25.53125 16.578125 
Q 28.46875 12.703125 34.078125 12.703125 
Q 39.546875 12.703125 42.578125 16.703125 
Q 45.609375 20.703125 45.609375 27.984375 
Q 45.609375 35.296875 42.578125 39.296875 
Q 39.546875 43.3125 34.078125 43.3125 
z
" id="DejaVuSans-Bold-103"/>
     <path d="M 62.984375 27.484375 
L 62.984375 22.515625 
L 22.125 22.515625 
Q 22.75 16.359375 26.5625 13.28125 
Q 30.375 10.203125 37.203125 10.203125 
Q 42.71875 10.203125 48.5 11.84375 
Q 54.296875 13.484375 60.40625 16.796875 
L 60.40625 3.328125 
Q 54.203125 0.984375 48 -0.21875 
Q 41.796875 -1.421875 35.59375 -1.421875 
Q 20.75 -1.421875 12.515625 6.125 
Q 4.296875 13.671875 4.296875 27.296875 
Q 4.296875 40.671875 12.375 48.328125 
Q 20.453125 56 34.625 56 
Q 47.515625 56 55.25 48.234375 
Q 62.984375 40.484375 62.984375 27.484375 
z
M 45.015625 33.296875 
Q 45.015625 38.28125 42.109375 41.328125 
Q 39.203125 44.390625 34.515625 44.390625 
Q 29.4375 44.390625 26.265625 41.53125 
Q 23.09375 38.671875 22.3125 33.296875 
z
" id="DejaVuSans-Bold-101"/>
     <path d="M 63.375 33.296875 
L 63.375 0 
L 45.796875 0 
L 45.796875 5.421875 
L 45.796875 25.484375 
Q 45.796875 32.5625 45.484375 35.25 
Q 45.171875 37.9375 44.390625 39.203125 
Q 43.359375 40.921875 41.59375 41.875 
Q 39.84375 42.828125 37.59375 42.828125 
Q 32.125 42.828125 29 38.59375 
Q 25.875 34.375 25.875 26.90625 
L 25.875 0 
L 8.40625 0 
L 8.40625 54.6875 
L 25.875 54.6875 
L 25.875 46.6875 
Q 29.828125 51.46875 34.265625 53.734375 
Q 38.71875 56 44.09375 56 
Q 53.5625 56 58.46875 50.1875 
Q 63.375 44.390625 63.375 33.296875 
z
" id="DejaVuSans-Bold-110"/>
     <path d="M 49.03125 39.796875 
Q 46.734375 40.875 44.453125 41.375 
Q 42.1875 41.890625 39.890625 41.890625 
Q 33.15625 41.890625 29.515625 37.5625 
Q 25.875 33.25 25.875 25.203125 
L 25.875 0 
L 8.40625 0 
L 8.40625 54.6875 
L 25.875 54.6875 
L 25.875 45.703125 
Q 29.25 51.078125 33.609375 53.53125 
Q 37.984375 56 44.09375 56 
Q 44.96875 56 45.984375 55.921875 
Q 47.015625 55.859375 48.96875 55.609375 
z
" id="DejaVuSans-Bold-114"/>
     <path d="M 32.90625 24.609375 
Q 27.4375 24.609375 24.671875 22.75 
Q 21.921875 20.90625 21.921875 17.28125 
Q 21.921875 13.96875 24.140625 12.078125 
Q 26.375 10.203125 30.328125 10.203125 
Q 35.25 10.203125 38.625 13.734375 
Q 42 17.28125 42 22.609375 
L 42 24.609375 
z
M 59.625 31.203125 
L 59.625 0 
L 42 0 
L 42 8.109375 
Q 38.484375 3.125 34.078125 0.84375 
Q 29.6875 -1.421875 23.390625 -1.421875 
Q 14.890625 -1.421875 9.59375 3.53125 
Q 4.296875 8.5 4.296875 16.40625 
Q 4.296875 26.03125 10.90625 30.515625 
Q 17.53125 35.015625 31.6875 35.015625 
L 42 35.015625 
L 42 36.375 
Q 42 40.53125 38.71875 42.453125 
Q 35.453125 44.390625 28.515625 44.390625 
Q 22.90625 44.390625 18.0625 43.265625 
Q 13.234375 42.140625 9.078125 39.890625 
L 9.078125 53.21875 
Q 14.703125 54.59375 20.359375 55.296875 
Q 26.03125 56 31.6875 56 
Q 46.484375 56 53.046875 50.171875 
Q 59.625 44.34375 59.625 31.203125 
z
" id="DejaVuSans-Bold-97"/>
     <path d="M 27.484375 70.21875 
L 27.484375 54.6875 
L 45.515625 54.6875 
L 45.515625 42.1875 
L 27.484375 42.1875 
L 27.484375 19 
Q 27.484375 15.1875 29 13.84375 
Q 30.515625 12.5 35.015625 12.5 
L 44 12.5 
L 44 0 
L 29 0 
Q 18.65625 0 14.328125 4.3125 
Q 10.015625 8.640625 10.015625 19 
L 10.015625 42.1875 
L 1.3125 42.1875 
L 1.3125 54.6875 
L 10.015625 54.6875 
L 10.015625 70.21875 
z
" id="DejaVuSans-Bold-116"/>
    </defs>
    <g transform="translate(374.58 42.53985)scale(0.12 -0.12)">
     <use transform="translate(0 0.015625)" xlink:href="#DejaVuSans-84"/>
     <use transform="translate(61.083984 0.015625)" xlink:href="#DejaVuSans-104"/>
     <use transform="translate(124.462891 0.015625)" xlink:href="#DejaVuSans-114"/>
     <use transform="translate(165.576172 0.015625)" xlink:href="#DejaVuSans-111"/>
     <use transform="translate(226.757812 0.015625)" xlink:href="#DejaVuSans-117"/>
     <use transform="translate(290.136719 0.015625)" xlink:href="#DejaVuSans-103"/>
     <use transform="translate(353.613281 0.015625)" xlink:href="#DejaVuSans-104"/>
     <use transform="translate(416.992188 0.015625)" xlink:href="#DejaVuSans-112"/>
     <use transform="translate(480.46875 0.015625)" xlink:href="#DejaVuSans-117"/>
     <use transform="translate(543.847656 0.015625)" xlink:href="#DejaVuSans-116"/>
     <use transform="translate(583.056641 0.015625)" xlink:href="#DejaVuSans-32"/>
     <use transform="translate(614.84375 0.015625)" xlink:href="#DejaVuSans-102"/>
     <use transform="translate(650.048828 0.015625)" xlink:href="#DejaVuSans-111"/>
     <use transform="translate(711.230469 0.015625)" xlink:href="#DejaVuSans-114"/>
     <use transform="translate(752.34375 0.015625)" xlink:href="#DejaVuSans-32"/>
     <use transform="translate(784.130859 0.015625)" xlink:href="#DejaVuSans-Bold-103"/>
     <use transform="translate(855.712891 0.015625)" xlink:href="#DejaVuSans-Bold-101"/>
     <use transform="translate(923.535156 0.015625)" xlink:href="#DejaVuSans-Bold-110"/>
     <use transform="translate(994.726562 0.015625)" xlink:href="#DejaVuSans-Bold-101"/>
     <use transform="translate(1062.548828 0.015625)" xlink:href="#DejaVuSans-Bold-114"/>
     <use transform="translate(1111.865234 0.015625)" xlink:href="#DejaVuSans-Bold-97"/>
     <use transform="translate(1179.345703 0.015625)" xlink:href="#DejaVuSans-Bold-116"/>
     <use transform="translate(1227.148438 0.015625)" xlink:href="#DejaVuSans-Bold-101"/>
     <use transform="translate(1294.970703 0.015625)" xlink:href="#DejaVuSans-32"/>
     <use transform="translate(1326.757812 0.015625)" xlink:href="#DejaVuSans-112"/>
     <use transform="translate(1390.234375 0.015625)" xlink:href="#DejaVuSans-104"/>
     <use transform="translate(1453.613281 0.015625)" xlink:href="#DejaVuSans-97"/>
     <use transform="translate(1514.892578 0.015625)" xlink:href="#DejaVuSans-115"/>
     <use transform="translate(1566.992188 0.015625)" xlink:href="#DejaVuSans-101"/>
    </g>
    <!-- Higher is better -->
    <defs>
     <path d="M 9.8125 72.90625 
L 19.671875 72.90625 
L 19.671875 43.015625 
L 55.515625 43.015625 
L 55.515625 72.90625 
L 65.375 72.90625 
L 65.375 0 
L 55.515625 0 
L 55.515625 34.71875 
L 19.671875 34.71875 
L 19.671875 0 
L 9.8125 0 
z
" id="DejaVuSans-72"/>
    </defs>
    <g transform="translate(425.400937 56.1216)scale(0.12 -0.12)">
     <use xlink:href="#DejaVuSans-72"/>
     <use x="75.195312" xlink:href="#DejaVuSans-105"/>
     <use x="102.978516" xlink:href="#DejaVuSans-103"/>
     <use x="166.455078" xlink:href="#DejaVuSans-104"/>
     <use x="229.833984" xlink:href="#DejaVuSans-101"/>
     <use x="291.357422" xlink:href="#DejaVuSans-114"/>
     <use x="332.470703" xlink:href="#DejaVuSans-32"/>
     <use x="364.257812" xlink:href="#DejaVuSans-105"/>
     <use x="392.041016" xlink:href="#DejaVuSans-115"/>
     <use x="444.140625" xlink:href="#DejaVuSans-32"/>
     <use x="475.927734" xlink:href="#DejaVuSans-98"/>
     <use x="539.404297" xlink:href="#DejaVuSans-101"/>
     <use x="600.927734" xlink:href="#DejaVuSans-116"/>
     <use x="640.136719" xlink:href="#DejaVuSans-116"/>
     <use x="679.345703" xlink:href="#DejaVuSans-101"/>
     <use x="740.869141" xlink:href="#DejaVuSans-114"/>
    </g>
   </g>
   <g id="legend_1">
    <g id="patch_7">
     <path d="M 642.541563 455.7352 
L 822.44 455.7352 
Q 824.44 455.7352 824.44 453.7352 
L 824.44 365.55395 
Q 824.44 363.55395 822.44 363.55395 
L 642.541563 363.55395 
Q 640.541563 363.55395 640.541563 365.55395 
L 640.541563 453.7352 
Q 640.541563 455.7352 642.541563 455.7352 
z
" style="fill:#ffffff;opacity:0.8;stroke:#cccccc;stroke-linejoin:miter;"/>
    </g>
    <g id="line2d_61">
     <path d="M 644.541563 371.652388 
L 664.541563 371.652388 
" style="fill:none;stroke:#000000;stroke-linecap:square;"/>
    </g>
    <g id="line2d_62">
     <g>
      <use style="stroke:#000000;" x="654.541563" xlink:href="#mc716b50199" y="371.652388"/>
     </g>
    </g>
    <g id="text_14">
     <!-- Baseline -->
     <defs>
      <path d="M 19.671875 34.8125 
L 19.671875 8.109375 
L 35.5 8.109375 
Q 43.453125 8.109375 47.28125 11.40625 
Q 51.125 14.703125 51.125 21.484375 
Q 51.125 28.328125 47.28125 31.5625 
Q 43.453125 34.8125 35.5 34.8125 
z
M 19.671875 64.796875 
L 19.671875 42.828125 
L 34.28125 42.828125 
Q 41.5 42.828125 45.03125 45.53125 
Q 48.578125 48.25 48.578125 53.8125 
Q 48.578125 59.328125 45.03125 62.0625 
Q 41.5 64.796875 34.28125 64.796875 
z
M 9.8125 72.90625 
L 35.015625 72.90625 
Q 46.296875 72.90625 52.390625 68.21875 
Q 58.5 63.53125 58.5 54.890625 
Q 58.5 48.1875 55.375 44.234375 
Q 52.25 40.28125 46.1875 39.3125 
Q 53.46875 37.75 57.5 32.78125 
Q 61.53125 27.828125 61.53125 20.40625 
Q 61.53125 10.640625 54.890625 5.3125 
Q 48.25 0 35.984375 0 
L 9.8125 0 
z
" id="DejaVuSans-66"/>
     </defs>
     <g transform="translate(672.541563 375.152388)scale(0.1 -0.1)">
      <use xlink:href="#DejaVuSans-66"/>
      <use x="68.603516" xlink:href="#DejaVuSans-97"/>
      <use x="129.882812" xlink:href="#DejaVuSans-115"/>
      <use x="181.982422" xlink:href="#DejaVuSans-101"/>
      <use x="243.505859" xlink:href="#DejaVuSans-108"/>
      <use x="271.289062" xlink:href="#DejaVuSans-105"/>
      <use x="299.072266" xlink:href="#DejaVuSans-110"/>
      <use x="362.451172" xlink:href="#DejaVuSans-101"/>
     </g>
    </g>
    <g id="line2d_63">
     <path d="M 644.541563 386.330513 
L 664.541563 386.330513 
" style="fill:none;stroke:#0652ff;stroke-linecap:square;"/>
    </g>
    <g id="line2d_64">
     <g>
      <use style="fill:#0652ff;stroke:#0652ff;" x="654.541563" xlink:href="#m376c174e77" y="386.330513"/>
     </g>
    </g>
    <g id="text_15">
     <!-- Pixelf -->
     <defs>
      <path d="M 19.671875 64.796875 
L 19.671875 37.40625 
L 32.078125 37.40625 
Q 38.96875 37.40625 42.71875 40.96875 
Q 46.484375 44.53125 46.484375 51.125 
Q 46.484375 57.671875 42.71875 61.234375 
Q 38.96875 64.796875 32.078125 64.796875 
z
M 9.8125 72.90625 
L 32.078125 72.90625 
Q 44.34375 72.90625 50.609375 67.359375 
Q 56.890625 61.8125 56.890625 51.125 
Q 56.890625 40.328125 50.609375 34.8125 
Q 44.34375 29.296875 32.078125 29.296875 
L 19.671875 29.296875 
L 19.671875 0 
L 9.8125 0 
z
" id="DejaVuSans-80"/>
      <path d="M 54.890625 54.6875 
L 35.109375 28.078125 
L 55.90625 0 
L 45.3125 0 
L 29.390625 21.484375 
L 13.484375 0 
L 2.875 0 
L 24.125 28.609375 
L 4.6875 54.6875 
L 15.28125 54.6875 
L 29.78125 35.203125 
L 44.28125 54.6875 
z
" id="DejaVuSans-120"/>
     </defs>
     <g transform="translate(672.541563 389.830513)scale(0.1 -0.1)">
      <use xlink:href="#DejaVuSans-80"/>
      <use x="60.271484" xlink:href="#DejaVuSans-105"/>
      <use x="88.054688" xlink:href="#DejaVuSans-120"/>
      <use x="147.1875" xlink:href="#DejaVuSans-101"/>
      <use x="208.710938" xlink:href="#DejaVuSans-108"/>
      <use x="236.494141" xlink:href="#DejaVuSans-102"/>
     </g>
    </g>
    <g id="line2d_65">
     <path d="M 644.541563 401.008638 
L 664.541563 401.008638 
" style="fill:none;stroke:#0cff0c;stroke-linecap:square;"/>
    </g>
    <g id="line2d_66">
     <g>
      <use style="fill:#0cff0c;stroke:#0cff0c;" x="654.541563" xlink:href="#m38bebf5b91" y="401.008638"/>
     </g>
    </g>
    <g id="text_16">
     <!-- Pixelf_TBB_arh -->
     <defs>
      <path d="M 50.984375 -16.609375 
L 50.984375 -23.578125 
L -0.984375 -23.578125 
L -0.984375 -16.609375 
z
" id="DejaVuSans-95"/>
     </defs>
     <g transform="translate(672.541563 404.508638)scale(0.1 -0.1)">
      <use xlink:href="#DejaVuSans-80"/>
      <use x="60.271484" xlink:href="#DejaVuSans-105"/>
      <use x="88.054688" xlink:href="#DejaVuSans-120"/>
      <use x="147.1875" xlink:href="#DejaVuSans-101"/>
      <use x="208.710938" xlink:href="#DejaVuSans-108"/>
      <use x="236.494141" xlink:href="#DejaVuSans-102"/>
      <use x="271.699219" xlink:href="#DejaVuSans-95"/>
      <use x="321.699219" xlink:href="#DejaVuSans-84"/>
      <use x="382.783203" xlink:href="#DejaVuSans-66"/>
      <use x="451.386719" xlink:href="#DejaVuSans-66"/>
      <use x="519.990234" xlink:href="#DejaVuSans-95"/>
      <use x="569.990234" xlink:href="#DejaVuSans-97"/>
      <use x="631.269531" xlink:href="#DejaVuSans-114"/>
      <use x="672.367188" xlink:href="#DejaVuSans-104"/>
     </g>
    </g>
    <g id="line2d_67">
     <path d="M 644.541563 415.964888 
L 664.541563 415.964888 
" style="fill:none;stroke:#e50000;stroke-linecap:square;"/>
    </g>
    <g id="line2d_68">
     <g>
      <use style="fill:#e50000;stroke:#e50000;stroke-linejoin:miter;" x="654.541563" xlink:href="#m3658493fa0" y="415.964888"/>
     </g>
    </g>
    <g id="text_17">
     <!-- Pixelf_TBB_scalable_alloc_arh -->
     <g transform="translate(672.541563 419.464888)scale(0.1 -0.1)">
      <use xlink:href="#DejaVuSans-80"/>
      <use x="60.271484" xlink:href="#DejaVuSans-105"/>
      <use x="88.054688" xlink:href="#DejaVuSans-120"/>
      <use x="147.1875" xlink:href="#DejaVuSans-101"/>
      <use x="208.710938" xlink:href="#DejaVuSans-108"/>
      <use x="236.494141" xlink:href="#DejaVuSans-102"/>
      <use x="271.699219" xlink:href="#DejaVuSans-95"/>
      <use x="321.699219" xlink:href="#DejaVuSans-84"/>
      <use x="382.783203" xlink:href="#DejaVuSans-66"/>
      <use x="451.386719" xlink:href="#DejaVuSans-66"/>
      <use x="519.990234" xlink:href="#DejaVuSans-95"/>
      <use x="569.990234" xlink:href="#DejaVuSans-115"/>
      <use x="622.089844" xlink:href="#DejaVuSans-99"/>
      <use x="677.070312" xlink:href="#DejaVuSans-97"/>
      <use x="738.349609" xlink:href="#DejaVuSans-108"/>
      <use x="766.132812" xlink:href="#DejaVuSans-97"/>
      <use x="827.412109" xlink:href="#DejaVuSans-98"/>
      <use x="890.888672" xlink:href="#DejaVuSans-108"/>
      <use x="918.671875" xlink:href="#DejaVuSans-101"/>
      <use x="980.195312" xlink:href="#DejaVuSans-95"/>
      <use x="1030.195312" xlink:href="#DejaVuSans-97"/>
      <use x="1091.474609" xlink:href="#DejaVuSans-108"/>
      <use x="1119.257812" xlink:href="#DejaVuSans-108"/>
      <use x="1147.041016" xlink:href="#DejaVuSans-111"/>
      <use x="1208.222656" xlink:href="#DejaVuSans-99"/>
      <use x="1263.203125" xlink:href="#DejaVuSans-95"/>
      <use x="1313.203125" xlink:href="#DejaVuSans-97"/>
      <use x="1374.482422" xlink:href="#DejaVuSans-114"/>
      <use x="1415.580078" xlink:href="#DejaVuSans-104"/>
     </g>
    </g>
    <g id="line2d_69">
     <path d="M 644.541563 430.921138 
L 664.541563 430.921138 
" style="fill:none;stroke:#75bbfd;stroke-linecap:square;"/>
    </g>
    <g id="line2d_70">
     <g>
      <use style="fill:#75bbfd;stroke:#75bbfd;stroke-linejoin:miter;" x="654.541563" xlink:href="#m79cf2cf50a" y="430.921138"/>
     </g>
    </g>
    <g id="text_18">
     <!-- Pixelf_TBB_spans_arh -->
     <g transform="translate(672.541563 434.421138)scale(0.1 -0.1)">
      <use xlink:href="#DejaVuSans-80"/>
      <use x="60.271484" xlink:href="#DejaVuSans-105"/>
      <use x="88.054688" xlink:href="#DejaVuSans-120"/>
      <use x="147.1875" xlink:href="#DejaVuSans-101"/>
      <use x="208.710938" xlink:href="#DejaVuSans-108"/>
      <use x="236.494141" xlink:href="#DejaVuSans-102"/>
      <use x="271.699219" xlink:href="#DejaVuSans-95"/>
      <use x="321.699219" xlink:href="#DejaVuSans-84"/>
      <use x="382.783203" xlink:href="#DejaVuSans-66"/>
      <use x="451.386719" xlink:href="#DejaVuSans-66"/>
      <use x="519.990234" xlink:href="#DejaVuSans-95"/>
      <use x="569.990234" xlink:href="#DejaVuSans-115"/>
      <use x="622.089844" xlink:href="#DejaVuSans-112"/>
      <use x="685.566406" xlink:href="#DejaVuSans-97"/>
      <use x="746.845703" xlink:href="#DejaVuSans-110"/>
      <use x="810.224609" xlink:href="#DejaVuSans-115"/>
      <use x="862.324219" xlink:href="#DejaVuSans-95"/>
      <use x="912.324219" xlink:href="#DejaVuSans-97"/>
      <use x="973.603516" xlink:href="#DejaVuSans-114"/>
      <use x="1014.701172" xlink:href="#DejaVuSans-104"/>
     </g>
    </g>
    <g id="line2d_71">
     <path d="M 644.541563 445.877388 
L 664.541563 445.877388 
" style="fill:none;stroke:#7e1e9c;stroke-linecap:square;"/>
    </g>
    <g id="line2d_72">
     <g>
      <use style="fill:#7e1e9c;stroke:#7e1e9c;" x="654.541563" xlink:href="#m8e190f0df4" y="445.877388"/>
     </g>
    </g>
    <g id="text_19">
     <!-- FlyingDesitter_arh -->
     <defs>
      <path d="M 9.8125 72.90625 
L 51.703125 72.90625 
L 51.703125 64.59375 
L 19.671875 64.59375 
L 19.671875 43.109375 
L 48.578125 43.109375 
L 48.578125 34.8125 
L 19.671875 34.8125 
L 19.671875 0 
L 9.8125 0 
z
" id="DejaVuSans-70"/>
      <path d="M 32.171875 -5.078125 
Q 28.375 -14.84375 24.75 -17.8125 
Q 21.140625 -20.796875 15.09375 -20.796875 
L 7.90625 -20.796875 
L 7.90625 -13.28125 
L 13.1875 -13.28125 
Q 16.890625 -13.28125 18.9375 -11.515625 
Q 21 -9.765625 23.484375 -3.21875 
L 25.09375 0.875 
L 2.984375 54.6875 
L 12.5 54.6875 
L 29.59375 11.921875 
L 46.6875 54.6875 
L 56.203125 54.6875 
z
" id="DejaVuSans-121"/>
      <path d="M 19.671875 64.796875 
L 19.671875 8.109375 
L 31.59375 8.109375 
Q 46.6875 8.109375 53.6875 14.9375 
Q 60.6875 21.78125 60.6875 36.53125 
Q 60.6875 51.171875 53.6875 57.984375 
Q 46.6875 64.796875 31.59375 64.796875 
z
M 9.8125 72.90625 
L 30.078125 72.90625 
Q 51.265625 72.90625 61.171875 64.09375 
Q 71.09375 55.28125 71.09375 36.53125 
Q 71.09375 17.671875 61.125 8.828125 
Q 51.171875 0 30.078125 0 
L 9.8125 0 
z
" id="DejaVuSans-68"/>
     </defs>
     <g transform="translate(672.541563 449.377388)scale(0.1 -0.1)">
      <use xlink:href="#DejaVuSans-70"/>
      <use x="57.519531" xlink:href="#DejaVuSans-108"/>
      <use x="85.302734" xlink:href="#DejaVuSans-121"/>
      <use x="144.482422" xlink:href="#DejaVuSans-105"/>
      <use x="172.265625" xlink:href="#DejaVuSans-110"/>
      <use x="235.644531" xlink:href="#DejaVuSans-103"/>
      <use x="299.121094" xlink:href="#DejaVuSans-68"/>
      <use x="376.123047" xlink:href="#DejaVuSans-101"/>
      <use x="437.646484" xlink:href="#DejaVuSans-115"/>
      <use x="489.746094" xlink:href="#DejaVuSans-105"/>
      <use x="517.529297" xlink:href="#DejaVuSans-116"/>
      <use x="556.738281" xlink:href="#DejaVuSans-116"/>
      <use x="595.947266" xlink:href="#DejaVuSans-101"/>
      <use x="657.470703" xlink:href="#DejaVuSans-114"/>
      <use x="698.583984" xlink:href="#DejaVuSans-95"/>
      <use x="748.583984" xlink:href="#DejaVuSans-97"/>
      <use x="809.863281" xlink:href="#DejaVuSans-114"/>
      <use x="850.960938" xlink:href="#DejaVuSans-104"/>
     </g>
    </g>
   </g>
  </g>
 </g>
 <defs>
  <clipPath id="pc5abee1192">
   <rect height="398.6136" width="714.24" x="115.2" y="62.1216"/>
  </clipPath>
 </defs>
</svg>
