<?xml version="1.0" encoding="utf-8" standalone="no"?>
<!DOCTYPE svg PUBLIC "-//W3C//DTD SVG 1.1//EN"
  "http://www.w3.org/Graphics/SVG/1.1/DTD/svg11.dtd">
<!-- Created with matplotlib (https://matplotlib.org/) -->
<svg version="1.1" viewBox="0 0 921.6 517.68" xmlns="http://www.w3.org/2000/svg" xmlns:xlink="http://www.w3.org/1999/xlink">
 <defs>
  <style type="text/css">
*{stroke-linecap:butt;stroke-linejoin:round;}
  </style>
 </defs>
 <g id="figure_1">
  <g id="patch_1">
   <path d="M 0 517.68 
L 921.6 517.68 
L 921.6 0 
L 0 0 
z
" style="fill:#ffffff;"/>
  </g>
  <g id="axes_1">
   <g id="patch_2">
    <path d="M 115.2 460.7352 
L 829.44 460.7352 
L 829.44 62.1216 
L 115.2 62.1216 
z
" style="fill:#ffffff;"/>
   </g>
   <g id="matplotlib.axis_1">
    <g id="xtick_1">
     <g id="line2d_1">
      <defs>
       <path d="M 0 0 
L 0 3.5 
" id="m6c1cc88536" style="stroke:#000000;stroke-width:0.8;"/>
      </defs>
      <g>
       <use style="stroke:#000000;stroke-width:0.8;" x="217.244699" xlink:href="#m6c1cc88536" y="460.7352"/>
      </g>
     </g>
     <g id="text_1">
      <!-- $\mathdefault{10^{1}}$ -->
      <defs>
       <path d="M 12.40625 8.296875 
L 28.515625 8.296875 
L 28.515625 63.921875 
L 10.984375 60.40625 
L 10.984375 69.390625 
L 28.421875 72.90625 
L 38.28125 72.90625 
L 38.28125 8.296875 
L 54.390625 8.296875 
L 54.390625 0 
L 12.40625 0 
z
" id="DejaVuSans-49"/>
       <path d="M 31.78125 66.40625 
Q 24.171875 66.40625 20.328125 58.90625 
Q 16.5 51.421875 16.5 36.375 
Q 16.5 21.390625 20.328125 13.890625 
Q 24.171875 6.390625 31.78125 6.390625 
Q 39.453125 6.390625 43.28125 13.890625 
Q 47.125 21.390625 47.125 36.375 
Q 47.125 51.421875 43.28125 58.90625 
Q 39.453125 66.40625 31.78125 66.40625 
z
M 31.78125 74.21875 
Q 44.046875 74.21875 50.515625 64.515625 
Q 56.984375 54.828125 56.984375 36.375 
Q 56.984375 17.96875 50.515625 8.265625 
Q 44.046875 -1.421875 31.78125 -1.421875 
Q 19.53125 -1.421875 13.0625 8.265625 
Q 6.59375 17.96875 6.59375 36.375 
Q 6.59375 54.828125 13.0625 64.515625 
Q 19.53125 74.21875 31.78125 74.21875 
z
" id="DejaVuSans-48"/>
      </defs>
      <g transform="translate(208.444699 475.333638)scale(0.1 -0.1)">
       <use transform="translate(0 0.684375)" xlink:href="#DejaVuSans-49"/>
       <use transform="translate(63.623047 0.684375)" xlink:href="#DejaVuSans-48"/>
       <use transform="translate(128.203125 38.965625)scale(0.7)" xlink:href="#DejaVuSans-49"/>
      </g>
     </g>
    </g>
    <g id="xtick_2">
     <g id="line2d_2">
      <g>
       <use style="stroke:#000000;stroke-width:0.8;" x="356.403188" xlink:href="#m6c1cc88536" y="460.7352"/>
      </g>
     </g>
     <g id="text_2">
      <!-- $\mathdefault{10^{3}}$ -->
      <defs>
       <path d="M 40.578125 39.3125 
Q 47.65625 37.796875 51.625 33 
Q 55.609375 28.21875 55.609375 21.1875 
Q 55.609375 10.40625 48.1875 4.484375 
Q 40.765625 -1.421875 27.09375 -1.421875 
Q 22.515625 -1.421875 17.65625 -0.515625 
Q 12.796875 0.390625 7.625 2.203125 
L 7.625 11.71875 
Q 11.71875 9.328125 16.59375 8.109375 
Q 21.484375 6.890625 26.8125 6.890625 
Q 36.078125 6.890625 40.9375 10.546875 
Q 45.796875 14.203125 45.796875 21.1875 
Q 45.796875 27.640625 41.28125 31.265625 
Q 36.765625 34.90625 28.71875 34.90625 
L 20.21875 34.90625 
L 20.21875 43.015625 
L 29.109375 43.015625 
Q 36.375 43.015625 40.234375 45.921875 
Q 44.09375 48.828125 44.09375 54.296875 
Q 44.09375 59.90625 40.109375 62.90625 
Q 36.140625 65.921875 28.71875 65.921875 
Q 24.65625 65.921875 20.015625 65.03125 
Q 15.375 64.15625 9.8125 62.3125 
L 9.8125 71.09375 
Q 15.4375 72.65625 20.34375 73.4375 
Q 25.25 74.21875 29.59375 74.21875 
Q 40.828125 74.21875 47.359375 69.109375 
Q 53.90625 64.015625 53.90625 55.328125 
Q 53.90625 49.265625 50.4375 45.09375 
Q 46.96875 40.921875 40.578125 39.3125 
z
" id="DejaVuSans-51"/>
      </defs>
      <g transform="translate(347.603188 475.333638)scale(0.1 -0.1)">
       <use transform="translate(0 0.765625)" xlink:href="#DejaVuSans-49"/>
       <use transform="translate(63.623047 0.765625)" xlink:href="#DejaVuSans-48"/>
       <use transform="translate(128.203125 39.046875)scale(0.7)" xlink:href="#DejaVuSans-51"/>
      </g>
     </g>
    </g>
    <g id="xtick_3">
     <g id="line2d_3">
      <g>
       <use style="stroke:#000000;stroke-width:0.8;" x="495.561677" xlink:href="#m6c1cc88536" y="460.7352"/>
      </g>
     </g>
     <g id="text_3">
      <!-- $\mathdefault{10^{5}}$ -->
      <defs>
       <path d="M 10.796875 72.90625 
L 49.515625 72.90625 
L 49.515625 64.59375 
L 19.828125 64.59375 
L 19.828125 46.734375 
Q 21.96875 47.46875 24.109375 47.828125 
Q 26.265625 48.1875 28.421875 48.1875 
Q 40.625 48.1875 47.75 41.5 
Q 54.890625 34.8125 54.890625 23.390625 
Q 54.890625 11.625 47.5625 5.09375 
Q 40.234375 -1.421875 26.90625 -1.421875 
Q 22.3125 -1.421875 17.546875 -0.640625 
Q 12.796875 0.140625 7.71875 1.703125 
L 7.71875 11.625 
Q 12.109375 9.234375 16.796875 8.0625 
Q 21.484375 6.890625 26.703125 6.890625 
Q 35.15625 6.890625 40.078125 11.328125 
Q 45.015625 15.765625 45.015625 23.390625 
Q 45.015625 31 40.078125 35.4375 
Q 35.15625 39.890625 26.703125 39.890625 
Q 22.75 39.890625 18.8125 39.015625 
Q 14.890625 38.140625 10.796875 36.28125 
z
" id="DejaVuSans-53"/>
      </defs>
      <g transform="translate(486.761677 475.333638)scale(0.1 -0.1)">
       <use transform="translate(0 0.684375)" xlink:href="#DejaVuSans-49"/>
       <use transform="translate(63.623047 0.684375)" xlink:href="#DejaVuSans-48"/>
       <use transform="translate(128.203125 38.965625)scale(0.7)" xlink:href="#DejaVuSans-53"/>
      </g>
     </g>
    </g>
    <g id="xtick_4">
     <g id="line2d_4">
      <g>
       <use style="stroke:#000000;stroke-width:0.8;" x="634.720166" xlink:href="#m6c1cc88536" y="460.7352"/>
      </g>
     </g>
     <g id="text_4">
      <!-- $\mathdefault{10^{7}}$ -->
      <defs>
       <path d="M 8.203125 72.90625 
L 55.078125 72.90625 
L 55.078125 68.703125 
L 28.609375 0 
L 18.3125 0 
L 43.21875 64.59375 
L 8.203125 64.59375 
z
" id="DejaVuSans-55"/>
      </defs>
      <g transform="translate(625.920166 475.333638)scale(0.1 -0.1)">
       <use transform="translate(0 0.684375)" xlink:href="#DejaVuSans-49"/>
       <use transform="translate(63.623047 0.684375)" xlink:href="#DejaVuSans-48"/>
       <use transform="translate(128.203125 38.965625)scale(0.7)" xlink:href="#DejaVuSans-55"/>
      </g>
     </g>
    </g>
    <g id="xtick_5">
     <g id="line2d_5">
      <g>
       <use style="stroke:#000000;stroke-width:0.8;" x="773.878655" xlink:href="#m6c1cc88536" y="460.7352"/>
      </g>
     </g>
     <g id="text_5">
      <!-- $\mathdefault{10^{9}}$ -->
      <defs>
       <path d="M 10.984375 1.515625 
L 10.984375 10.5 
Q 14.703125 8.734375 18.5 7.8125 
Q 22.3125 6.890625 25.984375 6.890625 
Q 35.75 6.890625 40.890625 13.453125 
Q 46.046875 20.015625 46.78125 33.40625 
Q 43.953125 29.203125 39.59375 26.953125 
Q 35.25 24.703125 29.984375 24.703125 
Q 19.046875 24.703125 12.671875 31.3125 
Q 6.296875 37.9375 6.296875 49.421875 
Q 6.296875 60.640625 12.9375 67.421875 
Q 19.578125 74.21875 30.609375 74.21875 
Q 43.265625 74.21875 49.921875 64.515625 
Q 56.59375 54.828125 56.59375 36.375 
Q 56.59375 19.140625 48.40625 8.859375 
Q 40.234375 -1.421875 26.421875 -1.421875 
Q 22.703125 -1.421875 18.890625 -0.6875 
Q 15.09375 0.046875 10.984375 1.515625 
z
M 30.609375 32.421875 
Q 37.25 32.421875 41.125 36.953125 
Q 45.015625 41.5 45.015625 49.421875 
Q 45.015625 57.28125 41.125 61.84375 
Q 37.25 66.40625 30.609375 66.40625 
Q 23.96875 66.40625 20.09375 61.84375 
Q 16.21875 57.28125 16.21875 49.421875 
Q 16.21875 41.5 20.09375 36.953125 
Q 23.96875 32.421875 30.609375 32.421875 
z
" id="DejaVuSans-57"/>
      </defs>
      <g transform="translate(765.078655 475.333638)scale(0.1 -0.1)">
       <use transform="translate(0 0.765625)" xlink:href="#DejaVuSans-49"/>
       <use transform="translate(63.623047 0.765625)" xlink:href="#DejaVuSans-48"/>
       <use transform="translate(128.203125 39.046875)scale(0.7)" xlink:href="#DejaVuSans-57"/>
      </g>
     </g>
    </g>
    <g id="text_6">
     <!-- Number of elements in triangle (rows*(rows+1)/2) -->
     <defs>
      <path d="M 9.8125 72.90625 
L 23.09375 72.90625 
L 55.421875 11.921875 
L 55.421875 72.90625 
L 64.984375 72.90625 
L 64.984375 0 
L 51.703125 0 
L 19.390625 60.984375 
L 19.390625 0 
L 9.8125 0 
z
" id="DejaVuSans-78"/>
      <path d="M 8.5 21.578125 
L 8.5 54.6875 
L 17.484375 54.6875 
L 17.484375 21.921875 
Q 17.484375 14.15625 20.5 10.265625 
Q 23.53125 6.390625 29.59375 6.390625 
Q 36.859375 6.390625 41.078125 11.03125 
Q 45.3125 15.671875 45.3125 23.6875 
L 45.3125 54.6875 
L 54.296875 54.6875 
L 54.296875 0 
L 45.3125 0 
L 45.3125 8.40625 
Q 42.046875 3.421875 37.71875 1 
Q 33.40625 -1.421875 27.6875 -1.421875 
Q 18.265625 -1.421875 13.375 4.4375 
Q 8.5 10.296875 8.5 21.578125 
z
M 31.109375 56 
z
" id="DejaVuSans-117"/>
      <path d="M 52 44.1875 
Q 55.375 50.25 60.0625 53.125 
Q 64.75 56 71.09375 56 
Q 79.640625 56 84.28125 50.015625 
Q 88.921875 44.046875 88.921875 33.015625 
L 88.921875 0 
L 79.890625 0 
L 79.890625 32.71875 
Q 79.890625 40.578125 77.09375 44.375 
Q 74.3125 48.1875 68.609375 48.1875 
Q 61.625 48.1875 57.5625 43.546875 
Q 53.515625 38.921875 53.515625 30.90625 
L 53.515625 0 
L 44.484375 0 
L 44.484375 32.71875 
Q 44.484375 40.625 41.703125 44.40625 
Q 38.921875 48.1875 33.109375 48.1875 
Q 26.21875 48.1875 22.15625 43.53125 
Q 18.109375 38.875 18.109375 30.90625 
L 18.109375 0 
L 9.078125 0 
L 9.078125 54.6875 
L 18.109375 54.6875 
L 18.109375 46.1875 
Q 21.1875 51.21875 25.484375 53.609375 
Q 29.78125 56 35.6875 56 
Q 41.65625 56 45.828125 52.96875 
Q 50 49.953125 52 44.1875 
z
" id="DejaVuSans-109"/>
      <path d="M 48.6875 27.296875 
Q 48.6875 37.203125 44.609375 42.84375 
Q 40.53125 48.484375 33.40625 48.484375 
Q 26.265625 48.484375 22.1875 42.84375 
Q 18.109375 37.203125 18.109375 27.296875 
Q 18.109375 17.390625 22.1875 11.75 
Q 26.265625 6.109375 33.40625 6.109375 
Q 40.53125 6.109375 44.609375 11.75 
Q 48.6875 17.390625 48.6875 27.296875 
z
M 18.109375 46.390625 
Q 20.953125 51.265625 25.265625 53.625 
Q 29.59375 56 35.59375 56 
Q 45.5625 56 51.78125 48.09375 
Q 58.015625 40.1875 58.015625 27.296875 
Q 58.015625 14.40625 51.78125 6.484375 
Q 45.5625 -1.421875 35.59375 -1.421875 
Q 29.59375 -1.421875 25.265625 0.953125 
Q 20.953125 3.328125 18.109375 8.203125 
L 18.109375 0 
L 9.078125 0 
L 9.078125 75.984375 
L 18.109375 75.984375 
z
" id="DejaVuSans-98"/>
      <path d="M 56.203125 29.59375 
L 56.203125 25.203125 
L 14.890625 25.203125 
Q 15.484375 15.921875 20.484375 11.0625 
Q 25.484375 6.203125 34.421875 6.203125 
Q 39.59375 6.203125 44.453125 7.46875 
Q 49.3125 8.734375 54.109375 11.28125 
L 54.109375 2.78125 
Q 49.265625 0.734375 44.1875 -0.34375 
Q 39.109375 -1.421875 33.890625 -1.421875 
Q 20.796875 -1.421875 13.15625 6.1875 
Q 5.515625 13.8125 5.515625 26.8125 
Q 5.515625 40.234375 12.765625 48.109375 
Q 20.015625 56 32.328125 56 
Q 43.359375 56 49.78125 48.890625 
Q 56.203125 41.796875 56.203125 29.59375 
z
M 47.21875 32.234375 
Q 47.125 39.59375 43.09375 43.984375 
Q 39.0625 48.390625 32.421875 48.390625 
Q 24.90625 48.390625 20.390625 44.140625 
Q 15.875 39.890625 15.1875 32.171875 
z
" id="DejaVuSans-101"/>
      <path d="M 41.109375 46.296875 
Q 39.59375 47.171875 37.8125 47.578125 
Q 36.03125 48 33.890625 48 
Q 26.265625 48 22.1875 43.046875 
Q 18.109375 38.09375 18.109375 28.8125 
L 18.109375 0 
L 9.078125 0 
L 9.078125 54.6875 
L 18.109375 54.6875 
L 18.109375 46.1875 
Q 20.953125 51.171875 25.484375 53.578125 
Q 30.03125 56 36.53125 56 
Q 37.453125 56 38.578125 55.875 
Q 39.703125 55.765625 41.0625 55.515625 
z
" id="DejaVuSans-114"/>
      <path id="DejaVuSans-32"/>
      <path d="M 30.609375 48.390625 
Q 23.390625 48.390625 19.1875 42.75 
Q 14.984375 37.109375 14.984375 27.296875 
Q 14.984375 17.484375 19.15625 11.84375 
Q 23.34375 6.203125 30.609375 6.203125 
Q 37.796875 6.203125 41.984375 11.859375 
Q 46.1875 17.53125 46.1875 27.296875 
Q 46.1875 37.015625 41.984375 42.703125 
Q 37.796875 48.390625 30.609375 48.390625 
z
M 30.609375 56 
Q 42.328125 56 49.015625 48.375 
Q 55.71875 40.765625 55.71875 27.296875 
Q 55.71875 13.875 49.015625 6.21875 
Q 42.328125 -1.421875 30.609375 -1.421875 
Q 18.84375 -1.421875 12.171875 6.21875 
Q 5.515625 13.875 5.515625 27.296875 
Q 5.515625 40.765625 12.171875 48.375 
Q 18.84375 56 30.609375 56 
z
" id="DejaVuSans-111"/>
      <path d="M 37.109375 75.984375 
L 37.109375 68.5 
L 28.515625 68.5 
Q 23.6875 68.5 21.796875 66.546875 
Q 19.921875 64.59375 19.921875 59.515625 
L 19.921875 54.6875 
L 34.71875 54.6875 
L 34.71875 47.703125 
L 19.921875 47.703125 
L 19.921875 0 
L 10.890625 0 
L 10.890625 47.703125 
L 2.296875 47.703125 
L 2.296875 54.6875 
L 10.890625 54.6875 
L 10.890625 58.5 
Q 10.890625 67.625 15.140625 71.796875 
Q 19.390625 75.984375 28.609375 75.984375 
z
" id="DejaVuSans-102"/>
      <path d="M 9.421875 75.984375 
L 18.40625 75.984375 
L 18.40625 0 
L 9.421875 0 
z
" id="DejaVuSans-108"/>
      <path d="M 54.890625 33.015625 
L 54.890625 0 
L 45.90625 0 
L 45.90625 32.71875 
Q 45.90625 40.484375 42.875 44.328125 
Q 39.84375 48.1875 33.796875 48.1875 
Q 26.515625 48.1875 22.3125 43.546875 
Q 18.109375 38.921875 18.109375 30.90625 
L 18.109375 0 
L 9.078125 0 
L 9.078125 54.6875 
L 18.109375 54.6875 
L 18.109375 46.1875 
Q 21.34375 51.125 25.703125 53.5625 
Q 30.078125 56 35.796875 56 
Q 45.21875 56 50.046875 50.171875 
Q 54.890625 44.34375 54.890625 33.015625 
z
" id="DejaVuSans-110"/>
      <path d="M 18.3125 70.21875 
L 18.3125 54.6875 
L 36.8125 54.6875 
L 36.8125 47.703125 
L 18.3125 47.703125 
L 18.3125 18.015625 
Q 18.3125 11.328125 20.140625 9.421875 
Q 21.96875 7.515625 27.59375 7.515625 
L 36.8125 7.515625 
L 36.8125 0 
L 27.59375 0 
Q 17.1875 0 13.234375 3.875 
Q 9.28125 7.765625 9.28125 18.015625 
L 9.28125 47.703125 
L 2.6875 47.703125 
L 2.6875 54.6875 
L 9.28125 54.6875 
L 9.28125 70.21875 
z
" id="DejaVuSans-116"/>
      <path d="M 44.28125 53.078125 
L 44.28125 44.578125 
Q 40.484375 46.53125 36.375 47.5 
Q 32.28125 48.484375 27.875 48.484375 
Q 21.1875 48.484375 17.84375 46.4375 
Q 14.5 44.390625 14.5 40.28125 
Q 14.5 37.15625 16.890625 35.375 
Q 19.28125 33.59375 26.515625 31.984375 
L 29.59375 31.296875 
Q 39.15625 29.25 43.1875 25.515625 
Q 47.21875 21.78125 47.21875 15.09375 
Q 47.21875 7.46875 41.1875 3.015625 
Q 35.15625 -1.421875 24.609375 -1.421875 
Q 20.21875 -1.421875 15.453125 -0.5625 
Q 10.6875 0.296875 5.421875 2 
L 5.421875 11.28125 
Q 10.40625 8.6875 15.234375 7.390625 
Q 20.0625 6.109375 24.8125 6.109375 
Q 31.15625 6.109375 34.5625 8.28125 
Q 37.984375 10.453125 37.984375 14.40625 
Q 37.984375 18.0625 35.515625 20.015625 
Q 33.0625 21.96875 24.703125 23.78125 
L 21.578125 24.515625 
Q 13.234375 26.265625 9.515625 29.90625 
Q 5.8125 33.546875 5.8125 39.890625 
Q 5.8125 47.609375 11.28125 51.796875 
Q 16.75 56 26.8125 56 
Q 31.78125 56 36.171875 55.265625 
Q 40.578125 54.546875 44.28125 53.078125 
z
" id="DejaVuSans-115"/>
      <path d="M 9.421875 54.6875 
L 18.40625 54.6875 
L 18.40625 0 
L 9.421875 0 
z
M 9.421875 75.984375 
L 18.40625 75.984375 
L 18.40625 64.59375 
L 9.421875 64.59375 
z
" id="DejaVuSans-105"/>
      <path d="M 34.28125 27.484375 
Q 23.390625 27.484375 19.1875 25 
Q 14.984375 22.515625 14.984375 16.5 
Q 14.984375 11.71875 18.140625 8.90625 
Q 21.296875 6.109375 26.703125 6.109375 
Q 34.1875 6.109375 38.703125 11.40625 
Q 43.21875 16.703125 43.21875 25.484375 
L 43.21875 27.484375 
z
M 52.203125 31.203125 
L 52.203125 0 
L 43.21875 0 
L 43.21875 8.296875 
Q 40.140625 3.328125 35.546875 0.953125 
Q 30.953125 -1.421875 24.3125 -1.421875 
Q 15.921875 -1.421875 10.953125 3.296875 
Q 6 8.015625 6 15.921875 
Q 6 25.140625 12.171875 29.828125 
Q 18.359375 34.515625 30.609375 34.515625 
L 43.21875 34.515625 
L 43.21875 35.40625 
Q 43.21875 41.609375 39.140625 45 
Q 35.0625 48.390625 27.6875 48.390625 
Q 23 48.390625 18.546875 47.265625 
Q 14.109375 46.140625 10.015625 43.890625 
L 10.015625 52.203125 
Q 14.9375 54.109375 19.578125 55.046875 
Q 24.21875 56 28.609375 56 
Q 40.484375 56 46.34375 49.84375 
Q 52.203125 43.703125 52.203125 31.203125 
z
" id="DejaVuSans-97"/>
      <path d="M 45.40625 27.984375 
Q 45.40625 37.75 41.375 43.109375 
Q 37.359375 48.484375 30.078125 48.484375 
Q 22.859375 48.484375 18.828125 43.109375 
Q 14.796875 37.75 14.796875 27.984375 
Q 14.796875 18.265625 18.828125 12.890625 
Q 22.859375 7.515625 30.078125 7.515625 
Q 37.359375 7.515625 41.375 12.890625 
Q 45.40625 18.265625 45.40625 27.984375 
z
M 54.390625 6.78125 
Q 54.390625 -7.171875 48.1875 -13.984375 
Q 42 -20.796875 29.203125 -20.796875 
Q 24.46875 -20.796875 20.265625 -20.09375 
Q 16.0625 -19.390625 12.109375 -17.921875 
L 12.109375 -9.1875 
Q 16.0625 -11.328125 19.921875 -12.34375 
Q 23.78125 -13.375 27.78125 -13.375 
Q 36.625 -13.375 41.015625 -8.765625 
Q 45.40625 -4.15625 45.40625 5.171875 
L 45.40625 9.625 
Q 42.625 4.78125 38.28125 2.390625 
Q 33.9375 0 27.875 0 
Q 17.828125 0 11.671875 7.65625 
Q 5.515625 15.328125 5.515625 27.984375 
Q 5.515625 40.671875 11.671875 48.328125 
Q 17.828125 56 27.875 56 
Q 33.9375 56 38.28125 53.609375 
Q 42.625 51.21875 45.40625 46.390625 
L 45.40625 54.6875 
L 54.390625 54.6875 
z
" id="DejaVuSans-103"/>
      <path d="M 31 75.875 
Q 24.46875 64.65625 21.28125 53.65625 
Q 18.109375 42.671875 18.109375 31.390625 
Q 18.109375 20.125 21.3125 9.0625 
Q 24.515625 -2 31 -13.1875 
L 23.1875 -13.1875 
Q 15.875 -1.703125 12.234375 9.375 
Q 8.59375 20.453125 8.59375 31.390625 
Q 8.59375 42.28125 12.203125 53.3125 
Q 15.828125 64.359375 23.1875 75.875 
z
" id="DejaVuSans-40"/>
      <path d="M 4.203125 54.6875 
L 13.1875 54.6875 
L 24.421875 12.015625 
L 35.59375 54.6875 
L 46.1875 54.6875 
L 57.421875 12.015625 
L 68.609375 54.6875 
L 77.59375 54.6875 
L 63.28125 0 
L 52.6875 0 
L 40.921875 44.828125 
L 29.109375 0 
L 18.5 0 
z
" id="DejaVuSans-119"/>
      <path d="M 47.015625 60.890625 
L 29.5 51.421875 
L 47.015625 41.890625 
L 44.1875 37.109375 
L 27.78125 47.015625 
L 27.78125 28.609375 
L 22.21875 28.609375 
L 22.21875 47.015625 
L 5.8125 37.109375 
L 2.984375 41.890625 
L 20.515625 51.421875 
L 2.984375 60.890625 
L 5.8125 65.71875 
L 22.21875 55.8125 
L 22.21875 74.21875 
L 27.78125 74.21875 
L 27.78125 55.8125 
L 44.1875 65.71875 
z
" id="DejaVuSans-42"/>
      <path d="M 46 62.703125 
L 46 35.5 
L 73.1875 35.5 
L 73.1875 27.203125 
L 46 27.203125 
L 46 0 
L 37.796875 0 
L 37.796875 27.203125 
L 10.59375 27.203125 
L 10.59375 35.5 
L 37.796875 35.5 
L 37.796875 62.703125 
z
" id="DejaVuSans-43"/>
      <path d="M 8.015625 75.875 
L 15.828125 75.875 
Q 23.140625 64.359375 26.78125 53.3125 
Q 30.421875 42.28125 30.421875 31.390625 
Q 30.421875 20.453125 26.78125 9.375 
Q 23.140625 -1.703125 15.828125 -13.1875 
L 8.015625 -13.1875 
Q 14.5 -2 17.703125 9.0625 
Q 20.90625 20.125 20.90625 31.390625 
Q 20.90625 42.671875 17.703125 53.65625 
Q 14.5 64.65625 8.015625 75.875 
z
" id="DejaVuSans-41"/>
      <path d="M 25.390625 72.90625 
L 33.6875 72.90625 
L 8.296875 -9.28125 
L 0 -9.28125 
z
" id="DejaVuSans-47"/>
      <path d="M 19.1875 8.296875 
L 53.609375 8.296875 
L 53.609375 0 
L 7.328125 0 
L 7.328125 8.296875 
Q 12.9375 14.109375 22.625 23.890625 
Q 32.328125 33.6875 34.8125 36.53125 
Q 39.546875 41.84375 41.421875 45.53125 
Q 43.3125 49.21875 43.3125 52.78125 
Q 43.3125 58.59375 39.234375 62.25 
Q 35.15625 65.921875 28.609375 65.921875 
Q 23.96875 65.921875 18.8125 64.3125 
Q 13.671875 62.703125 7.8125 59.421875 
L 7.8125 69.390625 
Q 13.765625 71.78125 18.9375 73 
Q 24.125 74.21875 28.421875 74.21875 
Q 39.75 74.21875 46.484375 68.546875 
Q 53.21875 62.890625 53.21875 53.421875 
Q 53.21875 48.921875 51.53125 44.890625 
Q 49.859375 40.875 45.40625 35.40625 
Q 44.1875 33.984375 37.640625 27.21875 
Q 31.109375 20.453125 19.1875 8.296875 
z
" id="DejaVuSans-50"/>
     </defs>
     <g transform="translate(346.2575 489.011763)scale(0.1 -0.1)">
      <use xlink:href="#DejaVuSans-78"/>
      <use x="74.804688" xlink:href="#DejaVuSans-117"/>
      <use x="138.183594" xlink:href="#DejaVuSans-109"/>
      <use x="235.595703" xlink:href="#DejaVuSans-98"/>
      <use x="299.072266" xlink:href="#DejaVuSans-101"/>
      <use x="360.595703" xlink:href="#DejaVuSans-114"/>
      <use x="401.708984" xlink:href="#DejaVuSans-32"/>
      <use x="433.496094" xlink:href="#DejaVuSans-111"/>
      <use x="494.677734" xlink:href="#DejaVuSans-102"/>
      <use x="529.882812" xlink:href="#DejaVuSans-32"/>
      <use x="561.669922" xlink:href="#DejaVuSans-101"/>
      <use x="623.193359" xlink:href="#DejaVuSans-108"/>
      <use x="650.976562" xlink:href="#DejaVuSans-101"/>
      <use x="712.5" xlink:href="#DejaVuSans-109"/>
      <use x="809.912109" xlink:href="#DejaVuSans-101"/>
      <use x="871.435547" xlink:href="#DejaVuSans-110"/>
      <use x="934.814453" xlink:href="#DejaVuSans-116"/>
      <use x="974.023438" xlink:href="#DejaVuSans-115"/>
      <use x="1026.123047" xlink:href="#DejaVuSans-32"/>
      <use x="1057.910156" xlink:href="#DejaVuSans-105"/>
      <use x="1085.693359" xlink:href="#DejaVuSans-110"/>
      <use x="1149.072266" xlink:href="#DejaVuSans-32"/>
      <use x="1180.859375" xlink:href="#DejaVuSans-116"/>
      <use x="1220.068359" xlink:href="#DejaVuSans-114"/>
      <use x="1261.181641" xlink:href="#DejaVuSans-105"/>
      <use x="1288.964844" xlink:href="#DejaVuSans-97"/>
      <use x="1350.244141" xlink:href="#DejaVuSans-110"/>
      <use x="1413.623047" xlink:href="#DejaVuSans-103"/>
      <use x="1477.099609" xlink:href="#DejaVuSans-108"/>
      <use x="1504.882812" xlink:href="#DejaVuSans-101"/>
      <use x="1566.40625" xlink:href="#DejaVuSans-32"/>
      <use x="1598.193359" xlink:href="#DejaVuSans-40"/>
      <use x="1637.207031" xlink:href="#DejaVuSans-114"/>
      <use x="1678.289062" xlink:href="#DejaVuSans-111"/>
      <use x="1739.470703" xlink:href="#DejaVuSans-119"/>
      <use x="1821.257812" xlink:href="#DejaVuSans-115"/>
      <use x="1873.357422" xlink:href="#DejaVuSans-42"/>
      <use x="1923.357422" xlink:href="#DejaVuSans-40"/>
      <use x="1962.371094" xlink:href="#DejaVuSans-114"/>
      <use x="2003.453125" xlink:href="#DejaVuSans-111"/>
      <use x="2064.634766" xlink:href="#DejaVuSans-119"/>
      <use x="2146.421875" xlink:href="#DejaVuSans-115"/>
      <use x="2198.521484" xlink:href="#DejaVuSans-43"/>
      <use x="2282.310547" xlink:href="#DejaVuSans-49"/>
      <use x="2345.933594" xlink:href="#DejaVuSans-41"/>
      <use x="2384.947266" xlink:href="#DejaVuSans-47"/>
      <use x="2418.638672" xlink:href="#DejaVuSans-50"/>
      <use x="2482.261719" xlink:href="#DejaVuSans-41"/>
     </g>
    </g>
   </g>
   <g id="matplotlib.axis_2">
    <g id="ytick_1">
     <g id="line2d_6">
      <defs>
       <path d="M 0 0 
L -3.5 0 
" id="m7056d4fc14" style="stroke:#000000;stroke-width:0.8;"/>
      </defs>
      <g>
       <use style="stroke:#000000;stroke-width:0.8;" x="115.2" xlink:href="#m7056d4fc14" y="442.631504"/>
      </g>
     </g>
     <g id="text_7">
      <!-- 0.0 -->
      <defs>
       <path d="M 10.6875 12.40625 
L 21 12.40625 
L 21 0 
L 10.6875 0 
z
" id="DejaVuSans-46"/>
      </defs>
      <g transform="translate(92.296875 446.430722)scale(0.1 -0.1)">
       <use xlink:href="#DejaVuSans-48"/>
       <use x="63.623047" xlink:href="#DejaVuSans-46"/>
       <use x="95.410156" xlink:href="#DejaVuSans-48"/>
      </g>
     </g>
    </g>
    <g id="ytick_2">
     <g id="line2d_7">
      <g>
       <use style="stroke:#000000;stroke-width:0.8;" x="115.2" xlink:href="#m7056d4fc14" y="355.579882"/>
      </g>
     </g>
     <g id="text_8">
      <!-- 0.5 -->
      <g transform="translate(92.296875 359.3791)scale(0.1 -0.1)">
       <use xlink:href="#DejaVuSans-48"/>
       <use x="63.623047" xlink:href="#DejaVuSans-46"/>
       <use x="95.410156" xlink:href="#DejaVuSans-53"/>
      </g>
     </g>
    </g>
    <g id="ytick_3">
     <g id="line2d_8">
      <g>
       <use style="stroke:#000000;stroke-width:0.8;" x="115.2" xlink:href="#m7056d4fc14" y="268.52826"/>
      </g>
     </g>
     <g id="text_9">
      <!-- 1.0 -->
      <g transform="translate(92.296875 272.327478)scale(0.1 -0.1)">
       <use xlink:href="#DejaVuSans-49"/>
       <use x="63.623047" xlink:href="#DejaVuSans-46"/>
       <use x="95.410156" xlink:href="#DejaVuSans-48"/>
      </g>
     </g>
    </g>
    <g id="ytick_4">
     <g id="line2d_9">
      <g>
       <use style="stroke:#000000;stroke-width:0.8;" x="115.2" xlink:href="#m7056d4fc14" y="181.476638"/>
      </g>
     </g>
     <g id="text_10">
      <!-- 1.5 -->
      <g transform="translate(92.296875 185.275856)scale(0.1 -0.1)">
       <use xlink:href="#DejaVuSans-49"/>
       <use x="63.623047" xlink:href="#DejaVuSans-46"/>
       <use x="95.410156" xlink:href="#DejaVuSans-53"/>
      </g>
     </g>
    </g>
    <g id="ytick_5">
     <g id="line2d_10">
      <g>
       <use style="stroke:#000000;stroke-width:0.8;" x="115.2" xlink:href="#m7056d4fc14" y="94.425016"/>
      </g>
     </g>
     <g id="text_11">
      <!-- 2.0 -->
      <g transform="translate(92.296875 98.224234)scale(0.1 -0.1)">
       <use xlink:href="#DejaVuSans-50"/>
       <use x="63.623047" xlink:href="#DejaVuSans-46"/>
       <use x="95.410156" xlink:href="#DejaVuSans-48"/>
      </g>
     </g>
    </g>
    <g id="text_12">
     <!-- Elements per second -->
     <defs>
      <path d="M 9.8125 72.90625 
L 55.90625 72.90625 
L 55.90625 64.59375 
L 19.671875 64.59375 
L 19.671875 43.015625 
L 54.390625 43.015625 
L 54.390625 34.71875 
L 19.671875 34.71875 
L 19.671875 8.296875 
L 56.78125 8.296875 
L 56.78125 0 
L 9.8125 0 
z
" id="DejaVuSans-69"/>
      <path d="M 18.109375 8.203125 
L 18.109375 -20.796875 
L 9.078125 -20.796875 
L 9.078125 54.6875 
L 18.109375 54.6875 
L 18.109375 46.390625 
Q 20.953125 51.265625 25.265625 53.625 
Q 29.59375 56 35.59375 56 
Q 45.5625 56 51.78125 48.09375 
Q 58.015625 40.1875 58.015625 27.296875 
Q 58.015625 14.40625 51.78125 6.484375 
Q 45.5625 -1.421875 35.59375 -1.421875 
Q 29.59375 -1.421875 25.265625 0.953125 
Q 20.953125 3.328125 18.109375 8.203125 
z
M 48.6875 27.296875 
Q 48.6875 37.203125 44.609375 42.84375 
Q 40.53125 48.484375 33.40625 48.484375 
Q 26.265625 48.484375 22.1875 42.84375 
Q 18.109375 37.203125 18.109375 27.296875 
Q 18.109375 17.390625 22.1875 11.75 
Q 26.265625 6.109375 33.40625 6.109375 
Q 40.53125 6.109375 44.609375 11.75 
Q 48.6875 17.390625 48.6875 27.296875 
z
" id="DejaVuSans-112"/>
      <path d="M 48.78125 52.59375 
L 48.78125 44.1875 
Q 44.96875 46.296875 41.140625 47.34375 
Q 37.3125 48.390625 33.40625 48.390625 
Q 24.65625 48.390625 19.8125 42.84375 
Q 14.984375 37.3125 14.984375 27.296875 
Q 14.984375 17.28125 19.8125 11.734375 
Q 24.65625 6.203125 33.40625 6.203125 
Q 37.3125 6.203125 41.140625 7.25 
Q 44.96875 8.296875 48.78125 10.40625 
L 48.78125 2.09375 
Q 45.015625 0.34375 40.984375 -0.53125 
Q 36.96875 -1.421875 32.421875 -1.421875 
Q 20.0625 -1.421875 12.78125 6.34375 
Q 5.515625 14.109375 5.515625 27.296875 
Q 5.515625 40.671875 12.859375 48.328125 
Q 20.21875 56 33.015625 56 
Q 37.15625 56 41.109375 55.140625 
Q 45.0625 54.296875 48.78125 52.59375 
z
" id="DejaVuSans-99"/>
      <path d="M 45.40625 46.390625 
L 45.40625 75.984375 
L 54.390625 75.984375 
L 54.390625 0 
L 45.40625 0 
L 45.40625 8.203125 
Q 42.578125 3.328125 38.25 0.953125 
Q 33.9375 -1.421875 27.875 -1.421875 
Q 17.96875 -1.421875 11.734375 6.484375 
Q 5.515625 14.40625 5.515625 27.296875 
Q 5.515625 40.1875 11.734375 48.09375 
Q 17.96875 56 27.875 56 
Q 33.9375 56 38.25 53.625 
Q 42.578125 51.265625 45.40625 46.390625 
z
M 14.796875 27.296875 
Q 14.796875 17.390625 18.875 11.75 
Q 22.953125 6.109375 30.078125 6.109375 
Q 37.203125 6.109375 41.296875 11.75 
Q 45.40625 17.390625 45.40625 27.296875 
Q 45.40625 37.203125 41.296875 42.84375 
Q 37.203125 48.484375 30.078125 48.484375 
Q 22.953125 48.484375 18.875 42.84375 
Q 14.796875 37.203125 14.796875 27.296875 
z
" id="DejaVuSans-100"/>
     </defs>
     <g transform="translate(86.217187 314.051056)rotate(-90)scale(0.1 -0.1)">
      <use xlink:href="#DejaVuSans-69"/>
      <use x="63.183594" xlink:href="#DejaVuSans-108"/>
      <use x="90.966797" xlink:href="#DejaVuSans-101"/>
      <use x="152.490234" xlink:href="#DejaVuSans-109"/>
      <use x="249.902344" xlink:href="#DejaVuSans-101"/>
      <use x="311.425781" xlink:href="#DejaVuSans-110"/>
      <use x="374.804688" xlink:href="#DejaVuSans-116"/>
      <use x="414.013672" xlink:href="#DejaVuSans-115"/>
      <use x="466.113281" xlink:href="#DejaVuSans-32"/>
      <use x="497.900391" xlink:href="#DejaVuSans-112"/>
      <use x="561.376953" xlink:href="#DejaVuSans-101"/>
      <use x="622.900391" xlink:href="#DejaVuSans-114"/>
      <use x="664.013672" xlink:href="#DejaVuSans-32"/>
      <use x="695.800781" xlink:href="#DejaVuSans-115"/>
      <use x="747.900391" xlink:href="#DejaVuSans-101"/>
      <use x="809.423828" xlink:href="#DejaVuSans-99"/>
      <use x="864.404297" xlink:href="#DejaVuSans-111"/>
      <use x="925.585938" xlink:href="#DejaVuSans-110"/>
      <use x="988.964844" xlink:href="#DejaVuSans-100"/>
     </g>
    </g>
    <g id="text_13">
     <!-- 1e9 -->
     <g transform="translate(115.2 59.1216)scale(0.1 -0.1)">
      <use xlink:href="#DejaVuSans-49"/>
      <use x="63.623047" xlink:href="#DejaVuSans-101"/>
      <use x="125.146484" xlink:href="#DejaVuSans-57"/>
     </g>
    </g>
   </g>
   <g id="line2d_11">
    <path clip-path="url(#p0944177873)" d="M 147.665455 441.535566 
L 180.863191 440.460799 
L 201.808631 439.756273 
L 217.244699 438.807307 
L 229.496996 437.888693 
L 239.664474 437.39121 
L 248.357617 436.321738 
L 255.951807 435.504003 
L 262.694732 434.12139 
L 268.758576 433.842583 
L 274.267947 433.25365 
L 292.333315 429.231289 
L 306.219409 426.172537 
L 317.502064 422.824771 
L 327.005387 419.118433 
L 335.215033 416.11253 
L 342.441455 413.684298 
L 348.895212 410.664685 
L 354.725712 407.630895 
L 360.042816 404.648426 
L 364.929674 401.750547 
L 369.450738 398.841373 
L 373.656981 396.019933 
L 377.589409 393.204514 
L 378.533795 391.960687 
L 420.19133 356.98363 
L 461.964858 309.591156 
L 503.796891 262.434942 
L 545.658304 213.776698 
L 587.534439 377.049575 
L 629.417944 388.383315 
L 641.469135 394.936592 
L 671.305135 396.257228 
L 713.19417 394.425736 
L 755.084127 395.092057 
L 796.974545 431.675314 
" style="fill:none;stroke:#000000;stroke-linecap:square;"/>
    <defs>
     <path d="M 0 2.5 
C 0.663008 2.5 1.29895 2.236584 1.767767 1.767767 
C 2.236584 1.29895 2.5 0.663008 2.5 0 
C 2.5 -0.663008 2.236584 -1.29895 1.767767 -1.767767 
C 1.29895 -2.236584 0.663008 -2.5 0 -2.5 
C -0.663008 -2.5 -1.29895 -2.236584 -1.767767 -1.767767 
C -2.236584 -1.29895 -2.5 -0.663008 -2.5 0 
C -2.5 0.663008 -2.236584 1.29895 -1.767767 1.767767 
C -1.29895 2.236584 -0.663008 2.5 0 2.5 
z
" id="madb821728e" style="stroke:#000000;"/>
    </defs>
    <g clip-path="url(#p0944177873)">
     <use style="stroke:#000000;" x="147.665455" xlink:href="#madb821728e" y="441.535566"/>
     <use style="stroke:#000000;" x="180.863191" xlink:href="#madb821728e" y="440.460799"/>
     <use style="stroke:#000000;" x="201.808631" xlink:href="#madb821728e" y="439.756273"/>
     <use style="stroke:#000000;" x="217.244699" xlink:href="#madb821728e" y="438.807307"/>
     <use style="stroke:#000000;" x="229.496996" xlink:href="#madb821728e" y="437.888693"/>
     <use style="stroke:#000000;" x="239.664474" xlink:href="#madb821728e" y="437.39121"/>
     <use style="stroke:#000000;" x="248.357617" xlink:href="#madb821728e" y="436.321738"/>
     <use style="stroke:#000000;" x="255.951807" xlink:href="#madb821728e" y="435.504003"/>
     <use style="stroke:#000000;" x="262.694732" xlink:href="#madb821728e" y="434.12139"/>
     <use style="stroke:#000000;" x="268.758576" xlink:href="#madb821728e" y="433.842583"/>
     <use style="stroke:#000000;" x="274.267947" xlink:href="#madb821728e" y="433.25365"/>
     <use style="stroke:#000000;" x="292.333315" xlink:href="#madb821728e" y="429.231289"/>
     <use style="stroke:#000000;" x="306.219409" xlink:href="#madb821728e" y="426.172537"/>
     <use style="stroke:#000000;" x="317.502064" xlink:href="#madb821728e" y="422.824771"/>
     <use style="stroke:#000000;" x="327.005387" xlink:href="#madb821728e" y="419.118433"/>
     <use style="stroke:#000000;" x="335.215033" xlink:href="#madb821728e" y="416.11253"/>
     <use style="stroke:#000000;" x="342.441455" xlink:href="#madb821728e" y="413.684298"/>
     <use style="stroke:#000000;" x="348.895212" xlink:href="#madb821728e" y="410.664685"/>
     <use style="stroke:#000000;" x="354.725712" xlink:href="#madb821728e" y="407.630895"/>
     <use style="stroke:#000000;" x="360.042816" xlink:href="#madb821728e" y="404.648426"/>
     <use style="stroke:#000000;" x="364.929674" xlink:href="#madb821728e" y="401.750547"/>
     <use style="stroke:#000000;" x="369.450738" xlink:href="#madb821728e" y="398.841373"/>
     <use style="stroke:#000000;" x="373.656981" xlink:href="#madb821728e" y="396.019933"/>
     <use style="stroke:#000000;" x="377.589409" xlink:href="#madb821728e" y="393.204514"/>
     <use style="stroke:#000000;" x="378.533795" xlink:href="#madb821728e" y="391.960687"/>
     <use style="stroke:#000000;" x="420.19133" xlink:href="#madb821728e" y="356.98363"/>
     <use style="stroke:#000000;" x="461.964858" xlink:href="#madb821728e" y="309.591156"/>
     <use style="stroke:#000000;" x="503.796891" xlink:href="#madb821728e" y="262.434942"/>
     <use style="stroke:#000000;" x="545.658304" xlink:href="#madb821728e" y="213.776698"/>
     <use style="stroke:#000000;" x="587.534439" xlink:href="#madb821728e" y="377.049575"/>
     <use style="stroke:#000000;" x="629.417944" xlink:href="#madb821728e" y="388.383315"/>
     <use style="stroke:#000000;" x="641.469135" xlink:href="#madb821728e" y="394.936592"/>
     <use style="stroke:#000000;" x="671.305135" xlink:href="#madb821728e" y="396.257228"/>
     <use style="stroke:#000000;" x="713.19417" xlink:href="#madb821728e" y="394.425736"/>
     <use style="stroke:#000000;" x="755.084127" xlink:href="#madb821728e" y="395.092057"/>
     <use style="stroke:#000000;" x="796.974545" xlink:href="#madb821728e" y="431.675314"/>
    </g>
   </g>
   <g id="line2d_12">
    <path clip-path="url(#p0944177873)" d="M 147.665455 442.6164 
L 180.863191 442.602848 
L 201.808631 442.594745 
L 217.244699 442.585029 
L 229.496996 442.575154 
L 239.664474 442.56491 
L 248.357617 442.554599 
L 255.951807 442.545529 
L 262.694732 442.534335 
L 268.758576 442.531472 
L 274.267947 442.523114 
L 292.333315 442.485345 
L 306.219409 442.448863 
L 317.502064 442.415051 
L 327.005387 442.378053 
L 335.215033 442.336335 
L 342.441455 442.299043 
L 348.895212 442.263635 
L 354.725712 442.22099 
L 360.042816 442.185933 
L 364.929674 442.148991 
L 369.450738 442.114801 
L 373.656981 442.069509 
L 377.589409 442.039169 
L 378.533795 442.024338 
L 420.19133 441.425137 
L 461.964858 440.256845 
L 503.796891 438.053592 
L 545.658304 433.838877 
L 587.534439 425.345034 
L 629.417944 415.12895 
L 641.469135 413.804994 
L 671.305135 405.264381 
L 713.19417 385.924949 
L 755.084127 368.448817 
L 796.974545 428.865059 
" style="fill:none;stroke:#0652ff;stroke-linecap:square;"/>
    <defs>
     <path d="M -2.5 0 
L 2.5 0 
M 0 2.5 
L 0 -2.5 
" id="mc911aed3f2" style="stroke:#0652ff;"/>
    </defs>
    <g clip-path="url(#p0944177873)">
     <use style="fill:#0652ff;stroke:#0652ff;" x="147.665455" xlink:href="#mc911aed3f2" y="442.6164"/>
     <use style="fill:#0652ff;stroke:#0652ff;" x="180.863191" xlink:href="#mc911aed3f2" y="442.602848"/>
     <use style="fill:#0652ff;stroke:#0652ff;" x="201.808631" xlink:href="#mc911aed3f2" y="442.594745"/>
     <use style="fill:#0652ff;stroke:#0652ff;" x="217.244699" xlink:href="#mc911aed3f2" y="442.585029"/>
     <use style="fill:#0652ff;stroke:#0652ff;" x="229.496996" xlink:href="#mc911aed3f2" y="442.575154"/>
     <use style="fill:#0652ff;stroke:#0652ff;" x="239.664474" xlink:href="#mc911aed3f2" y="442.56491"/>
     <use style="fill:#0652ff;stroke:#0652ff;" x="248.357617" xlink:href="#mc911aed3f2" y="442.554599"/>
     <use style="fill:#0652ff;stroke:#0652ff;" x="255.951807" xlink:href="#mc911aed3f2" y="442.545529"/>
     <use style="fill:#0652ff;stroke:#0652ff;" x="262.694732" xlink:href="#mc911aed3f2" y="442.534335"/>
     <use style="fill:#0652ff;stroke:#0652ff;" x="268.758576" xlink:href="#mc911aed3f2" y="442.531472"/>
     <use style="fill:#0652ff;stroke:#0652ff;" x="274.267947" xlink:href="#mc911aed3f2" y="442.523114"/>
     <use style="fill:#0652ff;stroke:#0652ff;" x="292.333315" xlink:href="#mc911aed3f2" y="442.485345"/>
     <use style="fill:#0652ff;stroke:#0652ff;" x="306.219409" xlink:href="#mc911aed3f2" y="442.448863"/>
     <use style="fill:#0652ff;stroke:#0652ff;" x="317.502064" xlink:href="#mc911aed3f2" y="442.415051"/>
     <use style="fill:#0652ff;stroke:#0652ff;" x="327.005387" xlink:href="#mc911aed3f2" y="442.378053"/>
     <use style="fill:#0652ff;stroke:#0652ff;" x="335.215033" xlink:href="#mc911aed3f2" y="442.336335"/>
     <use style="fill:#0652ff;stroke:#0652ff;" x="342.441455" xlink:href="#mc911aed3f2" y="442.299043"/>
     <use style="fill:#0652ff;stroke:#0652ff;" x="348.895212" xlink:href="#mc911aed3f2" y="442.263635"/>
     <use style="fill:#0652ff;stroke:#0652ff;" x="354.725712" xlink:href="#mc911aed3f2" y="442.22099"/>
     <use style="fill:#0652ff;stroke:#0652ff;" x="360.042816" xlink:href="#mc911aed3f2" y="442.185933"/>
     <use style="fill:#0652ff;stroke:#0652ff;" x="364.929674" xlink:href="#mc911aed3f2" y="442.148991"/>
     <use style="fill:#0652ff;stroke:#0652ff;" x="369.450738" xlink:href="#mc911aed3f2" y="442.114801"/>
     <use style="fill:#0652ff;stroke:#0652ff;" x="373.656981" xlink:href="#mc911aed3f2" y="442.069509"/>
     <use style="fill:#0652ff;stroke:#0652ff;" x="377.589409" xlink:href="#mc911aed3f2" y="442.039169"/>
     <use style="fill:#0652ff;stroke:#0652ff;" x="378.533795" xlink:href="#mc911aed3f2" y="442.024338"/>
     <use style="fill:#0652ff;stroke:#0652ff;" x="420.19133" xlink:href="#mc911aed3f2" y="441.425137"/>
     <use style="fill:#0652ff;stroke:#0652ff;" x="461.964858" xlink:href="#mc911aed3f2" y="440.256845"/>
     <use style="fill:#0652ff;stroke:#0652ff;" x="503.796891" xlink:href="#mc911aed3f2" y="438.053592"/>
     <use style="fill:#0652ff;stroke:#0652ff;" x="545.658304" xlink:href="#mc911aed3f2" y="433.838877"/>
     <use style="fill:#0652ff;stroke:#0652ff;" x="587.534439" xlink:href="#mc911aed3f2" y="425.345034"/>
     <use style="fill:#0652ff;stroke:#0652ff;" x="629.417944" xlink:href="#mc911aed3f2" y="415.12895"/>
     <use style="fill:#0652ff;stroke:#0652ff;" x="641.469135" xlink:href="#mc911aed3f2" y="413.804994"/>
     <use style="fill:#0652ff;stroke:#0652ff;" x="671.305135" xlink:href="#mc911aed3f2" y="405.264381"/>
     <use style="fill:#0652ff;stroke:#0652ff;" x="713.19417" xlink:href="#mc911aed3f2" y="385.924949"/>
     <use style="fill:#0652ff;stroke:#0652ff;" x="755.084127" xlink:href="#mc911aed3f2" y="368.448817"/>
     <use style="fill:#0652ff;stroke:#0652ff;" x="796.974545" xlink:href="#mc911aed3f2" y="428.865059"/>
    </g>
   </g>
   <g id="line2d_13">
    <path clip-path="url(#p0944177873)" d="M 147.665455 441.932879 
L 180.863191 441.966936 
L 201.808631 441.879404 
L 217.244699 441.706071 
L 229.496996 441.637382 
L 239.664474 441.477696 
L 248.357617 440.728069 
L 255.951807 440.602371 
L 262.694732 440.428131 
L 268.758576 440.174621 
L 274.267947 439.983673 
L 292.333315 438.964306 
L 306.219409 438.021981 
L 317.502064 437.025926 
L 327.005387 436.101881 
L 335.215033 434.732567 
L 342.441455 433.62845 
L 348.895212 432.308783 
L 354.725712 431.318234 
L 360.042816 429.733721 
L 364.929674 429.212466 
L 369.450738 427.698224 
L 373.656981 427.016366 
L 377.589409 425.837198 
L 378.533795 424.984337 
L 420.19133 410.157458 
L 461.964858 386.398015 
L 503.796891 366.128396 
L 545.658304 338.568393 
L 587.534439 326.655514 
L 629.417944 367.550726 
L 641.469135 355.888131 
L 671.305135 386.761776 
L 713.19417 384.110927 
L 755.084127 390.387414 
L 796.974545 432.329636 
" style="fill:none;stroke:#0cff0c;stroke-linecap:square;"/>
    <defs>
     <path d="M -2.5 2.5 
L 2.5 -2.5 
M -2.5 -2.5 
L 2.5 2.5 
" id="m7ce0822082" style="stroke:#0cff0c;"/>
    </defs>
    <g clip-path="url(#p0944177873)">
     <use style="fill:#0cff0c;stroke:#0cff0c;" x="147.665455" xlink:href="#m7ce0822082" y="441.932879"/>
     <use style="fill:#0cff0c;stroke:#0cff0c;" x="180.863191" xlink:href="#m7ce0822082" y="441.966936"/>
     <use style="fill:#0cff0c;stroke:#0cff0c;" x="201.808631" xlink:href="#m7ce0822082" y="441.879404"/>
     <use style="fill:#0cff0c;stroke:#0cff0c;" x="217.244699" xlink:href="#m7ce0822082" y="441.706071"/>
     <use style="fill:#0cff0c;stroke:#0cff0c;" x="229.496996" xlink:href="#m7ce0822082" y="441.637382"/>
     <use style="fill:#0cff0c;stroke:#0cff0c;" x="239.664474" xlink:href="#m7ce0822082" y="441.477696"/>
     <use style="fill:#0cff0c;stroke:#0cff0c;" x="248.357617" xlink:href="#m7ce0822082" y="440.728069"/>
     <use style="fill:#0cff0c;stroke:#0cff0c;" x="255.951807" xlink:href="#m7ce0822082" y="440.602371"/>
     <use style="fill:#0cff0c;stroke:#0cff0c;" x="262.694732" xlink:href="#m7ce0822082" y="440.428131"/>
     <use style="fill:#0cff0c;stroke:#0cff0c;" x="268.758576" xlink:href="#m7ce0822082" y="440.174621"/>
     <use style="fill:#0cff0c;stroke:#0cff0c;" x="274.267947" xlink:href="#m7ce0822082" y="439.983673"/>
     <use style="fill:#0cff0c;stroke:#0cff0c;" x="292.333315" xlink:href="#m7ce0822082" y="438.964306"/>
     <use style="fill:#0cff0c;stroke:#0cff0c;" x="306.219409" xlink:href="#m7ce0822082" y="438.021981"/>
     <use style="fill:#0cff0c;stroke:#0cff0c;" x="317.502064" xlink:href="#m7ce0822082" y="437.025926"/>
     <use style="fill:#0cff0c;stroke:#0cff0c;" x="327.005387" xlink:href="#m7ce0822082" y="436.101881"/>
     <use style="fill:#0cff0c;stroke:#0cff0c;" x="335.215033" xlink:href="#m7ce0822082" y="434.732567"/>
     <use style="fill:#0cff0c;stroke:#0cff0c;" x="342.441455" xlink:href="#m7ce0822082" y="433.62845"/>
     <use style="fill:#0cff0c;stroke:#0cff0c;" x="348.895212" xlink:href="#m7ce0822082" y="432.308783"/>
     <use style="fill:#0cff0c;stroke:#0cff0c;" x="354.725712" xlink:href="#m7ce0822082" y="431.318234"/>
     <use style="fill:#0cff0c;stroke:#0cff0c;" x="360.042816" xlink:href="#m7ce0822082" y="429.733721"/>
     <use style="fill:#0cff0c;stroke:#0cff0c;" x="364.929674" xlink:href="#m7ce0822082" y="429.212466"/>
     <use style="fill:#0cff0c;stroke:#0cff0c;" x="369.450738" xlink:href="#m7ce0822082" y="427.698224"/>
     <use style="fill:#0cff0c;stroke:#0cff0c;" x="373.656981" xlink:href="#m7ce0822082" y="427.016366"/>
     <use style="fill:#0cff0c;stroke:#0cff0c;" x="377.589409" xlink:href="#m7ce0822082" y="425.837198"/>
     <use style="fill:#0cff0c;stroke:#0cff0c;" x="378.533795" xlink:href="#m7ce0822082" y="424.984337"/>
     <use style="fill:#0cff0c;stroke:#0cff0c;" x="420.19133" xlink:href="#m7ce0822082" y="410.157458"/>
     <use style="fill:#0cff0c;stroke:#0cff0c;" x="461.964858" xlink:href="#m7ce0822082" y="386.398015"/>
     <use style="fill:#0cff0c;stroke:#0cff0c;" x="503.796891" xlink:href="#m7ce0822082" y="366.128396"/>
     <use style="fill:#0cff0c;stroke:#0cff0c;" x="545.658304" xlink:href="#m7ce0822082" y="338.568393"/>
     <use style="fill:#0cff0c;stroke:#0cff0c;" x="587.534439" xlink:href="#m7ce0822082" y="326.655514"/>
     <use style="fill:#0cff0c;stroke:#0cff0c;" x="629.417944" xlink:href="#m7ce0822082" y="367.550726"/>
     <use style="fill:#0cff0c;stroke:#0cff0c;" x="641.469135" xlink:href="#m7ce0822082" y="355.888131"/>
     <use style="fill:#0cff0c;stroke:#0cff0c;" x="671.305135" xlink:href="#m7ce0822082" y="386.761776"/>
     <use style="fill:#0cff0c;stroke:#0cff0c;" x="713.19417" xlink:href="#m7ce0822082" y="384.110927"/>
     <use style="fill:#0cff0c;stroke:#0cff0c;" x="755.084127" xlink:href="#m7ce0822082" y="390.387414"/>
     <use style="fill:#0cff0c;stroke:#0cff0c;" x="796.974545" xlink:href="#m7ce0822082" y="432.329636"/>
    </g>
   </g>
   <g id="line2d_14">
    <path clip-path="url(#p0944177873)" d="M 147.665455 441.443557 
L 180.863191 441.628499 
L 201.808631 441.471782 
L 217.244699 441.18681 
L 229.496996 440.952747 
L 239.664474 440.723103 
L 248.357617 440.529116 
L 255.951807 440.167833 
L 262.694732 440.066863 
L 268.758576 439.830541 
L 274.267947 439.382321 
L 292.333315 438.591771 
L 306.219409 436.871542 
L 317.502064 435.374291 
L 327.005387 434.212491 
L 335.215033 432.785201 
L 342.441455 430.636568 
L 348.895212 429.346279 
L 354.725712 426.547759 
L 360.042816 423.42913 
L 364.929674 421.653583 
L 369.450738 418.723478 
L 373.656981 415.561887 
L 377.589409 411.507912 
L 378.533795 410.287834 
L 420.19133 384.593139 
L 461.964858 361.076318 
L 503.796891 321.124525 
L 545.658304 306.527873 
L 587.534439 315.175449 
L 629.417944 323.559665 
L 641.469135 330.767011 
L 671.305135 353.036444 
L 713.19417 370.431908 
L 755.084127 382.213241 
L 796.974545 435.577897 
" style="fill:none;stroke:#e50000;stroke-linecap:square;"/>
    <defs>
     <path d="M -0 2.5 
L 2.5 -2.5 
L -2.5 -2.5 
z
" id="mcae4eda54d" style="stroke:#e50000;stroke-linejoin:miter;"/>
    </defs>
    <g clip-path="url(#p0944177873)">
     <use style="fill:#e50000;stroke:#e50000;stroke-linejoin:miter;" x="147.665455" xlink:href="#mcae4eda54d" y="441.443557"/>
     <use style="fill:#e50000;stroke:#e50000;stroke-linejoin:miter;" x="180.863191" xlink:href="#mcae4eda54d" y="441.628499"/>
     <use style="fill:#e50000;stroke:#e50000;stroke-linejoin:miter;" x="201.808631" xlink:href="#mcae4eda54d" y="441.471782"/>
     <use style="fill:#e50000;stroke:#e50000;stroke-linejoin:miter;" x="217.244699" xlink:href="#mcae4eda54d" y="441.18681"/>
     <use style="fill:#e50000;stroke:#e50000;stroke-linejoin:miter;" x="229.496996" xlink:href="#mcae4eda54d" y="440.952747"/>
     <use style="fill:#e50000;stroke:#e50000;stroke-linejoin:miter;" x="239.664474" xlink:href="#mcae4eda54d" y="440.723103"/>
     <use style="fill:#e50000;stroke:#e50000;stroke-linejoin:miter;" x="248.357617" xlink:href="#mcae4eda54d" y="440.529116"/>
     <use style="fill:#e50000;stroke:#e50000;stroke-linejoin:miter;" x="255.951807" xlink:href="#mcae4eda54d" y="440.167833"/>
     <use style="fill:#e50000;stroke:#e50000;stroke-linejoin:miter;" x="262.694732" xlink:href="#mcae4eda54d" y="440.066863"/>
     <use style="fill:#e50000;stroke:#e50000;stroke-linejoin:miter;" x="268.758576" xlink:href="#mcae4eda54d" y="439.830541"/>
     <use style="fill:#e50000;stroke:#e50000;stroke-linejoin:miter;" x="274.267947" xlink:href="#mcae4eda54d" y="439.382321"/>
     <use style="fill:#e50000;stroke:#e50000;stroke-linejoin:miter;" x="292.333315" xlink:href="#mcae4eda54d" y="438.591771"/>
     <use style="fill:#e50000;stroke:#e50000;stroke-linejoin:miter;" x="306.219409" xlink:href="#mcae4eda54d" y="436.871542"/>
     <use style="fill:#e50000;stroke:#e50000;stroke-linejoin:miter;" x="317.502064" xlink:href="#mcae4eda54d" y="435.374291"/>
     <use style="fill:#e50000;stroke:#e50000;stroke-linejoin:miter;" x="327.005387" xlink:href="#mcae4eda54d" y="434.212491"/>
     <use style="fill:#e50000;stroke:#e50000;stroke-linejoin:miter;" x="335.215033" xlink:href="#mcae4eda54d" y="432.785201"/>
     <use style="fill:#e50000;stroke:#e50000;stroke-linejoin:miter;" x="342.441455" xlink:href="#mcae4eda54d" y="430.636568"/>
     <use style="fill:#e50000;stroke:#e50000;stroke-linejoin:miter;" x="348.895212" xlink:href="#mcae4eda54d" y="429.346279"/>
     <use style="fill:#e50000;stroke:#e50000;stroke-linejoin:miter;" x="354.725712" xlink:href="#mcae4eda54d" y="426.547759"/>
     <use style="fill:#e50000;stroke:#e50000;stroke-linejoin:miter;" x="360.042816" xlink:href="#mcae4eda54d" y="423.42913"/>
     <use style="fill:#e50000;stroke:#e50000;stroke-linejoin:miter;" x="364.929674" xlink:href="#mcae4eda54d" y="421.653583"/>
     <use style="fill:#e50000;stroke:#e50000;stroke-linejoin:miter;" x="369.450738" xlink:href="#mcae4eda54d" y="418.723478"/>
     <use style="fill:#e50000;stroke:#e50000;stroke-linejoin:miter;" x="373.656981" xlink:href="#mcae4eda54d" y="415.561887"/>
     <use style="fill:#e50000;stroke:#e50000;stroke-linejoin:miter;" x="377.589409" xlink:href="#mcae4eda54d" y="411.507912"/>
     <use style="fill:#e50000;stroke:#e50000;stroke-linejoin:miter;" x="378.533795" xlink:href="#mcae4eda54d" y="410.287834"/>
     <use style="fill:#e50000;stroke:#e50000;stroke-linejoin:miter;" x="420.19133" xlink:href="#mcae4eda54d" y="384.593139"/>
     <use style="fill:#e50000;stroke:#e50000;stroke-linejoin:miter;" x="461.964858" xlink:href="#mcae4eda54d" y="361.076318"/>
     <use style="fill:#e50000;stroke:#e50000;stroke-linejoin:miter;" x="503.796891" xlink:href="#mcae4eda54d" y="321.124525"/>
     <use style="fill:#e50000;stroke:#e50000;stroke-linejoin:miter;" x="545.658304" xlink:href="#mcae4eda54d" y="306.527873"/>
     <use style="fill:#e50000;stroke:#e50000;stroke-linejoin:miter;" x="587.534439" xlink:href="#mcae4eda54d" y="315.175449"/>
     <use style="fill:#e50000;stroke:#e50000;stroke-linejoin:miter;" x="629.417944" xlink:href="#mcae4eda54d" y="323.559665"/>
     <use style="fill:#e50000;stroke:#e50000;stroke-linejoin:miter;" x="641.469135" xlink:href="#mcae4eda54d" y="330.767011"/>
     <use style="fill:#e50000;stroke:#e50000;stroke-linejoin:miter;" x="671.305135" xlink:href="#mcae4eda54d" y="353.036444"/>
     <use style="fill:#e50000;stroke:#e50000;stroke-linejoin:miter;" x="713.19417" xlink:href="#mcae4eda54d" y="370.431908"/>
     <use style="fill:#e50000;stroke:#e50000;stroke-linejoin:miter;" x="755.084127" xlink:href="#mcae4eda54d" y="382.213241"/>
     <use style="fill:#e50000;stroke:#e50000;stroke-linejoin:miter;" x="796.974545" xlink:href="#mcae4eda54d" y="435.577897"/>
    </g>
   </g>
   <g id="line2d_15">
    <path clip-path="url(#p0944177873)" d="M 147.665455 441.951248 
L 180.863191 441.613701 
L 201.808631 441.187407 
L 217.244699 440.806701 
L 229.496996 440.358576 
L 239.664474 440.002988 
L 248.357617 439.527497 
L 255.951807 439.053228 
L 262.694732 438.747299 
L 268.758576 438.496742 
L 274.267947 438.358505 
L 292.333315 436.810684 
L 306.219409 435.05589 
L 317.502064 433.094624 
L 327.005387 431.273708 
L 335.215033 428.858382 
L 342.441455 427.088509 
L 348.895212 424.602722 
L 354.725712 420.90697 
L 360.042816 418.188972 
L 364.929674 417.052233 
L 369.450738 414.283423 
L 373.656981 412.1718 
L 377.589409 410.084146 
L 378.533795 409.375334 
L 420.19133 386.1519 
L 461.964858 371.686836 
L 503.796891 355.634976 
L 545.658304 337.217895 
L 587.534439 367.296747 
L 629.417944 368.542356 
L 641.469135 334.1613 
L 671.305135 382.38321 
L 713.19417 383.350641 
L 755.084127 381.951004 
L 796.974545 432.820582 
" style="fill:none;stroke:#75bbfd;stroke-linecap:square;"/>
    <defs>
     <path d="M -2.5 2.5 
L 2.5 2.5 
L 2.5 -2.5 
L -2.5 -2.5 
z
" id="md57fb06b47" style="stroke:#75bbfd;stroke-linejoin:miter;"/>
    </defs>
    <g clip-path="url(#p0944177873)">
     <use style="fill:#75bbfd;stroke:#75bbfd;stroke-linejoin:miter;" x="147.665455" xlink:href="#md57fb06b47" y="441.951248"/>
     <use style="fill:#75bbfd;stroke:#75bbfd;stroke-linejoin:miter;" x="180.863191" xlink:href="#md57fb06b47" y="441.613701"/>
     <use style="fill:#75bbfd;stroke:#75bbfd;stroke-linejoin:miter;" x="201.808631" xlink:href="#md57fb06b47" y="441.187407"/>
     <use style="fill:#75bbfd;stroke:#75bbfd;stroke-linejoin:miter;" x="217.244699" xlink:href="#md57fb06b47" y="440.806701"/>
     <use style="fill:#75bbfd;stroke:#75bbfd;stroke-linejoin:miter;" x="229.496996" xlink:href="#md57fb06b47" y="440.358576"/>
     <use style="fill:#75bbfd;stroke:#75bbfd;stroke-linejoin:miter;" x="239.664474" xlink:href="#md57fb06b47" y="440.002988"/>
     <use style="fill:#75bbfd;stroke:#75bbfd;stroke-linejoin:miter;" x="248.357617" xlink:href="#md57fb06b47" y="439.527497"/>
     <use style="fill:#75bbfd;stroke:#75bbfd;stroke-linejoin:miter;" x="255.951807" xlink:href="#md57fb06b47" y="439.053228"/>
     <use style="fill:#75bbfd;stroke:#75bbfd;stroke-linejoin:miter;" x="262.694732" xlink:href="#md57fb06b47" y="438.747299"/>
     <use style="fill:#75bbfd;stroke:#75bbfd;stroke-linejoin:miter;" x="268.758576" xlink:href="#md57fb06b47" y="438.496742"/>
     <use style="fill:#75bbfd;stroke:#75bbfd;stroke-linejoin:miter;" x="274.267947" xlink:href="#md57fb06b47" y="438.358505"/>
     <use style="fill:#75bbfd;stroke:#75bbfd;stroke-linejoin:miter;" x="292.333315" xlink:href="#md57fb06b47" y="436.810684"/>
     <use style="fill:#75bbfd;stroke:#75bbfd;stroke-linejoin:miter;" x="306.219409" xlink:href="#md57fb06b47" y="435.05589"/>
     <use style="fill:#75bbfd;stroke:#75bbfd;stroke-linejoin:miter;" x="317.502064" xlink:href="#md57fb06b47" y="433.094624"/>
     <use style="fill:#75bbfd;stroke:#75bbfd;stroke-linejoin:miter;" x="327.005387" xlink:href="#md57fb06b47" y="431.273708"/>
     <use style="fill:#75bbfd;stroke:#75bbfd;stroke-linejoin:miter;" x="335.215033" xlink:href="#md57fb06b47" y="428.858382"/>
     <use style="fill:#75bbfd;stroke:#75bbfd;stroke-linejoin:miter;" x="342.441455" xlink:href="#md57fb06b47" y="427.088509"/>
     <use style="fill:#75bbfd;stroke:#75bbfd;stroke-linejoin:miter;" x="348.895212" xlink:href="#md57fb06b47" y="424.602722"/>
     <use style="fill:#75bbfd;stroke:#75bbfd;stroke-linejoin:miter;" x="354.725712" xlink:href="#md57fb06b47" y="420.90697"/>
     <use style="fill:#75bbfd;stroke:#75bbfd;stroke-linejoin:miter;" x="360.042816" xlink:href="#md57fb06b47" y="418.188972"/>
     <use style="fill:#75bbfd;stroke:#75bbfd;stroke-linejoin:miter;" x="364.929674" xlink:href="#md57fb06b47" y="417.052233"/>
     <use style="fill:#75bbfd;stroke:#75bbfd;stroke-linejoin:miter;" x="369.450738" xlink:href="#md57fb06b47" y="414.283423"/>
     <use style="fill:#75bbfd;stroke:#75bbfd;stroke-linejoin:miter;" x="373.656981" xlink:href="#md57fb06b47" y="412.1718"/>
     <use style="fill:#75bbfd;stroke:#75bbfd;stroke-linejoin:miter;" x="377.589409" xlink:href="#md57fb06b47" y="410.084146"/>
     <use style="fill:#75bbfd;stroke:#75bbfd;stroke-linejoin:miter;" x="378.533795" xlink:href="#md57fb06b47" y="409.375334"/>
     <use style="fill:#75bbfd;stroke:#75bbfd;stroke-linejoin:miter;" x="420.19133" xlink:href="#md57fb06b47" y="386.1519"/>
     <use style="fill:#75bbfd;stroke:#75bbfd;stroke-linejoin:miter;" x="461.964858" xlink:href="#md57fb06b47" y="371.686836"/>
     <use style="fill:#75bbfd;stroke:#75bbfd;stroke-linejoin:miter;" x="503.796891" xlink:href="#md57fb06b47" y="355.634976"/>
     <use style="fill:#75bbfd;stroke:#75bbfd;stroke-linejoin:miter;" x="545.658304" xlink:href="#md57fb06b47" y="337.217895"/>
     <use style="fill:#75bbfd;stroke:#75bbfd;stroke-linejoin:miter;" x="587.534439" xlink:href="#md57fb06b47" y="367.296747"/>
     <use style="fill:#75bbfd;stroke:#75bbfd;stroke-linejoin:miter;" x="629.417944" xlink:href="#md57fb06b47" y="368.542356"/>
     <use style="fill:#75bbfd;stroke:#75bbfd;stroke-linejoin:miter;" x="641.469135" xlink:href="#md57fb06b47" y="334.1613"/>
     <use style="fill:#75bbfd;stroke:#75bbfd;stroke-linejoin:miter;" x="671.305135" xlink:href="#md57fb06b47" y="382.38321"/>
     <use style="fill:#75bbfd;stroke:#75bbfd;stroke-linejoin:miter;" x="713.19417" xlink:href="#md57fb06b47" y="383.350641"/>
     <use style="fill:#75bbfd;stroke:#75bbfd;stroke-linejoin:miter;" x="755.084127" xlink:href="#md57fb06b47" y="381.951004"/>
     <use style="fill:#75bbfd;stroke:#75bbfd;stroke-linejoin:miter;" x="796.974545" xlink:href="#md57fb06b47" y="432.820582"/>
    </g>
   </g>
   <g id="line2d_16">
    <path clip-path="url(#p0944177873)" d="M 147.665455 441.57015 
L 180.863191 439.535919 
L 201.808631 436.73674 
L 217.244699 432.754614 
L 229.496996 428.077851 
L 239.664474 421.34379 
L 248.357617 419.183468 
L 255.951807 412.13542 
L 262.694732 405.048116 
L 268.758576 393.895429 
L 274.267947 389.042738 
L 292.333315 365.503841 
L 306.219409 337.294947 
L 317.502064 314.161631 
L 327.005387 291.109549 
L 335.215033 275.409551 
L 342.441455 260.447598 
L 348.895212 244.144714 
L 354.725712 233.649462 
L 360.042816 222.488653 
L 364.929674 215.713161 
L 369.450738 198.330633 
L 373.656981 188.445643 
L 377.589409 180.149638 
L 378.533795 182.845794 
L 420.19133 140.262003 
L 461.964858 89.009154 
L 503.796891 94.10865 
L 545.658304 80.2404 
L 587.534439 319.729172 
L 629.417944 335.775716 
L 641.469135 343.276335 
L 671.305135 392.699742 
L 713.19417 389.647341 
L 755.084127 389.642771 
L 796.974545 431.030838 
" style="fill:none;stroke:#7e1e9c;stroke-linecap:square;"/>
    <defs>
     <path d="M 0 0 
L 0 2.5 
M 0 0 
L 2 -1.25 
M 0 0 
L -2 -1.25 
" id="m7f87e79a2d" style="stroke:#7e1e9c;"/>
    </defs>
    <g clip-path="url(#p0944177873)">
     <use style="fill:#7e1e9c;stroke:#7e1e9c;" x="147.665455" xlink:href="#m7f87e79a2d" y="441.57015"/>
     <use style="fill:#7e1e9c;stroke:#7e1e9c;" x="180.863191" xlink:href="#m7f87e79a2d" y="439.535919"/>
     <use style="fill:#7e1e9c;stroke:#7e1e9c;" x="201.808631" xlink:href="#m7f87e79a2d" y="436.73674"/>
     <use style="fill:#7e1e9c;stroke:#7e1e9c;" x="217.244699" xlink:href="#m7f87e79a2d" y="432.754614"/>
     <use style="fill:#7e1e9c;stroke:#7e1e9c;" x="229.496996" xlink:href="#m7f87e79a2d" y="428.077851"/>
     <use style="fill:#7e1e9c;stroke:#7e1e9c;" x="239.664474" xlink:href="#m7f87e79a2d" y="421.34379"/>
     <use style="fill:#7e1e9c;stroke:#7e1e9c;" x="248.357617" xlink:href="#m7f87e79a2d" y="419.183468"/>
     <use style="fill:#7e1e9c;stroke:#7e1e9c;" x="255.951807" xlink:href="#m7f87e79a2d" y="412.13542"/>
     <use style="fill:#7e1e9c;stroke:#7e1e9c;" x="262.694732" xlink:href="#m7f87e79a2d" y="405.048116"/>
     <use style="fill:#7e1e9c;stroke:#7e1e9c;" x="268.758576" xlink:href="#m7f87e79a2d" y="393.895429"/>
     <use style="fill:#7e1e9c;stroke:#7e1e9c;" x="274.267947" xlink:href="#m7f87e79a2d" y="389.042738"/>
     <use style="fill:#7e1e9c;stroke:#7e1e9c;" x="292.333315" xlink:href="#m7f87e79a2d" y="365.503841"/>
     <use style="fill:#7e1e9c;stroke:#7e1e9c;" x="306.219409" xlink:href="#m7f87e79a2d" y="337.294947"/>
     <use style="fill:#7e1e9c;stroke:#7e1e9c;" x="317.502064" xlink:href="#m7f87e79a2d" y="314.161631"/>
     <use style="fill:#7e1e9c;stroke:#7e1e9c;" x="327.005387" xlink:href="#m7f87e79a2d" y="291.109549"/>
     <use style="fill:#7e1e9c;stroke:#7e1e9c;" x="335.215033" xlink:href="#m7f87e79a2d" y="275.409551"/>
     <use style="fill:#7e1e9c;stroke:#7e1e9c;" x="342.441455" xlink:href="#m7f87e79a2d" y="260.447598"/>
     <use style="fill:#7e1e9c;stroke:#7e1e9c;" x="348.895212" xlink:href="#m7f87e79a2d" y="244.144714"/>
     <use style="fill:#7e1e9c;stroke:#7e1e9c;" x="354.725712" xlink:href="#m7f87e79a2d" y="233.649462"/>
     <use style="fill:#7e1e9c;stroke:#7e1e9c;" x="360.042816" xlink:href="#m7f87e79a2d" y="222.488653"/>
     <use style="fill:#7e1e9c;stroke:#7e1e9c;" x="364.929674" xlink:href="#m7f87e79a2d" y="215.713161"/>
     <use style="fill:#7e1e9c;stroke:#7e1e9c;" x="369.450738" xlink:href="#m7f87e79a2d" y="198.330633"/>
     <use style="fill:#7e1e9c;stroke:#7e1e9c;" x="373.656981" xlink:href="#m7f87e79a2d" y="188.445643"/>
     <use style="fill:#7e1e9c;stroke:#7e1e9c;" x="377.589409" xlink:href="#m7f87e79a2d" y="180.149638"/>
     <use style="fill:#7e1e9c;stroke:#7e1e9c;" x="378.533795" xlink:href="#m7f87e79a2d" y="182.845794"/>
     <use style="fill:#7e1e9c;stroke:#7e1e9c;" x="420.19133" xlink:href="#m7f87e79a2d" y="140.262003"/>
     <use style="fill:#7e1e9c;stroke:#7e1e9c;" x="461.964858" xlink:href="#m7f87e79a2d" y="89.009154"/>
     <use style="fill:#7e1e9c;stroke:#7e1e9c;" x="503.796891" xlink:href="#m7f87e79a2d" y="94.10865"/>
     <use style="fill:#7e1e9c;stroke:#7e1e9c;" x="545.658304" xlink:href="#m7f87e79a2d" y="80.2404"/>
     <use style="fill:#7e1e9c;stroke:#7e1e9c;" x="587.534439" xlink:href="#m7f87e79a2d" y="319.729172"/>
     <use style="fill:#7e1e9c;stroke:#7e1e9c;" x="629.417944" xlink:href="#m7f87e79a2d" y="335.775716"/>
     <use style="fill:#7e1e9c;stroke:#7e1e9c;" x="641.469135" xlink:href="#m7f87e79a2d" y="343.276335"/>
     <use style="fill:#7e1e9c;stroke:#7e1e9c;" x="671.305135" xlink:href="#m7f87e79a2d" y="392.699742"/>
     <use style="fill:#7e1e9c;stroke:#7e1e9c;" x="713.19417" xlink:href="#m7f87e79a2d" y="389.647341"/>
     <use style="fill:#7e1e9c;stroke:#7e1e9c;" x="755.084127" xlink:href="#m7f87e79a2d" y="389.642771"/>
     <use style="fill:#7e1e9c;stroke:#7e1e9c;" x="796.974545" xlink:href="#m7f87e79a2d" y="431.030838"/>
    </g>
   </g>
   <g id="line2d_17">
    <path clip-path="url(#p0944177873)" d="M 378.533795 460.7352 
L 378.533795 62.1216 
" style="fill:none;stroke:#ff0000;stroke-linecap:square;stroke-opacity:0.5;stroke-width:3;"/>
   </g>
   <g id="patch_3">
    <path d="M 115.2 460.7352 
L 115.2 62.1216 
" style="fill:none;stroke:#000000;stroke-linecap:square;stroke-linejoin:miter;stroke-width:0.8;"/>
   </g>
   <g id="patch_4">
    <path d="M 829.44 460.7352 
L 829.44 62.1216 
" style="fill:none;stroke:#000000;stroke-linecap:square;stroke-linejoin:miter;stroke-width:0.8;"/>
   </g>
   <g id="patch_5">
    <path d="M 115.2 460.7352 
L 829.44 460.7352 
" style="fill:none;stroke:#000000;stroke-linecap:square;stroke-linejoin:miter;stroke-width:0.8;"/>
   </g>
   <g id="patch_6">
    <path d="M 115.2 62.1216 
L 829.44 62.1216 
" style="fill:none;stroke:#000000;stroke-linecap:square;stroke-linejoin:miter;stroke-width:0.8;"/>
   </g>
   <g id="text_14">
    <!-- $\bf{Total}$ throughput for $\bf{generate+iterate}$ -->
    <defs>
     <path d="M 0.484375 72.90625 
L 67.671875 72.90625 
L 67.671875 58.6875 
L 43.5 58.6875 
L 43.5 0 
L 24.703125 0 
L 24.703125 58.6875 
L 0.484375 58.6875 
z
" id="DejaVuSans-Bold-84"/>
     <path d="M 34.421875 43.5 
Q 28.609375 43.5 25.5625 39.328125 
Q 22.515625 35.15625 22.515625 27.296875 
Q 22.515625 19.4375 25.5625 15.25 
Q 28.609375 11.078125 34.421875 11.078125 
Q 40.140625 11.078125 43.15625 15.25 
Q 46.1875 19.4375 46.1875 27.296875 
Q 46.1875 35.15625 43.15625 39.328125 
Q 40.140625 43.5 34.421875 43.5 
z
M 34.421875 56 
Q 48.53125 56 56.46875 48.375 
Q 64.40625 40.765625 64.40625 27.296875 
Q 64.40625 13.8125 56.46875 6.1875 
Q 48.53125 -1.421875 34.421875 -1.421875 
Q 20.265625 -1.421875 12.28125 6.1875 
Q 4.296875 13.8125 4.296875 27.296875 
Q 4.296875 40.765625 12.28125 48.375 
Q 20.265625 56 34.421875 56 
z
" id="DejaVuSans-Bold-111"/>
     <path d="M 27.484375 70.21875 
L 27.484375 54.6875 
L 45.515625 54.6875 
L 45.515625 42.1875 
L 27.484375 42.1875 
L 27.484375 19 
Q 27.484375 15.1875 29 13.84375 
Q 30.515625 12.5 35.015625 12.5 
L 44 12.5 
L 44 0 
L 29 0 
Q 18.65625 0 14.328125 4.3125 
Q 10.015625 8.640625 10.015625 19 
L 10.015625 42.1875 
L 1.3125 42.1875 
L 1.3125 54.6875 
L 10.015625 54.6875 
L 10.015625 70.21875 
z
" id="DejaVuSans-Bold-116"/>
     <path d="M 32.90625 24.609375 
Q 27.4375 24.609375 24.671875 22.75 
Q 21.921875 20.90625 21.921875 17.28125 
Q 21.921875 13.96875 24.140625 12.078125 
Q 26.375 10.203125 30.328125 10.203125 
Q 35.25 10.203125 38.625 13.734375 
Q 42 17.28125 42 22.609375 
L 42 24.609375 
z
M 59.625 31.203125 
L 59.625 0 
L 42 0 
L 42 8.109375 
Q 38.484375 3.125 34.078125 0.84375 
Q 29.6875 -1.421875 23.390625 -1.421875 
Q 14.890625 -1.421875 9.59375 3.53125 
Q 4.296875 8.5 4.296875 16.40625 
Q 4.296875 26.03125 10.90625 30.515625 
Q 17.53125 35.015625 31.6875 35.015625 
L 42 35.015625 
L 42 36.375 
Q 42 40.53125 38.71875 42.453125 
Q 35.453125 44.390625 28.515625 44.390625 
Q 22.90625 44.390625 18.0625 43.265625 
Q 13.234375 42.140625 9.078125 39.890625 
L 9.078125 53.21875 
Q 14.703125 54.59375 20.359375 55.296875 
Q 26.03125 56 31.6875 56 
Q 46.484375 56 53.046875 50.171875 
Q 59.625 44.34375 59.625 31.203125 
z
" id="DejaVuSans-Bold-97"/>
     <path d="M 8.40625 75.984375 
L 25.875 75.984375 
L 25.875 0 
L 8.40625 0 
z
" id="DejaVuSans-Bold-108"/>
     <path d="M 54.890625 33.015625 
L 54.890625 0 
L 45.90625 0 
L 45.90625 32.71875 
Q 45.90625 40.484375 42.875 44.328125 
Q 39.84375 48.1875 33.796875 48.1875 
Q 26.515625 48.1875 22.3125 43.546875 
Q 18.109375 38.921875 18.109375 30.90625 
L 18.109375 0 
L 9.078125 0 
L 9.078125 75.984375 
L 18.109375 75.984375 
L 18.109375 46.1875 
Q 21.34375 51.125 25.703125 53.5625 
Q 30.078125 56 35.796875 56 
Q 45.21875 56 50.046875 50.171875 
Q 54.890625 44.34375 54.890625 33.015625 
z
" id="DejaVuSans-104"/>
     <path d="M 45.609375 9.28125 
Q 42 4.5 37.640625 2.25 
Q 33.296875 0 27.59375 0 
Q 17.578125 0 11.03125 7.875 
Q 4.5 15.765625 4.5 27.984375 
Q 4.5 40.234375 11.03125 48.0625 
Q 17.578125 55.90625 27.59375 55.90625 
Q 33.296875 55.90625 37.640625 53.65625 
Q 42 51.421875 45.609375 46.578125 
L 45.609375 54.6875 
L 63.1875 54.6875 
L 63.1875 5.515625 
Q 63.1875 -7.671875 54.859375 -14.625 
Q 46.53125 -21.578125 30.71875 -21.578125 
Q 25.59375 -21.578125 20.796875 -20.796875 
Q 16.015625 -20.015625 11.1875 -18.40625 
L 11.1875 -4.78125 
Q 15.765625 -7.421875 20.15625 -8.71875 
Q 24.5625 -10.015625 29 -10.015625 
Q 37.59375 -10.015625 41.59375 -6.25 
Q 45.609375 -2.484375 45.609375 5.515625 
z
M 34.078125 43.3125 
Q 28.65625 43.3125 25.625 39.296875 
Q 22.609375 35.296875 22.609375 27.984375 
Q 22.609375 20.453125 25.53125 16.578125 
Q 28.46875 12.703125 34.078125 12.703125 
Q 39.546875 12.703125 42.578125 16.703125 
Q 45.609375 20.703125 45.609375 27.984375 
Q 45.609375 35.296875 42.578125 39.296875 
Q 39.546875 43.3125 34.078125 43.3125 
z
" id="DejaVuSans-Bold-103"/>
     <path d="M 62.984375 27.484375 
L 62.984375 22.515625 
L 22.125 22.515625 
Q 22.75 16.359375 26.5625 13.28125 
Q 30.375 10.203125 37.203125 10.203125 
Q 42.71875 10.203125 48.5 11.84375 
Q 54.296875 13.484375 60.40625 16.796875 
L 60.40625 3.328125 
Q 54.203125 0.984375 48 -0.21875 
Q 41.796875 -1.421875 35.59375 -1.421875 
Q 20.75 -1.421875 12.515625 6.125 
Q 4.296875 13.671875 4.296875 27.296875 
Q 4.296875 40.671875 12.375 48.328125 
Q 20.453125 56 34.625 56 
Q 47.515625 56 55.25 48.234375 
Q 62.984375 40.484375 62.984375 27.484375 
z
M 45.015625 33.296875 
Q 45.015625 38.28125 42.109375 41.328125 
Q 39.203125 44.390625 34.515625 44.390625 
Q 29.4375 44.390625 26.265625 41.53125 
Q 23.09375 38.671875 22.3125 33.296875 
z
" id="DejaVuSans-Bold-101"/>
     <path d="M 63.375 33.296875 
L 63.375 0 
L 45.796875 0 
L 45.796875 5.421875 
L 45.796875 25.484375 
Q 45.796875 32.5625 45.484375 35.25 
Q 45.171875 37.9375 44.390625 39.203125 
Q 43.359375 40.921875 41.59375 41.875 
Q 39.84375 42.828125 37.59375 42.828125 
Q 32.125 42.828125 29 38.59375 
Q 25.875 34.375 25.875 26.90625 
L 25.875 0 
L 8.40625 0 
L 8.40625 54.6875 
L 25.875 54.6875 
L 25.875 46.6875 
Q 29.828125 51.46875 34.265625 53.734375 
Q 38.71875 56 44.09375 56 
Q 53.5625 56 58.46875 50.1875 
Q 63.375 44.390625 63.375 33.296875 
z
" id="DejaVuSans-Bold-110"/>
     <path d="M 49.03125 39.796875 
Q 46.734375 40.875 44.453125 41.375 
Q 42.1875 41.890625 39.890625 41.890625 
Q 33.15625 41.890625 29.515625 37.5625 
Q 25.875 33.25 25.875 25.203125 
L 25.875 0 
L 8.40625 0 
L 8.40625 54.6875 
L 25.875 54.6875 
L 25.875 45.703125 
Q 29.25 51.078125 33.609375 53.53125 
Q 37.984375 56 44.09375 56 
Q 44.96875 56 45.984375 55.921875 
Q 47.015625 55.859375 48.96875 55.609375 
z
" id="DejaVuSans-Bold-114"/>
     <path d="M 47.703125 62.703125 
L 47.703125 37.109375 
L 73.1875 37.109375 
L 73.1875 25.59375 
L 47.703125 25.59375 
L 47.703125 0 
L 36.078125 0 
L 36.078125 25.59375 
L 10.59375 25.59375 
L 10.59375 37.109375 
L 36.078125 37.109375 
L 36.078125 62.703125 
z
" id="DejaVuSans-Bold-43"/>
     <path d="M 8.40625 54.6875 
L 25.875 54.6875 
L 25.875 0 
L 8.40625 0 
z
M 8.40625 75.984375 
L 25.875 75.984375 
L 25.875 61.71875 
L 8.40625 61.71875 
z
" id="DejaVuSans-Bold-105"/>
    </defs>
    <g transform="translate(346.32 42.53985)scale(0.12 -0.12)">
     <use transform="translate(0 0.015625)" xlink:href="#DejaVuSans-Bold-84"/>
     <use transform="translate(68.212891 0.015625)" xlink:href="#DejaVuSans-Bold-111"/>
     <use transform="translate(136.914062 0.015625)" xlink:href="#DejaVuSans-Bold-116"/>
     <use transform="translate(184.716797 0.015625)" xlink:href="#DejaVuSans-Bold-97"/>
     <use transform="translate(252.197266 0.015625)" xlink:href="#DejaVuSans-Bold-108"/>
     <use transform="translate(286.474609 0.015625)" xlink:href="#DejaVuSans-32"/>
     <use transform="translate(318.261719 0.015625)" xlink:href="#DejaVuSans-116"/>
     <use transform="translate(357.470703 0.015625)" xlink:href="#DejaVuSans-104"/>
     <use transform="translate(420.849609 0.015625)" xlink:href="#DejaVuSans-114"/>
     <use transform="translate(461.962891 0.015625)" xlink:href="#DejaVuSans-111"/>
     <use transform="translate(523.144531 0.015625)" xlink:href="#DejaVuSans-117"/>
     <use transform="translate(586.523438 0.015625)" xlink:href="#DejaVuSans-103"/>
     <use transform="translate(650 0.015625)" xlink:href="#DejaVuSans-104"/>
     <use transform="translate(713.378906 0.015625)" xlink:href="#DejaVuSans-112"/>
     <use transform="translate(776.855469 0.015625)" xlink:href="#DejaVuSans-117"/>
     <use transform="translate(840.234375 0.015625)" xlink:href="#DejaVuSans-116"/>
     <use transform="translate(879.443359 0.015625)" xlink:href="#DejaVuSans-32"/>
     <use transform="translate(911.230469 0.015625)" xlink:href="#DejaVuSans-102"/>
     <use transform="translate(946.435547 0.015625)" xlink:href="#DejaVuSans-111"/>
     <use transform="translate(1007.617188 0.015625)" xlink:href="#DejaVuSans-114"/>
     <use transform="translate(1048.730469 0.015625)" xlink:href="#DejaVuSans-32"/>
     <use transform="translate(1080.517578 0.015625)" xlink:href="#DejaVuSans-Bold-103"/>
     <use transform="translate(1152.099609 0.015625)" xlink:href="#DejaVuSans-Bold-101"/>
     <use transform="translate(1219.921875 0.015625)" xlink:href="#DejaVuSans-Bold-110"/>
     <use transform="translate(1291.113281 0.015625)" xlink:href="#DejaVuSans-Bold-101"/>
     <use transform="translate(1358.935547 0.015625)" xlink:href="#DejaVuSans-Bold-114"/>
     <use transform="translate(1408.251953 0.015625)" xlink:href="#DejaVuSans-Bold-97"/>
     <use transform="translate(1475.732422 0.015625)" xlink:href="#DejaVuSans-Bold-116"/>
     <use transform="translate(1523.535156 0.015625)" xlink:href="#DejaVuSans-Bold-101"/>
     <use transform="translate(1612.197266 0.015625)" xlink:href="#DejaVuSans-Bold-43"/>
     <use transform="translate(1716.826172 0.015625)" xlink:href="#DejaVuSans-Bold-105"/>
     <use transform="translate(1751.103516 0.015625)" xlink:href="#DejaVuSans-Bold-116"/>
     <use transform="translate(1798.90625 0.015625)" xlink:href="#DejaVuSans-Bold-101"/>
     <use transform="translate(1866.728516 0.015625)" xlink:href="#DejaVuSans-Bold-114"/>
     <use transform="translate(1916.044922 0.015625)" xlink:href="#DejaVuSans-Bold-97"/>
     <use transform="translate(1983.525391 0.015625)" xlink:href="#DejaVuSans-Bold-116"/>
     <use transform="translate(2031.328125 0.015625)" xlink:href="#DejaVuSans-Bold-101"/>
    </g>
    <!-- Higher is better -->
    <defs>
     <path d="M 9.8125 72.90625 
L 19.671875 72.90625 
L 19.671875 43.015625 
L 55.515625 43.015625 
L 55.515625 72.90625 
L 65.375 72.90625 
L 65.375 0 
L 55.515625 0 
L 55.515625 34.71875 
L 19.671875 34.71875 
L 19.671875 0 
L 9.8125 0 
z
" id="DejaVuSans-72"/>
    </defs>
    <g transform="translate(425.400937 56.1216)scale(0.12 -0.12)">
     <use xlink:href="#DejaVuSans-72"/>
     <use x="75.195312" xlink:href="#DejaVuSans-105"/>
     <use x="102.978516" xlink:href="#DejaVuSans-103"/>
     <use x="166.455078" xlink:href="#DejaVuSans-104"/>
     <use x="229.833984" xlink:href="#DejaVuSans-101"/>
     <use x="291.357422" xlink:href="#DejaVuSans-114"/>
     <use x="332.470703" xlink:href="#DejaVuSans-32"/>
     <use x="364.257812" xlink:href="#DejaVuSans-105"/>
     <use x="392.041016" xlink:href="#DejaVuSans-115"/>
     <use x="444.140625" xlink:href="#DejaVuSans-32"/>
     <use x="475.927734" xlink:href="#DejaVuSans-98"/>
     <use x="539.404297" xlink:href="#DejaVuSans-101"/>
     <use x="600.927734" xlink:href="#DejaVuSans-116"/>
     <use x="640.136719" xlink:href="#DejaVuSans-116"/>
     <use x="679.345703" xlink:href="#DejaVuSans-101"/>
     <use x="740.869141" xlink:href="#DejaVuSans-114"/>
    </g>
   </g>
   <g id="legend_1">
    <g id="patch_7">
     <path d="M 642.541563 159.30285 
L 822.44 159.30285 
Q 824.44 159.30285 824.44 157.30285 
L 824.44 69.1216 
Q 824.44 67.1216 822.44 67.1216 
L 642.541563 67.1216 
Q 640.541563 67.1216 640.541563 69.1216 
L 640.541563 157.30285 
Q 640.541563 159.30285 642.541563 159.30285 
z
" style="fill:#ffffff;opacity:0.8;stroke:#cccccc;stroke-linejoin:miter;"/>
    </g>
    <g id="line2d_18">
     <path d="M 644.541563 75.220037 
L 664.541563 75.220037 
" style="fill:none;stroke:#000000;stroke-linecap:square;"/>
    </g>
    <g id="line2d_19">
     <g>
      <use style="stroke:#000000;" x="654.541563" xlink:href="#madb821728e" y="75.220037"/>
     </g>
    </g>
    <g id="text_15">
     <!-- Baseline -->
     <defs>
      <path d="M 19.671875 34.8125 
L 19.671875 8.109375 
L 35.5 8.109375 
Q 43.453125 8.109375 47.28125 11.40625 
Q 51.125 14.703125 51.125 21.484375 
Q 51.125 28.328125 47.28125 31.5625 
Q 43.453125 34.8125 35.5 34.8125 
z
M 19.671875 64.796875 
L 19.671875 42.828125 
L 34.28125 42.828125 
Q 41.5 42.828125 45.03125 45.53125 
Q 48.578125 48.25 48.578125 53.8125 
Q 48.578125 59.328125 45.03125 62.0625 
Q 41.5 64.796875 34.28125 64.796875 
z
M 9.8125 72.90625 
L 35.015625 72.90625 
Q 46.296875 72.90625 52.390625 68.21875 
Q 58.5 63.53125 58.5 54.890625 
Q 58.5 48.1875 55.375 44.234375 
Q 52.25 40.28125 46.1875 39.3125 
Q 53.46875 37.75 57.5 32.78125 
Q 61.53125 27.828125 61.53125 20.40625 
Q 61.53125 10.640625 54.890625 5.3125 
Q 48.25 0 35.984375 0 
L 9.8125 0 
z
" id="DejaVuSans-66"/>
     </defs>
     <g transform="translate(672.541563 78.720037)scale(0.1 -0.1)">
      <use xlink:href="#DejaVuSans-66"/>
      <use x="68.603516" xlink:href="#DejaVuSans-97"/>
      <use x="129.882812" xlink:href="#DejaVuSans-115"/>
      <use x="181.982422" xlink:href="#DejaVuSans-101"/>
      <use x="243.505859" xlink:href="#DejaVuSans-108"/>
      <use x="271.289062" xlink:href="#DejaVuSans-105"/>
      <use x="299.072266" xlink:href="#DejaVuSans-110"/>
      <use x="362.451172" xlink:href="#DejaVuSans-101"/>
     </g>
    </g>
    <g id="line2d_20">
     <path d="M 644.541563 89.898163 
L 664.541563 89.898163 
" style="fill:none;stroke:#0652ff;stroke-linecap:square;"/>
    </g>
    <g id="line2d_21">
     <g>
      <use style="fill:#0652ff;stroke:#0652ff;" x="654.541563" xlink:href="#mc911aed3f2" y="89.898163"/>
     </g>
    </g>
    <g id="text_16">
     <!-- Pixelf -->
     <defs>
      <path d="M 19.671875 64.796875 
L 19.671875 37.40625 
L 32.078125 37.40625 
Q 38.96875 37.40625 42.71875 40.96875 
Q 46.484375 44.53125 46.484375 51.125 
Q 46.484375 57.671875 42.71875 61.234375 
Q 38.96875 64.796875 32.078125 64.796875 
z
M 9.8125 72.90625 
L 32.078125 72.90625 
Q 44.34375 72.90625 50.609375 67.359375 
Q 56.890625 61.8125 56.890625 51.125 
Q 56.890625 40.328125 50.609375 34.8125 
Q 44.34375 29.296875 32.078125 29.296875 
L 19.671875 29.296875 
L 19.671875 0 
L 9.8125 0 
z
" id="DejaVuSans-80"/>
      <path d="M 54.890625 54.6875 
L 35.109375 28.078125 
L 55.90625 0 
L 45.3125 0 
L 29.390625 21.484375 
L 13.484375 0 
L 2.875 0 
L 24.125 28.609375 
L 4.6875 54.6875 
L 15.28125 54.6875 
L 29.78125 35.203125 
L 44.28125 54.6875 
z
" id="DejaVuSans-120"/>
     </defs>
     <g transform="translate(672.541563 93.398163)scale(0.1 -0.1)">
      <use xlink:href="#DejaVuSans-80"/>
      <use x="60.271484" xlink:href="#DejaVuSans-105"/>
      <use x="88.054688" xlink:href="#DejaVuSans-120"/>
      <use x="147.1875" xlink:href="#DejaVuSans-101"/>
      <use x="208.710938" xlink:href="#DejaVuSans-108"/>
      <use x="236.494141" xlink:href="#DejaVuSans-102"/>
     </g>
    </g>
    <g id="line2d_22">
     <path d="M 644.541563 104.576287 
L 664.541563 104.576287 
" style="fill:none;stroke:#0cff0c;stroke-linecap:square;"/>
    </g>
    <g id="line2d_23">
     <g>
      <use style="fill:#0cff0c;stroke:#0cff0c;" x="654.541563" xlink:href="#m7ce0822082" y="104.576287"/>
     </g>
    </g>
    <g id="text_17">
     <!-- Pixelf_TBB_arh -->
     <defs>
      <path d="M 50.984375 -16.609375 
L 50.984375 -23.578125 
L -0.984375 -23.578125 
L -0.984375 -16.609375 
z
" id="DejaVuSans-95"/>
      <path d="M -0.296875 72.90625 
L 61.375 72.90625 
L 61.375 64.59375 
L 35.5 64.59375 
L 35.5 0 
L 25.59375 0 
L 25.59375 64.59375 
L -0.296875 64.59375 
z
" id="DejaVuSans-84"/>
     </defs>
     <g transform="translate(672.541563 108.076287)scale(0.1 -0.1)">
      <use xlink:href="#DejaVuSans-80"/>
      <use x="60.271484" xlink:href="#DejaVuSans-105"/>
      <use x="88.054688" xlink:href="#DejaVuSans-120"/>
      <use x="147.1875" xlink:href="#DejaVuSans-101"/>
      <use x="208.710938" xlink:href="#DejaVuSans-108"/>
      <use x="236.494141" xlink:href="#DejaVuSans-102"/>
      <use x="271.699219" xlink:href="#DejaVuSans-95"/>
      <use x="321.699219" xlink:href="#DejaVuSans-84"/>
      <use x="382.783203" xlink:href="#DejaVuSans-66"/>
      <use x="451.386719" xlink:href="#DejaVuSans-66"/>
      <use x="519.990234" xlink:href="#DejaVuSans-95"/>
      <use x="569.990234" xlink:href="#DejaVuSans-97"/>
      <use x="631.269531" xlink:href="#DejaVuSans-114"/>
      <use x="672.367188" xlink:href="#DejaVuSans-104"/>
     </g>
    </g>
    <g id="line2d_24">
     <path d="M 644.541563 119.532537 
L 664.541563 119.532537 
" style="fill:none;stroke:#e50000;stroke-linecap:square;"/>
    </g>
    <g id="line2d_25">
     <g>
      <use style="fill:#e50000;stroke:#e50000;stroke-linejoin:miter;" x="654.541563" xlink:href="#mcae4eda54d" y="119.532537"/>
     </g>
    </g>
    <g id="text_18">
     <!-- Pixelf_TBB_scalable_alloc_arh -->
     <g transform="translate(672.541563 123.032537)scale(0.1 -0.1)">
      <use xlink:href="#DejaVuSans-80"/>
      <use x="60.271484" xlink:href="#DejaVuSans-105"/>
      <use x="88.054688" xlink:href="#DejaVuSans-120"/>
      <use x="147.1875" xlink:href="#DejaVuSans-101"/>
      <use x="208.710938" xlink:href="#DejaVuSans-108"/>
      <use x="236.494141" xlink:href="#DejaVuSans-102"/>
      <use x="271.699219" xlink:href="#DejaVuSans-95"/>
      <use x="321.699219" xlink:href="#DejaVuSans-84"/>
      <use x="382.783203" xlink:href="#DejaVuSans-66"/>
      <use x="451.386719" xlink:href="#DejaVuSans-66"/>
      <use x="519.990234" xlink:href="#DejaVuSans-95"/>
      <use x="569.990234" xlink:href="#DejaVuSans-115"/>
      <use x="622.089844" xlink:href="#DejaVuSans-99"/>
      <use x="677.070312" xlink:href="#DejaVuSans-97"/>
      <use x="738.349609" xlink:href="#DejaVuSans-108"/>
      <use x="766.132812" xlink:href="#DejaVuSans-97"/>
      <use x="827.412109" xlink:href="#DejaVuSans-98"/>
      <use x="890.888672" xlink:href="#DejaVuSans-108"/>
      <use x="918.671875" xlink:href="#DejaVuSans-101"/>
      <use x="980.195312" xlink:href="#DejaVuSans-95"/>
      <use x="1030.195312" xlink:href="#DejaVuSans-97"/>
      <use x="1091.474609" xlink:href="#DejaVuSans-108"/>
      <use x="1119.257812" xlink:href="#DejaVuSans-108"/>
      <use x="1147.041016" xlink:href="#DejaVuSans-111"/>
      <use x="1208.222656" xlink:href="#DejaVuSans-99"/>
      <use x="1263.203125" xlink:href="#DejaVuSans-95"/>
      <use x="1313.203125" xlink:href="#DejaVuSans-97"/>
      <use x="1374.482422" xlink:href="#DejaVuSans-114"/>
      <use x="1415.580078" xlink:href="#DejaVuSans-104"/>
     </g>
    </g>
    <g id="line2d_26">
     <path d="M 644.541563 134.488788 
L 664.541563 134.488788 
" style="fill:none;stroke:#75bbfd;stroke-linecap:square;"/>
    </g>
    <g id="line2d_27">
     <g>
      <use style="fill:#75bbfd;stroke:#75bbfd;stroke-linejoin:miter;" x="654.541563" xlink:href="#md57fb06b47" y="134.488788"/>
     </g>
    </g>
    <g id="text_19">
     <!-- Pixelf_TBB_spans_arh -->
     <g transform="translate(672.541563 137.988788)scale(0.1 -0.1)">
      <use xlink:href="#DejaVuSans-80"/>
      <use x="60.271484" xlink:href="#DejaVuSans-105"/>
      <use x="88.054688" xlink:href="#DejaVuSans-120"/>
      <use x="147.1875" xlink:href="#DejaVuSans-101"/>
      <use x="208.710938" xlink:href="#DejaVuSans-108"/>
      <use x="236.494141" xlink:href="#DejaVuSans-102"/>
      <use x="271.699219" xlink:href="#DejaVuSans-95"/>
      <use x="321.699219" xlink:href="#DejaVuSans-84"/>
      <use x="382.783203" xlink:href="#DejaVuSans-66"/>
      <use x="451.386719" xlink:href="#DejaVuSans-66"/>
      <use x="519.990234" xlink:href="#DejaVuSans-95"/>
      <use x="569.990234" xlink:href="#DejaVuSans-115"/>
      <use x="622.089844" xlink:href="#DejaVuSans-112"/>
      <use x="685.566406" xlink:href="#DejaVuSans-97"/>
      <use x="746.845703" xlink:href="#DejaVuSans-110"/>
      <use x="810.224609" xlink:href="#DejaVuSans-115"/>
      <use x="862.324219" xlink:href="#DejaVuSans-95"/>
      <use x="912.324219" xlink:href="#DejaVuSans-97"/>
      <use x="973.603516" xlink:href="#DejaVuSans-114"/>
      <use x="1014.701172" xlink:href="#DejaVuSans-104"/>
     </g>
    </g>
    <g id="line2d_28">
     <path d="M 644.541563 149.445038 
L 664.541563 149.445038 
" style="fill:none;stroke:#7e1e9c;stroke-linecap:square;"/>
    </g>
    <g id="line2d_29">
     <g>
      <use style="fill:#7e1e9c;stroke:#7e1e9c;" x="654.541563" xlink:href="#m7f87e79a2d" y="149.445038"/>
     </g>
    </g>
    <g id="text_20">
     <!-- FlyingDesitter_arh -->
     <defs>
      <path d="M 9.8125 72.90625 
L 51.703125 72.90625 
L 51.703125 64.59375 
L 19.671875 64.59375 
L 19.671875 43.109375 
L 48.578125 43.109375 
L 48.578125 34.8125 
L 19.671875 34.8125 
L 19.671875 0 
L 9.8125 0 
z
" id="DejaVuSans-70"/>
      <path d="M 32.171875 -5.078125 
Q 28.375 -14.84375 24.75 -17.8125 
Q 21.140625 -20.796875 15.09375 -20.796875 
L 7.90625 -20.796875 
L 7.90625 -13.28125 
L 13.1875 -13.28125 
Q 16.890625 -13.28125 18.9375 -11.515625 
Q 21 -9.765625 23.484375 -3.21875 
L 25.09375 0.875 
L 2.984375 54.6875 
L 12.5 54.6875 
L 29.59375 11.921875 
L 46.6875 54.6875 
L 56.203125 54.6875 
z
" id="DejaVuSans-121"/>
      <path d="M 19.671875 64.796875 
L 19.671875 8.109375 
L 31.59375 8.109375 
Q 46.6875 8.109375 53.6875 14.9375 
Q 60.6875 21.78125 60.6875 36.53125 
Q 60.6875 51.171875 53.6875 57.984375 
Q 46.6875 64.796875 31.59375 64.796875 
z
M 9.8125 72.90625 
L 30.078125 72.90625 
Q 51.265625 72.90625 61.171875 64.09375 
Q 71.09375 55.28125 71.09375 36.53125 
Q 71.09375 17.671875 61.125 8.828125 
Q 51.171875 0 30.078125 0 
L 9.8125 0 
z
" id="DejaVuSans-68"/>
     </defs>
     <g transform="translate(672.541563 152.945038)scale(0.1 -0.1)">
      <use xlink:href="#DejaVuSans-70"/>
      <use x="57.519531" xlink:href="#DejaVuSans-108"/>
      <use x="85.302734" xlink:href="#DejaVuSans-121"/>
      <use x="144.482422" xlink:href="#DejaVuSans-105"/>
      <use x="172.265625" xlink:href="#DejaVuSans-110"/>
      <use x="235.644531" xlink:href="#DejaVuSans-103"/>
      <use x="299.121094" xlink:href="#DejaVuSans-68"/>
      <use x="376.123047" xlink:href="#DejaVuSans-101"/>
      <use x="437.646484" xlink:href="#DejaVuSans-115"/>
      <use x="489.746094" xlink:href="#DejaVuSans-105"/>
      <use x="517.529297" xlink:href="#DejaVuSans-116"/>
      <use x="556.738281" xlink:href="#DejaVuSans-116"/>
      <use x="595.947266" xlink:href="#DejaVuSans-101"/>
      <use x="657.470703" xlink:href="#DejaVuSans-114"/>
      <use x="698.583984" xlink:href="#DejaVuSans-95"/>
      <use x="748.583984" xlink:href="#DejaVuSans-97"/>
      <use x="809.863281" xlink:href="#DejaVuSans-114"/>
      <use x="850.960938" xlink:href="#DejaVuSans-104"/>
     </g>
    </g>
   </g>
  </g>
 </g>
 <defs>
  <clipPath id="p0944177873">
   <rect height="398.6136" width="714.24" x="115.2" y="62.1216"/>
  </clipPath>
 </defs>
</svg>
