<?xml version="1.0" encoding="utf-8" standalone="no"?>
<!DOCTYPE svg PUBLIC "-//W3C//DTD SVG 1.1//EN"
  "http://www.w3.org/Graphics/SVG/1.1/DTD/svg11.dtd">
<!-- Created with matplotlib (https://matplotlib.org/) -->
<svg version="1.1" viewBox="0 0 921.6 517.68" xmlns="http://www.w3.org/2000/svg" xmlns:xlink="http://www.w3.org/1999/xlink">
 <defs>
  <style type="text/css">
*{stroke-linecap:butt;stroke-linejoin:round;}
  </style>
 </defs>
 <g id="figure_1">
  <g id="patch_1">
   <path d="M 0 517.68 
L 921.6 517.68 
L 921.6 0 
L 0 0 
z
" style="fill:#ffffff;"/>
  </g>
  <g id="axes_1">
   <g id="patch_2">
    <path d="M 115.2 460.7352 
L 829.44 460.7352 
L 829.44 62.1216 
L 115.2 62.1216 
z
" style="fill:#ffffff;"/>
   </g>
   <g id="matplotlib.axis_1">
    <g id="xtick_1">
     <g id="line2d_1">
      <defs>
       <path d="M 0 0 
L 0 3.5 
" id="me7d4b9af21" style="stroke:#000000;stroke-width:0.8;"/>
      </defs>
      <g>
       <use style="stroke:#000000;stroke-width:0.8;" x="217.244699" xlink:href="#me7d4b9af21" y="460.7352"/>
      </g>
     </g>
     <g id="text_1">
      <!-- $\mathdefault{10^{1}}$ -->
      <defs>
       <path d="M 12.40625 8.296875 
L 28.515625 8.296875 
L 28.515625 63.921875 
L 10.984375 60.40625 
L 10.984375 69.390625 
L 28.421875 72.90625 
L 38.28125 72.90625 
L 38.28125 8.296875 
L 54.390625 8.296875 
L 54.390625 0 
L 12.40625 0 
z
" id="DejaVuSans-49"/>
       <path d="M 31.78125 66.40625 
Q 24.171875 66.40625 20.328125 58.90625 
Q 16.5 51.421875 16.5 36.375 
Q 16.5 21.390625 20.328125 13.890625 
Q 24.171875 6.390625 31.78125 6.390625 
Q 39.453125 6.390625 43.28125 13.890625 
Q 47.125 21.390625 47.125 36.375 
Q 47.125 51.421875 43.28125 58.90625 
Q 39.453125 66.40625 31.78125 66.40625 
z
M 31.78125 74.21875 
Q 44.046875 74.21875 50.515625 64.515625 
Q 56.984375 54.828125 56.984375 36.375 
Q 56.984375 17.96875 50.515625 8.265625 
Q 44.046875 -1.421875 31.78125 -1.421875 
Q 19.53125 -1.421875 13.0625 8.265625 
Q 6.59375 17.96875 6.59375 36.375 
Q 6.59375 54.828125 13.0625 64.515625 
Q 19.53125 74.21875 31.78125 74.21875 
z
" id="DejaVuSans-48"/>
      </defs>
      <g transform="translate(208.444699 475.333638)scale(0.1 -0.1)">
       <use transform="translate(0 0.684375)" xlink:href="#DejaVuSans-49"/>
       <use transform="translate(63.623047 0.684375)" xlink:href="#DejaVuSans-48"/>
       <use transform="translate(128.203125 38.965625)scale(0.7)" xlink:href="#DejaVuSans-49"/>
      </g>
     </g>
    </g>
    <g id="xtick_2">
     <g id="line2d_2">
      <g>
       <use style="stroke:#000000;stroke-width:0.8;" x="356.403188" xlink:href="#me7d4b9af21" y="460.7352"/>
      </g>
     </g>
     <g id="text_2">
      <!-- $\mathdefault{10^{3}}$ -->
      <defs>
       <path d="M 40.578125 39.3125 
Q 47.65625 37.796875 51.625 33 
Q 55.609375 28.21875 55.609375 21.1875 
Q 55.609375 10.40625 48.1875 4.484375 
Q 40.765625 -1.421875 27.09375 -1.421875 
Q 22.515625 -1.421875 17.65625 -0.515625 
Q 12.796875 0.390625 7.625 2.203125 
L 7.625 11.71875 
Q 11.71875 9.328125 16.59375 8.109375 
Q 21.484375 6.890625 26.8125 6.890625 
Q 36.078125 6.890625 40.9375 10.546875 
Q 45.796875 14.203125 45.796875 21.1875 
Q 45.796875 27.640625 41.28125 31.265625 
Q 36.765625 34.90625 28.71875 34.90625 
L 20.21875 34.90625 
L 20.21875 43.015625 
L 29.109375 43.015625 
Q 36.375 43.015625 40.234375 45.921875 
Q 44.09375 48.828125 44.09375 54.296875 
Q 44.09375 59.90625 40.109375 62.90625 
Q 36.140625 65.921875 28.71875 65.921875 
Q 24.65625 65.921875 20.015625 65.03125 
Q 15.375 64.15625 9.8125 62.3125 
L 9.8125 71.09375 
Q 15.4375 72.65625 20.34375 73.4375 
Q 25.25 74.21875 29.59375 74.21875 
Q 40.828125 74.21875 47.359375 69.109375 
Q 53.90625 64.015625 53.90625 55.328125 
Q 53.90625 49.265625 50.4375 45.09375 
Q 46.96875 40.921875 40.578125 39.3125 
z
" id="DejaVuSans-51"/>
      </defs>
      <g transform="translate(347.603188 475.333638)scale(0.1 -0.1)">
       <use transform="translate(0 0.765625)" xlink:href="#DejaVuSans-49"/>
       <use transform="translate(63.623047 0.765625)" xlink:href="#DejaVuSans-48"/>
       <use transform="translate(128.203125 39.046875)scale(0.7)" xlink:href="#DejaVuSans-51"/>
      </g>
     </g>
    </g>
    <g id="xtick_3">
     <g id="line2d_3">
      <g>
       <use style="stroke:#000000;stroke-width:0.8;" x="495.561677" xlink:href="#me7d4b9af21" y="460.7352"/>
      </g>
     </g>
     <g id="text_3">
      <!-- $\mathdefault{10^{5}}$ -->
      <defs>
       <path d="M 10.796875 72.90625 
L 49.515625 72.90625 
L 49.515625 64.59375 
L 19.828125 64.59375 
L 19.828125 46.734375 
Q 21.96875 47.46875 24.109375 47.828125 
Q 26.265625 48.1875 28.421875 48.1875 
Q 40.625 48.1875 47.75 41.5 
Q 54.890625 34.8125 54.890625 23.390625 
Q 54.890625 11.625 47.5625 5.09375 
Q 40.234375 -1.421875 26.90625 -1.421875 
Q 22.3125 -1.421875 17.546875 -0.640625 
Q 12.796875 0.140625 7.71875 1.703125 
L 7.71875 11.625 
Q 12.109375 9.234375 16.796875 8.0625 
Q 21.484375 6.890625 26.703125 6.890625 
Q 35.15625 6.890625 40.078125 11.328125 
Q 45.015625 15.765625 45.015625 23.390625 
Q 45.015625 31 40.078125 35.4375 
Q 35.15625 39.890625 26.703125 39.890625 
Q 22.75 39.890625 18.8125 39.015625 
Q 14.890625 38.140625 10.796875 36.28125 
z
" id="DejaVuSans-53"/>
      </defs>
      <g transform="translate(486.761677 475.333638)scale(0.1 -0.1)">
       <use transform="translate(0 0.684375)" xlink:href="#DejaVuSans-49"/>
       <use transform="translate(63.623047 0.684375)" xlink:href="#DejaVuSans-48"/>
       <use transform="translate(128.203125 38.965625)scale(0.7)" xlink:href="#DejaVuSans-53"/>
      </g>
     </g>
    </g>
    <g id="xtick_4">
     <g id="line2d_4">
      <g>
       <use style="stroke:#000000;stroke-width:0.8;" x="634.720166" xlink:href="#me7d4b9af21" y="460.7352"/>
      </g>
     </g>
     <g id="text_4">
      <!-- $\mathdefault{10^{7}}$ -->
      <defs>
       <path d="M 8.203125 72.90625 
L 55.078125 72.90625 
L 55.078125 68.703125 
L 28.609375 0 
L 18.3125 0 
L 43.21875 64.59375 
L 8.203125 64.59375 
z
" id="DejaVuSans-55"/>
      </defs>
      <g transform="translate(625.920166 475.333638)scale(0.1 -0.1)">
       <use transform="translate(0 0.684375)" xlink:href="#DejaVuSans-49"/>
       <use transform="translate(63.623047 0.684375)" xlink:href="#DejaVuSans-48"/>
       <use transform="translate(128.203125 38.965625)scale(0.7)" xlink:href="#DejaVuSans-55"/>
      </g>
     </g>
    </g>
    <g id="xtick_5">
     <g id="line2d_5">
      <g>
       <use style="stroke:#000000;stroke-width:0.8;" x="773.878655" xlink:href="#me7d4b9af21" y="460.7352"/>
      </g>
     </g>
     <g id="text_5">
      <!-- $\mathdefault{10^{9}}$ -->
      <defs>
       <path d="M 10.984375 1.515625 
L 10.984375 10.5 
Q 14.703125 8.734375 18.5 7.8125 
Q 22.3125 6.890625 25.984375 6.890625 
Q 35.75 6.890625 40.890625 13.453125 
Q 46.046875 20.015625 46.78125 33.40625 
Q 43.953125 29.203125 39.59375 26.953125 
Q 35.25 24.703125 29.984375 24.703125 
Q 19.046875 24.703125 12.671875 31.3125 
Q 6.296875 37.9375 6.296875 49.421875 
Q 6.296875 60.640625 12.9375 67.421875 
Q 19.578125 74.21875 30.609375 74.21875 
Q 43.265625 74.21875 49.921875 64.515625 
Q 56.59375 54.828125 56.59375 36.375 
Q 56.59375 19.140625 48.40625 8.859375 
Q 40.234375 -1.421875 26.421875 -1.421875 
Q 22.703125 -1.421875 18.890625 -0.6875 
Q 15.09375 0.046875 10.984375 1.515625 
z
M 30.609375 32.421875 
Q 37.25 32.421875 41.125 36.953125 
Q 45.015625 41.5 45.015625 49.421875 
Q 45.015625 57.28125 41.125 61.84375 
Q 37.25 66.40625 30.609375 66.40625 
Q 23.96875 66.40625 20.09375 61.84375 
Q 16.21875 57.28125 16.21875 49.421875 
Q 16.21875 41.5 20.09375 36.953125 
Q 23.96875 32.421875 30.609375 32.421875 
z
" id="DejaVuSans-57"/>
      </defs>
      <g transform="translate(765.078655 475.333638)scale(0.1 -0.1)">
       <use transform="translate(0 0.765625)" xlink:href="#DejaVuSans-49"/>
       <use transform="translate(63.623047 0.765625)" xlink:href="#DejaVuSans-48"/>
       <use transform="translate(128.203125 39.046875)scale(0.7)" xlink:href="#DejaVuSans-57"/>
      </g>
     </g>
    </g>
    <g id="text_6">
     <!-- Number of elements in triangle (rows*(rows+1)/2) -->
     <defs>
      <path d="M 9.8125 72.90625 
L 23.09375 72.90625 
L 55.421875 11.921875 
L 55.421875 72.90625 
L 64.984375 72.90625 
L 64.984375 0 
L 51.703125 0 
L 19.390625 60.984375 
L 19.390625 0 
L 9.8125 0 
z
" id="DejaVuSans-78"/>
      <path d="M 8.5 21.578125 
L 8.5 54.6875 
L 17.484375 54.6875 
L 17.484375 21.921875 
Q 17.484375 14.15625 20.5 10.265625 
Q 23.53125 6.390625 29.59375 6.390625 
Q 36.859375 6.390625 41.078125 11.03125 
Q 45.3125 15.671875 45.3125 23.6875 
L 45.3125 54.6875 
L 54.296875 54.6875 
L 54.296875 0 
L 45.3125 0 
L 45.3125 8.40625 
Q 42.046875 3.421875 37.71875 1 
Q 33.40625 -1.421875 27.6875 -1.421875 
Q 18.265625 -1.421875 13.375 4.4375 
Q 8.5 10.296875 8.5 21.578125 
z
M 31.109375 56 
z
" id="DejaVuSans-117"/>
      <path d="M 52 44.1875 
Q 55.375 50.25 60.0625 53.125 
Q 64.75 56 71.09375 56 
Q 79.640625 56 84.28125 50.015625 
Q 88.921875 44.046875 88.921875 33.015625 
L 88.921875 0 
L 79.890625 0 
L 79.890625 32.71875 
Q 79.890625 40.578125 77.09375 44.375 
Q 74.3125 48.1875 68.609375 48.1875 
Q 61.625 48.1875 57.5625 43.546875 
Q 53.515625 38.921875 53.515625 30.90625 
L 53.515625 0 
L 44.484375 0 
L 44.484375 32.71875 
Q 44.484375 40.625 41.703125 44.40625 
Q 38.921875 48.1875 33.109375 48.1875 
Q 26.21875 48.1875 22.15625 43.53125 
Q 18.109375 38.875 18.109375 30.90625 
L 18.109375 0 
L 9.078125 0 
L 9.078125 54.6875 
L 18.109375 54.6875 
L 18.109375 46.1875 
Q 21.1875 51.21875 25.484375 53.609375 
Q 29.78125 56 35.6875 56 
Q 41.65625 56 45.828125 52.96875 
Q 50 49.953125 52 44.1875 
z
" id="DejaVuSans-109"/>
      <path d="M 48.6875 27.296875 
Q 48.6875 37.203125 44.609375 42.84375 
Q 40.53125 48.484375 33.40625 48.484375 
Q 26.265625 48.484375 22.1875 42.84375 
Q 18.109375 37.203125 18.109375 27.296875 
Q 18.109375 17.390625 22.1875 11.75 
Q 26.265625 6.109375 33.40625 6.109375 
Q 40.53125 6.109375 44.609375 11.75 
Q 48.6875 17.390625 48.6875 27.296875 
z
M 18.109375 46.390625 
Q 20.953125 51.265625 25.265625 53.625 
Q 29.59375 56 35.59375 56 
Q 45.5625 56 51.78125 48.09375 
Q 58.015625 40.1875 58.015625 27.296875 
Q 58.015625 14.40625 51.78125 6.484375 
Q 45.5625 -1.421875 35.59375 -1.421875 
Q 29.59375 -1.421875 25.265625 0.953125 
Q 20.953125 3.328125 18.109375 8.203125 
L 18.109375 0 
L 9.078125 0 
L 9.078125 75.984375 
L 18.109375 75.984375 
z
" id="DejaVuSans-98"/>
      <path d="M 56.203125 29.59375 
L 56.203125 25.203125 
L 14.890625 25.203125 
Q 15.484375 15.921875 20.484375 11.0625 
Q 25.484375 6.203125 34.421875 6.203125 
Q 39.59375 6.203125 44.453125 7.46875 
Q 49.3125 8.734375 54.109375 11.28125 
L 54.109375 2.78125 
Q 49.265625 0.734375 44.1875 -0.34375 
Q 39.109375 -1.421875 33.890625 -1.421875 
Q 20.796875 -1.421875 13.15625 6.1875 
Q 5.515625 13.8125 5.515625 26.8125 
Q 5.515625 40.234375 12.765625 48.109375 
Q 20.015625 56 32.328125 56 
Q 43.359375 56 49.78125 48.890625 
Q 56.203125 41.796875 56.203125 29.59375 
z
M 47.21875 32.234375 
Q 47.125 39.59375 43.09375 43.984375 
Q 39.0625 48.390625 32.421875 48.390625 
Q 24.90625 48.390625 20.390625 44.140625 
Q 15.875 39.890625 15.1875 32.171875 
z
" id="DejaVuSans-101"/>
      <path d="M 41.109375 46.296875 
Q 39.59375 47.171875 37.8125 47.578125 
Q 36.03125 48 33.890625 48 
Q 26.265625 48 22.1875 43.046875 
Q 18.109375 38.09375 18.109375 28.8125 
L 18.109375 0 
L 9.078125 0 
L 9.078125 54.6875 
L 18.109375 54.6875 
L 18.109375 46.1875 
Q 20.953125 51.171875 25.484375 53.578125 
Q 30.03125 56 36.53125 56 
Q 37.453125 56 38.578125 55.875 
Q 39.703125 55.765625 41.0625 55.515625 
z
" id="DejaVuSans-114"/>
      <path id="DejaVuSans-32"/>
      <path d="M 30.609375 48.390625 
Q 23.390625 48.390625 19.1875 42.75 
Q 14.984375 37.109375 14.984375 27.296875 
Q 14.984375 17.484375 19.15625 11.84375 
Q 23.34375 6.203125 30.609375 6.203125 
Q 37.796875 6.203125 41.984375 11.859375 
Q 46.1875 17.53125 46.1875 27.296875 
Q 46.1875 37.015625 41.984375 42.703125 
Q 37.796875 48.390625 30.609375 48.390625 
z
M 30.609375 56 
Q 42.328125 56 49.015625 48.375 
Q 55.71875 40.765625 55.71875 27.296875 
Q 55.71875 13.875 49.015625 6.21875 
Q 42.328125 -1.421875 30.609375 -1.421875 
Q 18.84375 -1.421875 12.171875 6.21875 
Q 5.515625 13.875 5.515625 27.296875 
Q 5.515625 40.765625 12.171875 48.375 
Q 18.84375 56 30.609375 56 
z
" id="DejaVuSans-111"/>
      <path d="M 37.109375 75.984375 
L 37.109375 68.5 
L 28.515625 68.5 
Q 23.6875 68.5 21.796875 66.546875 
Q 19.921875 64.59375 19.921875 59.515625 
L 19.921875 54.6875 
L 34.71875 54.6875 
L 34.71875 47.703125 
L 19.921875 47.703125 
L 19.921875 0 
L 10.890625 0 
L 10.890625 47.703125 
L 2.296875 47.703125 
L 2.296875 54.6875 
L 10.890625 54.6875 
L 10.890625 58.5 
Q 10.890625 67.625 15.140625 71.796875 
Q 19.390625 75.984375 28.609375 75.984375 
z
" id="DejaVuSans-102"/>
      <path d="M 9.421875 75.984375 
L 18.40625 75.984375 
L 18.40625 0 
L 9.421875 0 
z
" id="DejaVuSans-108"/>
      <path d="M 54.890625 33.015625 
L 54.890625 0 
L 45.90625 0 
L 45.90625 32.71875 
Q 45.90625 40.484375 42.875 44.328125 
Q 39.84375 48.1875 33.796875 48.1875 
Q 26.515625 48.1875 22.3125 43.546875 
Q 18.109375 38.921875 18.109375 30.90625 
L 18.109375 0 
L 9.078125 0 
L 9.078125 54.6875 
L 18.109375 54.6875 
L 18.109375 46.1875 
Q 21.34375 51.125 25.703125 53.5625 
Q 30.078125 56 35.796875 56 
Q 45.21875 56 50.046875 50.171875 
Q 54.890625 44.34375 54.890625 33.015625 
z
" id="DejaVuSans-110"/>
      <path d="M 18.3125 70.21875 
L 18.3125 54.6875 
L 36.8125 54.6875 
L 36.8125 47.703125 
L 18.3125 47.703125 
L 18.3125 18.015625 
Q 18.3125 11.328125 20.140625 9.421875 
Q 21.96875 7.515625 27.59375 7.515625 
L 36.8125 7.515625 
L 36.8125 0 
L 27.59375 0 
Q 17.1875 0 13.234375 3.875 
Q 9.28125 7.765625 9.28125 18.015625 
L 9.28125 47.703125 
L 2.6875 47.703125 
L 2.6875 54.6875 
L 9.28125 54.6875 
L 9.28125 70.21875 
z
" id="DejaVuSans-116"/>
      <path d="M 44.28125 53.078125 
L 44.28125 44.578125 
Q 40.484375 46.53125 36.375 47.5 
Q 32.28125 48.484375 27.875 48.484375 
Q 21.1875 48.484375 17.84375 46.4375 
Q 14.5 44.390625 14.5 40.28125 
Q 14.5 37.15625 16.890625 35.375 
Q 19.28125 33.59375 26.515625 31.984375 
L 29.59375 31.296875 
Q 39.15625 29.25 43.1875 25.515625 
Q 47.21875 21.78125 47.21875 15.09375 
Q 47.21875 7.46875 41.1875 3.015625 
Q 35.15625 -1.421875 24.609375 -1.421875 
Q 20.21875 -1.421875 15.453125 -0.5625 
Q 10.6875 0.296875 5.421875 2 
L 5.421875 11.28125 
Q 10.40625 8.6875 15.234375 7.390625 
Q 20.0625 6.109375 24.8125 6.109375 
Q 31.15625 6.109375 34.5625 8.28125 
Q 37.984375 10.453125 37.984375 14.40625 
Q 37.984375 18.0625 35.515625 20.015625 
Q 33.0625 21.96875 24.703125 23.78125 
L 21.578125 24.515625 
Q 13.234375 26.265625 9.515625 29.90625 
Q 5.8125 33.546875 5.8125 39.890625 
Q 5.8125 47.609375 11.28125 51.796875 
Q 16.75 56 26.8125 56 
Q 31.78125 56 36.171875 55.265625 
Q 40.578125 54.546875 44.28125 53.078125 
z
" id="DejaVuSans-115"/>
      <path d="M 9.421875 54.6875 
L 18.40625 54.6875 
L 18.40625 0 
L 9.421875 0 
z
M 9.421875 75.984375 
L 18.40625 75.984375 
L 18.40625 64.59375 
L 9.421875 64.59375 
z
" id="DejaVuSans-105"/>
      <path d="M 34.28125 27.484375 
Q 23.390625 27.484375 19.1875 25 
Q 14.984375 22.515625 14.984375 16.5 
Q 14.984375 11.71875 18.140625 8.90625 
Q 21.296875 6.109375 26.703125 6.109375 
Q 34.1875 6.109375 38.703125 11.40625 
Q 43.21875 16.703125 43.21875 25.484375 
L 43.21875 27.484375 
z
M 52.203125 31.203125 
L 52.203125 0 
L 43.21875 0 
L 43.21875 8.296875 
Q 40.140625 3.328125 35.546875 0.953125 
Q 30.953125 -1.421875 24.3125 -1.421875 
Q 15.921875 -1.421875 10.953125 3.296875 
Q 6 8.015625 6 15.921875 
Q 6 25.140625 12.171875 29.828125 
Q 18.359375 34.515625 30.609375 34.515625 
L 43.21875 34.515625 
L 43.21875 35.40625 
Q 43.21875 41.609375 39.140625 45 
Q 35.0625 48.390625 27.6875 48.390625 
Q 23 48.390625 18.546875 47.265625 
Q 14.109375 46.140625 10.015625 43.890625 
L 10.015625 52.203125 
Q 14.9375 54.109375 19.578125 55.046875 
Q 24.21875 56 28.609375 56 
Q 40.484375 56 46.34375 49.84375 
Q 52.203125 43.703125 52.203125 31.203125 
z
" id="DejaVuSans-97"/>
      <path d="M 45.40625 27.984375 
Q 45.40625 37.75 41.375 43.109375 
Q 37.359375 48.484375 30.078125 48.484375 
Q 22.859375 48.484375 18.828125 43.109375 
Q 14.796875 37.75 14.796875 27.984375 
Q 14.796875 18.265625 18.828125 12.890625 
Q 22.859375 7.515625 30.078125 7.515625 
Q 37.359375 7.515625 41.375 12.890625 
Q 45.40625 18.265625 45.40625 27.984375 
z
M 54.390625 6.78125 
Q 54.390625 -7.171875 48.1875 -13.984375 
Q 42 -20.796875 29.203125 -20.796875 
Q 24.46875 -20.796875 20.265625 -20.09375 
Q 16.0625 -19.390625 12.109375 -17.921875 
L 12.109375 -9.1875 
Q 16.0625 -11.328125 19.921875 -12.34375 
Q 23.78125 -13.375 27.78125 -13.375 
Q 36.625 -13.375 41.015625 -8.765625 
Q 45.40625 -4.15625 45.40625 5.171875 
L 45.40625 9.625 
Q 42.625 4.78125 38.28125 2.390625 
Q 33.9375 0 27.875 0 
Q 17.828125 0 11.671875 7.65625 
Q 5.515625 15.328125 5.515625 27.984375 
Q 5.515625 40.671875 11.671875 48.328125 
Q 17.828125 56 27.875 56 
Q 33.9375 56 38.28125 53.609375 
Q 42.625 51.21875 45.40625 46.390625 
L 45.40625 54.6875 
L 54.390625 54.6875 
z
" id="DejaVuSans-103"/>
      <path d="M 31 75.875 
Q 24.46875 64.65625 21.28125 53.65625 
Q 18.109375 42.671875 18.109375 31.390625 
Q 18.109375 20.125 21.3125 9.0625 
Q 24.515625 -2 31 -13.1875 
L 23.1875 -13.1875 
Q 15.875 -1.703125 12.234375 9.375 
Q 8.59375 20.453125 8.59375 31.390625 
Q 8.59375 42.28125 12.203125 53.3125 
Q 15.828125 64.359375 23.1875 75.875 
z
" id="DejaVuSans-40"/>
      <path d="M 4.203125 54.6875 
L 13.1875 54.6875 
L 24.421875 12.015625 
L 35.59375 54.6875 
L 46.1875 54.6875 
L 57.421875 12.015625 
L 68.609375 54.6875 
L 77.59375 54.6875 
L 63.28125 0 
L 52.6875 0 
L 40.921875 44.828125 
L 29.109375 0 
L 18.5 0 
z
" id="DejaVuSans-119"/>
      <path d="M 47.015625 60.890625 
L 29.5 51.421875 
L 47.015625 41.890625 
L 44.1875 37.109375 
L 27.78125 47.015625 
L 27.78125 28.609375 
L 22.21875 28.609375 
L 22.21875 47.015625 
L 5.8125 37.109375 
L 2.984375 41.890625 
L 20.515625 51.421875 
L 2.984375 60.890625 
L 5.8125 65.71875 
L 22.21875 55.8125 
L 22.21875 74.21875 
L 27.78125 74.21875 
L 27.78125 55.8125 
L 44.1875 65.71875 
z
" id="DejaVuSans-42"/>
      <path d="M 46 62.703125 
L 46 35.5 
L 73.1875 35.5 
L 73.1875 27.203125 
L 46 27.203125 
L 46 0 
L 37.796875 0 
L 37.796875 27.203125 
L 10.59375 27.203125 
L 10.59375 35.5 
L 37.796875 35.5 
L 37.796875 62.703125 
z
" id="DejaVuSans-43"/>
      <path d="M 8.015625 75.875 
L 15.828125 75.875 
Q 23.140625 64.359375 26.78125 53.3125 
Q 30.421875 42.28125 30.421875 31.390625 
Q 30.421875 20.453125 26.78125 9.375 
Q 23.140625 -1.703125 15.828125 -13.1875 
L 8.015625 -13.1875 
Q 14.5 -2 17.703125 9.0625 
Q 20.90625 20.125 20.90625 31.390625 
Q 20.90625 42.671875 17.703125 53.65625 
Q 14.5 64.65625 8.015625 75.875 
z
" id="DejaVuSans-41"/>
      <path d="M 25.390625 72.90625 
L 33.6875 72.90625 
L 8.296875 -9.28125 
L 0 -9.28125 
z
" id="DejaVuSans-47"/>
      <path d="M 19.1875 8.296875 
L 53.609375 8.296875 
L 53.609375 0 
L 7.328125 0 
L 7.328125 8.296875 
Q 12.9375 14.109375 22.625 23.890625 
Q 32.328125 33.6875 34.8125 36.53125 
Q 39.546875 41.84375 41.421875 45.53125 
Q 43.3125 49.21875 43.3125 52.78125 
Q 43.3125 58.59375 39.234375 62.25 
Q 35.15625 65.921875 28.609375 65.921875 
Q 23.96875 65.921875 18.8125 64.3125 
Q 13.671875 62.703125 7.8125 59.421875 
L 7.8125 69.390625 
Q 13.765625 71.78125 18.9375 73 
Q 24.125 74.21875 28.421875 74.21875 
Q 39.75 74.21875 46.484375 68.546875 
Q 53.21875 62.890625 53.21875 53.421875 
Q 53.21875 48.921875 51.53125 44.890625 
Q 49.859375 40.875 45.40625 35.40625 
Q 44.1875 33.984375 37.640625 27.21875 
Q 31.109375 20.453125 19.1875 8.296875 
z
" id="DejaVuSans-50"/>
     </defs>
     <g transform="translate(346.2575 489.011763)scale(0.1 -0.1)">
      <use xlink:href="#DejaVuSans-78"/>
      <use x="74.804688" xlink:href="#DejaVuSans-117"/>
      <use x="138.183594" xlink:href="#DejaVuSans-109"/>
      <use x="235.595703" xlink:href="#DejaVuSans-98"/>
      <use x="299.072266" xlink:href="#DejaVuSans-101"/>
      <use x="360.595703" xlink:href="#DejaVuSans-114"/>
      <use x="401.708984" xlink:href="#DejaVuSans-32"/>
      <use x="433.496094" xlink:href="#DejaVuSans-111"/>
      <use x="494.677734" xlink:href="#DejaVuSans-102"/>
      <use x="529.882812" xlink:href="#DejaVuSans-32"/>
      <use x="561.669922" xlink:href="#DejaVuSans-101"/>
      <use x="623.193359" xlink:href="#DejaVuSans-108"/>
      <use x="650.976562" xlink:href="#DejaVuSans-101"/>
      <use x="712.5" xlink:href="#DejaVuSans-109"/>
      <use x="809.912109" xlink:href="#DejaVuSans-101"/>
      <use x="871.435547" xlink:href="#DejaVuSans-110"/>
      <use x="934.814453" xlink:href="#DejaVuSans-116"/>
      <use x="974.023438" xlink:href="#DejaVuSans-115"/>
      <use x="1026.123047" xlink:href="#DejaVuSans-32"/>
      <use x="1057.910156" xlink:href="#DejaVuSans-105"/>
      <use x="1085.693359" xlink:href="#DejaVuSans-110"/>
      <use x="1149.072266" xlink:href="#DejaVuSans-32"/>
      <use x="1180.859375" xlink:href="#DejaVuSans-116"/>
      <use x="1220.068359" xlink:href="#DejaVuSans-114"/>
      <use x="1261.181641" xlink:href="#DejaVuSans-105"/>
      <use x="1288.964844" xlink:href="#DejaVuSans-97"/>
      <use x="1350.244141" xlink:href="#DejaVuSans-110"/>
      <use x="1413.623047" xlink:href="#DejaVuSans-103"/>
      <use x="1477.099609" xlink:href="#DejaVuSans-108"/>
      <use x="1504.882812" xlink:href="#DejaVuSans-101"/>
      <use x="1566.40625" xlink:href="#DejaVuSans-32"/>
      <use x="1598.193359" xlink:href="#DejaVuSans-40"/>
      <use x="1637.207031" xlink:href="#DejaVuSans-114"/>
      <use x="1678.289062" xlink:href="#DejaVuSans-111"/>
      <use x="1739.470703" xlink:href="#DejaVuSans-119"/>
      <use x="1821.257812" xlink:href="#DejaVuSans-115"/>
      <use x="1873.357422" xlink:href="#DejaVuSans-42"/>
      <use x="1923.357422" xlink:href="#DejaVuSans-40"/>
      <use x="1962.371094" xlink:href="#DejaVuSans-114"/>
      <use x="2003.453125" xlink:href="#DejaVuSans-111"/>
      <use x="2064.634766" xlink:href="#DejaVuSans-119"/>
      <use x="2146.421875" xlink:href="#DejaVuSans-115"/>
      <use x="2198.521484" xlink:href="#DejaVuSans-43"/>
      <use x="2282.310547" xlink:href="#DejaVuSans-49"/>
      <use x="2345.933594" xlink:href="#DejaVuSans-41"/>
      <use x="2384.947266" xlink:href="#DejaVuSans-47"/>
      <use x="2418.638672" xlink:href="#DejaVuSans-50"/>
      <use x="2482.261719" xlink:href="#DejaVuSans-41"/>
     </g>
    </g>
   </g>
   <g id="matplotlib.axis_2">
    <g id="ytick_1">
     <g id="line2d_6">
      <defs>
       <path d="M 0 0 
L -3.5 0 
" id="mffef2e2177" style="stroke:#000000;stroke-width:0.8;"/>
      </defs>
      <g>
       <use style="stroke:#000000;stroke-width:0.8;" x="115.2" xlink:href="#mffef2e2177" y="443.239898"/>
      </g>
     </g>
     <g id="text_7">
      <!-- 0.00 -->
      <defs>
       <path d="M 10.6875 12.40625 
L 21 12.40625 
L 21 0 
L 10.6875 0 
z
" id="DejaVuSans-46"/>
      </defs>
      <g transform="translate(85.934375 447.039117)scale(0.1 -0.1)">
       <use xlink:href="#DejaVuSans-48"/>
       <use x="63.623047" xlink:href="#DejaVuSans-46"/>
       <use x="95.410156" xlink:href="#DejaVuSans-48"/>
       <use x="159.033203" xlink:href="#DejaVuSans-48"/>
      </g>
     </g>
    </g>
    <g id="ytick_2">
     <g id="line2d_7">
      <g>
       <use style="stroke:#000000;stroke-width:0.8;" x="115.2" xlink:href="#mffef2e2177" y="388.537328"/>
      </g>
     </g>
     <g id="text_8">
      <!-- 0.25 -->
      <g transform="translate(85.934375 392.336547)scale(0.1 -0.1)">
       <use xlink:href="#DejaVuSans-48"/>
       <use x="63.623047" xlink:href="#DejaVuSans-46"/>
       <use x="95.410156" xlink:href="#DejaVuSans-50"/>
       <use x="159.033203" xlink:href="#DejaVuSans-53"/>
      </g>
     </g>
    </g>
    <g id="ytick_3">
     <g id="line2d_8">
      <g>
       <use style="stroke:#000000;stroke-width:0.8;" x="115.2" xlink:href="#mffef2e2177" y="333.834757"/>
      </g>
     </g>
     <g id="text_9">
      <!-- 0.50 -->
      <g transform="translate(85.934375 337.633976)scale(0.1 -0.1)">
       <use xlink:href="#DejaVuSans-48"/>
       <use x="63.623047" xlink:href="#DejaVuSans-46"/>
       <use x="95.410156" xlink:href="#DejaVuSans-53"/>
       <use x="159.033203" xlink:href="#DejaVuSans-48"/>
      </g>
     </g>
    </g>
    <g id="ytick_4">
     <g id="line2d_9">
      <g>
       <use style="stroke:#000000;stroke-width:0.8;" x="115.2" xlink:href="#mffef2e2177" y="279.132187"/>
      </g>
     </g>
     <g id="text_10">
      <!-- 0.75 -->
      <g transform="translate(85.934375 282.931405)scale(0.1 -0.1)">
       <use xlink:href="#DejaVuSans-48"/>
       <use x="63.623047" xlink:href="#DejaVuSans-46"/>
       <use x="95.410156" xlink:href="#DejaVuSans-55"/>
       <use x="159.033203" xlink:href="#DejaVuSans-53"/>
      </g>
     </g>
    </g>
    <g id="ytick_5">
     <g id="line2d_10">
      <g>
       <use style="stroke:#000000;stroke-width:0.8;" x="115.2" xlink:href="#mffef2e2177" y="224.429616"/>
      </g>
     </g>
     <g id="text_11">
      <!-- 1.00 -->
      <g transform="translate(85.934375 228.228835)scale(0.1 -0.1)">
       <use xlink:href="#DejaVuSans-49"/>
       <use x="63.623047" xlink:href="#DejaVuSans-46"/>
       <use x="95.410156" xlink:href="#DejaVuSans-48"/>
       <use x="159.033203" xlink:href="#DejaVuSans-48"/>
      </g>
     </g>
    </g>
    <g id="ytick_6">
     <g id="line2d_11">
      <g>
       <use style="stroke:#000000;stroke-width:0.8;" x="115.2" xlink:href="#mffef2e2177" y="169.727046"/>
      </g>
     </g>
     <g id="text_12">
      <!-- 1.25 -->
      <g transform="translate(85.934375 173.526264)scale(0.1 -0.1)">
       <use xlink:href="#DejaVuSans-49"/>
       <use x="63.623047" xlink:href="#DejaVuSans-46"/>
       <use x="95.410156" xlink:href="#DejaVuSans-50"/>
       <use x="159.033203" xlink:href="#DejaVuSans-53"/>
      </g>
     </g>
    </g>
    <g id="ytick_7">
     <g id="line2d_12">
      <g>
       <use style="stroke:#000000;stroke-width:0.8;" x="115.2" xlink:href="#mffef2e2177" y="115.024475"/>
      </g>
     </g>
     <g id="text_13">
      <!-- 1.50 -->
      <g transform="translate(85.934375 118.823694)scale(0.1 -0.1)">
       <use xlink:href="#DejaVuSans-49"/>
       <use x="63.623047" xlink:href="#DejaVuSans-46"/>
       <use x="95.410156" xlink:href="#DejaVuSans-53"/>
       <use x="159.033203" xlink:href="#DejaVuSans-48"/>
      </g>
     </g>
    </g>
    <g id="text_14">
     <!-- Elements per second -->
     <defs>
      <path d="M 9.8125 72.90625 
L 55.90625 72.90625 
L 55.90625 64.59375 
L 19.671875 64.59375 
L 19.671875 43.015625 
L 54.390625 43.015625 
L 54.390625 34.71875 
L 19.671875 34.71875 
L 19.671875 8.296875 
L 56.78125 8.296875 
L 56.78125 0 
L 9.8125 0 
z
" id="DejaVuSans-69"/>
      <path d="M 18.109375 8.203125 
L 18.109375 -20.796875 
L 9.078125 -20.796875 
L 9.078125 54.6875 
L 18.109375 54.6875 
L 18.109375 46.390625 
Q 20.953125 51.265625 25.265625 53.625 
Q 29.59375 56 35.59375 56 
Q 45.5625 56 51.78125 48.09375 
Q 58.015625 40.1875 58.015625 27.296875 
Q 58.015625 14.40625 51.78125 6.484375 
Q 45.5625 -1.421875 35.59375 -1.421875 
Q 29.59375 -1.421875 25.265625 0.953125 
Q 20.953125 3.328125 18.109375 8.203125 
z
M 48.6875 27.296875 
Q 48.6875 37.203125 44.609375 42.84375 
Q 40.53125 48.484375 33.40625 48.484375 
Q 26.265625 48.484375 22.1875 42.84375 
Q 18.109375 37.203125 18.109375 27.296875 
Q 18.109375 17.390625 22.1875 11.75 
Q 26.265625 6.109375 33.40625 6.109375 
Q 40.53125 6.109375 44.609375 11.75 
Q 48.6875 17.390625 48.6875 27.296875 
z
" id="DejaVuSans-112"/>
      <path d="M 48.78125 52.59375 
L 48.78125 44.1875 
Q 44.96875 46.296875 41.140625 47.34375 
Q 37.3125 48.390625 33.40625 48.390625 
Q 24.65625 48.390625 19.8125 42.84375 
Q 14.984375 37.3125 14.984375 27.296875 
Q 14.984375 17.28125 19.8125 11.734375 
Q 24.65625 6.203125 33.40625 6.203125 
Q 37.3125 6.203125 41.140625 7.25 
Q 44.96875 8.296875 48.78125 10.40625 
L 48.78125 2.09375 
Q 45.015625 0.34375 40.984375 -0.53125 
Q 36.96875 -1.421875 32.421875 -1.421875 
Q 20.0625 -1.421875 12.78125 6.34375 
Q 5.515625 14.109375 5.515625 27.296875 
Q 5.515625 40.671875 12.859375 48.328125 
Q 20.21875 56 33.015625 56 
Q 37.15625 56 41.109375 55.140625 
Q 45.0625 54.296875 48.78125 52.59375 
z
" id="DejaVuSans-99"/>
      <path d="M 45.40625 46.390625 
L 45.40625 75.984375 
L 54.390625 75.984375 
L 54.390625 0 
L 45.40625 0 
L 45.40625 8.203125 
Q 42.578125 3.328125 38.25 0.953125 
Q 33.9375 -1.421875 27.875 -1.421875 
Q 17.96875 -1.421875 11.734375 6.484375 
Q 5.515625 14.40625 5.515625 27.296875 
Q 5.515625 40.1875 11.734375 48.09375 
Q 17.96875 56 27.875 56 
Q 33.9375 56 38.25 53.625 
Q 42.578125 51.265625 45.40625 46.390625 
z
M 14.796875 27.296875 
Q 14.796875 17.390625 18.875 11.75 
Q 22.953125 6.109375 30.078125 6.109375 
Q 37.203125 6.109375 41.296875 11.75 
Q 45.40625 17.390625 45.40625 27.296875 
Q 45.40625 37.203125 41.296875 42.84375 
Q 37.203125 48.484375 30.078125 48.484375 
Q 22.953125 48.484375 18.875 42.84375 
Q 14.796875 37.203125 14.796875 27.296875 
z
" id="DejaVuSans-100"/>
     </defs>
     <g transform="translate(79.854687 314.051056)rotate(-90)scale(0.1 -0.1)">
      <use xlink:href="#DejaVuSans-69"/>
      <use x="63.183594" xlink:href="#DejaVuSans-108"/>
      <use x="90.966797" xlink:href="#DejaVuSans-101"/>
      <use x="152.490234" xlink:href="#DejaVuSans-109"/>
      <use x="249.902344" xlink:href="#DejaVuSans-101"/>
      <use x="311.425781" xlink:href="#DejaVuSans-110"/>
      <use x="374.804688" xlink:href="#DejaVuSans-116"/>
      <use x="414.013672" xlink:href="#DejaVuSans-115"/>
      <use x="466.113281" xlink:href="#DejaVuSans-32"/>
      <use x="497.900391" xlink:href="#DejaVuSans-112"/>
      <use x="561.376953" xlink:href="#DejaVuSans-101"/>
      <use x="622.900391" xlink:href="#DejaVuSans-114"/>
      <use x="664.013672" xlink:href="#DejaVuSans-32"/>
      <use x="695.800781" xlink:href="#DejaVuSans-115"/>
      <use x="747.900391" xlink:href="#DejaVuSans-101"/>
      <use x="809.423828" xlink:href="#DejaVuSans-99"/>
      <use x="864.404297" xlink:href="#DejaVuSans-111"/>
      <use x="925.585938" xlink:href="#DejaVuSans-110"/>
      <use x="988.964844" xlink:href="#DejaVuSans-100"/>
     </g>
    </g>
    <g id="text_15">
     <!-- 1e9 -->
     <g transform="translate(115.2 59.1216)scale(0.1 -0.1)">
      <use xlink:href="#DejaVuSans-49"/>
      <use x="63.623047" xlink:href="#DejaVuSans-101"/>
      <use x="125.146484" xlink:href="#DejaVuSans-57"/>
     </g>
    </g>
   </g>
   <g id="line2d_13">
    <path clip-path="url(#p9a7446b34f)" d="M 147.665455 442.6164 
L 180.863191 442.398739 
L 201.808631 442.303823 
L 217.244699 442.120082 
L 229.496996 441.954905 
L 239.664474 441.855521 
L 248.357617 441.678654 
L 255.951807 441.486658 
L 262.694732 441.377509 
L 268.758576 441.151736 
L 274.267947 440.955738 
L 292.333315 440.45284 
L 306.219409 439.885096 
L 317.502064 439.452214 
L 327.005387 438.80766 
L 335.215033 438.2074 
L 342.441455 437.987896 
L 348.895212 437.256359 
L 354.725712 437.039311 
L 360.042816 436.317576 
L 364.929674 435.702835 
L 369.450738 435.591139 
L 373.656981 434.984536 
L 377.589409 435.2571 
L 378.533795 434.304763 
L 420.19133 427.536866 
L 461.964858 417.880422 
L 503.796891 403.253097 
L 545.658304 379.59271 
L 587.534439 401.699263 
L 629.417944 404.970018 
L 641.469135 396.14502 
L 671.305135 401.680965 
L 713.19417 400.390055 
L 755.084127 399.373939 
L 796.974545 406.74199 
" style="fill:none;stroke:#000000;stroke-linecap:square;"/>
    <defs>
     <path d="M 0 2.5 
C 0.663008 2.5 1.29895 2.236584 1.767767 1.767767 
C 2.236584 1.29895 2.5 0.663008 2.5 0 
C 2.5 -0.663008 2.236584 -1.29895 1.767767 -1.767767 
C 1.29895 -2.236584 0.663008 -2.5 0 -2.5 
C -0.663008 -2.5 -1.29895 -2.236584 -1.767767 -1.767767 
C -2.236584 -1.29895 -2.5 -0.663008 -2.5 0 
C -2.5 0.663008 -2.236584 1.29895 -1.767767 1.767767 
C -1.29895 2.236584 -0.663008 2.5 0 2.5 
z
" id="ma1ece3625a" style="stroke:#000000;"/>
    </defs>
    <g clip-path="url(#p9a7446b34f)">
     <use style="stroke:#000000;" x="147.665455" xlink:href="#ma1ece3625a" y="442.6164"/>
     <use style="stroke:#000000;" x="180.863191" xlink:href="#ma1ece3625a" y="442.398739"/>
     <use style="stroke:#000000;" x="201.808631" xlink:href="#ma1ece3625a" y="442.303823"/>
     <use style="stroke:#000000;" x="217.244699" xlink:href="#ma1ece3625a" y="442.120082"/>
     <use style="stroke:#000000;" x="229.496996" xlink:href="#ma1ece3625a" y="441.954905"/>
     <use style="stroke:#000000;" x="239.664474" xlink:href="#ma1ece3625a" y="441.855521"/>
     <use style="stroke:#000000;" x="248.357617" xlink:href="#ma1ece3625a" y="441.678654"/>
     <use style="stroke:#000000;" x="255.951807" xlink:href="#ma1ece3625a" y="441.486658"/>
     <use style="stroke:#000000;" x="262.694732" xlink:href="#ma1ece3625a" y="441.377509"/>
     <use style="stroke:#000000;" x="268.758576" xlink:href="#ma1ece3625a" y="441.151736"/>
     <use style="stroke:#000000;" x="274.267947" xlink:href="#ma1ece3625a" y="440.955738"/>
     <use style="stroke:#000000;" x="292.333315" xlink:href="#ma1ece3625a" y="440.45284"/>
     <use style="stroke:#000000;" x="306.219409" xlink:href="#ma1ece3625a" y="439.885096"/>
     <use style="stroke:#000000;" x="317.502064" xlink:href="#ma1ece3625a" y="439.452214"/>
     <use style="stroke:#000000;" x="327.005387" xlink:href="#ma1ece3625a" y="438.80766"/>
     <use style="stroke:#000000;" x="335.215033" xlink:href="#ma1ece3625a" y="438.2074"/>
     <use style="stroke:#000000;" x="342.441455" xlink:href="#ma1ece3625a" y="437.987896"/>
     <use style="stroke:#000000;" x="348.895212" xlink:href="#ma1ece3625a" y="437.256359"/>
     <use style="stroke:#000000;" x="354.725712" xlink:href="#ma1ece3625a" y="437.039311"/>
     <use style="stroke:#000000;" x="360.042816" xlink:href="#ma1ece3625a" y="436.317576"/>
     <use style="stroke:#000000;" x="364.929674" xlink:href="#ma1ece3625a" y="435.702835"/>
     <use style="stroke:#000000;" x="369.450738" xlink:href="#ma1ece3625a" y="435.591139"/>
     <use style="stroke:#000000;" x="373.656981" xlink:href="#ma1ece3625a" y="434.984536"/>
     <use style="stroke:#000000;" x="377.589409" xlink:href="#ma1ece3625a" y="435.2571"/>
     <use style="stroke:#000000;" x="378.533795" xlink:href="#ma1ece3625a" y="434.304763"/>
     <use style="stroke:#000000;" x="420.19133" xlink:href="#ma1ece3625a" y="427.536866"/>
     <use style="stroke:#000000;" x="461.964858" xlink:href="#ma1ece3625a" y="417.880422"/>
     <use style="stroke:#000000;" x="503.796891" xlink:href="#ma1ece3625a" y="403.253097"/>
     <use style="stroke:#000000;" x="545.658304" xlink:href="#ma1ece3625a" y="379.59271"/>
     <use style="stroke:#000000;" x="587.534439" xlink:href="#ma1ece3625a" y="401.699263"/>
     <use style="stroke:#000000;" x="629.417944" xlink:href="#ma1ece3625a" y="404.970018"/>
     <use style="stroke:#000000;" x="641.469135" xlink:href="#ma1ece3625a" y="396.14502"/>
     <use style="stroke:#000000;" x="671.305135" xlink:href="#ma1ece3625a" y="401.680965"/>
     <use style="stroke:#000000;" x="713.19417" xlink:href="#ma1ece3625a" y="400.390055"/>
     <use style="stroke:#000000;" x="755.084127" xlink:href="#ma1ece3625a" y="399.373939"/>
     <use style="stroke:#000000;" x="796.974545" xlink:href="#ma1ece3625a" y="406.74199"/>
    </g>
   </g>
   <g id="line2d_14">
    <path clip-path="url(#p9a7446b34f)" d="M 147.665455 441.716254 
L 180.863191 441.964029 
L 201.808631 442.054903 
L 217.244699 441.807124 
L 229.496996 441.66242 
L 239.664474 441.522335 
L 248.357617 441.354955 
L 255.951807 441.108366 
L 262.694732 440.866069 
L 268.758576 440.946392 
L 274.267947 440.555349 
L 292.333315 439.949011 
L 306.219409 439.538387 
L 317.502064 439.078418 
L 327.005387 438.234703 
L 335.215033 437.583394 
L 342.441455 437.63253 
L 348.895212 436.832588 
L 354.725712 436.18252 
L 360.042816 436.110574 
L 364.929674 435.473916 
L 369.450738 435.153522 
L 373.656981 433.896365 
L 377.589409 434.650791 
L 378.533795 433.94314 
L 420.19133 427.636944 
L 461.964858 417.420412 
L 503.796891 405.484316 
L 545.658304 395.58255 
L 587.534439 397.194629 
L 629.417944 392.338743 
L 641.469135 399.94163 
L 671.305135 404.061926 
L 713.19417 402.650767 
L 755.084127 403.290085 
L 796.974545 408.885251 
" style="fill:none;stroke:#0652ff;stroke-linecap:square;"/>
    <defs>
     <path d="M -2.5 0 
L 2.5 0 
M 0 2.5 
L 0 -2.5 
" id="m13a783e96a" style="stroke:#0652ff;"/>
    </defs>
    <g clip-path="url(#p9a7446b34f)">
     <use style="fill:#0652ff;stroke:#0652ff;" x="147.665455" xlink:href="#m13a783e96a" y="441.716254"/>
     <use style="fill:#0652ff;stroke:#0652ff;" x="180.863191" xlink:href="#m13a783e96a" y="441.964029"/>
     <use style="fill:#0652ff;stroke:#0652ff;" x="201.808631" xlink:href="#m13a783e96a" y="442.054903"/>
     <use style="fill:#0652ff;stroke:#0652ff;" x="217.244699" xlink:href="#m13a783e96a" y="441.807124"/>
     <use style="fill:#0652ff;stroke:#0652ff;" x="229.496996" xlink:href="#m13a783e96a" y="441.66242"/>
     <use style="fill:#0652ff;stroke:#0652ff;" x="239.664474" xlink:href="#m13a783e96a" y="441.522335"/>
     <use style="fill:#0652ff;stroke:#0652ff;" x="248.357617" xlink:href="#m13a783e96a" y="441.354955"/>
     <use style="fill:#0652ff;stroke:#0652ff;" x="255.951807" xlink:href="#m13a783e96a" y="441.108366"/>
     <use style="fill:#0652ff;stroke:#0652ff;" x="262.694732" xlink:href="#m13a783e96a" y="440.866069"/>
     <use style="fill:#0652ff;stroke:#0652ff;" x="268.758576" xlink:href="#m13a783e96a" y="440.946392"/>
     <use style="fill:#0652ff;stroke:#0652ff;" x="274.267947" xlink:href="#m13a783e96a" y="440.555349"/>
     <use style="fill:#0652ff;stroke:#0652ff;" x="292.333315" xlink:href="#m13a783e96a" y="439.949011"/>
     <use style="fill:#0652ff;stroke:#0652ff;" x="306.219409" xlink:href="#m13a783e96a" y="439.538387"/>
     <use style="fill:#0652ff;stroke:#0652ff;" x="317.502064" xlink:href="#m13a783e96a" y="439.078418"/>
     <use style="fill:#0652ff;stroke:#0652ff;" x="327.005387" xlink:href="#m13a783e96a" y="438.234703"/>
     <use style="fill:#0652ff;stroke:#0652ff;" x="335.215033" xlink:href="#m13a783e96a" y="437.583394"/>
     <use style="fill:#0652ff;stroke:#0652ff;" x="342.441455" xlink:href="#m13a783e96a" y="437.63253"/>
     <use style="fill:#0652ff;stroke:#0652ff;" x="348.895212" xlink:href="#m13a783e96a" y="436.832588"/>
     <use style="fill:#0652ff;stroke:#0652ff;" x="354.725712" xlink:href="#m13a783e96a" y="436.18252"/>
     <use style="fill:#0652ff;stroke:#0652ff;" x="360.042816" xlink:href="#m13a783e96a" y="436.110574"/>
     <use style="fill:#0652ff;stroke:#0652ff;" x="364.929674" xlink:href="#m13a783e96a" y="435.473916"/>
     <use style="fill:#0652ff;stroke:#0652ff;" x="369.450738" xlink:href="#m13a783e96a" y="435.153522"/>
     <use style="fill:#0652ff;stroke:#0652ff;" x="373.656981" xlink:href="#m13a783e96a" y="433.896365"/>
     <use style="fill:#0652ff;stroke:#0652ff;" x="377.589409" xlink:href="#m13a783e96a" y="434.650791"/>
     <use style="fill:#0652ff;stroke:#0652ff;" x="378.533795" xlink:href="#m13a783e96a" y="433.94314"/>
     <use style="fill:#0652ff;stroke:#0652ff;" x="420.19133" xlink:href="#m13a783e96a" y="427.636944"/>
     <use style="fill:#0652ff;stroke:#0652ff;" x="461.964858" xlink:href="#m13a783e96a" y="417.420412"/>
     <use style="fill:#0652ff;stroke:#0652ff;" x="503.796891" xlink:href="#m13a783e96a" y="405.484316"/>
     <use style="fill:#0652ff;stroke:#0652ff;" x="545.658304" xlink:href="#m13a783e96a" y="395.58255"/>
     <use style="fill:#0652ff;stroke:#0652ff;" x="587.534439" xlink:href="#m13a783e96a" y="397.194629"/>
     <use style="fill:#0652ff;stroke:#0652ff;" x="629.417944" xlink:href="#m13a783e96a" y="392.338743"/>
     <use style="fill:#0652ff;stroke:#0652ff;" x="641.469135" xlink:href="#m13a783e96a" y="399.94163"/>
     <use style="fill:#0652ff;stroke:#0652ff;" x="671.305135" xlink:href="#m13a783e96a" y="404.061926"/>
     <use style="fill:#0652ff;stroke:#0652ff;" x="713.19417" xlink:href="#m13a783e96a" y="402.650767"/>
     <use style="fill:#0652ff;stroke:#0652ff;" x="755.084127" xlink:href="#m13a783e96a" y="403.290085"/>
     <use style="fill:#0652ff;stroke:#0652ff;" x="796.974545" xlink:href="#m13a783e96a" y="408.885251"/>
    </g>
   </g>
   <g id="line2d_15">
    <path clip-path="url(#p9a7446b34f)" d="M 147.665455 442.414753 
L 180.863191 441.724751 
L 201.808631 441.235344 
L 217.244699 440.731226 
L 229.496996 440.216017 
L 239.664474 439.43233 
L 248.357617 438.911219 
L 255.951807 438.199082 
L 262.694732 437.652205 
L 268.758576 437.078025 
L 274.267947 436.675845 
L 292.333315 434.188737 
L 306.219409 431.717679 
L 317.502064 429.265705 
L 327.005387 426.711604 
L 335.215033 424.310775 
L 342.441455 421.968711 
L 348.895212 419.695634 
L 354.725712 418.173084 
L 360.042816 415.594996 
L 364.929674 414.025128 
L 369.450738 411.865136 
L 373.656981 409.712057 
L 377.589409 407.627563 
L 378.533795 408.048892 
L 420.19133 378.509071 
L 461.964858 324.727681 
L 503.796891 254.094749 
L 545.658304 178.259349 
L 587.534439 356.995004 
L 629.417944 374.143447 
L 641.469135 363.181382 
L 671.305135 381.787039 
L 713.19417 385.490281 
L 755.084127 385.437148 
L 796.974545 403.680171 
" style="fill:none;stroke:#0cff0c;stroke-linecap:square;"/>
    <defs>
     <path d="M -2.5 2.5 
L 2.5 -2.5 
M -2.5 -2.5 
L 2.5 2.5 
" id="m5b22541f26" style="stroke:#0cff0c;"/>
    </defs>
    <g clip-path="url(#p9a7446b34f)">
     <use style="fill:#0cff0c;stroke:#0cff0c;" x="147.665455" xlink:href="#m5b22541f26" y="442.414753"/>
     <use style="fill:#0cff0c;stroke:#0cff0c;" x="180.863191" xlink:href="#m5b22541f26" y="441.724751"/>
     <use style="fill:#0cff0c;stroke:#0cff0c;" x="201.808631" xlink:href="#m5b22541f26" y="441.235344"/>
     <use style="fill:#0cff0c;stroke:#0cff0c;" x="217.244699" xlink:href="#m5b22541f26" y="440.731226"/>
     <use style="fill:#0cff0c;stroke:#0cff0c;" x="229.496996" xlink:href="#m5b22541f26" y="440.216017"/>
     <use style="fill:#0cff0c;stroke:#0cff0c;" x="239.664474" xlink:href="#m5b22541f26" y="439.43233"/>
     <use style="fill:#0cff0c;stroke:#0cff0c;" x="248.357617" xlink:href="#m5b22541f26" y="438.911219"/>
     <use style="fill:#0cff0c;stroke:#0cff0c;" x="255.951807" xlink:href="#m5b22541f26" y="438.199082"/>
     <use style="fill:#0cff0c;stroke:#0cff0c;" x="262.694732" xlink:href="#m5b22541f26" y="437.652205"/>
     <use style="fill:#0cff0c;stroke:#0cff0c;" x="268.758576" xlink:href="#m5b22541f26" y="437.078025"/>
     <use style="fill:#0cff0c;stroke:#0cff0c;" x="274.267947" xlink:href="#m5b22541f26" y="436.675845"/>
     <use style="fill:#0cff0c;stroke:#0cff0c;" x="292.333315" xlink:href="#m5b22541f26" y="434.188737"/>
     <use style="fill:#0cff0c;stroke:#0cff0c;" x="306.219409" xlink:href="#m5b22541f26" y="431.717679"/>
     <use style="fill:#0cff0c;stroke:#0cff0c;" x="317.502064" xlink:href="#m5b22541f26" y="429.265705"/>
     <use style="fill:#0cff0c;stroke:#0cff0c;" x="327.005387" xlink:href="#m5b22541f26" y="426.711604"/>
     <use style="fill:#0cff0c;stroke:#0cff0c;" x="335.215033" xlink:href="#m5b22541f26" y="424.310775"/>
     <use style="fill:#0cff0c;stroke:#0cff0c;" x="342.441455" xlink:href="#m5b22541f26" y="421.968711"/>
     <use style="fill:#0cff0c;stroke:#0cff0c;" x="348.895212" xlink:href="#m5b22541f26" y="419.695634"/>
     <use style="fill:#0cff0c;stroke:#0cff0c;" x="354.725712" xlink:href="#m5b22541f26" y="418.173084"/>
     <use style="fill:#0cff0c;stroke:#0cff0c;" x="360.042816" xlink:href="#m5b22541f26" y="415.594996"/>
     <use style="fill:#0cff0c;stroke:#0cff0c;" x="364.929674" xlink:href="#m5b22541f26" y="414.025128"/>
     <use style="fill:#0cff0c;stroke:#0cff0c;" x="369.450738" xlink:href="#m5b22541f26" y="411.865136"/>
     <use style="fill:#0cff0c;stroke:#0cff0c;" x="373.656981" xlink:href="#m5b22541f26" y="409.712057"/>
     <use style="fill:#0cff0c;stroke:#0cff0c;" x="377.589409" xlink:href="#m5b22541f26" y="407.627563"/>
     <use style="fill:#0cff0c;stroke:#0cff0c;" x="378.533795" xlink:href="#m5b22541f26" y="408.048892"/>
     <use style="fill:#0cff0c;stroke:#0cff0c;" x="420.19133" xlink:href="#m5b22541f26" y="378.509071"/>
     <use style="fill:#0cff0c;stroke:#0cff0c;" x="461.964858" xlink:href="#m5b22541f26" y="324.727681"/>
     <use style="fill:#0cff0c;stroke:#0cff0c;" x="503.796891" xlink:href="#m5b22541f26" y="254.094749"/>
     <use style="fill:#0cff0c;stroke:#0cff0c;" x="545.658304" xlink:href="#m5b22541f26" y="178.259349"/>
     <use style="fill:#0cff0c;stroke:#0cff0c;" x="587.534439" xlink:href="#m5b22541f26" y="356.995004"/>
     <use style="fill:#0cff0c;stroke:#0cff0c;" x="629.417944" xlink:href="#m5b22541f26" y="374.143447"/>
     <use style="fill:#0cff0c;stroke:#0cff0c;" x="641.469135" xlink:href="#m5b22541f26" y="363.181382"/>
     <use style="fill:#0cff0c;stroke:#0cff0c;" x="671.305135" xlink:href="#m5b22541f26" y="381.787039"/>
     <use style="fill:#0cff0c;stroke:#0cff0c;" x="713.19417" xlink:href="#m5b22541f26" y="385.490281"/>
     <use style="fill:#0cff0c;stroke:#0cff0c;" x="755.084127" xlink:href="#m5b22541f26" y="385.437148"/>
     <use style="fill:#0cff0c;stroke:#0cff0c;" x="796.974545" xlink:href="#m5b22541f26" y="403.680171"/>
    </g>
   </g>
   <g id="line2d_16">
    <path clip-path="url(#p9a7446b34f)" d="M 147.665455 441.868779 
L 180.863191 440.857126 
L 201.808631 439.827528 
L 217.244699 438.806227 
L 229.496996 437.902833 
L 239.664474 436.711402 
L 248.357617 435.867328 
L 255.951807 434.792338 
L 262.694732 433.998132 
L 268.758576 433.000474 
L 274.267947 431.91452 
L 292.333315 427.636488 
L 306.219409 422.476525 
L 317.502064 418.146832 
L 327.005387 412.767803 
L 335.215033 409.151603 
L 342.441455 405.255167 
L 348.895212 400.065082 
L 354.725712 395.813477 
L 360.042816 393.355362 
L 364.929674 388.167286 
L 369.450738 383.921971 
L 373.656981 379.709582 
L 377.589409 374.699844 
L 378.533795 373.959529 
L 420.19133 322.262505 
L 461.964858 255.9817 
L 503.796891 183.008832 
L 545.658304 100.024367 
L 587.534439 353.599407 
L 629.417944 363.946165 
L 641.469135 361.960136 
L 671.305135 377.287717 
L 713.19417 377.95021 
L 755.084127 376.452064 
L 796.974545 400.122745 
" style="fill:none;stroke:#e50000;stroke-linecap:square;"/>
    <defs>
     <path d="M -0 2.5 
L 2.5 -2.5 
L -2.5 -2.5 
z
" id="m801e9dbf82" style="stroke:#e50000;stroke-linejoin:miter;"/>
    </defs>
    <g clip-path="url(#p9a7446b34f)">
     <use style="fill:#e50000;stroke:#e50000;stroke-linejoin:miter;" x="147.665455" xlink:href="#m801e9dbf82" y="441.868779"/>
     <use style="fill:#e50000;stroke:#e50000;stroke-linejoin:miter;" x="180.863191" xlink:href="#m801e9dbf82" y="440.857126"/>
     <use style="fill:#e50000;stroke:#e50000;stroke-linejoin:miter;" x="201.808631" xlink:href="#m801e9dbf82" y="439.827528"/>
     <use style="fill:#e50000;stroke:#e50000;stroke-linejoin:miter;" x="217.244699" xlink:href="#m801e9dbf82" y="438.806227"/>
     <use style="fill:#e50000;stroke:#e50000;stroke-linejoin:miter;" x="229.496996" xlink:href="#m801e9dbf82" y="437.902833"/>
     <use style="fill:#e50000;stroke:#e50000;stroke-linejoin:miter;" x="239.664474" xlink:href="#m801e9dbf82" y="436.711402"/>
     <use style="fill:#e50000;stroke:#e50000;stroke-linejoin:miter;" x="248.357617" xlink:href="#m801e9dbf82" y="435.867328"/>
     <use style="fill:#e50000;stroke:#e50000;stroke-linejoin:miter;" x="255.951807" xlink:href="#m801e9dbf82" y="434.792338"/>
     <use style="fill:#e50000;stroke:#e50000;stroke-linejoin:miter;" x="262.694732" xlink:href="#m801e9dbf82" y="433.998132"/>
     <use style="fill:#e50000;stroke:#e50000;stroke-linejoin:miter;" x="268.758576" xlink:href="#m801e9dbf82" y="433.000474"/>
     <use style="fill:#e50000;stroke:#e50000;stroke-linejoin:miter;" x="274.267947" xlink:href="#m801e9dbf82" y="431.91452"/>
     <use style="fill:#e50000;stroke:#e50000;stroke-linejoin:miter;" x="292.333315" xlink:href="#m801e9dbf82" y="427.636488"/>
     <use style="fill:#e50000;stroke:#e50000;stroke-linejoin:miter;" x="306.219409" xlink:href="#m801e9dbf82" y="422.476525"/>
     <use style="fill:#e50000;stroke:#e50000;stroke-linejoin:miter;" x="317.502064" xlink:href="#m801e9dbf82" y="418.146832"/>
     <use style="fill:#e50000;stroke:#e50000;stroke-linejoin:miter;" x="327.005387" xlink:href="#m801e9dbf82" y="412.767803"/>
     <use style="fill:#e50000;stroke:#e50000;stroke-linejoin:miter;" x="335.215033" xlink:href="#m801e9dbf82" y="409.151603"/>
     <use style="fill:#e50000;stroke:#e50000;stroke-linejoin:miter;" x="342.441455" xlink:href="#m801e9dbf82" y="405.255167"/>
     <use style="fill:#e50000;stroke:#e50000;stroke-linejoin:miter;" x="348.895212" xlink:href="#m801e9dbf82" y="400.065082"/>
     <use style="fill:#e50000;stroke:#e50000;stroke-linejoin:miter;" x="354.725712" xlink:href="#m801e9dbf82" y="395.813477"/>
     <use style="fill:#e50000;stroke:#e50000;stroke-linejoin:miter;" x="360.042816" xlink:href="#m801e9dbf82" y="393.355362"/>
     <use style="fill:#e50000;stroke:#e50000;stroke-linejoin:miter;" x="364.929674" xlink:href="#m801e9dbf82" y="388.167286"/>
     <use style="fill:#e50000;stroke:#e50000;stroke-linejoin:miter;" x="369.450738" xlink:href="#m801e9dbf82" y="383.921971"/>
     <use style="fill:#e50000;stroke:#e50000;stroke-linejoin:miter;" x="373.656981" xlink:href="#m801e9dbf82" y="379.709582"/>
     <use style="fill:#e50000;stroke:#e50000;stroke-linejoin:miter;" x="377.589409" xlink:href="#m801e9dbf82" y="374.699844"/>
     <use style="fill:#e50000;stroke:#e50000;stroke-linejoin:miter;" x="378.533795" xlink:href="#m801e9dbf82" y="373.959529"/>
     <use style="fill:#e50000;stroke:#e50000;stroke-linejoin:miter;" x="420.19133" xlink:href="#m801e9dbf82" y="322.262505"/>
     <use style="fill:#e50000;stroke:#e50000;stroke-linejoin:miter;" x="461.964858" xlink:href="#m801e9dbf82" y="255.9817"/>
     <use style="fill:#e50000;stroke:#e50000;stroke-linejoin:miter;" x="503.796891" xlink:href="#m801e9dbf82" y="183.008832"/>
     <use style="fill:#e50000;stroke:#e50000;stroke-linejoin:miter;" x="545.658304" xlink:href="#m801e9dbf82" y="100.024367"/>
     <use style="fill:#e50000;stroke:#e50000;stroke-linejoin:miter;" x="587.534439" xlink:href="#m801e9dbf82" y="353.599407"/>
     <use style="fill:#e50000;stroke:#e50000;stroke-linejoin:miter;" x="629.417944" xlink:href="#m801e9dbf82" y="363.946165"/>
     <use style="fill:#e50000;stroke:#e50000;stroke-linejoin:miter;" x="641.469135" xlink:href="#m801e9dbf82" y="361.960136"/>
     <use style="fill:#e50000;stroke:#e50000;stroke-linejoin:miter;" x="671.305135" xlink:href="#m801e9dbf82" y="377.287717"/>
     <use style="fill:#e50000;stroke:#e50000;stroke-linejoin:miter;" x="713.19417" xlink:href="#m801e9dbf82" y="377.95021"/>
     <use style="fill:#e50000;stroke:#e50000;stroke-linejoin:miter;" x="755.084127" xlink:href="#m801e9dbf82" y="376.452064"/>
     <use style="fill:#e50000;stroke:#e50000;stroke-linejoin:miter;" x="796.974545" xlink:href="#m801e9dbf82" y="400.122745"/>
    </g>
   </g>
   <g id="line2d_17">
    <path clip-path="url(#p9a7446b34f)" d="M 147.665455 442.34788 
L 180.863191 441.498532 
L 201.808631 440.420103 
L 217.244699 439.707101 
L 229.496996 438.870863 
L 239.664474 437.679713 
L 248.357617 436.792591 
L 255.951807 436.082199 
L 262.694732 435.052064 
L 268.758576 433.939472 
L 274.267947 433.071341 
L 292.333315 429.189181 
L 306.219409 424.960666 
L 317.502064 420.89183 
L 327.005387 417.115472 
L 335.215033 413.728494 
L 342.441455 408.366974 
L 348.895212 404.873489 
L 354.725712 401.142659 
L 360.042816 398.019164 
L 364.929674 392.811259 
L 369.450738 389.822748 
L 373.656981 387.137431 
L 377.589409 384.578073 
L 378.533795 382.170528 
L 420.19133 349.645728 
L 461.964858 326.116909 
L 503.796891 290.16376 
L 545.658304 381.991407 
L 587.534439 412.623165 
L 629.417944 423.249107 
L 641.469135 421.774124 
L 671.305135 420.249495 
L 713.19417 419.117716 
L 755.084127 420.057728 
L 796.974545 436.830811 
" style="fill:none;stroke:#75bbfd;stroke-linecap:square;"/>
    <defs>
     <path d="M -2.5 2.5 
L 2.5 2.5 
L 2.5 -2.5 
L -2.5 -2.5 
z
" id="m615995291f" style="stroke:#75bbfd;stroke-linejoin:miter;"/>
    </defs>
    <g clip-path="url(#p9a7446b34f)">
     <use style="fill:#75bbfd;stroke:#75bbfd;stroke-linejoin:miter;" x="147.665455" xlink:href="#m615995291f" y="442.34788"/>
     <use style="fill:#75bbfd;stroke:#75bbfd;stroke-linejoin:miter;" x="180.863191" xlink:href="#m615995291f" y="441.498532"/>
     <use style="fill:#75bbfd;stroke:#75bbfd;stroke-linejoin:miter;" x="201.808631" xlink:href="#m615995291f" y="440.420103"/>
     <use style="fill:#75bbfd;stroke:#75bbfd;stroke-linejoin:miter;" x="217.244699" xlink:href="#m615995291f" y="439.707101"/>
     <use style="fill:#75bbfd;stroke:#75bbfd;stroke-linejoin:miter;" x="229.496996" xlink:href="#m615995291f" y="438.870863"/>
     <use style="fill:#75bbfd;stroke:#75bbfd;stroke-linejoin:miter;" x="239.664474" xlink:href="#m615995291f" y="437.679713"/>
     <use style="fill:#75bbfd;stroke:#75bbfd;stroke-linejoin:miter;" x="248.357617" xlink:href="#m615995291f" y="436.792591"/>
     <use style="fill:#75bbfd;stroke:#75bbfd;stroke-linejoin:miter;" x="255.951807" xlink:href="#m615995291f" y="436.082199"/>
     <use style="fill:#75bbfd;stroke:#75bbfd;stroke-linejoin:miter;" x="262.694732" xlink:href="#m615995291f" y="435.052064"/>
     <use style="fill:#75bbfd;stroke:#75bbfd;stroke-linejoin:miter;" x="268.758576" xlink:href="#m615995291f" y="433.939472"/>
     <use style="fill:#75bbfd;stroke:#75bbfd;stroke-linejoin:miter;" x="274.267947" xlink:href="#m615995291f" y="433.071341"/>
     <use style="fill:#75bbfd;stroke:#75bbfd;stroke-linejoin:miter;" x="292.333315" xlink:href="#m615995291f" y="429.189181"/>
     <use style="fill:#75bbfd;stroke:#75bbfd;stroke-linejoin:miter;" x="306.219409" xlink:href="#m615995291f" y="424.960666"/>
     <use style="fill:#75bbfd;stroke:#75bbfd;stroke-linejoin:miter;" x="317.502064" xlink:href="#m615995291f" y="420.89183"/>
     <use style="fill:#75bbfd;stroke:#75bbfd;stroke-linejoin:miter;" x="327.005387" xlink:href="#m615995291f" y="417.115472"/>
     <use style="fill:#75bbfd;stroke:#75bbfd;stroke-linejoin:miter;" x="335.215033" xlink:href="#m615995291f" y="413.728494"/>
     <use style="fill:#75bbfd;stroke:#75bbfd;stroke-linejoin:miter;" x="342.441455" xlink:href="#m615995291f" y="408.366974"/>
     <use style="fill:#75bbfd;stroke:#75bbfd;stroke-linejoin:miter;" x="348.895212" xlink:href="#m615995291f" y="404.873489"/>
     <use style="fill:#75bbfd;stroke:#75bbfd;stroke-linejoin:miter;" x="354.725712" xlink:href="#m615995291f" y="401.142659"/>
     <use style="fill:#75bbfd;stroke:#75bbfd;stroke-linejoin:miter;" x="360.042816" xlink:href="#m615995291f" y="398.019164"/>
     <use style="fill:#75bbfd;stroke:#75bbfd;stroke-linejoin:miter;" x="364.929674" xlink:href="#m615995291f" y="392.811259"/>
     <use style="fill:#75bbfd;stroke:#75bbfd;stroke-linejoin:miter;" x="369.450738" xlink:href="#m615995291f" y="389.822748"/>
     <use style="fill:#75bbfd;stroke:#75bbfd;stroke-linejoin:miter;" x="373.656981" xlink:href="#m615995291f" y="387.137431"/>
     <use style="fill:#75bbfd;stroke:#75bbfd;stroke-linejoin:miter;" x="377.589409" xlink:href="#m615995291f" y="384.578073"/>
     <use style="fill:#75bbfd;stroke:#75bbfd;stroke-linejoin:miter;" x="378.533795" xlink:href="#m615995291f" y="382.170528"/>
     <use style="fill:#75bbfd;stroke:#75bbfd;stroke-linejoin:miter;" x="420.19133" xlink:href="#m615995291f" y="349.645728"/>
     <use style="fill:#75bbfd;stroke:#75bbfd;stroke-linejoin:miter;" x="461.964858" xlink:href="#m615995291f" y="326.116909"/>
     <use style="fill:#75bbfd;stroke:#75bbfd;stroke-linejoin:miter;" x="503.796891" xlink:href="#m615995291f" y="290.16376"/>
     <use style="fill:#75bbfd;stroke:#75bbfd;stroke-linejoin:miter;" x="545.658304" xlink:href="#m615995291f" y="381.991407"/>
     <use style="fill:#75bbfd;stroke:#75bbfd;stroke-linejoin:miter;" x="587.534439" xlink:href="#m615995291f" y="412.623165"/>
     <use style="fill:#75bbfd;stroke:#75bbfd;stroke-linejoin:miter;" x="629.417944" xlink:href="#m615995291f" y="423.249107"/>
     <use style="fill:#75bbfd;stroke:#75bbfd;stroke-linejoin:miter;" x="641.469135" xlink:href="#m615995291f" y="421.774124"/>
     <use style="fill:#75bbfd;stroke:#75bbfd;stroke-linejoin:miter;" x="671.305135" xlink:href="#m615995291f" y="420.249495"/>
     <use style="fill:#75bbfd;stroke:#75bbfd;stroke-linejoin:miter;" x="713.19417" xlink:href="#m615995291f" y="419.117716"/>
     <use style="fill:#75bbfd;stroke:#75bbfd;stroke-linejoin:miter;" x="755.084127" xlink:href="#m615995291f" y="420.057728"/>
     <use style="fill:#75bbfd;stroke:#75bbfd;stroke-linejoin:miter;" x="796.974545" xlink:href="#m615995291f" y="436.830811"/>
    </g>
   </g>
   <g id="line2d_18">
    <path clip-path="url(#p9a7446b34f)" d="M 147.665455 441.744243 
L 180.863191 441.418905 
L 201.808631 440.867228 
L 217.244699 439.9867 
L 229.496996 439.409475 
L 239.664474 438.710501 
L 248.357617 438.014499 
L 255.951807 436.76474 
L 262.694732 436.107258 
L 268.758576 435.193546 
L 274.267947 434.203671 
L 292.333315 430.627588 
L 306.219409 427.381791 
L 317.502064 423.799404 
L 327.005387 421.646147 
L 335.215033 415.943737 
L 342.441455 414.559345 
L 348.895212 411.261146 
L 354.725712 406.55601 
L 360.042816 403.566 
L 364.929674 402.547629 
L 369.450738 398.844026 
L 373.656981 397.933714 
L 377.589409 392.79582 
L 378.533795 394.85006 
L 420.19133 361.679332 
L 461.964858 330.75815 
L 503.796891 304.54627 
L 545.658304 289.611572 
L 587.534439 364.660699 
L 629.417944 368.242662 
L 641.469135 382.563934 
L 671.305135 386.147938 
L 713.19417 389.559471 
L 755.084127 389.782339 
L 796.974545 402.538182 
" style="fill:none;stroke:#7e1e9c;stroke-linecap:square;"/>
    <defs>
     <path d="M 0 0 
L 0 2.5 
M 0 0 
L 2 -1.25 
M 0 0 
L -2 -1.25 
" id="mf0d346ee25" style="stroke:#7e1e9c;"/>
    </defs>
    <g clip-path="url(#p9a7446b34f)">
     <use style="fill:#7e1e9c;stroke:#7e1e9c;" x="147.665455" xlink:href="#mf0d346ee25" y="441.744243"/>
     <use style="fill:#7e1e9c;stroke:#7e1e9c;" x="180.863191" xlink:href="#mf0d346ee25" y="441.418905"/>
     <use style="fill:#7e1e9c;stroke:#7e1e9c;" x="201.808631" xlink:href="#mf0d346ee25" y="440.867228"/>
     <use style="fill:#7e1e9c;stroke:#7e1e9c;" x="217.244699" xlink:href="#mf0d346ee25" y="439.9867"/>
     <use style="fill:#7e1e9c;stroke:#7e1e9c;" x="229.496996" xlink:href="#mf0d346ee25" y="439.409475"/>
     <use style="fill:#7e1e9c;stroke:#7e1e9c;" x="239.664474" xlink:href="#mf0d346ee25" y="438.710501"/>
     <use style="fill:#7e1e9c;stroke:#7e1e9c;" x="248.357617" xlink:href="#mf0d346ee25" y="438.014499"/>
     <use style="fill:#7e1e9c;stroke:#7e1e9c;" x="255.951807" xlink:href="#mf0d346ee25" y="436.76474"/>
     <use style="fill:#7e1e9c;stroke:#7e1e9c;" x="262.694732" xlink:href="#mf0d346ee25" y="436.107258"/>
     <use style="fill:#7e1e9c;stroke:#7e1e9c;" x="268.758576" xlink:href="#mf0d346ee25" y="435.193546"/>
     <use style="fill:#7e1e9c;stroke:#7e1e9c;" x="274.267947" xlink:href="#mf0d346ee25" y="434.203671"/>
     <use style="fill:#7e1e9c;stroke:#7e1e9c;" x="292.333315" xlink:href="#mf0d346ee25" y="430.627588"/>
     <use style="fill:#7e1e9c;stroke:#7e1e9c;" x="306.219409" xlink:href="#mf0d346ee25" y="427.381791"/>
     <use style="fill:#7e1e9c;stroke:#7e1e9c;" x="317.502064" xlink:href="#mf0d346ee25" y="423.799404"/>
     <use style="fill:#7e1e9c;stroke:#7e1e9c;" x="327.005387" xlink:href="#mf0d346ee25" y="421.646147"/>
     <use style="fill:#7e1e9c;stroke:#7e1e9c;" x="335.215033" xlink:href="#mf0d346ee25" y="415.943737"/>
     <use style="fill:#7e1e9c;stroke:#7e1e9c;" x="342.441455" xlink:href="#mf0d346ee25" y="414.559345"/>
     <use style="fill:#7e1e9c;stroke:#7e1e9c;" x="348.895212" xlink:href="#mf0d346ee25" y="411.261146"/>
     <use style="fill:#7e1e9c;stroke:#7e1e9c;" x="354.725712" xlink:href="#mf0d346ee25" y="406.55601"/>
     <use style="fill:#7e1e9c;stroke:#7e1e9c;" x="360.042816" xlink:href="#mf0d346ee25" y="403.566"/>
     <use style="fill:#7e1e9c;stroke:#7e1e9c;" x="364.929674" xlink:href="#mf0d346ee25" y="402.547629"/>
     <use style="fill:#7e1e9c;stroke:#7e1e9c;" x="369.450738" xlink:href="#mf0d346ee25" y="398.844026"/>
     <use style="fill:#7e1e9c;stroke:#7e1e9c;" x="373.656981" xlink:href="#mf0d346ee25" y="397.933714"/>
     <use style="fill:#7e1e9c;stroke:#7e1e9c;" x="377.589409" xlink:href="#mf0d346ee25" y="392.79582"/>
     <use style="fill:#7e1e9c;stroke:#7e1e9c;" x="378.533795" xlink:href="#mf0d346ee25" y="394.85006"/>
     <use style="fill:#7e1e9c;stroke:#7e1e9c;" x="420.19133" xlink:href="#mf0d346ee25" y="361.679332"/>
     <use style="fill:#7e1e9c;stroke:#7e1e9c;" x="461.964858" xlink:href="#mf0d346ee25" y="330.75815"/>
     <use style="fill:#7e1e9c;stroke:#7e1e9c;" x="503.796891" xlink:href="#mf0d346ee25" y="304.54627"/>
     <use style="fill:#7e1e9c;stroke:#7e1e9c;" x="545.658304" xlink:href="#mf0d346ee25" y="289.611572"/>
     <use style="fill:#7e1e9c;stroke:#7e1e9c;" x="587.534439" xlink:href="#mf0d346ee25" y="364.660699"/>
     <use style="fill:#7e1e9c;stroke:#7e1e9c;" x="629.417944" xlink:href="#mf0d346ee25" y="368.242662"/>
     <use style="fill:#7e1e9c;stroke:#7e1e9c;" x="641.469135" xlink:href="#mf0d346ee25" y="382.563934"/>
     <use style="fill:#7e1e9c;stroke:#7e1e9c;" x="671.305135" xlink:href="#mf0d346ee25" y="386.147938"/>
     <use style="fill:#7e1e9c;stroke:#7e1e9c;" x="713.19417" xlink:href="#mf0d346ee25" y="389.559471"/>
     <use style="fill:#7e1e9c;stroke:#7e1e9c;" x="755.084127" xlink:href="#mf0d346ee25" y="389.782339"/>
     <use style="fill:#7e1e9c;stroke:#7e1e9c;" x="796.974545" xlink:href="#mf0d346ee25" y="402.538182"/>
    </g>
   </g>
   <g id="line2d_19">
    <path clip-path="url(#p9a7446b34f)" d="M 147.665455 441.921428 
L 180.863191 440.918236 
L 201.808631 440.010416 
L 217.244699 438.950907 
L 229.496996 438.031724 
L 239.664474 436.817136 
L 248.357617 435.928782 
L 255.951807 435.184448 
L 262.694732 434.025811 
L 268.758576 433.103878 
L 274.267947 432.472308 
L 292.333315 428.581904 
L 306.219409 423.760428 
L 317.502064 419.534405 
L 327.005387 415.563105 
L 335.215033 411.319393 
L 342.441455 407.060479 
L 348.895212 403.011287 
L 354.725712 398.595184 
L 360.042816 394.026321 
L 364.929674 390.209847 
L 369.450738 386.555882 
L 373.656981 382.659344 
L 377.589409 380.01377 
L 378.533795 377.783501 
L 420.19133 322.795805 
L 461.964858 252.905795 
L 503.796891 176.228306 
L 545.658304 80.2404 
L 587.534439 354.746495 
L 629.417944 367.204584 
L 641.469135 363.809359 
L 671.305135 380.768231 
L 713.19417 386.022544 
L 755.084127 387.618312 
L 796.974545 413.645483 
" style="fill:none;stroke:#40a368;stroke-linecap:square;"/>
    <defs>
     <path d="M -0 3.535534 
L 3.535534 0 
L 0 -3.535534 
L -3.535534 -0 
z
" id="m546b767ec2" style="stroke:#40a368;stroke-linejoin:miter;"/>
    </defs>
    <g clip-path="url(#p9a7446b34f)">
     <use style="fill:#40a368;stroke:#40a368;stroke-linejoin:miter;" x="147.665455" xlink:href="#m546b767ec2" y="441.921428"/>
     <use style="fill:#40a368;stroke:#40a368;stroke-linejoin:miter;" x="180.863191" xlink:href="#m546b767ec2" y="440.918236"/>
     <use style="fill:#40a368;stroke:#40a368;stroke-linejoin:miter;" x="201.808631" xlink:href="#m546b767ec2" y="440.010416"/>
     <use style="fill:#40a368;stroke:#40a368;stroke-linejoin:miter;" x="217.244699" xlink:href="#m546b767ec2" y="438.950907"/>
     <use style="fill:#40a368;stroke:#40a368;stroke-linejoin:miter;" x="229.496996" xlink:href="#m546b767ec2" y="438.031724"/>
     <use style="fill:#40a368;stroke:#40a368;stroke-linejoin:miter;" x="239.664474" xlink:href="#m546b767ec2" y="436.817136"/>
     <use style="fill:#40a368;stroke:#40a368;stroke-linejoin:miter;" x="248.357617" xlink:href="#m546b767ec2" y="435.928782"/>
     <use style="fill:#40a368;stroke:#40a368;stroke-linejoin:miter;" x="255.951807" xlink:href="#m546b767ec2" y="435.184448"/>
     <use style="fill:#40a368;stroke:#40a368;stroke-linejoin:miter;" x="262.694732" xlink:href="#m546b767ec2" y="434.025811"/>
     <use style="fill:#40a368;stroke:#40a368;stroke-linejoin:miter;" x="268.758576" xlink:href="#m546b767ec2" y="433.103878"/>
     <use style="fill:#40a368;stroke:#40a368;stroke-linejoin:miter;" x="274.267947" xlink:href="#m546b767ec2" y="432.472308"/>
     <use style="fill:#40a368;stroke:#40a368;stroke-linejoin:miter;" x="292.333315" xlink:href="#m546b767ec2" y="428.581904"/>
     <use style="fill:#40a368;stroke:#40a368;stroke-linejoin:miter;" x="306.219409" xlink:href="#m546b767ec2" y="423.760428"/>
     <use style="fill:#40a368;stroke:#40a368;stroke-linejoin:miter;" x="317.502064" xlink:href="#m546b767ec2" y="419.534405"/>
     <use style="fill:#40a368;stroke:#40a368;stroke-linejoin:miter;" x="327.005387" xlink:href="#m546b767ec2" y="415.563105"/>
     <use style="fill:#40a368;stroke:#40a368;stroke-linejoin:miter;" x="335.215033" xlink:href="#m546b767ec2" y="411.319393"/>
     <use style="fill:#40a368;stroke:#40a368;stroke-linejoin:miter;" x="342.441455" xlink:href="#m546b767ec2" y="407.060479"/>
     <use style="fill:#40a368;stroke:#40a368;stroke-linejoin:miter;" x="348.895212" xlink:href="#m546b767ec2" y="403.011287"/>
     <use style="fill:#40a368;stroke:#40a368;stroke-linejoin:miter;" x="354.725712" xlink:href="#m546b767ec2" y="398.595184"/>
     <use style="fill:#40a368;stroke:#40a368;stroke-linejoin:miter;" x="360.042816" xlink:href="#m546b767ec2" y="394.026321"/>
     <use style="fill:#40a368;stroke:#40a368;stroke-linejoin:miter;" x="364.929674" xlink:href="#m546b767ec2" y="390.209847"/>
     <use style="fill:#40a368;stroke:#40a368;stroke-linejoin:miter;" x="369.450738" xlink:href="#m546b767ec2" y="386.555882"/>
     <use style="fill:#40a368;stroke:#40a368;stroke-linejoin:miter;" x="373.656981" xlink:href="#m546b767ec2" y="382.659344"/>
     <use style="fill:#40a368;stroke:#40a368;stroke-linejoin:miter;" x="377.589409" xlink:href="#m546b767ec2" y="380.01377"/>
     <use style="fill:#40a368;stroke:#40a368;stroke-linejoin:miter;" x="378.533795" xlink:href="#m546b767ec2" y="377.783501"/>
     <use style="fill:#40a368;stroke:#40a368;stroke-linejoin:miter;" x="420.19133" xlink:href="#m546b767ec2" y="322.795805"/>
     <use style="fill:#40a368;stroke:#40a368;stroke-linejoin:miter;" x="461.964858" xlink:href="#m546b767ec2" y="252.905795"/>
     <use style="fill:#40a368;stroke:#40a368;stroke-linejoin:miter;" x="503.796891" xlink:href="#m546b767ec2" y="176.228306"/>
     <use style="fill:#40a368;stroke:#40a368;stroke-linejoin:miter;" x="545.658304" xlink:href="#m546b767ec2" y="80.2404"/>
     <use style="fill:#40a368;stroke:#40a368;stroke-linejoin:miter;" x="587.534439" xlink:href="#m546b767ec2" y="354.746495"/>
     <use style="fill:#40a368;stroke:#40a368;stroke-linejoin:miter;" x="629.417944" xlink:href="#m546b767ec2" y="367.204584"/>
     <use style="fill:#40a368;stroke:#40a368;stroke-linejoin:miter;" x="641.469135" xlink:href="#m546b767ec2" y="363.809359"/>
     <use style="fill:#40a368;stroke:#40a368;stroke-linejoin:miter;" x="671.305135" xlink:href="#m546b767ec2" y="380.768231"/>
     <use style="fill:#40a368;stroke:#40a368;stroke-linejoin:miter;" x="713.19417" xlink:href="#m546b767ec2" y="386.022544"/>
     <use style="fill:#40a368;stroke:#40a368;stroke-linejoin:miter;" x="755.084127" xlink:href="#m546b767ec2" y="387.618312"/>
     <use style="fill:#40a368;stroke:#40a368;stroke-linejoin:miter;" x="796.974545" xlink:href="#m546b767ec2" y="413.645483"/>
    </g>
   </g>
   <g id="line2d_20">
    <path clip-path="url(#p9a7446b34f)" d="M 378.533795 460.7352 
L 378.533795 62.1216 
" style="fill:none;stroke:#ff0000;stroke-linecap:square;stroke-opacity:0.5;stroke-width:3;"/>
   </g>
   <g id="patch_3">
    <path d="M 115.2 460.7352 
L 115.2 62.1216 
" style="fill:none;stroke:#000000;stroke-linecap:square;stroke-linejoin:miter;stroke-width:0.8;"/>
   </g>
   <g id="patch_4">
    <path d="M 829.44 460.7352 
L 829.44 62.1216 
" style="fill:none;stroke:#000000;stroke-linecap:square;stroke-linejoin:miter;stroke-width:0.8;"/>
   </g>
   <g id="patch_5">
    <path d="M 115.2 460.7352 
L 829.44 460.7352 
" style="fill:none;stroke:#000000;stroke-linecap:square;stroke-linejoin:miter;stroke-width:0.8;"/>
   </g>
   <g id="patch_6">
    <path d="M 115.2 62.1216 
L 829.44 62.1216 
" style="fill:none;stroke:#000000;stroke-linecap:square;stroke-linejoin:miter;stroke-width:0.8;"/>
   </g>
   <g id="text_16">
    <!-- Throughput for $\bf{generate}$ phase -->
    <defs>
     <path d="M -0.296875 72.90625 
L 61.375 72.90625 
L 61.375 64.59375 
L 35.5 64.59375 
L 35.5 0 
L 25.59375 0 
L 25.59375 64.59375 
L -0.296875 64.59375 
z
" id="DejaVuSans-84"/>
     <path d="M 54.890625 33.015625 
L 54.890625 0 
L 45.90625 0 
L 45.90625 32.71875 
Q 45.90625 40.484375 42.875 44.328125 
Q 39.84375 48.1875 33.796875 48.1875 
Q 26.515625 48.1875 22.3125 43.546875 
Q 18.109375 38.921875 18.109375 30.90625 
L 18.109375 0 
L 9.078125 0 
L 9.078125 75.984375 
L 18.109375 75.984375 
L 18.109375 46.1875 
Q 21.34375 51.125 25.703125 53.5625 
Q 30.078125 56 35.796875 56 
Q 45.21875 56 50.046875 50.171875 
Q 54.890625 44.34375 54.890625 33.015625 
z
" id="DejaVuSans-104"/>
     <path d="M 45.609375 9.28125 
Q 42 4.5 37.640625 2.25 
Q 33.296875 0 27.59375 0 
Q 17.578125 0 11.03125 7.875 
Q 4.5 15.765625 4.5 27.984375 
Q 4.5 40.234375 11.03125 48.0625 
Q 17.578125 55.90625 27.59375 55.90625 
Q 33.296875 55.90625 37.640625 53.65625 
Q 42 51.421875 45.609375 46.578125 
L 45.609375 54.6875 
L 63.1875 54.6875 
L 63.1875 5.515625 
Q 63.1875 -7.671875 54.859375 -14.625 
Q 46.53125 -21.578125 30.71875 -21.578125 
Q 25.59375 -21.578125 20.796875 -20.796875 
Q 16.015625 -20.015625 11.1875 -18.40625 
L 11.1875 -4.78125 
Q 15.765625 -7.421875 20.15625 -8.71875 
Q 24.5625 -10.015625 29 -10.015625 
Q 37.59375 -10.015625 41.59375 -6.25 
Q 45.609375 -2.484375 45.609375 5.515625 
z
M 34.078125 43.3125 
Q 28.65625 43.3125 25.625 39.296875 
Q 22.609375 35.296875 22.609375 27.984375 
Q 22.609375 20.453125 25.53125 16.578125 
Q 28.46875 12.703125 34.078125 12.703125 
Q 39.546875 12.703125 42.578125 16.703125 
Q 45.609375 20.703125 45.609375 27.984375 
Q 45.609375 35.296875 42.578125 39.296875 
Q 39.546875 43.3125 34.078125 43.3125 
z
" id="DejaVuSans-Bold-103"/>
     <path d="M 62.984375 27.484375 
L 62.984375 22.515625 
L 22.125 22.515625 
Q 22.75 16.359375 26.5625 13.28125 
Q 30.375 10.203125 37.203125 10.203125 
Q 42.71875 10.203125 48.5 11.84375 
Q 54.296875 13.484375 60.40625 16.796875 
L 60.40625 3.328125 
Q 54.203125 0.984375 48 -0.21875 
Q 41.796875 -1.421875 35.59375 -1.421875 
Q 20.75 -1.421875 12.515625 6.125 
Q 4.296875 13.671875 4.296875 27.296875 
Q 4.296875 40.671875 12.375 48.328125 
Q 20.453125 56 34.625 56 
Q 47.515625 56 55.25 48.234375 
Q 62.984375 40.484375 62.984375 27.484375 
z
M 45.015625 33.296875 
Q 45.015625 38.28125 42.109375 41.328125 
Q 39.203125 44.390625 34.515625 44.390625 
Q 29.4375 44.390625 26.265625 41.53125 
Q 23.09375 38.671875 22.3125 33.296875 
z
" id="DejaVuSans-Bold-101"/>
     <path d="M 63.375 33.296875 
L 63.375 0 
L 45.796875 0 
L 45.796875 5.421875 
L 45.796875 25.484375 
Q 45.796875 32.5625 45.484375 35.25 
Q 45.171875 37.9375 44.390625 39.203125 
Q 43.359375 40.921875 41.59375 41.875 
Q 39.84375 42.828125 37.59375 42.828125 
Q 32.125 42.828125 29 38.59375 
Q 25.875 34.375 25.875 26.90625 
L 25.875 0 
L 8.40625 0 
L 8.40625 54.6875 
L 25.875 54.6875 
L 25.875 46.6875 
Q 29.828125 51.46875 34.265625 53.734375 
Q 38.71875 56 44.09375 56 
Q 53.5625 56 58.46875 50.1875 
Q 63.375 44.390625 63.375 33.296875 
z
" id="DejaVuSans-Bold-110"/>
     <path d="M 49.03125 39.796875 
Q 46.734375 40.875 44.453125 41.375 
Q 42.1875 41.890625 39.890625 41.890625 
Q 33.15625 41.890625 29.515625 37.5625 
Q 25.875 33.25 25.875 25.203125 
L 25.875 0 
L 8.40625 0 
L 8.40625 54.6875 
L 25.875 54.6875 
L 25.875 45.703125 
Q 29.25 51.078125 33.609375 53.53125 
Q 37.984375 56 44.09375 56 
Q 44.96875 56 45.984375 55.921875 
Q 47.015625 55.859375 48.96875 55.609375 
z
" id="DejaVuSans-Bold-114"/>
     <path d="M 32.90625 24.609375 
Q 27.4375 24.609375 24.671875 22.75 
Q 21.921875 20.90625 21.921875 17.28125 
Q 21.921875 13.96875 24.140625 12.078125 
Q 26.375 10.203125 30.328125 10.203125 
Q 35.25 10.203125 38.625 13.734375 
Q 42 17.28125 42 22.609375 
L 42 24.609375 
z
M 59.625 31.203125 
L 59.625 0 
L 42 0 
L 42 8.109375 
Q 38.484375 3.125 34.078125 0.84375 
Q 29.6875 -1.421875 23.390625 -1.421875 
Q 14.890625 -1.421875 9.59375 3.53125 
Q 4.296875 8.5 4.296875 16.40625 
Q 4.296875 26.03125 10.90625 30.515625 
Q 17.53125 35.015625 31.6875 35.015625 
L 42 35.015625 
L 42 36.375 
Q 42 40.53125 38.71875 42.453125 
Q 35.453125 44.390625 28.515625 44.390625 
Q 22.90625 44.390625 18.0625 43.265625 
Q 13.234375 42.140625 9.078125 39.890625 
L 9.078125 53.21875 
Q 14.703125 54.59375 20.359375 55.296875 
Q 26.03125 56 31.6875 56 
Q 46.484375 56 53.046875 50.171875 
Q 59.625 44.34375 59.625 31.203125 
z
" id="DejaVuSans-Bold-97"/>
     <path d="M 27.484375 70.21875 
L 27.484375 54.6875 
L 45.515625 54.6875 
L 45.515625 42.1875 
L 27.484375 42.1875 
L 27.484375 19 
Q 27.484375 15.1875 29 13.84375 
Q 30.515625 12.5 35.015625 12.5 
L 44 12.5 
L 44 0 
L 29 0 
Q 18.65625 0 14.328125 4.3125 
Q 10.015625 8.640625 10.015625 19 
L 10.015625 42.1875 
L 1.3125 42.1875 
L 1.3125 54.6875 
L 10.015625 54.6875 
L 10.015625 70.21875 
z
" id="DejaVuSans-Bold-116"/>
    </defs>
    <g transform="translate(374.58 42.53985)scale(0.12 -0.12)">
     <use transform="translate(0 0.015625)" xlink:href="#DejaVuSans-84"/>
     <use transform="translate(61.083984 0.015625)" xlink:href="#DejaVuSans-104"/>
     <use transform="translate(124.462891 0.015625)" xlink:href="#DejaVuSans-114"/>
     <use transform="translate(165.576172 0.015625)" xlink:href="#DejaVuSans-111"/>
     <use transform="translate(226.757812 0.015625)" xlink:href="#DejaVuSans-117"/>
     <use transform="translate(290.136719 0.015625)" xlink:href="#DejaVuSans-103"/>
     <use transform="translate(353.613281 0.015625)" xlink:href="#DejaVuSans-104"/>
     <use transform="translate(416.992188 0.015625)" xlink:href="#DejaVuSans-112"/>
     <use transform="translate(480.46875 0.015625)" xlink:href="#DejaVuSans-117"/>
     <use transform="translate(543.847656 0.015625)" xlink:href="#DejaVuSans-116"/>
     <use transform="translate(583.056641 0.015625)" xlink:href="#DejaVuSans-32"/>
     <use transform="translate(614.84375 0.015625)" xlink:href="#DejaVuSans-102"/>
     <use transform="translate(650.048828 0.015625)" xlink:href="#DejaVuSans-111"/>
     <use transform="translate(711.230469 0.015625)" xlink:href="#DejaVuSans-114"/>
     <use transform="translate(752.34375 0.015625)" xlink:href="#DejaVuSans-32"/>
     <use transform="translate(784.130859 0.015625)" xlink:href="#DejaVuSans-Bold-103"/>
     <use transform="translate(855.712891 0.015625)" xlink:href="#DejaVuSans-Bold-101"/>
     <use transform="translate(923.535156 0.015625)" xlink:href="#DejaVuSans-Bold-110"/>
     <use transform="translate(994.726562 0.015625)" xlink:href="#DejaVuSans-Bold-101"/>
     <use transform="translate(1062.548828 0.015625)" xlink:href="#DejaVuSans-Bold-114"/>
     <use transform="translate(1111.865234 0.015625)" xlink:href="#DejaVuSans-Bold-97"/>
     <use transform="translate(1179.345703 0.015625)" xlink:href="#DejaVuSans-Bold-116"/>
     <use transform="translate(1227.148438 0.015625)" xlink:href="#DejaVuSans-Bold-101"/>
     <use transform="translate(1294.970703 0.015625)" xlink:href="#DejaVuSans-32"/>
     <use transform="translate(1326.757812 0.015625)" xlink:href="#DejaVuSans-112"/>
     <use transform="translate(1390.234375 0.015625)" xlink:href="#DejaVuSans-104"/>
     <use transform="translate(1453.613281 0.015625)" xlink:href="#DejaVuSans-97"/>
     <use transform="translate(1514.892578 0.015625)" xlink:href="#DejaVuSans-115"/>
     <use transform="translate(1566.992188 0.015625)" xlink:href="#DejaVuSans-101"/>
    </g>
    <!-- Higher is better -->
    <defs>
     <path d="M 9.8125 72.90625 
L 19.671875 72.90625 
L 19.671875 43.015625 
L 55.515625 43.015625 
L 55.515625 72.90625 
L 65.375 72.90625 
L 65.375 0 
L 55.515625 0 
L 55.515625 34.71875 
L 19.671875 34.71875 
L 19.671875 0 
L 9.8125 0 
z
" id="DejaVuSans-72"/>
    </defs>
    <g transform="translate(425.400937 56.1216)scale(0.12 -0.12)">
     <use xlink:href="#DejaVuSans-72"/>
     <use x="75.195312" xlink:href="#DejaVuSans-105"/>
     <use x="102.978516" xlink:href="#DejaVuSans-103"/>
     <use x="166.455078" xlink:href="#DejaVuSans-104"/>
     <use x="229.833984" xlink:href="#DejaVuSans-101"/>
     <use x="291.357422" xlink:href="#DejaVuSans-114"/>
     <use x="332.470703" xlink:href="#DejaVuSans-32"/>
     <use x="364.257812" xlink:href="#DejaVuSans-105"/>
     <use x="392.041016" xlink:href="#DejaVuSans-115"/>
     <use x="444.140625" xlink:href="#DejaVuSans-32"/>
     <use x="475.927734" xlink:href="#DejaVuSans-98"/>
     <use x="539.404297" xlink:href="#DejaVuSans-101"/>
     <use x="600.927734" xlink:href="#DejaVuSans-116"/>
     <use x="640.136719" xlink:href="#DejaVuSans-116"/>
     <use x="679.345703" xlink:href="#DejaVuSans-101"/>
     <use x="740.869141" xlink:href="#DejaVuSans-114"/>
    </g>
   </g>
   <g id="legend_1">
    <g id="patch_7">
     <path d="M 681.87125 173.424725 
L 822.44 173.424725 
Q 824.44 173.424725 824.44 171.424725 
L 824.44 69.1216 
Q 824.44 67.1216 822.44 67.1216 
L 681.87125 67.1216 
Q 679.87125 67.1216 679.87125 69.1216 
L 679.87125 171.424725 
Q 679.87125 173.424725 681.87125 173.424725 
z
" style="fill:#ffffff;opacity:0.8;stroke:#cccccc;stroke-linejoin:miter;"/>
    </g>
    <g id="line2d_21">
     <path d="M 683.87125 75.220037 
L 703.87125 75.220037 
" style="fill:none;stroke:#000000;stroke-linecap:square;"/>
    </g>
    <g id="line2d_22">
     <g>
      <use style="stroke:#000000;" x="693.87125" xlink:href="#ma1ece3625a" y="75.220037"/>
     </g>
    </g>
    <g id="text_17">
     <!-- AskingCrow -->
     <defs>
      <path d="M 34.1875 63.1875 
L 20.796875 26.90625 
L 47.609375 26.90625 
z
M 28.609375 72.90625 
L 39.796875 72.90625 
L 67.578125 0 
L 57.328125 0 
L 50.6875 18.703125 
L 17.828125 18.703125 
L 11.1875 0 
L 0.78125 0 
z
" id="DejaVuSans-65"/>
      <path d="M 9.078125 75.984375 
L 18.109375 75.984375 
L 18.109375 31.109375 
L 44.921875 54.6875 
L 56.390625 54.6875 
L 27.390625 29.109375 
L 57.625 0 
L 45.90625 0 
L 18.109375 26.703125 
L 18.109375 0 
L 9.078125 0 
z
" id="DejaVuSans-107"/>
      <path d="M 64.40625 67.28125 
L 64.40625 56.890625 
Q 59.421875 61.53125 53.78125 63.8125 
Q 48.140625 66.109375 41.796875 66.109375 
Q 29.296875 66.109375 22.65625 58.46875 
Q 16.015625 50.828125 16.015625 36.375 
Q 16.015625 21.96875 22.65625 14.328125 
Q 29.296875 6.6875 41.796875 6.6875 
Q 48.140625 6.6875 53.78125 8.984375 
Q 59.421875 11.28125 64.40625 15.921875 
L 64.40625 5.609375 
Q 59.234375 2.09375 53.4375 0.328125 
Q 47.65625 -1.421875 41.21875 -1.421875 
Q 24.65625 -1.421875 15.125 8.703125 
Q 5.609375 18.84375 5.609375 36.375 
Q 5.609375 53.953125 15.125 64.078125 
Q 24.65625 74.21875 41.21875 74.21875 
Q 47.75 74.21875 53.53125 72.484375 
Q 59.328125 70.75 64.40625 67.28125 
z
" id="DejaVuSans-67"/>
     </defs>
     <g transform="translate(711.87125 78.720037)scale(0.1 -0.1)">
      <use xlink:href="#DejaVuSans-65"/>
      <use x="68.408203" xlink:href="#DejaVuSans-115"/>
      <use x="120.507812" xlink:href="#DejaVuSans-107"/>
      <use x="178.417969" xlink:href="#DejaVuSans-105"/>
      <use x="206.201172" xlink:href="#DejaVuSans-110"/>
      <use x="269.580078" xlink:href="#DejaVuSans-103"/>
      <use x="333.056641" xlink:href="#DejaVuSans-67"/>
      <use x="402.880859" xlink:href="#DejaVuSans-114"/>
      <use x="443.962891" xlink:href="#DejaVuSans-111"/>
      <use x="505.144531" xlink:href="#DejaVuSans-119"/>
     </g>
    </g>
    <g id="line2d_23">
     <path d="M 683.87125 89.898163 
L 703.87125 89.898163 
" style="fill:none;stroke:#0652ff;stroke-linecap:square;"/>
    </g>
    <g id="line2d_24">
     <g>
      <use style="fill:#0652ff;stroke:#0652ff;" x="693.87125" xlink:href="#m13a783e96a" y="89.898163"/>
     </g>
    </g>
    <g id="text_18">
     <!-- BumbleBeetle -->
     <defs>
      <path d="M 19.671875 34.8125 
L 19.671875 8.109375 
L 35.5 8.109375 
Q 43.453125 8.109375 47.28125 11.40625 
Q 51.125 14.703125 51.125 21.484375 
Q 51.125 28.328125 47.28125 31.5625 
Q 43.453125 34.8125 35.5 34.8125 
z
M 19.671875 64.796875 
L 19.671875 42.828125 
L 34.28125 42.828125 
Q 41.5 42.828125 45.03125 45.53125 
Q 48.578125 48.25 48.578125 53.8125 
Q 48.578125 59.328125 45.03125 62.0625 
Q 41.5 64.796875 34.28125 64.796875 
z
M 9.8125 72.90625 
L 35.015625 72.90625 
Q 46.296875 72.90625 52.390625 68.21875 
Q 58.5 63.53125 58.5 54.890625 
Q 58.5 48.1875 55.375 44.234375 
Q 52.25 40.28125 46.1875 39.3125 
Q 53.46875 37.75 57.5 32.78125 
Q 61.53125 27.828125 61.53125 20.40625 
Q 61.53125 10.640625 54.890625 5.3125 
Q 48.25 0 35.984375 0 
L 9.8125 0 
z
" id="DejaVuSans-66"/>
     </defs>
     <g transform="translate(711.87125 93.398163)scale(0.1 -0.1)">
      <use xlink:href="#DejaVuSans-66"/>
      <use x="68.603516" xlink:href="#DejaVuSans-117"/>
      <use x="131.982422" xlink:href="#DejaVuSans-109"/>
      <use x="229.394531" xlink:href="#DejaVuSans-98"/>
      <use x="292.871094" xlink:href="#DejaVuSans-108"/>
      <use x="320.654297" xlink:href="#DejaVuSans-101"/>
      <use x="382.177734" xlink:href="#DejaVuSans-66"/>
      <use x="450.78125" xlink:href="#DejaVuSans-101"/>
      <use x="512.304688" xlink:href="#DejaVuSans-101"/>
      <use x="573.828125" xlink:href="#DejaVuSans-116"/>
      <use x="613.037109" xlink:href="#DejaVuSans-108"/>
      <use x="640.820312" xlink:href="#DejaVuSans-101"/>
     </g>
    </g>
    <g id="line2d_25">
     <path d="M 683.87125 104.576287 
L 703.87125 104.576287 
" style="fill:none;stroke:#0cff0c;stroke-linecap:square;"/>
    </g>
    <g id="line2d_26">
     <g>
      <use style="fill:#0cff0c;stroke:#0cff0c;" x="693.87125" xlink:href="#m5b22541f26" y="104.576287"/>
     </g>
    </g>
    <g id="text_19">
     <!-- CluelessWolverine -->
     <defs>
      <path d="M 3.328125 72.90625 
L 13.28125 72.90625 
L 28.609375 11.28125 
L 43.890625 72.90625 
L 54.984375 72.90625 
L 70.3125 11.28125 
L 85.59375 72.90625 
L 95.609375 72.90625 
L 77.296875 0 
L 64.890625 0 
L 49.515625 63.28125 
L 33.984375 0 
L 21.578125 0 
z
" id="DejaVuSans-87"/>
      <path d="M 2.984375 54.6875 
L 12.5 54.6875 
L 29.59375 8.796875 
L 46.6875 54.6875 
L 56.203125 54.6875 
L 35.6875 0 
L 23.484375 0 
z
" id="DejaVuSans-118"/>
     </defs>
     <g transform="translate(711.87125 108.076287)scale(0.1 -0.1)">
      <use xlink:href="#DejaVuSans-67"/>
      <use x="69.824219" xlink:href="#DejaVuSans-108"/>
      <use x="97.607422" xlink:href="#DejaVuSans-117"/>
      <use x="160.986328" xlink:href="#DejaVuSans-101"/>
      <use x="222.509766" xlink:href="#DejaVuSans-108"/>
      <use x="250.292969" xlink:href="#DejaVuSans-101"/>
      <use x="311.816406" xlink:href="#DejaVuSans-115"/>
      <use x="363.916016" xlink:href="#DejaVuSans-115"/>
      <use x="416.015625" xlink:href="#DejaVuSans-87"/>
      <use x="514.814453" xlink:href="#DejaVuSans-111"/>
      <use x="575.996094" xlink:href="#DejaVuSans-108"/>
      <use x="603.779297" xlink:href="#DejaVuSans-118"/>
      <use x="662.958984" xlink:href="#DejaVuSans-101"/>
      <use x="724.482422" xlink:href="#DejaVuSans-114"/>
      <use x="765.595703" xlink:href="#DejaVuSans-105"/>
      <use x="793.378906" xlink:href="#DejaVuSans-110"/>
      <use x="856.757812" xlink:href="#DejaVuSans-101"/>
     </g>
    </g>
    <g id="line2d_27">
     <path d="M 683.87125 119.254413 
L 703.87125 119.254413 
" style="fill:none;stroke:#e50000;stroke-linecap:square;"/>
    </g>
    <g id="line2d_28">
     <g>
      <use style="fill:#e50000;stroke:#e50000;stroke-linejoin:miter;" x="693.87125" xlink:href="#m801e9dbf82" y="119.254413"/>
     </g>
    </g>
    <g id="text_20">
     <!-- CluelessWolverine2 -->
     <g transform="translate(711.87125 122.754413)scale(0.1 -0.1)">
      <use xlink:href="#DejaVuSans-67"/>
      <use x="69.824219" xlink:href="#DejaVuSans-108"/>
      <use x="97.607422" xlink:href="#DejaVuSans-117"/>
      <use x="160.986328" xlink:href="#DejaVuSans-101"/>
      <use x="222.509766" xlink:href="#DejaVuSans-108"/>
      <use x="250.292969" xlink:href="#DejaVuSans-101"/>
      <use x="311.816406" xlink:href="#DejaVuSans-115"/>
      <use x="363.916016" xlink:href="#DejaVuSans-115"/>
      <use x="416.015625" xlink:href="#DejaVuSans-87"/>
      <use x="514.814453" xlink:href="#DejaVuSans-111"/>
      <use x="575.996094" xlink:href="#DejaVuSans-108"/>
      <use x="603.779297" xlink:href="#DejaVuSans-118"/>
      <use x="662.958984" xlink:href="#DejaVuSans-101"/>
      <use x="724.482422" xlink:href="#DejaVuSans-114"/>
      <use x="765.595703" xlink:href="#DejaVuSans-105"/>
      <use x="793.378906" xlink:href="#DejaVuSans-110"/>
      <use x="856.757812" xlink:href="#DejaVuSans-101"/>
      <use x="918.28125" xlink:href="#DejaVuSans-50"/>
     </g>
    </g>
    <g id="line2d_29">
     <path d="M 683.87125 133.932537 
L 703.87125 133.932537 
" style="fill:none;stroke:#75bbfd;stroke-linecap:square;"/>
    </g>
    <g id="line2d_30">
     <g>
      <use style="fill:#75bbfd;stroke:#75bbfd;stroke-linejoin:miter;" x="693.87125" xlink:href="#m615995291f" y="133.932537"/>
     </g>
    </g>
    <g id="text_21">
     <!-- Fortran4Ever -->
     <defs>
      <path d="M 9.8125 72.90625 
L 51.703125 72.90625 
L 51.703125 64.59375 
L 19.671875 64.59375 
L 19.671875 43.109375 
L 48.578125 43.109375 
L 48.578125 34.8125 
L 19.671875 34.8125 
L 19.671875 0 
L 9.8125 0 
z
" id="DejaVuSans-70"/>
      <path d="M 37.796875 64.3125 
L 12.890625 25.390625 
L 37.796875 25.390625 
z
M 35.203125 72.90625 
L 47.609375 72.90625 
L 47.609375 25.390625 
L 58.015625 25.390625 
L 58.015625 17.1875 
L 47.609375 17.1875 
L 47.609375 0 
L 37.796875 0 
L 37.796875 17.1875 
L 4.890625 17.1875 
L 4.890625 26.703125 
z
" id="DejaVuSans-52"/>
     </defs>
     <g transform="translate(711.87125 137.432537)scale(0.1 -0.1)">
      <use xlink:href="#DejaVuSans-70"/>
      <use x="57.472656" xlink:href="#DejaVuSans-111"/>
      <use x="118.654297" xlink:href="#DejaVuSans-114"/>
      <use x="159.767578" xlink:href="#DejaVuSans-116"/>
      <use x="198.976562" xlink:href="#DejaVuSans-114"/>
      <use x="240.089844" xlink:href="#DejaVuSans-97"/>
      <use x="301.369141" xlink:href="#DejaVuSans-110"/>
      <use x="364.748047" xlink:href="#DejaVuSans-52"/>
      <use x="428.371094" xlink:href="#DejaVuSans-69"/>
      <use x="491.554688" xlink:href="#DejaVuSans-118"/>
      <use x="550.734375" xlink:href="#DejaVuSans-101"/>
      <use x="612.257812" xlink:href="#DejaVuSans-114"/>
     </g>
    </g>
    <g id="line2d_31">
     <path d="M 683.87125 148.610662 
L 703.87125 148.610662 
" style="fill:none;stroke:#7e1e9c;stroke-linecap:square;"/>
    </g>
    <g id="line2d_32">
     <g>
      <use style="fill:#7e1e9c;stroke:#7e1e9c;" x="693.87125" xlink:href="#mf0d346ee25" y="148.610662"/>
     </g>
    </g>
    <g id="text_22">
     <!-- simple_basic_solution -->
     <defs>
      <path d="M 50.984375 -16.609375 
L 50.984375 -23.578125 
L -0.984375 -23.578125 
L -0.984375 -16.609375 
z
" id="DejaVuSans-95"/>
     </defs>
     <g transform="translate(711.87125 152.110662)scale(0.1 -0.1)">
      <use xlink:href="#DejaVuSans-115"/>
      <use x="52.099609" xlink:href="#DejaVuSans-105"/>
      <use x="79.882812" xlink:href="#DejaVuSans-109"/>
      <use x="177.294922" xlink:href="#DejaVuSans-112"/>
      <use x="240.771484" xlink:href="#DejaVuSans-108"/>
      <use x="268.554688" xlink:href="#DejaVuSans-101"/>
      <use x="330.078125" xlink:href="#DejaVuSans-95"/>
      <use x="380.078125" xlink:href="#DejaVuSans-98"/>
      <use x="443.554688" xlink:href="#DejaVuSans-97"/>
      <use x="504.833984" xlink:href="#DejaVuSans-115"/>
      <use x="556.933594" xlink:href="#DejaVuSans-105"/>
      <use x="584.716797" xlink:href="#DejaVuSans-99"/>
      <use x="639.697266" xlink:href="#DejaVuSans-95"/>
      <use x="689.697266" xlink:href="#DejaVuSans-115"/>
      <use x="741.796875" xlink:href="#DejaVuSans-111"/>
      <use x="802.978516" xlink:href="#DejaVuSans-108"/>
      <use x="830.761719" xlink:href="#DejaVuSans-117"/>
      <use x="894.140625" xlink:href="#DejaVuSans-116"/>
      <use x="933.349609" xlink:href="#DejaVuSans-105"/>
      <use x="961.132812" xlink:href="#DejaVuSans-111"/>
      <use x="1022.314453" xlink:href="#DejaVuSans-110"/>
     </g>
    </g>
    <g id="line2d_33">
     <path d="M 683.87125 163.566913 
L 703.87125 163.566913 
" style="fill:none;stroke:#40a368;stroke-linecap:square;"/>
    </g>
    <g id="line2d_34">
     <g>
      <use style="fill:#40a368;stroke:#40a368;stroke-linejoin:miter;" x="693.87125" xlink:href="#m546b767ec2" y="163.566913"/>
     </g>
    </g>
    <g id="text_23">
     <!-- user_usery -->
     <defs>
      <path d="M 32.171875 -5.078125 
Q 28.375 -14.84375 24.75 -17.8125 
Q 21.140625 -20.796875 15.09375 -20.796875 
L 7.90625 -20.796875 
L 7.90625 -13.28125 
L 13.1875 -13.28125 
Q 16.890625 -13.28125 18.9375 -11.515625 
Q 21 -9.765625 23.484375 -3.21875 
L 25.09375 0.875 
L 2.984375 54.6875 
L 12.5 54.6875 
L 29.59375 11.921875 
L 46.6875 54.6875 
L 56.203125 54.6875 
z
" id="DejaVuSans-121"/>
     </defs>
     <g transform="translate(711.87125 167.066913)scale(0.1 -0.1)">
      <use xlink:href="#DejaVuSans-117"/>
      <use x="63.378906" xlink:href="#DejaVuSans-115"/>
      <use x="115.478516" xlink:href="#DejaVuSans-101"/>
      <use x="177.001953" xlink:href="#DejaVuSans-114"/>
      <use x="218.115234" xlink:href="#DejaVuSans-95"/>
      <use x="268.115234" xlink:href="#DejaVuSans-117"/>
      <use x="331.494141" xlink:href="#DejaVuSans-115"/>
      <use x="383.59375" xlink:href="#DejaVuSans-101"/>
      <use x="445.117188" xlink:href="#DejaVuSans-114"/>
      <use x="486.230469" xlink:href="#DejaVuSans-121"/>
     </g>
    </g>
   </g>
  </g>
 </g>
 <defs>
  <clipPath id="p9a7446b34f">
   <rect height="398.6136" width="714.24" x="115.2" y="62.1216"/>
  </clipPath>
 </defs>
</svg>
