<?xml version="1.0" encoding="utf-8" standalone="no"?>
<!DOCTYPE svg PUBLIC "-//W3C//DTD SVG 1.1//EN"
  "http://www.w3.org/Graphics/SVG/1.1/DTD/svg11.dtd">
<!-- Created with matplotlib (https://matplotlib.org/) -->
<svg version="1.1" viewBox="0 0 921.6 517.68" xmlns="http://www.w3.org/2000/svg" xmlns:xlink="http://www.w3.org/1999/xlink">
 <defs>
  <style type="text/css">
*{stroke-linecap:butt;stroke-linejoin:round;}
  </style>
 </defs>
 <g id="figure_1">
  <g id="patch_1">
   <path d="M 0 517.68 
L 921.6 517.68 
L 921.6 0 
L 0 0 
z
" style="fill:#ffffff;"/>
  </g>
  <g id="axes_1">
   <g id="patch_2">
    <path d="M 115.2 460.7352 
L 829.44 460.7352 
L 829.44 62.1216 
L 115.2 62.1216 
z
" style="fill:#ffffff;"/>
   </g>
   <g id="matplotlib.axis_1">
    <g id="xtick_1">
     <g id="line2d_1">
      <defs>
       <path d="M 0 0 
L 0 3.5 
" id="me465344588" style="stroke:#000000;stroke-width:0.8;"/>
      </defs>
      <g>
       <use style="stroke:#000000;stroke-width:0.8;" x="217.244699" xlink:href="#me465344588" y="460.7352"/>
      </g>
     </g>
     <g id="text_1">
      <!-- $\mathdefault{10^{1}}$ -->
      <defs>
       <path d="M 12.40625 8.296875 
L 28.515625 8.296875 
L 28.515625 63.921875 
L 10.984375 60.40625 
L 10.984375 69.390625 
L 28.421875 72.90625 
L 38.28125 72.90625 
L 38.28125 8.296875 
L 54.390625 8.296875 
L 54.390625 0 
L 12.40625 0 
z
" id="DejaVuSans-49"/>
       <path d="M 31.78125 66.40625 
Q 24.171875 66.40625 20.328125 58.90625 
Q 16.5 51.421875 16.5 36.375 
Q 16.5 21.390625 20.328125 13.890625 
Q 24.171875 6.390625 31.78125 6.390625 
Q 39.453125 6.390625 43.28125 13.890625 
Q 47.125 21.390625 47.125 36.375 
Q 47.125 51.421875 43.28125 58.90625 
Q 39.453125 66.40625 31.78125 66.40625 
z
M 31.78125 74.21875 
Q 44.046875 74.21875 50.515625 64.515625 
Q 56.984375 54.828125 56.984375 36.375 
Q 56.984375 17.96875 50.515625 8.265625 
Q 44.046875 -1.421875 31.78125 -1.421875 
Q 19.53125 -1.421875 13.0625 8.265625 
Q 6.59375 17.96875 6.59375 36.375 
Q 6.59375 54.828125 13.0625 64.515625 
Q 19.53125 74.21875 31.78125 74.21875 
z
" id="DejaVuSans-48"/>
      </defs>
      <g transform="translate(208.444699 475.333638)scale(0.1 -0.1)">
       <use transform="translate(0 0.684375)" xlink:href="#DejaVuSans-49"/>
       <use transform="translate(63.623047 0.684375)" xlink:href="#DejaVuSans-48"/>
       <use transform="translate(128.203125 38.965625)scale(0.7)" xlink:href="#DejaVuSans-49"/>
      </g>
     </g>
    </g>
    <g id="xtick_2">
     <g id="line2d_2">
      <g>
       <use style="stroke:#000000;stroke-width:0.8;" x="356.403188" xlink:href="#me465344588" y="460.7352"/>
      </g>
     </g>
     <g id="text_2">
      <!-- $\mathdefault{10^{3}}$ -->
      <defs>
       <path d="M 40.578125 39.3125 
Q 47.65625 37.796875 51.625 33 
Q 55.609375 28.21875 55.609375 21.1875 
Q 55.609375 10.40625 48.1875 4.484375 
Q 40.765625 -1.421875 27.09375 -1.421875 
Q 22.515625 -1.421875 17.65625 -0.515625 
Q 12.796875 0.390625 7.625 2.203125 
L 7.625 11.71875 
Q 11.71875 9.328125 16.59375 8.109375 
Q 21.484375 6.890625 26.8125 6.890625 
Q 36.078125 6.890625 40.9375 10.546875 
Q 45.796875 14.203125 45.796875 21.1875 
Q 45.796875 27.640625 41.28125 31.265625 
Q 36.765625 34.90625 28.71875 34.90625 
L 20.21875 34.90625 
L 20.21875 43.015625 
L 29.109375 43.015625 
Q 36.375 43.015625 40.234375 45.921875 
Q 44.09375 48.828125 44.09375 54.296875 
Q 44.09375 59.90625 40.109375 62.90625 
Q 36.140625 65.921875 28.71875 65.921875 
Q 24.65625 65.921875 20.015625 65.03125 
Q 15.375 64.15625 9.8125 62.3125 
L 9.8125 71.09375 
Q 15.4375 72.65625 20.34375 73.4375 
Q 25.25 74.21875 29.59375 74.21875 
Q 40.828125 74.21875 47.359375 69.109375 
Q 53.90625 64.015625 53.90625 55.328125 
Q 53.90625 49.265625 50.4375 45.09375 
Q 46.96875 40.921875 40.578125 39.3125 
z
" id="DejaVuSans-51"/>
      </defs>
      <g transform="translate(347.603188 475.333638)scale(0.1 -0.1)">
       <use transform="translate(0 0.765625)" xlink:href="#DejaVuSans-49"/>
       <use transform="translate(63.623047 0.765625)" xlink:href="#DejaVuSans-48"/>
       <use transform="translate(128.203125 39.046875)scale(0.7)" xlink:href="#DejaVuSans-51"/>
      </g>
     </g>
    </g>
    <g id="xtick_3">
     <g id="line2d_3">
      <g>
       <use style="stroke:#000000;stroke-width:0.8;" x="495.561677" xlink:href="#me465344588" y="460.7352"/>
      </g>
     </g>
     <g id="text_3">
      <!-- $\mathdefault{10^{5}}$ -->
      <defs>
       <path d="M 10.796875 72.90625 
L 49.515625 72.90625 
L 49.515625 64.59375 
L 19.828125 64.59375 
L 19.828125 46.734375 
Q 21.96875 47.46875 24.109375 47.828125 
Q 26.265625 48.1875 28.421875 48.1875 
Q 40.625 48.1875 47.75 41.5 
Q 54.890625 34.8125 54.890625 23.390625 
Q 54.890625 11.625 47.5625 5.09375 
Q 40.234375 -1.421875 26.90625 -1.421875 
Q 22.3125 -1.421875 17.546875 -0.640625 
Q 12.796875 0.140625 7.71875 1.703125 
L 7.71875 11.625 
Q 12.109375 9.234375 16.796875 8.0625 
Q 21.484375 6.890625 26.703125 6.890625 
Q 35.15625 6.890625 40.078125 11.328125 
Q 45.015625 15.765625 45.015625 23.390625 
Q 45.015625 31 40.078125 35.4375 
Q 35.15625 39.890625 26.703125 39.890625 
Q 22.75 39.890625 18.8125 39.015625 
Q 14.890625 38.140625 10.796875 36.28125 
z
" id="DejaVuSans-53"/>
      </defs>
      <g transform="translate(486.761677 475.333638)scale(0.1 -0.1)">
       <use transform="translate(0 0.684375)" xlink:href="#DejaVuSans-49"/>
       <use transform="translate(63.623047 0.684375)" xlink:href="#DejaVuSans-48"/>
       <use transform="translate(128.203125 38.965625)scale(0.7)" xlink:href="#DejaVuSans-53"/>
      </g>
     </g>
    </g>
    <g id="xtick_4">
     <g id="line2d_4">
      <g>
       <use style="stroke:#000000;stroke-width:0.8;" x="634.720166" xlink:href="#me465344588" y="460.7352"/>
      </g>
     </g>
     <g id="text_4">
      <!-- $\mathdefault{10^{7}}$ -->
      <defs>
       <path d="M 8.203125 72.90625 
L 55.078125 72.90625 
L 55.078125 68.703125 
L 28.609375 0 
L 18.3125 0 
L 43.21875 64.59375 
L 8.203125 64.59375 
z
" id="DejaVuSans-55"/>
      </defs>
      <g transform="translate(625.920166 475.333638)scale(0.1 -0.1)">
       <use transform="translate(0 0.684375)" xlink:href="#DejaVuSans-49"/>
       <use transform="translate(63.623047 0.684375)" xlink:href="#DejaVuSans-48"/>
       <use transform="translate(128.203125 38.965625)scale(0.7)" xlink:href="#DejaVuSans-55"/>
      </g>
     </g>
    </g>
    <g id="xtick_5">
     <g id="line2d_5">
      <g>
       <use style="stroke:#000000;stroke-width:0.8;" x="773.878655" xlink:href="#me465344588" y="460.7352"/>
      </g>
     </g>
     <g id="text_5">
      <!-- $\mathdefault{10^{9}}$ -->
      <defs>
       <path d="M 10.984375 1.515625 
L 10.984375 10.5 
Q 14.703125 8.734375 18.5 7.8125 
Q 22.3125 6.890625 25.984375 6.890625 
Q 35.75 6.890625 40.890625 13.453125 
Q 46.046875 20.015625 46.78125 33.40625 
Q 43.953125 29.203125 39.59375 26.953125 
Q 35.25 24.703125 29.984375 24.703125 
Q 19.046875 24.703125 12.671875 31.3125 
Q 6.296875 37.9375 6.296875 49.421875 
Q 6.296875 60.640625 12.9375 67.421875 
Q 19.578125 74.21875 30.609375 74.21875 
Q 43.265625 74.21875 49.921875 64.515625 
Q 56.59375 54.828125 56.59375 36.375 
Q 56.59375 19.140625 48.40625 8.859375 
Q 40.234375 -1.421875 26.421875 -1.421875 
Q 22.703125 -1.421875 18.890625 -0.6875 
Q 15.09375 0.046875 10.984375 1.515625 
z
M 30.609375 32.421875 
Q 37.25 32.421875 41.125 36.953125 
Q 45.015625 41.5 45.015625 49.421875 
Q 45.015625 57.28125 41.125 61.84375 
Q 37.25 66.40625 30.609375 66.40625 
Q 23.96875 66.40625 20.09375 61.84375 
Q 16.21875 57.28125 16.21875 49.421875 
Q 16.21875 41.5 20.09375 36.953125 
Q 23.96875 32.421875 30.609375 32.421875 
z
" id="DejaVuSans-57"/>
      </defs>
      <g transform="translate(765.078655 475.333638)scale(0.1 -0.1)">
       <use transform="translate(0 0.765625)" xlink:href="#DejaVuSans-49"/>
       <use transform="translate(63.623047 0.765625)" xlink:href="#DejaVuSans-48"/>
       <use transform="translate(128.203125 39.046875)scale(0.7)" xlink:href="#DejaVuSans-57"/>
      </g>
     </g>
    </g>
    <g id="text_6">
     <!-- Number of elements in triangle (rows*(rows+1)/2) -->
     <defs>
      <path d="M 9.8125 72.90625 
L 23.09375 72.90625 
L 55.421875 11.921875 
L 55.421875 72.90625 
L 64.984375 72.90625 
L 64.984375 0 
L 51.703125 0 
L 19.390625 60.984375 
L 19.390625 0 
L 9.8125 0 
z
" id="DejaVuSans-78"/>
      <path d="M 8.5 21.578125 
L 8.5 54.6875 
L 17.484375 54.6875 
L 17.484375 21.921875 
Q 17.484375 14.15625 20.5 10.265625 
Q 23.53125 6.390625 29.59375 6.390625 
Q 36.859375 6.390625 41.078125 11.03125 
Q 45.3125 15.671875 45.3125 23.6875 
L 45.3125 54.6875 
L 54.296875 54.6875 
L 54.296875 0 
L 45.3125 0 
L 45.3125 8.40625 
Q 42.046875 3.421875 37.71875 1 
Q 33.40625 -1.421875 27.6875 -1.421875 
Q 18.265625 -1.421875 13.375 4.4375 
Q 8.5 10.296875 8.5 21.578125 
z
M 31.109375 56 
z
" id="DejaVuSans-117"/>
      <path d="M 52 44.1875 
Q 55.375 50.25 60.0625 53.125 
Q 64.75 56 71.09375 56 
Q 79.640625 56 84.28125 50.015625 
Q 88.921875 44.046875 88.921875 33.015625 
L 88.921875 0 
L 79.890625 0 
L 79.890625 32.71875 
Q 79.890625 40.578125 77.09375 44.375 
Q 74.3125 48.1875 68.609375 48.1875 
Q 61.625 48.1875 57.5625 43.546875 
Q 53.515625 38.921875 53.515625 30.90625 
L 53.515625 0 
L 44.484375 0 
L 44.484375 32.71875 
Q 44.484375 40.625 41.703125 44.40625 
Q 38.921875 48.1875 33.109375 48.1875 
Q 26.21875 48.1875 22.15625 43.53125 
Q 18.109375 38.875 18.109375 30.90625 
L 18.109375 0 
L 9.078125 0 
L 9.078125 54.6875 
L 18.109375 54.6875 
L 18.109375 46.1875 
Q 21.1875 51.21875 25.484375 53.609375 
Q 29.78125 56 35.6875 56 
Q 41.65625 56 45.828125 52.96875 
Q 50 49.953125 52 44.1875 
z
" id="DejaVuSans-109"/>
      <path d="M 48.6875 27.296875 
Q 48.6875 37.203125 44.609375 42.84375 
Q 40.53125 48.484375 33.40625 48.484375 
Q 26.265625 48.484375 22.1875 42.84375 
Q 18.109375 37.203125 18.109375 27.296875 
Q 18.109375 17.390625 22.1875 11.75 
Q 26.265625 6.109375 33.40625 6.109375 
Q 40.53125 6.109375 44.609375 11.75 
Q 48.6875 17.390625 48.6875 27.296875 
z
M 18.109375 46.390625 
Q 20.953125 51.265625 25.265625 53.625 
Q 29.59375 56 35.59375 56 
Q 45.5625 56 51.78125 48.09375 
Q 58.015625 40.1875 58.015625 27.296875 
Q 58.015625 14.40625 51.78125 6.484375 
Q 45.5625 -1.421875 35.59375 -1.421875 
Q 29.59375 -1.421875 25.265625 0.953125 
Q 20.953125 3.328125 18.109375 8.203125 
L 18.109375 0 
L 9.078125 0 
L 9.078125 75.984375 
L 18.109375 75.984375 
z
" id="DejaVuSans-98"/>
      <path d="M 56.203125 29.59375 
L 56.203125 25.203125 
L 14.890625 25.203125 
Q 15.484375 15.921875 20.484375 11.0625 
Q 25.484375 6.203125 34.421875 6.203125 
Q 39.59375 6.203125 44.453125 7.46875 
Q 49.3125 8.734375 54.109375 11.28125 
L 54.109375 2.78125 
Q 49.265625 0.734375 44.1875 -0.34375 
Q 39.109375 -1.421875 33.890625 -1.421875 
Q 20.796875 -1.421875 13.15625 6.1875 
Q 5.515625 13.8125 5.515625 26.8125 
Q 5.515625 40.234375 12.765625 48.109375 
Q 20.015625 56 32.328125 56 
Q 43.359375 56 49.78125 48.890625 
Q 56.203125 41.796875 56.203125 29.59375 
z
M 47.21875 32.234375 
Q 47.125 39.59375 43.09375 43.984375 
Q 39.0625 48.390625 32.421875 48.390625 
Q 24.90625 48.390625 20.390625 44.140625 
Q 15.875 39.890625 15.1875 32.171875 
z
" id="DejaVuSans-101"/>
      <path d="M 41.109375 46.296875 
Q 39.59375 47.171875 37.8125 47.578125 
Q 36.03125 48 33.890625 48 
Q 26.265625 48 22.1875 43.046875 
Q 18.109375 38.09375 18.109375 28.8125 
L 18.109375 0 
L 9.078125 0 
L 9.078125 54.6875 
L 18.109375 54.6875 
L 18.109375 46.1875 
Q 20.953125 51.171875 25.484375 53.578125 
Q 30.03125 56 36.53125 56 
Q 37.453125 56 38.578125 55.875 
Q 39.703125 55.765625 41.0625 55.515625 
z
" id="DejaVuSans-114"/>
      <path id="DejaVuSans-32"/>
      <path d="M 30.609375 48.390625 
Q 23.390625 48.390625 19.1875 42.75 
Q 14.984375 37.109375 14.984375 27.296875 
Q 14.984375 17.484375 19.15625 11.84375 
Q 23.34375 6.203125 30.609375 6.203125 
Q 37.796875 6.203125 41.984375 11.859375 
Q 46.1875 17.53125 46.1875 27.296875 
Q 46.1875 37.015625 41.984375 42.703125 
Q 37.796875 48.390625 30.609375 48.390625 
z
M 30.609375 56 
Q 42.328125 56 49.015625 48.375 
Q 55.71875 40.765625 55.71875 27.296875 
Q 55.71875 13.875 49.015625 6.21875 
Q 42.328125 -1.421875 30.609375 -1.421875 
Q 18.84375 -1.421875 12.171875 6.21875 
Q 5.515625 13.875 5.515625 27.296875 
Q 5.515625 40.765625 12.171875 48.375 
Q 18.84375 56 30.609375 56 
z
" id="DejaVuSans-111"/>
      <path d="M 37.109375 75.984375 
L 37.109375 68.5 
L 28.515625 68.5 
Q 23.6875 68.5 21.796875 66.546875 
Q 19.921875 64.59375 19.921875 59.515625 
L 19.921875 54.6875 
L 34.71875 54.6875 
L 34.71875 47.703125 
L 19.921875 47.703125 
L 19.921875 0 
L 10.890625 0 
L 10.890625 47.703125 
L 2.296875 47.703125 
L 2.296875 54.6875 
L 10.890625 54.6875 
L 10.890625 58.5 
Q 10.890625 67.625 15.140625 71.796875 
Q 19.390625 75.984375 28.609375 75.984375 
z
" id="DejaVuSans-102"/>
      <path d="M 9.421875 75.984375 
L 18.40625 75.984375 
L 18.40625 0 
L 9.421875 0 
z
" id="DejaVuSans-108"/>
      <path d="M 54.890625 33.015625 
L 54.890625 0 
L 45.90625 0 
L 45.90625 32.71875 
Q 45.90625 40.484375 42.875 44.328125 
Q 39.84375 48.1875 33.796875 48.1875 
Q 26.515625 48.1875 22.3125 43.546875 
Q 18.109375 38.921875 18.109375 30.90625 
L 18.109375 0 
L 9.078125 0 
L 9.078125 54.6875 
L 18.109375 54.6875 
L 18.109375 46.1875 
Q 21.34375 51.125 25.703125 53.5625 
Q 30.078125 56 35.796875 56 
Q 45.21875 56 50.046875 50.171875 
Q 54.890625 44.34375 54.890625 33.015625 
z
" id="DejaVuSans-110"/>
      <path d="M 18.3125 70.21875 
L 18.3125 54.6875 
L 36.8125 54.6875 
L 36.8125 47.703125 
L 18.3125 47.703125 
L 18.3125 18.015625 
Q 18.3125 11.328125 20.140625 9.421875 
Q 21.96875 7.515625 27.59375 7.515625 
L 36.8125 7.515625 
L 36.8125 0 
L 27.59375 0 
Q 17.1875 0 13.234375 3.875 
Q 9.28125 7.765625 9.28125 18.015625 
L 9.28125 47.703125 
L 2.6875 47.703125 
L 2.6875 54.6875 
L 9.28125 54.6875 
L 9.28125 70.21875 
z
" id="DejaVuSans-116"/>
      <path d="M 44.28125 53.078125 
L 44.28125 44.578125 
Q 40.484375 46.53125 36.375 47.5 
Q 32.28125 48.484375 27.875 48.484375 
Q 21.1875 48.484375 17.84375 46.4375 
Q 14.5 44.390625 14.5 40.28125 
Q 14.5 37.15625 16.890625 35.375 
Q 19.28125 33.59375 26.515625 31.984375 
L 29.59375 31.296875 
Q 39.15625 29.25 43.1875 25.515625 
Q 47.21875 21.78125 47.21875 15.09375 
Q 47.21875 7.46875 41.1875 3.015625 
Q 35.15625 -1.421875 24.609375 -1.421875 
Q 20.21875 -1.421875 15.453125 -0.5625 
Q 10.6875 0.296875 5.421875 2 
L 5.421875 11.28125 
Q 10.40625 8.6875 15.234375 7.390625 
Q 20.0625 6.109375 24.8125 6.109375 
Q 31.15625 6.109375 34.5625 8.28125 
Q 37.984375 10.453125 37.984375 14.40625 
Q 37.984375 18.0625 35.515625 20.015625 
Q 33.0625 21.96875 24.703125 23.78125 
L 21.578125 24.515625 
Q 13.234375 26.265625 9.515625 29.90625 
Q 5.8125 33.546875 5.8125 39.890625 
Q 5.8125 47.609375 11.28125 51.796875 
Q 16.75 56 26.8125 56 
Q 31.78125 56 36.171875 55.265625 
Q 40.578125 54.546875 44.28125 53.078125 
z
" id="DejaVuSans-115"/>
      <path d="M 9.421875 54.6875 
L 18.40625 54.6875 
L 18.40625 0 
L 9.421875 0 
z
M 9.421875 75.984375 
L 18.40625 75.984375 
L 18.40625 64.59375 
L 9.421875 64.59375 
z
" id="DejaVuSans-105"/>
      <path d="M 34.28125 27.484375 
Q 23.390625 27.484375 19.1875 25 
Q 14.984375 22.515625 14.984375 16.5 
Q 14.984375 11.71875 18.140625 8.90625 
Q 21.296875 6.109375 26.703125 6.109375 
Q 34.1875 6.109375 38.703125 11.40625 
Q 43.21875 16.703125 43.21875 25.484375 
L 43.21875 27.484375 
z
M 52.203125 31.203125 
L 52.203125 0 
L 43.21875 0 
L 43.21875 8.296875 
Q 40.140625 3.328125 35.546875 0.953125 
Q 30.953125 -1.421875 24.3125 -1.421875 
Q 15.921875 -1.421875 10.953125 3.296875 
Q 6 8.015625 6 15.921875 
Q 6 25.140625 12.171875 29.828125 
Q 18.359375 34.515625 30.609375 34.515625 
L 43.21875 34.515625 
L 43.21875 35.40625 
Q 43.21875 41.609375 39.140625 45 
Q 35.0625 48.390625 27.6875 48.390625 
Q 23 48.390625 18.546875 47.265625 
Q 14.109375 46.140625 10.015625 43.890625 
L 10.015625 52.203125 
Q 14.9375 54.109375 19.578125 55.046875 
Q 24.21875 56 28.609375 56 
Q 40.484375 56 46.34375 49.84375 
Q 52.203125 43.703125 52.203125 31.203125 
z
" id="DejaVuSans-97"/>
      <path d="M 45.40625 27.984375 
Q 45.40625 37.75 41.375 43.109375 
Q 37.359375 48.484375 30.078125 48.484375 
Q 22.859375 48.484375 18.828125 43.109375 
Q 14.796875 37.75 14.796875 27.984375 
Q 14.796875 18.265625 18.828125 12.890625 
Q 22.859375 7.515625 30.078125 7.515625 
Q 37.359375 7.515625 41.375 12.890625 
Q 45.40625 18.265625 45.40625 27.984375 
z
M 54.390625 6.78125 
Q 54.390625 -7.171875 48.1875 -13.984375 
Q 42 -20.796875 29.203125 -20.796875 
Q 24.46875 -20.796875 20.265625 -20.09375 
Q 16.0625 -19.390625 12.109375 -17.921875 
L 12.109375 -9.1875 
Q 16.0625 -11.328125 19.921875 -12.34375 
Q 23.78125 -13.375 27.78125 -13.375 
Q 36.625 -13.375 41.015625 -8.765625 
Q 45.40625 -4.15625 45.40625 5.171875 
L 45.40625 9.625 
Q 42.625 4.78125 38.28125 2.390625 
Q 33.9375 0 27.875 0 
Q 17.828125 0 11.671875 7.65625 
Q 5.515625 15.328125 5.515625 27.984375 
Q 5.515625 40.671875 11.671875 48.328125 
Q 17.828125 56 27.875 56 
Q 33.9375 56 38.28125 53.609375 
Q 42.625 51.21875 45.40625 46.390625 
L 45.40625 54.6875 
L 54.390625 54.6875 
z
" id="DejaVuSans-103"/>
      <path d="M 31 75.875 
Q 24.46875 64.65625 21.28125 53.65625 
Q 18.109375 42.671875 18.109375 31.390625 
Q 18.109375 20.125 21.3125 9.0625 
Q 24.515625 -2 31 -13.1875 
L 23.1875 -13.1875 
Q 15.875 -1.703125 12.234375 9.375 
Q 8.59375 20.453125 8.59375 31.390625 
Q 8.59375 42.28125 12.203125 53.3125 
Q 15.828125 64.359375 23.1875 75.875 
z
" id="DejaVuSans-40"/>
      <path d="M 4.203125 54.6875 
L 13.1875 54.6875 
L 24.421875 12.015625 
L 35.59375 54.6875 
L 46.1875 54.6875 
L 57.421875 12.015625 
L 68.609375 54.6875 
L 77.59375 54.6875 
L 63.28125 0 
L 52.6875 0 
L 40.921875 44.828125 
L 29.109375 0 
L 18.5 0 
z
" id="DejaVuSans-119"/>
      <path d="M 47.015625 60.890625 
L 29.5 51.421875 
L 47.015625 41.890625 
L 44.1875 37.109375 
L 27.78125 47.015625 
L 27.78125 28.609375 
L 22.21875 28.609375 
L 22.21875 47.015625 
L 5.8125 37.109375 
L 2.984375 41.890625 
L 20.515625 51.421875 
L 2.984375 60.890625 
L 5.8125 65.71875 
L 22.21875 55.8125 
L 22.21875 74.21875 
L 27.78125 74.21875 
L 27.78125 55.8125 
L 44.1875 65.71875 
z
" id="DejaVuSans-42"/>
      <path d="M 46 62.703125 
L 46 35.5 
L 73.1875 35.5 
L 73.1875 27.203125 
L 46 27.203125 
L 46 0 
L 37.796875 0 
L 37.796875 27.203125 
L 10.59375 27.203125 
L 10.59375 35.5 
L 37.796875 35.5 
L 37.796875 62.703125 
z
" id="DejaVuSans-43"/>
      <path d="M 8.015625 75.875 
L 15.828125 75.875 
Q 23.140625 64.359375 26.78125 53.3125 
Q 30.421875 42.28125 30.421875 31.390625 
Q 30.421875 20.453125 26.78125 9.375 
Q 23.140625 -1.703125 15.828125 -13.1875 
L 8.015625 -13.1875 
Q 14.5 -2 17.703125 9.0625 
Q 20.90625 20.125 20.90625 31.390625 
Q 20.90625 42.671875 17.703125 53.65625 
Q 14.5 64.65625 8.015625 75.875 
z
" id="DejaVuSans-41"/>
      <path d="M 25.390625 72.90625 
L 33.6875 72.90625 
L 8.296875 -9.28125 
L 0 -9.28125 
z
" id="DejaVuSans-47"/>
      <path d="M 19.1875 8.296875 
L 53.609375 8.296875 
L 53.609375 0 
L 7.328125 0 
L 7.328125 8.296875 
Q 12.9375 14.109375 22.625 23.890625 
Q 32.328125 33.6875 34.8125 36.53125 
Q 39.546875 41.84375 41.421875 45.53125 
Q 43.3125 49.21875 43.3125 52.78125 
Q 43.3125 58.59375 39.234375 62.25 
Q 35.15625 65.921875 28.609375 65.921875 
Q 23.96875 65.921875 18.8125 64.3125 
Q 13.671875 62.703125 7.8125 59.421875 
L 7.8125 69.390625 
Q 13.765625 71.78125 18.9375 73 
Q 24.125 74.21875 28.421875 74.21875 
Q 39.75 74.21875 46.484375 68.546875 
Q 53.21875 62.890625 53.21875 53.421875 
Q 53.21875 48.921875 51.53125 44.890625 
Q 49.859375 40.875 45.40625 35.40625 
Q 44.1875 33.984375 37.640625 27.21875 
Q 31.109375 20.453125 19.1875 8.296875 
z
" id="DejaVuSans-50"/>
     </defs>
     <g transform="translate(346.2575 489.011763)scale(0.1 -0.1)">
      <use xlink:href="#DejaVuSans-78"/>
      <use x="74.804688" xlink:href="#DejaVuSans-117"/>
      <use x="138.183594" xlink:href="#DejaVuSans-109"/>
      <use x="235.595703" xlink:href="#DejaVuSans-98"/>
      <use x="299.072266" xlink:href="#DejaVuSans-101"/>
      <use x="360.595703" xlink:href="#DejaVuSans-114"/>
      <use x="401.708984" xlink:href="#DejaVuSans-32"/>
      <use x="433.496094" xlink:href="#DejaVuSans-111"/>
      <use x="494.677734" xlink:href="#DejaVuSans-102"/>
      <use x="529.882812" xlink:href="#DejaVuSans-32"/>
      <use x="561.669922" xlink:href="#DejaVuSans-101"/>
      <use x="623.193359" xlink:href="#DejaVuSans-108"/>
      <use x="650.976562" xlink:href="#DejaVuSans-101"/>
      <use x="712.5" xlink:href="#DejaVuSans-109"/>
      <use x="809.912109" xlink:href="#DejaVuSans-101"/>
      <use x="871.435547" xlink:href="#DejaVuSans-110"/>
      <use x="934.814453" xlink:href="#DejaVuSans-116"/>
      <use x="974.023438" xlink:href="#DejaVuSans-115"/>
      <use x="1026.123047" xlink:href="#DejaVuSans-32"/>
      <use x="1057.910156" xlink:href="#DejaVuSans-105"/>
      <use x="1085.693359" xlink:href="#DejaVuSans-110"/>
      <use x="1149.072266" xlink:href="#DejaVuSans-32"/>
      <use x="1180.859375" xlink:href="#DejaVuSans-116"/>
      <use x="1220.068359" xlink:href="#DejaVuSans-114"/>
      <use x="1261.181641" xlink:href="#DejaVuSans-105"/>
      <use x="1288.964844" xlink:href="#DejaVuSans-97"/>
      <use x="1350.244141" xlink:href="#DejaVuSans-110"/>
      <use x="1413.623047" xlink:href="#DejaVuSans-103"/>
      <use x="1477.099609" xlink:href="#DejaVuSans-108"/>
      <use x="1504.882812" xlink:href="#DejaVuSans-101"/>
      <use x="1566.40625" xlink:href="#DejaVuSans-32"/>
      <use x="1598.193359" xlink:href="#DejaVuSans-40"/>
      <use x="1637.207031" xlink:href="#DejaVuSans-114"/>
      <use x="1678.289062" xlink:href="#DejaVuSans-111"/>
      <use x="1739.470703" xlink:href="#DejaVuSans-119"/>
      <use x="1821.257812" xlink:href="#DejaVuSans-115"/>
      <use x="1873.357422" xlink:href="#DejaVuSans-42"/>
      <use x="1923.357422" xlink:href="#DejaVuSans-40"/>
      <use x="1962.371094" xlink:href="#DejaVuSans-114"/>
      <use x="2003.453125" xlink:href="#DejaVuSans-111"/>
      <use x="2064.634766" xlink:href="#DejaVuSans-119"/>
      <use x="2146.421875" xlink:href="#DejaVuSans-115"/>
      <use x="2198.521484" xlink:href="#DejaVuSans-43"/>
      <use x="2282.310547" xlink:href="#DejaVuSans-49"/>
      <use x="2345.933594" xlink:href="#DejaVuSans-41"/>
      <use x="2384.947266" xlink:href="#DejaVuSans-47"/>
      <use x="2418.638672" xlink:href="#DejaVuSans-50"/>
      <use x="2482.261719" xlink:href="#DejaVuSans-41"/>
     </g>
    </g>
   </g>
   <g id="matplotlib.axis_2">
    <g id="ytick_1">
     <g id="line2d_6">
      <defs>
       <path d="M 0 0 
L -3.5 0 
" id="mf3b54e7fe5" style="stroke:#000000;stroke-width:0.8;"/>
      </defs>
      <g>
       <use style="stroke:#000000;stroke-width:0.8;" x="115.2" xlink:href="#mf3b54e7fe5" y="443.822088"/>
      </g>
     </g>
     <g id="text_7">
      <!-- 0.00 -->
      <defs>
       <path d="M 10.6875 12.40625 
L 21 12.40625 
L 21 0 
L 10.6875 0 
z
" id="DejaVuSans-46"/>
      </defs>
      <g transform="translate(85.934375 447.621307)scale(0.1 -0.1)">
       <use xlink:href="#DejaVuSans-48"/>
       <use x="63.623047" xlink:href="#DejaVuSans-46"/>
       <use x="95.410156" xlink:href="#DejaVuSans-48"/>
       <use x="159.033203" xlink:href="#DejaVuSans-48"/>
      </g>
     </g>
    </g>
    <g id="ytick_2">
     <g id="line2d_7">
      <g>
       <use style="stroke:#000000;stroke-width:0.8;" x="115.2" xlink:href="#mf3b54e7fe5" y="392.903858"/>
      </g>
     </g>
     <g id="text_8">
      <!-- 0.25 -->
      <g transform="translate(85.934375 396.703077)scale(0.1 -0.1)">
       <use xlink:href="#DejaVuSans-48"/>
       <use x="63.623047" xlink:href="#DejaVuSans-46"/>
       <use x="95.410156" xlink:href="#DejaVuSans-50"/>
       <use x="159.033203" xlink:href="#DejaVuSans-53"/>
      </g>
     </g>
    </g>
    <g id="ytick_3">
     <g id="line2d_8">
      <g>
       <use style="stroke:#000000;stroke-width:0.8;" x="115.2" xlink:href="#mf3b54e7fe5" y="341.985629"/>
      </g>
     </g>
     <g id="text_9">
      <!-- 0.50 -->
      <g transform="translate(85.934375 345.784848)scale(0.1 -0.1)">
       <use xlink:href="#DejaVuSans-48"/>
       <use x="63.623047" xlink:href="#DejaVuSans-46"/>
       <use x="95.410156" xlink:href="#DejaVuSans-53"/>
       <use x="159.033203" xlink:href="#DejaVuSans-48"/>
      </g>
     </g>
    </g>
    <g id="ytick_4">
     <g id="line2d_9">
      <g>
       <use style="stroke:#000000;stroke-width:0.8;" x="115.2" xlink:href="#mf3b54e7fe5" y="291.067399"/>
      </g>
     </g>
     <g id="text_10">
      <!-- 0.75 -->
      <g transform="translate(85.934375 294.866618)scale(0.1 -0.1)">
       <use xlink:href="#DejaVuSans-48"/>
       <use x="63.623047" xlink:href="#DejaVuSans-46"/>
       <use x="95.410156" xlink:href="#DejaVuSans-55"/>
       <use x="159.033203" xlink:href="#DejaVuSans-53"/>
      </g>
     </g>
    </g>
    <g id="ytick_5">
     <g id="line2d_10">
      <g>
       <use style="stroke:#000000;stroke-width:0.8;" x="115.2" xlink:href="#mf3b54e7fe5" y="240.14917"/>
      </g>
     </g>
     <g id="text_11">
      <!-- 1.00 -->
      <g transform="translate(85.934375 243.948388)scale(0.1 -0.1)">
       <use xlink:href="#DejaVuSans-49"/>
       <use x="63.623047" xlink:href="#DejaVuSans-46"/>
       <use x="95.410156" xlink:href="#DejaVuSans-48"/>
       <use x="159.033203" xlink:href="#DejaVuSans-48"/>
      </g>
     </g>
    </g>
    <g id="ytick_6">
     <g id="line2d_11">
      <g>
       <use style="stroke:#000000;stroke-width:0.8;" x="115.2" xlink:href="#mf3b54e7fe5" y="189.23094"/>
      </g>
     </g>
     <g id="text_12">
      <!-- 1.25 -->
      <g transform="translate(85.934375 193.030159)scale(0.1 -0.1)">
       <use xlink:href="#DejaVuSans-49"/>
       <use x="63.623047" xlink:href="#DejaVuSans-46"/>
       <use x="95.410156" xlink:href="#DejaVuSans-50"/>
       <use x="159.033203" xlink:href="#DejaVuSans-53"/>
      </g>
     </g>
    </g>
    <g id="ytick_7">
     <g id="line2d_12">
      <g>
       <use style="stroke:#000000;stroke-width:0.8;" x="115.2" xlink:href="#mf3b54e7fe5" y="138.31271"/>
      </g>
     </g>
     <g id="text_13">
      <!-- 1.50 -->
      <g transform="translate(85.934375 142.111929)scale(0.1 -0.1)">
       <use xlink:href="#DejaVuSans-49"/>
       <use x="63.623047" xlink:href="#DejaVuSans-46"/>
       <use x="95.410156" xlink:href="#DejaVuSans-53"/>
       <use x="159.033203" xlink:href="#DejaVuSans-48"/>
      </g>
     </g>
    </g>
    <g id="ytick_8">
     <g id="line2d_13">
      <g>
       <use style="stroke:#000000;stroke-width:0.8;" x="115.2" xlink:href="#mf3b54e7fe5" y="87.394481"/>
      </g>
     </g>
     <g id="text_14">
      <!-- 1.75 -->
      <g transform="translate(85.934375 91.193699)scale(0.1 -0.1)">
       <use xlink:href="#DejaVuSans-49"/>
       <use x="63.623047" xlink:href="#DejaVuSans-46"/>
       <use x="95.410156" xlink:href="#DejaVuSans-55"/>
       <use x="159.033203" xlink:href="#DejaVuSans-53"/>
      </g>
     </g>
    </g>
    <g id="text_15">
     <!-- Elements per second -->
     <defs>
      <path d="M 9.8125 72.90625 
L 55.90625 72.90625 
L 55.90625 64.59375 
L 19.671875 64.59375 
L 19.671875 43.015625 
L 54.390625 43.015625 
L 54.390625 34.71875 
L 19.671875 34.71875 
L 19.671875 8.296875 
L 56.78125 8.296875 
L 56.78125 0 
L 9.8125 0 
z
" id="DejaVuSans-69"/>
      <path d="M 18.109375 8.203125 
L 18.109375 -20.796875 
L 9.078125 -20.796875 
L 9.078125 54.6875 
L 18.109375 54.6875 
L 18.109375 46.390625 
Q 20.953125 51.265625 25.265625 53.625 
Q 29.59375 56 35.59375 56 
Q 45.5625 56 51.78125 48.09375 
Q 58.015625 40.1875 58.015625 27.296875 
Q 58.015625 14.40625 51.78125 6.484375 
Q 45.5625 -1.421875 35.59375 -1.421875 
Q 29.59375 -1.421875 25.265625 0.953125 
Q 20.953125 3.328125 18.109375 8.203125 
z
M 48.6875 27.296875 
Q 48.6875 37.203125 44.609375 42.84375 
Q 40.53125 48.484375 33.40625 48.484375 
Q 26.265625 48.484375 22.1875 42.84375 
Q 18.109375 37.203125 18.109375 27.296875 
Q 18.109375 17.390625 22.1875 11.75 
Q 26.265625 6.109375 33.40625 6.109375 
Q 40.53125 6.109375 44.609375 11.75 
Q 48.6875 17.390625 48.6875 27.296875 
z
" id="DejaVuSans-112"/>
      <path d="M 48.78125 52.59375 
L 48.78125 44.1875 
Q 44.96875 46.296875 41.140625 47.34375 
Q 37.3125 48.390625 33.40625 48.390625 
Q 24.65625 48.390625 19.8125 42.84375 
Q 14.984375 37.3125 14.984375 27.296875 
Q 14.984375 17.28125 19.8125 11.734375 
Q 24.65625 6.203125 33.40625 6.203125 
Q 37.3125 6.203125 41.140625 7.25 
Q 44.96875 8.296875 48.78125 10.40625 
L 48.78125 2.09375 
Q 45.015625 0.34375 40.984375 -0.53125 
Q 36.96875 -1.421875 32.421875 -1.421875 
Q 20.0625 -1.421875 12.78125 6.34375 
Q 5.515625 14.109375 5.515625 27.296875 
Q 5.515625 40.671875 12.859375 48.328125 
Q 20.21875 56 33.015625 56 
Q 37.15625 56 41.109375 55.140625 
Q 45.0625 54.296875 48.78125 52.59375 
z
" id="DejaVuSans-99"/>
      <path d="M 45.40625 46.390625 
L 45.40625 75.984375 
L 54.390625 75.984375 
L 54.390625 0 
L 45.40625 0 
L 45.40625 8.203125 
Q 42.578125 3.328125 38.25 0.953125 
Q 33.9375 -1.421875 27.875 -1.421875 
Q 17.96875 -1.421875 11.734375 6.484375 
Q 5.515625 14.40625 5.515625 27.296875 
Q 5.515625 40.1875 11.734375 48.09375 
Q 17.96875 56 27.875 56 
Q 33.9375 56 38.25 53.625 
Q 42.578125 51.265625 45.40625 46.390625 
z
M 14.796875 27.296875 
Q 14.796875 17.390625 18.875 11.75 
Q 22.953125 6.109375 30.078125 6.109375 
Q 37.203125 6.109375 41.296875 11.75 
Q 45.40625 17.390625 45.40625 27.296875 
Q 45.40625 37.203125 41.296875 42.84375 
Q 37.203125 48.484375 30.078125 48.484375 
Q 22.953125 48.484375 18.875 42.84375 
Q 14.796875 37.203125 14.796875 27.296875 
z
" id="DejaVuSans-100"/>
     </defs>
     <g transform="translate(79.854687 314.051056)rotate(-90)scale(0.1 -0.1)">
      <use xlink:href="#DejaVuSans-69"/>
      <use x="63.183594" xlink:href="#DejaVuSans-108"/>
      <use x="90.966797" xlink:href="#DejaVuSans-101"/>
      <use x="152.490234" xlink:href="#DejaVuSans-109"/>
      <use x="249.902344" xlink:href="#DejaVuSans-101"/>
      <use x="311.425781" xlink:href="#DejaVuSans-110"/>
      <use x="374.804688" xlink:href="#DejaVuSans-116"/>
      <use x="414.013672" xlink:href="#DejaVuSans-115"/>
      <use x="466.113281" xlink:href="#DejaVuSans-32"/>
      <use x="497.900391" xlink:href="#DejaVuSans-112"/>
      <use x="561.376953" xlink:href="#DejaVuSans-101"/>
      <use x="622.900391" xlink:href="#DejaVuSans-114"/>
      <use x="664.013672" xlink:href="#DejaVuSans-32"/>
      <use x="695.800781" xlink:href="#DejaVuSans-115"/>
      <use x="747.900391" xlink:href="#DejaVuSans-101"/>
      <use x="809.423828" xlink:href="#DejaVuSans-99"/>
      <use x="864.404297" xlink:href="#DejaVuSans-111"/>
      <use x="925.585938" xlink:href="#DejaVuSans-110"/>
      <use x="988.964844" xlink:href="#DejaVuSans-100"/>
     </g>
    </g>
    <g id="text_16">
     <!-- 1e9 -->
     <g transform="translate(115.2 59.1216)scale(0.1 -0.1)">
      <use xlink:href="#DejaVuSans-49"/>
      <use x="63.623047" xlink:href="#DejaVuSans-101"/>
      <use x="125.146484" xlink:href="#DejaVuSans-57"/>
     </g>
    </g>
   </g>
   <g id="line2d_14">
    <path clip-path="url(#pd9419f7ea4)" d="M 147.665455 442.540017 
L 180.863191 441.282712 
L 201.808631 440.458528 
L 217.244699 439.34839 
L 229.496996 438.273759 
L 239.664474 437.691783 
L 248.357617 436.440672 
L 255.951807 435.484053 
L 262.694732 433.866618 
L 268.758576 433.540458 
L 274.267947 432.851501 
L 292.333315 428.145982 
L 306.219409 424.567733 
L 317.502064 420.651382 
L 327.005387 416.315561 
L 335.215033 412.799135 
L 342.441455 409.958492 
L 348.895212 406.426028 
L 354.725712 402.876981 
L 360.042816 399.387969 
L 364.929674 395.997915 
L 369.450738 392.594647 
L 373.656981 389.294013 
L 377.589409 386.000424 
L 378.533795 384.545345 
L 420.19133 343.627789 
L 461.964858 288.186183 
L 503.796891 233.020963 
L 545.658304 176.098609 
L 587.534439 367.101733 
L 629.417944 380.360394 
L 641.469135 388.026678 
L 671.305135 389.571611 
L 713.19417 387.429058 
L 755.084127 388.208547 
L 796.974545 431.0051 
" style="fill:none;stroke:#000000;stroke-linecap:square;"/>
    <defs>
     <path d="M 0 2.5 
C 0.663008 2.5 1.29895 2.236584 1.767767 1.767767 
C 2.236584 1.29895 2.5 0.663008 2.5 0 
C 2.5 -0.663008 2.236584 -1.29895 1.767767 -1.767767 
C 1.29895 -2.236584 0.663008 -2.5 0 -2.5 
C -0.663008 -2.5 -1.29895 -2.236584 -1.767767 -1.767767 
C -2.236584 -1.29895 -2.5 -0.663008 -2.5 0 
C -2.5 0.663008 -2.236584 1.29895 -1.767767 1.767767 
C -1.29895 2.236584 -0.663008 2.5 0 2.5 
z
" id="mb186ea360d" style="stroke:#000000;"/>
    </defs>
    <g clip-path="url(#pd9419f7ea4)">
     <use style="stroke:#000000;" x="147.665455" xlink:href="#mb186ea360d" y="442.540017"/>
     <use style="stroke:#000000;" x="180.863191" xlink:href="#mb186ea360d" y="441.282712"/>
     <use style="stroke:#000000;" x="201.808631" xlink:href="#mb186ea360d" y="440.458528"/>
     <use style="stroke:#000000;" x="217.244699" xlink:href="#mb186ea360d" y="439.34839"/>
     <use style="stroke:#000000;" x="229.496996" xlink:href="#mb186ea360d" y="438.273759"/>
     <use style="stroke:#000000;" x="239.664474" xlink:href="#mb186ea360d" y="437.691783"/>
     <use style="stroke:#000000;" x="248.357617" xlink:href="#mb186ea360d" y="436.440672"/>
     <use style="stroke:#000000;" x="255.951807" xlink:href="#mb186ea360d" y="435.484053"/>
     <use style="stroke:#000000;" x="262.694732" xlink:href="#mb186ea360d" y="433.866618"/>
     <use style="stroke:#000000;" x="268.758576" xlink:href="#mb186ea360d" y="433.540458"/>
     <use style="stroke:#000000;" x="274.267947" xlink:href="#mb186ea360d" y="432.851501"/>
     <use style="stroke:#000000;" x="292.333315" xlink:href="#mb186ea360d" y="428.145982"/>
     <use style="stroke:#000000;" x="306.219409" xlink:href="#mb186ea360d" y="424.567733"/>
     <use style="stroke:#000000;" x="317.502064" xlink:href="#mb186ea360d" y="420.651382"/>
     <use style="stroke:#000000;" x="327.005387" xlink:href="#mb186ea360d" y="416.315561"/>
     <use style="stroke:#000000;" x="335.215033" xlink:href="#mb186ea360d" y="412.799135"/>
     <use style="stroke:#000000;" x="342.441455" xlink:href="#mb186ea360d" y="409.958492"/>
     <use style="stroke:#000000;" x="348.895212" xlink:href="#mb186ea360d" y="406.426028"/>
     <use style="stroke:#000000;" x="354.725712" xlink:href="#mb186ea360d" y="402.876981"/>
     <use style="stroke:#000000;" x="360.042816" xlink:href="#mb186ea360d" y="399.387969"/>
     <use style="stroke:#000000;" x="364.929674" xlink:href="#mb186ea360d" y="395.997915"/>
     <use style="stroke:#000000;" x="369.450738" xlink:href="#mb186ea360d" y="392.594647"/>
     <use style="stroke:#000000;" x="373.656981" xlink:href="#mb186ea360d" y="389.294013"/>
     <use style="stroke:#000000;" x="377.589409" xlink:href="#mb186ea360d" y="386.000424"/>
     <use style="stroke:#000000;" x="378.533795" xlink:href="#mb186ea360d" y="384.545345"/>
     <use style="stroke:#000000;" x="420.19133" xlink:href="#mb186ea360d" y="343.627789"/>
     <use style="stroke:#000000;" x="461.964858" xlink:href="#mb186ea360d" y="288.186183"/>
     <use style="stroke:#000000;" x="503.796891" xlink:href="#mb186ea360d" y="233.020963"/>
     <use style="stroke:#000000;" x="545.658304" xlink:href="#mb186ea360d" y="176.098609"/>
     <use style="stroke:#000000;" x="587.534439" xlink:href="#mb186ea360d" y="367.101733"/>
     <use style="stroke:#000000;" x="629.417944" xlink:href="#mb186ea360d" y="380.360394"/>
     <use style="stroke:#000000;" x="641.469135" xlink:href="#mb186ea360d" y="388.026678"/>
     <use style="stroke:#000000;" x="671.305135" xlink:href="#mb186ea360d" y="389.571611"/>
     <use style="stroke:#000000;" x="713.19417" xlink:href="#mb186ea360d" y="387.429058"/>
     <use style="stroke:#000000;" x="755.084127" xlink:href="#mb186ea360d" y="388.208547"/>
     <use style="stroke:#000000;" x="796.974545" xlink:href="#mb186ea360d" y="431.0051"/>
    </g>
   </g>
   <g id="line2d_15">
    <path clip-path="url(#pd9419f7ea4)" d="M 147.665455 442.6164 
L 180.863191 441.935383 
L 201.808631 441.013059 
L 217.244699 440.608635 
L 229.496996 439.72963 
L 239.664474 438.621401 
L 248.357617 437.906724 
L 255.951807 437.208087 
L 262.694732 436.572027 
L 268.758576 436.00291 
L 274.267947 435.923137 
L 292.333315 433.437084 
L 306.219409 430.800763 
L 317.502064 429.639289 
L 327.005387 427.800194 
L 335.215033 426.014095 
L 342.441455 424.535844 
L 348.895212 423.179695 
L 354.725712 421.642026 
L 360.042816 420.852188 
L 364.929674 419.867187 
L 369.450738 418.391616 
L 373.656981 416.843699 
L 377.589409 416.160598 
L 378.533795 415.938071 
L 420.19133 406.071876 
L 461.964858 394.193267 
L 503.796891 387.869296 
L 545.658304 385.0925 
L 587.534439 383.369954 
L 629.417944 383.049935 
L 641.469135 388.896166 
L 671.305135 383.952835 
L 713.19417 383.455437 
L 755.084127 383.729334 
L 796.974545 384.673417 
" style="fill:none;stroke:#0652ff;stroke-linecap:square;"/>
    <defs>
     <path d="M -2.5 0 
L 2.5 0 
M 0 2.5 
L 0 -2.5 
" id="m24e57ac584" style="stroke:#0652ff;"/>
    </defs>
    <g clip-path="url(#pd9419f7ea4)">
     <use style="fill:#0652ff;stroke:#0652ff;" x="147.665455" xlink:href="#m24e57ac584" y="442.6164"/>
     <use style="fill:#0652ff;stroke:#0652ff;" x="180.863191" xlink:href="#m24e57ac584" y="441.935383"/>
     <use style="fill:#0652ff;stroke:#0652ff;" x="201.808631" xlink:href="#m24e57ac584" y="441.013059"/>
     <use style="fill:#0652ff;stroke:#0652ff;" x="217.244699" xlink:href="#m24e57ac584" y="440.608635"/>
     <use style="fill:#0652ff;stroke:#0652ff;" x="229.496996" xlink:href="#m24e57ac584" y="439.72963"/>
     <use style="fill:#0652ff;stroke:#0652ff;" x="239.664474" xlink:href="#m24e57ac584" y="438.621401"/>
     <use style="fill:#0652ff;stroke:#0652ff;" x="248.357617" xlink:href="#m24e57ac584" y="437.906724"/>
     <use style="fill:#0652ff;stroke:#0652ff;" x="255.951807" xlink:href="#m24e57ac584" y="437.208087"/>
     <use style="fill:#0652ff;stroke:#0652ff;" x="262.694732" xlink:href="#m24e57ac584" y="436.572027"/>
     <use style="fill:#0652ff;stroke:#0652ff;" x="268.758576" xlink:href="#m24e57ac584" y="436.00291"/>
     <use style="fill:#0652ff;stroke:#0652ff;" x="274.267947" xlink:href="#m24e57ac584" y="435.923137"/>
     <use style="fill:#0652ff;stroke:#0652ff;" x="292.333315" xlink:href="#m24e57ac584" y="433.437084"/>
     <use style="fill:#0652ff;stroke:#0652ff;" x="306.219409" xlink:href="#m24e57ac584" y="430.800763"/>
     <use style="fill:#0652ff;stroke:#0652ff;" x="317.502064" xlink:href="#m24e57ac584" y="429.639289"/>
     <use style="fill:#0652ff;stroke:#0652ff;" x="327.005387" xlink:href="#m24e57ac584" y="427.800194"/>
     <use style="fill:#0652ff;stroke:#0652ff;" x="335.215033" xlink:href="#m24e57ac584" y="426.014095"/>
     <use style="fill:#0652ff;stroke:#0652ff;" x="342.441455" xlink:href="#m24e57ac584" y="424.535844"/>
     <use style="fill:#0652ff;stroke:#0652ff;" x="348.895212" xlink:href="#m24e57ac584" y="423.179695"/>
     <use style="fill:#0652ff;stroke:#0652ff;" x="354.725712" xlink:href="#m24e57ac584" y="421.642026"/>
     <use style="fill:#0652ff;stroke:#0652ff;" x="360.042816" xlink:href="#m24e57ac584" y="420.852188"/>
     <use style="fill:#0652ff;stroke:#0652ff;" x="364.929674" xlink:href="#m24e57ac584" y="419.867187"/>
     <use style="fill:#0652ff;stroke:#0652ff;" x="369.450738" xlink:href="#m24e57ac584" y="418.391616"/>
     <use style="fill:#0652ff;stroke:#0652ff;" x="373.656981" xlink:href="#m24e57ac584" y="416.843699"/>
     <use style="fill:#0652ff;stroke:#0652ff;" x="377.589409" xlink:href="#m24e57ac584" y="416.160598"/>
     <use style="fill:#0652ff;stroke:#0652ff;" x="378.533795" xlink:href="#m24e57ac584" y="415.938071"/>
     <use style="fill:#0652ff;stroke:#0652ff;" x="420.19133" xlink:href="#m24e57ac584" y="406.071876"/>
     <use style="fill:#0652ff;stroke:#0652ff;" x="461.964858" xlink:href="#m24e57ac584" y="394.193267"/>
     <use style="fill:#0652ff;stroke:#0652ff;" x="503.796891" xlink:href="#m24e57ac584" y="387.869296"/>
     <use style="fill:#0652ff;stroke:#0652ff;" x="545.658304" xlink:href="#m24e57ac584" y="385.0925"/>
     <use style="fill:#0652ff;stroke:#0652ff;" x="587.534439" xlink:href="#m24e57ac584" y="383.369954"/>
     <use style="fill:#0652ff;stroke:#0652ff;" x="629.417944" xlink:href="#m24e57ac584" y="383.049935"/>
     <use style="fill:#0652ff;stroke:#0652ff;" x="641.469135" xlink:href="#m24e57ac584" y="388.896166"/>
     <use style="fill:#0652ff;stroke:#0652ff;" x="671.305135" xlink:href="#m24e57ac584" y="383.952835"/>
     <use style="fill:#0652ff;stroke:#0652ff;" x="713.19417" xlink:href="#m24e57ac584" y="383.455437"/>
     <use style="fill:#0652ff;stroke:#0652ff;" x="755.084127" xlink:href="#m24e57ac584" y="383.729334"/>
     <use style="fill:#0652ff;stroke:#0652ff;" x="796.974545" xlink:href="#m24e57ac584" y="384.673417"/>
    </g>
   </g>
   <g id="line2d_16">
    <path clip-path="url(#pd9419f7ea4)" d="M 147.665455 414.959686 
L 180.863191 414.50027 
L 201.808631 415.457786 
L 217.244699 416.17305 
L 229.496996 416.725835 
L 239.664474 417.134448 
L 248.357617 417.433659 
L 255.951807 417.657629 
L 262.694732 417.862109 
L 268.758576 418.051911 
L 274.267947 419.094049 
L 292.333315 418.775573 
L 306.219409 418.911646 
L 317.502064 418.978346 
L 327.005387 418.957676 
L 335.215033 419.170743 
L 342.441455 419.926466 
L 348.895212 419.215883 
L 354.725712 419.342591 
L 360.042816 419.333226 
L 364.929674 419.330998 
L 369.450738 419.475708 
L 373.656981 419.529366 
L 377.589409 419.425343 
L 378.533795 419.44189 
L 420.19133 419.458876 
L 461.964858 419.423754 
L 503.796891 419.461125 
L 545.658304 419.287674 
L 587.534439 419.182038 
L 629.417944 419.251696 
L 641.469135 419.186006 
L 671.305135 419.127844 
L 713.19417 419.679575 
L 755.084127 419.503398 
L 796.974545 419.474512 
" style="fill:none;stroke:#0cff0c;stroke-linecap:square;"/>
    <defs>
     <path d="M -2.5 2.5 
L 2.5 -2.5 
M -2.5 -2.5 
L 2.5 2.5 
" id="m1ff43ace5a" style="stroke:#0cff0c;"/>
    </defs>
    <g clip-path="url(#pd9419f7ea4)">
     <use style="fill:#0cff0c;stroke:#0cff0c;" x="147.665455" xlink:href="#m1ff43ace5a" y="414.959686"/>
     <use style="fill:#0cff0c;stroke:#0cff0c;" x="180.863191" xlink:href="#m1ff43ace5a" y="414.50027"/>
     <use style="fill:#0cff0c;stroke:#0cff0c;" x="201.808631" xlink:href="#m1ff43ace5a" y="415.457786"/>
     <use style="fill:#0cff0c;stroke:#0cff0c;" x="217.244699" xlink:href="#m1ff43ace5a" y="416.17305"/>
     <use style="fill:#0cff0c;stroke:#0cff0c;" x="229.496996" xlink:href="#m1ff43ace5a" y="416.725835"/>
     <use style="fill:#0cff0c;stroke:#0cff0c;" x="239.664474" xlink:href="#m1ff43ace5a" y="417.134448"/>
     <use style="fill:#0cff0c;stroke:#0cff0c;" x="248.357617" xlink:href="#m1ff43ace5a" y="417.433659"/>
     <use style="fill:#0cff0c;stroke:#0cff0c;" x="255.951807" xlink:href="#m1ff43ace5a" y="417.657629"/>
     <use style="fill:#0cff0c;stroke:#0cff0c;" x="262.694732" xlink:href="#m1ff43ace5a" y="417.862109"/>
     <use style="fill:#0cff0c;stroke:#0cff0c;" x="268.758576" xlink:href="#m1ff43ace5a" y="418.051911"/>
     <use style="fill:#0cff0c;stroke:#0cff0c;" x="274.267947" xlink:href="#m1ff43ace5a" y="419.094049"/>
     <use style="fill:#0cff0c;stroke:#0cff0c;" x="292.333315" xlink:href="#m1ff43ace5a" y="418.775573"/>
     <use style="fill:#0cff0c;stroke:#0cff0c;" x="306.219409" xlink:href="#m1ff43ace5a" y="418.911646"/>
     <use style="fill:#0cff0c;stroke:#0cff0c;" x="317.502064" xlink:href="#m1ff43ace5a" y="418.978346"/>
     <use style="fill:#0cff0c;stroke:#0cff0c;" x="327.005387" xlink:href="#m1ff43ace5a" y="418.957676"/>
     <use style="fill:#0cff0c;stroke:#0cff0c;" x="335.215033" xlink:href="#m1ff43ace5a" y="419.170743"/>
     <use style="fill:#0cff0c;stroke:#0cff0c;" x="342.441455" xlink:href="#m1ff43ace5a" y="419.926466"/>
     <use style="fill:#0cff0c;stroke:#0cff0c;" x="348.895212" xlink:href="#m1ff43ace5a" y="419.215883"/>
     <use style="fill:#0cff0c;stroke:#0cff0c;" x="354.725712" xlink:href="#m1ff43ace5a" y="419.342591"/>
     <use style="fill:#0cff0c;stroke:#0cff0c;" x="360.042816" xlink:href="#m1ff43ace5a" y="419.333226"/>
     <use style="fill:#0cff0c;stroke:#0cff0c;" x="364.929674" xlink:href="#m1ff43ace5a" y="419.330998"/>
     <use style="fill:#0cff0c;stroke:#0cff0c;" x="369.450738" xlink:href="#m1ff43ace5a" y="419.475708"/>
     <use style="fill:#0cff0c;stroke:#0cff0c;" x="373.656981" xlink:href="#m1ff43ace5a" y="419.529366"/>
     <use style="fill:#0cff0c;stroke:#0cff0c;" x="377.589409" xlink:href="#m1ff43ace5a" y="419.425343"/>
     <use style="fill:#0cff0c;stroke:#0cff0c;" x="378.533795" xlink:href="#m1ff43ace5a" y="419.44189"/>
     <use style="fill:#0cff0c;stroke:#0cff0c;" x="420.19133" xlink:href="#m1ff43ace5a" y="419.458876"/>
     <use style="fill:#0cff0c;stroke:#0cff0c;" x="461.964858" xlink:href="#m1ff43ace5a" y="419.423754"/>
     <use style="fill:#0cff0c;stroke:#0cff0c;" x="503.796891" xlink:href="#m1ff43ace5a" y="419.461125"/>
     <use style="fill:#0cff0c;stroke:#0cff0c;" x="545.658304" xlink:href="#m1ff43ace5a" y="419.287674"/>
     <use style="fill:#0cff0c;stroke:#0cff0c;" x="587.534439" xlink:href="#m1ff43ace5a" y="419.182038"/>
     <use style="fill:#0cff0c;stroke:#0cff0c;" x="629.417944" xlink:href="#m1ff43ace5a" y="419.251696"/>
     <use style="fill:#0cff0c;stroke:#0cff0c;" x="641.469135" xlink:href="#m1ff43ace5a" y="419.186006"/>
     <use style="fill:#0cff0c;stroke:#0cff0c;" x="671.305135" xlink:href="#m1ff43ace5a" y="419.127844"/>
     <use style="fill:#0cff0c;stroke:#0cff0c;" x="713.19417" xlink:href="#m1ff43ace5a" y="419.679575"/>
     <use style="fill:#0cff0c;stroke:#0cff0c;" x="755.084127" xlink:href="#m1ff43ace5a" y="419.503398"/>
     <use style="fill:#0cff0c;stroke:#0cff0c;" x="796.974545" xlink:href="#m1ff43ace5a" y="419.474512"/>
    </g>
   </g>
   <g id="line2d_17">
    <path clip-path="url(#pd9419f7ea4)" d="M 147.665455 427.741034 
L 180.863191 416.196613 
L 201.808631 411.533745 
L 217.244699 410.494816 
L 229.496996 409.324141 
L 239.664474 409.061513 
L 248.357617 409.166441 
L 255.951807 409.533642 
L 262.694732 410.095371 
L 268.758576 410.517838 
L 274.267947 412.198614 
L 292.333315 412.488307 
L 306.219409 414.243273 
L 317.502064 414.807575 
L 327.005387 415.047981 
L 335.215033 415.533318 
L 342.441455 416.798276 
L 348.895212 416.131665 
L 354.725712 416.320511 
L 360.042816 416.490497 
L 364.929674 416.63038 
L 369.450738 416.811751 
L 373.656981 416.962036 
L 377.589409 417.172205 
L 378.533795 417.038617 
L 420.19133 417.927918 
L 461.964858 417.742607 
L 503.796891 417.632326 
L 545.658304 421.310767 
L 587.534439 420.138952 
L 629.417944 419.644259 
L 641.469135 417.739233 
L 671.305135 417.754142 
L 713.19417 418.316243 
L 755.084127 417.908421 
L 796.974545 417.743508 
" style="fill:none;stroke:#e50000;stroke-linecap:square;"/>
    <defs>
     <path d="M -0 2.5 
L 2.5 -2.5 
L -2.5 -2.5 
z
" id="m8420e85904" style="stroke:#e50000;stroke-linejoin:miter;"/>
    </defs>
    <g clip-path="url(#pd9419f7ea4)">
     <use style="fill:#e50000;stroke:#e50000;stroke-linejoin:miter;" x="147.665455" xlink:href="#m8420e85904" y="427.741034"/>
     <use style="fill:#e50000;stroke:#e50000;stroke-linejoin:miter;" x="180.863191" xlink:href="#m8420e85904" y="416.196613"/>
     <use style="fill:#e50000;stroke:#e50000;stroke-linejoin:miter;" x="201.808631" xlink:href="#m8420e85904" y="411.533745"/>
     <use style="fill:#e50000;stroke:#e50000;stroke-linejoin:miter;" x="217.244699" xlink:href="#m8420e85904" y="410.494816"/>
     <use style="fill:#e50000;stroke:#e50000;stroke-linejoin:miter;" x="229.496996" xlink:href="#m8420e85904" y="409.324141"/>
     <use style="fill:#e50000;stroke:#e50000;stroke-linejoin:miter;" x="239.664474" xlink:href="#m8420e85904" y="409.061513"/>
     <use style="fill:#e50000;stroke:#e50000;stroke-linejoin:miter;" x="248.357617" xlink:href="#m8420e85904" y="409.166441"/>
     <use style="fill:#e50000;stroke:#e50000;stroke-linejoin:miter;" x="255.951807" xlink:href="#m8420e85904" y="409.533642"/>
     <use style="fill:#e50000;stroke:#e50000;stroke-linejoin:miter;" x="262.694732" xlink:href="#m8420e85904" y="410.095371"/>
     <use style="fill:#e50000;stroke:#e50000;stroke-linejoin:miter;" x="268.758576" xlink:href="#m8420e85904" y="410.517838"/>
     <use style="fill:#e50000;stroke:#e50000;stroke-linejoin:miter;" x="274.267947" xlink:href="#m8420e85904" y="412.198614"/>
     <use style="fill:#e50000;stroke:#e50000;stroke-linejoin:miter;" x="292.333315" xlink:href="#m8420e85904" y="412.488307"/>
     <use style="fill:#e50000;stroke:#e50000;stroke-linejoin:miter;" x="306.219409" xlink:href="#m8420e85904" y="414.243273"/>
     <use style="fill:#e50000;stroke:#e50000;stroke-linejoin:miter;" x="317.502064" xlink:href="#m8420e85904" y="414.807575"/>
     <use style="fill:#e50000;stroke:#e50000;stroke-linejoin:miter;" x="327.005387" xlink:href="#m8420e85904" y="415.047981"/>
     <use style="fill:#e50000;stroke:#e50000;stroke-linejoin:miter;" x="335.215033" xlink:href="#m8420e85904" y="415.533318"/>
     <use style="fill:#e50000;stroke:#e50000;stroke-linejoin:miter;" x="342.441455" xlink:href="#m8420e85904" y="416.798276"/>
     <use style="fill:#e50000;stroke:#e50000;stroke-linejoin:miter;" x="348.895212" xlink:href="#m8420e85904" y="416.131665"/>
     <use style="fill:#e50000;stroke:#e50000;stroke-linejoin:miter;" x="354.725712" xlink:href="#m8420e85904" y="416.320511"/>
     <use style="fill:#e50000;stroke:#e50000;stroke-linejoin:miter;" x="360.042816" xlink:href="#m8420e85904" y="416.490497"/>
     <use style="fill:#e50000;stroke:#e50000;stroke-linejoin:miter;" x="364.929674" xlink:href="#m8420e85904" y="416.63038"/>
     <use style="fill:#e50000;stroke:#e50000;stroke-linejoin:miter;" x="369.450738" xlink:href="#m8420e85904" y="416.811751"/>
     <use style="fill:#e50000;stroke:#e50000;stroke-linejoin:miter;" x="373.656981" xlink:href="#m8420e85904" y="416.962036"/>
     <use style="fill:#e50000;stroke:#e50000;stroke-linejoin:miter;" x="377.589409" xlink:href="#m8420e85904" y="417.172205"/>
     <use style="fill:#e50000;stroke:#e50000;stroke-linejoin:miter;" x="378.533795" xlink:href="#m8420e85904" y="417.038617"/>
     <use style="fill:#e50000;stroke:#e50000;stroke-linejoin:miter;" x="420.19133" xlink:href="#m8420e85904" y="417.927918"/>
     <use style="fill:#e50000;stroke:#e50000;stroke-linejoin:miter;" x="461.964858" xlink:href="#m8420e85904" y="417.742607"/>
     <use style="fill:#e50000;stroke:#e50000;stroke-linejoin:miter;" x="503.796891" xlink:href="#m8420e85904" y="417.632326"/>
     <use style="fill:#e50000;stroke:#e50000;stroke-linejoin:miter;" x="545.658304" xlink:href="#m8420e85904" y="421.310767"/>
     <use style="fill:#e50000;stroke:#e50000;stroke-linejoin:miter;" x="587.534439" xlink:href="#m8420e85904" y="420.138952"/>
     <use style="fill:#e50000;stroke:#e50000;stroke-linejoin:miter;" x="629.417944" xlink:href="#m8420e85904" y="419.644259"/>
     <use style="fill:#e50000;stroke:#e50000;stroke-linejoin:miter;" x="641.469135" xlink:href="#m8420e85904" y="417.739233"/>
     <use style="fill:#e50000;stroke:#e50000;stroke-linejoin:miter;" x="671.305135" xlink:href="#m8420e85904" y="417.754142"/>
     <use style="fill:#e50000;stroke:#e50000;stroke-linejoin:miter;" x="713.19417" xlink:href="#m8420e85904" y="418.316243"/>
     <use style="fill:#e50000;stroke:#e50000;stroke-linejoin:miter;" x="755.084127" xlink:href="#m8420e85904" y="417.908421"/>
     <use style="fill:#e50000;stroke:#e50000;stroke-linejoin:miter;" x="796.974545" xlink:href="#m8420e85904" y="417.743508"/>
    </g>
   </g>
   <g id="line2d_18">
    <path clip-path="url(#pd9419f7ea4)" d="M 147.665455 440.50896 
L 180.863191 434.400758 
L 201.808631 426.059175 
L 217.244699 416.045675 
L 229.496996 404.573256 
L 239.664474 392.196563 
L 248.357617 379.349949 
L 255.951807 367.413198 
L 262.694732 354.469715 
L 268.758576 342.975295 
L 274.267947 330.477348 
L 292.333315 287.061402 
L 306.219409 250.384149 
L 317.502064 249.02301 
L 327.005387 203.310792 
L 335.215033 212.098029 
L 342.441455 197.16867 
L 348.895212 191.691141 
L 354.725712 175.647133 
L 360.042816 166.981769 
L 364.929674 157.839286 
L 369.450738 151.58108 
L 373.656981 143.687242 
L 377.589409 138.300983 
L 378.533795 139.650104 
L 420.19133 143.578525 
L 461.964858 124.565991 
L 503.796891 106.884813 
L 545.658304 94.863733 
L 587.534439 91.403544 
L 629.417944 80.2404 
L 641.469135 80.666664 
L 671.305135 83.517761 
L 713.19417 87.614442 
L 755.084127 90.029833 
L 796.974545 107.867061 
" style="fill:none;stroke:#75bbfd;stroke-linecap:square;"/>
    <defs>
     <path d="M -2.5 2.5 
L 2.5 2.5 
L 2.5 -2.5 
L -2.5 -2.5 
z
" id="md5424413e8" style="stroke:#75bbfd;stroke-linejoin:miter;"/>
    </defs>
    <g clip-path="url(#pd9419f7ea4)">
     <use style="fill:#75bbfd;stroke:#75bbfd;stroke-linejoin:miter;" x="147.665455" xlink:href="#md5424413e8" y="440.50896"/>
     <use style="fill:#75bbfd;stroke:#75bbfd;stroke-linejoin:miter;" x="180.863191" xlink:href="#md5424413e8" y="434.400758"/>
     <use style="fill:#75bbfd;stroke:#75bbfd;stroke-linejoin:miter;" x="201.808631" xlink:href="#md5424413e8" y="426.059175"/>
     <use style="fill:#75bbfd;stroke:#75bbfd;stroke-linejoin:miter;" x="217.244699" xlink:href="#md5424413e8" y="416.045675"/>
     <use style="fill:#75bbfd;stroke:#75bbfd;stroke-linejoin:miter;" x="229.496996" xlink:href="#md5424413e8" y="404.573256"/>
     <use style="fill:#75bbfd;stroke:#75bbfd;stroke-linejoin:miter;" x="239.664474" xlink:href="#md5424413e8" y="392.196563"/>
     <use style="fill:#75bbfd;stroke:#75bbfd;stroke-linejoin:miter;" x="248.357617" xlink:href="#md5424413e8" y="379.349949"/>
     <use style="fill:#75bbfd;stroke:#75bbfd;stroke-linejoin:miter;" x="255.951807" xlink:href="#md5424413e8" y="367.413198"/>
     <use style="fill:#75bbfd;stroke:#75bbfd;stroke-linejoin:miter;" x="262.694732" xlink:href="#md5424413e8" y="354.469715"/>
     <use style="fill:#75bbfd;stroke:#75bbfd;stroke-linejoin:miter;" x="268.758576" xlink:href="#md5424413e8" y="342.975295"/>
     <use style="fill:#75bbfd;stroke:#75bbfd;stroke-linejoin:miter;" x="274.267947" xlink:href="#md5424413e8" y="330.477348"/>
     <use style="fill:#75bbfd;stroke:#75bbfd;stroke-linejoin:miter;" x="292.333315" xlink:href="#md5424413e8" y="287.061402"/>
     <use style="fill:#75bbfd;stroke:#75bbfd;stroke-linejoin:miter;" x="306.219409" xlink:href="#md5424413e8" y="250.384149"/>
     <use style="fill:#75bbfd;stroke:#75bbfd;stroke-linejoin:miter;" x="317.502064" xlink:href="#md5424413e8" y="249.02301"/>
     <use style="fill:#75bbfd;stroke:#75bbfd;stroke-linejoin:miter;" x="327.005387" xlink:href="#md5424413e8" y="203.310792"/>
     <use style="fill:#75bbfd;stroke:#75bbfd;stroke-linejoin:miter;" x="335.215033" xlink:href="#md5424413e8" y="212.098029"/>
     <use style="fill:#75bbfd;stroke:#75bbfd;stroke-linejoin:miter;" x="342.441455" xlink:href="#md5424413e8" y="197.16867"/>
     <use style="fill:#75bbfd;stroke:#75bbfd;stroke-linejoin:miter;" x="348.895212" xlink:href="#md5424413e8" y="191.691141"/>
     <use style="fill:#75bbfd;stroke:#75bbfd;stroke-linejoin:miter;" x="354.725712" xlink:href="#md5424413e8" y="175.647133"/>
     <use style="fill:#75bbfd;stroke:#75bbfd;stroke-linejoin:miter;" x="360.042816" xlink:href="#md5424413e8" y="166.981769"/>
     <use style="fill:#75bbfd;stroke:#75bbfd;stroke-linejoin:miter;" x="364.929674" xlink:href="#md5424413e8" y="157.839286"/>
     <use style="fill:#75bbfd;stroke:#75bbfd;stroke-linejoin:miter;" x="369.450738" xlink:href="#md5424413e8" y="151.58108"/>
     <use style="fill:#75bbfd;stroke:#75bbfd;stroke-linejoin:miter;" x="373.656981" xlink:href="#md5424413e8" y="143.687242"/>
     <use style="fill:#75bbfd;stroke:#75bbfd;stroke-linejoin:miter;" x="377.589409" xlink:href="#md5424413e8" y="138.300983"/>
     <use style="fill:#75bbfd;stroke:#75bbfd;stroke-linejoin:miter;" x="378.533795" xlink:href="#md5424413e8" y="139.650104"/>
     <use style="fill:#75bbfd;stroke:#75bbfd;stroke-linejoin:miter;" x="420.19133" xlink:href="#md5424413e8" y="143.578525"/>
     <use style="fill:#75bbfd;stroke:#75bbfd;stroke-linejoin:miter;" x="461.964858" xlink:href="#md5424413e8" y="124.565991"/>
     <use style="fill:#75bbfd;stroke:#75bbfd;stroke-linejoin:miter;" x="503.796891" xlink:href="#md5424413e8" y="106.884813"/>
     <use style="fill:#75bbfd;stroke:#75bbfd;stroke-linejoin:miter;" x="545.658304" xlink:href="#md5424413e8" y="94.863733"/>
     <use style="fill:#75bbfd;stroke:#75bbfd;stroke-linejoin:miter;" x="587.534439" xlink:href="#md5424413e8" y="91.403544"/>
     <use style="fill:#75bbfd;stroke:#75bbfd;stroke-linejoin:miter;" x="629.417944" xlink:href="#md5424413e8" y="80.2404"/>
     <use style="fill:#75bbfd;stroke:#75bbfd;stroke-linejoin:miter;" x="641.469135" xlink:href="#md5424413e8" y="80.666664"/>
     <use style="fill:#75bbfd;stroke:#75bbfd;stroke-linejoin:miter;" x="671.305135" xlink:href="#md5424413e8" y="83.517761"/>
     <use style="fill:#75bbfd;stroke:#75bbfd;stroke-linejoin:miter;" x="713.19417" xlink:href="#md5424413e8" y="87.614442"/>
     <use style="fill:#75bbfd;stroke:#75bbfd;stroke-linejoin:miter;" x="755.084127" xlink:href="#md5424413e8" y="90.029833"/>
     <use style="fill:#75bbfd;stroke:#75bbfd;stroke-linejoin:miter;" x="796.974545" xlink:href="#md5424413e8" y="107.867061"/>
    </g>
   </g>
   <g id="line2d_19">
    <path clip-path="url(#pd9419f7ea4)" d="M 378.533795 460.7352 
L 378.533795 62.1216 
" style="fill:none;stroke:#ff0000;stroke-linecap:square;stroke-opacity:0.5;stroke-width:3;"/>
   </g>
   <g id="patch_3">
    <path d="M 115.2 460.7352 
L 115.2 62.1216 
" style="fill:none;stroke:#000000;stroke-linecap:square;stroke-linejoin:miter;stroke-width:0.8;"/>
   </g>
   <g id="patch_4">
    <path d="M 829.44 460.7352 
L 829.44 62.1216 
" style="fill:none;stroke:#000000;stroke-linecap:square;stroke-linejoin:miter;stroke-width:0.8;"/>
   </g>
   <g id="patch_5">
    <path d="M 115.2 460.7352 
L 829.44 460.7352 
" style="fill:none;stroke:#000000;stroke-linecap:square;stroke-linejoin:miter;stroke-width:0.8;"/>
   </g>
   <g id="patch_6">
    <path d="M 115.2 62.1216 
L 829.44 62.1216 
" style="fill:none;stroke:#000000;stroke-linecap:square;stroke-linejoin:miter;stroke-width:0.8;"/>
   </g>
   <g id="text_17">
    <!-- $\bf{Total}$ throughput for $\bf{generate+iterate}$ -->
    <defs>
     <path d="M 0.484375 72.90625 
L 67.671875 72.90625 
L 67.671875 58.6875 
L 43.5 58.6875 
L 43.5 0 
L 24.703125 0 
L 24.703125 58.6875 
L 0.484375 58.6875 
z
" id="DejaVuSans-Bold-84"/>
     <path d="M 34.421875 43.5 
Q 28.609375 43.5 25.5625 39.328125 
Q 22.515625 35.15625 22.515625 27.296875 
Q 22.515625 19.4375 25.5625 15.25 
Q 28.609375 11.078125 34.421875 11.078125 
Q 40.140625 11.078125 43.15625 15.25 
Q 46.1875 19.4375 46.1875 27.296875 
Q 46.1875 35.15625 43.15625 39.328125 
Q 40.140625 43.5 34.421875 43.5 
z
M 34.421875 56 
Q 48.53125 56 56.46875 48.375 
Q 64.40625 40.765625 64.40625 27.296875 
Q 64.40625 13.8125 56.46875 6.1875 
Q 48.53125 -1.421875 34.421875 -1.421875 
Q 20.265625 -1.421875 12.28125 6.1875 
Q 4.296875 13.8125 4.296875 27.296875 
Q 4.296875 40.765625 12.28125 48.375 
Q 20.265625 56 34.421875 56 
z
" id="DejaVuSans-Bold-111"/>
     <path d="M 27.484375 70.21875 
L 27.484375 54.6875 
L 45.515625 54.6875 
L 45.515625 42.1875 
L 27.484375 42.1875 
L 27.484375 19 
Q 27.484375 15.1875 29 13.84375 
Q 30.515625 12.5 35.015625 12.5 
L 44 12.5 
L 44 0 
L 29 0 
Q 18.65625 0 14.328125 4.3125 
Q 10.015625 8.640625 10.015625 19 
L 10.015625 42.1875 
L 1.3125 42.1875 
L 1.3125 54.6875 
L 10.015625 54.6875 
L 10.015625 70.21875 
z
" id="DejaVuSans-Bold-116"/>
     <path d="M 32.90625 24.609375 
Q 27.4375 24.609375 24.671875 22.75 
Q 21.921875 20.90625 21.921875 17.28125 
Q 21.921875 13.96875 24.140625 12.078125 
Q 26.375 10.203125 30.328125 10.203125 
Q 35.25 10.203125 38.625 13.734375 
Q 42 17.28125 42 22.609375 
L 42 24.609375 
z
M 59.625 31.203125 
L 59.625 0 
L 42 0 
L 42 8.109375 
Q 38.484375 3.125 34.078125 0.84375 
Q 29.6875 -1.421875 23.390625 -1.421875 
Q 14.890625 -1.421875 9.59375 3.53125 
Q 4.296875 8.5 4.296875 16.40625 
Q 4.296875 26.03125 10.90625 30.515625 
Q 17.53125 35.015625 31.6875 35.015625 
L 42 35.015625 
L 42 36.375 
Q 42 40.53125 38.71875 42.453125 
Q 35.453125 44.390625 28.515625 44.390625 
Q 22.90625 44.390625 18.0625 43.265625 
Q 13.234375 42.140625 9.078125 39.890625 
L 9.078125 53.21875 
Q 14.703125 54.59375 20.359375 55.296875 
Q 26.03125 56 31.6875 56 
Q 46.484375 56 53.046875 50.171875 
Q 59.625 44.34375 59.625 31.203125 
z
" id="DejaVuSans-Bold-97"/>
     <path d="M 8.40625 75.984375 
L 25.875 75.984375 
L 25.875 0 
L 8.40625 0 
z
" id="DejaVuSans-Bold-108"/>
     <path d="M 54.890625 33.015625 
L 54.890625 0 
L 45.90625 0 
L 45.90625 32.71875 
Q 45.90625 40.484375 42.875 44.328125 
Q 39.84375 48.1875 33.796875 48.1875 
Q 26.515625 48.1875 22.3125 43.546875 
Q 18.109375 38.921875 18.109375 30.90625 
L 18.109375 0 
L 9.078125 0 
L 9.078125 75.984375 
L 18.109375 75.984375 
L 18.109375 46.1875 
Q 21.34375 51.125 25.703125 53.5625 
Q 30.078125 56 35.796875 56 
Q 45.21875 56 50.046875 50.171875 
Q 54.890625 44.34375 54.890625 33.015625 
z
" id="DejaVuSans-104"/>
     <path d="M 45.609375 9.28125 
Q 42 4.5 37.640625 2.25 
Q 33.296875 0 27.59375 0 
Q 17.578125 0 11.03125 7.875 
Q 4.5 15.765625 4.5 27.984375 
Q 4.5 40.234375 11.03125 48.0625 
Q 17.578125 55.90625 27.59375 55.90625 
Q 33.296875 55.90625 37.640625 53.65625 
Q 42 51.421875 45.609375 46.578125 
L 45.609375 54.6875 
L 63.1875 54.6875 
L 63.1875 5.515625 
Q 63.1875 -7.671875 54.859375 -14.625 
Q 46.53125 -21.578125 30.71875 -21.578125 
Q 25.59375 -21.578125 20.796875 -20.796875 
Q 16.015625 -20.015625 11.1875 -18.40625 
L 11.1875 -4.78125 
Q 15.765625 -7.421875 20.15625 -8.71875 
Q 24.5625 -10.015625 29 -10.015625 
Q 37.59375 -10.015625 41.59375 -6.25 
Q 45.609375 -2.484375 45.609375 5.515625 
z
M 34.078125 43.3125 
Q 28.65625 43.3125 25.625 39.296875 
Q 22.609375 35.296875 22.609375 27.984375 
Q 22.609375 20.453125 25.53125 16.578125 
Q 28.46875 12.703125 34.078125 12.703125 
Q 39.546875 12.703125 42.578125 16.703125 
Q 45.609375 20.703125 45.609375 27.984375 
Q 45.609375 35.296875 42.578125 39.296875 
Q 39.546875 43.3125 34.078125 43.3125 
z
" id="DejaVuSans-Bold-103"/>
     <path d="M 62.984375 27.484375 
L 62.984375 22.515625 
L 22.125 22.515625 
Q 22.75 16.359375 26.5625 13.28125 
Q 30.375 10.203125 37.203125 10.203125 
Q 42.71875 10.203125 48.5 11.84375 
Q 54.296875 13.484375 60.40625 16.796875 
L 60.40625 3.328125 
Q 54.203125 0.984375 48 -0.21875 
Q 41.796875 -1.421875 35.59375 -1.421875 
Q 20.75 -1.421875 12.515625 6.125 
Q 4.296875 13.671875 4.296875 27.296875 
Q 4.296875 40.671875 12.375 48.328125 
Q 20.453125 56 34.625 56 
Q 47.515625 56 55.25 48.234375 
Q 62.984375 40.484375 62.984375 27.484375 
z
M 45.015625 33.296875 
Q 45.015625 38.28125 42.109375 41.328125 
Q 39.203125 44.390625 34.515625 44.390625 
Q 29.4375 44.390625 26.265625 41.53125 
Q 23.09375 38.671875 22.3125 33.296875 
z
" id="DejaVuSans-Bold-101"/>
     <path d="M 63.375 33.296875 
L 63.375 0 
L 45.796875 0 
L 45.796875 5.421875 
L 45.796875 25.484375 
Q 45.796875 32.5625 45.484375 35.25 
Q 45.171875 37.9375 44.390625 39.203125 
Q 43.359375 40.921875 41.59375 41.875 
Q 39.84375 42.828125 37.59375 42.828125 
Q 32.125 42.828125 29 38.59375 
Q 25.875 34.375 25.875 26.90625 
L 25.875 0 
L 8.40625 0 
L 8.40625 54.6875 
L 25.875 54.6875 
L 25.875 46.6875 
Q 29.828125 51.46875 34.265625 53.734375 
Q 38.71875 56 44.09375 56 
Q 53.5625 56 58.46875 50.1875 
Q 63.375 44.390625 63.375 33.296875 
z
" id="DejaVuSans-Bold-110"/>
     <path d="M 49.03125 39.796875 
Q 46.734375 40.875 44.453125 41.375 
Q 42.1875 41.890625 39.890625 41.890625 
Q 33.15625 41.890625 29.515625 37.5625 
Q 25.875 33.25 25.875 25.203125 
L 25.875 0 
L 8.40625 0 
L 8.40625 54.6875 
L 25.875 54.6875 
L 25.875 45.703125 
Q 29.25 51.078125 33.609375 53.53125 
Q 37.984375 56 44.09375 56 
Q 44.96875 56 45.984375 55.921875 
Q 47.015625 55.859375 48.96875 55.609375 
z
" id="DejaVuSans-Bold-114"/>
     <path d="M 47.703125 62.703125 
L 47.703125 37.109375 
L 73.1875 37.109375 
L 73.1875 25.59375 
L 47.703125 25.59375 
L 47.703125 0 
L 36.078125 0 
L 36.078125 25.59375 
L 10.59375 25.59375 
L 10.59375 37.109375 
L 36.078125 37.109375 
L 36.078125 62.703125 
z
" id="DejaVuSans-Bold-43"/>
     <path d="M 8.40625 54.6875 
L 25.875 54.6875 
L 25.875 0 
L 8.40625 0 
z
M 8.40625 75.984375 
L 25.875 75.984375 
L 25.875 61.71875 
L 8.40625 61.71875 
z
" id="DejaVuSans-Bold-105"/>
    </defs>
    <g transform="translate(346.32 42.53985)scale(0.12 -0.12)">
     <use transform="translate(0 0.015625)" xlink:href="#DejaVuSans-Bold-84"/>
     <use transform="translate(68.212891 0.015625)" xlink:href="#DejaVuSans-Bold-111"/>
     <use transform="translate(136.914062 0.015625)" xlink:href="#DejaVuSans-Bold-116"/>
     <use transform="translate(184.716797 0.015625)" xlink:href="#DejaVuSans-Bold-97"/>
     <use transform="translate(252.197266 0.015625)" xlink:href="#DejaVuSans-Bold-108"/>
     <use transform="translate(286.474609 0.015625)" xlink:href="#DejaVuSans-32"/>
     <use transform="translate(318.261719 0.015625)" xlink:href="#DejaVuSans-116"/>
     <use transform="translate(357.470703 0.015625)" xlink:href="#DejaVuSans-104"/>
     <use transform="translate(420.849609 0.015625)" xlink:href="#DejaVuSans-114"/>
     <use transform="translate(461.962891 0.015625)" xlink:href="#DejaVuSans-111"/>
     <use transform="translate(523.144531 0.015625)" xlink:href="#DejaVuSans-117"/>
     <use transform="translate(586.523438 0.015625)" xlink:href="#DejaVuSans-103"/>
     <use transform="translate(650 0.015625)" xlink:href="#DejaVuSans-104"/>
     <use transform="translate(713.378906 0.015625)" xlink:href="#DejaVuSans-112"/>
     <use transform="translate(776.855469 0.015625)" xlink:href="#DejaVuSans-117"/>
     <use transform="translate(840.234375 0.015625)" xlink:href="#DejaVuSans-116"/>
     <use transform="translate(879.443359 0.015625)" xlink:href="#DejaVuSans-32"/>
     <use transform="translate(911.230469 0.015625)" xlink:href="#DejaVuSans-102"/>
     <use transform="translate(946.435547 0.015625)" xlink:href="#DejaVuSans-111"/>
     <use transform="translate(1007.617188 0.015625)" xlink:href="#DejaVuSans-114"/>
     <use transform="translate(1048.730469 0.015625)" xlink:href="#DejaVuSans-32"/>
     <use transform="translate(1080.517578 0.015625)" xlink:href="#DejaVuSans-Bold-103"/>
     <use transform="translate(1152.099609 0.015625)" xlink:href="#DejaVuSans-Bold-101"/>
     <use transform="translate(1219.921875 0.015625)" xlink:href="#DejaVuSans-Bold-110"/>
     <use transform="translate(1291.113281 0.015625)" xlink:href="#DejaVuSans-Bold-101"/>
     <use transform="translate(1358.935547 0.015625)" xlink:href="#DejaVuSans-Bold-114"/>
     <use transform="translate(1408.251953 0.015625)" xlink:href="#DejaVuSans-Bold-97"/>
     <use transform="translate(1475.732422 0.015625)" xlink:href="#DejaVuSans-Bold-116"/>
     <use transform="translate(1523.535156 0.015625)" xlink:href="#DejaVuSans-Bold-101"/>
     <use transform="translate(1612.197266 0.015625)" xlink:href="#DejaVuSans-Bold-43"/>
     <use transform="translate(1716.826172 0.015625)" xlink:href="#DejaVuSans-Bold-105"/>
     <use transform="translate(1751.103516 0.015625)" xlink:href="#DejaVuSans-Bold-116"/>
     <use transform="translate(1798.90625 0.015625)" xlink:href="#DejaVuSans-Bold-101"/>
     <use transform="translate(1866.728516 0.015625)" xlink:href="#DejaVuSans-Bold-114"/>
     <use transform="translate(1916.044922 0.015625)" xlink:href="#DejaVuSans-Bold-97"/>
     <use transform="translate(1983.525391 0.015625)" xlink:href="#DejaVuSans-Bold-116"/>
     <use transform="translate(2031.328125 0.015625)" xlink:href="#DejaVuSans-Bold-101"/>
    </g>
    <!-- Higher is better -->
    <defs>
     <path d="M 9.8125 72.90625 
L 19.671875 72.90625 
L 19.671875 43.015625 
L 55.515625 43.015625 
L 55.515625 72.90625 
L 65.375 72.90625 
L 65.375 0 
L 55.515625 0 
L 55.515625 34.71875 
L 19.671875 34.71875 
L 19.671875 0 
L 9.8125 0 
z
" id="DejaVuSans-72"/>
    </defs>
    <g transform="translate(425.400937 56.1216)scale(0.12 -0.12)">
     <use xlink:href="#DejaVuSans-72"/>
     <use x="75.195312" xlink:href="#DejaVuSans-105"/>
     <use x="102.978516" xlink:href="#DejaVuSans-103"/>
     <use x="166.455078" xlink:href="#DejaVuSans-104"/>
     <use x="229.833984" xlink:href="#DejaVuSans-101"/>
     <use x="291.357422" xlink:href="#DejaVuSans-114"/>
     <use x="332.470703" xlink:href="#DejaVuSans-32"/>
     <use x="364.257812" xlink:href="#DejaVuSans-105"/>
     <use x="392.041016" xlink:href="#DejaVuSans-115"/>
     <use x="444.140625" xlink:href="#DejaVuSans-32"/>
     <use x="475.927734" xlink:href="#DejaVuSans-98"/>
     <use x="539.404297" xlink:href="#DejaVuSans-101"/>
     <use x="600.927734" xlink:href="#DejaVuSans-116"/>
     <use x="640.136719" xlink:href="#DejaVuSans-116"/>
     <use x="679.345703" xlink:href="#DejaVuSans-101"/>
     <use x="740.869141" xlink:href="#DejaVuSans-114"/>
    </g>
   </g>
   <g id="legend_1">
    <g id="patch_7">
     <path d="M 122.2 143.512225 
L 221.43125 143.512225 
Q 223.43125 143.512225 223.43125 141.512225 
L 223.43125 69.1216 
Q 223.43125 67.1216 221.43125 67.1216 
L 122.2 67.1216 
Q 120.2 67.1216 120.2 69.1216 
L 120.2 141.512225 
Q 120.2 143.512225 122.2 143.512225 
z
" style="fill:#ffffff;opacity:0.8;stroke:#cccccc;stroke-linejoin:miter;"/>
    </g>
    <g id="line2d_20">
     <path d="M 124.2 75.220037 
L 144.2 75.220037 
" style="fill:none;stroke:#000000;stroke-linecap:square;"/>
    </g>
    <g id="line2d_21">
     <g>
      <use style="stroke:#000000;" x="134.2" xlink:href="#mb186ea360d" y="75.220037"/>
     </g>
    </g>
    <g id="text_18">
     <!-- Baseline -->
     <defs>
      <path d="M 19.671875 34.8125 
L 19.671875 8.109375 
L 35.5 8.109375 
Q 43.453125 8.109375 47.28125 11.40625 
Q 51.125 14.703125 51.125 21.484375 
Q 51.125 28.328125 47.28125 31.5625 
Q 43.453125 34.8125 35.5 34.8125 
z
M 19.671875 64.796875 
L 19.671875 42.828125 
L 34.28125 42.828125 
Q 41.5 42.828125 45.03125 45.53125 
Q 48.578125 48.25 48.578125 53.8125 
Q 48.578125 59.328125 45.03125 62.0625 
Q 41.5 64.796875 34.28125 64.796875 
z
M 9.8125 72.90625 
L 35.015625 72.90625 
Q 46.296875 72.90625 52.390625 68.21875 
Q 58.5 63.53125 58.5 54.890625 
Q 58.5 48.1875 55.375 44.234375 
Q 52.25 40.28125 46.1875 39.3125 
Q 53.46875 37.75 57.5 32.78125 
Q 61.53125 27.828125 61.53125 20.40625 
Q 61.53125 10.640625 54.890625 5.3125 
Q 48.25 0 35.984375 0 
L 9.8125 0 
z
" id="DejaVuSans-66"/>
     </defs>
     <g transform="translate(152.2 78.720037)scale(0.1 -0.1)">
      <use xlink:href="#DejaVuSans-66"/>
      <use x="68.603516" xlink:href="#DejaVuSans-97"/>
      <use x="129.882812" xlink:href="#DejaVuSans-115"/>
      <use x="181.982422" xlink:href="#DejaVuSans-101"/>
      <use x="243.505859" xlink:href="#DejaVuSans-108"/>
      <use x="271.289062" xlink:href="#DejaVuSans-105"/>
      <use x="299.072266" xlink:href="#DejaVuSans-110"/>
      <use x="362.451172" xlink:href="#DejaVuSans-101"/>
     </g>
    </g>
    <g id="line2d_22">
     <path d="M 124.2 89.898163 
L 144.2 89.898163 
" style="fill:none;stroke:#0652ff;stroke-linecap:square;"/>
    </g>
    <g id="line2d_23">
     <g>
      <use style="fill:#0652ff;stroke:#0652ff;" x="134.2" xlink:href="#m24e57ac584" y="89.898163"/>
     </g>
    </g>
    <g id="text_19">
     <!-- ArchBanana -->
     <defs>
      <path d="M 34.1875 63.1875 
L 20.796875 26.90625 
L 47.609375 26.90625 
z
M 28.609375 72.90625 
L 39.796875 72.90625 
L 67.578125 0 
L 57.328125 0 
L 50.6875 18.703125 
L 17.828125 18.703125 
L 11.1875 0 
L 0.78125 0 
z
" id="DejaVuSans-65"/>
     </defs>
     <g transform="translate(152.2 93.398163)scale(0.1 -0.1)">
      <use xlink:href="#DejaVuSans-65"/>
      <use x="68.408203" xlink:href="#DejaVuSans-114"/>
      <use x="109.490234" xlink:href="#DejaVuSans-99"/>
      <use x="164.470703" xlink:href="#DejaVuSans-104"/>
      <use x="227.849609" xlink:href="#DejaVuSans-66"/>
      <use x="296.453125" xlink:href="#DejaVuSans-97"/>
      <use x="357.732422" xlink:href="#DejaVuSans-110"/>
      <use x="421.111328" xlink:href="#DejaVuSans-97"/>
      <use x="482.390625" xlink:href="#DejaVuSans-110"/>
      <use x="545.769531" xlink:href="#DejaVuSans-97"/>
     </g>
    </g>
    <g id="line2d_24">
     <path d="M 124.2 104.576287 
L 144.2 104.576287 
" style="fill:none;stroke:#0cff0c;stroke-linecap:square;"/>
    </g>
    <g id="line2d_25">
     <g>
      <use style="fill:#0cff0c;stroke:#0cff0c;" x="134.2" xlink:href="#m1ff43ace5a" y="104.576287"/>
     </g>
    </g>
    <g id="text_20">
     <!-- EvilDoughnut -->
     <defs>
      <path d="M 2.984375 54.6875 
L 12.5 54.6875 
L 29.59375 8.796875 
L 46.6875 54.6875 
L 56.203125 54.6875 
L 35.6875 0 
L 23.484375 0 
z
" id="DejaVuSans-118"/>
      <path d="M 19.671875 64.796875 
L 19.671875 8.109375 
L 31.59375 8.109375 
Q 46.6875 8.109375 53.6875 14.9375 
Q 60.6875 21.78125 60.6875 36.53125 
Q 60.6875 51.171875 53.6875 57.984375 
Q 46.6875 64.796875 31.59375 64.796875 
z
M 9.8125 72.90625 
L 30.078125 72.90625 
Q 51.265625 72.90625 61.171875 64.09375 
Q 71.09375 55.28125 71.09375 36.53125 
Q 71.09375 17.671875 61.125 8.828125 
Q 51.171875 0 30.078125 0 
L 9.8125 0 
z
" id="DejaVuSans-68"/>
     </defs>
     <g transform="translate(152.2 108.076287)scale(0.1 -0.1)">
      <use xlink:href="#DejaVuSans-69"/>
      <use x="63.183594" xlink:href="#DejaVuSans-118"/>
      <use x="122.363281" xlink:href="#DejaVuSans-105"/>
      <use x="150.146484" xlink:href="#DejaVuSans-108"/>
      <use x="177.929688" xlink:href="#DejaVuSans-68"/>
      <use x="254.931641" xlink:href="#DejaVuSans-111"/>
      <use x="316.113281" xlink:href="#DejaVuSans-117"/>
      <use x="379.492188" xlink:href="#DejaVuSans-103"/>
      <use x="442.96875" xlink:href="#DejaVuSans-104"/>
      <use x="506.347656" xlink:href="#DejaVuSans-110"/>
      <use x="569.726562" xlink:href="#DejaVuSans-117"/>
      <use x="633.105469" xlink:href="#DejaVuSans-116"/>
     </g>
    </g>
    <g id="line2d_26">
     <path d="M 124.2 119.254413 
L 144.2 119.254413 
" style="fill:none;stroke:#e50000;stroke-linecap:square;"/>
    </g>
    <g id="line2d_27">
     <g>
      <use style="fill:#e50000;stroke:#e50000;stroke-linejoin:miter;" x="134.2" xlink:href="#m8420e85904" y="119.254413"/>
     </g>
    </g>
    <g id="text_21">
     <!-- Porpoison -->
     <defs>
      <path d="M 19.671875 64.796875 
L 19.671875 37.40625 
L 32.078125 37.40625 
Q 38.96875 37.40625 42.71875 40.96875 
Q 46.484375 44.53125 46.484375 51.125 
Q 46.484375 57.671875 42.71875 61.234375 
Q 38.96875 64.796875 32.078125 64.796875 
z
M 9.8125 72.90625 
L 32.078125 72.90625 
Q 44.34375 72.90625 50.609375 67.359375 
Q 56.890625 61.8125 56.890625 51.125 
Q 56.890625 40.328125 50.609375 34.8125 
Q 44.34375 29.296875 32.078125 29.296875 
L 19.671875 29.296875 
L 19.671875 0 
L 9.8125 0 
z
" id="DejaVuSans-80"/>
     </defs>
     <g transform="translate(152.2 122.754413)scale(0.1 -0.1)">
      <use xlink:href="#DejaVuSans-80"/>
      <use x="60.255859" xlink:href="#DejaVuSans-111"/>
      <use x="121.4375" xlink:href="#DejaVuSans-114"/>
      <use x="162.550781" xlink:href="#DejaVuSans-112"/>
      <use x="226.027344" xlink:href="#DejaVuSans-111"/>
      <use x="287.208984" xlink:href="#DejaVuSans-105"/>
      <use x="314.992188" xlink:href="#DejaVuSans-115"/>
      <use x="367.091797" xlink:href="#DejaVuSans-111"/>
      <use x="428.273438" xlink:href="#DejaVuSans-110"/>
     </g>
    </g>
    <g id="line2d_28">
     <path d="M 124.2 133.932537 
L 144.2 133.932537 
" style="fill:none;stroke:#75bbfd;stroke-linecap:square;"/>
    </g>
    <g id="line2d_29">
     <g>
      <use style="fill:#75bbfd;stroke:#75bbfd;stroke-linejoin:miter;" x="134.2" xlink:href="#md5424413e8" y="133.932537"/>
     </g>
    </g>
    <g id="text_22">
     <!-- Proteus -->
     <g transform="translate(152.2 137.432537)scale(0.1 -0.1)">
      <use xlink:href="#DejaVuSans-80"/>
      <use x="60.287109" xlink:href="#DejaVuSans-114"/>
      <use x="101.369141" xlink:href="#DejaVuSans-111"/>
      <use x="162.550781" xlink:href="#DejaVuSans-116"/>
      <use x="201.759766" xlink:href="#DejaVuSans-101"/>
      <use x="263.283203" xlink:href="#DejaVuSans-117"/>
      <use x="326.662109" xlink:href="#DejaVuSans-115"/>
     </g>
    </g>
   </g>
  </g>
 </g>
 <defs>
  <clipPath id="pd9419f7ea4">
   <rect height="398.6136" width="714.24" x="115.2" y="62.1216"/>
  </clipPath>
 </defs>
</svg>
