<?xml version="1.0" encoding="utf-8" standalone="no"?>
<!DOCTYPE svg PUBLIC "-//W3C//DTD SVG 1.1//EN"
  "http://www.w3.org/Graphics/SVG/1.1/DTD/svg11.dtd">
<!-- Created with matplotlib (https://matplotlib.org/) -->
<svg version="1.1" viewBox="0 0 921.6 517.68" xmlns="http://www.w3.org/2000/svg" xmlns:xlink="http://www.w3.org/1999/xlink">
 <defs>
  <style type="text/css">
*{stroke-linecap:butt;stroke-linejoin:round;}
  </style>
 </defs>
 <g id="figure_1">
  <g id="patch_1">
   <path d="M 0 517.68 
L 921.6 517.68 
L 921.6 0 
L 0 0 
z
" style="fill:#ffffff;"/>
  </g>
  <g id="axes_1">
   <g id="patch_2">
    <path d="M 115.2 460.7352 
L 829.44 460.7352 
L 829.44 62.1216 
L 115.2 62.1216 
z
" style="fill:#ffffff;"/>
   </g>
   <g id="matplotlib.axis_1">
    <g id="xtick_1">
     <g id="line2d_1">
      <defs>
       <path d="M 0 0 
L 0 3.5 
" id="mf7c20fce2f" style="stroke:#000000;stroke-width:0.8;"/>
      </defs>
      <g>
       <use style="stroke:#000000;stroke-width:0.8;" x="147.665455" xlink:href="#mf7c20fce2f" y="460.7352"/>
      </g>
     </g>
     <g id="text_1">
      <!-- $\mathdefault{10^{0}}$ -->
      <defs>
       <path d="M 12.40625 8.296875 
L 28.515625 8.296875 
L 28.515625 63.921875 
L 10.984375 60.40625 
L 10.984375 69.390625 
L 28.421875 72.90625 
L 38.28125 72.90625 
L 38.28125 8.296875 
L 54.390625 8.296875 
L 54.390625 0 
L 12.40625 0 
z
" id="DejaVuSans-49"/>
       <path d="M 31.78125 66.40625 
Q 24.171875 66.40625 20.328125 58.90625 
Q 16.5 51.421875 16.5 36.375 
Q 16.5 21.390625 20.328125 13.890625 
Q 24.171875 6.390625 31.78125 6.390625 
Q 39.453125 6.390625 43.28125 13.890625 
Q 47.125 21.390625 47.125 36.375 
Q 47.125 51.421875 43.28125 58.90625 
Q 39.453125 66.40625 31.78125 66.40625 
z
M 31.78125 74.21875 
Q 44.046875 74.21875 50.515625 64.515625 
Q 56.984375 54.828125 56.984375 36.375 
Q 56.984375 17.96875 50.515625 8.265625 
Q 44.046875 -1.421875 31.78125 -1.421875 
Q 19.53125 -1.421875 13.0625 8.265625 
Q 6.59375 17.96875 6.59375 36.375 
Q 6.59375 54.828125 13.0625 64.515625 
Q 19.53125 74.21875 31.78125 74.21875 
z
" id="DejaVuSans-48"/>
      </defs>
      <g transform="translate(138.865455 475.333638)scale(0.1 -0.1)">
       <use transform="translate(0 0.765625)" xlink:href="#DejaVuSans-49"/>
       <use transform="translate(63.623047 0.765625)" xlink:href="#DejaVuSans-48"/>
       <use transform="translate(128.203125 39.046875)scale(0.7)" xlink:href="#DejaVuSans-48"/>
      </g>
     </g>
    </g>
    <g id="xtick_2">
     <g id="line2d_2">
      <g>
       <use style="stroke:#000000;stroke-width:0.8;" x="282.475337" xlink:href="#mf7c20fce2f" y="460.7352"/>
      </g>
     </g>
     <g id="text_2">
      <!-- $\mathdefault{10^{1}}$ -->
      <g transform="translate(273.675337 475.333638)scale(0.1 -0.1)">
       <use transform="translate(0 0.684375)" xlink:href="#DejaVuSans-49"/>
       <use transform="translate(63.623047 0.684375)" xlink:href="#DejaVuSans-48"/>
       <use transform="translate(128.203125 38.965625)scale(0.7)" xlink:href="#DejaVuSans-49"/>
      </g>
     </g>
    </g>
    <g id="xtick_3">
     <g id="line2d_3">
      <g>
       <use style="stroke:#000000;stroke-width:0.8;" x="417.285218" xlink:href="#mf7c20fce2f" y="460.7352"/>
      </g>
     </g>
     <g id="text_3">
      <!-- $\mathdefault{10^{2}}$ -->
      <defs>
       <path d="M 19.1875 8.296875 
L 53.609375 8.296875 
L 53.609375 0 
L 7.328125 0 
L 7.328125 8.296875 
Q 12.9375 14.109375 22.625 23.890625 
Q 32.328125 33.6875 34.8125 36.53125 
Q 39.546875 41.84375 41.421875 45.53125 
Q 43.3125 49.21875 43.3125 52.78125 
Q 43.3125 58.59375 39.234375 62.25 
Q 35.15625 65.921875 28.609375 65.921875 
Q 23.96875 65.921875 18.8125 64.3125 
Q 13.671875 62.703125 7.8125 59.421875 
L 7.8125 69.390625 
Q 13.765625 71.78125 18.9375 73 
Q 24.125 74.21875 28.421875 74.21875 
Q 39.75 74.21875 46.484375 68.546875 
Q 53.21875 62.890625 53.21875 53.421875 
Q 53.21875 48.921875 51.53125 44.890625 
Q 49.859375 40.875 45.40625 35.40625 
Q 44.1875 33.984375 37.640625 27.21875 
Q 31.109375 20.453125 19.1875 8.296875 
z
" id="DejaVuSans-50"/>
      </defs>
      <g transform="translate(408.485218 475.333638)scale(0.1 -0.1)">
       <use transform="translate(0 0.765625)" xlink:href="#DejaVuSans-49"/>
       <use transform="translate(63.623047 0.765625)" xlink:href="#DejaVuSans-48"/>
       <use transform="translate(128.203125 39.046875)scale(0.7)" xlink:href="#DejaVuSans-50"/>
      </g>
     </g>
    </g>
    <g id="xtick_4">
     <g id="line2d_4">
      <g>
       <use style="stroke:#000000;stroke-width:0.8;" x="552.0951" xlink:href="#mf7c20fce2f" y="460.7352"/>
      </g>
     </g>
     <g id="text_4">
      <!-- $\mathdefault{10^{3}}$ -->
      <defs>
       <path d="M 40.578125 39.3125 
Q 47.65625 37.796875 51.625 33 
Q 55.609375 28.21875 55.609375 21.1875 
Q 55.609375 10.40625 48.1875 4.484375 
Q 40.765625 -1.421875 27.09375 -1.421875 
Q 22.515625 -1.421875 17.65625 -0.515625 
Q 12.796875 0.390625 7.625 2.203125 
L 7.625 11.71875 
Q 11.71875 9.328125 16.59375 8.109375 
Q 21.484375 6.890625 26.8125 6.890625 
Q 36.078125 6.890625 40.9375 10.546875 
Q 45.796875 14.203125 45.796875 21.1875 
Q 45.796875 27.640625 41.28125 31.265625 
Q 36.765625 34.90625 28.71875 34.90625 
L 20.21875 34.90625 
L 20.21875 43.015625 
L 29.109375 43.015625 
Q 36.375 43.015625 40.234375 45.921875 
Q 44.09375 48.828125 44.09375 54.296875 
Q 44.09375 59.90625 40.109375 62.90625 
Q 36.140625 65.921875 28.71875 65.921875 
Q 24.65625 65.921875 20.015625 65.03125 
Q 15.375 64.15625 9.8125 62.3125 
L 9.8125 71.09375 
Q 15.4375 72.65625 20.34375 73.4375 
Q 25.25 74.21875 29.59375 74.21875 
Q 40.828125 74.21875 47.359375 69.109375 
Q 53.90625 64.015625 53.90625 55.328125 
Q 53.90625 49.265625 50.4375 45.09375 
Q 46.96875 40.921875 40.578125 39.3125 
z
" id="DejaVuSans-51"/>
      </defs>
      <g transform="translate(543.2951 475.333638)scale(0.1 -0.1)">
       <use transform="translate(0 0.765625)" xlink:href="#DejaVuSans-49"/>
       <use transform="translate(63.623047 0.765625)" xlink:href="#DejaVuSans-48"/>
       <use transform="translate(128.203125 39.046875)scale(0.7)" xlink:href="#DejaVuSans-51"/>
      </g>
     </g>
    </g>
    <g id="xtick_5">
     <g id="line2d_5">
      <g>
       <use style="stroke:#000000;stroke-width:0.8;" x="686.904982" xlink:href="#mf7c20fce2f" y="460.7352"/>
      </g>
     </g>
     <g id="text_5">
      <!-- $\mathdefault{10^{4}}$ -->
      <defs>
       <path d="M 37.796875 64.3125 
L 12.890625 25.390625 
L 37.796875 25.390625 
z
M 35.203125 72.90625 
L 47.609375 72.90625 
L 47.609375 25.390625 
L 58.015625 25.390625 
L 58.015625 17.1875 
L 47.609375 17.1875 
L 47.609375 0 
L 37.796875 0 
L 37.796875 17.1875 
L 4.890625 17.1875 
L 4.890625 26.703125 
z
" id="DejaVuSans-52"/>
      </defs>
      <g transform="translate(678.104982 475.333638)scale(0.1 -0.1)">
       <use transform="translate(0 0.684375)" xlink:href="#DejaVuSans-49"/>
       <use transform="translate(63.623047 0.684375)" xlink:href="#DejaVuSans-48"/>
       <use transform="translate(128.203125 38.965625)scale(0.7)" xlink:href="#DejaVuSans-52"/>
      </g>
     </g>
    </g>
    <g id="xtick_6">
     <g id="line2d_6">
      <g>
       <use style="stroke:#000000;stroke-width:0.8;" x="821.714864" xlink:href="#mf7c20fce2f" y="460.7352"/>
      </g>
     </g>
     <g id="text_6">
      <!-- $\mathdefault{10^{5}}$ -->
      <defs>
       <path d="M 10.796875 72.90625 
L 49.515625 72.90625 
L 49.515625 64.59375 
L 19.828125 64.59375 
L 19.828125 46.734375 
Q 21.96875 47.46875 24.109375 47.828125 
Q 26.265625 48.1875 28.421875 48.1875 
Q 40.625 48.1875 47.75 41.5 
Q 54.890625 34.8125 54.890625 23.390625 
Q 54.890625 11.625 47.5625 5.09375 
Q 40.234375 -1.421875 26.90625 -1.421875 
Q 22.3125 -1.421875 17.546875 -0.640625 
Q 12.796875 0.140625 7.71875 1.703125 
L 7.71875 11.625 
Q 12.109375 9.234375 16.796875 8.0625 
Q 21.484375 6.890625 26.703125 6.890625 
Q 35.15625 6.890625 40.078125 11.328125 
Q 45.015625 15.765625 45.015625 23.390625 
Q 45.015625 31 40.078125 35.4375 
Q 35.15625 39.890625 26.703125 39.890625 
Q 22.75 39.890625 18.8125 39.015625 
Q 14.890625 38.140625 10.796875 36.28125 
z
" id="DejaVuSans-53"/>
      </defs>
      <g transform="translate(812.914864 475.333638)scale(0.1 -0.1)">
       <use transform="translate(0 0.684375)" xlink:href="#DejaVuSans-49"/>
       <use transform="translate(63.623047 0.684375)" xlink:href="#DejaVuSans-48"/>
       <use transform="translate(128.203125 38.965625)scale(0.7)" xlink:href="#DejaVuSans-53"/>
      </g>
     </g>
    </g>
    <g id="xtick_7">
     <g id="line2d_7">
      <defs>
       <path d="M 0 0 
L 0 2 
" id="m76a537c19b" style="stroke:#000000;stroke-width:0.6;"/>
      </defs>
      <g>
       <use style="stroke:#000000;stroke-width:0.6;" x="117.758051" xlink:href="#m76a537c19b" y="460.7352"/>
      </g>
     </g>
    </g>
    <g id="xtick_8">
     <g id="line2d_8">
      <g>
       <use style="stroke:#000000;stroke-width:0.6;" x="126.78314" xlink:href="#m76a537c19b" y="460.7352"/>
      </g>
     </g>
    </g>
    <g id="xtick_9">
     <g id="line2d_9">
      <g>
       <use style="stroke:#000000;stroke-width:0.6;" x="134.601027" xlink:href="#m76a537c19b" y="460.7352"/>
      </g>
     </g>
    </g>
    <g id="xtick_10">
     <g id="line2d_10">
      <g>
       <use style="stroke:#000000;stroke-width:0.6;" x="141.496893" xlink:href="#m76a537c19b" y="460.7352"/>
      </g>
     </g>
    </g>
    <g id="xtick_11">
     <g id="line2d_11">
      <g>
       <use style="stroke:#000000;stroke-width:0.6;" x="188.247273" xlink:href="#m76a537c19b" y="460.7352"/>
      </g>
     </g>
    </g>
    <g id="xtick_12">
     <g id="line2d_12">
      <g>
       <use style="stroke:#000000;stroke-width:0.6;" x="211.986115" xlink:href="#m76a537c19b" y="460.7352"/>
      </g>
     </g>
    </g>
    <g id="xtick_13">
     <g id="line2d_13">
      <g>
       <use style="stroke:#000000;stroke-width:0.6;" x="228.829091" xlink:href="#m76a537c19b" y="460.7352"/>
      </g>
     </g>
    </g>
    <g id="xtick_14">
     <g id="line2d_14">
      <g>
       <use style="stroke:#000000;stroke-width:0.6;" x="241.893518" xlink:href="#m76a537c19b" y="460.7352"/>
      </g>
     </g>
    </g>
    <g id="xtick_15">
     <g id="line2d_15">
      <g>
       <use style="stroke:#000000;stroke-width:0.6;" x="252.567933" xlink:href="#m76a537c19b" y="460.7352"/>
      </g>
     </g>
    </g>
    <g id="xtick_16">
     <g id="line2d_16">
      <g>
       <use style="stroke:#000000;stroke-width:0.6;" x="261.593022" xlink:href="#m76a537c19b" y="460.7352"/>
      </g>
     </g>
    </g>
    <g id="xtick_17">
     <g id="line2d_17">
      <g>
       <use style="stroke:#000000;stroke-width:0.6;" x="269.410909" xlink:href="#m76a537c19b" y="460.7352"/>
      </g>
     </g>
    </g>
    <g id="xtick_18">
     <g id="line2d_18">
      <g>
       <use style="stroke:#000000;stroke-width:0.6;" x="276.306775" xlink:href="#m76a537c19b" y="460.7352"/>
      </g>
     </g>
    </g>
    <g id="xtick_19">
     <g id="line2d_19">
      <g>
       <use style="stroke:#000000;stroke-width:0.6;" x="323.057155" xlink:href="#m76a537c19b" y="460.7352"/>
      </g>
     </g>
    </g>
    <g id="xtick_20">
     <g id="line2d_20">
      <g>
       <use style="stroke:#000000;stroke-width:0.6;" x="346.795997" xlink:href="#m76a537c19b" y="460.7352"/>
      </g>
     </g>
    </g>
    <g id="xtick_21">
     <g id="line2d_21">
      <g>
       <use style="stroke:#000000;stroke-width:0.6;" x="363.638973" xlink:href="#m76a537c19b" y="460.7352"/>
      </g>
     </g>
    </g>
    <g id="xtick_22">
     <g id="line2d_22">
      <g>
       <use style="stroke:#000000;stroke-width:0.6;" x="376.7034" xlink:href="#m76a537c19b" y="460.7352"/>
      </g>
     </g>
    </g>
    <g id="xtick_23">
     <g id="line2d_23">
      <g>
       <use style="stroke:#000000;stroke-width:0.6;" x="387.377815" xlink:href="#m76a537c19b" y="460.7352"/>
      </g>
     </g>
    </g>
    <g id="xtick_24">
     <g id="line2d_24">
      <g>
       <use style="stroke:#000000;stroke-width:0.6;" x="396.402904" xlink:href="#m76a537c19b" y="460.7352"/>
      </g>
     </g>
    </g>
    <g id="xtick_25">
     <g id="line2d_25">
      <g>
       <use style="stroke:#000000;stroke-width:0.6;" x="404.220791" xlink:href="#m76a537c19b" y="460.7352"/>
      </g>
     </g>
    </g>
    <g id="xtick_26">
     <g id="line2d_26">
      <g>
       <use style="stroke:#000000;stroke-width:0.6;" x="411.116657" xlink:href="#m76a537c19b" y="460.7352"/>
      </g>
     </g>
    </g>
    <g id="xtick_27">
     <g id="line2d_27">
      <g>
       <use style="stroke:#000000;stroke-width:0.6;" x="457.867037" xlink:href="#m76a537c19b" y="460.7352"/>
      </g>
     </g>
    </g>
    <g id="xtick_28">
     <g id="line2d_28">
      <g>
       <use style="stroke:#000000;stroke-width:0.6;" x="481.605878" xlink:href="#m76a537c19b" y="460.7352"/>
      </g>
     </g>
    </g>
    <g id="xtick_29">
     <g id="line2d_29">
      <g>
       <use style="stroke:#000000;stroke-width:0.6;" x="498.448855" xlink:href="#m76a537c19b" y="460.7352"/>
      </g>
     </g>
    </g>
    <g id="xtick_30">
     <g id="line2d_30">
      <g>
       <use style="stroke:#000000;stroke-width:0.6;" x="511.513282" xlink:href="#m76a537c19b" y="460.7352"/>
      </g>
     </g>
    </g>
    <g id="xtick_31">
     <g id="line2d_31">
      <g>
       <use style="stroke:#000000;stroke-width:0.6;" x="522.187697" xlink:href="#m76a537c19b" y="460.7352"/>
      </g>
     </g>
    </g>
    <g id="xtick_32">
     <g id="line2d_32">
      <g>
       <use style="stroke:#000000;stroke-width:0.6;" x="531.212785" xlink:href="#m76a537c19b" y="460.7352"/>
      </g>
     </g>
    </g>
    <g id="xtick_33">
     <g id="line2d_33">
      <g>
       <use style="stroke:#000000;stroke-width:0.6;" x="539.030673" xlink:href="#m76a537c19b" y="460.7352"/>
      </g>
     </g>
    </g>
    <g id="xtick_34">
     <g id="line2d_34">
      <g>
       <use style="stroke:#000000;stroke-width:0.6;" x="545.926539" xlink:href="#m76a537c19b" y="460.7352"/>
      </g>
     </g>
    </g>
    <g id="xtick_35">
     <g id="line2d_35">
      <g>
       <use style="stroke:#000000;stroke-width:0.6;" x="592.676919" xlink:href="#m76a537c19b" y="460.7352"/>
      </g>
     </g>
    </g>
    <g id="xtick_36">
     <g id="line2d_36">
      <g>
       <use style="stroke:#000000;stroke-width:0.6;" x="616.41576" xlink:href="#m76a537c19b" y="460.7352"/>
      </g>
     </g>
    </g>
    <g id="xtick_37">
     <g id="line2d_37">
      <g>
       <use style="stroke:#000000;stroke-width:0.6;" x="633.258737" xlink:href="#m76a537c19b" y="460.7352"/>
      </g>
     </g>
    </g>
    <g id="xtick_38">
     <g id="line2d_38">
      <g>
       <use style="stroke:#000000;stroke-width:0.6;" x="646.323164" xlink:href="#m76a537c19b" y="460.7352"/>
      </g>
     </g>
    </g>
    <g id="xtick_39">
     <g id="line2d_39">
      <g>
       <use style="stroke:#000000;stroke-width:0.6;" x="656.997579" xlink:href="#m76a537c19b" y="460.7352"/>
      </g>
     </g>
    </g>
    <g id="xtick_40">
     <g id="line2d_40">
      <g>
       <use style="stroke:#000000;stroke-width:0.6;" x="666.022667" xlink:href="#m76a537c19b" y="460.7352"/>
      </g>
     </g>
    </g>
    <g id="xtick_41">
     <g id="line2d_41">
      <g>
       <use style="stroke:#000000;stroke-width:0.6;" x="673.840555" xlink:href="#m76a537c19b" y="460.7352"/>
      </g>
     </g>
    </g>
    <g id="xtick_42">
     <g id="line2d_42">
      <g>
       <use style="stroke:#000000;stroke-width:0.6;" x="680.73642" xlink:href="#m76a537c19b" y="460.7352"/>
      </g>
     </g>
    </g>
    <g id="xtick_43">
     <g id="line2d_43">
      <g>
       <use style="stroke:#000000;stroke-width:0.6;" x="727.486801" xlink:href="#m76a537c19b" y="460.7352"/>
      </g>
     </g>
    </g>
    <g id="xtick_44">
     <g id="line2d_44">
      <g>
       <use style="stroke:#000000;stroke-width:0.6;" x="751.225642" xlink:href="#m76a537c19b" y="460.7352"/>
      </g>
     </g>
    </g>
    <g id="xtick_45">
     <g id="line2d_45">
      <g>
       <use style="stroke:#000000;stroke-width:0.6;" x="768.068619" xlink:href="#m76a537c19b" y="460.7352"/>
      </g>
     </g>
    </g>
    <g id="xtick_46">
     <g id="line2d_46">
      <g>
       <use style="stroke:#000000;stroke-width:0.6;" x="781.133046" xlink:href="#m76a537c19b" y="460.7352"/>
      </g>
     </g>
    </g>
    <g id="xtick_47">
     <g id="line2d_47">
      <g>
       <use style="stroke:#000000;stroke-width:0.6;" x="791.807461" xlink:href="#m76a537c19b" y="460.7352"/>
      </g>
     </g>
    </g>
    <g id="xtick_48">
     <g id="line2d_48">
      <g>
       <use style="stroke:#000000;stroke-width:0.6;" x="800.832549" xlink:href="#m76a537c19b" y="460.7352"/>
      </g>
     </g>
    </g>
    <g id="xtick_49">
     <g id="line2d_49">
      <g>
       <use style="stroke:#000000;stroke-width:0.6;" x="808.650437" xlink:href="#m76a537c19b" y="460.7352"/>
      </g>
     </g>
    </g>
    <g id="xtick_50">
     <g id="line2d_50">
      <g>
       <use style="stroke:#000000;stroke-width:0.6;" x="815.546302" xlink:href="#m76a537c19b" y="460.7352"/>
      </g>
     </g>
    </g>
    <g id="text_7">
     <!-- Number of rows in triangle -->
     <defs>
      <path d="M 9.8125 72.90625 
L 23.09375 72.90625 
L 55.421875 11.921875 
L 55.421875 72.90625 
L 64.984375 72.90625 
L 64.984375 0 
L 51.703125 0 
L 19.390625 60.984375 
L 19.390625 0 
L 9.8125 0 
z
" id="DejaVuSans-78"/>
      <path d="M 8.5 21.578125 
L 8.5 54.6875 
L 17.484375 54.6875 
L 17.484375 21.921875 
Q 17.484375 14.15625 20.5 10.265625 
Q 23.53125 6.390625 29.59375 6.390625 
Q 36.859375 6.390625 41.078125 11.03125 
Q 45.3125 15.671875 45.3125 23.6875 
L 45.3125 54.6875 
L 54.296875 54.6875 
L 54.296875 0 
L 45.3125 0 
L 45.3125 8.40625 
Q 42.046875 3.421875 37.71875 1 
Q 33.40625 -1.421875 27.6875 -1.421875 
Q 18.265625 -1.421875 13.375 4.4375 
Q 8.5 10.296875 8.5 21.578125 
z
M 31.109375 56 
z
" id="DejaVuSans-117"/>
      <path d="M 52 44.1875 
Q 55.375 50.25 60.0625 53.125 
Q 64.75 56 71.09375 56 
Q 79.640625 56 84.28125 50.015625 
Q 88.921875 44.046875 88.921875 33.015625 
L 88.921875 0 
L 79.890625 0 
L 79.890625 32.71875 
Q 79.890625 40.578125 77.09375 44.375 
Q 74.3125 48.1875 68.609375 48.1875 
Q 61.625 48.1875 57.5625 43.546875 
Q 53.515625 38.921875 53.515625 30.90625 
L 53.515625 0 
L 44.484375 0 
L 44.484375 32.71875 
Q 44.484375 40.625 41.703125 44.40625 
Q 38.921875 48.1875 33.109375 48.1875 
Q 26.21875 48.1875 22.15625 43.53125 
Q 18.109375 38.875 18.109375 30.90625 
L 18.109375 0 
L 9.078125 0 
L 9.078125 54.6875 
L 18.109375 54.6875 
L 18.109375 46.1875 
Q 21.1875 51.21875 25.484375 53.609375 
Q 29.78125 56 35.6875 56 
Q 41.65625 56 45.828125 52.96875 
Q 50 49.953125 52 44.1875 
z
" id="DejaVuSans-109"/>
      <path d="M 48.6875 27.296875 
Q 48.6875 37.203125 44.609375 42.84375 
Q 40.53125 48.484375 33.40625 48.484375 
Q 26.265625 48.484375 22.1875 42.84375 
Q 18.109375 37.203125 18.109375 27.296875 
Q 18.109375 17.390625 22.1875 11.75 
Q 26.265625 6.109375 33.40625 6.109375 
Q 40.53125 6.109375 44.609375 11.75 
Q 48.6875 17.390625 48.6875 27.296875 
z
M 18.109375 46.390625 
Q 20.953125 51.265625 25.265625 53.625 
Q 29.59375 56 35.59375 56 
Q 45.5625 56 51.78125 48.09375 
Q 58.015625 40.1875 58.015625 27.296875 
Q 58.015625 14.40625 51.78125 6.484375 
Q 45.5625 -1.421875 35.59375 -1.421875 
Q 29.59375 -1.421875 25.265625 0.953125 
Q 20.953125 3.328125 18.109375 8.203125 
L 18.109375 0 
L 9.078125 0 
L 9.078125 75.984375 
L 18.109375 75.984375 
z
" id="DejaVuSans-98"/>
      <path d="M 56.203125 29.59375 
L 56.203125 25.203125 
L 14.890625 25.203125 
Q 15.484375 15.921875 20.484375 11.0625 
Q 25.484375 6.203125 34.421875 6.203125 
Q 39.59375 6.203125 44.453125 7.46875 
Q 49.3125 8.734375 54.109375 11.28125 
L 54.109375 2.78125 
Q 49.265625 0.734375 44.1875 -0.34375 
Q 39.109375 -1.421875 33.890625 -1.421875 
Q 20.796875 -1.421875 13.15625 6.1875 
Q 5.515625 13.8125 5.515625 26.8125 
Q 5.515625 40.234375 12.765625 48.109375 
Q 20.015625 56 32.328125 56 
Q 43.359375 56 49.78125 48.890625 
Q 56.203125 41.796875 56.203125 29.59375 
z
M 47.21875 32.234375 
Q 47.125 39.59375 43.09375 43.984375 
Q 39.0625 48.390625 32.421875 48.390625 
Q 24.90625 48.390625 20.390625 44.140625 
Q 15.875 39.890625 15.1875 32.171875 
z
" id="DejaVuSans-101"/>
      <path d="M 41.109375 46.296875 
Q 39.59375 47.171875 37.8125 47.578125 
Q 36.03125 48 33.890625 48 
Q 26.265625 48 22.1875 43.046875 
Q 18.109375 38.09375 18.109375 28.8125 
L 18.109375 0 
L 9.078125 0 
L 9.078125 54.6875 
L 18.109375 54.6875 
L 18.109375 46.1875 
Q 20.953125 51.171875 25.484375 53.578125 
Q 30.03125 56 36.53125 56 
Q 37.453125 56 38.578125 55.875 
Q 39.703125 55.765625 41.0625 55.515625 
z
" id="DejaVuSans-114"/>
      <path id="DejaVuSans-32"/>
      <path d="M 30.609375 48.390625 
Q 23.390625 48.390625 19.1875 42.75 
Q 14.984375 37.109375 14.984375 27.296875 
Q 14.984375 17.484375 19.15625 11.84375 
Q 23.34375 6.203125 30.609375 6.203125 
Q 37.796875 6.203125 41.984375 11.859375 
Q 46.1875 17.53125 46.1875 27.296875 
Q 46.1875 37.015625 41.984375 42.703125 
Q 37.796875 48.390625 30.609375 48.390625 
z
M 30.609375 56 
Q 42.328125 56 49.015625 48.375 
Q 55.71875 40.765625 55.71875 27.296875 
Q 55.71875 13.875 49.015625 6.21875 
Q 42.328125 -1.421875 30.609375 -1.421875 
Q 18.84375 -1.421875 12.171875 6.21875 
Q 5.515625 13.875 5.515625 27.296875 
Q 5.515625 40.765625 12.171875 48.375 
Q 18.84375 56 30.609375 56 
z
" id="DejaVuSans-111"/>
      <path d="M 37.109375 75.984375 
L 37.109375 68.5 
L 28.515625 68.5 
Q 23.6875 68.5 21.796875 66.546875 
Q 19.921875 64.59375 19.921875 59.515625 
L 19.921875 54.6875 
L 34.71875 54.6875 
L 34.71875 47.703125 
L 19.921875 47.703125 
L 19.921875 0 
L 10.890625 0 
L 10.890625 47.703125 
L 2.296875 47.703125 
L 2.296875 54.6875 
L 10.890625 54.6875 
L 10.890625 58.5 
Q 10.890625 67.625 15.140625 71.796875 
Q 19.390625 75.984375 28.609375 75.984375 
z
" id="DejaVuSans-102"/>
      <path d="M 4.203125 54.6875 
L 13.1875 54.6875 
L 24.421875 12.015625 
L 35.59375 54.6875 
L 46.1875 54.6875 
L 57.421875 12.015625 
L 68.609375 54.6875 
L 77.59375 54.6875 
L 63.28125 0 
L 52.6875 0 
L 40.921875 44.828125 
L 29.109375 0 
L 18.5 0 
z
" id="DejaVuSans-119"/>
      <path d="M 44.28125 53.078125 
L 44.28125 44.578125 
Q 40.484375 46.53125 36.375 47.5 
Q 32.28125 48.484375 27.875 48.484375 
Q 21.1875 48.484375 17.84375 46.4375 
Q 14.5 44.390625 14.5 40.28125 
Q 14.5 37.15625 16.890625 35.375 
Q 19.28125 33.59375 26.515625 31.984375 
L 29.59375 31.296875 
Q 39.15625 29.25 43.1875 25.515625 
Q 47.21875 21.78125 47.21875 15.09375 
Q 47.21875 7.46875 41.1875 3.015625 
Q 35.15625 -1.421875 24.609375 -1.421875 
Q 20.21875 -1.421875 15.453125 -0.5625 
Q 10.6875 0.296875 5.421875 2 
L 5.421875 11.28125 
Q 10.40625 8.6875 15.234375 7.390625 
Q 20.0625 6.109375 24.8125 6.109375 
Q 31.15625 6.109375 34.5625 8.28125 
Q 37.984375 10.453125 37.984375 14.40625 
Q 37.984375 18.0625 35.515625 20.015625 
Q 33.0625 21.96875 24.703125 23.78125 
L 21.578125 24.515625 
Q 13.234375 26.265625 9.515625 29.90625 
Q 5.8125 33.546875 5.8125 39.890625 
Q 5.8125 47.609375 11.28125 51.796875 
Q 16.75 56 26.8125 56 
Q 31.78125 56 36.171875 55.265625 
Q 40.578125 54.546875 44.28125 53.078125 
z
" id="DejaVuSans-115"/>
      <path d="M 9.421875 54.6875 
L 18.40625 54.6875 
L 18.40625 0 
L 9.421875 0 
z
M 9.421875 75.984375 
L 18.40625 75.984375 
L 18.40625 64.59375 
L 9.421875 64.59375 
z
" id="DejaVuSans-105"/>
      <path d="M 54.890625 33.015625 
L 54.890625 0 
L 45.90625 0 
L 45.90625 32.71875 
Q 45.90625 40.484375 42.875 44.328125 
Q 39.84375 48.1875 33.796875 48.1875 
Q 26.515625 48.1875 22.3125 43.546875 
Q 18.109375 38.921875 18.109375 30.90625 
L 18.109375 0 
L 9.078125 0 
L 9.078125 54.6875 
L 18.109375 54.6875 
L 18.109375 46.1875 
Q 21.34375 51.125 25.703125 53.5625 
Q 30.078125 56 35.796875 56 
Q 45.21875 56 50.046875 50.171875 
Q 54.890625 44.34375 54.890625 33.015625 
z
" id="DejaVuSans-110"/>
      <path d="M 18.3125 70.21875 
L 18.3125 54.6875 
L 36.8125 54.6875 
L 36.8125 47.703125 
L 18.3125 47.703125 
L 18.3125 18.015625 
Q 18.3125 11.328125 20.140625 9.421875 
Q 21.96875 7.515625 27.59375 7.515625 
L 36.8125 7.515625 
L 36.8125 0 
L 27.59375 0 
Q 17.1875 0 13.234375 3.875 
Q 9.28125 7.765625 9.28125 18.015625 
L 9.28125 47.703125 
L 2.6875 47.703125 
L 2.6875 54.6875 
L 9.28125 54.6875 
L 9.28125 70.21875 
z
" id="DejaVuSans-116"/>
      <path d="M 34.28125 27.484375 
Q 23.390625 27.484375 19.1875 25 
Q 14.984375 22.515625 14.984375 16.5 
Q 14.984375 11.71875 18.140625 8.90625 
Q 21.296875 6.109375 26.703125 6.109375 
Q 34.1875 6.109375 38.703125 11.40625 
Q 43.21875 16.703125 43.21875 25.484375 
L 43.21875 27.484375 
z
M 52.203125 31.203125 
L 52.203125 0 
L 43.21875 0 
L 43.21875 8.296875 
Q 40.140625 3.328125 35.546875 0.953125 
Q 30.953125 -1.421875 24.3125 -1.421875 
Q 15.921875 -1.421875 10.953125 3.296875 
Q 6 8.015625 6 15.921875 
Q 6 25.140625 12.171875 29.828125 
Q 18.359375 34.515625 30.609375 34.515625 
L 43.21875 34.515625 
L 43.21875 35.40625 
Q 43.21875 41.609375 39.140625 45 
Q 35.0625 48.390625 27.6875 48.390625 
Q 23 48.390625 18.546875 47.265625 
Q 14.109375 46.140625 10.015625 43.890625 
L 10.015625 52.203125 
Q 14.9375 54.109375 19.578125 55.046875 
Q 24.21875 56 28.609375 56 
Q 40.484375 56 46.34375 49.84375 
Q 52.203125 43.703125 52.203125 31.203125 
z
" id="DejaVuSans-97"/>
      <path d="M 45.40625 27.984375 
Q 45.40625 37.75 41.375 43.109375 
Q 37.359375 48.484375 30.078125 48.484375 
Q 22.859375 48.484375 18.828125 43.109375 
Q 14.796875 37.75 14.796875 27.984375 
Q 14.796875 18.265625 18.828125 12.890625 
Q 22.859375 7.515625 30.078125 7.515625 
Q 37.359375 7.515625 41.375 12.890625 
Q 45.40625 18.265625 45.40625 27.984375 
z
M 54.390625 6.78125 
Q 54.390625 -7.171875 48.1875 -13.984375 
Q 42 -20.796875 29.203125 -20.796875 
Q 24.46875 -20.796875 20.265625 -20.09375 
Q 16.0625 -19.390625 12.109375 -17.921875 
L 12.109375 -9.1875 
Q 16.0625 -11.328125 19.921875 -12.34375 
Q 23.78125 -13.375 27.78125 -13.375 
Q 36.625 -13.375 41.015625 -8.765625 
Q 45.40625 -4.15625 45.40625 5.171875 
L 45.40625 9.625 
Q 42.625 4.78125 38.28125 2.390625 
Q 33.9375 0 27.875 0 
Q 17.828125 0 11.671875 7.65625 
Q 5.515625 15.328125 5.515625 27.984375 
Q 5.515625 40.671875 11.671875 48.328125 
Q 17.828125 56 27.875 56 
Q 33.9375 56 38.28125 53.609375 
Q 42.625 51.21875 45.40625 46.390625 
L 45.40625 54.6875 
L 54.390625 54.6875 
z
" id="DejaVuSans-103"/>
      <path d="M 9.421875 75.984375 
L 18.40625 75.984375 
L 18.40625 0 
L 9.421875 0 
z
" id="DejaVuSans-108"/>
     </defs>
     <g transform="translate(405.416094 489.011763)scale(0.1 -0.1)">
      <use xlink:href="#DejaVuSans-78"/>
      <use x="74.804688" xlink:href="#DejaVuSans-117"/>
      <use x="138.183594" xlink:href="#DejaVuSans-109"/>
      <use x="235.595703" xlink:href="#DejaVuSans-98"/>
      <use x="299.072266" xlink:href="#DejaVuSans-101"/>
      <use x="360.595703" xlink:href="#DejaVuSans-114"/>
      <use x="401.708984" xlink:href="#DejaVuSans-32"/>
      <use x="433.496094" xlink:href="#DejaVuSans-111"/>
      <use x="494.677734" xlink:href="#DejaVuSans-102"/>
      <use x="529.882812" xlink:href="#DejaVuSans-32"/>
      <use x="561.669922" xlink:href="#DejaVuSans-114"/>
      <use x="602.751953" xlink:href="#DejaVuSans-111"/>
      <use x="663.933594" xlink:href="#DejaVuSans-119"/>
      <use x="745.720703" xlink:href="#DejaVuSans-115"/>
      <use x="797.820312" xlink:href="#DejaVuSans-32"/>
      <use x="829.607422" xlink:href="#DejaVuSans-105"/>
      <use x="857.390625" xlink:href="#DejaVuSans-110"/>
      <use x="920.769531" xlink:href="#DejaVuSans-32"/>
      <use x="952.556641" xlink:href="#DejaVuSans-116"/>
      <use x="991.765625" xlink:href="#DejaVuSans-114"/>
      <use x="1032.878906" xlink:href="#DejaVuSans-105"/>
      <use x="1060.662109" xlink:href="#DejaVuSans-97"/>
      <use x="1121.941406" xlink:href="#DejaVuSans-110"/>
      <use x="1185.320312" xlink:href="#DejaVuSans-103"/>
      <use x="1248.796875" xlink:href="#DejaVuSans-108"/>
      <use x="1276.580078" xlink:href="#DejaVuSans-101"/>
     </g>
    </g>
   </g>
   <g id="matplotlib.axis_2">
    <g id="ytick_1">
     <g id="line2d_51">
      <defs>
       <path d="M 0 0 
L -3.5 0 
" id="mfec40249ba" style="stroke:#000000;stroke-width:0.8;"/>
      </defs>
      <g>
       <use style="stroke:#000000;stroke-width:0.8;" x="115.2" xlink:href="#mfec40249ba" y="408.20832"/>
      </g>
     </g>
     <g id="text_8">
      <!-- $\mathdefault{10^{3}}$ -->
      <g transform="translate(90.6 412.007539)scale(0.1 -0.1)">
       <use transform="translate(0 0.765625)" xlink:href="#DejaVuSans-49"/>
       <use transform="translate(63.623047 0.765625)" xlink:href="#DejaVuSans-48"/>
       <use transform="translate(128.203125 39.046875)scale(0.7)" xlink:href="#DejaVuSans-51"/>
      </g>
     </g>
    </g>
    <g id="ytick_2">
     <g id="line2d_52">
      <g>
       <use style="stroke:#000000;stroke-width:0.8;" x="115.2" xlink:href="#mfec40249ba" y="322.078188"/>
      </g>
     </g>
     <g id="text_9">
      <!-- $\mathdefault{10^{5}}$ -->
      <g transform="translate(90.6 325.877407)scale(0.1 -0.1)">
       <use transform="translate(0 0.684375)" xlink:href="#DejaVuSans-49"/>
       <use transform="translate(63.623047 0.684375)" xlink:href="#DejaVuSans-48"/>
       <use transform="translate(128.203125 38.965625)scale(0.7)" xlink:href="#DejaVuSans-53"/>
      </g>
     </g>
    </g>
    <g id="ytick_3">
     <g id="line2d_53">
      <g>
       <use style="stroke:#000000;stroke-width:0.8;" x="115.2" xlink:href="#mfec40249ba" y="235.948055"/>
      </g>
     </g>
     <g id="text_10">
      <!-- $\mathdefault{10^{7}}$ -->
      <defs>
       <path d="M 8.203125 72.90625 
L 55.078125 72.90625 
L 55.078125 68.703125 
L 28.609375 0 
L 18.3125 0 
L 43.21875 64.59375 
L 8.203125 64.59375 
z
" id="DejaVuSans-55"/>
      </defs>
      <g transform="translate(90.6 239.747274)scale(0.1 -0.1)">
       <use transform="translate(0 0.684375)" xlink:href="#DejaVuSans-49"/>
       <use transform="translate(63.623047 0.684375)" xlink:href="#DejaVuSans-48"/>
       <use transform="translate(128.203125 38.965625)scale(0.7)" xlink:href="#DejaVuSans-55"/>
      </g>
     </g>
    </g>
    <g id="ytick_4">
     <g id="line2d_54">
      <g>
       <use style="stroke:#000000;stroke-width:0.8;" x="115.2" xlink:href="#mfec40249ba" y="149.817923"/>
      </g>
     </g>
     <g id="text_11">
      <!-- $\mathdefault{10^{9}}$ -->
      <defs>
       <path d="M 10.984375 1.515625 
L 10.984375 10.5 
Q 14.703125 8.734375 18.5 7.8125 
Q 22.3125 6.890625 25.984375 6.890625 
Q 35.75 6.890625 40.890625 13.453125 
Q 46.046875 20.015625 46.78125 33.40625 
Q 43.953125 29.203125 39.59375 26.953125 
Q 35.25 24.703125 29.984375 24.703125 
Q 19.046875 24.703125 12.671875 31.3125 
Q 6.296875 37.9375 6.296875 49.421875 
Q 6.296875 60.640625 12.9375 67.421875 
Q 19.578125 74.21875 30.609375 74.21875 
Q 43.265625 74.21875 49.921875 64.515625 
Q 56.59375 54.828125 56.59375 36.375 
Q 56.59375 19.140625 48.40625 8.859375 
Q 40.234375 -1.421875 26.421875 -1.421875 
Q 22.703125 -1.421875 18.890625 -0.6875 
Q 15.09375 0.046875 10.984375 1.515625 
z
M 30.609375 32.421875 
Q 37.25 32.421875 41.125 36.953125 
Q 45.015625 41.5 45.015625 49.421875 
Q 45.015625 57.28125 41.125 61.84375 
Q 37.25 66.40625 30.609375 66.40625 
Q 23.96875 66.40625 20.09375 61.84375 
Q 16.21875 57.28125 16.21875 49.421875 
Q 16.21875 41.5 20.09375 36.953125 
Q 23.96875 32.421875 30.609375 32.421875 
z
" id="DejaVuSans-57"/>
      </defs>
      <g transform="translate(90.6 153.617142)scale(0.1 -0.1)">
       <use transform="translate(0 0.765625)" xlink:href="#DejaVuSans-49"/>
       <use transform="translate(63.623047 0.765625)" xlink:href="#DejaVuSans-48"/>
       <use transform="translate(128.203125 39.046875)scale(0.7)" xlink:href="#DejaVuSans-57"/>
      </g>
     </g>
    </g>
    <g id="ytick_5">
     <g id="line2d_55">
      <g>
       <use style="stroke:#000000;stroke-width:0.8;" x="115.2" xlink:href="#mfec40249ba" y="63.687791"/>
      </g>
     </g>
     <g id="text_12">
      <!-- $\mathdefault{10^{11}}$ -->
      <g transform="translate(86.1 67.48701)scale(0.1 -0.1)">
       <use transform="translate(0 0.684375)" xlink:href="#DejaVuSans-49"/>
       <use transform="translate(63.623047 0.684375)" xlink:href="#DejaVuSans-48"/>
       <use transform="translate(128.203125 38.965625)scale(0.7)" xlink:href="#DejaVuSans-49"/>
       <use transform="translate(172.739258 38.965625)scale(0.7)" xlink:href="#DejaVuSans-49"/>
      </g>
     </g>
    </g>
    <g id="text_13">
     <!-- CPU time (nanoseconds) -->
     <defs>
      <path d="M 64.40625 67.28125 
L 64.40625 56.890625 
Q 59.421875 61.53125 53.78125 63.8125 
Q 48.140625 66.109375 41.796875 66.109375 
Q 29.296875 66.109375 22.65625 58.46875 
Q 16.015625 50.828125 16.015625 36.375 
Q 16.015625 21.96875 22.65625 14.328125 
Q 29.296875 6.6875 41.796875 6.6875 
Q 48.140625 6.6875 53.78125 8.984375 
Q 59.421875 11.28125 64.40625 15.921875 
L 64.40625 5.609375 
Q 59.234375 2.09375 53.4375 0.328125 
Q 47.65625 -1.421875 41.21875 -1.421875 
Q 24.65625 -1.421875 15.125 8.703125 
Q 5.609375 18.84375 5.609375 36.375 
Q 5.609375 53.953125 15.125 64.078125 
Q 24.65625 74.21875 41.21875 74.21875 
Q 47.75 74.21875 53.53125 72.484375 
Q 59.328125 70.75 64.40625 67.28125 
z
" id="DejaVuSans-67"/>
      <path d="M 19.671875 64.796875 
L 19.671875 37.40625 
L 32.078125 37.40625 
Q 38.96875 37.40625 42.71875 40.96875 
Q 46.484375 44.53125 46.484375 51.125 
Q 46.484375 57.671875 42.71875 61.234375 
Q 38.96875 64.796875 32.078125 64.796875 
z
M 9.8125 72.90625 
L 32.078125 72.90625 
Q 44.34375 72.90625 50.609375 67.359375 
Q 56.890625 61.8125 56.890625 51.125 
Q 56.890625 40.328125 50.609375 34.8125 
Q 44.34375 29.296875 32.078125 29.296875 
L 19.671875 29.296875 
L 19.671875 0 
L 9.8125 0 
z
" id="DejaVuSans-80"/>
      <path d="M 8.6875 72.90625 
L 18.609375 72.90625 
L 18.609375 28.609375 
Q 18.609375 16.890625 22.84375 11.734375 
Q 27.09375 6.59375 36.625 6.59375 
Q 46.09375 6.59375 50.34375 11.734375 
Q 54.59375 16.890625 54.59375 28.609375 
L 54.59375 72.90625 
L 64.5 72.90625 
L 64.5 27.390625 
Q 64.5 13.140625 57.4375 5.859375 
Q 50.390625 -1.421875 36.625 -1.421875 
Q 22.796875 -1.421875 15.734375 5.859375 
Q 8.6875 13.140625 8.6875 27.390625 
z
" id="DejaVuSans-85"/>
      <path d="M 31 75.875 
Q 24.46875 64.65625 21.28125 53.65625 
Q 18.109375 42.671875 18.109375 31.390625 
Q 18.109375 20.125 21.3125 9.0625 
Q 24.515625 -2 31 -13.1875 
L 23.1875 -13.1875 
Q 15.875 -1.703125 12.234375 9.375 
Q 8.59375 20.453125 8.59375 31.390625 
Q 8.59375 42.28125 12.203125 53.3125 
Q 15.828125 64.359375 23.1875 75.875 
z
" id="DejaVuSans-40"/>
      <path d="M 48.78125 52.59375 
L 48.78125 44.1875 
Q 44.96875 46.296875 41.140625 47.34375 
Q 37.3125 48.390625 33.40625 48.390625 
Q 24.65625 48.390625 19.8125 42.84375 
Q 14.984375 37.3125 14.984375 27.296875 
Q 14.984375 17.28125 19.8125 11.734375 
Q 24.65625 6.203125 33.40625 6.203125 
Q 37.3125 6.203125 41.140625 7.25 
Q 44.96875 8.296875 48.78125 10.40625 
L 48.78125 2.09375 
Q 45.015625 0.34375 40.984375 -0.53125 
Q 36.96875 -1.421875 32.421875 -1.421875 
Q 20.0625 -1.421875 12.78125 6.34375 
Q 5.515625 14.109375 5.515625 27.296875 
Q 5.515625 40.671875 12.859375 48.328125 
Q 20.21875 56 33.015625 56 
Q 37.15625 56 41.109375 55.140625 
Q 45.0625 54.296875 48.78125 52.59375 
z
" id="DejaVuSans-99"/>
      <path d="M 45.40625 46.390625 
L 45.40625 75.984375 
L 54.390625 75.984375 
L 54.390625 0 
L 45.40625 0 
L 45.40625 8.203125 
Q 42.578125 3.328125 38.25 0.953125 
Q 33.9375 -1.421875 27.875 -1.421875 
Q 17.96875 -1.421875 11.734375 6.484375 
Q 5.515625 14.40625 5.515625 27.296875 
Q 5.515625 40.1875 11.734375 48.09375 
Q 17.96875 56 27.875 56 
Q 33.9375 56 38.25 53.625 
Q 42.578125 51.265625 45.40625 46.390625 
z
M 14.796875 27.296875 
Q 14.796875 17.390625 18.875 11.75 
Q 22.953125 6.109375 30.078125 6.109375 
Q 37.203125 6.109375 41.296875 11.75 
Q 45.40625 17.390625 45.40625 27.296875 
Q 45.40625 37.203125 41.296875 42.84375 
Q 37.203125 48.484375 30.078125 48.484375 
Q 22.953125 48.484375 18.875 42.84375 
Q 14.796875 37.203125 14.796875 27.296875 
z
" id="DejaVuSans-100"/>
      <path d="M 8.015625 75.875 
L 15.828125 75.875 
Q 23.140625 64.359375 26.78125 53.3125 
Q 30.421875 42.28125 30.421875 31.390625 
Q 30.421875 20.453125 26.78125 9.375 
Q 23.140625 -1.703125 15.828125 -13.1875 
L 8.015625 -13.1875 
Q 14.5 -2 17.703125 9.0625 
Q 20.90625 20.125 20.90625 31.390625 
Q 20.90625 42.671875 17.703125 53.65625 
Q 14.5 64.65625 8.015625 75.875 
z
" id="DejaVuSans-41"/>
     </defs>
     <g transform="translate(80.020312 322.868244)rotate(-90)scale(0.1 -0.1)">
      <use xlink:href="#DejaVuSans-67"/>
      <use x="69.824219" xlink:href="#DejaVuSans-80"/>
      <use x="130.126953" xlink:href="#DejaVuSans-85"/>
      <use x="203.320312" xlink:href="#DejaVuSans-32"/>
      <use x="235.107422" xlink:href="#DejaVuSans-116"/>
      <use x="274.316406" xlink:href="#DejaVuSans-105"/>
      <use x="302.099609" xlink:href="#DejaVuSans-109"/>
      <use x="399.511719" xlink:href="#DejaVuSans-101"/>
      <use x="461.035156" xlink:href="#DejaVuSans-32"/>
      <use x="492.822266" xlink:href="#DejaVuSans-40"/>
      <use x="531.835938" xlink:href="#DejaVuSans-110"/>
      <use x="595.214844" xlink:href="#DejaVuSans-97"/>
      <use x="656.494141" xlink:href="#DejaVuSans-110"/>
      <use x="719.873047" xlink:href="#DejaVuSans-111"/>
      <use x="781.054688" xlink:href="#DejaVuSans-115"/>
      <use x="833.154297" xlink:href="#DejaVuSans-101"/>
      <use x="894.677734" xlink:href="#DejaVuSans-99"/>
      <use x="949.658203" xlink:href="#DejaVuSans-111"/>
      <use x="1010.839844" xlink:href="#DejaVuSans-110"/>
      <use x="1074.21875" xlink:href="#DejaVuSans-100"/>
      <use x="1137.695312" xlink:href="#DejaVuSans-115"/>
      <use x="1189.794922" xlink:href="#DejaVuSans-41"/>
     </g>
    </g>
   </g>
   <g id="line2d_56">
    <path clip-path="url(#pface1e70ea)" d="M 147.665455 442.6164 
L 188.247273 434.851495 
L 211.986115 427.144659 
L 228.829091 422.92509 
L 241.893518 419.368102 
L 252.567933 414.940661 
L 261.593022 413.033691 
L 269.410909 410.612553 
L 276.306775 409.755044 
L 282.475337 406.604836 
L 288.05548 404.407942 
L 306.214178 399.902087 
L 320.054077 395.152805 
L 331.239823 391.632443 
L 340.627435 388.958696 
L 348.715748 386.12749 
L 355.821085 383.293424 
L 362.156686 381.154758 
L 367.873144 379.241792 
L 373.080769 377.480284 
L 377.862788 375.83074 
L 382.283543 374.318209 
L 386.393805 372.882633 
L 390.234342 371.545598 
L 391.156364 371.425918 
L 431.738182 355.459645 
L 472.32 337.841441 
L 512.901818 317.624498 
L 553.483636 296.185719 
L 594.065455 246.892413 
L 634.647273 217.420709 
L 646.323164 207.553893 
L 675.229091 188.562158 
L 715.810909 163.359981 
L 756.392727 137.172475 
L 796.974545 83.795567 
" style="fill:none;stroke:#000000;stroke-linecap:square;"/>
    <defs>
     <path d="M 0 2.5 
C 0.663008 2.5 1.29895 2.236584 1.767767 1.767767 
C 2.236584 1.29895 2.5 0.663008 2.5 0 
C 2.5 -0.663008 2.236584 -1.29895 1.767767 -1.767767 
C 1.29895 -2.236584 0.663008 -2.5 0 -2.5 
C -0.663008 -2.5 -1.29895 -2.236584 -1.767767 -1.767767 
C -2.236584 -1.29895 -2.5 -0.663008 -2.5 0 
C -2.5 0.663008 -2.236584 1.29895 -1.767767 1.767767 
C -1.29895 2.236584 -0.663008 2.5 0 2.5 
z
" id="m44a7e6b37d" style="stroke:#000000;"/>
    </defs>
    <g clip-path="url(#pface1e70ea)">
     <use style="stroke:#000000;" x="147.665455" xlink:href="#m44a7e6b37d" y="442.6164"/>
     <use style="stroke:#000000;" x="188.247273" xlink:href="#m44a7e6b37d" y="434.851495"/>
     <use style="stroke:#000000;" x="211.986115" xlink:href="#m44a7e6b37d" y="427.144659"/>
     <use style="stroke:#000000;" x="228.829091" xlink:href="#m44a7e6b37d" y="422.92509"/>
     <use style="stroke:#000000;" x="241.893518" xlink:href="#m44a7e6b37d" y="419.368102"/>
     <use style="stroke:#000000;" x="252.567933" xlink:href="#m44a7e6b37d" y="414.940661"/>
     <use style="stroke:#000000;" x="261.593022" xlink:href="#m44a7e6b37d" y="413.033691"/>
     <use style="stroke:#000000;" x="269.410909" xlink:href="#m44a7e6b37d" y="410.612553"/>
     <use style="stroke:#000000;" x="276.306775" xlink:href="#m44a7e6b37d" y="409.755044"/>
     <use style="stroke:#000000;" x="282.475337" xlink:href="#m44a7e6b37d" y="406.604836"/>
     <use style="stroke:#000000;" x="288.05548" xlink:href="#m44a7e6b37d" y="404.407942"/>
     <use style="stroke:#000000;" x="306.214178" xlink:href="#m44a7e6b37d" y="399.902087"/>
     <use style="stroke:#000000;" x="320.054077" xlink:href="#m44a7e6b37d" y="395.152805"/>
     <use style="stroke:#000000;" x="331.239823" xlink:href="#m44a7e6b37d" y="391.632443"/>
     <use style="stroke:#000000;" x="340.627435" xlink:href="#m44a7e6b37d" y="388.958696"/>
     <use style="stroke:#000000;" x="348.715748" xlink:href="#m44a7e6b37d" y="386.12749"/>
     <use style="stroke:#000000;" x="355.821085" xlink:href="#m44a7e6b37d" y="383.293424"/>
     <use style="stroke:#000000;" x="362.156686" xlink:href="#m44a7e6b37d" y="381.154758"/>
     <use style="stroke:#000000;" x="367.873144" xlink:href="#m44a7e6b37d" y="379.241792"/>
     <use style="stroke:#000000;" x="373.080769" xlink:href="#m44a7e6b37d" y="377.480284"/>
     <use style="stroke:#000000;" x="377.862788" xlink:href="#m44a7e6b37d" y="375.83074"/>
     <use style="stroke:#000000;" x="382.283543" xlink:href="#m44a7e6b37d" y="374.318209"/>
     <use style="stroke:#000000;" x="386.393805" xlink:href="#m44a7e6b37d" y="372.882633"/>
     <use style="stroke:#000000;" x="390.234342" xlink:href="#m44a7e6b37d" y="371.545598"/>
     <use style="stroke:#000000;" x="391.156364" xlink:href="#m44a7e6b37d" y="371.425918"/>
     <use style="stroke:#000000;" x="431.738182" xlink:href="#m44a7e6b37d" y="355.459645"/>
     <use style="stroke:#000000;" x="472.32" xlink:href="#m44a7e6b37d" y="337.841441"/>
     <use style="stroke:#000000;" x="512.901818" xlink:href="#m44a7e6b37d" y="317.624498"/>
     <use style="stroke:#000000;" x="553.483636" xlink:href="#m44a7e6b37d" y="296.185719"/>
     <use style="stroke:#000000;" x="594.065455" xlink:href="#m44a7e6b37d" y="246.892413"/>
     <use style="stroke:#000000;" x="634.647273" xlink:href="#m44a7e6b37d" y="217.420709"/>
     <use style="stroke:#000000;" x="646.323164" xlink:href="#m44a7e6b37d" y="207.553893"/>
     <use style="stroke:#000000;" x="675.229091" xlink:href="#m44a7e6b37d" y="188.562158"/>
     <use style="stroke:#000000;" x="715.810909" xlink:href="#m44a7e6b37d" y="163.359981"/>
     <use style="stroke:#000000;" x="756.392727" xlink:href="#m44a7e6b37d" y="137.172475"/>
     <use style="stroke:#000000;" x="796.974545" xlink:href="#m44a7e6b37d" y="83.795567"/>
    </g>
   </g>
   <g id="line2d_57">
    <path clip-path="url(#pface1e70ea)" d="M 147.665455 440.333109 
L 188.247273 433.555081 
L 211.986115 425.216024 
L 228.829091 421.571885 
L 241.893518 418.016564 
L 252.567933 414.997462 
L 261.593022 412.474425 
L 269.410909 409.681964 
L 276.306775 408.156713 
L 282.475337 405.771044 
L 288.05548 403.821258 
L 306.214178 399.074552 
L 320.054077 394.201253 
L 331.239823 390.46812 
L 340.627435 387.315652 
L 348.715748 384.684964 
L 355.821085 382.384131 
L 362.156686 380.013498 
L 367.873144 378.076259 
L 373.080769 375.765408 
L 377.862788 374.93987 
L 382.283543 373.502413 
L 386.393805 372.106278 
L 390.234342 370.7952 
L 391.156364 370.482814 
L 431.738182 354.89677 
L 472.32 336.420942 
L 512.901818 315.432172 
L 553.483636 293.580194 
L 594.065455 244.21121 
L 634.647273 215.653633 
L 646.323164 205.301113 
L 675.229091 186.160503 
L 715.810909 160.088549 
L 756.392727 134.151186 
L 796.974545 80.2404 
" style="fill:none;stroke:#0652ff;stroke-linecap:square;"/>
    <defs>
     <path d="M -2.5 0 
L 2.5 0 
M 0 2.5 
L 0 -2.5 
" id="mac060d3099" style="stroke:#0652ff;"/>
    </defs>
    <g clip-path="url(#pface1e70ea)">
     <use style="fill:#0652ff;stroke:#0652ff;" x="147.665455" xlink:href="#mac060d3099" y="440.333109"/>
     <use style="fill:#0652ff;stroke:#0652ff;" x="188.247273" xlink:href="#mac060d3099" y="433.555081"/>
     <use style="fill:#0652ff;stroke:#0652ff;" x="211.986115" xlink:href="#mac060d3099" y="425.216024"/>
     <use style="fill:#0652ff;stroke:#0652ff;" x="228.829091" xlink:href="#mac060d3099" y="421.571885"/>
     <use style="fill:#0652ff;stroke:#0652ff;" x="241.893518" xlink:href="#mac060d3099" y="418.016564"/>
     <use style="fill:#0652ff;stroke:#0652ff;" x="252.567933" xlink:href="#mac060d3099" y="414.997462"/>
     <use style="fill:#0652ff;stroke:#0652ff;" x="261.593022" xlink:href="#mac060d3099" y="412.474425"/>
     <use style="fill:#0652ff;stroke:#0652ff;" x="269.410909" xlink:href="#mac060d3099" y="409.681964"/>
     <use style="fill:#0652ff;stroke:#0652ff;" x="276.306775" xlink:href="#mac060d3099" y="408.156713"/>
     <use style="fill:#0652ff;stroke:#0652ff;" x="282.475337" xlink:href="#mac060d3099" y="405.771044"/>
     <use style="fill:#0652ff;stroke:#0652ff;" x="288.05548" xlink:href="#mac060d3099" y="403.821258"/>
     <use style="fill:#0652ff;stroke:#0652ff;" x="306.214178" xlink:href="#mac060d3099" y="399.074552"/>
     <use style="fill:#0652ff;stroke:#0652ff;" x="320.054077" xlink:href="#mac060d3099" y="394.201253"/>
     <use style="fill:#0652ff;stroke:#0652ff;" x="331.239823" xlink:href="#mac060d3099" y="390.46812"/>
     <use style="fill:#0652ff;stroke:#0652ff;" x="340.627435" xlink:href="#mac060d3099" y="387.315652"/>
     <use style="fill:#0652ff;stroke:#0652ff;" x="348.715748" xlink:href="#mac060d3099" y="384.684964"/>
     <use style="fill:#0652ff;stroke:#0652ff;" x="355.821085" xlink:href="#mac060d3099" y="382.384131"/>
     <use style="fill:#0652ff;stroke:#0652ff;" x="362.156686" xlink:href="#mac060d3099" y="380.013498"/>
     <use style="fill:#0652ff;stroke:#0652ff;" x="367.873144" xlink:href="#mac060d3099" y="378.076259"/>
     <use style="fill:#0652ff;stroke:#0652ff;" x="373.080769" xlink:href="#mac060d3099" y="375.765408"/>
     <use style="fill:#0652ff;stroke:#0652ff;" x="377.862788" xlink:href="#mac060d3099" y="374.93987"/>
     <use style="fill:#0652ff;stroke:#0652ff;" x="382.283543" xlink:href="#mac060d3099" y="373.502413"/>
     <use style="fill:#0652ff;stroke:#0652ff;" x="386.393805" xlink:href="#mac060d3099" y="372.106278"/>
     <use style="fill:#0652ff;stroke:#0652ff;" x="390.234342" xlink:href="#mac060d3099" y="370.7952"/>
     <use style="fill:#0652ff;stroke:#0652ff;" x="391.156364" xlink:href="#mac060d3099" y="370.482814"/>
     <use style="fill:#0652ff;stroke:#0652ff;" x="431.738182" xlink:href="#mac060d3099" y="354.89677"/>
     <use style="fill:#0652ff;stroke:#0652ff;" x="472.32" xlink:href="#mac060d3099" y="336.420942"/>
     <use style="fill:#0652ff;stroke:#0652ff;" x="512.901818" xlink:href="#mac060d3099" y="315.432172"/>
     <use style="fill:#0652ff;stroke:#0652ff;" x="553.483636" xlink:href="#mac060d3099" y="293.580194"/>
     <use style="fill:#0652ff;stroke:#0652ff;" x="594.065455" xlink:href="#mac060d3099" y="244.21121"/>
     <use style="fill:#0652ff;stroke:#0652ff;" x="634.647273" xlink:href="#mac060d3099" y="215.653633"/>
     <use style="fill:#0652ff;stroke:#0652ff;" x="646.323164" xlink:href="#mac060d3099" y="205.301113"/>
     <use style="fill:#0652ff;stroke:#0652ff;" x="675.229091" xlink:href="#mac060d3099" y="186.160503"/>
     <use style="fill:#0652ff;stroke:#0652ff;" x="715.810909" xlink:href="#mac060d3099" y="160.088549"/>
     <use style="fill:#0652ff;stroke:#0652ff;" x="756.392727" xlink:href="#mac060d3099" y="134.151186"/>
     <use style="fill:#0652ff;stroke:#0652ff;" x="796.974545" xlink:href="#mac060d3099" y="80.2404"/>
    </g>
   </g>
   <g id="line2d_58">
    <path clip-path="url(#pface1e70ea)" d="M 147.665455 435.330705 
L 188.247273 422.591351 
L 211.986115 420.49029 
L 228.829091 415.787496 
L 241.893518 412.881459 
L 252.567933 409.782041 
L 261.593022 407.770245 
L 269.410909 405.42175 
L 276.306775 403.069427 
L 282.475337 400.04455 
L 288.05548 400.587062 
L 306.214178 394.2433 
L 320.054077 389.989948 
L 331.239823 385.962767 
L 340.627435 382.396348 
L 348.715748 377.532103 
L 355.821085 375.690255 
L 362.156686 372.97352 
L 367.873144 370.562097 
L 373.080769 368.247014 
L 377.862788 365.13563 
L 382.283543 364.58557 
L 386.393805 362.708896 
L 390.234342 360.955931 
L 391.156364 359.786368 
L 431.738182 339.09922 
L 472.32 316.201937 
L 512.901818 291.930754 
L 553.483636 265.347665 
L 594.065455 233.769576 
L 634.647273 208.302392 
L 646.323164 197.771551 
L 675.229091 178.681278 
L 715.810909 151.968175 
L 756.392727 127.683225 
L 796.974545 83.245666 
" style="fill:none;stroke:#0cff0c;stroke-linecap:square;"/>
    <defs>
     <path d="M -2.5 2.5 
L 2.5 -2.5 
M -2.5 -2.5 
L 2.5 2.5 
" id="me2ec3c7aeb" style="stroke:#0cff0c;"/>
    </defs>
    <g clip-path="url(#pface1e70ea)">
     <use style="fill:#0cff0c;stroke:#0cff0c;" x="147.665455" xlink:href="#me2ec3c7aeb" y="435.330705"/>
     <use style="fill:#0cff0c;stroke:#0cff0c;" x="188.247273" xlink:href="#me2ec3c7aeb" y="422.591351"/>
     <use style="fill:#0cff0c;stroke:#0cff0c;" x="211.986115" xlink:href="#me2ec3c7aeb" y="420.49029"/>
     <use style="fill:#0cff0c;stroke:#0cff0c;" x="228.829091" xlink:href="#me2ec3c7aeb" y="415.787496"/>
     <use style="fill:#0cff0c;stroke:#0cff0c;" x="241.893518" xlink:href="#me2ec3c7aeb" y="412.881459"/>
     <use style="fill:#0cff0c;stroke:#0cff0c;" x="252.567933" xlink:href="#me2ec3c7aeb" y="409.782041"/>
     <use style="fill:#0cff0c;stroke:#0cff0c;" x="261.593022" xlink:href="#me2ec3c7aeb" y="407.770245"/>
     <use style="fill:#0cff0c;stroke:#0cff0c;" x="269.410909" xlink:href="#me2ec3c7aeb" y="405.42175"/>
     <use style="fill:#0cff0c;stroke:#0cff0c;" x="276.306775" xlink:href="#me2ec3c7aeb" y="403.069427"/>
     <use style="fill:#0cff0c;stroke:#0cff0c;" x="282.475337" xlink:href="#me2ec3c7aeb" y="400.04455"/>
     <use style="fill:#0cff0c;stroke:#0cff0c;" x="288.05548" xlink:href="#me2ec3c7aeb" y="400.587062"/>
     <use style="fill:#0cff0c;stroke:#0cff0c;" x="306.214178" xlink:href="#me2ec3c7aeb" y="394.2433"/>
     <use style="fill:#0cff0c;stroke:#0cff0c;" x="320.054077" xlink:href="#me2ec3c7aeb" y="389.989948"/>
     <use style="fill:#0cff0c;stroke:#0cff0c;" x="331.239823" xlink:href="#me2ec3c7aeb" y="385.962767"/>
     <use style="fill:#0cff0c;stroke:#0cff0c;" x="340.627435" xlink:href="#me2ec3c7aeb" y="382.396348"/>
     <use style="fill:#0cff0c;stroke:#0cff0c;" x="348.715748" xlink:href="#me2ec3c7aeb" y="377.532103"/>
     <use style="fill:#0cff0c;stroke:#0cff0c;" x="355.821085" xlink:href="#me2ec3c7aeb" y="375.690255"/>
     <use style="fill:#0cff0c;stroke:#0cff0c;" x="362.156686" xlink:href="#me2ec3c7aeb" y="372.97352"/>
     <use style="fill:#0cff0c;stroke:#0cff0c;" x="367.873144" xlink:href="#me2ec3c7aeb" y="370.562097"/>
     <use style="fill:#0cff0c;stroke:#0cff0c;" x="373.080769" xlink:href="#me2ec3c7aeb" y="368.247014"/>
     <use style="fill:#0cff0c;stroke:#0cff0c;" x="377.862788" xlink:href="#me2ec3c7aeb" y="365.13563"/>
     <use style="fill:#0cff0c;stroke:#0cff0c;" x="382.283543" xlink:href="#me2ec3c7aeb" y="364.58557"/>
     <use style="fill:#0cff0c;stroke:#0cff0c;" x="386.393805" xlink:href="#me2ec3c7aeb" y="362.708896"/>
     <use style="fill:#0cff0c;stroke:#0cff0c;" x="390.234342" xlink:href="#me2ec3c7aeb" y="360.955931"/>
     <use style="fill:#0cff0c;stroke:#0cff0c;" x="391.156364" xlink:href="#me2ec3c7aeb" y="359.786368"/>
     <use style="fill:#0cff0c;stroke:#0cff0c;" x="431.738182" xlink:href="#me2ec3c7aeb" y="339.09922"/>
     <use style="fill:#0cff0c;stroke:#0cff0c;" x="472.32" xlink:href="#me2ec3c7aeb" y="316.201937"/>
     <use style="fill:#0cff0c;stroke:#0cff0c;" x="512.901818" xlink:href="#me2ec3c7aeb" y="291.930754"/>
     <use style="fill:#0cff0c;stroke:#0cff0c;" x="553.483636" xlink:href="#me2ec3c7aeb" y="265.347665"/>
     <use style="fill:#0cff0c;stroke:#0cff0c;" x="594.065455" xlink:href="#me2ec3c7aeb" y="233.769576"/>
     <use style="fill:#0cff0c;stroke:#0cff0c;" x="634.647273" xlink:href="#me2ec3c7aeb" y="208.302392"/>
     <use style="fill:#0cff0c;stroke:#0cff0c;" x="646.323164" xlink:href="#me2ec3c7aeb" y="197.771551"/>
     <use style="fill:#0cff0c;stroke:#0cff0c;" x="675.229091" xlink:href="#me2ec3c7aeb" y="178.681278"/>
     <use style="fill:#0cff0c;stroke:#0cff0c;" x="715.810909" xlink:href="#me2ec3c7aeb" y="151.968175"/>
     <use style="fill:#0cff0c;stroke:#0cff0c;" x="756.392727" xlink:href="#me2ec3c7aeb" y="127.683225"/>
     <use style="fill:#0cff0c;stroke:#0cff0c;" x="796.974545" xlink:href="#me2ec3c7aeb" y="83.245666"/>
    </g>
   </g>
   <g id="line2d_59">
    <path clip-path="url(#pface1e70ea)" d="M 147.665455 441.925489 
L 188.247273 433.596324 
L 211.986115 426.523964 
L 228.829091 421.677899 
L 241.893518 418.90352 
L 252.567933 415.364885 
L 261.593022 412.453544 
L 269.410909 410.42754 
L 276.306775 408.47798 
L 282.475337 406.734993 
L 288.05548 404.39076 
L 306.214178 398.630857 
L 320.054077 394.41066 
L 331.239823 390.967327 
L 340.627435 387.90616 
L 348.715748 385.072827 
L 355.821085 382.449388 
L 362.156686 380.398654 
L 367.873144 378.618741 
L 373.080769 376.928178 
L 377.862788 375.246327 
L 382.283543 373.674761 
L 386.393805 372.230971 
L 390.234342 370.821069 
L 391.156364 370.52919 
L 431.738182 355.52777 
L 472.32 337.665046 
L 512.901818 317.465517 
L 553.483636 296.061112 
L 594.065455 251.755005 
L 634.647273 220.766577 
L 646.323164 210.237105 
L 675.229091 189.531295 
L 715.810909 162.832741 
L 756.392727 134.703385 
L 796.974545 83.945854 
" style="fill:none;stroke:#e50000;stroke-linecap:square;"/>
    <defs>
     <path d="M -0 2.5 
L 2.5 -2.5 
L -2.5 -2.5 
z
" id="mfaa5c0f7d9" style="stroke:#e50000;stroke-linejoin:miter;"/>
    </defs>
    <g clip-path="url(#pface1e70ea)">
     <use style="fill:#e50000;stroke:#e50000;stroke-linejoin:miter;" x="147.665455" xlink:href="#mfaa5c0f7d9" y="441.925489"/>
     <use style="fill:#e50000;stroke:#e50000;stroke-linejoin:miter;" x="188.247273" xlink:href="#mfaa5c0f7d9" y="433.596324"/>
     <use style="fill:#e50000;stroke:#e50000;stroke-linejoin:miter;" x="211.986115" xlink:href="#mfaa5c0f7d9" y="426.523964"/>
     <use style="fill:#e50000;stroke:#e50000;stroke-linejoin:miter;" x="228.829091" xlink:href="#mfaa5c0f7d9" y="421.677899"/>
     <use style="fill:#e50000;stroke:#e50000;stroke-linejoin:miter;" x="241.893518" xlink:href="#mfaa5c0f7d9" y="418.90352"/>
     <use style="fill:#e50000;stroke:#e50000;stroke-linejoin:miter;" x="252.567933" xlink:href="#mfaa5c0f7d9" y="415.364885"/>
     <use style="fill:#e50000;stroke:#e50000;stroke-linejoin:miter;" x="261.593022" xlink:href="#mfaa5c0f7d9" y="412.453544"/>
     <use style="fill:#e50000;stroke:#e50000;stroke-linejoin:miter;" x="269.410909" xlink:href="#mfaa5c0f7d9" y="410.42754"/>
     <use style="fill:#e50000;stroke:#e50000;stroke-linejoin:miter;" x="276.306775" xlink:href="#mfaa5c0f7d9" y="408.47798"/>
     <use style="fill:#e50000;stroke:#e50000;stroke-linejoin:miter;" x="282.475337" xlink:href="#mfaa5c0f7d9" y="406.734993"/>
     <use style="fill:#e50000;stroke:#e50000;stroke-linejoin:miter;" x="288.05548" xlink:href="#mfaa5c0f7d9" y="404.39076"/>
     <use style="fill:#e50000;stroke:#e50000;stroke-linejoin:miter;" x="306.214178" xlink:href="#mfaa5c0f7d9" y="398.630857"/>
     <use style="fill:#e50000;stroke:#e50000;stroke-linejoin:miter;" x="320.054077" xlink:href="#mfaa5c0f7d9" y="394.41066"/>
     <use style="fill:#e50000;stroke:#e50000;stroke-linejoin:miter;" x="331.239823" xlink:href="#mfaa5c0f7d9" y="390.967327"/>
     <use style="fill:#e50000;stroke:#e50000;stroke-linejoin:miter;" x="340.627435" xlink:href="#mfaa5c0f7d9" y="387.90616"/>
     <use style="fill:#e50000;stroke:#e50000;stroke-linejoin:miter;" x="348.715748" xlink:href="#mfaa5c0f7d9" y="385.072827"/>
     <use style="fill:#e50000;stroke:#e50000;stroke-linejoin:miter;" x="355.821085" xlink:href="#mfaa5c0f7d9" y="382.449388"/>
     <use style="fill:#e50000;stroke:#e50000;stroke-linejoin:miter;" x="362.156686" xlink:href="#mfaa5c0f7d9" y="380.398654"/>
     <use style="fill:#e50000;stroke:#e50000;stroke-linejoin:miter;" x="367.873144" xlink:href="#mfaa5c0f7d9" y="378.618741"/>
     <use style="fill:#e50000;stroke:#e50000;stroke-linejoin:miter;" x="373.080769" xlink:href="#mfaa5c0f7d9" y="376.928178"/>
     <use style="fill:#e50000;stroke:#e50000;stroke-linejoin:miter;" x="377.862788" xlink:href="#mfaa5c0f7d9" y="375.246327"/>
     <use style="fill:#e50000;stroke:#e50000;stroke-linejoin:miter;" x="382.283543" xlink:href="#mfaa5c0f7d9" y="373.674761"/>
     <use style="fill:#e50000;stroke:#e50000;stroke-linejoin:miter;" x="386.393805" xlink:href="#mfaa5c0f7d9" y="372.230971"/>
     <use style="fill:#e50000;stroke:#e50000;stroke-linejoin:miter;" x="390.234342" xlink:href="#mfaa5c0f7d9" y="370.821069"/>
     <use style="fill:#e50000;stroke:#e50000;stroke-linejoin:miter;" x="391.156364" xlink:href="#mfaa5c0f7d9" y="370.52919"/>
     <use style="fill:#e50000;stroke:#e50000;stroke-linejoin:miter;" x="431.738182" xlink:href="#mfaa5c0f7d9" y="355.52777"/>
     <use style="fill:#e50000;stroke:#e50000;stroke-linejoin:miter;" x="472.32" xlink:href="#mfaa5c0f7d9" y="337.665046"/>
     <use style="fill:#e50000;stroke:#e50000;stroke-linejoin:miter;" x="512.901818" xlink:href="#mfaa5c0f7d9" y="317.465517"/>
     <use style="fill:#e50000;stroke:#e50000;stroke-linejoin:miter;" x="553.483636" xlink:href="#mfaa5c0f7d9" y="296.061112"/>
     <use style="fill:#e50000;stroke:#e50000;stroke-linejoin:miter;" x="594.065455" xlink:href="#mfaa5c0f7d9" y="251.755005"/>
     <use style="fill:#e50000;stroke:#e50000;stroke-linejoin:miter;" x="634.647273" xlink:href="#mfaa5c0f7d9" y="220.766577"/>
     <use style="fill:#e50000;stroke:#e50000;stroke-linejoin:miter;" x="646.323164" xlink:href="#mfaa5c0f7d9" y="210.237105"/>
     <use style="fill:#e50000;stroke:#e50000;stroke-linejoin:miter;" x="675.229091" xlink:href="#mfaa5c0f7d9" y="189.531295"/>
     <use style="fill:#e50000;stroke:#e50000;stroke-linejoin:miter;" x="715.810909" xlink:href="#mfaa5c0f7d9" y="162.832741"/>
     <use style="fill:#e50000;stroke:#e50000;stroke-linejoin:miter;" x="756.392727" xlink:href="#mfaa5c0f7d9" y="134.703385"/>
     <use style="fill:#e50000;stroke:#e50000;stroke-linejoin:miter;" x="796.974545" xlink:href="#mfaa5c0f7d9" y="83.945854"/>
    </g>
   </g>
   <g id="line2d_60">
    <path clip-path="url(#pface1e70ea)" d="M 391.156364 460.7352 
L 391.156364 62.1216 
" style="fill:none;stroke:#ff0000;stroke-linecap:square;stroke-opacity:0.5;stroke-width:3;"/>
   </g>
   <g id="patch_3">
    <path d="M 115.2 460.7352 
L 115.2 62.1216 
" style="fill:none;stroke:#000000;stroke-linecap:square;stroke-linejoin:miter;stroke-width:0.8;"/>
   </g>
   <g id="patch_4">
    <path d="M 829.44 460.7352 
L 829.44 62.1216 
" style="fill:none;stroke:#000000;stroke-linecap:square;stroke-linejoin:miter;stroke-width:0.8;"/>
   </g>
   <g id="patch_5">
    <path d="M 115.2 460.7352 
L 829.44 460.7352 
" style="fill:none;stroke:#000000;stroke-linecap:square;stroke-linejoin:miter;stroke-width:0.8;"/>
   </g>
   <g id="patch_6">
    <path d="M 115.2 62.1216 
L 829.44 62.1216 
" style="fill:none;stroke:#000000;stroke-linecap:square;stroke-linejoin:miter;stroke-width:0.8;"/>
   </g>
   <g id="text_14">
    <!-- $\bf{Total}$ time to $\bf{generate}$ pascal's triangle and $\bf{iterate}$ over the triangle elements -->
    <defs>
     <path d="M 0.484375 72.90625 
L 67.671875 72.90625 
L 67.671875 58.6875 
L 43.5 58.6875 
L 43.5 0 
L 24.703125 0 
L 24.703125 58.6875 
L 0.484375 58.6875 
z
" id="DejaVuSans-Bold-84"/>
     <path d="M 34.421875 43.5 
Q 28.609375 43.5 25.5625 39.328125 
Q 22.515625 35.15625 22.515625 27.296875 
Q 22.515625 19.4375 25.5625 15.25 
Q 28.609375 11.078125 34.421875 11.078125 
Q 40.140625 11.078125 43.15625 15.25 
Q 46.1875 19.4375 46.1875 27.296875 
Q 46.1875 35.15625 43.15625 39.328125 
Q 40.140625 43.5 34.421875 43.5 
z
M 34.421875 56 
Q 48.53125 56 56.46875 48.375 
Q 64.40625 40.765625 64.40625 27.296875 
Q 64.40625 13.8125 56.46875 6.1875 
Q 48.53125 -1.421875 34.421875 -1.421875 
Q 20.265625 -1.421875 12.28125 6.1875 
Q 4.296875 13.8125 4.296875 27.296875 
Q 4.296875 40.765625 12.28125 48.375 
Q 20.265625 56 34.421875 56 
z
" id="DejaVuSans-Bold-111"/>
     <path d="M 27.484375 70.21875 
L 27.484375 54.6875 
L 45.515625 54.6875 
L 45.515625 42.1875 
L 27.484375 42.1875 
L 27.484375 19 
Q 27.484375 15.1875 29 13.84375 
Q 30.515625 12.5 35.015625 12.5 
L 44 12.5 
L 44 0 
L 29 0 
Q 18.65625 0 14.328125 4.3125 
Q 10.015625 8.640625 10.015625 19 
L 10.015625 42.1875 
L 1.3125 42.1875 
L 1.3125 54.6875 
L 10.015625 54.6875 
L 10.015625 70.21875 
z
" id="DejaVuSans-Bold-116"/>
     <path d="M 32.90625 24.609375 
Q 27.4375 24.609375 24.671875 22.75 
Q 21.921875 20.90625 21.921875 17.28125 
Q 21.921875 13.96875 24.140625 12.078125 
Q 26.375 10.203125 30.328125 10.203125 
Q 35.25 10.203125 38.625 13.734375 
Q 42 17.28125 42 22.609375 
L 42 24.609375 
z
M 59.625 31.203125 
L 59.625 0 
L 42 0 
L 42 8.109375 
Q 38.484375 3.125 34.078125 0.84375 
Q 29.6875 -1.421875 23.390625 -1.421875 
Q 14.890625 -1.421875 9.59375 3.53125 
Q 4.296875 8.5 4.296875 16.40625 
Q 4.296875 26.03125 10.90625 30.515625 
Q 17.53125 35.015625 31.6875 35.015625 
L 42 35.015625 
L 42 36.375 
Q 42 40.53125 38.71875 42.453125 
Q 35.453125 44.390625 28.515625 44.390625 
Q 22.90625 44.390625 18.0625 43.265625 
Q 13.234375 42.140625 9.078125 39.890625 
L 9.078125 53.21875 
Q 14.703125 54.59375 20.359375 55.296875 
Q 26.03125 56 31.6875 56 
Q 46.484375 56 53.046875 50.171875 
Q 59.625 44.34375 59.625 31.203125 
z
" id="DejaVuSans-Bold-97"/>
     <path d="M 8.40625 75.984375 
L 25.875 75.984375 
L 25.875 0 
L 8.40625 0 
z
" id="DejaVuSans-Bold-108"/>
     <path d="M 45.609375 9.28125 
Q 42 4.5 37.640625 2.25 
Q 33.296875 0 27.59375 0 
Q 17.578125 0 11.03125 7.875 
Q 4.5 15.765625 4.5 27.984375 
Q 4.5 40.234375 11.03125 48.0625 
Q 17.578125 55.90625 27.59375 55.90625 
Q 33.296875 55.90625 37.640625 53.65625 
Q 42 51.421875 45.609375 46.578125 
L 45.609375 54.6875 
L 63.1875 54.6875 
L 63.1875 5.515625 
Q 63.1875 -7.671875 54.859375 -14.625 
Q 46.53125 -21.578125 30.71875 -21.578125 
Q 25.59375 -21.578125 20.796875 -20.796875 
Q 16.015625 -20.015625 11.1875 -18.40625 
L 11.1875 -4.78125 
Q 15.765625 -7.421875 20.15625 -8.71875 
Q 24.5625 -10.015625 29 -10.015625 
Q 37.59375 -10.015625 41.59375 -6.25 
Q 45.609375 -2.484375 45.609375 5.515625 
z
M 34.078125 43.3125 
Q 28.65625 43.3125 25.625 39.296875 
Q 22.609375 35.296875 22.609375 27.984375 
Q 22.609375 20.453125 25.53125 16.578125 
Q 28.46875 12.703125 34.078125 12.703125 
Q 39.546875 12.703125 42.578125 16.703125 
Q 45.609375 20.703125 45.609375 27.984375 
Q 45.609375 35.296875 42.578125 39.296875 
Q 39.546875 43.3125 34.078125 43.3125 
z
" id="DejaVuSans-Bold-103"/>
     <path d="M 62.984375 27.484375 
L 62.984375 22.515625 
L 22.125 22.515625 
Q 22.75 16.359375 26.5625 13.28125 
Q 30.375 10.203125 37.203125 10.203125 
Q 42.71875 10.203125 48.5 11.84375 
Q 54.296875 13.484375 60.40625 16.796875 
L 60.40625 3.328125 
Q 54.203125 0.984375 48 -0.21875 
Q 41.796875 -1.421875 35.59375 -1.421875 
Q 20.75 -1.421875 12.515625 6.125 
Q 4.296875 13.671875 4.296875 27.296875 
Q 4.296875 40.671875 12.375 48.328125 
Q 20.453125 56 34.625 56 
Q 47.515625 56 55.25 48.234375 
Q 62.984375 40.484375 62.984375 27.484375 
z
M 45.015625 33.296875 
Q 45.015625 38.28125 42.109375 41.328125 
Q 39.203125 44.390625 34.515625 44.390625 
Q 29.4375 44.390625 26.265625 41.53125 
Q 23.09375 38.671875 22.3125 33.296875 
z
" id="DejaVuSans-Bold-101"/>
     <path d="M 63.375 33.296875 
L 63.375 0 
L 45.796875 0 
L 45.796875 5.421875 
L 45.796875 25.484375 
Q 45.796875 32.5625 45.484375 35.25 
Q 45.171875 37.9375 44.390625 39.203125 
Q 43.359375 40.921875 41.59375 41.875 
Q 39.84375 42.828125 37.59375 42.828125 
Q 32.125 42.828125 29 38.59375 
Q 25.875 34.375 25.875 26.90625 
L 25.875 0 
L 8.40625 0 
L 8.40625 54.6875 
L 25.875 54.6875 
L 25.875 46.6875 
Q 29.828125 51.46875 34.265625 53.734375 
Q 38.71875 56 44.09375 56 
Q 53.5625 56 58.46875 50.1875 
Q 63.375 44.390625 63.375 33.296875 
z
" id="DejaVuSans-Bold-110"/>
     <path d="M 49.03125 39.796875 
Q 46.734375 40.875 44.453125 41.375 
Q 42.1875 41.890625 39.890625 41.890625 
Q 33.15625 41.890625 29.515625 37.5625 
Q 25.875 33.25 25.875 25.203125 
L 25.875 0 
L 8.40625 0 
L 8.40625 54.6875 
L 25.875 54.6875 
L 25.875 45.703125 
Q 29.25 51.078125 33.609375 53.53125 
Q 37.984375 56 44.09375 56 
Q 44.96875 56 45.984375 55.921875 
Q 47.015625 55.859375 48.96875 55.609375 
z
" id="DejaVuSans-Bold-114"/>
     <path d="M 18.109375 8.203125 
L 18.109375 -20.796875 
L 9.078125 -20.796875 
L 9.078125 54.6875 
L 18.109375 54.6875 
L 18.109375 46.390625 
Q 20.953125 51.265625 25.265625 53.625 
Q 29.59375 56 35.59375 56 
Q 45.5625 56 51.78125 48.09375 
Q 58.015625 40.1875 58.015625 27.296875 
Q 58.015625 14.40625 51.78125 6.484375 
Q 45.5625 -1.421875 35.59375 -1.421875 
Q 29.59375 -1.421875 25.265625 0.953125 
Q 20.953125 3.328125 18.109375 8.203125 
z
M 48.6875 27.296875 
Q 48.6875 37.203125 44.609375 42.84375 
Q 40.53125 48.484375 33.40625 48.484375 
Q 26.265625 48.484375 22.1875 42.84375 
Q 18.109375 37.203125 18.109375 27.296875 
Q 18.109375 17.390625 22.1875 11.75 
Q 26.265625 6.109375 33.40625 6.109375 
Q 40.53125 6.109375 44.609375 11.75 
Q 48.6875 17.390625 48.6875 27.296875 
z
" id="DejaVuSans-112"/>
     <path d="M 17.921875 72.90625 
L 17.921875 45.796875 
L 9.625 45.796875 
L 9.625 72.90625 
z
" id="DejaVuSans-39"/>
     <path d="M 8.40625 54.6875 
L 25.875 54.6875 
L 25.875 0 
L 8.40625 0 
z
M 8.40625 75.984375 
L 25.875 75.984375 
L 25.875 61.71875 
L 8.40625 61.71875 
z
" id="DejaVuSans-Bold-105"/>
     <path d="M 2.984375 54.6875 
L 12.5 54.6875 
L 29.59375 8.796875 
L 46.6875 54.6875 
L 56.203125 54.6875 
L 35.6875 0 
L 23.484375 0 
z
" id="DejaVuSans-118"/>
     <path d="M 54.890625 33.015625 
L 54.890625 0 
L 45.90625 0 
L 45.90625 32.71875 
Q 45.90625 40.484375 42.875 44.328125 
Q 39.84375 48.1875 33.796875 48.1875 
Q 26.515625 48.1875 22.3125 43.546875 
Q 18.109375 38.921875 18.109375 30.90625 
L 18.109375 0 
L 9.078125 0 
L 9.078125 75.984375 
L 18.109375 75.984375 
L 18.109375 46.1875 
Q 21.34375 51.125 25.703125 53.5625 
Q 30.078125 56 35.796875 56 
Q 45.21875 56 50.046875 50.171875 
Q 54.890625 44.34375 54.890625 33.015625 
z
" id="DejaVuSans-104"/>
    </defs>
    <g transform="translate(228.3 42.53985)scale(0.12 -0.12)">
     <use transform="translate(0 0.015625)" xlink:href="#DejaVuSans-Bold-84"/>
     <use transform="translate(68.212891 0.015625)" xlink:href="#DejaVuSans-Bold-111"/>
     <use transform="translate(136.914062 0.015625)" xlink:href="#DejaVuSans-Bold-116"/>
     <use transform="translate(184.716797 0.015625)" xlink:href="#DejaVuSans-Bold-97"/>
     <use transform="translate(252.197266 0.015625)" xlink:href="#DejaVuSans-Bold-108"/>
     <use transform="translate(286.474609 0.015625)" xlink:href="#DejaVuSans-32"/>
     <use transform="translate(318.261719 0.015625)" xlink:href="#DejaVuSans-116"/>
     <use transform="translate(357.470703 0.015625)" xlink:href="#DejaVuSans-105"/>
     <use transform="translate(385.253906 0.015625)" xlink:href="#DejaVuSans-109"/>
     <use transform="translate(482.666016 0.015625)" xlink:href="#DejaVuSans-101"/>
     <use transform="translate(544.189453 0.015625)" xlink:href="#DejaVuSans-32"/>
     <use transform="translate(575.976562 0.015625)" xlink:href="#DejaVuSans-116"/>
     <use transform="translate(615.185547 0.015625)" xlink:href="#DejaVuSans-111"/>
     <use transform="translate(676.367188 0.015625)" xlink:href="#DejaVuSans-32"/>
     <use transform="translate(708.154297 0.015625)" xlink:href="#DejaVuSans-Bold-103"/>
     <use transform="translate(779.736328 0.015625)" xlink:href="#DejaVuSans-Bold-101"/>
     <use transform="translate(847.558594 0.015625)" xlink:href="#DejaVuSans-Bold-110"/>
     <use transform="translate(918.75 0.015625)" xlink:href="#DejaVuSans-Bold-101"/>
     <use transform="translate(986.572266 0.015625)" xlink:href="#DejaVuSans-Bold-114"/>
     <use transform="translate(1035.888672 0.015625)" xlink:href="#DejaVuSans-Bold-97"/>
     <use transform="translate(1103.369141 0.015625)" xlink:href="#DejaVuSans-Bold-116"/>
     <use transform="translate(1151.171875 0.015625)" xlink:href="#DejaVuSans-Bold-101"/>
     <use transform="translate(1218.994141 0.015625)" xlink:href="#DejaVuSans-32"/>
     <use transform="translate(1250.78125 0.015625)" xlink:href="#DejaVuSans-112"/>
     <use transform="translate(1314.257812 0.015625)" xlink:href="#DejaVuSans-97"/>
     <use transform="translate(1375.537109 0.015625)" xlink:href="#DejaVuSans-115"/>
     <use transform="translate(1427.636719 0.015625)" xlink:href="#DejaVuSans-99"/>
     <use transform="translate(1482.617188 0.015625)" xlink:href="#DejaVuSans-97"/>
     <use transform="translate(1543.896484 0.015625)" xlink:href="#DejaVuSans-108"/>
     <use transform="translate(1571.679688 0.015625)" xlink:href="#DejaVuSans-39"/>
     <use transform="translate(1599.169922 0.015625)" xlink:href="#DejaVuSans-115"/>
     <use transform="translate(1651.269531 0.015625)" xlink:href="#DejaVuSans-32"/>
     <use transform="translate(1683.056641 0.015625)" xlink:href="#DejaVuSans-116"/>
     <use transform="translate(1722.265625 0.015625)" xlink:href="#DejaVuSans-114"/>
     <use transform="translate(1763.378906 0.015625)" xlink:href="#DejaVuSans-105"/>
     <use transform="translate(1791.162109 0.015625)" xlink:href="#DejaVuSans-97"/>
     <use transform="translate(1852.441406 0.015625)" xlink:href="#DejaVuSans-110"/>
     <use transform="translate(1915.820312 0.015625)" xlink:href="#DejaVuSans-103"/>
     <use transform="translate(1979.296875 0.015625)" xlink:href="#DejaVuSans-108"/>
     <use transform="translate(2007.080078 0.015625)" xlink:href="#DejaVuSans-101"/>
     <use transform="translate(2068.603516 0.015625)" xlink:href="#DejaVuSans-32"/>
     <use transform="translate(2100.390625 0.015625)" xlink:href="#DejaVuSans-97"/>
     <use transform="translate(2161.669922 0.015625)" xlink:href="#DejaVuSans-110"/>
     <use transform="translate(2225.048828 0.015625)" xlink:href="#DejaVuSans-100"/>
     <use transform="translate(2288.525391 0.015625)" xlink:href="#DejaVuSans-32"/>
     <use transform="translate(2320.3125 0.015625)" xlink:href="#DejaVuSans-Bold-105"/>
     <use transform="translate(2354.589844 0.015625)" xlink:href="#DejaVuSans-Bold-116"/>
     <use transform="translate(2402.392578 0.015625)" xlink:href="#DejaVuSans-Bold-101"/>
     <use transform="translate(2470.214844 0.015625)" xlink:href="#DejaVuSans-Bold-114"/>
     <use transform="translate(2519.53125 0.015625)" xlink:href="#DejaVuSans-Bold-97"/>
     <use transform="translate(2587.011719 0.015625)" xlink:href="#DejaVuSans-Bold-116"/>
     <use transform="translate(2634.814453 0.015625)" xlink:href="#DejaVuSans-Bold-101"/>
     <use transform="translate(2702.636719 0.015625)" xlink:href="#DejaVuSans-32"/>
     <use transform="translate(2734.423828 0.015625)" xlink:href="#DejaVuSans-111"/>
     <use transform="translate(2795.605469 0.015625)" xlink:href="#DejaVuSans-118"/>
     <use transform="translate(2854.785156 0.015625)" xlink:href="#DejaVuSans-101"/>
     <use transform="translate(2916.308594 0.015625)" xlink:href="#DejaVuSans-114"/>
     <use transform="translate(2957.421875 0.015625)" xlink:href="#DejaVuSans-32"/>
     <use transform="translate(2989.208984 0.015625)" xlink:href="#DejaVuSans-116"/>
     <use transform="translate(3028.417969 0.015625)" xlink:href="#DejaVuSans-104"/>
     <use transform="translate(3091.796875 0.015625)" xlink:href="#DejaVuSans-101"/>
     <use transform="translate(3153.320312 0.015625)" xlink:href="#DejaVuSans-32"/>
     <use transform="translate(3185.107422 0.015625)" xlink:href="#DejaVuSans-116"/>
     <use transform="translate(3224.316406 0.015625)" xlink:href="#DejaVuSans-114"/>
     <use transform="translate(3265.429688 0.015625)" xlink:href="#DejaVuSans-105"/>
     <use transform="translate(3293.212891 0.015625)" xlink:href="#DejaVuSans-97"/>
     <use transform="translate(3354.492188 0.015625)" xlink:href="#DejaVuSans-110"/>
     <use transform="translate(3417.871094 0.015625)" xlink:href="#DejaVuSans-103"/>
     <use transform="translate(3481.347656 0.015625)" xlink:href="#DejaVuSans-108"/>
     <use transform="translate(3509.130859 0.015625)" xlink:href="#DejaVuSans-101"/>
     <use transform="translate(3570.654297 0.015625)" xlink:href="#DejaVuSans-32"/>
     <use transform="translate(3602.441406 0.015625)" xlink:href="#DejaVuSans-101"/>
     <use transform="translate(3663.964844 0.015625)" xlink:href="#DejaVuSans-108"/>
     <use transform="translate(3691.748047 0.015625)" xlink:href="#DejaVuSans-101"/>
     <use transform="translate(3753.271484 0.015625)" xlink:href="#DejaVuSans-109"/>
     <use transform="translate(3850.683594 0.015625)" xlink:href="#DejaVuSans-101"/>
     <use transform="translate(3912.207031 0.015625)" xlink:href="#DejaVuSans-110"/>
     <use transform="translate(3975.585938 0.015625)" xlink:href="#DejaVuSans-116"/>
     <use transform="translate(4014.794922 0.015625)" xlink:href="#DejaVuSans-115"/>
    </g>
    <!-- Lower is better -->
    <defs>
     <path d="M 9.8125 72.90625 
L 19.671875 72.90625 
L 19.671875 8.296875 
L 55.171875 8.296875 
L 55.171875 0 
L 9.8125 0 
z
" id="DejaVuSans-76"/>
    </defs>
    <g transform="translate(427.27125 56.1216)scale(0.12 -0.12)">
     <use xlink:href="#DejaVuSans-76"/>
     <use x="55.697266" xlink:href="#DejaVuSans-111"/>
     <use x="116.878906" xlink:href="#DejaVuSans-119"/>
     <use x="198.666016" xlink:href="#DejaVuSans-101"/>
     <use x="260.189453" xlink:href="#DejaVuSans-114"/>
     <use x="301.302734" xlink:href="#DejaVuSans-32"/>
     <use x="333.089844" xlink:href="#DejaVuSans-105"/>
     <use x="360.873047" xlink:href="#DejaVuSans-115"/>
     <use x="412.972656" xlink:href="#DejaVuSans-32"/>
     <use x="444.759766" xlink:href="#DejaVuSans-98"/>
     <use x="508.236328" xlink:href="#DejaVuSans-101"/>
     <use x="569.759766" xlink:href="#DejaVuSans-116"/>
     <use x="608.96875" xlink:href="#DejaVuSans-116"/>
     <use x="648.177734" xlink:href="#DejaVuSans-101"/>
     <use x="709.701172" xlink:href="#DejaVuSans-114"/>
    </g>
   </g>
   <g id="legend_1">
    <g id="patch_7">
     <path d="M 122.2 129.112225 
L 233.854688 129.112225 
Q 235.854688 129.112225 235.854688 127.112225 
L 235.854688 69.1216 
Q 235.854688 67.1216 233.854688 67.1216 
L 122.2 67.1216 
Q 120.2 67.1216 120.2 69.1216 
L 120.2 127.112225 
Q 120.2 129.112225 122.2 129.112225 
z
" style="fill:#ffffff;opacity:0.8;stroke:#cccccc;stroke-linejoin:miter;"/>
    </g>
    <g id="line2d_61">
     <path d="M 124.2 75.220037 
L 144.2 75.220037 
" style="fill:none;stroke:#000000;stroke-linecap:square;"/>
    </g>
    <g id="line2d_62">
     <g>
      <use style="stroke:#000000;" x="134.2" xlink:href="#m44a7e6b37d" y="75.220037"/>
     </g>
    </g>
    <g id="text_15">
     <!-- Baseline -->
     <defs>
      <path d="M 19.671875 34.8125 
L 19.671875 8.109375 
L 35.5 8.109375 
Q 43.453125 8.109375 47.28125 11.40625 
Q 51.125 14.703125 51.125 21.484375 
Q 51.125 28.328125 47.28125 31.5625 
Q 43.453125 34.8125 35.5 34.8125 
z
M 19.671875 64.796875 
L 19.671875 42.828125 
L 34.28125 42.828125 
Q 41.5 42.828125 45.03125 45.53125 
Q 48.578125 48.25 48.578125 53.8125 
Q 48.578125 59.328125 45.03125 62.0625 
Q 41.5 64.796875 34.28125 64.796875 
z
M 9.8125 72.90625 
L 35.015625 72.90625 
Q 46.296875 72.90625 52.390625 68.21875 
Q 58.5 63.53125 58.5 54.890625 
Q 58.5 48.1875 55.375 44.234375 
Q 52.25 40.28125 46.1875 39.3125 
Q 53.46875 37.75 57.5 32.78125 
Q 61.53125 27.828125 61.53125 20.40625 
Q 61.53125 10.640625 54.890625 5.3125 
Q 48.25 0 35.984375 0 
L 9.8125 0 
z
" id="DejaVuSans-66"/>
     </defs>
     <g transform="translate(152.2 78.720037)scale(0.1 -0.1)">
      <use xlink:href="#DejaVuSans-66"/>
      <use x="68.603516" xlink:href="#DejaVuSans-97"/>
      <use x="129.882812" xlink:href="#DejaVuSans-115"/>
      <use x="181.982422" xlink:href="#DejaVuSans-101"/>
      <use x="243.505859" xlink:href="#DejaVuSans-108"/>
      <use x="271.289062" xlink:href="#DejaVuSans-105"/>
      <use x="299.072266" xlink:href="#DejaVuSans-110"/>
      <use x="362.451172" xlink:href="#DejaVuSans-101"/>
     </g>
    </g>
    <g id="line2d_63">
     <path d="M 124.2 89.898163 
L 144.2 89.898163 
" style="fill:none;stroke:#0652ff;stroke-linecap:square;"/>
    </g>
    <g id="line2d_64">
     <g>
      <use style="fill:#0652ff;stroke:#0652ff;" x="134.2" xlink:href="#mac060d3099" y="89.898163"/>
     </g>
    </g>
    <g id="text_16">
     <!-- Groovyzone -->
     <defs>
      <path d="M 59.515625 10.40625 
L 59.515625 29.984375 
L 43.40625 29.984375 
L 43.40625 38.09375 
L 69.28125 38.09375 
L 69.28125 6.78125 
Q 63.578125 2.734375 56.6875 0.65625 
Q 49.8125 -1.421875 42 -1.421875 
Q 24.90625 -1.421875 15.25 8.5625 
Q 5.609375 18.5625 5.609375 36.375 
Q 5.609375 54.25 15.25 64.234375 
Q 24.90625 74.21875 42 74.21875 
Q 49.125 74.21875 55.546875 72.453125 
Q 61.96875 70.703125 67.390625 67.28125 
L 67.390625 56.78125 
Q 61.921875 61.421875 55.765625 63.765625 
Q 49.609375 66.109375 42.828125 66.109375 
Q 29.4375 66.109375 22.71875 58.640625 
Q 16.015625 51.171875 16.015625 36.375 
Q 16.015625 21.625 22.71875 14.15625 
Q 29.4375 6.6875 42.828125 6.6875 
Q 48.046875 6.6875 52.140625 7.59375 
Q 56.25 8.5 59.515625 10.40625 
z
" id="DejaVuSans-71"/>
      <path d="M 32.171875 -5.078125 
Q 28.375 -14.84375 24.75 -17.8125 
Q 21.140625 -20.796875 15.09375 -20.796875 
L 7.90625 -20.796875 
L 7.90625 -13.28125 
L 13.1875 -13.28125 
Q 16.890625 -13.28125 18.9375 -11.515625 
Q 21 -9.765625 23.484375 -3.21875 
L 25.09375 0.875 
L 2.984375 54.6875 
L 12.5 54.6875 
L 29.59375 11.921875 
L 46.6875 54.6875 
L 56.203125 54.6875 
z
" id="DejaVuSans-121"/>
      <path d="M 5.515625 54.6875 
L 48.1875 54.6875 
L 48.1875 46.484375 
L 14.40625 7.171875 
L 48.1875 7.171875 
L 48.1875 0 
L 4.296875 0 
L 4.296875 8.203125 
L 38.09375 47.515625 
L 5.515625 47.515625 
z
" id="DejaVuSans-122"/>
     </defs>
     <g transform="translate(152.2 93.398163)scale(0.1 -0.1)">
      <use xlink:href="#DejaVuSans-71"/>
      <use x="77.490234" xlink:href="#DejaVuSans-114"/>
      <use x="118.572266" xlink:href="#DejaVuSans-111"/>
      <use x="179.753906" xlink:href="#DejaVuSans-111"/>
      <use x="240.935547" xlink:href="#DejaVuSans-118"/>
      <use x="300.115234" xlink:href="#DejaVuSans-121"/>
      <use x="359.294922" xlink:href="#DejaVuSans-122"/>
      <use x="411.785156" xlink:href="#DejaVuSans-111"/>
      <use x="472.966797" xlink:href="#DejaVuSans-110"/>
      <use x="536.345703" xlink:href="#DejaVuSans-101"/>
     </g>
    </g>
    <g id="line2d_65">
     <path d="M 124.2 104.576287 
L 144.2 104.576287 
" style="fill:none;stroke:#0cff0c;stroke-linecap:square;"/>
    </g>
    <g id="line2d_66">
     <g>
      <use style="fill:#0cff0c;stroke:#0cff0c;" x="134.2" xlink:href="#me2ec3c7aeb" y="104.576287"/>
     </g>
    </g>
    <g id="text_17">
     <!-- LordVader -->
     <defs>
      <path d="M 28.609375 0 
L 0.78125 72.90625 
L 11.078125 72.90625 
L 34.1875 11.53125 
L 57.328125 72.90625 
L 67.578125 72.90625 
L 39.796875 0 
z
" id="DejaVuSans-86"/>
     </defs>
     <g transform="translate(152.2 108.076287)scale(0.1 -0.1)">
      <use xlink:href="#DejaVuSans-76"/>
      <use x="55.697266" xlink:href="#DejaVuSans-111"/>
      <use x="116.878906" xlink:href="#DejaVuSans-114"/>
      <use x="157.976562" xlink:href="#DejaVuSans-100"/>
      <use x="221.453125" xlink:href="#DejaVuSans-86"/>
      <use x="289.751953" xlink:href="#DejaVuSans-97"/>
      <use x="351.03125" xlink:href="#DejaVuSans-100"/>
      <use x="414.507812" xlink:href="#DejaVuSans-101"/>
      <use x="476.03125" xlink:href="#DejaVuSans-114"/>
     </g>
    </g>
    <g id="line2d_67">
     <path d="M 124.2 119.254413 
L 144.2 119.254413 
" style="fill:none;stroke:#e50000;stroke-linecap:square;"/>
    </g>
    <g id="line2d_68">
     <g>
      <use style="fill:#e50000;stroke:#e50000;stroke-linejoin:miter;" x="134.2" xlink:href="#mfaa5c0f7d9" y="119.254413"/>
     </g>
    </g>
    <g id="text_18">
     <!-- LordVader2_arh -->
     <defs>
      <path d="M 50.984375 -16.609375 
L 50.984375 -23.578125 
L -0.984375 -23.578125 
L -0.984375 -16.609375 
z
" id="DejaVuSans-95"/>
     </defs>
     <g transform="translate(152.2 122.754413)scale(0.1 -0.1)">
      <use xlink:href="#DejaVuSans-76"/>
      <use x="55.697266" xlink:href="#DejaVuSans-111"/>
      <use x="116.878906" xlink:href="#DejaVuSans-114"/>
      <use x="157.976562" xlink:href="#DejaVuSans-100"/>
      <use x="221.453125" xlink:href="#DejaVuSans-86"/>
      <use x="289.751953" xlink:href="#DejaVuSans-97"/>
      <use x="351.03125" xlink:href="#DejaVuSans-100"/>
      <use x="414.507812" xlink:href="#DejaVuSans-101"/>
      <use x="476.03125" xlink:href="#DejaVuSans-114"/>
      <use x="517.144531" xlink:href="#DejaVuSans-50"/>
      <use x="580.767578" xlink:href="#DejaVuSans-95"/>
      <use x="630.767578" xlink:href="#DejaVuSans-97"/>
      <use x="692.046875" xlink:href="#DejaVuSans-114"/>
      <use x="733.144531" xlink:href="#DejaVuSans-104"/>
     </g>
    </g>
   </g>
  </g>
 </g>
 <defs>
  <clipPath id="pface1e70ea">
   <rect height="398.6136" width="714.24" x="115.2" y="62.1216"/>
  </clipPath>
 </defs>
</svg>
